<svg width="67" height="67" viewBox="0 0 67 67" fill="none" xmlns="http://www.w3.org/2000/svg">
<path d="M30.7083 16.75H25.125V25.125H16.75V30.7083H25.125V39.0833H30.7083V30.7083H39.0833V25.125H30.7083V16.75Z" fill="#8FC74A"/>
<path d="M27.9163 5.58325C15.6023 5.58325 5.58301 15.6025 5.58301 27.9166C5.58301 40.2306 15.6023 50.2499 27.9163 50.2499C32.8715 50.2489 37.6838 48.5901 41.5871 45.5376L53.8593 57.8098L57.8067 53.8623L45.5345 41.5902C48.5886 37.6865 50.2485 32.873 50.2497 27.9166C50.2497 15.6025 40.2304 5.58325 27.9163 5.58325ZM27.9163 44.6666C18.6787 44.6666 11.1663 37.1542 11.1663 27.9166C11.1663 18.679 18.6787 11.1666 27.9163 11.1666C37.154 11.1666 44.6663 18.679 44.6663 27.9166C44.6663 37.1542 37.154 44.6666 27.9163 44.6666Z" fill="#8FC74A"/>
</svg>
