<svg width="17" height="18" viewBox="0 0 17 18" fill="none" xmlns="http://www.w3.org/2000/svg">
<path d="M16.7244 15.5292L12.9438 11.7485C13.854 10.5368 14.3453 9.06189 14.3437 7.54638C14.3437 3.67532 11.1943 0.525909 7.32321 0.525909C3.45214 0.525909 0.302734 3.67532 0.302734 7.54638C0.302734 11.4174 3.45214 14.5669 7.32321 14.5669C8.83871 14.5685 10.3136 14.0772 11.5254 13.1669L15.306 16.9476C15.4974 17.1187 15.747 17.21 16.0036 17.2028C16.2602 17.1956 16.5043 17.0905 16.6858 16.909C16.8673 16.7275 16.9725 16.4834 16.9796 16.2268C16.9868 15.9702 16.8955 15.7206 16.7244 15.5292ZM2.30858 7.54638C2.30858 6.55458 2.60269 5.58506 3.1537 4.76041C3.70471 3.93576 4.48789 3.29302 5.40419 2.91347C6.3205 2.53393 7.32877 2.43462 8.30151 2.62811C9.27425 2.8216 10.1678 3.2992 10.8691 4.00051C11.5704 4.70182 12.048 5.59534 12.2415 6.56808C12.435 7.54082 12.3357 8.54909 11.9561 9.46539C11.5766 10.3817 10.9338 11.1649 10.1092 11.7159C9.28453 12.2669 8.31501 12.561 7.32321 12.561C5.99374 12.5594 4.71917 12.0306 3.77909 11.0905C2.83902 10.1504 2.31018 8.87585 2.30858 7.54638Z" fill="#222121"/>
</svg>
