<svg width="21" height="21" viewBox="0 0 21 21" fill="none" xmlns="http://www.w3.org/2000/svg">
<path d="M11.5794 0C12.7606 0.00314993 13.3601 0.00944978 13.8777 0.0241494L14.0814 0.0314992C14.3166 0.039899 14.5487 0.0503988 14.829 0.0629985C15.9461 0.115497 16.7084 0.291893 17.3772 0.551237C18.0702 0.817931 18.654 1.17912 19.2377 1.76186C19.7716 2.28674 20.1847 2.92165 20.4483 3.62242C20.7076 4.29125 20.884 5.05353 20.9365 6.17176C20.9491 6.45105 20.9596 6.68309 20.968 6.91934L20.9743 7.12303C20.9901 7.63962 20.9964 8.23916 20.9985 9.42038L20.9995 10.2037V11.5791C21.0021 12.345 20.9941 13.1108 20.9754 13.8765L20.9691 14.0802C20.9607 14.3164 20.9502 14.5485 20.9376 14.8278C20.8851 15.946 20.7066 16.7072 20.4483 17.3771C20.1855 18.0782 19.7723 18.7133 19.2377 19.2377C18.7127 19.7714 18.0779 20.1845 17.3772 20.4483C16.7084 20.7076 15.9461 20.884 14.829 20.9365C14.5799 20.9482 14.3307 20.9587 14.0814 20.968L13.8777 20.9743C13.3601 20.989 12.7606 20.9964 11.5794 20.9985L10.7962 20.9995H9.42177C8.65559 21.0022 7.8894 20.9941 7.12344 20.9754L6.91975 20.9691C6.6705 20.9596 6.42131 20.9488 6.17219 20.9365C5.05505 20.884 4.29279 20.7076 3.62292 20.4483C2.92226 20.1851 2.28762 19.7719 1.76347 19.2377C1.22909 18.713 0.815599 18.078 0.551828 17.3771C0.292491 16.7083 0.1161 15.946 0.0636025 14.8278C0.0519049 14.5786 0.0414053 14.3294 0.0321042 14.0802L0.0268546 13.8765C0.00750622 13.1109 -0.00124427 12.345 0.00060582 11.5791V9.42038C-0.00232454 8.65453 0.00537588 7.88867 0.0237047 7.12303L0.0310543 6.91934C0.0394539 6.68309 0.0499533 6.45105 0.0625527 6.17176C0.11505 5.05353 0.291441 4.2923 0.550777 3.62242C0.814434 2.92093 1.22875 2.28582 1.76452 1.76186C2.28854 1.22792 2.92276 0.814767 3.62292 0.551237C4.29279 0.291893 5.054 0.115497 6.17219 0.0629985C6.45148 0.0503988 6.68456 0.039899 6.91975 0.0314992L7.12344 0.0251993C7.88905 0.00654419 8.65489 -0.0015064 9.42072 0.0010499L11.5794 0ZM10.5001 5.24988C9.10775 5.24988 7.77246 5.80299 6.78795 6.78753C5.80343 7.77207 5.25034 9.1074 5.25034 10.4998C5.25034 11.8921 5.80343 13.2274 6.78795 14.212C7.77246 15.1965 9.10775 15.7496 10.5001 15.7496C11.8924 15.7496 13.2277 15.1965 14.2122 14.212C15.1967 13.2274 15.7498 11.8921 15.7498 10.4998C15.7498 9.1074 15.1967 7.77207 14.2122 6.78753C13.2277 5.80299 11.8924 5.24988 10.5001 5.24988ZM10.5001 7.34983C10.9137 7.34976 11.3233 7.43117 11.7055 7.5894C12.0877 7.74764 12.435 7.9796 12.7275 8.27205C13.02 8.5645 13.2521 8.91171 13.4105 9.29385C13.5688 9.67599 13.6504 10.0856 13.6504 10.4992C13.6505 10.9129 13.5691 11.3225 13.4109 11.7047C13.2526 12.0869 13.0207 12.4342 12.7282 12.7267C12.4358 13.0193 12.0886 13.2513 11.7065 13.4097C11.3243 13.5681 10.9148 13.6496 10.5011 13.6497C9.66573 13.6497 8.86455 13.3178 8.27385 12.7271C7.68314 12.1364 7.35128 11.3352 7.35128 10.4998C7.35128 9.66434 7.68314 8.86315 8.27385 8.27242C8.86455 7.68169 9.66573 7.34983 10.5011 7.34983M16.0133 3.67491C15.6653 3.67491 15.3314 3.81319 15.0853 4.05933C14.8392 4.30546 14.7009 4.6393 14.7009 4.98738C14.7009 5.33547 14.8392 5.6693 15.0853 5.91544C15.3314 6.16158 15.6653 6.29985 16.0133 6.29985C16.3614 6.29985 16.6952 6.16158 16.9414 5.91544C17.1875 5.6693 17.3258 5.33547 17.3258 4.98738C17.3258 4.6393 17.1875 4.30546 16.9414 4.05933C16.6952 3.81319 16.3614 3.67491 16.0133 3.67491Z" fill="white"/>
</svg>
