<svg width="61" height="50" viewBox="0 0 61 50" fill="none" xmlns="http://www.w3.org/2000/svg">
<path d="M17 11.5L40 11.5M17 11.5L26.8571 2M17 11.5L26.8571 21" stroke="white" stroke-width="4" stroke-linecap="round" stroke-linejoin="round"/>
<path d="M12.4229 36.1816L15.041 28.0469H16.9346L13.3662 38H12.0879L12.4229 36.1816ZM10.0029 28.0469L12.6006 36.1816L12.9561 38H11.6709L8.11621 28.0469H10.0029ZM17.2559 34.3838V34.2266C17.2559 33.6934 17.3333 33.1989 17.4883 32.7432C17.6432 32.2829 17.8665 31.8841 18.1582 31.5469C18.4544 31.2051 18.8145 30.9408 19.2383 30.7539C19.6667 30.5625 20.1497 30.4668 20.6875 30.4668C21.2298 30.4668 21.7129 30.5625 22.1367 30.7539C22.5651 30.9408 22.9274 31.2051 23.2236 31.5469C23.5199 31.8841 23.7454 32.2829 23.9004 32.7432C24.0553 33.1989 24.1328 33.6934 24.1328 34.2266V34.3838C24.1328 34.917 24.0553 35.4115 23.9004 35.8672C23.7454 36.3229 23.5199 36.7217 23.2236 37.0635C22.9274 37.4007 22.5674 37.665 22.1436 37.8564C21.7197 38.0433 21.2389 38.1367 20.7012 38.1367C20.1589 38.1367 19.6735 38.0433 19.2451 37.8564C18.8213 37.665 18.4613 37.4007 18.165 37.0635C17.8688 36.7217 17.6432 36.3229 17.4883 35.8672C17.3333 35.4115 17.2559 34.917 17.2559 34.3838ZM18.9033 34.2266V34.3838C18.9033 34.7165 18.9375 35.0309 19.0059 35.3271C19.0742 35.6234 19.1813 35.8831 19.3271 36.1064C19.473 36.3298 19.6598 36.5052 19.8877 36.6328C20.1156 36.7604 20.3867 36.8242 20.7012 36.8242C21.0065 36.8242 21.2708 36.7604 21.4941 36.6328C21.722 36.5052 21.9089 36.3298 22.0547 36.1064C22.2005 35.8831 22.3076 35.6234 22.376 35.3271C22.4489 35.0309 22.4854 34.7165 22.4854 34.3838V34.2266C22.4854 33.8984 22.4489 33.5885 22.376 33.2969C22.3076 33.0007 22.1982 32.7386 22.0479 32.5107C21.902 32.2829 21.7152 32.1051 21.4873 31.9775C21.264 31.8454 20.9974 31.7793 20.6875 31.7793C20.3776 31.7793 20.1087 31.8454 19.8809 31.9775C19.6576 32.1051 19.473 32.2829 19.3271 32.5107C19.1813 32.7386 19.0742 33.0007 19.0059 33.2969C18.9375 33.5885 18.9033 33.8984 18.9033 34.2266ZM27.2773 27.5V38H25.623V27.5H27.2773ZM31.4883 36.6943L33.2998 30.6035H35.0088L32.4385 38H31.3721L31.4883 36.6943ZM30.1006 30.6035L31.9463 36.7217L32.0352 38H30.9688L28.3848 30.6035H30.1006ZM39.1924 38.1367C38.6455 38.1367 38.151 38.0479 37.709 37.8701C37.2715 37.6878 36.8978 37.4349 36.5879 37.1113C36.2826 36.7878 36.0479 36.4072 35.8838 35.9697C35.7197 35.5322 35.6377 35.0605 35.6377 34.5547V34.2812C35.6377 33.7025 35.722 33.1784 35.8906 32.709C36.0592 32.2396 36.2939 31.8385 36.5947 31.5059C36.8955 31.1686 37.251 30.9111 37.6611 30.7334C38.0713 30.5557 38.5156 30.4668 38.9941 30.4668C39.5228 30.4668 39.9854 30.5557 40.3818 30.7334C40.7783 30.9111 41.1064 31.1618 41.3662 31.4854C41.6305 31.8044 41.8265 32.1849 41.9541 32.627C42.0863 33.069 42.1523 33.5566 42.1523 34.0898V34.7939H36.4375V33.6113H40.5254V33.4814C40.5163 33.1852 40.457 32.9072 40.3477 32.6475C40.2428 32.3877 40.0811 32.1781 39.8623 32.0186C39.6436 31.859 39.3519 31.7793 38.9873 31.7793C38.7139 31.7793 38.4701 31.8385 38.2559 31.957C38.0462 32.071 37.8708 32.2373 37.7295 32.4561C37.5882 32.6748 37.4788 32.9391 37.4014 33.249C37.3285 33.5544 37.292 33.8984 37.292 34.2812V34.5547C37.292 34.8783 37.3353 35.179 37.4219 35.457C37.513 35.7305 37.6452 35.9697 37.8184 36.1748C37.9915 36.3799 38.2012 36.5417 38.4473 36.6602C38.6934 36.7741 38.9736 36.8311 39.2881 36.8311C39.6846 36.8311 40.0378 36.7513 40.3477 36.5918C40.6576 36.4323 40.9264 36.2067 41.1543 35.915L42.0225 36.7559C41.863 36.9883 41.6556 37.2116 41.4004 37.4258C41.1452 37.6354 40.833 37.8063 40.4639 37.9385C40.0993 38.0706 39.6755 38.1367 39.1924 38.1367ZM45.0918 32.0117V38H43.4443V30.6035H45.0166L45.0918 32.0117ZM47.3545 30.5557L47.3408 32.0869C47.2406 32.0687 47.1312 32.055 47.0127 32.0459C46.8988 32.0368 46.7848 32.0322 46.6709 32.0322C46.3883 32.0322 46.14 32.0732 45.9258 32.1553C45.7116 32.2327 45.5316 32.3467 45.3857 32.4971C45.2445 32.6429 45.1351 32.8206 45.0576 33.0303C44.9801 33.2399 44.9346 33.4746 44.9209 33.7344L44.5449 33.7617C44.5449 33.2969 44.5905 32.8662 44.6816 32.4697C44.7728 32.0732 44.9095 31.7246 45.0918 31.4238C45.2786 31.123 45.5111 30.8883 45.7891 30.7197C46.0716 30.5511 46.3975 30.4668 46.7666 30.4668C46.8669 30.4668 46.974 30.4759 47.0879 30.4941C47.2064 30.5124 47.2952 30.5329 47.3545 30.5557Z" fill="white"/>
</svg>
