<svg width="159" height="39" viewBox="0 0 159 39" fill="none" xmlns="http://www.w3.org/2000/svg">
<rect width="159" height="39" rx="8" fill="#2A6D4C"/>
<path d="M37.3203 13.625H41.0859C41.9401 13.625 42.6615 13.7552 43.25 14.0156C43.8438 14.276 44.2943 14.6615 44.6016 15.1719C44.9141 15.6771 45.0703 16.2995 45.0703 17.0391C45.0703 17.5599 44.9635 18.0365 44.75 18.4688C44.5417 18.8958 44.2396 19.2604 43.8438 19.5625C43.4531 19.8594 42.9844 20.0807 42.4375 20.2266L42.0156 20.3906H38.4766L38.4609 19.1641H41.1328C41.6745 19.1641 42.125 19.0703 42.4844 18.8828C42.8438 18.6901 43.1146 18.4323 43.2969 18.1094C43.4792 17.7865 43.5703 17.4297 43.5703 17.0391C43.5703 16.6016 43.4844 16.2188 43.3125 15.8906C43.1406 15.5625 42.8698 15.3099 42.5 15.1328C42.1354 14.9505 41.6641 14.8594 41.0859 14.8594H38.8281V25H37.3203V13.625ZM43.9688 25L41.2031 19.8438L42.7734 19.8359L45.5781 24.9062V25H43.9688ZM50.4688 25.1562C49.8802 25.1562 49.3464 25.0573 48.8672 24.8594C48.3932 24.6562 47.9844 24.3724 47.6406 24.0078C47.3021 23.6432 47.0417 23.2109 46.8594 22.7109C46.6771 22.2109 46.5859 21.6641 46.5859 21.0703V20.7422C46.5859 20.0547 46.6875 19.4427 46.8906 18.9062C47.0938 18.3646 47.3698 17.9062 47.7188 17.5312C48.0677 17.1562 48.4635 16.8724 48.9062 16.6797C49.349 16.487 49.8073 16.3906 50.2812 16.3906C50.8854 16.3906 51.4062 16.4948 51.8438 16.7031C52.2865 16.9115 52.6484 17.2031 52.9297 17.5781C53.2109 17.9479 53.4193 18.3854 53.5547 18.8906C53.6901 19.3906 53.7578 19.9375 53.7578 20.5312V21.1797H47.4453V20H52.3125V19.8906C52.2917 19.5156 52.2135 19.151 52.0781 18.7969C51.9479 18.4427 51.7396 18.151 51.4531 17.9219C51.1667 17.6927 50.776 17.5781 50.2812 17.5781C49.9531 17.5781 49.651 17.6484 49.375 17.7891C49.099 17.9245 48.862 18.1276 48.6641 18.3984C48.4661 18.6693 48.3125 19 48.2031 19.3906C48.0938 19.7812 48.0391 20.2318 48.0391 20.7422V21.0703C48.0391 21.4714 48.0938 21.849 48.2031 22.2031C48.3177 22.5521 48.4818 22.8594 48.6953 23.125C48.9141 23.3906 49.1771 23.599 49.4844 23.75C49.7969 23.901 50.151 23.9766 50.5469 23.9766C51.0573 23.9766 51.4896 23.8724 51.8438 23.6641C52.1979 23.4557 52.5078 23.1771 52.7734 22.8281L53.6484 23.5234C53.4661 23.7995 53.2344 24.0625 52.9531 24.3125C52.6719 24.5625 52.3255 24.7656 51.9141 24.9219C51.5078 25.0781 51.026 25.1562 50.4688 25.1562ZM60.3672 22.7578C60.3672 22.5495 60.3203 22.3568 60.2266 22.1797C60.138 21.9974 59.9531 21.8333 59.6719 21.6875C59.3958 21.5365 58.9792 21.4062 58.4219 21.2969C57.9531 21.1979 57.5286 21.0807 57.1484 20.9453C56.7734 20.8099 56.4531 20.6458 56.1875 20.4531C55.9271 20.2604 55.7266 20.0339 55.5859 19.7734C55.4453 19.513 55.375 19.2083 55.375 18.8594C55.375 18.526 55.4479 18.2109 55.5938 17.9141C55.7448 17.6172 55.9557 17.3542 56.2266 17.125C56.5026 16.8958 56.8333 16.7161 57.2188 16.5859C57.6042 16.4557 58.0339 16.3906 58.5078 16.3906C59.1849 16.3906 59.763 16.5104 60.2422 16.75C60.7214 16.9896 61.0885 17.3099 61.3438 17.7109C61.599 18.1068 61.7266 18.5469 61.7266 19.0312H60.2812C60.2812 18.7969 60.2109 18.5703 60.0703 18.3516C59.9349 18.1276 59.7344 17.9427 59.4688 17.7969C59.2083 17.651 58.888 17.5781 58.5078 17.5781C58.1068 17.5781 57.7812 17.6406 57.5312 17.7656C57.2865 17.8854 57.1068 18.0391 56.9922 18.2266C56.8828 18.4141 56.8281 18.612 56.8281 18.8203C56.8281 18.9766 56.8542 19.1172 56.9062 19.2422C56.9635 19.362 57.0625 19.474 57.2031 19.5781C57.3438 19.6771 57.5417 19.7708 57.7969 19.8594C58.0521 19.9479 58.3776 20.0365 58.7734 20.125C59.4661 20.2812 60.0365 20.4688 60.4844 20.6875C60.9323 20.9062 61.2656 21.1745 61.4844 21.4922C61.7031 21.8099 61.8125 22.1953 61.8125 22.6484C61.8125 23.0182 61.7344 23.3568 61.5781 23.6641C61.4271 23.9714 61.2057 24.237 60.9141 24.4609C60.6276 24.6797 60.2839 24.8516 59.8828 24.9766C59.487 25.0964 59.0417 25.1562 58.5469 25.1562C57.8021 25.1562 57.1719 25.0234 56.6562 24.7578C56.1406 24.4922 55.75 24.1484 55.4844 23.7266C55.2188 23.3047 55.0859 22.8594 55.0859 22.3906H56.5391C56.5599 22.7865 56.6745 23.1016 56.8828 23.3359C57.0911 23.5651 57.3464 23.7292 57.6484 23.8281C57.9505 23.9219 58.25 23.9688 58.5469 23.9688C58.9427 23.9688 59.2734 23.9167 59.5391 23.8125C59.8099 23.7083 60.0156 23.5651 60.1562 23.3828C60.2969 23.2005 60.3672 22.9922 60.3672 22.7578ZM67.2188 25.1562C66.6302 25.1562 66.0964 25.0573 65.6172 24.8594C65.1432 24.6562 64.7344 24.3724 64.3906 24.0078C64.0521 23.6432 63.7917 23.2109 63.6094 22.7109C63.4271 22.2109 63.3359 21.6641 63.3359 21.0703V20.7422C63.3359 20.0547 63.4375 19.4427 63.6406 18.9062C63.8438 18.3646 64.1198 17.9062 64.4688 17.5312C64.8177 17.1562 65.2135 16.8724 65.6562 16.6797C66.099 16.487 66.5573 16.3906 67.0312 16.3906C67.6354 16.3906 68.1562 16.4948 68.5938 16.7031C69.0365 16.9115 69.3984 17.2031 69.6797 17.5781C69.9609 17.9479 70.1693 18.3854 70.3047 18.8906C70.4401 19.3906 70.5078 19.9375 70.5078 20.5312V21.1797H64.1953V20H69.0625V19.8906C69.0417 19.5156 68.9635 19.151 68.8281 18.7969C68.6979 18.4427 68.4896 18.151 68.2031 17.9219C67.9167 17.6927 67.526 17.5781 67.0312 17.5781C66.7031 17.5781 66.401 17.6484 66.125 17.7891C65.849 17.9245 65.612 18.1276 65.4141 18.3984C65.2161 18.6693 65.0625 19 64.9531 19.3906C64.8438 19.7812 64.7891 20.2318 64.7891 20.7422V21.0703C64.7891 21.4714 64.8438 21.849 64.9531 22.2031C65.0677 22.5521 65.2318 22.8594 65.4453 23.125C65.6641 23.3906 65.9271 23.599 66.2344 23.75C66.5469 23.901 66.901 23.9766 67.2969 23.9766C67.8073 23.9766 68.2396 23.8724 68.5938 23.6641C68.9479 23.4557 69.2578 23.1771 69.5234 22.8281L70.3984 23.5234C70.2161 23.7995 69.9844 24.0625 69.7031 24.3125C69.4219 24.5625 69.0755 24.7656 68.6641 24.9219C68.2578 25.0781 67.776 25.1562 67.2188 25.1562ZM73.6406 17.875V25H72.1953V16.5469H73.6016L73.6406 17.875ZM76.2812 16.5L76.2734 17.8438C76.1536 17.8177 76.0391 17.8021 75.9297 17.7969C75.8255 17.7865 75.7057 17.7812 75.5703 17.7812C75.237 17.7812 74.9427 17.8333 74.6875 17.9375C74.4323 18.0417 74.2161 18.1875 74.0391 18.375C73.862 18.5625 73.7214 18.7865 73.6172 19.0469C73.5182 19.3021 73.4531 19.5833 73.4219 19.8906L73.0156 20.125C73.0156 19.6146 73.0651 19.1354 73.1641 18.6875C73.2682 18.2396 73.4271 17.8438 73.6406 17.5C73.8542 17.151 74.125 16.8802 74.4531 16.6875C74.7865 16.4896 75.1823 16.3906 75.6406 16.3906C75.7448 16.3906 75.8646 16.4036 76 16.4297C76.1354 16.4505 76.2292 16.474 76.2812 16.5ZM80.3281 23.6953L82.6406 16.5469H84.1172L81.0781 25H80.1094L80.3281 23.6953ZM78.3984 16.5469L80.7812 23.7344L80.9453 25H79.9766L76.9141 16.5469H78.3984ZM90.3672 23.5547V19.2031C90.3672 18.8698 90.2995 18.5807 90.1641 18.3359C90.0339 18.0859 89.8359 17.8932 89.5703 17.7578C89.3047 17.6224 88.9766 17.5547 88.5859 17.5547C88.2214 17.5547 87.901 17.6172 87.625 17.7422C87.3542 17.8672 87.1406 18.0312 86.9844 18.2344C86.8333 18.4375 86.7578 18.6562 86.7578 18.8906H85.3125C85.3125 18.5885 85.3906 18.2891 85.5469 17.9922C85.7031 17.6953 85.9271 17.4271 86.2188 17.1875C86.5156 16.9427 86.8698 16.75 87.2812 16.6094C87.6979 16.4635 88.1615 16.3906 88.6719 16.3906C89.2865 16.3906 89.8281 16.4948 90.2969 16.7031C90.7708 16.9115 91.1406 17.2266 91.4062 17.6484C91.6771 18.0651 91.8125 18.5885 91.8125 19.2188V23.1562C91.8125 23.4375 91.8359 23.737 91.8828 24.0547C91.9349 24.3724 92.0104 24.6458 92.1094 24.875V25H90.6016C90.5286 24.8333 90.4714 24.612 90.4297 24.3359C90.388 24.0547 90.3672 23.7943 90.3672 23.5547ZM90.6172 19.875L90.6328 20.8906H89.1719C88.7604 20.8906 88.3932 20.9245 88.0703 20.9922C87.7474 21.0547 87.4766 21.151 87.2578 21.2812C87.0391 21.4115 86.8724 21.5755 86.7578 21.7734C86.6432 21.9661 86.5859 22.1927 86.5859 22.4531C86.5859 22.7188 86.6458 22.9609 86.7656 23.1797C86.8854 23.3984 87.0651 23.5729 87.3047 23.7031C87.5495 23.8281 87.849 23.8906 88.2031 23.8906C88.6458 23.8906 89.0365 23.7969 89.375 23.6094C89.7135 23.4219 89.9818 23.1927 90.1797 22.9219C90.3828 22.651 90.4922 22.388 90.5078 22.1328L91.125 22.8281C91.0885 23.0469 90.9896 23.2891 90.8281 23.5547C90.6667 23.8203 90.4505 24.0755 90.1797 24.3203C89.9141 24.5599 89.5964 24.7604 89.2266 24.9219C88.862 25.0781 88.4505 25.1562 87.9922 25.1562C87.4193 25.1562 86.9167 25.0443 86.4844 24.8203C86.0573 24.5964 85.724 24.2969 85.4844 23.9219C85.25 23.5417 85.1328 23.1172 85.1328 22.6484C85.1328 22.1953 85.2214 21.7969 85.3984 21.4531C85.5755 21.1042 85.8307 20.8151 86.1641 20.5859C86.4974 20.3516 86.8984 20.1745 87.3672 20.0547C87.8359 19.9349 88.3594 19.875 88.9375 19.875H90.6172ZM95.5312 17.875V25H94.0859V16.5469H95.4922L95.5312 17.875ZM98.1719 16.5L98.1641 17.8438C98.0443 17.8177 97.9297 17.8021 97.8203 17.7969C97.7161 17.7865 97.5964 17.7812 97.4609 17.7812C97.1276 17.7812 96.8333 17.8333 96.5781 17.9375C96.3229 18.0417 96.1068 18.1875 95.9297 18.375C95.7526 18.5625 95.612 18.7865 95.5078 19.0469C95.4089 19.3021 95.3438 19.5833 95.3125 19.8906L94.9062 20.125C94.9062 19.6146 94.9557 19.1354 95.0547 18.6875C95.1589 18.2396 95.3177 17.8438 95.5312 17.5C95.7448 17.151 96.0156 16.8802 96.3438 16.6875C96.6771 16.4896 97.0729 16.3906 97.5312 16.3906C97.6354 16.3906 97.7552 16.4036 97.8906 16.4297C98.026 16.4505 98.1198 16.474 98.1719 16.5ZM105.203 13.625V25H103.695V13.625H105.203ZM109.969 18.7422V19.9766H104.875V18.7422H109.969ZM110.742 13.625V14.8594H104.875V13.625H110.742ZM115.656 25.1562C115.068 25.1562 114.534 25.0573 114.055 24.8594C113.581 24.6562 113.172 24.3724 112.828 24.0078C112.49 23.6432 112.229 23.2109 112.047 22.7109C111.865 22.2109 111.773 21.6641 111.773 21.0703V20.7422C111.773 20.0547 111.875 19.4427 112.078 18.9062C112.281 18.3646 112.557 17.9062 112.906 17.5312C113.255 17.1562 113.651 16.8724 114.094 16.6797C114.536 16.487 114.995 16.3906 115.469 16.3906C116.073 16.3906 116.594 16.4948 117.031 16.7031C117.474 16.9115 117.836 17.2031 118.117 17.5781C118.398 17.9479 118.607 18.3854 118.742 18.8906C118.878 19.3906 118.945 19.9375 118.945 20.5312V21.1797H112.633V20H117.5V19.8906C117.479 19.5156 117.401 19.151 117.266 18.7969C117.135 18.4427 116.927 18.151 116.641 17.9219C116.354 17.6927 115.964 17.5781 115.469 17.5781C115.141 17.5781 114.839 17.6484 114.562 17.7891C114.286 17.9245 114.049 18.1276 113.852 18.3984C113.654 18.6693 113.5 19 113.391 19.3906C113.281 19.7812 113.227 20.2318 113.227 20.7422V21.0703C113.227 21.4714 113.281 21.849 113.391 22.2031C113.505 22.5521 113.669 22.8594 113.883 23.125C114.102 23.3906 114.365 23.599 114.672 23.75C114.984 23.901 115.339 23.9766 115.734 23.9766C116.245 23.9766 116.677 23.8724 117.031 23.6641C117.385 23.4557 117.695 23.1771 117.961 22.8281L118.836 23.5234C118.654 23.7995 118.422 24.0625 118.141 24.3125C117.859 24.5625 117.513 24.7656 117.102 24.9219C116.695 25.0781 116.214 25.1562 115.656 25.1562ZM124.016 23.9688C124.359 23.9688 124.677 23.8984 124.969 23.7578C125.26 23.6172 125.5 23.4245 125.688 23.1797C125.875 22.9297 125.982 22.6458 126.008 22.3281H127.383C127.357 22.8281 127.188 23.2943 126.875 23.7266C126.568 24.1536 126.164 24.5 125.664 24.7656C125.164 25.026 124.615 25.1562 124.016 25.1562C123.38 25.1562 122.826 25.0443 122.352 24.8203C121.883 24.5964 121.492 24.2891 121.18 23.8984C120.872 23.5078 120.641 23.0599 120.484 22.5547C120.333 22.0443 120.258 21.5052 120.258 20.9375V20.6094C120.258 20.0417 120.333 19.5052 120.484 19C120.641 18.4896 120.872 18.0391 121.18 17.6484C121.492 17.2578 121.883 16.9505 122.352 16.7266C122.826 16.5026 123.38 16.3906 124.016 16.3906C124.677 16.3906 125.255 16.526 125.75 16.7969C126.245 17.0625 126.633 17.4271 126.914 17.8906C127.201 18.349 127.357 18.8698 127.383 19.4531H126.008C125.982 19.1042 125.883 18.7891 125.711 18.5078C125.544 18.2266 125.315 18.0026 125.023 17.8359C124.737 17.6641 124.401 17.5781 124.016 17.5781C123.573 17.5781 123.201 17.6667 122.898 17.8438C122.602 18.0156 122.365 18.25 122.188 18.5469C122.016 18.8385 121.891 19.1641 121.812 19.5234C121.74 19.8776 121.703 20.2396 121.703 20.6094V20.9375C121.703 21.3073 121.74 21.6719 121.812 22.0312C121.885 22.3906 122.008 22.7161 122.18 23.0078C122.357 23.2995 122.594 23.5339 122.891 23.7109C123.193 23.8828 123.568 23.9688 124.016 23.9688ZM130.453 13V25H129.008V13H130.453ZM130.109 20.4531L129.508 20.4297C129.513 19.8516 129.599 19.3177 129.766 18.8281C129.932 18.3333 130.167 17.9036 130.469 17.5391C130.771 17.1745 131.13 16.8932 131.547 16.6953C131.969 16.4922 132.435 16.3906 132.945 16.3906C133.362 16.3906 133.737 16.4479 134.07 16.5625C134.404 16.6719 134.688 16.849 134.922 17.0938C135.161 17.3385 135.344 17.6562 135.469 18.0469C135.594 18.4323 135.656 18.9036 135.656 19.4609V25H134.203V19.4453C134.203 19.0026 134.138 18.6484 134.008 18.3828C133.878 18.112 133.688 17.9167 133.438 17.7969C133.188 17.6719 132.88 17.6094 132.516 17.6094C132.156 17.6094 131.828 17.6849 131.531 17.8359C131.24 17.987 130.987 18.1953 130.773 18.4609C130.565 18.7266 130.401 19.0312 130.281 19.375C130.167 19.7135 130.109 20.0729 130.109 20.4531ZM142.805 23.5547V19.2031C142.805 18.8698 142.737 18.5807 142.602 18.3359C142.471 18.0859 142.273 17.8932 142.008 17.7578C141.742 17.6224 141.414 17.5547 141.023 17.5547C140.659 17.5547 140.339 17.6172 140.062 17.7422C139.792 17.8672 139.578 18.0312 139.422 18.2344C139.271 18.4375 139.195 18.6562 139.195 18.8906H137.75C137.75 18.5885 137.828 18.2891 137.984 17.9922C138.141 17.6953 138.365 17.4271 138.656 17.1875C138.953 16.9427 139.307 16.75 139.719 16.6094C140.135 16.4635 140.599 16.3906 141.109 16.3906C141.724 16.3906 142.266 16.4948 142.734 16.7031C143.208 16.9115 143.578 17.2266 143.844 17.6484C144.115 18.0651 144.25 18.5885 144.25 19.2188V23.1562C144.25 23.4375 144.273 23.737 144.32 24.0547C144.372 24.3724 144.448 24.6458 144.547 24.875V25H143.039C142.966 24.8333 142.909 24.612 142.867 24.3359C142.826 24.0547 142.805 23.7943 142.805 23.5547ZM143.055 19.875L143.07 20.8906H141.609C141.198 20.8906 140.831 20.9245 140.508 20.9922C140.185 21.0547 139.914 21.151 139.695 21.2812C139.477 21.4115 139.31 21.5755 139.195 21.7734C139.081 21.9661 139.023 22.1927 139.023 22.4531C139.023 22.7188 139.083 22.9609 139.203 23.1797C139.323 23.3984 139.503 23.5729 139.742 23.7031C139.987 23.8281 140.286 23.8906 140.641 23.8906C141.083 23.8906 141.474 23.7969 141.812 23.6094C142.151 23.4219 142.419 23.1927 142.617 22.9219C142.82 22.651 142.93 22.388 142.945 22.1328L143.562 22.8281C143.526 23.0469 143.427 23.2891 143.266 23.5547C143.104 23.8203 142.888 24.0755 142.617 24.3203C142.352 24.5599 142.034 24.7604 141.664 24.9219C141.299 25.0781 140.888 25.1562 140.43 25.1562C139.857 25.1562 139.354 25.0443 138.922 24.8203C138.495 24.5964 138.161 24.2969 137.922 23.9219C137.688 23.5417 137.57 23.1172 137.57 22.6484C137.57 22.1953 137.659 21.7969 137.836 21.4531C138.013 21.1042 138.268 20.8151 138.602 20.5859C138.935 20.3516 139.336 20.1745 139.805 20.0547C140.273 19.9349 140.797 19.875 141.375 19.875H143.055Z" fill="white"/>
<path d="M25 10V14M17 10V14M13 18H29M20 22H21V25M13 14C13 13.4696 13.2107 12.9609 13.5858 12.5858C13.9609 12.2107 14.4696 12 15 12H27C27.5304 12 28.0391 12.2107 28.4142 12.5858C28.7893 12.9609 29 13.4696 29 14V26C29 26.5304 28.7893 27.0391 28.4142 27.4142C28.0391 27.7893 27.5304 28 27 28H15C14.4696 28 13.9609 27.7893 13.5858 27.4142C13.2107 27.0391 13 26.5304 13 26V14Z" stroke="white" stroke-width="2" stroke-linecap="round" stroke-linejoin="round"/>
</svg>
