<svg width="64" height="47" viewBox="0 0 64 47" fill="none" xmlns="http://www.w3.org/2000/svg">
<path d="M63.6216 22.6525C61.1223 16.1875 56.7833 10.5966 51.141 6.57068C45.4988 2.54481 38.8005 0.260467 31.8741 0C24.9477 0.260467 18.2494 2.54481 12.6072 6.57068C6.96488 10.5966 2.62594 16.1875 0.126596 22.6525C-0.0421986 23.1194 -0.0421986 23.6306 0.126596 24.0975C2.62594 30.5625 6.96488 36.1534 12.6072 40.1793C18.2494 44.2052 24.9477 46.4895 31.8741 46.75C38.8005 46.4895 45.4988 44.2052 51.141 40.1793C56.7833 36.1534 61.1223 30.5625 63.6216 24.0975C63.7904 23.6306 63.7904 23.1194 63.6216 22.6525ZM31.8741 42.5C20.6116 42.5 8.7116 34.1488 4.39785 23.375C8.7116 12.6012 20.6116 4.25 31.8741 4.25C43.1366 4.25 55.0366 12.6012 59.3503 23.375C55.0366 34.1488 43.1366 42.5 31.8741 42.5Z" fill="#8FC74A"/>
<path d="M31.874 10.625C29.3523 10.625 26.8872 11.3728 24.7905 12.7738C22.6938 14.1748 21.0596 16.166 20.0946 18.4958C19.1295 20.8255 18.8771 23.3891 19.369 25.8624C19.861 28.3357 21.0753 30.6075 22.8584 32.3906C24.6415 34.1737 26.9134 35.3881 29.3866 35.88C31.8599 36.372 34.4235 36.1195 36.7532 35.1545C39.083 34.1894 41.0743 32.5552 42.4753 30.4585C43.8763 28.3618 44.624 25.8967 44.624 23.375C44.624 19.9935 43.2807 16.7505 40.8896 14.3594C38.4986 11.9683 35.2555 10.625 31.874 10.625ZM31.874 31.875C30.1929 31.875 28.5495 31.3765 27.1517 30.4425C25.7539 29.5085 24.6644 28.181 24.0211 26.6278C23.3777 25.0746 23.2094 23.3656 23.5374 21.7167C23.8653 20.0679 24.6749 18.5533 25.8636 17.3646C27.0524 16.1758 28.5669 15.3663 30.2158 15.0383C31.8646 14.7104 33.5737 14.8787 35.1268 15.522C36.68 16.1654 38.0075 17.2548 38.9415 18.6527C39.8755 20.0505 40.374 21.6939 40.374 23.375C40.374 25.6293 39.4785 27.7913 37.8844 29.3854C36.2904 30.9795 34.1284 31.875 31.874 31.875Z" fill="#8FC74A"/>
</svg>
