<svg width="28" height="22" viewBox="0 0 28 22" fill="none" xmlns="http://www.w3.org/2000/svg">
<path fill-rule="evenodd" clip-rule="evenodd" d="M15.9226 20.9362C15.9226 20.9362 9.26107 15.5864 14.7725 2.25195C14.7725 2.25195 8.53638 10.6868 13.0844 20.049L15.9226 20.9362Z" fill="white"/>
<path fill-rule="evenodd" clip-rule="evenodd" d="M13.9834 16.903C13.9834 16.903 19.1084 15.1198 21.2609 13.9383C24.7023 12.0748 25.4314 10.2336 25.2101 9.43555C22.897 9.88136 19.7811 8.71778 16.6392 11.4997C14.7167 13.1982 13.8965 16.4706 13.8965 16.4706C13.8965 16.4706 14.4563 13.7689 22.1419 10.9424C14.8512 14.1746 13.9834 16.903 13.9834 16.903Z" fill="white"/>
<path fill-rule="evenodd" clip-rule="evenodd" d="M13.627 6.51691C15.0669 6.47857 16.5038 6.36248 17.9319 6.16916C20.041 5.75901 20.7179 4.90751 20.7223 4.45277C19.4204 4.31011 17.9753 3.16881 15.8792 4.10949C14.599 4.68459 13.6487 6.27615 13.6487 6.27615C13.6487 6.27615 14.3691 4.93872 18.8563 4.73364C14.5166 5.22404 13.627 6.51691 13.627 6.51691Z" fill="white"/>
<path fill-rule="evenodd" clip-rule="evenodd" d="M0.0793308 4.66895C2.41408 5.41792 5.75992 4.56641 8.68921 7.78967C10.3817 9.6621 10.9068 12.8675 10.9589 13.2108C10.9068 12.8943 10.2342 10.157 3.06933 6.56813C10.2342 10.7588 10.8244 13.6744 10.8244 13.6744C10.8244 13.6744 5.73828 11.2225 3.65089 9.76466C0.309326 7.45087 -0.241806 5.46696 0.0793308 4.66895Z" fill="white"/>
<path fill-rule="evenodd" clip-rule="evenodd" d="M16.8215 0C14.8474 0.000728681 12.9124 0.564623 11.232 1.62888C9.5516 2.69313 8.19191 4.21593 7.30455 6.02746C7.79346 6.34316 8.24878 6.71073 8.66293 7.12415C9.37572 5.51565 10.5239 4.15178 11.9706 3.19528C13.4172 2.23878 15.1011 1.73005 16.8215 1.72977C19.1993 1.72977 21.4798 2.70016 23.1613 4.42748C24.8427 6.1548 25.7873 8.49752 25.7873 10.9403C25.7873 13.3831 24.8427 15.7259 23.1613 17.4532C21.4798 19.1805 19.1993 20.1509 16.8215 20.1509C14.7576 20.1506 12.757 19.4192 11.157 18.08C9.55693 16.7409 8.45529 14.8758 8.03793 12.7994C7.45641 12.5007 6.82717 12.1708 6.21094 11.832C6.42786 14.5698 7.63973 17.1235 9.60566 18.9853C11.5716 20.8472 14.1476 21.8808 16.8215 21.8807C19.6459 21.8807 22.3547 20.728 24.3519 18.6763C26.3491 16.6246 27.4711 13.8419 27.4711 10.9403C27.4711 9.50361 27.1956 8.081 26.6605 6.75366C26.1253 5.42631 25.3408 4.22027 24.3519 3.20437C23.363 2.18846 22.189 1.38256 20.8969 0.832751C19.6048 0.282947 18.22 0 16.8215 0Z" fill="white"/>
</svg>
