<svg width="98" height="30" viewBox="0 0 98 30" fill="none" xmlns="http://www.w3.org/2000/svg">
<path fill-rule="evenodd" clip-rule="evenodd" d="M19.194 27.5907C19.194 27.5907 11.1663 21.1359 17.8084 5.07031C17.8084 5.07031 10.294 15.2362 15.7745 26.5242L19.194 27.5907Z" fill="#2A6D4C"/>
<path fill-rule="evenodd" clip-rule="evenodd" d="M16.8542 22.7258C16.8542 22.7258 23.0294 20.565 25.6268 19.1574C29.7758 16.9094 30.6441 14.689 30.3856 13.7256C27.599 14.2886 23.8244 12.8612 20.0537 16.2155C17.738 18.2614 16.75 22.2064 16.75 22.2064C16.75 22.2064 17.4216 18.9473 26.6959 15.5415C17.904 19.4429 16.8542 22.7258 16.8542 22.7258Z" fill="#2A6D4C"/>
<path fill-rule="evenodd" clip-rule="evenodd" d="M16.4258 10.2136C18.1609 10.1683 19.8924 10.028 21.6129 9.7933C24.1563 9.29769 24.9707 8.27477 24.9823 7.72365C23.4385 7.55316 21.667 6.17735 19.1429 7.32716C17.5991 8.02101 16.4412 9.93605 16.4412 9.93605C16.4412 9.93605 17.3096 8.35008 22.736 8.08047C17.4987 8.65538 16.4258 10.2136 16.4258 10.2136Z" fill="#2A6D4C"/>
<path fill-rule="evenodd" clip-rule="evenodd" d="M0.11302 7.98047C2.92272 8.88842 6.95975 7.85757 10.4912 11.759C12.5328 14.015 13.1658 17.8807 13.2275 18.2931C13.1619 17.9164 12.3514 14.6137 3.71778 10.288C12.3514 15.3432 13.0654 18.8521 13.0654 18.8521C13.0654 18.8521 6.93658 15.8983 4.41634 14.1419C0.371603 11.3348 -0.272928 8.94393 0.11302 7.98047Z" fill="#2A6D4C"/>
<path fill-rule="evenodd" clip-rule="evenodd" d="M20.2776 2.35862C17.8977 2.35823 15.5646 3.0377 13.539 4.32112C11.5134 5.60453 9.8751 7.44132 8.8072 9.62623C9.39629 10.0046 9.9448 10.4458 10.4436 10.9426C11.5108 8.53859 13.3776 6.60446 15.7086 5.48775C18.0395 4.37105 20.6817 4.14498 23.1604 4.85022C25.639 5.55545 27.7915 7.14572 29.2311 9.33523C30.6707 11.5247 31.3029 14.1699 31.0142 16.7954C30.7254 19.4208 29.5347 21.8545 27.6559 23.6588C25.7771 25.4632 23.3334 26.52 20.7641 26.6394C18.1948 26.7587 15.6683 25.9328 13.6386 24.31C11.6089 22.6872 10.2092 20.3739 9.69102 17.7859C8.9886 17.4251 8.23214 17.0247 7.4834 16.6163C7.68884 19.1694 8.61371 21.6058 10.145 23.6277C11.6763 25.6496 13.7478 27.1695 16.1063 28.0018C18.4647 28.834 21.0081 28.9425 23.4256 28.314C25.8432 27.6855 28.0301 26.3473 29.7194 24.4627C31.4086 22.5782 32.5269 20.229 32.9377 17.7022C33.3485 15.1753 33.0339 12.5803 32.0325 10.2341C31.031 7.88795 29.386 5.89224 27.2985 4.49083C25.211 3.08942 22.7713 2.34301 20.2776 2.34277V2.35862Z" fill="#2A6D4C"/>
<path d="M38.0886 10.3008H36.2939V20.7958H38.0886V10.3008Z" fill="#2A6D4C"/>
<path fill-rule="evenodd" clip-rule="evenodd" d="M43.7742 14.7053C45.9316 15.2445 47.0548 16.0414 47.0548 17.7939C47.0548 19.7763 45.5534 20.942 43.4075 20.942C41.8386 20.945 40.3249 20.347 39.1621 19.2649L40.2428 17.9446C41.1086 18.8069 42.2635 19.2951 43.4693 19.3085C44.577 19.3085 45.2755 18.7851 45.2755 17.9723C45.2755 17.1595 44.8664 16.8067 42.9598 16.3547C40.787 15.8155 39.5596 15.1652 39.5596 13.2066C39.5596 11.3788 41.0185 10.1497 43.0332 10.1497C44.382 10.1212 45.6963 10.5896 46.7383 11.47L45.7734 12.8616C44.9896 12.2001 44.016 11.8212 43.0023 11.7832C41.9525 11.7832 41.3389 12.3383 41.3389 13.04C41.3504 13.8647 41.8174 14.2255 43.7742 14.7053Z" fill="#2A6D4C"/>
<path fill-rule="evenodd" clip-rule="evenodd" d="M52.8096 20.9737C52.1157 20.9688 51.4296 20.8235 50.7904 20.5462C50.1512 20.2688 49.5715 19.8648 49.0842 19.3573C48.597 18.8498 48.2119 18.2487 47.9508 17.5882C47.6897 16.9278 47.5578 16.221 47.5626 15.5082C47.5674 14.7954 47.7089 14.0905 47.9788 13.4339C48.2488 12.7772 48.6421 12.1816 49.1361 11.6811C49.6301 11.1806 50.2153 10.7849 50.8582 10.5167C51.5011 10.2485 52.1891 10.113 52.8829 10.1179C53.6233 10.09 54.3612 10.2209 55.0496 10.5021C55.738 10.7834 56.3619 11.2088 56.8814 11.7515L55.7235 13.1154C55.354 12.7151 54.9111 12.3938 54.4203 12.17C53.9295 11.9461 53.4005 11.8241 52.8636 11.8109C50.9069 11.8109 49.4904 13.4603 49.4904 15.53C49.4904 17.5997 50.9069 19.2768 52.8636 19.2768C54.118 19.2768 54.9207 18.7534 55.7968 17.9129L56.9547 19.1023C56.4425 19.711 55.8047 20.1947 55.0877 20.5185C54.3706 20.8422 53.5924 20.9977 52.8096 20.9737Z" fill="#2A6D4C"/>
<path fill-rule="evenodd" clip-rule="evenodd" d="M62.2923 12.4291L60.5439 16.6239H64.0599L62.2923 12.4291ZM67.6531 20.8029H65.7581L64.7199 18.2693H59.8878L58.8342 20.8029H56.9971L61.4779 10.2246H63.1414L67.6531 20.8029Z" fill="#2A6D4C"/>
<path fill-rule="evenodd" clip-rule="evenodd" d="M73.3835 18.2146H73.3256L70.13 13.2982V20.7918H68.3662V10.3008H70.2767L73.3835 15.2608L76.4943 10.3008H78.4047V20.7918H76.6101V13.2705L73.3835 18.2146Z" fill="#2A6D4C"/>
<path fill-rule="evenodd" clip-rule="evenodd" d="M87.7647 11.9502H81.987V14.678H87.1086V16.3274H81.987V19.1464H87.838V20.7918H80.1924V10.3008H87.7647V11.9502Z" fill="#2A6D4C"/>
<path fill-rule="evenodd" clip-rule="evenodd" d="M96.2358 10.3008H97.9996V20.7918H96.4982L90.8673 13.3299V20.7918H89.0996V10.3008H90.763L96.2358 17.5565V10.3008Z" fill="#2A6D4C"/>
</svg>
