<svg width="86" height="20" viewBox="0 0 86 20" fill="none" xmlns="http://www.w3.org/2000/svg">
<path d="M5.27344 4.82031V6.05078C5.27344 6.58464 5.21647 7.04525 5.10254 7.43262C4.98861 7.81673 4.82422 8.13249 4.60938 8.37988C4.39779 8.62402 4.14551 8.80469 3.85254 8.92188C3.55957 9.03906 3.23405 9.09766 2.87598 9.09766C2.58952 9.09766 2.32259 9.06185 2.0752 8.99023C1.8278 8.91536 1.60482 8.7998 1.40625 8.64355C1.21094 8.4873 1.04167 8.29036 0.898438 8.05273C0.758464 7.81185 0.651042 7.52539 0.576172 7.19336C0.501302 6.86133 0.463867 6.48047 0.463867 6.05078V4.82031C0.463867 4.28646 0.520833 3.8291 0.634766 3.44824C0.751953 3.06413 0.916341 2.75 1.12793 2.50586C1.34277 2.26172 1.59668 2.08268 1.88965 1.96875C2.18262 1.85156 2.50814 1.79297 2.86621 1.79297C3.15267 1.79297 3.41797 1.8304 3.66211 1.90527C3.90951 1.97689 4.13249 2.08919 4.33105 2.24219C4.52962 2.39518 4.69889 2.59212 4.83887 2.83301C4.97884 3.07064 5.08626 3.35547 5.16113 3.6875C5.236 4.01628 5.27344 4.39388 5.27344 4.82031ZM3.8623 6.23633V4.62988C3.8623 4.37272 3.84766 4.14811 3.81836 3.95605C3.79232 3.764 3.75163 3.60124 3.69629 3.46777C3.64095 3.33105 3.57259 3.22038 3.49121 3.13574C3.40983 3.05111 3.31706 2.98926 3.21289 2.9502C3.10872 2.91113 2.99316 2.8916 2.86621 2.8916C2.70671 2.8916 2.5651 2.92253 2.44141 2.98438C2.32096 3.04622 2.21842 3.14551 2.13379 3.28223C2.04915 3.41569 1.98405 3.59473 1.93848 3.81934C1.89616 4.04069 1.875 4.31087 1.875 4.62988V6.23633C1.875 6.49349 1.88802 6.71973 1.91406 6.91504C1.94336 7.11035 1.98568 7.27799 2.04102 7.41797C2.09961 7.55469 2.16797 7.66699 2.24609 7.75488C2.32747 7.83952 2.42025 7.90137 2.52441 7.94043C2.63184 7.97949 2.74902 7.99902 2.87598 7.99902C3.03223 7.99902 3.17057 7.9681 3.29102 7.90625C3.41471 7.84115 3.51888 7.74023 3.60352 7.60352C3.69141 7.46354 3.75651 7.28125 3.79883 7.05664C3.84115 6.83203 3.8623 6.55859 3.8623 6.23633ZM11.0205 7.05176C11.0205 7.49772 10.9163 7.8737 10.708 8.17969C10.4997 8.48242 10.2132 8.71191 9.84863 8.86816C9.4873 9.02116 9.07715 9.09766 8.61816 9.09766C8.15918 9.09766 7.7474 9.02116 7.38281 8.86816C7.01823 8.71191 6.73014 8.48242 6.51855 8.17969C6.30697 7.8737 6.20117 7.49772 6.20117 7.05176C6.20117 6.75228 6.26139 6.4821 6.38184 6.24121C6.50228 5.99707 6.66992 5.78874 6.88477 5.61621C7.10286 5.44043 7.3584 5.30697 7.65137 5.21582C7.94434 5.12142 8.26335 5.07422 8.6084 5.07422C9.07064 5.07422 9.48405 5.1556 9.84863 5.31836C10.2132 5.48112 10.4997 5.71061 10.708 6.00684C10.9163 6.30306 11.0205 6.65137 11.0205 7.05176ZM9.60449 6.95898C9.60449 6.74089 9.56217 6.55371 9.47754 6.39746C9.39616 6.23796 9.2806 6.11589 9.13086 6.03125C8.98112 5.94661 8.80697 5.9043 8.6084 5.9043C8.40983 5.9043 8.23568 5.94661 8.08594 6.03125C7.9362 6.11589 7.81901 6.23796 7.73438 6.39746C7.65299 6.55371 7.6123 6.74089 7.6123 6.95898C7.6123 7.17383 7.65299 7.35938 7.73438 7.51562C7.81901 7.67188 7.9362 7.79232 8.08594 7.87695C8.23893 7.95833 8.41634 7.99902 8.61816 7.99902C8.81999 7.99902 8.99414 7.95833 9.14062 7.87695C9.29036 7.79232 9.4043 7.67188 9.48242 7.51562C9.5638 7.35938 9.60449 7.17383 9.60449 6.95898ZM10.8691 3.77539C10.8691 4.13672 10.7731 4.45736 10.5811 4.7373C10.389 5.014 10.1221 5.23047 9.78027 5.38672C9.44173 5.54297 9.05436 5.62109 8.61816 5.62109C8.17871 5.62109 7.78809 5.54297 7.44629 5.38672C7.10449 5.23047 6.83757 5.014 6.64551 4.7373C6.45345 4.45736 6.35742 4.13672 6.35742 3.77539C6.35742 3.3457 6.45345 2.98438 6.64551 2.69141C6.84082 2.39518 7.10775 2.17057 7.44629 2.01758C7.78809 1.86458 8.17546 1.78809 8.6084 1.78809C9.04785 1.78809 9.43685 1.86458 9.77539 2.01758C10.1172 2.17057 10.3841 2.39518 10.5762 2.69141C10.7715 2.98438 10.8691 3.3457 10.8691 3.77539ZM9.46289 3.83887C9.46289 3.64681 9.42871 3.48079 9.36035 3.34082C9.29199 3.19759 9.19434 3.08691 9.06738 3.00879C8.94368 2.93066 8.79069 2.8916 8.6084 2.8916C8.43262 2.8916 8.28125 2.92904 8.1543 3.00391C8.0306 3.07878 7.93457 3.18783 7.86621 3.33105C7.80111 3.47103 7.76855 3.6403 7.76855 3.83887C7.76855 4.03092 7.80111 4.2002 7.86621 4.34668C7.93457 4.48991 8.03223 4.60221 8.15918 4.68359C8.28613 4.76497 8.43913 4.80566 8.61816 4.80566C8.7972 4.80566 8.94857 4.76497 9.07227 4.68359C9.19922 4.60221 9.29525 4.48991 9.36035 4.34668C9.42871 4.2002 9.46289 4.03092 9.46289 3.83887ZM16.7578 4.82031V6.05078C16.7578 6.58464 16.7008 7.04525 16.5869 7.43262C16.473 7.81673 16.3086 8.13249 16.0938 8.37988C15.8822 8.62402 15.6299 8.80469 15.3369 8.92188C15.0439 9.03906 14.7184 9.09766 14.3604 9.09766C14.0739 9.09766 13.807 9.06185 13.5596 8.99023C13.3122 8.91536 13.0892 8.7998 12.8906 8.64355C12.6953 8.4873 12.526 8.29036 12.3828 8.05273C12.2428 7.81185 12.1354 7.52539 12.0605 7.19336C11.9857 6.86133 11.9482 6.48047 11.9482 6.05078V4.82031C11.9482 4.28646 12.0052 3.8291 12.1191 3.44824C12.2363 3.06413 12.4007 2.75 12.6123 2.50586C12.8271 2.26172 13.0811 2.08268 13.374 1.96875C13.667 1.85156 13.9925 1.79297 14.3506 1.79297C14.637 1.79297 14.9023 1.8304 15.1465 1.90527C15.3939 1.97689 15.6169 2.08919 15.8154 2.24219C16.014 2.39518 16.1833 2.59212 16.3232 2.83301C16.4632 3.07064 16.5706 3.35547 16.6455 3.6875C16.7204 4.01628 16.7578 4.39388 16.7578 4.82031ZM15.3467 6.23633V4.62988C15.3467 4.37272 15.332 4.14811 15.3027 3.95605C15.2767 3.764 15.236 3.60124 15.1807 3.46777C15.1253 3.33105 15.057 3.22038 14.9756 3.13574C14.8942 3.05111 14.8014 2.98926 14.6973 2.9502C14.5931 2.91113 14.4775 2.8916 14.3506 2.8916C14.1911 2.8916 14.0495 2.92253 13.9258 2.98438C13.8053 3.04622 13.7028 3.14551 13.6182 3.28223C13.5335 3.41569 13.4684 3.59473 13.4229 3.81934C13.3805 4.04069 13.3594 4.31087 13.3594 4.62988V6.23633C13.3594 6.49349 13.3724 6.71973 13.3984 6.91504C13.4277 7.11035 13.4701 7.27799 13.5254 7.41797C13.584 7.55469 13.6523 7.66699 13.7305 7.75488C13.8118 7.83952 13.9046 7.90137 14.0088 7.94043C14.1162 7.97949 14.2334 7.99902 14.3604 7.99902C14.5166 7.99902 14.6549 7.9681 14.7754 7.90625C14.8991 7.84115 15.0033 7.74023 15.0879 7.60352C15.1758 7.46354 15.2409 7.28125 15.2832 7.05664C15.3255 6.83203 15.3467 6.55859 15.3467 6.23633ZM22.5 4.82031V6.05078C22.5 6.58464 22.443 7.04525 22.3291 7.43262C22.2152 7.81673 22.0508 8.13249 21.8359 8.37988C21.6243 8.62402 21.3721 8.80469 21.0791 8.92188C20.7861 9.03906 20.4606 9.09766 20.1025 9.09766C19.8161 9.09766 19.5492 9.06185 19.3018 8.99023C19.0544 8.91536 18.8314 8.7998 18.6328 8.64355C18.4375 8.4873 18.2682 8.29036 18.125 8.05273C17.985 7.81185 17.8776 7.52539 17.8027 7.19336C17.7279 6.86133 17.6904 6.48047 17.6904 6.05078V4.82031C17.6904 4.28646 17.7474 3.8291 17.8613 3.44824C17.9785 3.06413 18.1429 2.75 18.3545 2.50586C18.5693 2.26172 18.8232 2.08268 19.1162 1.96875C19.4092 1.85156 19.7347 1.79297 20.0928 1.79297C20.3792 1.79297 20.6445 1.8304 20.8887 1.90527C21.1361 1.97689 21.359 2.08919 21.5576 2.24219C21.7562 2.39518 21.9255 2.59212 22.0654 2.83301C22.2054 3.07064 22.3128 3.35547 22.3877 3.6875C22.4626 4.01628 22.5 4.39388 22.5 4.82031ZM21.0889 6.23633V4.62988C21.0889 4.37272 21.0742 4.14811 21.0449 3.95605C21.0189 3.764 20.9782 3.60124 20.9229 3.46777C20.8675 3.33105 20.7992 3.22038 20.7178 3.13574C20.6364 3.05111 20.5436 2.98926 20.4395 2.9502C20.3353 2.91113 20.2197 2.8916 20.0928 2.8916C19.9333 2.8916 19.7917 2.92253 19.668 2.98438C19.5475 3.04622 19.445 3.14551 19.3604 3.28223C19.2757 3.41569 19.2106 3.59473 19.165 3.81934C19.1227 4.04069 19.1016 4.31087 19.1016 4.62988V6.23633C19.1016 6.49349 19.1146 6.71973 19.1406 6.91504C19.1699 7.11035 19.2122 7.27799 19.2676 7.41797C19.3262 7.55469 19.3945 7.66699 19.4727 7.75488C19.554 7.83952 19.6468 7.90137 19.751 7.94043C19.8584 7.97949 19.9756 7.99902 20.1025 7.99902C20.2588 7.99902 20.3971 7.9681 20.5176 7.90625C20.6413 7.84115 20.7454 7.74023 20.8301 7.60352C20.918 7.46354 20.9831 7.28125 21.0254 7.05664C21.0677 6.83203 21.0889 6.55859 21.0889 6.23633ZM26.2891 5.39648V6.5H23.5303V5.39648H26.2891ZM31.0303 1.81738H31.2354V2.94043H31.1523C30.7812 2.94043 30.4508 2.99577 30.1611 3.10645C29.8714 3.21712 29.6257 3.375 29.4238 3.58008C29.2253 3.7819 29.0723 4.02604 28.9648 4.3125C28.8607 4.59896 28.8086 4.9196 28.8086 5.27441V6.45605C28.8086 6.70996 28.833 6.93457 28.8818 7.12988C28.9339 7.32194 29.0072 7.48307 29.1016 7.61328C29.1992 7.74023 29.3132 7.83626 29.4434 7.90137C29.5736 7.96322 29.7201 7.99414 29.8828 7.99414C30.0358 7.99414 30.1742 7.96159 30.2979 7.89648C30.4248 7.83138 30.5322 7.74023 30.6201 7.62305C30.7113 7.5026 30.7796 7.36263 30.8252 7.20312C30.874 7.04036 30.8984 6.86296 30.8984 6.6709C30.8984 6.47884 30.874 6.30143 30.8252 6.13867C30.7796 5.97591 30.7113 5.83594 30.6201 5.71875C30.529 5.59831 30.4183 5.50553 30.2881 5.44043C30.1579 5.37533 30.0114 5.34277 29.8486 5.34277C29.6273 5.34277 29.432 5.39486 29.2627 5.49902C29.0967 5.59993 28.9665 5.73014 28.8721 5.88965C28.7777 6.04915 28.7272 6.2168 28.7207 6.39258L28.2959 6.11914C28.3057 5.86849 28.3577 5.63086 28.4521 5.40625C28.5498 5.18164 28.6833 4.98307 28.8525 4.81055C29.0251 4.63477 29.2318 4.49805 29.4727 4.40039C29.7135 4.29948 29.9854 4.24902 30.2881 4.24902C30.6201 4.24902 30.9115 4.3125 31.1621 4.43945C31.416 4.56641 31.6276 4.74056 31.7969 4.96191C31.9661 5.18327 32.0931 5.4388 32.1777 5.72852C32.2624 6.01823 32.3047 6.32747 32.3047 6.65625C32.3047 7.0013 32.2477 7.32194 32.1338 7.61816C32.0231 7.91439 31.862 8.17318 31.6504 8.39453C31.4421 8.61589 31.1914 8.78841 30.8984 8.91211C30.6055 9.03581 30.2767 9.09766 29.9121 9.09766C29.5345 9.09766 29.1911 9.0293 28.8818 8.89258C28.5758 8.7526 28.3122 8.55729 28.0908 8.30664C27.8695 8.05599 27.6986 7.75814 27.5781 7.41309C27.4609 7.06803 27.4023 6.69043 27.4023 6.28027V5.7334C27.4023 5.16048 27.4854 4.63639 27.6514 4.16113C27.8206 3.68262 28.0632 3.26921 28.3789 2.9209C28.6947 2.56934 29.0755 2.29753 29.5215 2.10547C29.9674 1.91341 30.4704 1.81738 31.0303 1.81738ZM36.7725 1.81738H36.9775V2.94043H36.8945C36.5234 2.94043 36.193 2.99577 35.9033 3.10645C35.6136 3.21712 35.3678 3.375 35.166 3.58008C34.9674 3.7819 34.8145 4.02604 34.707 4.3125C34.6029 4.59896 34.5508 4.9196 34.5508 5.27441V6.45605C34.5508 6.70996 34.5752 6.93457 34.624 7.12988C34.6761 7.32194 34.7493 7.48307 34.8438 7.61328C34.9414 7.74023 35.0553 7.83626 35.1855 7.90137C35.3158 7.96322 35.4622 7.99414 35.625 7.99414C35.778 7.99414 35.9163 7.96159 36.04 7.89648C36.167 7.83138 36.2744 7.74023 36.3623 7.62305C36.4535 7.5026 36.5218 7.36263 36.5674 7.20312C36.6162 7.04036 36.6406 6.86296 36.6406 6.6709C36.6406 6.47884 36.6162 6.30143 36.5674 6.13867C36.5218 5.97591 36.4535 5.83594 36.3623 5.71875C36.2712 5.59831 36.1605 5.50553 36.0303 5.44043C35.9001 5.37533 35.7536 5.34277 35.5908 5.34277C35.3695 5.34277 35.1742 5.39486 35.0049 5.49902C34.8389 5.59993 34.7087 5.73014 34.6143 5.88965C34.5199 6.04915 34.4694 6.2168 34.4629 6.39258L34.0381 6.11914C34.0479 5.86849 34.0999 5.63086 34.1943 5.40625C34.292 5.18164 34.4255 4.98307 34.5947 4.81055C34.7673 4.63477 34.974 4.49805 35.2148 4.40039C35.4557 4.29948 35.7275 4.24902 36.0303 4.24902C36.3623 4.24902 36.6536 4.3125 36.9043 4.43945C37.1582 4.56641 37.3698 4.74056 37.5391 4.96191C37.7083 5.18327 37.8353 5.4388 37.9199 5.72852C38.0046 6.01823 38.0469 6.32747 38.0469 6.65625C38.0469 7.0013 37.9899 7.32194 37.876 7.61816C37.7653 7.91439 37.6042 8.17318 37.3926 8.39453C37.1842 8.61589 36.9336 8.78841 36.6406 8.91211C36.3477 9.03581 36.0189 9.09766 35.6543 9.09766C35.2767 9.09766 34.9333 9.0293 34.624 8.89258C34.318 8.7526 34.0544 8.55729 33.833 8.30664C33.6117 8.05599 33.4408 7.75814 33.3203 7.41309C33.2031 7.06803 33.1445 6.69043 33.1445 6.28027V5.7334C33.1445 5.16048 33.2275 4.63639 33.3936 4.16113C33.5628 3.68262 33.8053 3.26921 34.1211 2.9209C34.4368 2.56934 34.8177 2.29753 35.2637 2.10547C35.7096 1.91341 36.2126 1.81738 36.7725 1.81738ZM42.5146 1.81738H42.7197V2.94043H42.6367C42.2656 2.94043 41.9352 2.99577 41.6455 3.10645C41.3558 3.21712 41.11 3.375 40.9082 3.58008C40.7096 3.7819 40.5566 4.02604 40.4492 4.3125C40.3451 4.59896 40.293 4.9196 40.293 5.27441V6.45605C40.293 6.70996 40.3174 6.93457 40.3662 7.12988C40.4183 7.32194 40.4915 7.48307 40.5859 7.61328C40.6836 7.74023 40.7975 7.83626 40.9277 7.90137C41.0579 7.96322 41.2044 7.99414 41.3672 7.99414C41.5202 7.99414 41.6585 7.96159 41.7822 7.89648C41.9092 7.83138 42.0166 7.74023 42.1045 7.62305C42.1956 7.5026 42.264 7.36263 42.3096 7.20312C42.3584 7.04036 42.3828 6.86296 42.3828 6.6709C42.3828 6.47884 42.3584 6.30143 42.3096 6.13867C42.264 5.97591 42.1956 5.83594 42.1045 5.71875C42.0133 5.59831 41.9027 5.50553 41.7725 5.44043C41.6423 5.37533 41.4958 5.34277 41.333 5.34277C41.1117 5.34277 40.9163 5.39486 40.7471 5.49902C40.5811 5.59993 40.4508 5.73014 40.3564 5.88965C40.262 6.04915 40.2116 6.2168 40.2051 6.39258L39.7803 6.11914C39.79 5.86849 39.8421 5.63086 39.9365 5.40625C40.0342 5.18164 40.1676 4.98307 40.3369 4.81055C40.5094 4.63477 40.7161 4.49805 40.957 4.40039C41.1979 4.29948 41.4697 4.24902 41.7725 4.24902C42.1045 4.24902 42.3958 4.3125 42.6465 4.43945C42.9004 4.56641 43.112 4.74056 43.2812 4.96191C43.4505 5.18327 43.5775 5.4388 43.6621 5.72852C43.7467 6.01823 43.7891 6.32747 43.7891 6.65625C43.7891 7.0013 43.7321 7.32194 43.6182 7.61816C43.5075 7.91439 43.3464 8.17318 43.1348 8.39453C42.9264 8.61589 42.6758 8.78841 42.3828 8.91211C42.0898 9.03581 41.7611 9.09766 41.3965 9.09766C41.0189 9.09766 40.6755 9.0293 40.3662 8.89258C40.0602 8.7526 39.7965 8.55729 39.5752 8.30664C39.3538 8.05599 39.1829 7.75814 39.0625 7.41309C38.9453 7.06803 38.8867 6.69043 38.8867 6.28027V5.7334C38.8867 5.16048 38.9697 4.63639 39.1357 4.16113C39.305 3.68262 39.5475 3.26921 39.8633 2.9209C40.179 2.56934 40.5599 2.29753 41.0059 2.10547C41.4518 1.91341 41.9548 1.81738 42.5146 1.81738ZM47.4609 5.39648V6.5H44.7021V5.39648H47.4609ZM53.5547 6.34375V7.44727H48.4326L48.3643 6.59277L51.3281 1.89062H52.4463L51.2354 3.91699L49.7607 6.34375H53.5547ZM52.749 1.89062V9H51.3428V1.89062H52.749ZM59.1455 1.89062V2.64746L56.3965 9H54.9121L57.6611 2.98926H54.1211V1.89062H59.1455ZM64.9219 7.90137V9H60.0586V8.0625L62.3584 5.59668C62.5895 5.33952 62.7718 5.11328 62.9053 4.91797C63.0387 4.7194 63.1348 4.54199 63.1934 4.38574C63.2552 4.22624 63.2861 4.07487 63.2861 3.93164C63.2861 3.7168 63.2503 3.53288 63.1787 3.37988C63.1071 3.22363 63.0013 3.10319 62.8613 3.01855C62.7246 2.93392 62.5553 2.8916 62.3535 2.8916C62.1387 2.8916 61.9531 2.94368 61.7969 3.04785C61.6439 3.15202 61.5267 3.29688 61.4453 3.48242C61.3672 3.66797 61.3281 3.87793 61.3281 4.1123H59.917C59.917 3.68913 60.0179 3.30176 60.2197 2.9502C60.4215 2.59538 60.7064 2.3138 61.0742 2.10547C61.4421 1.89388 61.8783 1.78809 62.3828 1.78809C62.8809 1.78809 63.3008 1.86947 63.6426 2.03223C63.9876 2.19173 64.248 2.42285 64.4238 2.72559C64.6029 3.02507 64.6924 3.38314 64.6924 3.7998C64.6924 4.03418 64.6549 4.26367 64.5801 4.48828C64.5052 4.70964 64.3978 4.93099 64.2578 5.15234C64.1211 5.37044 63.9551 5.5918 63.7598 5.81641C63.5645 6.04102 63.348 6.27376 63.1104 6.51465L61.875 7.90137H64.9219ZM70.6641 7.90137V9H65.8008V8.0625L68.1006 5.59668C68.3317 5.33952 68.514 5.11328 68.6475 4.91797C68.7809 4.7194 68.877 4.54199 68.9355 4.38574C68.9974 4.22624 69.0283 4.07487 69.0283 3.93164C69.0283 3.7168 68.9925 3.53288 68.9209 3.37988C68.8493 3.22363 68.7435 3.10319 68.6035 3.01855C68.4668 2.93392 68.2975 2.8916 68.0957 2.8916C67.8809 2.8916 67.6953 2.94368 67.5391 3.04785C67.3861 3.15202 67.2689 3.29688 67.1875 3.48242C67.1094 3.66797 67.0703 3.87793 67.0703 4.1123H65.6592C65.6592 3.68913 65.7601 3.30176 65.9619 2.9502C66.1637 2.59538 66.4486 2.3138 66.8164 2.10547C67.1842 1.89388 67.6204 1.78809 68.125 1.78809C68.623 1.78809 69.043 1.86947 69.3848 2.03223C69.7298 2.19173 69.9902 2.42285 70.166 2.72559C70.3451 3.02507 70.4346 3.38314 70.4346 3.7998C70.4346 4.03418 70.3971 4.26367 70.3223 4.48828C70.2474 4.70964 70.14 4.93099 70 5.15234C69.8633 5.37044 69.6973 5.5918 69.502 5.81641C69.3066 6.04102 69.0902 6.27376 68.8525 6.51465L67.6172 7.90137H70.6641Z" fill="white"/>
<path d="M3.51025 17.6411V18H0.929688V17.6411H3.51025ZM1.05273 13.0234V18H0.632324V13.0234H1.05273ZM6.44629 17.1455V14.3018H6.85645V18H6.46338L6.44629 17.1455ZM6.52148 16.4619L6.7334 16.4551C6.7334 16.6875 6.70605 16.9017 6.65137 17.0977C6.59668 17.2936 6.51123 17.4645 6.39502 17.6104C6.27881 17.7562 6.12842 17.869 5.94385 17.9487C5.75928 18.0285 5.53711 18.0684 5.27734 18.0684C5.09733 18.0684 4.93213 18.0433 4.78174 17.9932C4.63363 17.9408 4.50602 17.8587 4.39893 17.7471C4.29183 17.6354 4.20866 17.4907 4.14941 17.313C4.09245 17.1353 4.06396 16.9199 4.06396 16.667V14.3018H4.4707V16.6738C4.4707 16.8721 4.49235 17.0373 4.53564 17.1694C4.58122 17.3016 4.64274 17.4076 4.72021 17.4873C4.79997 17.5671 4.89111 17.624 4.99365 17.6582C5.09619 17.6924 5.20671 17.7095 5.3252 17.7095C5.62598 17.7095 5.86296 17.6514 6.03613 17.5352C6.21159 17.4189 6.33577 17.2663 6.40869 17.0771C6.48389 16.8857 6.52148 16.6807 6.52148 16.4619ZM8.33301 15.0913V18H7.92627V14.3018H8.31592L8.33301 15.0913ZM8.24072 15.9219L8.05957 15.8193C8.07324 15.6006 8.11768 15.3955 8.19287 15.2041C8.26807 15.0127 8.36947 14.8441 8.49707 14.6982C8.62695 14.5524 8.77848 14.4385 8.95166 14.3564C9.12712 14.2744 9.3208 14.2334 9.53271 14.2334C9.71729 14.2334 9.88249 14.2585 10.0283 14.3086C10.1742 14.3587 10.2983 14.4385 10.4009 14.5479C10.5034 14.6572 10.5809 14.7974 10.6333 14.9683C10.688 15.1392 10.7153 15.3477 10.7153 15.5938V18H10.3052V15.5903C10.3052 15.3351 10.2699 15.1357 10.1992 14.9922C10.1286 14.8464 10.0283 14.7427 9.89844 14.6812C9.76855 14.6196 9.61475 14.5889 9.43701 14.5889C9.24105 14.5889 9.06901 14.6322 8.9209 14.7188C8.77507 14.8031 8.65202 14.9136 8.55176 15.0503C8.45378 15.1847 8.37858 15.3294 8.32617 15.4844C8.27376 15.637 8.24528 15.7829 8.24072 15.9219ZM11.7373 17.7505C11.7373 17.6707 11.7624 17.6035 11.8125 17.5488C11.8649 17.4919 11.9355 17.4634 12.0244 17.4634C12.1156 17.4634 12.1873 17.4907 12.2397 17.5454C12.2922 17.6001 12.3184 17.6685 12.3184 17.7505C12.3184 17.828 12.2922 17.894 12.2397 17.9487C12.1873 18.0034 12.1156 18.0308 12.0244 18.0308C11.9355 18.0308 11.8649 18.0034 11.8125 17.9487C11.7624 17.894 11.7373 17.828 11.7373 17.7505ZM17.4077 17.3369V15.4297C17.4077 15.2542 17.3713 15.1027 17.2983 14.9751C17.2254 14.8475 17.1183 14.7495 16.9771 14.6812C16.8358 14.6128 16.6615 14.5786 16.4541 14.5786C16.2627 14.5786 16.0918 14.6128 15.9414 14.6812C15.7933 14.7472 15.6759 14.8372 15.5894 14.9512C15.505 15.0628 15.4629 15.187 15.4629 15.3237L15.0527 15.3203C15.0527 15.1813 15.0869 15.0469 15.1553 14.917C15.2236 14.7871 15.3205 14.6709 15.4458 14.5684C15.5711 14.4658 15.7204 14.3849 15.8936 14.3257C16.069 14.2642 16.2616 14.2334 16.4712 14.2334C16.7355 14.2334 16.9679 14.2778 17.1685 14.3667C17.3713 14.4556 17.5296 14.5889 17.6436 14.7666C17.7575 14.9443 17.8145 15.1676 17.8145 15.4365V17.2241C17.8145 17.3517 17.8236 17.4839 17.8418 17.6206C17.8623 17.7573 17.8908 17.8701 17.9272 17.959V18H17.4932C17.4658 17.918 17.4442 17.8154 17.4282 17.6924C17.4146 17.5671 17.4077 17.4486 17.4077 17.3369ZM17.5034 15.8467L17.5103 16.1611H16.707C16.4974 16.1611 16.3094 16.1805 16.1431 16.2192C15.979 16.2557 15.84 16.3104 15.7261 16.3833C15.6121 16.4539 15.5244 16.5394 15.4629 16.6396C15.4036 16.7399 15.374 16.8538 15.374 16.9814C15.374 17.1136 15.4071 17.2344 15.4731 17.3438C15.5415 17.4531 15.6372 17.5409 15.7603 17.6069C15.8856 17.6707 16.0337 17.7026 16.2046 17.7026C16.4325 17.7026 16.633 17.6605 16.8062 17.5762C16.9816 17.4919 17.1263 17.3813 17.2402 17.2446C17.3542 17.1079 17.4305 16.9587 17.4692 16.7969L17.647 17.0327C17.6174 17.1466 17.5627 17.264 17.4829 17.3848C17.4054 17.5033 17.304 17.6149 17.1787 17.7197C17.0534 17.8223 16.9053 17.9066 16.7344 17.9727C16.5658 18.0365 16.3743 18.0684 16.1602 18.0684C15.9186 18.0684 15.7078 18.0228 15.5278 17.9316C15.3501 17.8405 15.2111 17.7163 15.1108 17.5591C15.0129 17.3996 14.9639 17.2196 14.9639 17.019C14.9639 16.8368 15.0026 16.6738 15.0801 16.5303C15.1576 16.3844 15.2692 16.2614 15.415 16.1611C15.5632 16.0586 15.7409 15.9811 15.9482 15.9287C16.1579 15.874 16.3926 15.8467 16.6523 15.8467H17.5034ZM21.7109 17.6069L22.897 14.3018H23.3174L21.9331 18H21.6357L21.7109 17.6069ZM20.6377 14.3018L21.8374 17.6172L21.9023 18H21.6016L20.2139 14.3018H20.6377ZM24.4453 14.3018V18H24.0386V14.3018H24.4453ZM23.9668 13.2319C23.9668 13.1545 23.9907 13.0895 24.0386 13.0371C24.0887 12.9824 24.1571 12.9551 24.2437 12.9551C24.3302 12.9551 24.3986 12.9824 24.4487 13.0371C24.5011 13.0895 24.5273 13.1545 24.5273 13.2319C24.5273 13.3071 24.5011 13.3721 24.4487 13.4268C24.3986 13.4792 24.3302 13.5054 24.2437 13.5054C24.1571 13.5054 24.0887 13.4792 24.0386 13.4268C23.9907 13.3721 23.9668 13.3071 23.9668 13.2319ZM26.9917 18.0684C26.7502 18.0684 26.528 18.0239 26.3252 17.9351C26.1247 17.8462 25.9492 17.7209 25.7988 17.5591C25.6507 17.3973 25.5356 17.2059 25.4536 16.9849C25.3739 16.7616 25.334 16.5177 25.334 16.2534V16.1064C25.334 15.8216 25.3761 15.5641 25.4604 15.334C25.5448 15.1038 25.661 14.9067 25.8091 14.7427C25.9572 14.5786 26.1258 14.4533 26.3149 14.3667C26.5063 14.2778 26.7069 14.2334 26.9165 14.2334C27.1512 14.2334 27.3597 14.2756 27.542 14.3599C27.7243 14.4419 27.877 14.5592 28 14.7119C28.1253 14.8623 28.2199 15.0412 28.2837 15.2485C28.3475 15.4536 28.3794 15.6803 28.3794 15.9287V16.1782H25.5801V15.8296H27.9727V15.7817C27.9681 15.5744 27.9259 15.3807 27.8462 15.2007C27.7687 15.0184 27.6525 14.8703 27.4976 14.7563C27.3426 14.6424 27.1489 14.5854 26.9165 14.5854C26.7433 14.5854 26.5838 14.6219 26.438 14.6948C26.2944 14.7677 26.1702 14.8726 26.0654 15.0093C25.9629 15.1437 25.8831 15.3044 25.8262 15.4912C25.7715 15.6758 25.7441 15.8809 25.7441 16.1064V16.2534C25.7441 16.4585 25.7738 16.6499 25.833 16.8276C25.8945 17.0031 25.9811 17.158 26.0928 17.2925C26.2067 17.4269 26.3411 17.5317 26.4961 17.6069C26.651 17.6821 26.8219 17.7197 27.0088 17.7197C27.2275 17.7197 27.4212 17.6799 27.5898 17.6001C27.7585 17.5181 27.91 17.3893 28.0444 17.2139L28.3008 17.4121C28.221 17.5306 28.1208 17.64 28 17.7402C27.8815 17.8405 27.7391 17.9202 27.5728 17.9795C27.4064 18.0387 27.2127 18.0684 26.9917 18.0684ZM29.1484 17.7505C29.1484 17.6707 29.1735 17.6035 29.2236 17.5488C29.276 17.4919 29.3467 17.4634 29.4355 17.4634C29.5267 17.4634 29.5985 17.4907 29.6509 17.5454C29.7033 17.6001 29.7295 17.6685 29.7295 17.7505C29.7295 17.828 29.7033 17.894 29.6509 17.9487C29.5985 18.0034 29.5267 18.0308 29.4355 18.0308C29.3467 18.0308 29.276 18.0034 29.2236 17.9487C29.1735 17.894 29.1484 17.828 29.1484 17.7505ZM34.9727 17.2822V12.75H35.3828V18H35L34.9727 17.2822ZM32.4058 16.1885V16.1167C32.4058 15.8296 32.4388 15.571 32.5049 15.3408C32.571 15.1084 32.6655 14.9102 32.7886 14.7461C32.9139 14.5798 33.0643 14.4533 33.2397 14.3667C33.4152 14.2778 33.6134 14.2334 33.8345 14.2334C34.0509 14.2334 34.2424 14.2687 34.4087 14.3394C34.575 14.41 34.7174 14.5114 34.8359 14.6436C34.9567 14.7757 35.0535 14.9329 35.1265 15.1152C35.2017 15.2975 35.2563 15.5003 35.2905 15.7236V16.6362C35.2632 16.8459 35.2131 17.0384 35.1401 17.2139C35.0672 17.387 34.9704 17.5386 34.8496 17.6685C34.7288 17.7961 34.583 17.8952 34.4121 17.9658C34.2435 18.0342 34.0487 18.0684 33.8276 18.0684C33.6089 18.0684 33.4118 18.0228 33.2363 17.9316C33.0609 17.8405 32.9116 17.7118 32.7886 17.5454C32.6655 17.3768 32.571 17.1774 32.5049 16.9473C32.4388 16.7171 32.4058 16.4642 32.4058 16.1885ZM32.8159 16.1167V16.1885C32.8159 16.4049 32.8376 16.6055 32.8809 16.79C32.9242 16.9746 32.9902 17.1353 33.0791 17.272C33.168 17.4087 33.2808 17.5158 33.4175 17.5933C33.5542 17.6707 33.716 17.7095 33.9028 17.7095C34.1375 17.7095 34.3346 17.665 34.4941 17.5762C34.6536 17.485 34.7812 17.3654 34.877 17.2173C34.9727 17.0669 35.0422 16.9028 35.0854 16.7251V15.6621C35.0581 15.5413 35.0182 15.4183 34.9658 15.293C34.9134 15.1676 34.8416 15.0526 34.7505 14.9478C34.6616 14.8407 34.5477 14.7552 34.4087 14.6914C34.272 14.6253 34.1056 14.5923 33.9097 14.5923C33.7205 14.5923 33.5576 14.631 33.4209 14.7085C33.2842 14.786 33.1702 14.8942 33.0791 15.0332C32.9902 15.1699 32.9242 15.3306 32.8809 15.5151C32.8376 15.6997 32.8159 15.9002 32.8159 16.1167ZM37.8882 18.0684C37.6466 18.0684 37.4245 18.0239 37.2217 17.9351C37.0212 17.8462 36.8457 17.7209 36.6953 17.5591C36.5472 17.3973 36.4321 17.2059 36.3501 16.9849C36.2703 16.7616 36.2305 16.5177 36.2305 16.2534V16.1064C36.2305 15.8216 36.2726 15.5641 36.3569 15.334C36.4412 15.1038 36.5575 14.9067 36.7056 14.7427C36.8537 14.5786 37.0223 14.4533 37.2114 14.3667C37.4028 14.2778 37.6034 14.2334 37.813 14.2334C38.0477 14.2334 38.2562 14.2756 38.4385 14.3599C38.6208 14.4419 38.7734 14.5592 38.8965 14.7119C39.0218 14.8623 39.1164 15.0412 39.1802 15.2485C39.244 15.4536 39.2759 15.6803 39.2759 15.9287V16.1782H36.4766V15.8296H38.8691V15.7817C38.8646 15.5744 38.8224 15.3807 38.7427 15.2007C38.6652 15.0184 38.549 14.8703 38.394 14.7563C38.2391 14.6424 38.0454 14.5854 37.813 14.5854C37.6398 14.5854 37.4803 14.6219 37.3345 14.6948C37.1909 14.7677 37.0667 14.8726 36.9619 15.0093C36.8594 15.1437 36.7796 15.3044 36.7227 15.4912C36.668 15.6758 36.6406 15.8809 36.6406 16.1064V16.2534C36.6406 16.4585 36.6702 16.6499 36.7295 16.8276C36.791 17.0031 36.8776 17.158 36.9893 17.2925C37.1032 17.4269 37.2376 17.5317 37.3926 17.6069C37.5475 17.6821 37.7184 17.7197 37.9053 17.7197C38.124 17.7197 38.3177 17.6799 38.4863 17.6001C38.6549 17.5181 38.8065 17.3893 38.9409 17.2139L39.1973 17.4121C39.1175 17.5306 39.0173 17.64 38.8965 17.7402C38.778 17.8405 38.6356 17.9202 38.4692 17.9795C38.3029 18.0387 38.1092 18.0684 37.8882 18.0684ZM44.7241 15.0845V15.9219C44.7241 16.2865 44.6899 16.6043 44.6216 16.8755C44.5532 17.1444 44.453 17.3677 44.3208 17.5454C44.1909 17.7209 44.0314 17.8519 43.8423 17.9385C43.6554 18.0251 43.4412 18.0684 43.1997 18.0684C43.0083 18.0684 42.8328 18.041 42.6733 17.9863C42.5138 17.9316 42.3714 17.8485 42.2461 17.7368C42.123 17.6229 42.0182 17.4805 41.9316 17.3096C41.8451 17.1387 41.779 16.9382 41.7334 16.708C41.6878 16.4756 41.665 16.2135 41.665 15.9219V15.0845C41.665 14.7176 41.6992 14.4009 41.7676 14.1343C41.8382 13.8677 41.9385 13.6466 42.0684 13.4712C42.2005 13.2957 42.3612 13.1659 42.5503 13.0815C42.7394 12.995 42.9536 12.9517 43.1929 12.9517C43.3843 12.9517 43.5597 12.9801 43.7192 13.0371C43.881 13.0918 44.0234 13.1738 44.1465 13.2832C44.2718 13.3926 44.3766 13.5327 44.4609 13.7036C44.5475 13.8722 44.6125 14.0716 44.6558 14.3018C44.7013 14.5319 44.7241 14.7928 44.7241 15.0845ZM44.3174 15.9697V15.0332C44.3174 14.8076 44.3014 14.6025 44.2695 14.418C44.2399 14.2334 44.1955 14.0716 44.1362 13.9326C44.077 13.7936 44.0018 13.6774 43.9106 13.584C43.8218 13.4906 43.717 13.4211 43.5962 13.3755C43.4777 13.3276 43.3433 13.3037 43.1929 13.3037C43.0083 13.3037 42.8454 13.3413 42.7041 13.4165C42.5651 13.4894 42.4489 13.5988 42.3555 13.7446C42.262 13.8882 42.1914 14.0682 42.1436 14.2847C42.098 14.5011 42.0752 14.7507 42.0752 15.0332V15.9697C42.0752 16.193 42.09 16.397 42.1196 16.5815C42.1493 16.7638 42.1948 16.9256 42.2563 17.0669C42.3179 17.2082 42.3931 17.3278 42.4819 17.4258C42.5731 17.5215 42.6779 17.5944 42.7964 17.6445C42.9172 17.6924 43.0516 17.7163 43.1997 17.7163C43.3888 17.7163 43.5529 17.6787 43.6919 17.6035C43.8309 17.526 43.9471 17.4132 44.0405 17.2651C44.134 17.1147 44.2035 16.9313 44.249 16.7148C44.2946 16.4961 44.3174 16.2477 44.3174 15.9697ZM48.6685 16.6807C48.6685 16.9814 48.5978 17.2355 48.4565 17.4429C48.3175 17.6502 48.1284 17.8063 47.8892 17.9111C47.6499 18.016 47.3822 18.0684 47.0859 18.0684C46.7874 18.0684 46.5186 18.016 46.2793 17.9111C46.04 17.8063 45.8498 17.6502 45.7085 17.4429C45.5695 17.2355 45.5 16.9814 45.5 16.6807C45.5 16.4824 45.5387 16.3024 45.6162 16.1406C45.696 15.9766 45.8065 15.8353 45.9478 15.7168C46.0913 15.596 46.2588 15.5026 46.4502 15.4365C46.6416 15.3704 46.8512 15.3374 47.0791 15.3374C47.3799 15.3374 47.6499 15.3955 47.8892 15.5117C48.1284 15.6257 48.3175 15.7829 48.4565 15.9834C48.5978 16.1839 48.6685 16.4163 48.6685 16.6807ZM48.2583 16.6807C48.2583 16.4688 48.207 16.283 48.1045 16.1235C48.002 15.964 47.8618 15.841 47.6841 15.7544C47.5063 15.6655 47.3047 15.6211 47.0791 15.6211C46.8512 15.6211 46.6496 15.6655 46.4741 15.7544C46.2987 15.841 46.1608 15.964 46.0605 16.1235C45.9603 16.283 45.9102 16.4688 45.9102 16.6807C45.9102 16.9017 45.9591 17.0897 46.0571 17.2446C46.1574 17.3996 46.2964 17.5169 46.4741 17.5967C46.6519 17.6764 46.8558 17.7163 47.0859 17.7163C47.3161 17.7163 47.5189 17.6764 47.6943 17.5967C47.8698 17.5169 48.0076 17.3996 48.1079 17.2446C48.2082 17.0897 48.2583 16.9017 48.2583 16.6807ZM48.5386 14.3018C48.5386 14.5456 48.4736 14.7632 48.3438 14.9546C48.2161 15.1437 48.043 15.293 47.8242 15.4023C47.6055 15.5094 47.3582 15.563 47.0825 15.563C46.8045 15.563 46.555 15.5094 46.334 15.4023C46.1152 15.293 45.9421 15.1437 45.8145 14.9546C45.6891 14.7632 45.6265 14.5456 45.6265 14.3018C45.6265 14.0124 45.6891 13.7686 45.8145 13.5703C45.9421 13.3698 46.1152 13.2171 46.334 13.1123C46.5527 13.0075 46.8011 12.9551 47.0791 12.9551C47.3548 12.9551 47.6021 13.0075 47.8208 13.1123C48.0418 13.2171 48.2161 13.3698 48.3438 13.5703C48.4736 13.7686 48.5386 14.0124 48.5386 14.3018ZM48.1318 14.2983C48.1318 14.1047 48.0851 13.9338 47.9917 13.7856C47.9006 13.6375 47.7752 13.5213 47.6157 13.437C47.4585 13.3504 47.2796 13.3071 47.0791 13.3071C46.8763 13.3071 46.6963 13.347 46.5391 13.4268C46.3841 13.5065 46.2611 13.6204 46.1699 13.7686C46.0811 13.9167 46.0366 14.0933 46.0366 14.2983C46.0366 14.4989 46.0811 14.672 46.1699 14.8179C46.2611 14.9614 46.3853 15.0731 46.5425 15.1528C46.6997 15.2326 46.8797 15.2725 47.0825 15.2725C47.2853 15.2725 47.4653 15.2326 47.6226 15.1528C47.7798 15.0731 47.904 14.9614 47.9951 14.8179C48.0863 14.672 48.1318 14.4989 48.1318 14.2983ZM51.6729 12.75V18H51.2661V12.75H51.6729ZM51.5806 15.9219L51.3994 15.8193C51.4131 15.6006 51.4575 15.3955 51.5327 15.2041C51.6079 15.0127 51.7093 14.8441 51.8369 14.6982C51.9668 14.5524 52.1183 14.4385 52.2915 14.3564C52.467 14.2744 52.6606 14.2334 52.8726 14.2334C53.0571 14.2334 53.2223 14.2585 53.3682 14.3086C53.514 14.3587 53.6382 14.4385 53.7407 14.5479C53.8433 14.6572 53.9207 14.7974 53.9731 14.9683C54.0278 15.1392 54.0552 15.3477 54.0552 15.5938V18H53.645V15.5903C53.645 15.3351 53.6097 15.1357 53.5391 14.9922C53.4684 14.8464 53.3682 14.7427 53.2383 14.6812C53.1084 14.6196 52.9546 14.5889 52.7769 14.5889C52.5809 14.5889 52.4089 14.6322 52.2607 14.7188C52.1149 14.8031 51.9919 14.9136 51.8916 15.0503C51.7936 15.1847 51.7184 15.3294 51.666 15.4844C51.6136 15.637 51.5851 15.7829 51.5806 15.9219ZM57.3228 17.0566C57.3228 16.9564 57.2977 16.8573 57.2476 16.7593C57.1974 16.6613 57.1006 16.5713 56.957 16.4893C56.8158 16.4072 56.6073 16.3377 56.3315 16.2808C56.1265 16.2352 55.943 16.1839 55.7812 16.127C55.6217 16.07 55.4873 16.0016 55.3779 15.9219C55.2686 15.8421 55.1854 15.7464 55.1284 15.6348C55.0715 15.5231 55.043 15.391 55.043 15.2383C55.043 15.1016 55.0726 14.9728 55.1318 14.8521C55.1934 14.729 55.2799 14.6219 55.3916 14.5308C55.5055 14.4373 55.6423 14.3644 55.8018 14.312C55.9635 14.2596 56.1447 14.2334 56.3452 14.2334C56.63 14.2334 56.8739 14.2824 57.0767 14.3804C57.2817 14.4761 57.4378 14.6071 57.5449 14.7734C57.6543 14.9398 57.709 15.1278 57.709 15.3374H57.3022C57.3022 15.2098 57.2646 15.089 57.1895 14.9751C57.1165 14.8612 57.0083 14.7677 56.8647 14.6948C56.7235 14.6219 56.5503 14.5854 56.3452 14.5854C56.1333 14.5854 55.9613 14.6174 55.8291 14.6812C55.6969 14.745 55.6001 14.8258 55.5386 14.9238C55.4793 15.0218 55.4497 15.1232 55.4497 15.228C55.4497 15.3101 55.4622 15.3853 55.4873 15.4536C55.5146 15.5197 55.5625 15.5812 55.6309 15.6382C55.7015 15.6951 55.8018 15.7487 55.9316 15.7988C56.0615 15.849 56.2301 15.8979 56.4375 15.9458C56.736 16.0119 56.9798 16.0928 57.1689 16.1885C57.3604 16.2819 57.5016 16.3981 57.5928 16.5371C57.6839 16.6738 57.7295 16.8402 57.7295 17.0361C57.7295 17.1888 57.6976 17.3289 57.6338 17.4565C57.57 17.5819 57.4777 17.6901 57.3569 17.7812C57.2384 17.8724 57.0949 17.943 56.9263 17.9932C56.7599 18.0433 56.5731 18.0684 56.3657 18.0684C56.0535 18.0684 55.7892 18.0171 55.5728 17.9146C55.3586 17.8097 55.1956 17.673 55.084 17.5044C54.9746 17.3335 54.9199 17.1523 54.9199 16.9609H55.3267C55.3403 17.1523 55.4007 17.3039 55.5078 17.4155C55.6149 17.5249 55.7459 17.6024 55.9009 17.6479C56.0581 17.6935 56.2131 17.7163 56.3657 17.7163C56.5754 17.7163 56.7508 17.6855 56.8921 17.624C57.0334 17.5625 57.1405 17.4816 57.2134 17.3813C57.2863 17.2811 57.3228 17.1729 57.3228 17.0566ZM58.6182 17.7505C58.6182 17.6707 58.6432 17.6035 58.6934 17.5488C58.7458 17.4919 58.8164 17.4634 58.9053 17.4634C58.9964 17.4634 59.0682 17.4907 59.1206 17.5454C59.173 17.6001 59.1992 17.6685 59.1992 17.7505C59.1992 17.828 59.173 17.894 59.1206 17.9487C59.0682 18.0034 58.9964 18.0308 58.9053 18.0308C58.8164 18.0308 58.7458 18.0034 58.6934 17.9487C58.6432 17.894 58.6182 17.828 58.6182 17.7505ZM64.2886 17.3369V15.4297C64.2886 15.2542 64.2521 15.1027 64.1792 14.9751C64.1063 14.8475 63.9992 14.7495 63.8579 14.6812C63.7166 14.6128 63.5423 14.5786 63.335 14.5786C63.1436 14.5786 62.9727 14.6128 62.8223 14.6812C62.6742 14.7472 62.5568 14.8372 62.4702 14.9512C62.3859 15.0628 62.3438 15.187 62.3438 15.3237L61.9336 15.3203C61.9336 15.1813 61.9678 15.0469 62.0361 14.917C62.1045 14.7871 62.2013 14.6709 62.3267 14.5684C62.452 14.4658 62.6012 14.3849 62.7744 14.3257C62.9499 14.2642 63.1424 14.2334 63.3521 14.2334C63.6164 14.2334 63.8488 14.2778 64.0493 14.3667C64.2521 14.4556 64.4105 14.5889 64.5244 14.7666C64.6383 14.9443 64.6953 15.1676 64.6953 15.4365V17.2241C64.6953 17.3517 64.7044 17.4839 64.7227 17.6206C64.7432 17.7573 64.7716 17.8701 64.8081 17.959V18H64.374C64.3467 17.918 64.325 17.8154 64.3091 17.6924C64.2954 17.5671 64.2886 17.4486 64.2886 17.3369ZM64.3843 15.8467L64.3911 16.1611H63.5879C63.3783 16.1611 63.1903 16.1805 63.0239 16.2192C62.8599 16.2557 62.7209 16.3104 62.6069 16.3833C62.493 16.4539 62.4053 16.5394 62.3438 16.6396C62.2845 16.7399 62.2549 16.8538 62.2549 16.9814C62.2549 17.1136 62.2879 17.2344 62.354 17.3438C62.4224 17.4531 62.5181 17.5409 62.6411 17.6069C62.7664 17.6707 62.9146 17.7026 63.0854 17.7026C63.3133 17.7026 63.5138 17.6605 63.687 17.5762C63.8625 17.4919 64.0072 17.3813 64.1211 17.2446C64.235 17.1079 64.3114 16.9587 64.3501 16.7969L64.5278 17.0327C64.4982 17.1466 64.4435 17.264 64.3638 17.3848C64.2863 17.5033 64.1849 17.6149 64.0596 17.7197C63.9342 17.8223 63.7861 17.9066 63.6152 17.9727C63.4466 18.0365 63.2552 18.0684 63.041 18.0684C62.7995 18.0684 62.5887 18.0228 62.4087 17.9316C62.231 17.8405 62.092 17.7163 61.9917 17.5591C61.8937 17.3996 61.8447 17.2196 61.8447 17.019C61.8447 16.8368 61.8835 16.6738 61.9609 16.5303C62.0384 16.3844 62.1501 16.2614 62.2959 16.1611C62.444 16.0586 62.6217 15.9811 62.8291 15.9287C63.0387 15.874 63.2734 15.8467 63.5332 15.8467H64.3843ZM69.3369 13.0029V18H68.9302V13.519L67.5767 14.0215V13.6353L69.2686 13.0029H69.3369ZM72.2285 15.2861H72.6455C72.9007 15.2861 73.1138 15.2428 73.2847 15.1562C73.4578 15.0674 73.5877 14.95 73.6743 14.8042C73.7632 14.6584 73.8076 14.4966 73.8076 14.3188C73.8076 14.1183 73.77 13.9429 73.6948 13.7925C73.6196 13.6398 73.5046 13.5213 73.3496 13.437C73.1969 13.3504 73.001 13.3071 72.7617 13.3071C72.5521 13.3071 72.3652 13.3481 72.2012 13.4302C72.0371 13.5122 71.9072 13.6296 71.8115 13.7822C71.7158 13.9349 71.668 14.1172 71.668 14.3291H71.2612C71.2612 14.0579 71.3262 13.8198 71.4561 13.6147C71.5859 13.4074 71.7648 13.2456 71.9927 13.1294C72.2205 13.0132 72.4769 12.9551 72.7617 12.9551C73.0557 12.9551 73.3109 13.0086 73.5273 13.1157C73.7461 13.2228 73.9147 13.3789 74.0332 13.584C74.154 13.7891 74.2144 14.0386 74.2144 14.3325C74.2144 14.4829 74.1813 14.631 74.1152 14.7769C74.0514 14.9227 73.9557 15.0549 73.8281 15.1733C73.7005 15.2896 73.5422 15.383 73.353 15.4536C73.1639 15.5243 72.944 15.5596 72.6934 15.5596H72.2285V15.2861ZM72.2285 15.6382V15.3682H72.6934C72.9782 15.3682 73.222 15.4012 73.4248 15.4673C73.6276 15.5311 73.7939 15.6222 73.9238 15.7407C74.056 15.8569 74.1528 15.9925 74.2144 16.1475C74.2759 16.3024 74.3066 16.4688 74.3066 16.6465C74.3066 16.8743 74.269 17.076 74.1938 17.2515C74.1187 17.4269 74.0116 17.5762 73.8726 17.6992C73.7358 17.82 73.5741 17.9123 73.3872 17.9761C73.2026 18.0376 72.9998 18.0684 72.7788 18.0684C72.5783 18.0684 72.3823 18.0387 72.1909 17.9795C72.0018 17.9202 71.8309 17.8325 71.6782 17.7163C71.5278 17.5978 71.4082 17.4497 71.3193 17.272C71.2305 17.092 71.186 16.8846 71.186 16.6499H71.5928C71.5928 16.8595 71.6429 17.0452 71.7432 17.207C71.8434 17.3665 71.9824 17.4919 72.1602 17.583C72.3402 17.6719 72.5464 17.7163 72.7788 17.7163C73.0135 17.7163 73.214 17.6764 73.3804 17.5967C73.549 17.5146 73.6777 17.395 73.7666 17.2378C73.8555 17.0806 73.8999 16.888 73.8999 16.6602C73.8999 16.4209 73.8464 16.2261 73.7393 16.0757C73.6344 15.9253 73.4875 15.8148 73.2983 15.7441C73.1115 15.6735 72.8939 15.6382 72.6455 15.6382H72.2285ZM77.3828 12.75V18H76.9761V12.75H77.3828ZM77.2905 15.9219L77.1094 15.8193C77.123 15.6006 77.1675 15.3955 77.2427 15.2041C77.3179 15.0127 77.4193 14.8441 77.5469 14.6982C77.6768 14.5524 77.8283 14.4385 78.0015 14.3564C78.1769 14.2744 78.3706 14.2334 78.5825 14.2334C78.7671 14.2334 78.9323 14.2585 79.0781 14.3086C79.224 14.3587 79.3481 14.4385 79.4507 14.5479C79.5532 14.6572 79.6307 14.7974 79.6831 14.9683C79.7378 15.1392 79.7651 15.3477 79.7651 15.5938V18H79.355V15.5903C79.355 15.3351 79.3197 15.1357 79.249 14.9922C79.1784 14.8464 79.0781 14.7427 78.9482 14.6812C78.8184 14.6196 78.6646 14.5889 78.4868 14.5889C78.2909 14.5889 78.1188 14.6322 77.9707 14.7188C77.8249 14.8031 77.7018 14.9136 77.6016 15.0503C77.5036 15.1847 77.4284 15.3294 77.376 15.4844C77.3236 15.637 77.2951 15.7829 77.2905 15.9219ZM83.0327 17.0566C83.0327 16.9564 83.0076 16.8573 82.9575 16.7593C82.9074 16.6613 82.8105 16.5713 82.667 16.4893C82.5257 16.4072 82.3172 16.3377 82.0415 16.2808C81.8364 16.2352 81.653 16.1839 81.4912 16.127C81.3317 16.07 81.1973 16.0016 81.0879 15.9219C80.9785 15.8421 80.8953 15.7464 80.8384 15.6348C80.7814 15.5231 80.7529 15.391 80.7529 15.2383C80.7529 15.1016 80.7826 14.9728 80.8418 14.8521C80.9033 14.729 80.9899 14.6219 81.1016 14.5308C81.2155 14.4373 81.3522 14.3644 81.5117 14.312C81.6735 14.2596 81.8547 14.2334 82.0552 14.2334C82.34 14.2334 82.5838 14.2824 82.7866 14.3804C82.9917 14.4761 83.1478 14.6071 83.2549 14.7734C83.3643 14.9398 83.4189 15.1278 83.4189 15.3374H83.0122C83.0122 15.2098 82.9746 15.089 82.8994 14.9751C82.8265 14.8612 82.7183 14.7677 82.5747 14.6948C82.4334 14.6219 82.2603 14.5854 82.0552 14.5854C81.8433 14.5854 81.6712 14.6174 81.5391 14.6812C81.4069 14.745 81.3101 14.8258 81.2485 14.9238C81.1893 15.0218 81.1597 15.1232 81.1597 15.228C81.1597 15.3101 81.1722 15.3853 81.1973 15.4536C81.2246 15.5197 81.2725 15.5812 81.3408 15.6382C81.4115 15.6951 81.5117 15.7487 81.6416 15.7988C81.7715 15.849 81.9401 15.8979 82.1475 15.9458C82.446 16.0119 82.6898 16.0928 82.8789 16.1885C83.0703 16.2819 83.2116 16.3981 83.3027 16.5371C83.3939 16.6738 83.4395 16.8402 83.4395 17.0361C83.4395 17.1888 83.4076 17.3289 83.3438 17.4565C83.2799 17.5819 83.1877 17.6901 83.0669 17.7812C82.9484 17.8724 82.8049 17.943 82.6362 17.9932C82.4699 18.0433 82.283 18.0684 82.0757 18.0684C81.7635 18.0684 81.4992 18.0171 81.2827 17.9146C81.0685 17.8097 80.9056 17.673 80.7939 17.5044C80.6846 17.3335 80.6299 17.1523 80.6299 16.9609H81.0366C81.0503 17.1523 81.1107 17.3039 81.2178 17.4155C81.3249 17.5249 81.4559 17.6024 81.6108 17.6479C81.7681 17.6935 81.923 17.7163 82.0757 17.7163C82.2853 17.7163 82.4608 17.6855 82.6021 17.624C82.7433 17.5625 82.8504 17.4816 82.9233 17.3813C82.9963 17.2811 83.0327 17.1729 83.0327 17.0566ZM84.3281 17.7505C84.3281 17.6707 84.3532 17.6035 84.4033 17.5488C84.4557 17.4919 84.5264 17.4634 84.6152 17.4634C84.7064 17.4634 84.7782 17.4907 84.8306 17.5454C84.883 17.6001 84.9092 17.6685 84.9092 17.7505C84.9092 17.828 84.883 17.894 84.8306 17.9487C84.7782 18.0034 84.7064 18.0308 84.6152 18.0308C84.5264 18.0308 84.4557 18.0034 84.4033 17.9487C84.3532 17.894 84.3281 17.828 84.3281 17.7505Z" fill="white"/>
</svg>
