<svg width="346" height="120" viewBox="0 0 346 120" fill="none" xmlns="http://www.w3.org/2000/svg">
<rect x="0.25" y="0.25" width="345.5" height="119.5" rx="19.75" fill="white" stroke="#2A6D4C" stroke-width="0.5"/>
<path d="M75.144 41.7871L55.7708 67.3444C55.3457 67.9632 55.1743 68.7217 55.2922 69.4632C55.4101 70.2047 55.8082 70.8726 56.4043 71.329L66.8279 79.2295C67.432 79.6828 68.1882 79.8847 68.938 79.7929C69.6877 79.7012 70.3729 79.3229 70.8499 78.7373C70.905 78.668 70.9636 78.6016 71.0255 78.5384L90.0569 53.4289C90.0982 53.3561 90.1433 53.2855 90.1923 53.2176C90.6279 52.6006 90.8072 51.8387 90.6925 51.0922C90.5777 50.3456 90.1778 49.6727 89.5769 49.2151L79.1533 41.3147C78.5526 40.8623 77.8007 40.659 77.0539 40.747C76.3071 40.835 75.623 41.2075 75.144 41.7871ZM98.2055 55.7776C97.6263 55.3419 96.8998 55.15 96.181 55.2427C95.4623 55.3354 94.8083 55.7055 94.3587 56.2739C94.3228 56.3302 94.2875 56.3916 94.2549 56.4346L75.043 81.7822C75.0104 81.8252 74.9587 81.8786 74.9163 81.9255C74.4917 82.5121 74.3131 83.2413 74.4184 83.9577C74.5238 84.6741 74.9049 85.321 75.4804 85.7604L84.0112 92.2285C85.7305 93.526 87.8939 94.0895 90.0277 93.7957C92.1616 93.5019 94.0921 92.3746 95.3968 90.6607L108.306 73.6285C109.603 71.9094 110.166 69.7466 109.872 67.6134C109.579 65.4801 108.452 63.55 106.739 62.2453L98.2055 55.7776ZM50.1688 30.4287L38.0999 46.3639C37.6159 49.3459 37.9556 52.4035 39.0822 55.2066C40.2089 58.0097 42.0798 60.4518 44.4929 62.2693L47.775 64.7615C48.3533 65.2033 49.0829 65.3982 49.8045 65.3037C50.5261 65.2091 51.1809 64.8328 51.6258 64.2569L51.689 64.1557L70.9381 38.7619C70.9729 38.716 71.02 38.6659 71.0645 38.6161C71.4905 38.0295 71.6699 37.2995 71.5645 36.5824C71.459 35.8652 71.077 35.2177 70.5001 34.7787L67.213 32.2872C64.8098 30.4563 61.9527 29.3156 58.9493 28.9881C55.9459 28.6607 52.9101 29.1587 50.1688 30.4287ZM35.118 41.7418L44.9167 28.8167L38.3802 23.8466L28.5663 36.7918L35.118 41.7418Z" fill="#2A6D4C"/>
<path d="M145.531 23.5234L141.371 37H136.953L143.223 19.9375H146.023L145.531 23.5234ZM148.977 37L144.805 23.5234L144.266 19.9375H147.102L153.406 37H148.977ZM148.812 30.6367V33.8125H140.059V30.6367H148.812ZM162.441 24.3203H166.027V36.5078C166.027 37.6797 165.758 38.6719 165.219 39.4844C164.68 40.3047 163.926 40.9258 162.957 41.3477C161.996 41.7773 160.871 41.9922 159.582 41.9922C159.012 41.9922 158.43 41.918 157.836 41.7695C157.242 41.6289 156.688 41.418 156.172 41.1367C155.656 40.8555 155.223 40.5078 154.871 40.0938L156.523 37.7734C156.844 38.1328 157.246 38.4375 157.73 38.6875C158.215 38.9453 158.785 39.0742 159.441 39.0742C160.012 39.0742 160.488 38.9727 160.871 38.7695C161.262 38.5664 161.559 38.2695 161.762 37.8789C161.965 37.4961 162.066 37.0312 162.066 36.4844V27.3203L162.441 24.3203ZM154.016 30.8125V30.5664C154.016 29.6055 154.133 28.7305 154.367 27.9414C154.609 27.1445 154.953 26.4609 155.398 25.8906C155.852 25.3125 156.398 24.8672 157.039 24.5547C157.68 24.2422 158.402 24.0859 159.207 24.0859C160.074 24.0859 160.785 24.2539 161.34 24.5898C161.902 24.918 162.352 25.3789 162.688 25.9727C163.031 26.5664 163.297 27.2617 163.484 28.0586C163.68 28.8477 163.844 29.6992 163.977 30.6133V30.9062C163.844 31.7656 163.66 32.5781 163.426 33.3438C163.199 34.1016 162.902 34.7734 162.535 35.3594C162.168 35.9453 161.707 36.4062 161.152 36.7422C160.605 37.0703 159.949 37.2344 159.184 37.2344C158.387 37.2344 157.668 37.0742 157.027 36.7539C156.395 36.4336 155.852 35.9844 155.398 35.4062C154.953 34.8281 154.609 34.1484 154.367 33.3672C154.133 32.5859 154.016 31.7344 154.016 30.8125ZM157.965 30.5664V30.8125C157.965 31.2891 158.008 31.7305 158.094 32.1367C158.188 32.543 158.328 32.9023 158.516 33.2148C158.703 33.5195 158.934 33.7578 159.207 33.9297C159.488 34.1016 159.816 34.1875 160.191 34.1875C160.762 34.1875 161.223 34.0664 161.574 33.8242C161.926 33.582 162.18 33.2383 162.336 32.793C162.492 32.3477 162.559 31.8242 162.535 31.2227V30.2969C162.551 29.7812 162.516 29.3281 162.43 28.9375C162.344 28.5391 162.207 28.207 162.02 27.9414C161.84 27.6758 161.598 27.4766 161.293 27.3438C160.996 27.2031 160.637 27.1328 160.215 27.1328C159.848 27.1328 159.523 27.2188 159.242 27.3906C158.961 27.5625 158.727 27.8047 158.539 28.1172C158.352 28.4219 158.207 28.7852 158.105 29.207C158.012 29.6211 157.965 30.0742 157.965 30.5664ZM172.285 27.4609V37H168.336V24.3203H172.027L172.285 27.4609ZM176.035 24.2266L175.965 27.8945C175.809 27.8789 175.598 27.8594 175.332 27.8359C175.066 27.8125 174.844 27.8008 174.664 27.8008C174.203 27.8008 173.805 27.8555 173.469 27.9648C173.141 28.0664 172.867 28.2227 172.648 28.4336C172.438 28.6367 172.281 28.8945 172.18 29.207C172.086 29.5195 172.043 29.8828 172.051 30.2969L171.336 29.8281C171.336 28.9766 171.418 28.2031 171.582 27.5078C171.754 26.8047 171.996 26.1992 172.309 25.6914C172.621 25.1758 173 24.7812 173.445 24.5078C173.891 24.2266 174.391 24.0859 174.945 24.0859C175.141 24.0859 175.332 24.0977 175.52 24.1211C175.715 24.1445 175.887 24.1797 176.035 24.2266ZM176.48 30.7891V30.543C176.48 29.6133 176.613 28.7578 176.879 27.9766C177.145 27.1875 177.535 26.5039 178.051 25.9258C178.566 25.3477 179.203 24.8984 179.961 24.5781C180.719 24.25 181.594 24.0859 182.586 24.0859C183.586 24.0859 184.465 24.25 185.223 24.5781C185.988 24.8984 186.629 25.3477 187.145 25.9258C187.66 26.5039 188.051 27.1875 188.316 27.9766C188.582 28.7578 188.715 29.6133 188.715 30.543V30.7891C188.715 31.7109 188.582 32.5664 188.316 33.3555C188.051 34.1367 187.66 34.8203 187.145 35.4062C186.629 35.9844 185.992 36.4336 185.234 36.7539C184.477 37.0742 183.602 37.2344 182.609 37.2344C181.617 37.2344 180.738 37.0742 179.973 36.7539C179.207 36.4336 178.566 35.9844 178.051 35.4062C177.535 34.8203 177.145 34.1367 176.879 33.3555C176.613 32.5664 176.48 31.7109 176.48 30.7891ZM180.43 30.543V30.7891C180.43 31.2656 180.465 31.7109 180.535 32.125C180.605 32.5391 180.723 32.9023 180.887 33.2148C181.051 33.5195 181.273 33.7578 181.555 33.9297C181.836 34.1016 182.188 34.1875 182.609 34.1875C183.023 34.1875 183.367 34.1016 183.641 33.9297C183.922 33.7578 184.145 33.5195 184.309 33.2148C184.473 32.9023 184.59 32.5391 184.66 32.125C184.73 31.7109 184.766 31.2656 184.766 30.7891V30.543C184.766 30.082 184.73 29.6484 184.66 29.2422C184.59 28.8281 184.473 28.4648 184.309 28.1523C184.145 27.832 183.922 27.582 183.641 27.4023C183.359 27.2227 183.008 27.1328 182.586 27.1328C182.172 27.1328 181.824 27.2227 181.543 27.4023C181.27 27.582 181.051 27.832 180.887 28.1523C180.723 28.4648 180.605 28.8281 180.535 29.2422C180.465 29.6484 180.43 30.082 180.43 30.543ZM197.762 41.875V26.9805L198.312 24.3203H201.734V41.875H197.762ZM189.98 30.7773V30.5312C189.98 29.5703 190.086 28.6953 190.297 27.9062C190.508 27.1094 190.82 26.4297 191.234 25.8672C191.648 25.2969 192.16 24.8594 192.77 24.5547C193.387 24.2422 194.098 24.0859 194.902 24.0859C195.66 24.0859 196.309 24.25 196.848 24.5781C197.395 24.9062 197.852 25.3672 198.219 25.9609C198.586 26.5469 198.883 27.2344 199.109 28.0234C199.344 28.8125 199.527 29.6641 199.66 30.5781V30.8711C199.527 31.7305 199.344 32.543 199.109 33.3086C198.883 34.0742 198.586 34.7539 198.219 35.3477C197.852 35.9336 197.395 36.3945 196.848 36.7305C196.301 37.0664 195.645 37.2344 194.879 37.2344C194.082 37.2344 193.379 37.0742 192.77 36.7539C192.16 36.4258 191.648 35.9727 191.234 35.3945C190.82 34.8086 190.508 34.125 190.297 33.3438C190.086 32.5547 189.98 31.6992 189.98 30.7773ZM193.93 30.5312V30.7773C193.93 31.2539 193.961 31.6992 194.023 32.1133C194.086 32.5195 194.191 32.8789 194.34 33.1914C194.496 33.5039 194.699 33.75 194.949 33.9297C195.199 34.1016 195.512 34.1875 195.887 34.1875C196.457 34.1875 196.906 34.0625 197.234 33.8125C197.562 33.5625 197.793 33.2148 197.926 32.7695C198.059 32.3164 198.113 31.7891 198.09 31.1875V30.2617C198.098 29.7461 198.066 29.293 197.996 28.9023C197.926 28.5117 197.805 28.1875 197.633 27.9297C197.469 27.6641 197.246 27.4648 196.965 27.332C196.684 27.1992 196.332 27.1328 195.91 27.1328C195.543 27.1328 195.23 27.2188 194.973 27.3906C194.723 27.5547 194.52 27.7891 194.363 28.0938C194.215 28.3984 194.105 28.7578 194.035 29.1719C193.965 29.5859 193.93 30.0391 193.93 30.5312ZM211.379 33.918V24.3203H215.34V37H211.637L211.379 33.918ZM211.754 31.3398L212.785 31.3164C212.785 32.168 212.684 32.957 212.48 33.6836C212.277 34.4023 211.977 35.0273 211.578 35.5586C211.188 36.0898 210.703 36.5039 210.125 36.8008C209.555 37.0898 208.895 37.2344 208.145 37.2344C207.52 37.2344 206.945 37.1484 206.422 36.9766C205.906 36.7969 205.461 36.5195 205.086 36.1445C204.711 35.7617 204.418 35.2734 204.207 34.6797C204.004 34.0781 203.902 33.3594 203.902 32.5234V24.3203H207.852V32.5469C207.852 32.8281 207.887 33.0703 207.957 33.2734C208.027 33.4766 208.129 33.6484 208.262 33.7891C208.395 33.9219 208.559 34.0234 208.754 34.0938C208.957 34.1562 209.188 34.1875 209.445 34.1875C210.039 34.1875 210.504 34.0625 210.84 33.8125C211.176 33.5625 211.41 33.2227 211.543 32.793C211.684 32.3633 211.754 31.8789 211.754 31.3398ZM221.82 24.3203V37H217.859V24.3203H221.82ZM218.035 22.9258L220.355 19.2461H224.527L221.258 22.9258H218.035ZM228.348 27.0039V37H224.398V24.3203H228.102L228.348 27.0039ZM227.867 30.2266L226.965 30.25C226.965 29.3594 227.07 28.5391 227.281 27.7891C227.492 27.0391 227.805 26.3867 228.219 25.832C228.633 25.2773 229.141 24.8477 229.742 24.543C230.352 24.2383 231.055 24.0859 231.852 24.0859C232.406 24.0859 232.91 24.1719 233.363 24.3438C233.816 24.5078 234.207 24.7695 234.535 25.1289C234.863 25.4805 235.113 25.9414 235.285 26.5117C235.465 27.0742 235.555 27.75 235.555 28.5391V37H231.605V29.043C231.605 28.5039 231.543 28.0977 231.418 27.8242C231.301 27.5508 231.129 27.3672 230.902 27.2734C230.676 27.1797 230.398 27.1328 230.07 27.1328C229.727 27.1328 229.418 27.2109 229.145 27.3672C228.871 27.5234 228.637 27.7422 228.441 28.0234C228.254 28.2969 228.109 28.6211 228.008 28.9961C227.914 29.3711 227.867 29.7812 227.867 30.2266ZM235.109 30.2266L234.008 30.25C234.008 29.3594 234.105 28.5391 234.301 27.7891C234.504 27.0391 234.805 26.3867 235.203 25.832C235.609 25.2773 236.113 24.8477 236.715 24.543C237.316 24.2383 238.016 24.0859 238.812 24.0859C239.391 24.0859 239.922 24.1719 240.406 24.3438C240.891 24.5156 241.309 24.793 241.66 25.1758C242.012 25.5586 242.285 26.0664 242.48 26.6992C242.676 27.3242 242.773 28.0977 242.773 29.0195V37H238.812V29.0195C238.812 28.4961 238.75 28.1016 238.625 27.8359C238.508 27.5625 238.336 27.3789 238.109 27.2852C237.883 27.1836 237.613 27.1328 237.301 27.1328C236.926 27.1328 236.602 27.2109 236.328 27.3672C236.055 27.5234 235.824 27.7422 235.637 28.0234C235.457 28.2969 235.324 28.6211 235.238 28.9961C235.152 29.3711 235.109 29.7812 235.109 30.2266ZM249.207 24.3203V37H245.246V24.3203H249.207ZM245.012 21.0508C245.012 20.4883 245.215 20.0273 245.621 19.668C246.027 19.3086 246.555 19.1289 247.203 19.1289C247.852 19.1289 248.379 19.3086 248.785 19.668C249.191 20.0273 249.395 20.4883 249.395 21.0508C249.395 21.6133 249.191 22.0742 248.785 22.4336C248.379 22.793 247.852 22.9727 247.203 22.9727C246.555 22.9727 246.027 22.793 245.621 22.4336C245.215 22.0742 245.012 21.6133 245.012 21.0508ZM257 34.1875C257.367 34.1875 257.68 34.1211 257.938 33.9883C258.203 33.8477 258.402 33.6523 258.535 33.4023C258.676 33.1445 258.742 32.8359 258.734 32.4766H262.449C262.457 33.4297 262.223 34.2656 261.746 34.9844C261.277 35.6953 260.637 36.25 259.824 36.6484C259.02 37.0391 258.109 37.2344 257.094 37.2344C256.102 37.2344 255.234 37.0742 254.492 36.7539C253.75 36.4258 253.129 35.9727 252.629 35.3945C252.137 34.8086 251.766 34.125 251.516 33.3438C251.273 32.5625 251.152 31.7148 251.152 30.8008V30.5312C251.152 29.6172 251.273 28.7695 251.516 27.9883C251.766 27.1992 252.137 26.5156 252.629 25.9375C253.129 25.3516 253.746 24.8984 254.48 24.5781C255.223 24.25 256.086 24.0859 257.07 24.0859C258.125 24.0859 259.055 24.2852 259.859 24.6836C260.672 25.082 261.309 25.6602 261.77 26.418C262.23 27.1758 262.457 28.0938 262.449 29.1719H258.734C258.742 28.7891 258.684 28.4453 258.559 28.1406C258.434 27.8359 258.238 27.5938 257.973 27.4141C257.715 27.2266 257.383 27.1328 256.977 27.1328C256.57 27.1328 256.242 27.2227 255.992 27.4023C255.742 27.582 255.551 27.832 255.418 28.1523C255.293 28.4648 255.207 28.8242 255.16 29.2305C255.121 29.6367 255.102 30.0703 255.102 30.5312V30.8008C255.102 31.2695 255.121 31.7109 255.16 32.125C255.207 32.5312 255.297 32.8906 255.43 33.2031C255.562 33.5078 255.754 33.75 256.004 33.9297C256.254 34.1016 256.586 34.1875 257 34.1875ZM263.645 30.7891V30.543C263.645 29.6133 263.777 28.7578 264.043 27.9766C264.309 27.1875 264.699 26.5039 265.215 25.9258C265.73 25.3477 266.367 24.8984 267.125 24.5781C267.883 24.25 268.758 24.0859 269.75 24.0859C270.75 24.0859 271.629 24.25 272.387 24.5781C273.152 24.8984 273.793 25.3477 274.309 25.9258C274.824 26.5039 275.215 27.1875 275.48 27.9766C275.746 28.7578 275.879 29.6133 275.879 30.543V30.7891C275.879 31.7109 275.746 32.5664 275.48 33.3555C275.215 34.1367 274.824 34.8203 274.309 35.4062C273.793 35.9844 273.156 36.4336 272.398 36.7539C271.641 37.0742 270.766 37.2344 269.773 37.2344C268.781 37.2344 267.902 37.0742 267.137 36.7539C266.371 36.4336 265.73 35.9844 265.215 35.4062C264.699 34.8203 264.309 34.1367 264.043 33.3555C263.777 32.5664 263.645 31.7109 263.645 30.7891ZM267.594 30.543V30.7891C267.594 31.2656 267.629 31.7109 267.699 32.125C267.77 32.5391 267.887 32.9023 268.051 33.2148C268.215 33.5195 268.438 33.7578 268.719 33.9297C269 34.1016 269.352 34.1875 269.773 34.1875C270.188 34.1875 270.531 34.1016 270.805 33.9297C271.086 33.7578 271.309 33.5195 271.473 33.2148C271.637 32.9023 271.754 32.5391 271.824 32.125C271.895 31.7109 271.93 31.2656 271.93 30.7891V30.543C271.93 30.082 271.895 29.6484 271.824 29.2422C271.754 28.8281 271.637 28.4648 271.473 28.1523C271.309 27.832 271.086 27.582 270.805 27.4023C270.523 27.2227 270.172 27.1328 269.75 27.1328C269.336 27.1328 268.988 27.2227 268.707 27.4023C268.434 27.582 268.215 27.832 268.051 28.1523C267.887 28.4648 267.77 28.8281 267.699 29.2422C267.629 29.6484 267.594 30.082 267.594 30.543ZM284.281 33.4375C284.281 33.2188 284.207 33.0312 284.059 32.875C283.918 32.7109 283.668 32.5625 283.309 32.4297C282.949 32.2891 282.445 32.1484 281.797 32.0078C281.18 31.875 280.598 31.6992 280.051 31.4805C279.512 31.2617 279.039 30.9961 278.633 30.6836C278.227 30.3711 277.906 30 277.672 29.5703C277.445 29.1406 277.332 28.6484 277.332 28.0938C277.332 27.5547 277.445 27.0469 277.672 26.5703C277.906 26.0859 278.246 25.6602 278.691 25.293C279.145 24.918 279.695 24.625 280.344 24.4141C280.992 24.1953 281.73 24.0859 282.559 24.0859C283.699 24.0859 284.684 24.2617 285.512 24.6133C286.34 24.957 286.977 25.4414 287.422 26.0664C287.875 26.6836 288.102 27.3984 288.102 28.2109H284.152C284.152 27.8906 284.098 27.6172 283.988 27.3906C283.887 27.1641 283.719 26.9922 283.484 26.875C283.25 26.75 282.938 26.6875 282.547 26.6875C282.273 26.6875 282.023 26.7383 281.797 26.8398C281.578 26.9414 281.402 27.082 281.27 27.2617C281.137 27.4414 281.07 27.6523 281.07 27.8945C281.07 28.0664 281.109 28.2227 281.188 28.3633C281.273 28.4961 281.402 28.6211 281.574 28.7383C281.746 28.8477 281.965 28.9492 282.23 29.043C282.496 29.1289 282.816 29.207 283.191 29.2773C284.043 29.4336 284.84 29.6562 285.582 29.9453C286.324 30.2344 286.926 30.6445 287.387 31.1758C287.855 31.707 288.09 32.4219 288.09 33.3203C288.09 33.8828 287.961 34.4023 287.703 34.8789C287.445 35.3477 287.074 35.7617 286.59 36.1211C286.105 36.4727 285.523 36.7461 284.844 36.9414C284.164 37.1367 283.398 37.2344 282.547 37.2344C281.336 37.2344 280.312 37.0195 279.477 36.5898C278.641 36.1523 278.008 35.6055 277.578 34.9492C277.156 34.2852 276.945 33.6133 276.945 32.9336H280.625C280.641 33.3242 280.734 33.6445 280.906 33.8945C281.086 34.1445 281.324 34.3281 281.621 34.4453C281.918 34.5625 282.262 34.6211 282.652 34.6211C283.012 34.6211 283.309 34.5703 283.543 34.4688C283.785 34.3672 283.969 34.2305 284.094 34.0586C284.219 33.8789 284.281 33.6719 284.281 33.4375Z" fill="#222121"/>
<path d="M142.571 57.6738V53.8594C142.571 53.5085 142.498 53.2054 142.353 52.9502C142.207 52.695 141.993 52.499 141.71 52.3623C141.427 52.2256 141.079 52.1572 140.664 52.1572C140.281 52.1572 139.939 52.2256 139.639 52.3623C139.342 52.4945 139.108 52.6745 138.935 52.9023C138.766 53.1257 138.682 53.374 138.682 53.6475L137.861 53.6406C137.861 53.3626 137.93 53.0938 138.066 52.834C138.203 52.5742 138.397 52.3418 138.647 52.1367C138.898 51.9316 139.197 51.7699 139.543 51.6514C139.894 51.5283 140.279 51.4668 140.698 51.4668C141.227 51.4668 141.692 51.5557 142.093 51.7334C142.498 51.9111 142.815 52.1777 143.043 52.5332C143.271 52.8887 143.385 53.3353 143.385 53.873V57.4482C143.385 57.7035 143.403 57.9678 143.439 58.2412C143.48 58.5146 143.537 58.7402 143.61 58.918V59H142.742C142.688 58.8359 142.644 58.6309 142.612 58.3848C142.585 58.1341 142.571 57.8971 142.571 57.6738ZM142.763 54.6934L142.776 55.3223H141.17C140.751 55.3223 140.375 55.361 140.042 55.4385C139.714 55.5114 139.436 55.6208 139.208 55.7666C138.98 55.9079 138.805 56.0788 138.682 56.2793C138.563 56.4798 138.504 56.7077 138.504 56.9629C138.504 57.2272 138.57 57.4688 138.702 57.6875C138.839 57.9062 139.03 58.0817 139.276 58.2139C139.527 58.3415 139.823 58.4053 140.165 58.4053C140.621 58.4053 141.022 58.321 141.368 58.1523C141.719 57.9837 142.008 57.7627 142.236 57.4893C142.464 57.2158 142.617 56.9173 142.694 56.5938L143.05 57.0654C142.991 57.2933 142.881 57.528 142.722 57.7695C142.567 58.0065 142.364 58.2298 142.113 58.4395C141.863 58.6445 141.566 58.8132 141.225 58.9453C140.887 59.0729 140.505 59.1367 140.076 59.1367C139.593 59.1367 139.172 59.0456 138.812 58.8633C138.456 58.681 138.178 58.4326 137.978 58.1182C137.782 57.7992 137.684 57.4391 137.684 57.0381C137.684 56.6735 137.761 56.3477 137.916 56.0605C138.071 55.7689 138.294 55.5228 138.586 55.3223C138.882 55.1172 139.238 54.9622 139.652 54.8574C140.072 54.748 140.541 54.6934 141.061 54.6934H142.763ZM145.565 48.5H146.386V57.5645L146.331 59H145.565V48.5ZM151.533 55.2334V55.377C151.533 55.9284 151.469 56.4342 151.342 56.8945C151.214 57.3548 151.03 57.7536 150.788 58.0908C150.547 58.4235 150.25 58.681 149.899 58.8633C149.553 59.0456 149.154 59.1367 148.703 59.1367C148.261 59.1367 147.869 59.0684 147.527 58.9316C147.186 58.7904 146.894 58.5921 146.652 58.3369C146.411 58.0771 146.217 57.7741 146.071 57.4277C145.925 57.0768 145.823 56.6917 145.764 56.2725V54.4473C145.832 54.0007 145.941 53.5951 146.092 53.2305C146.242 52.8659 146.436 52.5514 146.673 52.2871C146.914 52.0228 147.201 51.82 147.534 51.6787C147.871 51.5374 148.257 51.4668 148.689 51.4668C149.141 51.4668 149.542 51.5557 149.893 51.7334C150.248 51.9066 150.547 52.1595 150.788 52.4922C151.03 52.8203 151.214 53.2168 151.342 53.6816C151.469 54.1419 151.533 54.6592 151.533 55.2334ZM150.706 55.377V55.2334C150.706 54.8005 150.665 54.3994 150.583 54.0303C150.501 53.6611 150.371 53.3398 150.193 53.0664C150.02 52.7884 149.797 52.5719 149.523 52.417C149.25 52.262 148.922 52.1846 148.539 52.1846C148.147 52.1846 147.812 52.2507 147.534 52.3828C147.261 52.5104 147.033 52.6813 146.851 52.8955C146.673 53.1051 146.532 53.3353 146.427 53.5859C146.322 53.8366 146.244 54.0827 146.194 54.3242V56.4502C146.272 56.792 146.406 57.1133 146.598 57.4141C146.789 57.7148 147.047 57.9587 147.37 58.1455C147.694 58.3278 148.088 58.4189 148.553 58.4189C148.926 58.4189 149.248 58.3415 149.517 58.1865C149.79 58.0316 150.013 57.8174 150.187 57.5439C150.364 57.2705 150.494 56.9492 150.576 56.5801C150.663 56.2109 150.706 55.8099 150.706 55.377ZM158.15 57.5645V48.5H158.971V59H158.205L158.15 57.5645ZM153.017 55.377V55.2334C153.017 54.6592 153.083 54.1419 153.215 53.6816C153.347 53.2168 153.536 52.8203 153.782 52.4922C154.033 52.1595 154.334 51.9066 154.685 51.7334C155.035 51.5557 155.432 51.4668 155.874 51.4668C156.307 51.4668 156.69 51.5374 157.022 51.6787C157.355 51.82 157.64 52.0228 157.877 52.2871C158.118 52.5514 158.312 52.8659 158.458 53.2305C158.608 53.5951 158.718 54.0007 158.786 54.4473V56.2725C158.731 56.6917 158.631 57.0768 158.485 57.4277C158.34 57.7741 158.146 58.0771 157.904 58.3369C157.663 58.5921 157.371 58.7904 157.029 58.9316C156.692 59.0684 156.302 59.1367 155.86 59.1367C155.423 59.1367 155.029 59.0456 154.678 58.8633C154.327 58.681 154.028 58.4235 153.782 58.0908C153.536 57.7536 153.347 57.3548 153.215 56.8945C153.083 56.4342 153.017 55.9284 153.017 55.377ZM153.837 55.2334V55.377C153.837 55.8099 153.88 56.2109 153.967 56.5801C154.053 56.9492 154.186 57.2705 154.363 57.5439C154.541 57.8174 154.767 58.0316 155.04 58.1865C155.313 58.3415 155.637 58.4189 156.011 58.4189C156.48 58.4189 156.874 58.3301 157.193 58.1523C157.512 57.9701 157.768 57.7308 157.959 57.4346C158.15 57.1338 158.289 56.8057 158.376 56.4502V54.3242C158.321 54.0827 158.242 53.8366 158.137 53.5859C158.032 53.3353 157.888 53.1051 157.706 52.8955C157.528 52.6813 157.3 52.5104 157.022 52.3828C156.749 52.2507 156.416 52.1846 156.024 52.1846C155.646 52.1846 155.32 52.262 155.047 52.417C154.773 52.5719 154.546 52.7884 154.363 53.0664C154.186 53.3398 154.053 53.6611 153.967 54.0303C153.88 54.3994 153.837 54.8005 153.837 55.2334ZM162.525 59H161.712V50.6875C161.712 50.1816 161.799 49.7555 161.972 49.4092C162.149 49.0628 162.4 48.8008 162.724 48.623C163.052 48.4453 163.441 48.3564 163.893 48.3564C164.034 48.3564 164.18 48.3656 164.33 48.3838C164.48 48.3975 164.626 48.4271 164.768 48.4727L164.706 49.1631C164.592 49.1312 164.476 49.1107 164.357 49.1016C164.243 49.0879 164.109 49.0811 163.954 49.0811C163.658 49.0811 163.403 49.1449 163.188 49.2725C162.974 49.3955 162.81 49.5755 162.696 49.8125C162.582 50.0495 162.525 50.3411 162.525 50.6875V59ZM164.289 51.6035V52.2734H160.488V51.6035H164.289ZM165.308 55.418V55.1924C165.308 54.6546 165.385 54.1579 165.54 53.7021C165.695 53.2464 165.916 52.8522 166.203 52.5195C166.495 52.1868 166.843 51.9294 167.249 51.7471C167.655 51.5602 168.106 51.4668 168.603 51.4668C169.104 51.4668 169.557 51.5602 169.963 51.7471C170.368 51.9294 170.717 52.1868 171.009 52.5195C171.3 52.8522 171.524 53.2464 171.679 53.7021C171.834 54.1579 171.911 54.6546 171.911 55.1924V55.418C171.911 55.9557 171.834 56.4525 171.679 56.9082C171.524 57.3594 171.3 57.7513 171.009 58.084C170.722 58.4167 170.375 58.6764 169.97 58.8633C169.564 59.0456 169.113 59.1367 168.616 59.1367C168.115 59.1367 167.661 59.0456 167.256 58.8633C166.85 58.6764 166.502 58.4167 166.21 58.084C165.918 57.7513 165.695 57.3594 165.54 56.9082C165.385 56.4525 165.308 55.9557 165.308 55.418ZM166.121 55.1924V55.418C166.121 55.8236 166.176 56.2087 166.285 56.5732C166.395 56.9333 166.554 57.2546 166.764 57.5371C166.973 57.8151 167.233 58.0339 167.543 58.1934C167.853 58.3529 168.211 58.4326 168.616 58.4326C169.017 58.4326 169.37 58.3529 169.676 58.1934C169.986 58.0339 170.245 57.8151 170.455 57.5371C170.665 57.2546 170.822 56.9333 170.927 56.5732C171.036 56.2087 171.091 55.8236 171.091 55.418V55.1924C171.091 54.7913 171.036 54.4108 170.927 54.0508C170.822 53.6908 170.662 53.3695 170.448 53.0869C170.239 52.8044 169.979 52.5811 169.669 52.417C169.359 52.2529 169.004 52.1709 168.603 52.1709C168.201 52.1709 167.846 52.2529 167.536 52.417C167.231 52.5811 166.971 52.8044 166.757 53.0869C166.547 53.3695 166.388 53.6908 166.278 54.0508C166.174 54.4108 166.121 54.7913 166.121 55.1924ZM174.516 51.6035V59H173.702V51.6035H174.516ZM173.559 49.4639C173.559 49.3089 173.606 49.179 173.702 49.0742C173.802 48.9648 173.939 48.9102 174.112 48.9102C174.285 48.9102 174.422 48.9648 174.522 49.0742C174.627 49.179 174.68 49.3089 174.68 49.4639C174.68 49.6143 174.627 49.7441 174.522 49.8535C174.422 49.9583 174.285 50.0107 174.112 50.0107C173.939 50.0107 173.802 49.9583 173.702 49.8535C173.606 49.7441 173.559 49.6143 173.559 49.4639ZM181.249 57.6738V53.8594C181.249 53.5085 181.176 53.2054 181.03 52.9502C180.884 52.695 180.67 52.499 180.388 52.3623C180.105 52.2256 179.757 52.1572 179.342 52.1572C178.959 52.1572 178.617 52.2256 178.316 52.3623C178.02 52.4945 177.785 52.6745 177.612 52.9023C177.444 53.1257 177.359 53.374 177.359 53.6475L176.539 53.6406C176.539 53.3626 176.607 53.0938 176.744 52.834C176.881 52.5742 177.075 52.3418 177.325 52.1367C177.576 51.9316 177.874 51.7699 178.221 51.6514C178.572 51.5283 178.957 51.4668 179.376 51.4668C179.905 51.4668 180.369 51.5557 180.771 51.7334C181.176 51.9111 181.493 52.1777 181.721 52.5332C181.949 52.8887 182.062 53.3353 182.062 53.873V57.4482C182.062 57.7035 182.081 57.9678 182.117 58.2412C182.158 58.5146 182.215 58.7402 182.288 58.918V59H181.42C181.365 58.8359 181.322 58.6309 181.29 58.3848C181.263 58.1341 181.249 57.8971 181.249 57.6738ZM181.44 54.6934L181.454 55.3223H179.848C179.428 55.3223 179.052 55.361 178.72 55.4385C178.392 55.5114 178.114 55.6208 177.886 55.7666C177.658 55.9079 177.482 56.0788 177.359 56.2793C177.241 56.4798 177.182 56.7077 177.182 56.9629C177.182 57.2272 177.248 57.4688 177.38 57.6875C177.517 57.9062 177.708 58.0817 177.954 58.2139C178.205 58.3415 178.501 58.4053 178.843 58.4053C179.299 58.4053 179.7 58.321 180.046 58.1523C180.397 57.9837 180.686 57.7627 180.914 57.4893C181.142 57.2158 181.295 56.9173 181.372 56.5938L181.728 57.0654C181.668 57.2933 181.559 57.528 181.399 57.7695C181.244 58.0065 181.042 58.2298 180.791 58.4395C180.54 58.6445 180.244 58.8132 179.902 58.9453C179.565 59.0729 179.182 59.1367 178.754 59.1367C178.271 59.1367 177.849 59.0456 177.489 58.8633C177.134 58.681 176.856 58.4326 176.655 58.1182C176.459 57.7992 176.361 57.4391 176.361 57.0381C176.361 56.6735 176.439 56.3477 176.594 56.0605C176.749 55.7689 176.972 55.5228 177.264 55.3223C177.56 55.1172 177.915 54.9622 178.33 54.8574C178.749 54.748 179.219 54.6934 179.738 54.6934H181.44ZM184.243 48.5H185.063V57.5645L185.009 59H184.243V48.5ZM190.211 55.2334V55.377C190.211 55.9284 190.147 56.4342 190.02 56.8945C189.892 57.3548 189.707 57.7536 189.466 58.0908C189.224 58.4235 188.928 58.681 188.577 58.8633C188.231 59.0456 187.832 59.1367 187.381 59.1367C186.939 59.1367 186.547 59.0684 186.205 58.9316C185.863 58.7904 185.572 58.5921 185.33 58.3369C185.089 58.0771 184.895 57.7741 184.749 57.4277C184.603 57.0768 184.501 56.6917 184.441 56.2725V54.4473C184.51 54.0007 184.619 53.5951 184.77 53.2305C184.92 52.8659 185.114 52.5514 185.351 52.2871C185.592 52.0228 185.879 51.82 186.212 51.6787C186.549 51.5374 186.934 51.4668 187.367 51.4668C187.818 51.4668 188.219 51.5557 188.57 51.7334C188.926 51.9066 189.224 52.1595 189.466 52.4922C189.707 52.8203 189.892 53.2168 190.02 53.6816C190.147 54.1419 190.211 54.6592 190.211 55.2334ZM189.384 55.377V55.2334C189.384 54.8005 189.343 54.3994 189.261 54.0303C189.179 53.6611 189.049 53.3398 188.871 53.0664C188.698 52.7884 188.475 52.5719 188.201 52.417C187.928 52.262 187.6 52.1846 187.217 52.1846C186.825 52.1846 186.49 52.2507 186.212 52.3828C185.938 52.5104 185.711 52.6813 185.528 52.8955C185.351 53.1051 185.209 53.3353 185.104 53.5859C185 53.8366 184.922 54.0827 184.872 54.3242V56.4502C184.95 56.792 185.084 57.1133 185.275 57.4141C185.467 57.7148 185.724 57.9587 186.048 58.1455C186.371 58.3278 186.766 58.4189 187.23 58.4189C187.604 58.4189 187.925 58.3415 188.194 58.1865C188.468 58.0316 188.691 57.8174 188.864 57.5439C189.042 57.2705 189.172 56.9492 189.254 56.5801C189.34 56.2109 189.384 55.8099 189.384 55.377ZM196.452 57.1133C196.452 56.9128 196.402 56.7145 196.302 56.5186C196.201 56.3226 196.008 56.1426 195.721 55.9785C195.438 55.8145 195.021 55.6755 194.47 55.5615C194.06 55.4704 193.693 55.3678 193.369 55.2539C193.05 55.14 192.781 55.0033 192.562 54.8438C192.344 54.6842 192.177 54.4928 192.063 54.2695C191.95 54.0462 191.893 53.7819 191.893 53.4766C191.893 53.2031 191.952 52.9456 192.07 52.7041C192.193 52.458 192.367 52.2438 192.59 52.0615C192.818 51.8747 193.091 51.7288 193.41 51.624C193.734 51.5192 194.096 51.4668 194.497 51.4668C195.067 51.4668 195.554 51.5648 195.96 51.7607C196.37 51.9521 196.682 52.2142 196.896 52.5469C197.115 52.8796 197.225 53.2555 197.225 53.6748H196.411C196.411 53.4196 196.336 53.1781 196.186 52.9502C196.04 52.7223 195.823 52.5355 195.536 52.3896C195.254 52.2438 194.907 52.1709 194.497 52.1709C194.073 52.1709 193.729 52.2347 193.465 52.3623C193.201 52.4899 193.007 52.6517 192.884 52.8477C192.765 53.0436 192.706 53.2464 192.706 53.4561C192.706 53.6201 192.731 53.7705 192.781 53.9072C192.836 54.0394 192.932 54.1624 193.068 54.2764C193.21 54.3903 193.41 54.4974 193.67 54.5977C193.93 54.6979 194.267 54.7959 194.682 54.8916C195.279 55.0238 195.766 55.1855 196.145 55.377C196.527 55.5638 196.81 55.7962 196.992 56.0742C197.174 56.3477 197.266 56.6803 197.266 57.0723C197.266 57.3776 197.202 57.6579 197.074 57.9131C196.947 58.1637 196.762 58.3802 196.521 58.5625C196.284 58.7448 195.996 58.8861 195.659 58.9863C195.326 59.0866 194.953 59.1367 194.538 59.1367C193.914 59.1367 193.385 59.0342 192.952 58.8291C192.524 58.6195 192.198 58.346 191.975 58.0088C191.756 57.667 191.646 57.3047 191.646 56.9219H192.46C192.487 57.3047 192.608 57.6077 192.822 57.8311C193.036 58.0498 193.299 58.2048 193.608 58.2959C193.923 58.387 194.233 58.4326 194.538 58.4326C194.957 58.4326 195.308 58.3711 195.591 58.248C195.873 58.125 196.088 57.9632 196.233 57.7627C196.379 57.5622 196.452 57.3457 196.452 57.1133ZM200.027 51.6035V59H199.214V51.6035H200.027ZM199.07 49.4639C199.07 49.3089 199.118 49.179 199.214 49.0742C199.314 48.9648 199.451 48.9102 199.624 48.9102C199.797 48.9102 199.934 48.9648 200.034 49.0742C200.139 49.179 200.191 49.3089 200.191 49.4639C200.191 49.6143 200.139 49.7441 200.034 49.8535C199.934 49.9583 199.797 50.0107 199.624 50.0107C199.451 50.0107 199.314 49.9583 199.214 49.8535C199.118 49.7441 199.07 49.6143 199.07 49.4639ZM206.761 57.6738V53.8594C206.761 53.5085 206.688 53.2054 206.542 52.9502C206.396 52.695 206.182 52.499 205.899 52.3623C205.617 52.2256 205.268 52.1572 204.854 52.1572C204.471 52.1572 204.129 52.2256 203.828 52.3623C203.532 52.4945 203.297 52.6745 203.124 52.9023C202.955 53.1257 202.871 53.374 202.871 53.6475L202.051 53.6406C202.051 53.3626 202.119 53.0938 202.256 52.834C202.393 52.5742 202.586 52.3418 202.837 52.1367C203.088 51.9316 203.386 51.7699 203.732 51.6514C204.083 51.5283 204.468 51.4668 204.888 51.4668C205.416 51.4668 205.881 51.5557 206.282 51.7334C206.688 51.9111 207.005 52.1777 207.232 52.5332C207.46 52.8887 207.574 53.3353 207.574 53.873V57.4482C207.574 57.7035 207.592 57.9678 207.629 58.2412C207.67 58.5146 207.727 58.7402 207.8 58.918V59H206.932C206.877 58.8359 206.834 58.6309 206.802 58.3848C206.774 58.1341 206.761 57.8971 206.761 57.6738ZM206.952 54.6934L206.966 55.3223H205.359C204.94 55.3223 204.564 55.361 204.231 55.4385C203.903 55.5114 203.625 55.6208 203.397 55.7666C203.17 55.9079 202.994 56.0788 202.871 56.2793C202.753 56.4798 202.693 56.7077 202.693 56.9629C202.693 57.2272 202.759 57.4688 202.892 57.6875C203.028 57.9062 203.22 58.0817 203.466 58.2139C203.716 58.3415 204.013 58.4053 204.354 58.4053C204.81 58.4053 205.211 58.321 205.558 58.1523C205.909 57.9837 206.198 57.7627 206.426 57.4893C206.654 57.2158 206.806 56.9173 206.884 56.5938L207.239 57.0654C207.18 57.2933 207.071 57.528 206.911 57.7695C206.756 58.0065 206.553 58.2298 206.303 58.4395C206.052 58.6445 205.756 58.8132 205.414 58.9453C205.077 59.0729 204.694 59.1367 204.266 59.1367C203.783 59.1367 203.361 59.0456 203.001 58.8633C202.646 58.681 202.368 58.4326 202.167 58.1182C201.971 57.7992 201.873 57.4391 201.873 57.0381C201.873 56.6735 201.951 56.3477 202.105 56.0605C202.26 55.7689 202.484 55.5228 202.775 55.3223C203.072 55.1172 203.427 54.9622 203.842 54.8574C204.261 54.748 204.73 54.6934 205.25 54.6934H206.952ZM210.582 53.1826V59H209.769V51.6035H210.548L210.582 53.1826ZM210.397 54.8438L210.035 54.6387C210.062 54.2012 210.151 53.791 210.302 53.4082C210.452 53.0254 210.655 52.6882 210.91 52.3965C211.17 52.1048 211.473 51.877 211.819 51.7129C212.17 51.5488 212.558 51.4668 212.981 51.4668C213.351 51.4668 213.681 51.5169 213.973 51.6172C214.264 51.7174 214.513 51.877 214.718 52.0957C214.923 52.3145 215.078 52.5947 215.183 52.9365C215.292 53.2783 215.347 53.6953 215.347 54.1875V59H214.526V54.1807C214.526 53.6702 214.456 53.2715 214.314 52.9844C214.173 52.6927 213.973 52.4854 213.713 52.3623C213.453 52.2393 213.146 52.1777 212.79 52.1777C212.398 52.1777 212.054 52.2643 211.758 52.4375C211.466 52.6061 211.22 52.8271 211.02 53.1006C210.824 53.3695 210.673 53.6589 210.568 53.9688C210.464 54.2741 210.407 54.5658 210.397 54.8438ZM222.271 57.5645V48.5H223.092V59H222.326L222.271 57.5645ZM217.138 55.377V55.2334C217.138 54.6592 217.204 54.1419 217.336 53.6816C217.468 53.2168 217.657 52.8203 217.903 52.4922C218.154 52.1595 218.455 51.9066 218.806 51.7334C219.157 51.5557 219.553 51.4668 219.995 51.4668C220.428 51.4668 220.811 51.5374 221.144 51.6787C221.476 51.82 221.761 52.0228 221.998 52.2871C222.24 52.5514 222.433 52.8659 222.579 53.2305C222.729 53.5951 222.839 54.0007 222.907 54.4473V56.2725C222.853 56.6917 222.752 57.0768 222.606 57.4277C222.461 57.7741 222.267 58.0771 222.025 58.3369C221.784 58.5921 221.492 58.7904 221.15 58.9316C220.813 59.0684 220.424 59.1367 219.981 59.1367C219.544 59.1367 219.15 59.0456 218.799 58.8633C218.448 58.681 218.149 58.4235 217.903 58.0908C217.657 57.7536 217.468 57.3548 217.336 56.8945C217.204 56.4342 217.138 55.9284 217.138 55.377ZM217.958 55.2334V55.377C217.958 55.8099 218.001 56.2109 218.088 56.5801C218.174 56.9492 218.307 57.2705 218.484 57.5439C218.662 57.8174 218.888 58.0316 219.161 58.1865C219.435 58.3415 219.758 58.4189 220.132 58.4189C220.601 58.4189 220.995 58.3301 221.314 58.1523C221.633 57.9701 221.889 57.7308 222.08 57.4346C222.271 57.1338 222.41 56.8057 222.497 56.4502V54.3242C222.442 54.0827 222.363 53.8366 222.258 53.5859C222.153 53.3353 222.009 53.1051 221.827 52.8955C221.649 52.6813 221.422 52.5104 221.144 52.3828C220.87 52.2507 220.537 52.1846 220.146 52.1846C219.767 52.1846 219.441 52.262 219.168 52.417C218.895 52.5719 218.667 52.7884 218.484 53.0664C218.307 53.3398 218.174 53.6611 218.088 54.0303C218.001 54.3994 217.958 54.8005 217.958 55.2334ZM224.794 55.418V55.1924C224.794 54.6546 224.871 54.1579 225.026 53.7021C225.181 53.2464 225.402 52.8522 225.689 52.5195C225.981 52.1868 226.33 51.9294 226.735 51.7471C227.141 51.5602 227.592 51.4668 228.089 51.4668C228.59 51.4668 229.044 51.5602 229.449 51.7471C229.855 51.9294 230.203 52.1868 230.495 52.5195C230.787 52.8522 231.01 53.2464 231.165 53.7021C231.32 54.1579 231.397 54.6546 231.397 55.1924V55.418C231.397 55.9557 231.32 56.4525 231.165 56.9082C231.01 57.3594 230.787 57.7513 230.495 58.084C230.208 58.4167 229.862 58.6764 229.456 58.8633C229.05 59.0456 228.599 59.1367 228.103 59.1367C227.601 59.1367 227.148 59.0456 226.742 58.8633C226.337 58.6764 225.988 58.4167 225.696 58.084C225.405 57.7513 225.181 57.3594 225.026 56.9082C224.871 56.4525 224.794 55.9557 224.794 55.418ZM225.607 55.1924V55.418C225.607 55.8236 225.662 56.2087 225.771 56.5732C225.881 56.9333 226.04 57.2546 226.25 57.5371C226.46 57.8151 226.719 58.0339 227.029 58.1934C227.339 58.3529 227.697 58.4326 228.103 58.4326C228.504 58.4326 228.857 58.3529 229.162 58.1934C229.472 58.0339 229.732 57.8151 229.941 57.5371C230.151 57.2546 230.308 56.9333 230.413 56.5732C230.522 56.2087 230.577 55.8236 230.577 55.418V55.1924C230.577 54.7913 230.522 54.4108 230.413 54.0508C230.308 53.6908 230.149 53.3695 229.935 53.0869C229.725 52.8044 229.465 52.5811 229.155 52.417C228.845 52.2529 228.49 52.1709 228.089 52.1709C227.688 52.1709 227.332 52.2529 227.022 52.417C226.717 52.5811 226.457 52.8044 226.243 53.0869C226.034 53.3695 225.874 53.6908 225.765 54.0508C225.66 54.4108 225.607 54.7913 225.607 55.1924ZM234.002 51.6035V59H233.188V51.6035H234.002ZM233.045 49.4639C233.045 49.3089 233.093 49.179 233.188 49.0742C233.289 48.9648 233.425 48.9102 233.599 48.9102C233.772 48.9102 233.909 48.9648 234.009 49.0742C234.114 49.179 234.166 49.3089 234.166 49.4639C234.166 49.6143 234.114 49.7441 234.009 49.8535C233.909 49.9583 233.772 50.0107 233.599 50.0107C233.425 50.0107 233.289 49.9583 233.188 49.8535C233.093 49.7441 233.045 49.6143 233.045 49.4639ZM240.735 57.6738V53.8594C240.735 53.5085 240.662 53.2054 240.517 52.9502C240.371 52.695 240.157 52.499 239.874 52.3623C239.591 52.2256 239.243 52.1572 238.828 52.1572C238.445 52.1572 238.104 52.2256 237.803 52.3623C237.507 52.4945 237.272 52.6745 237.099 52.9023C236.93 53.1257 236.846 53.374 236.846 53.6475L236.025 53.6406C236.025 53.3626 236.094 53.0938 236.23 52.834C236.367 52.5742 236.561 52.3418 236.812 52.1367C237.062 51.9316 237.361 51.7699 237.707 51.6514C238.058 51.5283 238.443 51.4668 238.862 51.4668C239.391 51.4668 239.856 51.5557 240.257 51.7334C240.662 51.9111 240.979 52.1777 241.207 52.5332C241.435 52.8887 241.549 53.3353 241.549 53.873V57.4482C241.549 57.7035 241.567 57.9678 241.604 58.2412C241.645 58.5146 241.701 58.7402 241.774 58.918V59H240.906C240.852 58.8359 240.808 58.6309 240.776 58.3848C240.749 58.1341 240.735 57.8971 240.735 57.6738ZM240.927 54.6934L240.94 55.3223H239.334C238.915 55.3223 238.539 55.361 238.206 55.4385C237.878 55.5114 237.6 55.6208 237.372 55.7666C237.144 55.9079 236.969 56.0788 236.846 56.2793C236.727 56.4798 236.668 56.7077 236.668 56.9629C236.668 57.2272 236.734 57.4688 236.866 57.6875C237.003 57.9062 237.194 58.0817 237.44 58.2139C237.691 58.3415 237.987 58.4053 238.329 58.4053C238.785 58.4053 239.186 58.321 239.532 58.1523C239.883 57.9837 240.173 57.7627 240.4 57.4893C240.628 57.2158 240.781 56.9173 240.858 56.5938L241.214 57.0654C241.155 57.2933 241.045 57.528 240.886 57.7695C240.731 58.0065 240.528 58.2298 240.277 58.4395C240.027 58.6445 239.73 58.8132 239.389 58.9453C239.051 59.0729 238.669 59.1367 238.24 59.1367C237.757 59.1367 237.336 59.0456 236.976 58.8633C236.62 58.681 236.342 58.4326 236.142 58.1182C235.946 57.7992 235.848 57.4391 235.848 57.0381C235.848 56.6735 235.925 56.3477 236.08 56.0605C236.235 55.7689 236.458 55.5228 236.75 55.3223C237.046 55.1172 237.402 54.9622 237.816 54.8574C238.236 54.748 238.705 54.6934 239.225 54.6934H240.927ZM244.557 53.1826V59H243.743V51.6035H244.522L244.557 53.1826ZM244.372 54.8438L244.01 54.6387C244.037 54.2012 244.126 53.791 244.276 53.4082C244.427 53.0254 244.63 52.6882 244.885 52.3965C245.145 52.1048 245.448 51.877 245.794 51.7129C246.145 51.5488 246.532 51.4668 246.956 51.4668C247.325 51.4668 247.656 51.5169 247.947 51.6172C248.239 51.7174 248.487 51.877 248.692 52.0957C248.897 52.3145 249.052 52.5947 249.157 52.9365C249.267 53.2783 249.321 53.6953 249.321 54.1875V59H248.501V54.1807C248.501 53.6702 248.43 53.2715 248.289 52.9844C248.148 52.6927 247.947 52.4854 247.688 52.3623C247.428 52.2393 247.12 52.1777 246.765 52.1777C246.373 52.1777 246.029 52.2643 245.732 52.4375C245.441 52.6061 245.195 52.8271 244.994 53.1006C244.798 53.3695 244.648 53.6589 244.543 53.9688C244.438 54.2741 244.381 54.5658 244.372 54.8438ZM256.246 57.5645V48.5H257.066V59H256.301L256.246 57.5645ZM251.112 55.377V55.2334C251.112 54.6592 251.178 54.1419 251.311 53.6816C251.443 53.2168 251.632 52.8203 251.878 52.4922C252.129 52.1595 252.429 51.9066 252.78 51.7334C253.131 51.5557 253.528 51.4668 253.97 51.4668C254.403 51.4668 254.785 51.5374 255.118 51.6787C255.451 51.82 255.736 52.0228 255.973 52.2871C256.214 52.5514 256.408 52.8659 256.554 53.2305C256.704 53.5951 256.813 54.0007 256.882 54.4473V56.2725C256.827 56.6917 256.727 57.0768 256.581 57.4277C256.435 57.7741 256.242 58.0771 256 58.3369C255.758 58.5921 255.467 58.7904 255.125 58.9316C254.788 59.0684 254.398 59.1367 253.956 59.1367C253.519 59.1367 253.124 59.0456 252.773 58.8633C252.423 58.681 252.124 58.4235 251.878 58.0908C251.632 57.7536 251.443 57.3548 251.311 56.8945C251.178 56.4342 251.112 55.9284 251.112 55.377ZM251.933 55.2334V55.377C251.933 55.8099 251.976 56.2109 252.062 56.5801C252.149 56.9492 252.281 57.2705 252.459 57.5439C252.637 57.8174 252.862 58.0316 253.136 58.1865C253.409 58.3415 253.733 58.4189 254.106 58.4189C254.576 58.4189 254.97 58.3301 255.289 58.1523C255.608 57.9701 255.863 57.7308 256.055 57.4346C256.246 57.1338 256.385 56.8057 256.472 56.4502V54.3242C256.417 54.0827 256.337 53.8366 256.232 53.5859C256.128 53.3353 255.984 53.1051 255.802 52.8955C255.624 52.6813 255.396 52.5104 255.118 52.3828C254.845 52.2507 254.512 52.1846 254.12 52.1846C253.742 52.1846 253.416 52.262 253.143 52.417C252.869 52.5719 252.641 52.7884 252.459 53.0664C252.281 53.3398 252.149 53.6611 252.062 54.0303C251.976 54.3994 251.933 54.8005 251.933 55.2334ZM258.769 55.418V55.1924C258.769 54.6546 258.846 54.1579 259.001 53.7021C259.156 53.2464 259.377 52.8522 259.664 52.5195C259.956 52.1868 260.304 51.9294 260.71 51.7471C261.116 51.5602 261.567 51.4668 262.063 51.4668C262.565 51.4668 263.018 51.5602 263.424 51.7471C263.829 51.9294 264.178 52.1868 264.47 52.5195C264.761 52.8522 264.985 53.2464 265.14 53.7021C265.295 54.1579 265.372 54.6546 265.372 55.1924V55.418C265.372 55.9557 265.295 56.4525 265.14 56.9082C264.985 57.3594 264.761 57.7513 264.47 58.084C264.183 58.4167 263.836 58.6764 263.431 58.8633C263.025 59.0456 262.574 59.1367 262.077 59.1367C261.576 59.1367 261.122 59.0456 260.717 58.8633C260.311 58.6764 259.963 58.4167 259.671 58.084C259.379 57.7513 259.156 57.3594 259.001 56.9082C258.846 56.4525 258.769 55.9557 258.769 55.418ZM259.582 55.1924V55.418C259.582 55.8236 259.637 56.2087 259.746 56.5732C259.855 56.9333 260.015 57.2546 260.225 57.5371C260.434 57.8151 260.694 58.0339 261.004 58.1934C261.314 58.3529 261.672 58.4326 262.077 58.4326C262.478 58.4326 262.831 58.3529 263.137 58.1934C263.447 58.0339 263.706 57.8151 263.916 57.5371C264.126 57.2546 264.283 56.9333 264.388 56.5732C264.497 56.2087 264.552 55.8236 264.552 55.418V55.1924C264.552 54.7913 264.497 54.4108 264.388 54.0508C264.283 53.6908 264.123 53.3695 263.909 53.0869C263.7 52.8044 263.44 52.5811 263.13 52.417C262.82 52.2529 262.465 52.1709 262.063 52.1709C261.662 52.1709 261.307 52.2529 260.997 52.417C260.692 52.5811 260.432 52.8044 260.218 53.0869C260.008 53.3695 259.849 53.6908 259.739 54.0508C259.634 54.4108 259.582 54.7913 259.582 55.1924ZM267.977 51.6035V59H267.163V51.6035H267.977ZM267.02 49.4639C267.02 49.3089 267.067 49.179 267.163 49.0742C267.263 48.9648 267.4 48.9102 267.573 48.9102C267.746 48.9102 267.883 48.9648 267.983 49.0742C268.088 49.179 268.141 49.3089 268.141 49.4639C268.141 49.6143 268.088 49.7441 267.983 49.8535C267.883 49.9583 267.746 50.0107 267.573 50.0107C267.4 50.0107 267.263 49.9583 267.163 49.8535C267.067 49.7441 267.02 49.6143 267.02 49.4639ZM274.71 57.6738V53.8594C274.71 53.5085 274.637 53.2054 274.491 52.9502C274.345 52.695 274.131 52.499 273.849 52.3623C273.566 52.2256 273.217 52.1572 272.803 52.1572C272.42 52.1572 272.078 52.2256 271.777 52.3623C271.481 52.4945 271.246 52.6745 271.073 52.9023C270.905 53.1257 270.82 53.374 270.82 53.6475L270 53.6406C270 53.3626 270.068 53.0938 270.205 52.834C270.342 52.5742 270.535 52.3418 270.786 52.1367C271.037 51.9316 271.335 51.7699 271.682 51.6514C272.033 51.5283 272.418 51.4668 272.837 51.4668C273.366 51.4668 273.83 51.5557 274.231 51.7334C274.637 51.9111 274.954 52.1777 275.182 52.5332C275.41 52.8887 275.523 53.3353 275.523 53.873V57.4482C275.523 57.7035 275.542 57.9678 275.578 58.2412C275.619 58.5146 275.676 58.7402 275.749 58.918V59H274.881C274.826 58.8359 274.783 58.6309 274.751 58.3848C274.724 58.1341 274.71 57.8971 274.71 57.6738ZM274.901 54.6934L274.915 55.3223H273.309C272.889 55.3223 272.513 55.361 272.181 55.4385C271.853 55.5114 271.575 55.6208 271.347 55.7666C271.119 55.9079 270.943 56.0788 270.82 56.2793C270.702 56.4798 270.643 56.7077 270.643 56.9629C270.643 57.2272 270.709 57.4688 270.841 57.6875C270.978 57.9062 271.169 58.0817 271.415 58.2139C271.666 58.3415 271.962 58.4053 272.304 58.4053C272.759 58.4053 273.16 58.321 273.507 58.1523C273.858 57.9837 274.147 57.7627 274.375 57.4893C274.603 57.2158 274.756 56.9173 274.833 56.5938L275.188 57.0654C275.129 57.2933 275.02 57.528 274.86 57.7695C274.705 58.0065 274.503 58.2298 274.252 58.4395C274.001 58.6445 273.705 58.8132 273.363 58.9453C273.026 59.0729 272.643 59.1367 272.215 59.1367C271.732 59.1367 271.31 59.0456 270.95 58.8633C270.595 58.681 270.317 58.4326 270.116 58.1182C269.92 57.7992 269.822 57.4391 269.822 57.0381C269.822 56.6735 269.9 56.3477 270.055 56.0605C270.21 55.7689 270.433 55.5228 270.725 55.3223C271.021 55.1172 271.376 54.9622 271.791 54.8574C272.21 54.748 272.68 54.6934 273.199 54.6934H274.901ZM282.147 57.1133C282.147 56.9128 282.097 56.7145 281.997 56.5186C281.897 56.3226 281.703 56.1426 281.416 55.9785C281.133 55.8145 280.716 55.6755 280.165 55.5615C279.755 55.4704 279.388 55.3678 279.064 55.2539C278.745 55.14 278.477 55.0033 278.258 54.8438C278.039 54.6842 277.873 54.4928 277.759 54.2695C277.645 54.0462 277.588 53.7819 277.588 53.4766C277.588 53.2031 277.647 52.9456 277.766 52.7041C277.889 52.458 278.062 52.2438 278.285 52.0615C278.513 51.8747 278.786 51.7288 279.105 51.624C279.429 51.5192 279.791 51.4668 280.192 51.4668C280.762 51.4668 281.25 51.5648 281.655 51.7607C282.065 51.9521 282.378 52.2142 282.592 52.5469C282.811 52.8796 282.92 53.2555 282.92 53.6748H282.106C282.106 53.4196 282.031 53.1781 281.881 52.9502C281.735 52.7223 281.519 52.5355 281.231 52.3896C280.949 52.2438 280.603 52.1709 280.192 52.1709C279.769 52.1709 279.424 52.2347 279.16 52.3623C278.896 52.4899 278.702 52.6517 278.579 52.8477C278.461 53.0436 278.401 53.2464 278.401 53.4561C278.401 53.6201 278.426 53.7705 278.477 53.9072C278.531 54.0394 278.627 54.1624 278.764 54.2764C278.905 54.3903 279.105 54.4974 279.365 54.5977C279.625 54.6979 279.962 54.7959 280.377 54.8916C280.974 55.0238 281.462 55.1855 281.84 55.377C282.223 55.5638 282.505 55.7962 282.688 56.0742C282.87 56.3477 282.961 56.6803 282.961 57.0723C282.961 57.3776 282.897 57.6579 282.77 57.9131C282.642 58.1637 282.457 58.3802 282.216 58.5625C281.979 58.7448 281.692 58.8861 281.354 58.9863C281.022 59.0866 280.648 59.1367 280.233 59.1367C279.609 59.1367 279.08 59.0342 278.647 58.8291C278.219 58.6195 277.893 58.346 277.67 58.0088C277.451 57.667 277.342 57.3047 277.342 56.9219H278.155C278.183 57.3047 278.303 57.6077 278.518 57.8311C278.732 58.0498 278.994 58.2048 279.304 58.2959C279.618 58.387 279.928 58.4326 280.233 58.4326C280.653 58.4326 281.004 58.3711 281.286 58.248C281.569 58.125 281.783 57.9632 281.929 57.7627C282.075 57.5622 282.147 57.3457 282.147 57.1133ZM285.627 53.1826V59H284.813V51.6035H285.593L285.627 53.1826ZM285.442 54.8438L285.08 54.6387C285.107 54.2012 285.196 53.791 285.347 53.4082C285.497 53.0254 285.7 52.6882 285.955 52.3965C286.215 52.1048 286.518 51.877 286.864 51.7129C287.215 51.5488 287.603 51.4668 288.026 51.4668C288.396 51.4668 288.726 51.5169 289.018 51.6172C289.309 51.7174 289.558 51.877 289.763 52.0957C289.968 52.3145 290.123 52.5947 290.228 52.9365C290.337 53.2783 290.392 53.6953 290.392 54.1875V59H289.571V54.1807C289.571 53.6702 289.501 53.2715 289.359 52.9844C289.218 52.6927 289.018 52.4854 288.758 52.3623C288.498 52.2393 288.19 52.1777 287.835 52.1777C287.443 52.1777 287.099 52.2643 286.803 52.4375C286.511 52.6061 286.265 52.8271 286.064 53.1006C285.868 53.3695 285.718 53.6589 285.613 53.9688C285.508 54.2741 285.451 54.5658 285.442 54.8438ZM297.316 57.5645V48.5H298.137V59H297.371L297.316 57.5645ZM292.183 55.377V55.2334C292.183 54.6592 292.249 54.1419 292.381 53.6816C292.513 53.2168 292.702 52.8203 292.948 52.4922C293.199 52.1595 293.5 51.9066 293.851 51.7334C294.201 51.5557 294.598 51.4668 295.04 51.4668C295.473 51.4668 295.856 51.5374 296.188 51.6787C296.521 51.82 296.806 52.0228 297.043 52.2871C297.285 52.5514 297.478 52.8659 297.624 53.2305C297.774 53.5951 297.884 54.0007 297.952 54.4473V56.2725C297.897 56.6917 297.797 57.0768 297.651 57.4277C297.506 57.7741 297.312 58.0771 297.07 58.3369C296.829 58.5921 296.537 58.7904 296.195 58.9316C295.858 59.0684 295.468 59.1367 295.026 59.1367C294.589 59.1367 294.195 59.0456 293.844 58.8633C293.493 58.681 293.194 58.4235 292.948 58.0908C292.702 57.7536 292.513 57.3548 292.381 56.8945C292.249 56.4342 292.183 55.9284 292.183 55.377ZM293.003 55.2334V55.377C293.003 55.8099 293.046 56.2109 293.133 56.5801C293.219 56.9492 293.352 57.2705 293.529 57.5439C293.707 57.8174 293.933 58.0316 294.206 58.1865C294.479 58.3415 294.803 58.4189 295.177 58.4189C295.646 58.4189 296.04 58.3301 296.359 58.1523C296.678 57.9701 296.934 57.7308 297.125 57.4346C297.316 57.1338 297.455 56.8057 297.542 56.4502V54.3242C297.487 54.0827 297.408 53.8366 297.303 53.5859C297.198 53.3353 297.054 53.1051 296.872 52.8955C296.694 52.6813 296.466 52.5104 296.188 52.3828C295.915 52.2507 295.582 52.1846 295.19 52.1846C294.812 52.1846 294.486 52.262 294.213 52.417C293.939 52.5719 293.712 52.7884 293.529 53.0664C293.352 53.3398 293.219 53.6611 293.133 54.0303C293.046 54.3994 293.003 54.8005 293.003 55.2334ZM137.622 71.418V71.1924C137.622 70.6546 137.7 70.1579 137.854 69.7021C138.009 69.2464 138.23 68.8522 138.518 68.5195C138.809 68.1868 139.158 67.9294 139.563 67.7471C139.969 67.5602 140.42 67.4668 140.917 67.4668C141.418 67.4668 141.872 67.5602 142.277 67.7471C142.683 67.9294 143.032 68.1868 143.323 68.5195C143.615 68.8522 143.838 69.2464 143.993 69.7021C144.148 70.1579 144.226 70.6546 144.226 71.1924V71.418C144.226 71.9557 144.148 72.4525 143.993 72.9082C143.838 73.3594 143.615 73.7513 143.323 74.084C143.036 74.4167 142.69 74.6764 142.284 74.8633C141.879 75.0456 141.427 75.1367 140.931 75.1367C140.429 75.1367 139.976 75.0456 139.57 74.8633C139.165 74.6764 138.816 74.4167 138.524 74.084C138.233 73.7513 138.009 73.3594 137.854 72.9082C137.7 72.4525 137.622 71.9557 137.622 71.418ZM138.436 71.1924V71.418C138.436 71.8236 138.49 72.2087 138.6 72.5732C138.709 72.9333 138.868 73.2546 139.078 73.5371C139.288 73.8151 139.548 74.0339 139.857 74.1934C140.167 74.3529 140.525 74.4326 140.931 74.4326C141.332 74.4326 141.685 74.3529 141.99 74.1934C142.3 74.0339 142.56 73.8151 142.77 73.5371C142.979 73.2546 143.136 72.9333 143.241 72.5732C143.351 72.2087 143.405 71.8236 143.405 71.418V71.1924C143.405 70.7913 143.351 70.4108 143.241 70.0508C143.136 69.6908 142.977 69.3695 142.763 69.0869C142.553 68.8044 142.293 68.5811 141.983 68.417C141.674 68.2529 141.318 68.1709 140.917 68.1709C140.516 68.1709 140.16 68.2529 139.851 68.417C139.545 68.5811 139.285 68.8044 139.071 69.0869C138.862 69.3695 138.702 69.6908 138.593 70.0508C138.488 70.4108 138.436 70.7913 138.436 71.1924ZM146.83 67.6035V75H146.017V67.6035H146.83ZM145.873 65.4639C145.873 65.3089 145.921 65.179 146.017 65.0742C146.117 64.9648 146.254 64.9102 146.427 64.9102C146.6 64.9102 146.737 64.9648 146.837 65.0742C146.942 65.179 146.994 65.3089 146.994 65.4639C146.994 65.6143 146.942 65.7441 146.837 65.8535C146.737 65.9583 146.6 66.0107 146.427 66.0107C146.254 66.0107 146.117 65.9583 146.017 65.8535C145.921 65.7441 145.873 65.6143 145.873 65.4639ZM149.879 69.1826V75H149.065V67.6035H149.845L149.879 69.1826ZM149.694 70.8438L149.332 70.6387C149.359 70.2012 149.448 69.791 149.599 69.4082C149.749 69.0254 149.952 68.6882 150.207 68.3965C150.467 68.1048 150.77 67.877 151.116 67.7129C151.467 67.5488 151.854 67.4668 152.278 67.4668C152.647 67.4668 152.978 67.5169 153.27 67.6172C153.561 67.7174 153.81 67.877 154.015 68.0957C154.22 68.3145 154.375 68.5947 154.479 68.9365C154.589 69.2783 154.644 69.6953 154.644 70.1875V75H153.823V70.1807C153.823 69.6702 153.753 69.2715 153.611 68.9844C153.47 68.6927 153.27 68.4854 153.01 68.3623C152.75 68.2393 152.442 68.1777 152.087 68.1777C151.695 68.1777 151.351 68.2643 151.055 68.4375C150.763 68.6061 150.517 68.8271 150.316 69.1006C150.12 69.3695 149.97 69.6589 149.865 69.9688C149.76 70.2741 149.703 70.5658 149.694 70.8438ZM161.261 73.6738V69.8594C161.261 69.5085 161.188 69.2054 161.042 68.9502C160.896 68.695 160.682 68.499 160.399 68.3623C160.117 68.2256 159.768 68.1572 159.354 68.1572C158.971 68.1572 158.629 68.2256 158.328 68.3623C158.032 68.4945 157.797 68.6745 157.624 68.9023C157.455 69.1257 157.371 69.374 157.371 69.6475L156.551 69.6406C156.551 69.3626 156.619 69.0938 156.756 68.834C156.893 68.5742 157.086 68.3418 157.337 68.1367C157.588 67.9316 157.886 67.7699 158.232 67.6514C158.583 67.5283 158.968 67.4668 159.388 67.4668C159.916 67.4668 160.381 67.5557 160.782 67.7334C161.188 67.9111 161.505 68.1777 161.732 68.5332C161.96 68.8887 162.074 69.3353 162.074 69.873V73.4482C162.074 73.7035 162.092 73.9678 162.129 74.2412C162.17 74.5146 162.227 74.7402 162.3 74.918V75H161.432C161.377 74.8359 161.334 74.6309 161.302 74.3848C161.274 74.1341 161.261 73.8971 161.261 73.6738ZM161.452 70.6934L161.466 71.3223H159.859C159.44 71.3223 159.064 71.361 158.731 71.4385C158.403 71.5114 158.125 71.6208 157.897 71.7666C157.67 71.9079 157.494 72.0788 157.371 72.2793C157.253 72.4798 157.193 72.7077 157.193 72.9629C157.193 73.2272 157.259 73.4688 157.392 73.6875C157.528 73.9062 157.72 74.0817 157.966 74.2139C158.216 74.3415 158.513 74.4053 158.854 74.4053C159.31 74.4053 159.711 74.321 160.058 74.1523C160.409 73.9837 160.698 73.7627 160.926 73.4893C161.154 73.2158 161.306 72.9173 161.384 72.5938L161.739 73.0654C161.68 73.2933 161.571 73.528 161.411 73.7695C161.256 74.0065 161.053 74.2298 160.803 74.4395C160.552 74.6445 160.256 74.8132 159.914 74.9453C159.577 75.0729 159.194 75.1367 158.766 75.1367C158.283 75.1367 157.861 75.0456 157.501 74.8633C157.146 74.681 156.868 74.4326 156.667 74.1182C156.471 73.7992 156.373 73.4391 156.373 73.0381C156.373 72.6735 156.451 72.3477 156.605 72.0605C156.76 71.7689 156.984 71.5228 157.275 71.3223C157.572 71.1172 157.927 70.9622 158.342 70.8574C158.761 70.748 159.23 70.6934 159.75 70.6934H161.452ZM168.698 73.1133C168.698 72.9128 168.648 72.7145 168.548 72.5186C168.448 72.3226 168.254 72.1426 167.967 71.9785C167.684 71.8145 167.267 71.6755 166.716 71.5615C166.306 71.4704 165.939 71.3678 165.615 71.2539C165.296 71.14 165.027 71.0033 164.809 70.8438C164.59 70.6842 164.424 70.4928 164.31 70.2695C164.196 70.0462 164.139 69.7819 164.139 69.4766C164.139 69.2031 164.198 68.9456 164.316 68.7041C164.439 68.458 164.613 68.2438 164.836 68.0615C165.064 67.8747 165.337 67.7288 165.656 67.624C165.98 67.5192 166.342 67.4668 166.743 67.4668C167.313 67.4668 167.8 67.5648 168.206 67.7607C168.616 67.9521 168.928 68.2142 169.143 68.5469C169.361 68.8796 169.471 69.2555 169.471 69.6748H168.657C168.657 69.4196 168.582 69.1781 168.432 68.9502C168.286 68.7223 168.069 68.5355 167.782 68.3896C167.5 68.2438 167.153 68.1709 166.743 68.1709C166.319 68.1709 165.975 68.2347 165.711 68.3623C165.447 68.4899 165.253 68.6517 165.13 68.8477C165.011 69.0436 164.952 69.2464 164.952 69.4561C164.952 69.6201 164.977 69.7705 165.027 69.9072C165.082 70.0394 165.178 70.1624 165.314 70.2764C165.456 70.3903 165.656 70.4974 165.916 70.5977C166.176 70.6979 166.513 70.7959 166.928 70.8916C167.525 71.0238 168.012 71.1855 168.391 71.377C168.773 71.5638 169.056 71.7962 169.238 72.0742C169.421 72.3477 169.512 72.6803 169.512 73.0723C169.512 73.3776 169.448 73.6579 169.32 73.9131C169.193 74.1637 169.008 74.3802 168.767 74.5625C168.53 74.7448 168.243 74.8861 167.905 74.9863C167.573 75.0866 167.199 75.1367 166.784 75.1367C166.16 75.1367 165.631 75.0342 165.198 74.8291C164.77 74.6195 164.444 74.346 164.221 74.0088C164.002 73.667 163.893 73.3047 163.893 72.9219H164.706C164.733 73.3047 164.854 73.6077 165.068 73.8311C165.283 74.0498 165.545 74.2048 165.854 74.2959C166.169 74.387 166.479 74.4326 166.784 74.4326C167.203 74.4326 167.554 74.3711 167.837 74.248C168.119 74.125 168.334 73.9632 168.479 73.7627C168.625 73.5622 168.698 73.3457 168.698 73.1133ZM170.913 71.418V71.1924C170.913 70.6546 170.991 70.1579 171.146 69.7021C171.3 69.2464 171.521 68.8522 171.809 68.5195C172.1 68.1868 172.449 67.9294 172.854 67.7471C173.26 67.5602 173.711 67.4668 174.208 67.4668C174.709 67.4668 175.163 67.5602 175.568 67.7471C175.974 67.9294 176.323 68.1868 176.614 68.5195C176.906 68.8522 177.129 69.2464 177.284 69.7021C177.439 70.1579 177.517 70.6546 177.517 71.1924V71.418C177.517 71.9557 177.439 72.4525 177.284 72.9082C177.129 73.3594 176.906 73.7513 176.614 74.084C176.327 74.4167 175.981 74.6764 175.575 74.8633C175.17 75.0456 174.718 75.1367 174.222 75.1367C173.72 75.1367 173.267 75.0456 172.861 74.8633C172.456 74.6764 172.107 74.4167 171.815 74.084C171.524 73.7513 171.3 73.3594 171.146 72.9082C170.991 72.4525 170.913 71.9557 170.913 71.418ZM171.727 71.1924V71.418C171.727 71.8236 171.781 72.2087 171.891 72.5732C172 72.9333 172.16 73.2546 172.369 73.5371C172.579 73.8151 172.839 74.0339 173.148 74.1934C173.458 74.3529 173.816 74.4326 174.222 74.4326C174.623 74.4326 174.976 74.3529 175.281 74.1934C175.591 74.0339 175.851 73.8151 176.061 73.5371C176.27 73.2546 176.427 72.9333 176.532 72.5732C176.642 72.2087 176.696 71.8236 176.696 71.418V71.1924C176.696 70.7913 176.642 70.4108 176.532 70.0508C176.427 69.6908 176.268 69.3695 176.054 69.0869C175.844 68.8044 175.584 68.5811 175.274 68.417C174.965 68.2529 174.609 68.1709 174.208 68.1709C173.807 68.1709 173.451 68.2529 173.142 68.417C172.836 68.5811 172.576 68.8044 172.362 69.0869C172.153 69.3695 171.993 69.6908 171.884 70.0508C171.779 70.4108 171.727 70.7913 171.727 71.1924ZM180.121 67.6035V75H179.308V67.6035H180.121ZM179.164 65.4639C179.164 65.3089 179.212 65.179 179.308 65.0742C179.408 64.9648 179.545 64.9102 179.718 64.9102C179.891 64.9102 180.028 64.9648 180.128 65.0742C180.233 65.179 180.285 65.3089 180.285 65.4639C180.285 65.6143 180.233 65.7441 180.128 65.8535C180.028 65.9583 179.891 66.0107 179.718 66.0107C179.545 66.0107 179.408 65.9583 179.308 65.8535C179.212 65.7441 179.164 65.6143 179.164 65.4639ZM182.678 67.6035L184.674 70.5908L186.677 67.6035H187.647L185.139 71.2266L187.75 75H186.793L184.681 71.876L182.575 75H181.618L184.229 71.2266L181.721 67.6035H182.678ZM189.992 69.1826V75H189.179V67.6035H189.958L189.992 69.1826ZM189.808 70.8438L189.445 70.6387C189.473 70.2012 189.562 69.791 189.712 69.4082C189.862 69.0254 190.065 68.6882 190.32 68.3965C190.58 68.1048 190.883 67.877 191.229 67.7129C191.58 67.5488 191.968 67.4668 192.392 67.4668C192.761 67.4668 193.091 67.5169 193.383 67.6172C193.674 67.7174 193.923 67.877 194.128 68.0957C194.333 68.3145 194.488 68.5947 194.593 68.9365C194.702 69.2783 194.757 69.6953 194.757 70.1875V75H193.937V70.1807C193.937 69.6702 193.866 69.2715 193.725 68.9844C193.583 68.6927 193.383 68.4854 193.123 68.3623C192.863 68.2393 192.556 68.1777 192.2 68.1777C191.808 68.1777 191.464 68.2643 191.168 68.4375C190.876 68.6061 190.63 68.8271 190.43 69.1006C190.234 69.3695 190.083 69.6589 189.979 69.9688C189.874 70.2741 189.817 70.5658 189.808 70.8438ZM201.374 73.6738V69.8594C201.374 69.5085 201.301 69.2054 201.155 68.9502C201.009 68.695 200.795 68.499 200.513 68.3623C200.23 68.2256 199.882 68.1572 199.467 68.1572C199.084 68.1572 198.742 68.2256 198.441 68.3623C198.145 68.4945 197.91 68.6745 197.737 68.9023C197.569 69.1257 197.484 69.374 197.484 69.6475L196.664 69.6406C196.664 69.3626 196.732 69.0938 196.869 68.834C197.006 68.5742 197.2 68.3418 197.45 68.1367C197.701 67.9316 197.999 67.7699 198.346 67.6514C198.697 67.5283 199.082 67.4668 199.501 67.4668C200.03 67.4668 200.494 67.5557 200.896 67.7334C201.301 67.9111 201.618 68.1777 201.846 68.5332C202.074 68.8887 202.188 69.3353 202.188 69.873V73.4482C202.188 73.7035 202.206 73.9678 202.242 74.2412C202.283 74.5146 202.34 74.7402 202.413 74.918V75H201.545C201.49 74.8359 201.447 74.6309 201.415 74.3848C201.388 74.1341 201.374 73.8971 201.374 73.6738ZM201.565 70.6934L201.579 71.3223H199.973C199.553 71.3223 199.177 71.361 198.845 71.4385C198.517 71.5114 198.239 71.6208 198.011 71.7666C197.783 71.9079 197.607 72.0788 197.484 72.2793C197.366 72.4798 197.307 72.7077 197.307 72.9629C197.307 73.2272 197.373 73.4688 197.505 73.6875C197.642 73.9062 197.833 74.0817 198.079 74.2139C198.33 74.3415 198.626 74.4053 198.968 74.4053C199.424 74.4053 199.825 74.321 200.171 74.1523C200.522 73.9837 200.811 73.7627 201.039 73.4893C201.267 73.2158 201.42 72.9173 201.497 72.5938L201.853 73.0654C201.793 73.2933 201.684 73.528 201.524 73.7695C201.369 74.0065 201.167 74.2298 200.916 74.4395C200.665 74.6445 200.369 74.8132 200.027 74.9453C199.69 75.0729 199.307 75.1367 198.879 75.1367C198.396 75.1367 197.974 75.0456 197.614 74.8633C197.259 74.681 196.981 74.4326 196.78 74.1182C196.584 73.7992 196.486 73.4391 196.486 73.0381C196.486 72.6735 196.564 72.3477 196.719 72.0605C196.874 71.7689 197.097 71.5228 197.389 71.3223C197.685 71.1172 198.04 70.9622 198.455 70.8574C198.874 70.748 199.344 70.6934 199.863 70.6934H201.565ZM203.931 71.418V71.1924C203.931 70.6546 204.008 70.1579 204.163 69.7021C204.318 69.2464 204.539 68.8522 204.826 68.5195C205.118 68.1868 205.466 67.9294 205.872 67.7471C206.278 67.5602 206.729 67.4668 207.226 67.4668C207.727 67.4668 208.18 67.5602 208.586 67.7471C208.992 67.9294 209.34 68.1868 209.632 68.5195C209.924 68.8522 210.147 69.2464 210.302 69.7021C210.457 70.1579 210.534 70.6546 210.534 71.1924V71.418C210.534 71.9557 210.457 72.4525 210.302 72.9082C210.147 73.3594 209.924 73.7513 209.632 74.084C209.345 74.4167 208.998 74.6764 208.593 74.8633C208.187 75.0456 207.736 75.1367 207.239 75.1367C206.738 75.1367 206.285 75.0456 205.879 74.8633C205.473 74.6764 205.125 74.4167 204.833 74.084C204.541 73.7513 204.318 73.3594 204.163 72.9082C204.008 72.4525 203.931 71.9557 203.931 71.418ZM204.744 71.1924V71.418C204.744 71.8236 204.799 72.2087 204.908 72.5732C205.018 72.9333 205.177 73.2546 205.387 73.5371C205.596 73.8151 205.856 74.0339 206.166 74.1934C206.476 74.3529 206.834 74.4326 207.239 74.4326C207.64 74.4326 207.993 74.3529 208.299 74.1934C208.609 74.0339 208.868 73.8151 209.078 73.5371C209.288 73.2546 209.445 72.9333 209.55 72.5732C209.659 72.2087 209.714 71.8236 209.714 71.418V71.1924C209.714 70.7913 209.659 70.4108 209.55 70.0508C209.445 69.6908 209.285 69.3695 209.071 69.0869C208.862 68.8044 208.602 68.5811 208.292 68.417C207.982 68.2529 207.627 68.1709 207.226 68.1709C206.825 68.1709 206.469 68.2529 206.159 68.417C205.854 68.5811 205.594 68.8044 205.38 69.0869C205.17 69.3695 205.011 69.6908 204.901 70.0508C204.797 70.4108 204.744 70.7913 204.744 71.1924ZM213.139 67.6035V75H212.325V67.6035H213.139ZM212.182 65.4639C212.182 65.3089 212.229 65.179 212.325 65.0742C212.425 64.9648 212.562 64.9102 212.735 64.9102C212.909 64.9102 213.045 64.9648 213.146 65.0742C213.25 65.179 213.303 65.3089 213.303 65.4639C213.303 65.6143 213.25 65.7441 213.146 65.8535C213.045 65.9583 212.909 66.0107 212.735 66.0107C212.562 66.0107 212.425 65.9583 212.325 65.8535C212.229 65.7441 212.182 65.6143 212.182 65.4639ZM219.804 73.1133C219.804 72.9128 219.754 72.7145 219.653 72.5186C219.553 72.3226 219.359 72.1426 219.072 71.9785C218.79 71.8145 218.373 71.6755 217.821 71.5615C217.411 71.4704 217.044 71.3678 216.721 71.2539C216.402 71.14 216.133 71.0033 215.914 70.8438C215.695 70.6842 215.529 70.4928 215.415 70.2695C215.301 70.0462 215.244 69.7819 215.244 69.4766C215.244 69.2031 215.303 68.9456 215.422 68.7041C215.545 68.458 215.718 68.2438 215.941 68.0615C216.169 67.8747 216.443 67.7288 216.762 67.624C217.085 67.5192 217.448 67.4668 217.849 67.4668C218.418 67.4668 218.906 67.5648 219.312 67.7607C219.722 67.9521 220.034 68.2142 220.248 68.5469C220.467 68.8796 220.576 69.2555 220.576 69.6748H219.763C219.763 69.4196 219.688 69.1781 219.537 68.9502C219.391 68.7223 219.175 68.5355 218.888 68.3896C218.605 68.2438 218.259 68.1709 217.849 68.1709C217.425 68.1709 217.081 68.2347 216.816 68.3623C216.552 68.4899 216.358 68.6517 216.235 68.8477C216.117 69.0436 216.058 69.2464 216.058 69.4561C216.058 69.6201 216.083 69.7705 216.133 69.9072C216.188 70.0394 216.283 70.1624 216.42 70.2764C216.561 70.3903 216.762 70.4974 217.021 70.5977C217.281 70.6979 217.618 70.7959 218.033 70.8916C218.63 71.0238 219.118 71.1855 219.496 71.377C219.879 71.5638 220.161 71.7962 220.344 72.0742C220.526 72.3477 220.617 72.6803 220.617 73.0723C220.617 73.3776 220.553 73.6579 220.426 73.9131C220.298 74.1637 220.114 74.3802 219.872 74.5625C219.635 74.7448 219.348 74.8861 219.011 74.9863C218.678 75.0866 218.304 75.1367 217.89 75.1367C217.265 75.1367 216.737 75.0342 216.304 74.8291C215.875 74.6195 215.549 74.346 215.326 74.0088C215.107 73.667 214.998 73.3047 214.998 72.9219H215.812C215.839 73.3047 215.96 73.6077 216.174 73.8311C216.388 74.0498 216.65 74.2048 216.96 74.2959C217.274 74.387 217.584 74.4326 217.89 74.4326C218.309 74.4326 218.66 74.3711 218.942 74.248C219.225 74.125 219.439 73.9632 219.585 73.7627C219.731 73.5622 219.804 73.3457 219.804 73.1133ZM223.283 69.1826V75H222.47V67.6035H223.249L223.283 69.1826ZM223.099 70.8438L222.736 70.6387C222.764 70.2012 222.853 69.791 223.003 69.4082C223.153 69.0254 223.356 68.6882 223.611 68.3965C223.871 68.1048 224.174 67.877 224.521 67.7129C224.871 67.5488 225.259 67.4668 225.683 67.4668C226.052 67.4668 226.382 67.5169 226.674 67.6172C226.965 67.7174 227.214 67.877 227.419 68.0957C227.624 68.3145 227.779 68.5947 227.884 68.9365C227.993 69.2783 228.048 69.6953 228.048 70.1875V75H227.228V70.1807C227.228 69.6702 227.157 69.2715 227.016 68.9844C226.874 68.6927 226.674 68.4854 226.414 68.3623C226.154 68.2393 225.847 68.1777 225.491 68.1777C225.099 68.1777 224.755 68.2643 224.459 68.4375C224.167 68.6061 223.921 68.8271 223.721 69.1006C223.525 69.3695 223.374 69.6589 223.27 69.9688C223.165 70.2741 223.108 70.5658 223.099 70.8438ZM230.488 67.6035L232.484 70.5908L234.487 67.6035H235.458L232.949 71.2266L235.561 75H234.604L232.491 71.876L230.386 75H229.429L232.04 71.2266L229.531 67.6035H230.488ZM236.401 71.418V71.1924C236.401 70.6546 236.479 70.1579 236.634 69.7021C236.789 69.2464 237.01 68.8522 237.297 68.5195C237.589 68.1868 237.937 67.9294 238.343 67.7471C238.748 67.5602 239.2 67.4668 239.696 67.4668C240.198 67.4668 240.651 67.5602 241.057 67.7471C241.462 67.9294 241.811 68.1868 242.103 68.5195C242.394 68.8522 242.618 69.2464 242.772 69.7021C242.927 70.1579 243.005 70.6546 243.005 71.1924V71.418C243.005 71.9557 242.927 72.4525 242.772 72.9082C242.618 73.3594 242.394 73.7513 242.103 74.084C241.815 74.4167 241.469 74.6764 241.063 74.8633C240.658 75.0456 240.207 75.1367 239.71 75.1367C239.209 75.1367 238.755 75.0456 238.35 74.8633C237.944 74.6764 237.595 74.4167 237.304 74.084C237.012 73.7513 236.789 73.3594 236.634 72.9082C236.479 72.4525 236.401 71.9557 236.401 71.418ZM237.215 71.1924V71.418C237.215 71.8236 237.27 72.2087 237.379 72.5732C237.488 72.9333 237.648 73.2546 237.857 73.5371C238.067 73.8151 238.327 74.0339 238.637 74.1934C238.947 74.3529 239.304 74.4326 239.71 74.4326C240.111 74.4326 240.464 74.3529 240.77 74.1934C241.079 74.0339 241.339 73.8151 241.549 73.5371C241.758 73.2546 241.916 72.9333 242.021 72.5732C242.13 72.2087 242.185 71.8236 242.185 71.418V71.1924C242.185 70.7913 242.13 70.4108 242.021 70.0508C241.916 69.6908 241.756 69.3695 241.542 69.0869C241.332 68.8044 241.073 68.5811 240.763 68.417C240.453 68.2529 240.097 68.1709 239.696 68.1709C239.295 68.1709 238.94 68.2529 238.63 68.417C238.325 68.5811 238.065 68.8044 237.851 69.0869C237.641 69.3695 237.481 69.6908 237.372 70.0508C237.267 70.4108 237.215 70.7913 237.215 71.1924ZM245.609 67.6035V75H244.796V67.6035H245.609ZM244.652 65.4639C244.652 65.3089 244.7 65.179 244.796 65.0742C244.896 64.9648 245.033 64.9102 245.206 64.9102C245.379 64.9102 245.516 64.9648 245.616 65.0742C245.721 65.179 245.773 65.3089 245.773 65.4639C245.773 65.6143 245.721 65.7441 245.616 65.8535C245.516 65.9583 245.379 66.0107 245.206 66.0107C245.033 66.0107 244.896 65.9583 244.796 65.8535C244.7 65.7441 244.652 65.6143 244.652 65.4639ZM252.343 73.6738V69.8594C252.343 69.5085 252.27 69.2054 252.124 68.9502C251.978 68.695 251.764 68.499 251.481 68.3623C251.199 68.2256 250.85 68.1572 250.436 68.1572C250.053 68.1572 249.711 68.2256 249.41 68.3623C249.114 68.4945 248.879 68.6745 248.706 68.9023C248.537 69.1257 248.453 69.374 248.453 69.6475L247.633 69.6406C247.633 69.3626 247.701 69.0938 247.838 68.834C247.975 68.5742 248.168 68.3418 248.419 68.1367C248.67 67.9316 248.968 67.7699 249.314 67.6514C249.665 67.5283 250.05 67.4668 250.47 67.4668C250.998 67.4668 251.463 67.5557 251.864 67.7334C252.27 67.9111 252.587 68.1777 252.814 68.5332C253.042 68.8887 253.156 69.3353 253.156 69.873V73.4482C253.156 73.7035 253.174 73.9678 253.211 74.2412C253.252 74.5146 253.309 74.7402 253.382 74.918V75H252.514C252.459 74.8359 252.416 74.6309 252.384 74.3848C252.356 74.1341 252.343 73.8971 252.343 73.6738ZM252.534 70.6934L252.548 71.3223H250.941C250.522 71.3223 250.146 71.361 249.813 71.4385C249.485 71.5114 249.207 71.6208 248.979 71.7666C248.752 71.9079 248.576 72.0788 248.453 72.2793C248.335 72.4798 248.275 72.7077 248.275 72.9629C248.275 73.2272 248.341 73.4688 248.474 73.6875C248.61 73.9062 248.802 74.0817 249.048 74.2139C249.299 74.3415 249.595 74.4053 249.937 74.4053C250.392 74.4053 250.793 74.321 251.14 74.1523C251.491 73.9837 251.78 73.7627 252.008 73.4893C252.236 73.2158 252.388 72.9173 252.466 72.5938L252.821 73.0654C252.762 73.2933 252.653 73.528 252.493 73.7695C252.338 74.0065 252.135 74.2298 251.885 74.4395C251.634 74.6445 251.338 74.8132 250.996 74.9453C250.659 75.0729 250.276 75.1367 249.848 75.1367C249.365 75.1367 248.943 75.0456 248.583 74.8633C248.228 74.681 247.95 74.4326 247.749 74.1182C247.553 73.7992 247.455 73.4391 247.455 73.0381C247.455 72.6735 247.533 72.3477 247.688 72.0605C247.842 71.7689 248.066 71.5228 248.357 71.3223C248.654 71.1172 249.009 70.9622 249.424 70.8574C249.843 70.748 250.312 70.6934 250.832 70.6934H252.534ZM256.164 69.1826V75H255.351V67.6035H256.13L256.164 69.1826ZM255.979 70.8438L255.617 70.6387C255.645 70.2012 255.733 69.791 255.884 69.4082C256.034 69.0254 256.237 68.6882 256.492 68.3965C256.752 68.1048 257.055 67.877 257.401 67.7129C257.752 67.5488 258.14 67.4668 258.563 67.4668C258.933 67.4668 259.263 67.5169 259.555 67.6172C259.846 67.7174 260.095 67.877 260.3 68.0957C260.505 68.3145 260.66 68.5947 260.765 68.9365C260.874 69.2783 260.929 69.6953 260.929 70.1875V75H260.108V70.1807C260.108 69.6702 260.038 69.2715 259.896 68.9844C259.755 68.6927 259.555 68.4854 259.295 68.3623C259.035 68.2393 258.728 68.1777 258.372 68.1777C257.98 68.1777 257.636 68.2643 257.34 68.4375C257.048 68.6061 256.802 68.8271 256.602 69.1006C256.406 69.3695 256.255 69.6589 256.15 69.9688C256.046 70.2741 255.989 70.5658 255.979 70.8438ZM263.369 67.6035L265.365 70.5908L267.368 67.6035H268.339L265.83 71.2266L268.441 75H267.484L265.372 71.876L263.267 75H262.31L264.921 71.2266L262.412 67.6035H263.369ZM269.282 71.418V71.1924C269.282 70.6546 269.36 70.1579 269.515 69.7021C269.67 69.2464 269.891 68.8522 270.178 68.5195C270.469 68.1868 270.818 67.9294 271.224 67.7471C271.629 67.5602 272.08 67.4668 272.577 67.4668C273.078 67.4668 273.532 67.5602 273.938 67.7471C274.343 67.9294 274.692 68.1868 274.983 68.5195C275.275 68.8522 275.498 69.2464 275.653 69.7021C275.808 70.1579 275.886 70.6546 275.886 71.1924V71.418C275.886 71.9557 275.808 72.4525 275.653 72.9082C275.498 73.3594 275.275 73.7513 274.983 74.084C274.696 74.4167 274.35 74.6764 273.944 74.8633C273.539 75.0456 273.088 75.1367 272.591 75.1367C272.09 75.1367 271.636 75.0456 271.23 74.8633C270.825 74.6764 270.476 74.4167 270.185 74.084C269.893 73.7513 269.67 73.3594 269.515 72.9082C269.36 72.4525 269.282 71.9557 269.282 71.418ZM270.096 71.1924V71.418C270.096 71.8236 270.15 72.2087 270.26 72.5732C270.369 72.9333 270.529 73.2546 270.738 73.5371C270.948 73.8151 271.208 74.0339 271.518 74.1934C271.827 74.3529 272.185 74.4326 272.591 74.4326C272.992 74.4326 273.345 74.3529 273.65 74.1934C273.96 74.0339 274.22 73.8151 274.43 73.5371C274.639 73.2546 274.797 72.9333 274.901 72.5732C275.011 72.2087 275.065 71.8236 275.065 71.418V71.1924C275.065 70.7913 275.011 70.4108 274.901 70.0508C274.797 69.6908 274.637 69.3695 274.423 69.0869C274.213 68.8044 273.953 68.5811 273.644 68.417C273.334 68.2529 272.978 68.1709 272.577 68.1709C272.176 68.1709 271.821 68.2529 271.511 68.417C271.205 68.5811 270.946 68.8044 270.731 69.0869C270.522 69.3695 270.362 69.6908 270.253 70.0508C270.148 70.4108 270.096 70.7913 270.096 71.1924ZM278.49 67.6035V75H277.677V67.6035H278.49ZM277.533 65.4639C277.533 65.3089 277.581 65.179 277.677 65.0742C277.777 64.9648 277.914 64.9102 278.087 64.9102C278.26 64.9102 278.397 64.9648 278.497 65.0742C278.602 65.179 278.654 65.3089 278.654 65.4639C278.654 65.6143 278.602 65.7441 278.497 65.8535C278.397 65.9583 278.26 66.0107 278.087 66.0107C277.914 66.0107 277.777 65.9583 277.677 65.8535C277.581 65.7441 277.533 65.6143 277.533 65.4639ZM285.224 73.6738V69.8594C285.224 69.5085 285.151 69.2054 285.005 68.9502C284.859 68.695 284.645 68.499 284.362 68.3623C284.08 68.2256 283.731 68.1572 283.316 68.1572C282.934 68.1572 282.592 68.2256 282.291 68.3623C281.995 68.4945 281.76 68.6745 281.587 68.9023C281.418 69.1257 281.334 69.374 281.334 69.6475L280.514 69.6406C280.514 69.3626 280.582 69.0938 280.719 68.834C280.855 68.5742 281.049 68.3418 281.3 68.1367C281.55 67.9316 281.849 67.7699 282.195 67.6514C282.546 67.5283 282.931 67.4668 283.351 67.4668C283.879 67.4668 284.344 67.5557 284.745 67.7334C285.151 67.9111 285.467 68.1777 285.695 68.5332C285.923 68.8887 286.037 69.3353 286.037 69.873V73.4482C286.037 73.7035 286.055 73.9678 286.092 74.2412C286.133 74.5146 286.19 74.7402 286.263 74.918V75H285.395C285.34 74.8359 285.297 74.6309 285.265 74.3848C285.237 74.1341 285.224 73.8971 285.224 73.6738ZM285.415 70.6934L285.429 71.3223H283.822C283.403 71.3223 283.027 71.361 282.694 71.4385C282.366 71.5114 282.088 71.6208 281.86 71.7666C281.632 71.9079 281.457 72.0788 281.334 72.2793C281.215 72.4798 281.156 72.7077 281.156 72.9629C281.156 73.2272 281.222 73.4688 281.354 73.6875C281.491 73.9062 281.683 74.0817 281.929 74.2139C282.179 74.3415 282.476 74.4053 282.817 74.4053C283.273 74.4053 283.674 74.321 284.021 74.1523C284.371 73.9837 284.661 73.7627 284.889 73.4893C285.117 73.2158 285.269 72.9173 285.347 72.5938L285.702 73.0654C285.643 73.2933 285.534 73.528 285.374 73.7695C285.219 74.0065 285.016 74.2298 284.766 74.4395C284.515 74.6445 284.219 74.8132 283.877 74.9453C283.54 75.0729 283.157 75.1367 282.729 75.1367C282.245 75.1367 281.824 75.0456 281.464 74.8633C281.108 74.681 280.83 74.4326 280.63 74.1182C280.434 73.7992 280.336 73.4391 280.336 73.0381C280.336 72.6735 280.413 72.3477 280.568 72.0605C280.723 71.7689 280.947 71.5228 281.238 71.3223C281.535 71.1172 281.89 70.9622 282.305 70.8574C282.724 70.748 283.193 70.6934 283.713 70.6934H285.415ZM292.661 73.1133C292.661 72.9128 292.611 72.7145 292.511 72.5186C292.41 72.3226 292.217 72.1426 291.93 71.9785C291.647 71.8145 291.23 71.6755 290.679 71.5615C290.269 71.4704 289.902 71.3678 289.578 71.2539C289.259 71.14 288.99 71.0033 288.771 70.8438C288.553 70.6842 288.386 70.4928 288.272 70.2695C288.159 70.0462 288.102 69.7819 288.102 69.4766C288.102 69.2031 288.161 68.9456 288.279 68.7041C288.402 68.458 288.576 68.2438 288.799 68.0615C289.027 67.8747 289.3 67.7288 289.619 67.624C289.943 67.5192 290.305 67.4668 290.706 67.4668C291.276 67.4668 291.763 67.5648 292.169 67.7607C292.579 67.9521 292.891 68.2142 293.105 68.5469C293.324 68.8796 293.434 69.2555 293.434 69.6748H292.62C292.62 69.4196 292.545 69.1781 292.395 68.9502C292.249 68.7223 292.032 68.5355 291.745 68.3896C291.463 68.2438 291.116 68.1709 290.706 68.1709C290.282 68.1709 289.938 68.2347 289.674 68.3623C289.41 68.4899 289.216 68.6517 289.093 68.8477C288.974 69.0436 288.915 69.2464 288.915 69.4561C288.915 69.6201 288.94 69.7705 288.99 69.9072C289.045 70.0394 289.141 70.1624 289.277 70.2764C289.419 70.3903 289.619 70.4974 289.879 70.5977C290.139 70.6979 290.476 70.7959 290.891 70.8916C291.488 71.0238 291.975 71.1855 292.354 71.377C292.736 71.5638 293.019 71.7962 293.201 72.0742C293.383 72.3477 293.475 72.6803 293.475 73.0723C293.475 73.3776 293.411 73.6579 293.283 73.9131C293.156 74.1637 292.971 74.3802 292.729 74.5625C292.493 74.7448 292.205 74.8861 291.868 74.9863C291.535 75.0866 291.162 75.1367 290.747 75.1367C290.123 75.1367 289.594 75.0342 289.161 74.8291C288.733 74.6195 288.407 74.346 288.184 74.0088C287.965 73.667 287.855 73.3047 287.855 72.9219H288.669C288.696 73.3047 288.817 73.6077 289.031 73.8311C289.245 74.0498 289.507 74.2048 289.817 74.2959C290.132 74.387 290.442 74.4326 290.747 74.4326C291.166 74.4326 291.517 74.3711 291.8 74.248C292.082 74.125 292.297 73.9632 292.442 73.7627C292.588 73.5622 292.661 73.3457 292.661 73.1133ZM296.141 69.1826V75H295.327V67.6035H296.106L296.141 69.1826ZM295.956 70.8438L295.594 70.6387C295.621 70.2012 295.71 69.791 295.86 69.4082C296.011 69.0254 296.214 68.6882 296.469 68.3965C296.729 68.1048 297.032 67.877 297.378 67.7129C297.729 67.5488 298.116 67.4668 298.54 67.4668C298.909 67.4668 299.24 67.5169 299.531 67.6172C299.823 67.7174 300.071 67.877 300.276 68.0957C300.481 68.3145 300.636 68.5947 300.741 68.9365C300.851 69.2783 300.905 69.6953 300.905 70.1875V75H300.085V70.1807C300.085 69.6702 300.014 69.2715 299.873 68.9844C299.732 68.6927 299.531 68.4854 299.271 68.3623C299.012 68.2393 298.704 68.1777 298.349 68.1777C297.957 68.1777 297.613 68.2643 297.316 68.4375C297.025 68.6061 296.779 68.8271 296.578 69.1006C296.382 69.3695 296.232 69.6589 296.127 69.9688C296.022 70.2741 295.965 70.5658 295.956 70.8438ZM138.395 83.6035L140.391 86.5908L142.394 83.6035H143.364L140.855 87.2266L143.467 91H142.51L140.397 87.876L138.292 91H137.335L139.946 87.2266L137.438 83.6035H138.395ZM144.308 87.418V87.1924C144.308 86.6546 144.385 86.1579 144.54 85.7021C144.695 85.2464 144.916 84.8522 145.203 84.5195C145.495 84.1868 145.843 83.9294 146.249 83.7471C146.655 83.5602 147.106 83.4668 147.603 83.4668C148.104 83.4668 148.557 83.5602 148.963 83.7471C149.368 83.9294 149.717 84.1868 150.009 84.5195C150.3 84.8522 150.524 85.2464 150.679 85.7021C150.834 86.1579 150.911 86.6546 150.911 87.1924V87.418C150.911 87.9557 150.834 88.4525 150.679 88.9082C150.524 89.3594 150.3 89.7513 150.009 90.084C149.722 90.4167 149.375 90.6764 148.97 90.8633C148.564 91.0456 148.113 91.1367 147.616 91.1367C147.115 91.1367 146.661 91.0456 146.256 90.8633C145.85 90.6764 145.502 90.4167 145.21 90.084C144.918 89.7513 144.695 89.3594 144.54 88.9082C144.385 88.4525 144.308 87.9557 144.308 87.418ZM145.121 87.1924V87.418C145.121 87.8236 145.176 88.2087 145.285 88.5732C145.395 88.9333 145.554 89.2546 145.764 89.5371C145.973 89.8151 146.233 90.0339 146.543 90.1934C146.853 90.3529 147.211 90.4326 147.616 90.4326C148.017 90.4326 148.37 90.3529 148.676 90.1934C148.986 90.0339 149.245 89.8151 149.455 89.5371C149.665 89.2546 149.822 88.9333 149.927 88.5732C150.036 88.2087 150.091 87.8236 150.091 87.418V87.1924C150.091 86.7913 150.036 86.4108 149.927 86.0508C149.822 85.6908 149.662 85.3695 149.448 85.0869C149.239 84.8044 148.979 84.5811 148.669 84.417C148.359 84.2529 148.004 84.1709 147.603 84.1709C147.201 84.1709 146.846 84.2529 146.536 84.417C146.231 84.5811 145.971 84.8044 145.757 85.0869C145.547 85.3695 145.388 85.6908 145.278 86.0508C145.174 86.4108 145.121 86.7913 145.121 87.1924ZM153.516 83.6035V91H152.702V83.6035H153.516ZM152.559 81.4639C152.559 81.3089 152.606 81.179 152.702 81.0742C152.802 80.9648 152.939 80.9102 153.112 80.9102C153.285 80.9102 153.422 80.9648 153.522 81.0742C153.627 81.179 153.68 81.3089 153.68 81.4639C153.68 81.6143 153.627 81.7441 153.522 81.8535C153.422 81.9583 153.285 82.0107 153.112 82.0107C152.939 82.0107 152.802 81.9583 152.702 81.8535C152.606 81.7441 152.559 81.6143 152.559 81.4639ZM160.249 89.6738V85.8594C160.249 85.5085 160.176 85.2054 160.03 84.9502C159.884 84.695 159.67 84.499 159.388 84.3623C159.105 84.2256 158.757 84.1572 158.342 84.1572C157.959 84.1572 157.617 84.2256 157.316 84.3623C157.02 84.4945 156.785 84.6745 156.612 84.9023C156.444 85.1257 156.359 85.374 156.359 85.6475L155.539 85.6406C155.539 85.3626 155.607 85.0938 155.744 84.834C155.881 84.5742 156.075 84.3418 156.325 84.1367C156.576 83.9316 156.874 83.7699 157.221 83.6514C157.572 83.5283 157.957 83.4668 158.376 83.4668C158.905 83.4668 159.369 83.5557 159.771 83.7334C160.176 83.9111 160.493 84.1777 160.721 84.5332C160.949 84.8887 161.062 85.3353 161.062 85.873V89.4482C161.062 89.7035 161.081 89.9678 161.117 90.2412C161.158 90.5146 161.215 90.7402 161.288 90.918V91H160.42C160.365 90.8359 160.322 90.6309 160.29 90.3848C160.263 90.1341 160.249 89.8971 160.249 89.6738ZM160.44 86.6934L160.454 87.3223H158.848C158.428 87.3223 158.052 87.361 157.72 87.4385C157.392 87.5114 157.114 87.6208 156.886 87.7666C156.658 87.9079 156.482 88.0788 156.359 88.2793C156.241 88.4798 156.182 88.7077 156.182 88.9629C156.182 89.2272 156.248 89.4688 156.38 89.6875C156.517 89.9062 156.708 90.0817 156.954 90.2139C157.205 90.3415 157.501 90.4053 157.843 90.4053C158.299 90.4053 158.7 90.321 159.046 90.1523C159.397 89.9837 159.686 89.7627 159.914 89.4893C160.142 89.2158 160.295 88.9173 160.372 88.5938L160.728 89.0654C160.668 89.2933 160.559 89.528 160.399 89.7695C160.244 90.0065 160.042 90.2298 159.791 90.4395C159.54 90.6445 159.244 90.8132 158.902 90.9453C158.565 91.0729 158.182 91.1367 157.754 91.1367C157.271 91.1367 156.849 91.0456 156.489 90.8633C156.134 90.681 155.856 90.4326 155.655 90.1182C155.459 89.7992 155.361 89.4391 155.361 89.0381C155.361 88.6735 155.439 88.3477 155.594 88.0605C155.749 87.7689 155.972 87.5228 156.264 87.3223C156.56 87.1172 156.915 86.9622 157.33 86.8574C157.749 86.748 158.219 86.6934 158.738 86.6934H160.44ZM163.578 83.6035L165.574 86.5908L167.577 83.6035H168.548L166.039 87.2266L168.65 91H167.693L165.581 87.876L163.476 91H162.519L165.13 87.2266L162.621 83.6035H163.578ZM170.893 85.1826V91H170.079V83.6035H170.858L170.893 85.1826ZM170.708 86.8438L170.346 86.6387C170.373 86.2012 170.462 85.791 170.612 85.4082C170.763 85.0254 170.965 84.6882 171.221 84.3965C171.48 84.1048 171.784 83.877 172.13 83.7129C172.481 83.5488 172.868 83.4668 173.292 83.4668C173.661 83.4668 173.992 83.5169 174.283 83.6172C174.575 83.7174 174.823 83.877 175.028 84.0957C175.233 84.3145 175.388 84.5947 175.493 84.9365C175.603 85.2783 175.657 85.6953 175.657 86.1875V91H174.837V86.1807C174.837 85.6702 174.766 85.2715 174.625 84.9844C174.484 84.6927 174.283 84.4854 174.023 84.3623C173.764 84.2393 173.456 84.1777 173.101 84.1777C172.709 84.1777 172.365 84.2643 172.068 84.4375C171.777 84.6061 171.531 84.8271 171.33 85.1006C171.134 85.3695 170.984 85.6589 170.879 85.9688C170.774 86.2741 170.717 86.5658 170.708 86.8438ZM177.325 87.418V87.1924C177.325 86.6546 177.403 86.1579 177.558 85.7021C177.713 85.2464 177.934 84.8522 178.221 84.5195C178.512 84.1868 178.861 83.9294 179.267 83.7471C179.672 83.5602 180.123 83.4668 180.62 83.4668C181.121 83.4668 181.575 83.5602 181.98 83.7471C182.386 83.9294 182.735 84.1868 183.026 84.5195C183.318 84.8522 183.541 85.2464 183.696 85.7021C183.851 86.1579 183.929 86.6546 183.929 87.1924V87.418C183.929 87.9557 183.851 88.4525 183.696 88.9082C183.541 89.3594 183.318 89.7513 183.026 90.084C182.739 90.4167 182.393 90.6764 181.987 90.8633C181.582 91.0456 181.131 91.1367 180.634 91.1367C180.132 91.1367 179.679 91.0456 179.273 90.8633C178.868 90.6764 178.519 90.4167 178.228 90.084C177.936 89.7513 177.713 89.3594 177.558 88.9082C177.403 88.4525 177.325 87.9557 177.325 87.418ZM178.139 87.1924V87.418C178.139 87.8236 178.193 88.2087 178.303 88.5732C178.412 88.9333 178.572 89.2546 178.781 89.5371C178.991 89.8151 179.251 90.0339 179.561 90.1934C179.87 90.3529 180.228 90.4326 180.634 90.4326C181.035 90.4326 181.388 90.3529 181.693 90.1934C182.003 90.0339 182.263 89.8151 182.473 89.5371C182.682 89.2546 182.84 88.9333 182.944 88.5732C183.054 88.2087 183.108 87.8236 183.108 87.418V87.1924C183.108 86.7913 183.054 86.4108 182.944 86.0508C182.84 85.6908 182.68 85.3695 182.466 85.0869C182.256 84.8044 181.996 84.5811 181.687 84.417C181.377 84.2529 181.021 84.1709 180.62 84.1709C180.219 84.1709 179.864 84.2529 179.554 84.417C179.248 84.5811 178.989 84.8044 178.774 85.0869C178.565 85.3695 178.405 85.6908 178.296 86.0508C178.191 86.4108 178.139 86.7913 178.139 87.1924ZM186.533 83.6035V91H185.72V83.6035H186.533ZM185.576 81.4639C185.576 81.3089 185.624 81.179 185.72 81.0742C185.82 80.9648 185.957 80.9102 186.13 80.9102C186.303 80.9102 186.44 80.9648 186.54 81.0742C186.645 81.179 186.697 81.3089 186.697 81.4639C186.697 81.6143 186.645 81.7441 186.54 81.8535C186.44 81.9583 186.303 82.0107 186.13 82.0107C185.957 82.0107 185.82 81.9583 185.72 81.8535C185.624 81.7441 185.576 81.6143 185.576 81.4639ZM193.267 89.6738V85.8594C193.267 85.5085 193.194 85.2054 193.048 84.9502C192.902 84.695 192.688 84.499 192.405 84.3623C192.123 84.2256 191.774 84.1572 191.359 84.1572C190.977 84.1572 190.635 84.2256 190.334 84.3623C190.038 84.4945 189.803 84.6745 189.63 84.9023C189.461 85.1257 189.377 85.374 189.377 85.6475L188.557 85.6406C188.557 85.3626 188.625 85.0938 188.762 84.834C188.898 84.5742 189.092 84.3418 189.343 84.1367C189.593 83.9316 189.892 83.7699 190.238 83.6514C190.589 83.5283 190.974 83.4668 191.394 83.4668C191.922 83.4668 192.387 83.5557 192.788 83.7334C193.194 83.9111 193.51 84.1777 193.738 84.5332C193.966 84.8887 194.08 85.3353 194.08 85.873V89.4482C194.08 89.7035 194.098 89.9678 194.135 90.2412C194.176 90.5146 194.233 90.7402 194.306 90.918V91H193.438C193.383 90.8359 193.34 90.6309 193.308 90.3848C193.28 90.1341 193.267 89.8971 193.267 89.6738ZM193.458 86.6934L193.472 87.3223H191.865C191.446 87.3223 191.07 87.361 190.737 87.4385C190.409 87.5114 190.131 87.6208 189.903 87.7666C189.675 87.9079 189.5 88.0788 189.377 88.2793C189.258 88.4798 189.199 88.7077 189.199 88.9629C189.199 89.2272 189.265 89.4688 189.397 89.6875C189.534 89.9062 189.726 90.0817 189.972 90.2139C190.222 90.3415 190.519 90.4053 190.86 90.4053C191.316 90.4053 191.717 90.321 192.063 90.1523C192.414 89.9837 192.704 89.7627 192.932 89.4893C193.16 89.2158 193.312 88.9173 193.39 88.5938L193.745 89.0654C193.686 89.2933 193.576 89.528 193.417 89.7695C193.262 90.0065 193.059 90.2298 192.809 90.4395C192.558 90.6445 192.262 90.8132 191.92 90.9453C191.583 91.0729 191.2 91.1367 190.771 91.1367C190.288 91.1367 189.867 91.0456 189.507 90.8633C189.151 90.681 188.873 90.4326 188.673 90.1182C188.477 89.7992 188.379 89.4391 188.379 89.0381C188.379 88.6735 188.456 88.3477 188.611 88.0605C188.766 87.7689 188.99 87.5228 189.281 87.3223C189.577 87.1172 189.933 86.9622 190.348 86.8574C190.767 86.748 191.236 86.6934 191.756 86.6934H193.458ZM200.704 89.1133C200.704 88.9128 200.654 88.7145 200.554 88.5186C200.453 88.3226 200.26 88.1426 199.973 87.9785C199.69 87.8145 199.273 87.6755 198.722 87.5615C198.312 87.4704 197.945 87.3678 197.621 87.2539C197.302 87.14 197.033 87.0033 196.814 86.8438C196.596 86.6842 196.429 86.4928 196.315 86.2695C196.201 86.0462 196.145 85.7819 196.145 85.4766C196.145 85.2031 196.204 84.9456 196.322 84.7041C196.445 84.458 196.618 84.2438 196.842 84.0615C197.07 83.8747 197.343 83.7288 197.662 83.624C197.986 83.5192 198.348 83.4668 198.749 83.4668C199.319 83.4668 199.806 83.5648 200.212 83.7607C200.622 83.9521 200.934 84.2142 201.148 84.5469C201.367 84.8796 201.477 85.2555 201.477 85.6748H200.663C200.663 85.4196 200.588 85.1781 200.438 84.9502C200.292 84.7223 200.075 84.5355 199.788 84.3896C199.506 84.2438 199.159 84.1709 198.749 84.1709C198.325 84.1709 197.981 84.2347 197.717 84.3623C197.452 84.4899 197.259 84.6517 197.136 84.8477C197.017 85.0436 196.958 85.2464 196.958 85.4561C196.958 85.6201 196.983 85.7705 197.033 85.9072C197.088 86.0394 197.184 86.1624 197.32 86.2764C197.462 86.3903 197.662 86.4974 197.922 86.5977C198.182 86.6979 198.519 86.7959 198.934 86.8916C199.531 87.0238 200.018 87.1855 200.396 87.377C200.779 87.5638 201.062 87.7962 201.244 88.0742C201.426 88.3477 201.518 88.6803 201.518 89.0723C201.518 89.3776 201.454 89.6579 201.326 89.9131C201.199 90.1637 201.014 90.3802 200.772 90.5625C200.535 90.7448 200.248 90.8861 199.911 90.9863C199.578 91.0866 199.205 91.1367 198.79 91.1367C198.166 91.1367 197.637 91.0342 197.204 90.8291C196.776 90.6195 196.45 90.346 196.227 90.0088C196.008 89.667 195.898 89.3047 195.898 88.9219H196.712C196.739 89.3047 196.86 89.6077 197.074 89.8311C197.288 90.0498 197.55 90.2048 197.86 90.2959C198.175 90.387 198.485 90.4326 198.79 90.4326C199.209 90.4326 199.56 90.3711 199.843 90.248C200.125 90.125 200.34 89.9632 200.485 89.7627C200.631 89.5622 200.704 89.3457 200.704 89.1133ZM204.184 85.1826V91H203.37V83.6035H204.149L204.184 85.1826ZM203.999 86.8438L203.637 86.6387C203.664 86.2012 203.753 85.791 203.903 85.4082C204.054 85.0254 204.257 84.6882 204.512 84.3965C204.771 84.1048 205.075 83.877 205.421 83.7129C205.772 83.5488 206.159 83.4668 206.583 83.4668C206.952 83.4668 207.283 83.5169 207.574 83.6172C207.866 83.7174 208.114 83.877 208.319 84.0957C208.524 84.3145 208.679 84.5947 208.784 84.9365C208.894 85.2783 208.948 85.6953 208.948 86.1875V91H208.128V86.1807C208.128 85.6702 208.057 85.2715 207.916 84.9844C207.775 84.6927 207.574 84.4854 207.314 84.3623C207.055 84.2393 206.747 84.1777 206.392 84.1777C206 84.1777 205.656 84.2643 205.359 84.4375C205.068 84.6061 204.822 84.8271 204.621 85.1006C204.425 85.3695 204.275 85.6589 204.17 85.9688C204.065 86.2741 204.008 86.5658 203.999 86.8438ZM211.389 83.6035L213.385 86.5908L215.388 83.6035H216.358L213.85 87.2266L216.461 91H215.504L213.392 87.876L211.286 91H210.329L212.94 87.2266L210.432 83.6035H211.389ZM222.388 89.6738V85.8594C222.388 85.5085 222.315 85.2054 222.169 84.9502C222.023 84.695 221.809 84.499 221.526 84.3623C221.244 84.2256 220.895 84.1572 220.48 84.1572C220.098 84.1572 219.756 84.2256 219.455 84.3623C219.159 84.4945 218.924 84.6745 218.751 84.9023C218.582 85.1257 218.498 85.374 218.498 85.6475L217.678 85.6406C217.678 85.3626 217.746 85.0938 217.883 84.834C218.02 84.5742 218.213 84.3418 218.464 84.1367C218.715 83.9316 219.013 83.7699 219.359 83.6514C219.71 83.5283 220.095 83.4668 220.515 83.4668C221.043 83.4668 221.508 83.5557 221.909 83.7334C222.315 83.9111 222.632 84.1777 222.859 84.5332C223.087 84.8887 223.201 85.3353 223.201 85.873V89.4482C223.201 89.7035 223.219 89.9678 223.256 90.2412C223.297 90.5146 223.354 90.7402 223.427 90.918V91H222.559C222.504 90.8359 222.461 90.6309 222.429 90.3848C222.401 90.1341 222.388 89.8971 222.388 89.6738ZM222.579 86.6934L222.593 87.3223H220.986C220.567 87.3223 220.191 87.361 219.858 87.4385C219.53 87.5114 219.252 87.6208 219.024 87.7666C218.797 87.9079 218.621 88.0788 218.498 88.2793C218.38 88.4798 218.32 88.7077 218.32 88.9629C218.32 89.2272 218.386 89.4688 218.519 89.6875C218.655 89.9062 218.847 90.0817 219.093 90.2139C219.343 90.3415 219.64 90.4053 219.981 90.4053C220.437 90.4053 220.838 90.321 221.185 90.1523C221.535 89.9837 221.825 89.7627 222.053 89.4893C222.281 89.2158 222.433 88.9173 222.511 88.5938L222.866 89.0654C222.807 89.2933 222.698 89.528 222.538 89.7695C222.383 90.0065 222.18 90.2298 221.93 90.4395C221.679 90.6445 221.383 90.8132 221.041 90.9453C220.704 91.0729 220.321 91.1367 219.893 91.1367C219.41 91.1367 218.988 91.0456 218.628 90.8633C218.272 90.681 217.994 90.4326 217.794 90.1182C217.598 89.7992 217.5 89.4391 217.5 89.0381C217.5 88.6735 217.577 88.3477 217.732 88.0605C217.887 87.7689 218.111 87.5228 218.402 87.3223C218.699 87.1172 219.054 86.9622 219.469 86.8574C219.888 86.748 220.357 86.6934 220.877 86.6934H222.579Z" fill="#222121"/>
</svg>
