<svg width="346" height="120" viewBox="0 0 346 120" fill="none" xmlns="http://www.w3.org/2000/svg">
<rect width="346" height="120" rx="20" fill="#2A6D4C"/>
<path d="M145.531 26.5234L141.371 40H136.953L143.223 22.9375H146.023L145.531 26.5234ZM148.977 40L144.805 26.5234L144.266 22.9375H147.102L153.406 40H148.977ZM148.812 33.6367V36.8125H140.059V33.6367H148.812ZM162.441 27.3203H166.027V39.5078C166.027 40.6797 165.758 41.6719 165.219 42.4844C164.68 43.3047 163.926 43.9258 162.957 44.3477C161.996 44.7773 160.871 44.9922 159.582 44.9922C159.012 44.9922 158.43 44.918 157.836 44.7695C157.242 44.6289 156.688 44.418 156.172 44.1367C155.656 43.8555 155.223 43.5078 154.871 43.0938L156.523 40.7734C156.844 41.1328 157.246 41.4375 157.73 41.6875C158.215 41.9453 158.785 42.0742 159.441 42.0742C160.012 42.0742 160.488 41.9727 160.871 41.7695C161.262 41.5664 161.559 41.2695 161.762 40.8789C161.965 40.4961 162.066 40.0312 162.066 39.4844V30.3203L162.441 27.3203ZM154.016 33.8125V33.5664C154.016 32.6055 154.133 31.7305 154.367 30.9414C154.609 30.1445 154.953 29.4609 155.398 28.8906C155.852 28.3125 156.398 27.8672 157.039 27.5547C157.68 27.2422 158.402 27.0859 159.207 27.0859C160.074 27.0859 160.785 27.2539 161.34 27.5898C161.902 27.918 162.352 28.3789 162.688 28.9727C163.031 29.5664 163.297 30.2617 163.484 31.0586C163.68 31.8477 163.844 32.6992 163.977 33.6133V33.9062C163.844 34.7656 163.66 35.5781 163.426 36.3438C163.199 37.1016 162.902 37.7734 162.535 38.3594C162.168 38.9453 161.707 39.4062 161.152 39.7422C160.605 40.0703 159.949 40.2344 159.184 40.2344C158.387 40.2344 157.668 40.0742 157.027 39.7539C156.395 39.4336 155.852 38.9844 155.398 38.4062C154.953 37.8281 154.609 37.1484 154.367 36.3672C154.133 35.5859 154.016 34.7344 154.016 33.8125ZM157.965 33.5664V33.8125C157.965 34.2891 158.008 34.7305 158.094 35.1367C158.188 35.543 158.328 35.9023 158.516 36.2148C158.703 36.5195 158.934 36.7578 159.207 36.9297C159.488 37.1016 159.816 37.1875 160.191 37.1875C160.762 37.1875 161.223 37.0664 161.574 36.8242C161.926 36.582 162.18 36.2383 162.336 35.793C162.492 35.3477 162.559 34.8242 162.535 34.2227V33.2969C162.551 32.7812 162.516 32.3281 162.43 31.9375C162.344 31.5391 162.207 31.207 162.02 30.9414C161.84 30.6758 161.598 30.4766 161.293 30.3438C160.996 30.2031 160.637 30.1328 160.215 30.1328C159.848 30.1328 159.523 30.2188 159.242 30.3906C158.961 30.5625 158.727 30.8047 158.539 31.1172C158.352 31.4219 158.207 31.7852 158.105 32.207C158.012 32.6211 157.965 33.0742 157.965 33.5664ZM172.285 30.4609V40H168.336V27.3203H172.027L172.285 30.4609ZM176.035 27.2266L175.965 30.8945C175.809 30.8789 175.598 30.8594 175.332 30.8359C175.066 30.8125 174.844 30.8008 174.664 30.8008C174.203 30.8008 173.805 30.8555 173.469 30.9648C173.141 31.0664 172.867 31.2227 172.648 31.4336C172.438 31.6367 172.281 31.8945 172.18 32.207C172.086 32.5195 172.043 32.8828 172.051 33.2969L171.336 32.8281C171.336 31.9766 171.418 31.2031 171.582 30.5078C171.754 29.8047 171.996 29.1992 172.309 28.6914C172.621 28.1758 173 27.7812 173.445 27.5078C173.891 27.2266 174.391 27.0859 174.945 27.0859C175.141 27.0859 175.332 27.0977 175.52 27.1211C175.715 27.1445 175.887 27.1797 176.035 27.2266ZM176.48 33.7891V33.543C176.48 32.6133 176.613 31.7578 176.879 30.9766C177.145 30.1875 177.535 29.5039 178.051 28.9258C178.566 28.3477 179.203 27.8984 179.961 27.5781C180.719 27.25 181.594 27.0859 182.586 27.0859C183.586 27.0859 184.465 27.25 185.223 27.5781C185.988 27.8984 186.629 28.3477 187.145 28.9258C187.66 29.5039 188.051 30.1875 188.316 30.9766C188.582 31.7578 188.715 32.6133 188.715 33.543V33.7891C188.715 34.7109 188.582 35.5664 188.316 36.3555C188.051 37.1367 187.66 37.8203 187.145 38.4062C186.629 38.9844 185.992 39.4336 185.234 39.7539C184.477 40.0742 183.602 40.2344 182.609 40.2344C181.617 40.2344 180.738 40.0742 179.973 39.7539C179.207 39.4336 178.566 38.9844 178.051 38.4062C177.535 37.8203 177.145 37.1367 176.879 36.3555C176.613 35.5664 176.48 34.7109 176.48 33.7891ZM180.43 33.543V33.7891C180.43 34.2656 180.465 34.7109 180.535 35.125C180.605 35.5391 180.723 35.9023 180.887 36.2148C181.051 36.5195 181.273 36.7578 181.555 36.9297C181.836 37.1016 182.188 37.1875 182.609 37.1875C183.023 37.1875 183.367 37.1016 183.641 36.9297C183.922 36.7578 184.145 36.5195 184.309 36.2148C184.473 35.9023 184.59 35.5391 184.66 35.125C184.73 34.7109 184.766 34.2656 184.766 33.7891V33.543C184.766 33.082 184.73 32.6484 184.66 32.2422C184.59 31.8281 184.473 31.4648 184.309 31.1523C184.145 30.832 183.922 30.582 183.641 30.4023C183.359 30.2227 183.008 30.1328 182.586 30.1328C182.172 30.1328 181.824 30.2227 181.543 30.4023C181.27 30.582 181.051 30.832 180.887 31.1523C180.723 31.4648 180.605 31.8281 180.535 32.2422C180.465 32.6484 180.43 33.082 180.43 33.543ZM197.762 44.875V29.9805L198.312 27.3203H201.734V44.875H197.762ZM189.98 33.7773V33.5312C189.98 32.5703 190.086 31.6953 190.297 30.9062C190.508 30.1094 190.82 29.4297 191.234 28.8672C191.648 28.2969 192.16 27.8594 192.77 27.5547C193.387 27.2422 194.098 27.0859 194.902 27.0859C195.66 27.0859 196.309 27.25 196.848 27.5781C197.395 27.9062 197.852 28.3672 198.219 28.9609C198.586 29.5469 198.883 30.2344 199.109 31.0234C199.344 31.8125 199.527 32.6641 199.66 33.5781V33.8711C199.527 34.7305 199.344 35.543 199.109 36.3086C198.883 37.0742 198.586 37.7539 198.219 38.3477C197.852 38.9336 197.395 39.3945 196.848 39.7305C196.301 40.0664 195.645 40.2344 194.879 40.2344C194.082 40.2344 193.379 40.0742 192.77 39.7539C192.16 39.4258 191.648 38.9727 191.234 38.3945C190.82 37.8086 190.508 37.125 190.297 36.3438C190.086 35.5547 189.98 34.6992 189.98 33.7773ZM193.93 33.5312V33.7773C193.93 34.2539 193.961 34.6992 194.023 35.1133C194.086 35.5195 194.191 35.8789 194.34 36.1914C194.496 36.5039 194.699 36.75 194.949 36.9297C195.199 37.1016 195.512 37.1875 195.887 37.1875C196.457 37.1875 196.906 37.0625 197.234 36.8125C197.562 36.5625 197.793 36.2148 197.926 35.7695C198.059 35.3164 198.113 34.7891 198.09 34.1875V33.2617C198.098 32.7461 198.066 32.293 197.996 31.9023C197.926 31.5117 197.805 31.1875 197.633 30.9297C197.469 30.6641 197.246 30.4648 196.965 30.332C196.684 30.1992 196.332 30.1328 195.91 30.1328C195.543 30.1328 195.23 30.2188 194.973 30.3906C194.723 30.5547 194.52 30.7891 194.363 31.0938C194.215 31.3984 194.105 31.7578 194.035 32.1719C193.965 32.5859 193.93 33.0391 193.93 33.5312ZM211.379 36.918V27.3203H215.34V40H211.637L211.379 36.918ZM211.754 34.3398L212.785 34.3164C212.785 35.168 212.684 35.957 212.48 36.6836C212.277 37.4023 211.977 38.0273 211.578 38.5586C211.188 39.0898 210.703 39.5039 210.125 39.8008C209.555 40.0898 208.895 40.2344 208.145 40.2344C207.52 40.2344 206.945 40.1484 206.422 39.9766C205.906 39.7969 205.461 39.5195 205.086 39.1445C204.711 38.7617 204.418 38.2734 204.207 37.6797C204.004 37.0781 203.902 36.3594 203.902 35.5234V27.3203H207.852V35.5469C207.852 35.8281 207.887 36.0703 207.957 36.2734C208.027 36.4766 208.129 36.6484 208.262 36.7891C208.395 36.9219 208.559 37.0234 208.754 37.0938C208.957 37.1562 209.188 37.1875 209.445 37.1875C210.039 37.1875 210.504 37.0625 210.84 36.8125C211.176 36.5625 211.41 36.2227 211.543 35.793C211.684 35.3633 211.754 34.8789 211.754 34.3398ZM221.82 27.3203V40H217.859V27.3203H221.82ZM218.035 25.9258L220.355 22.2461H224.527L221.258 25.9258H218.035ZM228.348 30.0039V40H224.398V27.3203H228.102L228.348 30.0039ZM227.867 33.2266L226.965 33.25C226.965 32.3594 227.07 31.5391 227.281 30.7891C227.492 30.0391 227.805 29.3867 228.219 28.832C228.633 28.2773 229.141 27.8477 229.742 27.543C230.352 27.2383 231.055 27.0859 231.852 27.0859C232.406 27.0859 232.91 27.1719 233.363 27.3438C233.816 27.5078 234.207 27.7695 234.535 28.1289C234.863 28.4805 235.113 28.9414 235.285 29.5117C235.465 30.0742 235.555 30.75 235.555 31.5391V40H231.605V32.043C231.605 31.5039 231.543 31.0977 231.418 30.8242C231.301 30.5508 231.129 30.3672 230.902 30.2734C230.676 30.1797 230.398 30.1328 230.07 30.1328C229.727 30.1328 229.418 30.2109 229.145 30.3672C228.871 30.5234 228.637 30.7422 228.441 31.0234C228.254 31.2969 228.109 31.6211 228.008 31.9961C227.914 32.3711 227.867 32.7812 227.867 33.2266ZM235.109 33.2266L234.008 33.25C234.008 32.3594 234.105 31.5391 234.301 30.7891C234.504 30.0391 234.805 29.3867 235.203 28.832C235.609 28.2773 236.113 27.8477 236.715 27.543C237.316 27.2383 238.016 27.0859 238.812 27.0859C239.391 27.0859 239.922 27.1719 240.406 27.3438C240.891 27.5156 241.309 27.793 241.66 28.1758C242.012 28.5586 242.285 29.0664 242.48 29.6992C242.676 30.3242 242.773 31.0977 242.773 32.0195V40H238.812V32.0195C238.812 31.4961 238.75 31.1016 238.625 30.8359C238.508 30.5625 238.336 30.3789 238.109 30.2852C237.883 30.1836 237.613 30.1328 237.301 30.1328C236.926 30.1328 236.602 30.2109 236.328 30.3672C236.055 30.5234 235.824 30.7422 235.637 31.0234C235.457 31.2969 235.324 31.6211 235.238 31.9961C235.152 32.3711 235.109 32.7812 235.109 33.2266ZM249.207 27.3203V40H245.246V27.3203H249.207ZM245.012 24.0508C245.012 23.4883 245.215 23.0273 245.621 22.668C246.027 22.3086 246.555 22.1289 247.203 22.1289C247.852 22.1289 248.379 22.3086 248.785 22.668C249.191 23.0273 249.395 23.4883 249.395 24.0508C249.395 24.6133 249.191 25.0742 248.785 25.4336C248.379 25.793 247.852 25.9727 247.203 25.9727C246.555 25.9727 246.027 25.793 245.621 25.4336C245.215 25.0742 245.012 24.6133 245.012 24.0508ZM257 37.1875C257.367 37.1875 257.68 37.1211 257.938 36.9883C258.203 36.8477 258.402 36.6523 258.535 36.4023C258.676 36.1445 258.742 35.8359 258.734 35.4766H262.449C262.457 36.4297 262.223 37.2656 261.746 37.9844C261.277 38.6953 260.637 39.25 259.824 39.6484C259.02 40.0391 258.109 40.2344 257.094 40.2344C256.102 40.2344 255.234 40.0742 254.492 39.7539C253.75 39.4258 253.129 38.9727 252.629 38.3945C252.137 37.8086 251.766 37.125 251.516 36.3438C251.273 35.5625 251.152 34.7148 251.152 33.8008V33.5312C251.152 32.6172 251.273 31.7695 251.516 30.9883C251.766 30.1992 252.137 29.5156 252.629 28.9375C253.129 28.3516 253.746 27.8984 254.48 27.5781C255.223 27.25 256.086 27.0859 257.07 27.0859C258.125 27.0859 259.055 27.2852 259.859 27.6836C260.672 28.082 261.309 28.6602 261.77 29.418C262.23 30.1758 262.457 31.0938 262.449 32.1719H258.734C258.742 31.7891 258.684 31.4453 258.559 31.1406C258.434 30.8359 258.238 30.5938 257.973 30.4141C257.715 30.2266 257.383 30.1328 256.977 30.1328C256.57 30.1328 256.242 30.2227 255.992 30.4023C255.742 30.582 255.551 30.832 255.418 31.1523C255.293 31.4648 255.207 31.8242 255.16 32.2305C255.121 32.6367 255.102 33.0703 255.102 33.5312V33.8008C255.102 34.2695 255.121 34.7109 255.16 35.125C255.207 35.5312 255.297 35.8906 255.43 36.2031C255.562 36.5078 255.754 36.75 256.004 36.9297C256.254 37.1016 256.586 37.1875 257 37.1875ZM263.645 33.7891V33.543C263.645 32.6133 263.777 31.7578 264.043 30.9766C264.309 30.1875 264.699 29.5039 265.215 28.9258C265.73 28.3477 266.367 27.8984 267.125 27.5781C267.883 27.25 268.758 27.0859 269.75 27.0859C270.75 27.0859 271.629 27.25 272.387 27.5781C273.152 27.8984 273.793 28.3477 274.309 28.9258C274.824 29.5039 275.215 30.1875 275.48 30.9766C275.746 31.7578 275.879 32.6133 275.879 33.543V33.7891C275.879 34.7109 275.746 35.5664 275.48 36.3555C275.215 37.1367 274.824 37.8203 274.309 38.4062C273.793 38.9844 273.156 39.4336 272.398 39.7539C271.641 40.0742 270.766 40.2344 269.773 40.2344C268.781 40.2344 267.902 40.0742 267.137 39.7539C266.371 39.4336 265.73 38.9844 265.215 38.4062C264.699 37.8203 264.309 37.1367 264.043 36.3555C263.777 35.5664 263.645 34.7109 263.645 33.7891ZM267.594 33.543V33.7891C267.594 34.2656 267.629 34.7109 267.699 35.125C267.77 35.5391 267.887 35.9023 268.051 36.2148C268.215 36.5195 268.438 36.7578 268.719 36.9297C269 37.1016 269.352 37.1875 269.773 37.1875C270.188 37.1875 270.531 37.1016 270.805 36.9297C271.086 36.7578 271.309 36.5195 271.473 36.2148C271.637 35.9023 271.754 35.5391 271.824 35.125C271.895 34.7109 271.93 34.2656 271.93 33.7891V33.543C271.93 33.082 271.895 32.6484 271.824 32.2422C271.754 31.8281 271.637 31.4648 271.473 31.1523C271.309 30.832 271.086 30.582 270.805 30.4023C270.523 30.2227 270.172 30.1328 269.75 30.1328C269.336 30.1328 268.988 30.2227 268.707 30.4023C268.434 30.582 268.215 30.832 268.051 31.1523C267.887 31.4648 267.77 31.8281 267.699 32.2422C267.629 32.6484 267.594 33.082 267.594 33.543ZM284.281 36.4375C284.281 36.2188 284.207 36.0312 284.059 35.875C283.918 35.7109 283.668 35.5625 283.309 35.4297C282.949 35.2891 282.445 35.1484 281.797 35.0078C281.18 34.875 280.598 34.6992 280.051 34.4805C279.512 34.2617 279.039 33.9961 278.633 33.6836C278.227 33.3711 277.906 33 277.672 32.5703C277.445 32.1406 277.332 31.6484 277.332 31.0938C277.332 30.5547 277.445 30.0469 277.672 29.5703C277.906 29.0859 278.246 28.6602 278.691 28.293C279.145 27.918 279.695 27.625 280.344 27.4141C280.992 27.1953 281.73 27.0859 282.559 27.0859C283.699 27.0859 284.684 27.2617 285.512 27.6133C286.34 27.957 286.977 28.4414 287.422 29.0664C287.875 29.6836 288.102 30.3984 288.102 31.2109H284.152C284.152 30.8906 284.098 30.6172 283.988 30.3906C283.887 30.1641 283.719 29.9922 283.484 29.875C283.25 29.75 282.938 29.6875 282.547 29.6875C282.273 29.6875 282.023 29.7383 281.797 29.8398C281.578 29.9414 281.402 30.082 281.27 30.2617C281.137 30.4414 281.07 30.6523 281.07 30.8945C281.07 31.0664 281.109 31.2227 281.188 31.3633C281.273 31.4961 281.402 31.6211 281.574 31.7383C281.746 31.8477 281.965 31.9492 282.23 32.043C282.496 32.1289 282.816 32.207 283.191 32.2773C284.043 32.4336 284.84 32.6562 285.582 32.9453C286.324 33.2344 286.926 33.6445 287.387 34.1758C287.855 34.707 288.09 35.4219 288.09 36.3203C288.09 36.8828 287.961 37.4023 287.703 37.8789C287.445 38.3477 287.074 38.7617 286.59 39.1211C286.105 39.4727 285.523 39.7461 284.844 39.9414C284.164 40.1367 283.398 40.2344 282.547 40.2344C281.336 40.2344 280.312 40.0195 279.477 39.5898C278.641 39.1523 278.008 38.6055 277.578 37.9492C277.156 37.2852 276.945 36.6133 276.945 35.9336H280.625C280.641 36.3242 280.734 36.6445 280.906 36.8945C281.086 37.1445 281.324 37.3281 281.621 37.4453C281.918 37.5625 282.262 37.6211 282.652 37.6211C283.012 37.6211 283.309 37.5703 283.543 37.4688C283.785 37.3672 283.969 37.2305 284.094 37.0586C284.219 36.8789 284.281 36.6719 284.281 36.4375Z" fill="white"/>
<path d="M141.571 59.6738V55.8594C141.571 55.5085 141.498 55.2054 141.353 54.9502C141.207 54.695 140.993 54.499 140.71 54.3623C140.427 54.2256 140.079 54.1572 139.664 54.1572C139.281 54.1572 138.939 54.2256 138.639 54.3623C138.342 54.4945 138.108 54.6745 137.935 54.9023C137.766 55.1257 137.682 55.374 137.682 55.6475L136.861 55.6406C136.861 55.3626 136.93 55.0938 137.066 54.834C137.203 54.5742 137.397 54.3418 137.647 54.1367C137.898 53.9316 138.197 53.7699 138.543 53.6514C138.894 53.5283 139.279 53.4668 139.698 53.4668C140.227 53.4668 140.692 53.5557 141.093 53.7334C141.498 53.9111 141.815 54.1777 142.043 54.5332C142.271 54.8887 142.385 55.3353 142.385 55.873V59.4482C142.385 59.7035 142.403 59.9678 142.439 60.2412C142.48 60.5146 142.537 60.7402 142.61 60.918V61H141.742C141.688 60.8359 141.644 60.6309 141.612 60.3848C141.585 60.1341 141.571 59.8971 141.571 59.6738ZM141.763 56.6934L141.776 57.3223H140.17C139.751 57.3223 139.375 57.361 139.042 57.4385C138.714 57.5114 138.436 57.6208 138.208 57.7666C137.98 57.9079 137.805 58.0788 137.682 58.2793C137.563 58.4798 137.504 58.7077 137.504 58.9629C137.504 59.2272 137.57 59.4688 137.702 59.6875C137.839 59.9062 138.03 60.0817 138.276 60.2139C138.527 60.3415 138.823 60.4053 139.165 60.4053C139.621 60.4053 140.022 60.321 140.368 60.1523C140.719 59.9837 141.008 59.7627 141.236 59.4893C141.464 59.2158 141.617 58.9173 141.694 58.5938L142.05 59.0654C141.991 59.2933 141.881 59.528 141.722 59.7695C141.567 60.0065 141.364 60.2298 141.113 60.4395C140.863 60.6445 140.566 60.8132 140.225 60.9453C139.887 61.0729 139.505 61.1367 139.076 61.1367C138.593 61.1367 138.172 61.0456 137.812 60.8633C137.456 60.681 137.178 60.4326 136.978 60.1182C136.782 59.7992 136.684 59.4391 136.684 59.0381C136.684 58.6735 136.761 58.3477 136.916 58.0605C137.071 57.7689 137.294 57.5228 137.586 57.3223C137.882 57.1172 138.238 56.9622 138.652 56.8574C139.072 56.748 139.541 56.6934 140.061 56.6934H141.763ZM144.565 50.5H145.386V59.5645L145.331 61H144.565V50.5ZM150.533 57.2334V57.377C150.533 57.9284 150.469 58.4342 150.342 58.8945C150.214 59.3548 150.03 59.7536 149.788 60.0908C149.547 60.4235 149.25 60.681 148.899 60.8633C148.553 61.0456 148.154 61.1367 147.703 61.1367C147.261 61.1367 146.869 61.0684 146.527 60.9316C146.186 60.7904 145.894 60.5921 145.652 60.3369C145.411 60.0771 145.217 59.7741 145.071 59.4277C144.925 59.0768 144.823 58.6917 144.764 58.2725V56.4473C144.832 56.0007 144.941 55.5951 145.092 55.2305C145.242 54.8659 145.436 54.5514 145.673 54.2871C145.914 54.0228 146.201 53.82 146.534 53.6787C146.871 53.5374 147.257 53.4668 147.689 53.4668C148.141 53.4668 148.542 53.5557 148.893 53.7334C149.248 53.9066 149.547 54.1595 149.788 54.4922C150.03 54.8203 150.214 55.2168 150.342 55.6816C150.469 56.1419 150.533 56.6592 150.533 57.2334ZM149.706 57.377V57.2334C149.706 56.8005 149.665 56.3994 149.583 56.0303C149.501 55.6611 149.371 55.3398 149.193 55.0664C149.02 54.7884 148.797 54.5719 148.523 54.417C148.25 54.262 147.922 54.1846 147.539 54.1846C147.147 54.1846 146.812 54.2507 146.534 54.3828C146.261 54.5104 146.033 54.6813 145.851 54.8955C145.673 55.1051 145.532 55.3353 145.427 55.5859C145.322 55.8366 145.244 56.0827 145.194 56.3242V58.4502C145.272 58.792 145.406 59.1133 145.598 59.4141C145.789 59.7148 146.047 59.9587 146.37 60.1455C146.694 60.3278 147.088 60.4189 147.553 60.4189C147.926 60.4189 148.248 60.3415 148.517 60.1865C148.79 60.0316 149.013 59.8174 149.187 59.5439C149.364 59.2705 149.494 58.9492 149.576 58.5801C149.663 58.2109 149.706 57.8099 149.706 57.377ZM157.15 59.5645V50.5H157.971V61H157.205L157.15 59.5645ZM152.017 57.377V57.2334C152.017 56.6592 152.083 56.1419 152.215 55.6816C152.347 55.2168 152.536 54.8203 152.782 54.4922C153.033 54.1595 153.334 53.9066 153.685 53.7334C154.035 53.5557 154.432 53.4668 154.874 53.4668C155.307 53.4668 155.69 53.5374 156.022 53.6787C156.355 53.82 156.64 54.0228 156.877 54.2871C157.118 54.5514 157.312 54.8659 157.458 55.2305C157.608 55.5951 157.718 56.0007 157.786 56.4473V58.2725C157.731 58.6917 157.631 59.0768 157.485 59.4277C157.34 59.7741 157.146 60.0771 156.904 60.3369C156.663 60.5921 156.371 60.7904 156.029 60.9316C155.692 61.0684 155.302 61.1367 154.86 61.1367C154.423 61.1367 154.029 61.0456 153.678 60.8633C153.327 60.681 153.028 60.4235 152.782 60.0908C152.536 59.7536 152.347 59.3548 152.215 58.8945C152.083 58.4342 152.017 57.9284 152.017 57.377ZM152.837 57.2334V57.377C152.837 57.8099 152.88 58.2109 152.967 58.5801C153.053 58.9492 153.186 59.2705 153.363 59.5439C153.541 59.8174 153.767 60.0316 154.04 60.1865C154.313 60.3415 154.637 60.4189 155.011 60.4189C155.48 60.4189 155.874 60.3301 156.193 60.1523C156.512 59.9701 156.768 59.7308 156.959 59.4346C157.15 59.1338 157.289 58.8057 157.376 58.4502V56.3242C157.321 56.0827 157.242 55.8366 157.137 55.5859C157.032 55.3353 156.888 55.1051 156.706 54.8955C156.528 54.6813 156.3 54.5104 156.022 54.3828C155.749 54.2507 155.416 54.1846 155.024 54.1846C154.646 54.1846 154.32 54.262 154.047 54.417C153.773 54.5719 153.546 54.7884 153.363 55.0664C153.186 55.3398 153.053 55.6611 152.967 56.0303C152.88 56.3994 152.837 56.8005 152.837 57.2334ZM161.525 61H160.712V52.6875C160.712 52.1816 160.799 51.7555 160.972 51.4092C161.149 51.0628 161.4 50.8008 161.724 50.623C162.052 50.4453 162.441 50.3564 162.893 50.3564C163.034 50.3564 163.18 50.3656 163.33 50.3838C163.48 50.3975 163.626 50.4271 163.768 50.4727L163.706 51.1631C163.592 51.1312 163.476 51.1107 163.357 51.1016C163.243 51.0879 163.109 51.0811 162.954 51.0811C162.658 51.0811 162.403 51.1449 162.188 51.2725C161.974 51.3955 161.81 51.5755 161.696 51.8125C161.582 52.0495 161.525 52.3411 161.525 52.6875V61ZM163.289 53.6035V54.2734H159.488V53.6035H163.289ZM164.308 57.418V57.1924C164.308 56.6546 164.385 56.1579 164.54 55.7021C164.695 55.2464 164.916 54.8522 165.203 54.5195C165.495 54.1868 165.843 53.9294 166.249 53.7471C166.655 53.5602 167.106 53.4668 167.603 53.4668C168.104 53.4668 168.557 53.5602 168.963 53.7471C169.368 53.9294 169.717 54.1868 170.009 54.5195C170.3 54.8522 170.524 55.2464 170.679 55.7021C170.834 56.1579 170.911 56.6546 170.911 57.1924V57.418C170.911 57.9557 170.834 58.4525 170.679 58.9082C170.524 59.3594 170.3 59.7513 170.009 60.084C169.722 60.4167 169.375 60.6764 168.97 60.8633C168.564 61.0456 168.113 61.1367 167.616 61.1367C167.115 61.1367 166.661 61.0456 166.256 60.8633C165.85 60.6764 165.502 60.4167 165.21 60.084C164.918 59.7513 164.695 59.3594 164.54 58.9082C164.385 58.4525 164.308 57.9557 164.308 57.418ZM165.121 57.1924V57.418C165.121 57.8236 165.176 58.2087 165.285 58.5732C165.395 58.9333 165.554 59.2546 165.764 59.5371C165.973 59.8151 166.233 60.0339 166.543 60.1934C166.853 60.3529 167.211 60.4326 167.616 60.4326C168.017 60.4326 168.37 60.3529 168.676 60.1934C168.986 60.0339 169.245 59.8151 169.455 59.5371C169.665 59.2546 169.822 58.9333 169.927 58.5732C170.036 58.2087 170.091 57.8236 170.091 57.418V57.1924C170.091 56.7913 170.036 56.4108 169.927 56.0508C169.822 55.6908 169.662 55.3695 169.448 55.0869C169.239 54.8044 168.979 54.5811 168.669 54.417C168.359 54.2529 168.004 54.1709 167.603 54.1709C167.201 54.1709 166.846 54.2529 166.536 54.417C166.231 54.5811 165.971 54.8044 165.757 55.0869C165.547 55.3695 165.388 55.6908 165.278 56.0508C165.174 56.4108 165.121 56.7913 165.121 57.1924ZM173.516 53.6035V61H172.702V53.6035H173.516ZM172.559 51.4639C172.559 51.3089 172.606 51.179 172.702 51.0742C172.802 50.9648 172.939 50.9102 173.112 50.9102C173.285 50.9102 173.422 50.9648 173.522 51.0742C173.627 51.179 173.68 51.3089 173.68 51.4639C173.68 51.6143 173.627 51.7441 173.522 51.8535C173.422 51.9583 173.285 52.0107 173.112 52.0107C172.939 52.0107 172.802 51.9583 172.702 51.8535C172.606 51.7441 172.559 51.6143 172.559 51.4639ZM180.249 59.6738V55.8594C180.249 55.5085 180.176 55.2054 180.03 54.9502C179.884 54.695 179.67 54.499 179.388 54.3623C179.105 54.2256 178.757 54.1572 178.342 54.1572C177.959 54.1572 177.617 54.2256 177.316 54.3623C177.02 54.4945 176.785 54.6745 176.612 54.9023C176.444 55.1257 176.359 55.374 176.359 55.6475L175.539 55.6406C175.539 55.3626 175.607 55.0938 175.744 54.834C175.881 54.5742 176.075 54.3418 176.325 54.1367C176.576 53.9316 176.874 53.7699 177.221 53.6514C177.572 53.5283 177.957 53.4668 178.376 53.4668C178.905 53.4668 179.369 53.5557 179.771 53.7334C180.176 53.9111 180.493 54.1777 180.721 54.5332C180.949 54.8887 181.062 55.3353 181.062 55.873V59.4482C181.062 59.7035 181.081 59.9678 181.117 60.2412C181.158 60.5146 181.215 60.7402 181.288 60.918V61H180.42C180.365 60.8359 180.322 60.6309 180.29 60.3848C180.263 60.1341 180.249 59.8971 180.249 59.6738ZM180.44 56.6934L180.454 57.3223H178.848C178.428 57.3223 178.052 57.361 177.72 57.4385C177.392 57.5114 177.114 57.6208 176.886 57.7666C176.658 57.9079 176.482 58.0788 176.359 58.2793C176.241 58.4798 176.182 58.7077 176.182 58.9629C176.182 59.2272 176.248 59.4688 176.38 59.6875C176.517 59.9062 176.708 60.0817 176.954 60.2139C177.205 60.3415 177.501 60.4053 177.843 60.4053C178.299 60.4053 178.7 60.321 179.046 60.1523C179.397 59.9837 179.686 59.7627 179.914 59.4893C180.142 59.2158 180.295 58.9173 180.372 58.5938L180.728 59.0654C180.668 59.2933 180.559 59.528 180.399 59.7695C180.244 60.0065 180.042 60.2298 179.791 60.4395C179.54 60.6445 179.244 60.8132 178.902 60.9453C178.565 61.0729 178.182 61.1367 177.754 61.1367C177.271 61.1367 176.849 61.0456 176.489 60.8633C176.134 60.681 175.856 60.4326 175.655 60.1182C175.459 59.7992 175.361 59.4391 175.361 59.0381C175.361 58.6735 175.439 58.3477 175.594 58.0605C175.749 57.7689 175.972 57.5228 176.264 57.3223C176.56 57.1172 176.915 56.9622 177.33 56.8574C177.749 56.748 178.219 56.6934 178.738 56.6934H180.44ZM183.243 50.5H184.063V59.5645L184.009 61H183.243V50.5ZM189.211 57.2334V57.377C189.211 57.9284 189.147 58.4342 189.02 58.8945C188.892 59.3548 188.707 59.7536 188.466 60.0908C188.224 60.4235 187.928 60.681 187.577 60.8633C187.231 61.0456 186.832 61.1367 186.381 61.1367C185.939 61.1367 185.547 61.0684 185.205 60.9316C184.863 60.7904 184.572 60.5921 184.33 60.3369C184.089 60.0771 183.895 59.7741 183.749 59.4277C183.603 59.0768 183.501 58.6917 183.441 58.2725V56.4473C183.51 56.0007 183.619 55.5951 183.77 55.2305C183.92 54.8659 184.114 54.5514 184.351 54.2871C184.592 54.0228 184.879 53.82 185.212 53.6787C185.549 53.5374 185.934 53.4668 186.367 53.4668C186.818 53.4668 187.219 53.5557 187.57 53.7334C187.926 53.9066 188.224 54.1595 188.466 54.4922C188.707 54.8203 188.892 55.2168 189.02 55.6816C189.147 56.1419 189.211 56.6592 189.211 57.2334ZM188.384 57.377V57.2334C188.384 56.8005 188.343 56.3994 188.261 56.0303C188.179 55.6611 188.049 55.3398 187.871 55.0664C187.698 54.7884 187.475 54.5719 187.201 54.417C186.928 54.262 186.6 54.1846 186.217 54.1846C185.825 54.1846 185.49 54.2507 185.212 54.3828C184.938 54.5104 184.711 54.6813 184.528 54.8955C184.351 55.1051 184.209 55.3353 184.104 55.5859C184 55.8366 183.922 56.0827 183.872 56.3242V58.4502C183.95 58.792 184.084 59.1133 184.275 59.4141C184.467 59.7148 184.724 59.9587 185.048 60.1455C185.371 60.3278 185.766 60.4189 186.23 60.4189C186.604 60.4189 186.925 60.3415 187.194 60.1865C187.468 60.0316 187.691 59.8174 187.864 59.5439C188.042 59.2705 188.172 58.9492 188.254 58.5801C188.34 58.2109 188.384 57.8099 188.384 57.377ZM195.452 59.1133C195.452 58.9128 195.402 58.7145 195.302 58.5186C195.201 58.3226 195.008 58.1426 194.721 57.9785C194.438 57.8145 194.021 57.6755 193.47 57.5615C193.06 57.4704 192.693 57.3678 192.369 57.2539C192.05 57.14 191.781 57.0033 191.562 56.8438C191.344 56.6842 191.177 56.4928 191.063 56.2695C190.95 56.0462 190.893 55.7819 190.893 55.4766C190.893 55.2031 190.952 54.9456 191.07 54.7041C191.193 54.458 191.367 54.2438 191.59 54.0615C191.818 53.8747 192.091 53.7288 192.41 53.624C192.734 53.5192 193.096 53.4668 193.497 53.4668C194.067 53.4668 194.554 53.5648 194.96 53.7607C195.37 53.9521 195.682 54.2142 195.896 54.5469C196.115 54.8796 196.225 55.2555 196.225 55.6748H195.411C195.411 55.4196 195.336 55.1781 195.186 54.9502C195.04 54.7223 194.823 54.5355 194.536 54.3896C194.254 54.2438 193.907 54.1709 193.497 54.1709C193.073 54.1709 192.729 54.2347 192.465 54.3623C192.201 54.4899 192.007 54.6517 191.884 54.8477C191.765 55.0436 191.706 55.2464 191.706 55.4561C191.706 55.6201 191.731 55.7705 191.781 55.9072C191.836 56.0394 191.932 56.1624 192.068 56.2764C192.21 56.3903 192.41 56.4974 192.67 56.5977C192.93 56.6979 193.267 56.7959 193.682 56.8916C194.279 57.0238 194.766 57.1855 195.145 57.377C195.527 57.5638 195.81 57.7962 195.992 58.0742C196.174 58.3477 196.266 58.6803 196.266 59.0723C196.266 59.3776 196.202 59.6579 196.074 59.9131C195.947 60.1637 195.762 60.3802 195.521 60.5625C195.284 60.7448 194.996 60.8861 194.659 60.9863C194.326 61.0866 193.953 61.1367 193.538 61.1367C192.914 61.1367 192.385 61.0342 191.952 60.8291C191.524 60.6195 191.198 60.346 190.975 60.0088C190.756 59.667 190.646 59.3047 190.646 58.9219H191.46C191.487 59.3047 191.608 59.6077 191.822 59.8311C192.036 60.0498 192.299 60.2048 192.608 60.2959C192.923 60.387 193.233 60.4326 193.538 60.4326C193.957 60.4326 194.308 60.3711 194.591 60.248C194.873 60.125 195.088 59.9632 195.233 59.7627C195.379 59.5622 195.452 59.3457 195.452 59.1133ZM199.027 53.6035V61H198.214V53.6035H199.027ZM198.07 51.4639C198.07 51.3089 198.118 51.179 198.214 51.0742C198.314 50.9648 198.451 50.9102 198.624 50.9102C198.797 50.9102 198.934 50.9648 199.034 51.0742C199.139 51.179 199.191 51.3089 199.191 51.4639C199.191 51.6143 199.139 51.7441 199.034 51.8535C198.934 51.9583 198.797 52.0107 198.624 52.0107C198.451 52.0107 198.314 51.9583 198.214 51.8535C198.118 51.7441 198.07 51.6143 198.07 51.4639ZM205.761 59.6738V55.8594C205.761 55.5085 205.688 55.2054 205.542 54.9502C205.396 54.695 205.182 54.499 204.899 54.3623C204.617 54.2256 204.268 54.1572 203.854 54.1572C203.471 54.1572 203.129 54.2256 202.828 54.3623C202.532 54.4945 202.297 54.6745 202.124 54.9023C201.955 55.1257 201.871 55.374 201.871 55.6475L201.051 55.6406C201.051 55.3626 201.119 55.0938 201.256 54.834C201.393 54.5742 201.586 54.3418 201.837 54.1367C202.088 53.9316 202.386 53.7699 202.732 53.6514C203.083 53.5283 203.468 53.4668 203.888 53.4668C204.416 53.4668 204.881 53.5557 205.282 53.7334C205.688 53.9111 206.005 54.1777 206.232 54.5332C206.46 54.8887 206.574 55.3353 206.574 55.873V59.4482C206.574 59.7035 206.592 59.9678 206.629 60.2412C206.67 60.5146 206.727 60.7402 206.8 60.918V61H205.932C205.877 60.8359 205.834 60.6309 205.802 60.3848C205.774 60.1341 205.761 59.8971 205.761 59.6738ZM205.952 56.6934L205.966 57.3223H204.359C203.94 57.3223 203.564 57.361 203.231 57.4385C202.903 57.5114 202.625 57.6208 202.397 57.7666C202.17 57.9079 201.994 58.0788 201.871 58.2793C201.753 58.4798 201.693 58.7077 201.693 58.9629C201.693 59.2272 201.759 59.4688 201.892 59.6875C202.028 59.9062 202.22 60.0817 202.466 60.2139C202.716 60.3415 203.013 60.4053 203.354 60.4053C203.81 60.4053 204.211 60.321 204.558 60.1523C204.909 59.9837 205.198 59.7627 205.426 59.4893C205.654 59.2158 205.806 58.9173 205.884 58.5938L206.239 59.0654C206.18 59.2933 206.071 59.528 205.911 59.7695C205.756 60.0065 205.553 60.2298 205.303 60.4395C205.052 60.6445 204.756 60.8132 204.414 60.9453C204.077 61.0729 203.694 61.1367 203.266 61.1367C202.783 61.1367 202.361 61.0456 202.001 60.8633C201.646 60.681 201.368 60.4326 201.167 60.1182C200.971 59.7992 200.873 59.4391 200.873 59.0381C200.873 58.6735 200.951 58.3477 201.105 58.0605C201.26 57.7689 201.484 57.5228 201.775 57.3223C202.072 57.1172 202.427 56.9622 202.842 56.8574C203.261 56.748 203.73 56.6934 204.25 56.6934H205.952ZM209.582 55.1826V61H208.769V53.6035H209.548L209.582 55.1826ZM209.397 56.8438L209.035 56.6387C209.062 56.2012 209.151 55.791 209.302 55.4082C209.452 55.0254 209.655 54.6882 209.91 54.3965C210.17 54.1048 210.473 53.877 210.819 53.7129C211.17 53.5488 211.558 53.4668 211.981 53.4668C212.351 53.4668 212.681 53.5169 212.973 53.6172C213.264 53.7174 213.513 53.877 213.718 54.0957C213.923 54.3145 214.078 54.5947 214.183 54.9365C214.292 55.2783 214.347 55.6953 214.347 56.1875V61H213.526V56.1807C213.526 55.6702 213.456 55.2715 213.314 54.9844C213.173 54.6927 212.973 54.4854 212.713 54.3623C212.453 54.2393 212.146 54.1777 211.79 54.1777C211.398 54.1777 211.054 54.2643 210.758 54.4375C210.466 54.6061 210.22 54.8271 210.02 55.1006C209.824 55.3695 209.673 55.6589 209.568 55.9688C209.464 56.2741 209.407 56.5658 209.397 56.8438ZM221.271 59.5645V50.5H222.092V61H221.326L221.271 59.5645ZM216.138 57.377V57.2334C216.138 56.6592 216.204 56.1419 216.336 55.6816C216.468 55.2168 216.657 54.8203 216.903 54.4922C217.154 54.1595 217.455 53.9066 217.806 53.7334C218.157 53.5557 218.553 53.4668 218.995 53.4668C219.428 53.4668 219.811 53.5374 220.144 53.6787C220.476 53.82 220.761 54.0228 220.998 54.2871C221.24 54.5514 221.433 54.8659 221.579 55.2305C221.729 55.5951 221.839 56.0007 221.907 56.4473V58.2725C221.853 58.6917 221.752 59.0768 221.606 59.4277C221.461 59.7741 221.267 60.0771 221.025 60.3369C220.784 60.5921 220.492 60.7904 220.15 60.9316C219.813 61.0684 219.424 61.1367 218.981 61.1367C218.544 61.1367 218.15 61.0456 217.799 60.8633C217.448 60.681 217.149 60.4235 216.903 60.0908C216.657 59.7536 216.468 59.3548 216.336 58.8945C216.204 58.4342 216.138 57.9284 216.138 57.377ZM216.958 57.2334V57.377C216.958 57.8099 217.001 58.2109 217.088 58.5801C217.174 58.9492 217.307 59.2705 217.484 59.5439C217.662 59.8174 217.888 60.0316 218.161 60.1865C218.435 60.3415 218.758 60.4189 219.132 60.4189C219.601 60.4189 219.995 60.3301 220.314 60.1523C220.633 59.9701 220.889 59.7308 221.08 59.4346C221.271 59.1338 221.41 58.8057 221.497 58.4502V56.3242C221.442 56.0827 221.363 55.8366 221.258 55.5859C221.153 55.3353 221.009 55.1051 220.827 54.8955C220.649 54.6813 220.422 54.5104 220.144 54.3828C219.87 54.2507 219.537 54.1846 219.146 54.1846C218.767 54.1846 218.441 54.262 218.168 54.417C217.895 54.5719 217.667 54.7884 217.484 55.0664C217.307 55.3398 217.174 55.6611 217.088 56.0303C217.001 56.3994 216.958 56.8005 216.958 57.2334ZM223.794 57.418V57.1924C223.794 56.6546 223.871 56.1579 224.026 55.7021C224.181 55.2464 224.402 54.8522 224.689 54.5195C224.981 54.1868 225.33 53.9294 225.735 53.7471C226.141 53.5602 226.592 53.4668 227.089 53.4668C227.59 53.4668 228.044 53.5602 228.449 53.7471C228.855 53.9294 229.203 54.1868 229.495 54.5195C229.787 54.8522 230.01 55.2464 230.165 55.7021C230.32 56.1579 230.397 56.6546 230.397 57.1924V57.418C230.397 57.9557 230.32 58.4525 230.165 58.9082C230.01 59.3594 229.787 59.7513 229.495 60.084C229.208 60.4167 228.862 60.6764 228.456 60.8633C228.05 61.0456 227.599 61.1367 227.103 61.1367C226.601 61.1367 226.148 61.0456 225.742 60.8633C225.337 60.6764 224.988 60.4167 224.696 60.084C224.405 59.7513 224.181 59.3594 224.026 58.9082C223.871 58.4525 223.794 57.9557 223.794 57.418ZM224.607 57.1924V57.418C224.607 57.8236 224.662 58.2087 224.771 58.5732C224.881 58.9333 225.04 59.2546 225.25 59.5371C225.46 59.8151 225.719 60.0339 226.029 60.1934C226.339 60.3529 226.697 60.4326 227.103 60.4326C227.504 60.4326 227.857 60.3529 228.162 60.1934C228.472 60.0339 228.732 59.8151 228.941 59.5371C229.151 59.2546 229.308 58.9333 229.413 58.5732C229.522 58.2087 229.577 57.8236 229.577 57.418V57.1924C229.577 56.7913 229.522 56.4108 229.413 56.0508C229.308 55.6908 229.149 55.3695 228.935 55.0869C228.725 54.8044 228.465 54.5811 228.155 54.417C227.845 54.2529 227.49 54.1709 227.089 54.1709C226.688 54.1709 226.332 54.2529 226.022 54.417C225.717 54.5811 225.457 54.8044 225.243 55.0869C225.034 55.3695 224.874 55.6908 224.765 56.0508C224.66 56.4108 224.607 56.7913 224.607 57.1924ZM233.002 53.6035V61H232.188V53.6035H233.002ZM232.045 51.4639C232.045 51.3089 232.093 51.179 232.188 51.0742C232.289 50.9648 232.425 50.9102 232.599 50.9102C232.772 50.9102 232.909 50.9648 233.009 51.0742C233.114 51.179 233.166 51.3089 233.166 51.4639C233.166 51.6143 233.114 51.7441 233.009 51.8535C232.909 51.9583 232.772 52.0107 232.599 52.0107C232.425 52.0107 232.289 51.9583 232.188 51.8535C232.093 51.7441 232.045 51.6143 232.045 51.4639ZM239.735 59.6738V55.8594C239.735 55.5085 239.662 55.2054 239.517 54.9502C239.371 54.695 239.157 54.499 238.874 54.3623C238.591 54.2256 238.243 54.1572 237.828 54.1572C237.445 54.1572 237.104 54.2256 236.803 54.3623C236.507 54.4945 236.272 54.6745 236.099 54.9023C235.93 55.1257 235.846 55.374 235.846 55.6475L235.025 55.6406C235.025 55.3626 235.094 55.0938 235.23 54.834C235.367 54.5742 235.561 54.3418 235.812 54.1367C236.062 53.9316 236.361 53.7699 236.707 53.6514C237.058 53.5283 237.443 53.4668 237.862 53.4668C238.391 53.4668 238.856 53.5557 239.257 53.7334C239.662 53.9111 239.979 54.1777 240.207 54.5332C240.435 54.8887 240.549 55.3353 240.549 55.873V59.4482C240.549 59.7035 240.567 59.9678 240.604 60.2412C240.645 60.5146 240.701 60.7402 240.774 60.918V61H239.906C239.852 60.8359 239.808 60.6309 239.776 60.3848C239.749 60.1341 239.735 59.8971 239.735 59.6738ZM239.927 56.6934L239.94 57.3223H238.334C237.915 57.3223 237.539 57.361 237.206 57.4385C236.878 57.5114 236.6 57.6208 236.372 57.7666C236.144 57.9079 235.969 58.0788 235.846 58.2793C235.727 58.4798 235.668 58.7077 235.668 58.9629C235.668 59.2272 235.734 59.4688 235.866 59.6875C236.003 59.9062 236.194 60.0817 236.44 60.2139C236.691 60.3415 236.987 60.4053 237.329 60.4053C237.785 60.4053 238.186 60.321 238.532 60.1523C238.883 59.9837 239.173 59.7627 239.4 59.4893C239.628 59.2158 239.781 58.9173 239.858 58.5938L240.214 59.0654C240.155 59.2933 240.045 59.528 239.886 59.7695C239.731 60.0065 239.528 60.2298 239.277 60.4395C239.027 60.6445 238.73 60.8132 238.389 60.9453C238.051 61.0729 237.669 61.1367 237.24 61.1367C236.757 61.1367 236.336 61.0456 235.976 60.8633C235.62 60.681 235.342 60.4326 235.142 60.1182C234.946 59.7992 234.848 59.4391 234.848 59.0381C234.848 58.6735 234.925 58.3477 235.08 58.0605C235.235 57.7689 235.458 57.5228 235.75 57.3223C236.046 57.1172 236.402 56.9622 236.816 56.8574C237.236 56.748 237.705 56.6934 238.225 56.6934H239.927ZM243.557 55.1826V61H242.743V53.6035H243.522L243.557 55.1826ZM243.372 56.8438L243.01 56.6387C243.037 56.2012 243.126 55.791 243.276 55.4082C243.427 55.0254 243.63 54.6882 243.885 54.3965C244.145 54.1048 244.448 53.877 244.794 53.7129C245.145 53.5488 245.532 53.4668 245.956 53.4668C246.325 53.4668 246.656 53.5169 246.947 53.6172C247.239 53.7174 247.487 53.877 247.692 54.0957C247.897 54.3145 248.052 54.5947 248.157 54.9365C248.267 55.2783 248.321 55.6953 248.321 56.1875V61H247.501V56.1807C247.501 55.6702 247.43 55.2715 247.289 54.9844C247.148 54.6927 246.947 54.4854 246.688 54.3623C246.428 54.2393 246.12 54.1777 245.765 54.1777C245.373 54.1777 245.029 54.2643 244.732 54.4375C244.441 54.6061 244.195 54.8271 243.994 55.1006C243.798 55.3695 243.648 55.6589 243.543 55.9688C243.438 56.2741 243.381 56.5658 243.372 56.8438ZM255.246 59.5645V50.5H256.066V61H255.301L255.246 59.5645ZM250.112 57.377V57.2334C250.112 56.6592 250.178 56.1419 250.311 55.6816C250.443 55.2168 250.632 54.8203 250.878 54.4922C251.129 54.1595 251.429 53.9066 251.78 53.7334C252.131 53.5557 252.528 53.4668 252.97 53.4668C253.403 53.4668 253.785 53.5374 254.118 53.6787C254.451 53.82 254.736 54.0228 254.973 54.2871C255.214 54.5514 255.408 54.8659 255.554 55.2305C255.704 55.5951 255.813 56.0007 255.882 56.4473V58.2725C255.827 58.6917 255.727 59.0768 255.581 59.4277C255.435 59.7741 255.242 60.0771 255 60.3369C254.758 60.5921 254.467 60.7904 254.125 60.9316C253.788 61.0684 253.398 61.1367 252.956 61.1367C252.519 61.1367 252.124 61.0456 251.773 60.8633C251.423 60.681 251.124 60.4235 250.878 60.0908C250.632 59.7536 250.443 59.3548 250.311 58.8945C250.178 58.4342 250.112 57.9284 250.112 57.377ZM250.933 57.2334V57.377C250.933 57.8099 250.976 58.2109 251.062 58.5801C251.149 58.9492 251.281 59.2705 251.459 59.5439C251.637 59.8174 251.862 60.0316 252.136 60.1865C252.409 60.3415 252.733 60.4189 253.106 60.4189C253.576 60.4189 253.97 60.3301 254.289 60.1523C254.608 59.9701 254.863 59.7308 255.055 59.4346C255.246 59.1338 255.385 58.8057 255.472 58.4502V56.3242C255.417 56.0827 255.337 55.8366 255.232 55.5859C255.128 55.3353 254.984 55.1051 254.802 54.8955C254.624 54.6813 254.396 54.5104 254.118 54.3828C253.845 54.2507 253.512 54.1846 253.12 54.1846C252.742 54.1846 252.416 54.262 252.143 54.417C251.869 54.5719 251.641 54.7884 251.459 55.0664C251.281 55.3398 251.149 55.6611 251.062 56.0303C250.976 56.3994 250.933 56.8005 250.933 57.2334ZM257.769 57.418V57.1924C257.769 56.6546 257.846 56.1579 258.001 55.7021C258.156 55.2464 258.377 54.8522 258.664 54.5195C258.956 54.1868 259.304 53.9294 259.71 53.7471C260.116 53.5602 260.567 53.4668 261.063 53.4668C261.565 53.4668 262.018 53.5602 262.424 53.7471C262.829 53.9294 263.178 54.1868 263.47 54.5195C263.761 54.8522 263.985 55.2464 264.14 55.7021C264.295 56.1579 264.372 56.6546 264.372 57.1924V57.418C264.372 57.9557 264.295 58.4525 264.14 58.9082C263.985 59.3594 263.761 59.7513 263.47 60.084C263.183 60.4167 262.836 60.6764 262.431 60.8633C262.025 61.0456 261.574 61.1367 261.077 61.1367C260.576 61.1367 260.122 61.0456 259.717 60.8633C259.311 60.6764 258.963 60.4167 258.671 60.084C258.379 59.7513 258.156 59.3594 258.001 58.9082C257.846 58.4525 257.769 57.9557 257.769 57.418ZM258.582 57.1924V57.418C258.582 57.8236 258.637 58.2087 258.746 58.5732C258.855 58.9333 259.015 59.2546 259.225 59.5371C259.434 59.8151 259.694 60.0339 260.004 60.1934C260.314 60.3529 260.672 60.4326 261.077 60.4326C261.478 60.4326 261.831 60.3529 262.137 60.1934C262.447 60.0339 262.706 59.8151 262.916 59.5371C263.126 59.2546 263.283 58.9333 263.388 58.5732C263.497 58.2087 263.552 57.8236 263.552 57.418V57.1924C263.552 56.7913 263.497 56.4108 263.388 56.0508C263.283 55.6908 263.123 55.3695 262.909 55.0869C262.7 54.8044 262.44 54.5811 262.13 54.417C261.82 54.2529 261.465 54.1709 261.063 54.1709C260.662 54.1709 260.307 54.2529 259.997 54.417C259.692 54.5811 259.432 54.8044 259.218 55.0869C259.008 55.3695 258.849 55.6908 258.739 56.0508C258.634 56.4108 258.582 56.7913 258.582 57.1924ZM266.977 53.6035V61H266.163V53.6035H266.977ZM266.02 51.4639C266.02 51.3089 266.067 51.179 266.163 51.0742C266.263 50.9648 266.4 50.9102 266.573 50.9102C266.746 50.9102 266.883 50.9648 266.983 51.0742C267.088 51.179 267.141 51.3089 267.141 51.4639C267.141 51.6143 267.088 51.7441 266.983 51.8535C266.883 51.9583 266.746 52.0107 266.573 52.0107C266.4 52.0107 266.263 51.9583 266.163 51.8535C266.067 51.7441 266.02 51.6143 266.02 51.4639ZM273.71 59.6738V55.8594C273.71 55.5085 273.637 55.2054 273.491 54.9502C273.345 54.695 273.131 54.499 272.849 54.3623C272.566 54.2256 272.217 54.1572 271.803 54.1572C271.42 54.1572 271.078 54.2256 270.777 54.3623C270.481 54.4945 270.246 54.6745 270.073 54.9023C269.905 55.1257 269.82 55.374 269.82 55.6475L269 55.6406C269 55.3626 269.068 55.0938 269.205 54.834C269.342 54.5742 269.535 54.3418 269.786 54.1367C270.037 53.9316 270.335 53.7699 270.682 53.6514C271.033 53.5283 271.418 53.4668 271.837 53.4668C272.366 53.4668 272.83 53.5557 273.231 53.7334C273.637 53.9111 273.954 54.1777 274.182 54.5332C274.41 54.8887 274.523 55.3353 274.523 55.873V59.4482C274.523 59.7035 274.542 59.9678 274.578 60.2412C274.619 60.5146 274.676 60.7402 274.749 60.918V61H273.881C273.826 60.8359 273.783 60.6309 273.751 60.3848C273.724 60.1341 273.71 59.8971 273.71 59.6738ZM273.901 56.6934L273.915 57.3223H272.309C271.889 57.3223 271.513 57.361 271.181 57.4385C270.853 57.5114 270.575 57.6208 270.347 57.7666C270.119 57.9079 269.943 58.0788 269.82 58.2793C269.702 58.4798 269.643 58.7077 269.643 58.9629C269.643 59.2272 269.709 59.4688 269.841 59.6875C269.978 59.9062 270.169 60.0817 270.415 60.2139C270.666 60.3415 270.962 60.4053 271.304 60.4053C271.759 60.4053 272.16 60.321 272.507 60.1523C272.858 59.9837 273.147 59.7627 273.375 59.4893C273.603 59.2158 273.756 58.9173 273.833 58.5938L274.188 59.0654C274.129 59.2933 274.02 59.528 273.86 59.7695C273.705 60.0065 273.503 60.2298 273.252 60.4395C273.001 60.6445 272.705 60.8132 272.363 60.9453C272.026 61.0729 271.643 61.1367 271.215 61.1367C270.732 61.1367 270.31 61.0456 269.95 60.8633C269.595 60.681 269.317 60.4326 269.116 60.1182C268.92 59.7992 268.822 59.4391 268.822 59.0381C268.822 58.6735 268.9 58.3477 269.055 58.0605C269.21 57.7689 269.433 57.5228 269.725 57.3223C270.021 57.1172 270.376 56.9622 270.791 56.8574C271.21 56.748 271.68 56.6934 272.199 56.6934H273.901ZM281.147 59.1133C281.147 58.9128 281.097 58.7145 280.997 58.5186C280.897 58.3226 280.703 58.1426 280.416 57.9785C280.133 57.8145 279.716 57.6755 279.165 57.5615C278.755 57.4704 278.388 57.3678 278.064 57.2539C277.745 57.14 277.477 57.0033 277.258 56.8438C277.039 56.6842 276.873 56.4928 276.759 56.2695C276.645 56.0462 276.588 55.7819 276.588 55.4766C276.588 55.2031 276.647 54.9456 276.766 54.7041C276.889 54.458 277.062 54.2438 277.285 54.0615C277.513 53.8747 277.786 53.7288 278.105 53.624C278.429 53.5192 278.791 53.4668 279.192 53.4668C279.762 53.4668 280.25 53.5648 280.655 53.7607C281.065 53.9521 281.378 54.2142 281.592 54.5469C281.811 54.8796 281.92 55.2555 281.92 55.6748H281.106C281.106 55.4196 281.031 55.1781 280.881 54.9502C280.735 54.7223 280.519 54.5355 280.231 54.3896C279.949 54.2438 279.603 54.1709 279.192 54.1709C278.769 54.1709 278.424 54.2347 278.16 54.3623C277.896 54.4899 277.702 54.6517 277.579 54.8477C277.461 55.0436 277.401 55.2464 277.401 55.4561C277.401 55.6201 277.426 55.7705 277.477 55.9072C277.531 56.0394 277.627 56.1624 277.764 56.2764C277.905 56.3903 278.105 56.4974 278.365 56.5977C278.625 56.6979 278.962 56.7959 279.377 56.8916C279.974 57.0238 280.462 57.1855 280.84 57.377C281.223 57.5638 281.505 57.7962 281.688 58.0742C281.87 58.3477 281.961 58.6803 281.961 59.0723C281.961 59.3776 281.897 59.6579 281.77 59.9131C281.642 60.1637 281.457 60.3802 281.216 60.5625C280.979 60.7448 280.692 60.8861 280.354 60.9863C280.022 61.0866 279.648 61.1367 279.233 61.1367C278.609 61.1367 278.08 61.0342 277.647 60.8291C277.219 60.6195 276.893 60.346 276.67 60.0088C276.451 59.667 276.342 59.3047 276.342 58.9219H277.155C277.183 59.3047 277.303 59.6077 277.518 59.8311C277.732 60.0498 277.994 60.2048 278.304 60.2959C278.618 60.387 278.928 60.4326 279.233 60.4326C279.653 60.4326 280.004 60.3711 280.286 60.248C280.569 60.125 280.783 59.9632 280.929 59.7627C281.075 59.5622 281.147 59.3457 281.147 59.1133ZM284.627 55.1826V61H283.813V53.6035H284.593L284.627 55.1826ZM284.442 56.8438L284.08 56.6387C284.107 56.2012 284.196 55.791 284.347 55.4082C284.497 55.0254 284.7 54.6882 284.955 54.3965C285.215 54.1048 285.518 53.877 285.864 53.7129C286.215 53.5488 286.603 53.4668 287.026 53.4668C287.396 53.4668 287.726 53.5169 288.018 53.6172C288.309 53.7174 288.558 53.877 288.763 54.0957C288.968 54.3145 289.123 54.5947 289.228 54.9365C289.337 55.2783 289.392 55.6953 289.392 56.1875V61H288.571V56.1807C288.571 55.6702 288.501 55.2715 288.359 54.9844C288.218 54.6927 288.018 54.4854 287.758 54.3623C287.498 54.2393 287.19 54.1777 286.835 54.1777C286.443 54.1777 286.099 54.2643 285.803 54.4375C285.511 54.6061 285.265 54.8271 285.064 55.1006C284.868 55.3695 284.718 55.6589 284.613 55.9688C284.508 56.2741 284.451 56.5658 284.442 56.8438ZM296.316 59.5645V50.5H297.137V61H296.371L296.316 59.5645ZM291.183 57.377V57.2334C291.183 56.6592 291.249 56.1419 291.381 55.6816C291.513 55.2168 291.702 54.8203 291.948 54.4922C292.199 54.1595 292.5 53.9066 292.851 53.7334C293.201 53.5557 293.598 53.4668 294.04 53.4668C294.473 53.4668 294.856 53.5374 295.188 53.6787C295.521 53.82 295.806 54.0228 296.043 54.2871C296.285 54.5514 296.478 54.8659 296.624 55.2305C296.774 55.5951 296.884 56.0007 296.952 56.4473V58.2725C296.897 58.6917 296.797 59.0768 296.651 59.4277C296.506 59.7741 296.312 60.0771 296.07 60.3369C295.829 60.5921 295.537 60.7904 295.195 60.9316C294.858 61.0684 294.468 61.1367 294.026 61.1367C293.589 61.1367 293.195 61.0456 292.844 60.8633C292.493 60.681 292.194 60.4235 291.948 60.0908C291.702 59.7536 291.513 59.3548 291.381 58.8945C291.249 58.4342 291.183 57.9284 291.183 57.377ZM292.003 57.2334V57.377C292.003 57.8099 292.046 58.2109 292.133 58.5801C292.219 58.9492 292.352 59.2705 292.529 59.5439C292.707 59.8174 292.933 60.0316 293.206 60.1865C293.479 60.3415 293.803 60.4189 294.177 60.4189C294.646 60.4189 295.04 60.3301 295.359 60.1523C295.678 59.9701 295.934 59.7308 296.125 59.4346C296.316 59.1338 296.455 58.8057 296.542 58.4502V56.3242C296.487 56.0827 296.408 55.8366 296.303 55.5859C296.198 55.3353 296.054 55.1051 295.872 54.8955C295.694 54.6813 295.466 54.5104 295.188 54.3828C294.915 54.2507 294.582 54.1846 294.19 54.1846C293.812 54.1846 293.486 54.262 293.213 54.417C292.939 54.5719 292.712 54.7884 292.529 55.0664C292.352 55.3398 292.219 55.6611 292.133 56.0303C292.046 56.3994 292.003 56.8005 292.003 57.2334ZM136.622 73.418V73.1924C136.622 72.6546 136.7 72.1579 136.854 71.7021C137.009 71.2464 137.23 70.8522 137.518 70.5195C137.809 70.1868 138.158 69.9294 138.563 69.7471C138.969 69.5602 139.42 69.4668 139.917 69.4668C140.418 69.4668 140.872 69.5602 141.277 69.7471C141.683 69.9294 142.032 70.1868 142.323 70.5195C142.615 70.8522 142.838 71.2464 142.993 71.7021C143.148 72.1579 143.226 72.6546 143.226 73.1924V73.418C143.226 73.9557 143.148 74.4525 142.993 74.9082C142.838 75.3594 142.615 75.7513 142.323 76.084C142.036 76.4167 141.69 76.6764 141.284 76.8633C140.879 77.0456 140.427 77.1367 139.931 77.1367C139.429 77.1367 138.976 77.0456 138.57 76.8633C138.165 76.6764 137.816 76.4167 137.524 76.084C137.233 75.7513 137.009 75.3594 136.854 74.9082C136.7 74.4525 136.622 73.9557 136.622 73.418ZM137.436 73.1924V73.418C137.436 73.8236 137.49 74.2087 137.6 74.5732C137.709 74.9333 137.868 75.2546 138.078 75.5371C138.288 75.8151 138.548 76.0339 138.857 76.1934C139.167 76.3529 139.525 76.4326 139.931 76.4326C140.332 76.4326 140.685 76.3529 140.99 76.1934C141.3 76.0339 141.56 75.8151 141.77 75.5371C141.979 75.2546 142.136 74.9333 142.241 74.5732C142.351 74.2087 142.405 73.8236 142.405 73.418V73.1924C142.405 72.7913 142.351 72.4108 142.241 72.0508C142.136 71.6908 141.977 71.3695 141.763 71.0869C141.553 70.8044 141.293 70.5811 140.983 70.417C140.674 70.2529 140.318 70.1709 139.917 70.1709C139.516 70.1709 139.16 70.2529 138.851 70.417C138.545 70.5811 138.285 70.8044 138.071 71.0869C137.862 71.3695 137.702 71.6908 137.593 72.0508C137.488 72.4108 137.436 72.7913 137.436 73.1924ZM145.83 69.6035V77H145.017V69.6035H145.83ZM144.873 67.4639C144.873 67.3089 144.921 67.179 145.017 67.0742C145.117 66.9648 145.254 66.9102 145.427 66.9102C145.6 66.9102 145.737 66.9648 145.837 67.0742C145.942 67.179 145.994 67.3089 145.994 67.4639C145.994 67.6143 145.942 67.7441 145.837 67.8535C145.737 67.9583 145.6 68.0107 145.427 68.0107C145.254 68.0107 145.117 67.9583 145.017 67.8535C144.921 67.7441 144.873 67.6143 144.873 67.4639ZM148.879 71.1826V77H148.065V69.6035H148.845L148.879 71.1826ZM148.694 72.8438L148.332 72.6387C148.359 72.2012 148.448 71.791 148.599 71.4082C148.749 71.0254 148.952 70.6882 149.207 70.3965C149.467 70.1048 149.77 69.877 150.116 69.7129C150.467 69.5488 150.854 69.4668 151.278 69.4668C151.647 69.4668 151.978 69.5169 152.27 69.6172C152.561 69.7174 152.81 69.877 153.015 70.0957C153.22 70.3145 153.375 70.5947 153.479 70.9365C153.589 71.2783 153.644 71.6953 153.644 72.1875V77H152.823V72.1807C152.823 71.6702 152.753 71.2715 152.611 70.9844C152.47 70.6927 152.27 70.4854 152.01 70.3623C151.75 70.2393 151.442 70.1777 151.087 70.1777C150.695 70.1777 150.351 70.2643 150.055 70.4375C149.763 70.6061 149.517 70.8271 149.316 71.1006C149.12 71.3695 148.97 71.6589 148.865 71.9688C148.76 72.2741 148.703 72.5658 148.694 72.8438ZM160.261 75.6738V71.8594C160.261 71.5085 160.188 71.2054 160.042 70.9502C159.896 70.695 159.682 70.499 159.399 70.3623C159.117 70.2256 158.768 70.1572 158.354 70.1572C157.971 70.1572 157.629 70.2256 157.328 70.3623C157.032 70.4945 156.797 70.6745 156.624 70.9023C156.455 71.1257 156.371 71.374 156.371 71.6475L155.551 71.6406C155.551 71.3626 155.619 71.0938 155.756 70.834C155.893 70.5742 156.086 70.3418 156.337 70.1367C156.588 69.9316 156.886 69.7699 157.232 69.6514C157.583 69.5283 157.968 69.4668 158.388 69.4668C158.916 69.4668 159.381 69.5557 159.782 69.7334C160.188 69.9111 160.505 70.1777 160.732 70.5332C160.96 70.8887 161.074 71.3353 161.074 71.873V75.4482C161.074 75.7035 161.092 75.9678 161.129 76.2412C161.17 76.5146 161.227 76.7402 161.3 76.918V77H160.432C160.377 76.8359 160.334 76.6309 160.302 76.3848C160.274 76.1341 160.261 75.8971 160.261 75.6738ZM160.452 72.6934L160.466 73.3223H158.859C158.44 73.3223 158.064 73.361 157.731 73.4385C157.403 73.5114 157.125 73.6208 156.897 73.7666C156.67 73.9079 156.494 74.0788 156.371 74.2793C156.253 74.4798 156.193 74.7077 156.193 74.9629C156.193 75.2272 156.259 75.4688 156.392 75.6875C156.528 75.9062 156.72 76.0817 156.966 76.2139C157.216 76.3415 157.513 76.4053 157.854 76.4053C158.31 76.4053 158.711 76.321 159.058 76.1523C159.409 75.9837 159.698 75.7627 159.926 75.4893C160.154 75.2158 160.306 74.9173 160.384 74.5938L160.739 75.0654C160.68 75.2933 160.571 75.528 160.411 75.7695C160.256 76.0065 160.053 76.2298 159.803 76.4395C159.552 76.6445 159.256 76.8132 158.914 76.9453C158.577 77.0729 158.194 77.1367 157.766 77.1367C157.283 77.1367 156.861 77.0456 156.501 76.8633C156.146 76.681 155.868 76.4326 155.667 76.1182C155.471 75.7992 155.373 75.4391 155.373 75.0381C155.373 74.6735 155.451 74.3477 155.605 74.0605C155.76 73.7689 155.984 73.5228 156.275 73.3223C156.572 73.1172 156.927 72.9622 157.342 72.8574C157.761 72.748 158.23 72.6934 158.75 72.6934H160.452ZM167.698 75.1133C167.698 74.9128 167.648 74.7145 167.548 74.5186C167.448 74.3226 167.254 74.1426 166.967 73.9785C166.684 73.8145 166.267 73.6755 165.716 73.5615C165.306 73.4704 164.939 73.3678 164.615 73.2539C164.296 73.14 164.027 73.0033 163.809 72.8438C163.59 72.6842 163.424 72.4928 163.31 72.2695C163.196 72.0462 163.139 71.7819 163.139 71.4766C163.139 71.2031 163.198 70.9456 163.316 70.7041C163.439 70.458 163.613 70.2438 163.836 70.0615C164.064 69.8747 164.337 69.7288 164.656 69.624C164.98 69.5192 165.342 69.4668 165.743 69.4668C166.313 69.4668 166.8 69.5648 167.206 69.7607C167.616 69.9521 167.928 70.2142 168.143 70.5469C168.361 70.8796 168.471 71.2555 168.471 71.6748H167.657C167.657 71.4196 167.582 71.1781 167.432 70.9502C167.286 70.7223 167.069 70.5355 166.782 70.3896C166.5 70.2438 166.153 70.1709 165.743 70.1709C165.319 70.1709 164.975 70.2347 164.711 70.3623C164.447 70.4899 164.253 70.6517 164.13 70.8477C164.011 71.0436 163.952 71.2464 163.952 71.4561C163.952 71.6201 163.977 71.7705 164.027 71.9072C164.082 72.0394 164.178 72.1624 164.314 72.2764C164.456 72.3903 164.656 72.4974 164.916 72.5977C165.176 72.6979 165.513 72.7959 165.928 72.8916C166.525 73.0238 167.012 73.1855 167.391 73.377C167.773 73.5638 168.056 73.7962 168.238 74.0742C168.421 74.3477 168.512 74.6803 168.512 75.0723C168.512 75.3776 168.448 75.6579 168.32 75.9131C168.193 76.1637 168.008 76.3802 167.767 76.5625C167.53 76.7448 167.243 76.8861 166.905 76.9863C166.573 77.0866 166.199 77.1367 165.784 77.1367C165.16 77.1367 164.631 77.0342 164.198 76.8291C163.77 76.6195 163.444 76.346 163.221 76.0088C163.002 75.667 162.893 75.3047 162.893 74.9219H163.706C163.733 75.3047 163.854 75.6077 164.068 75.8311C164.283 76.0498 164.545 76.2048 164.854 76.2959C165.169 76.387 165.479 76.4326 165.784 76.4326C166.203 76.4326 166.554 76.3711 166.837 76.248C167.119 76.125 167.334 75.9632 167.479 75.7627C167.625 75.5622 167.698 75.3457 167.698 75.1133ZM169.913 73.418V73.1924C169.913 72.6546 169.991 72.1579 170.146 71.7021C170.3 71.2464 170.521 70.8522 170.809 70.5195C171.1 70.1868 171.449 69.9294 171.854 69.7471C172.26 69.5602 172.711 69.4668 173.208 69.4668C173.709 69.4668 174.163 69.5602 174.568 69.7471C174.974 69.9294 175.323 70.1868 175.614 70.5195C175.906 70.8522 176.129 71.2464 176.284 71.7021C176.439 72.1579 176.517 72.6546 176.517 73.1924V73.418C176.517 73.9557 176.439 74.4525 176.284 74.9082C176.129 75.3594 175.906 75.7513 175.614 76.084C175.327 76.4167 174.981 76.6764 174.575 76.8633C174.17 77.0456 173.718 77.1367 173.222 77.1367C172.72 77.1367 172.267 77.0456 171.861 76.8633C171.456 76.6764 171.107 76.4167 170.815 76.084C170.524 75.7513 170.3 75.3594 170.146 74.9082C169.991 74.4525 169.913 73.9557 169.913 73.418ZM170.727 73.1924V73.418C170.727 73.8236 170.781 74.2087 170.891 74.5732C171 74.9333 171.16 75.2546 171.369 75.5371C171.579 75.8151 171.839 76.0339 172.148 76.1934C172.458 76.3529 172.816 76.4326 173.222 76.4326C173.623 76.4326 173.976 76.3529 174.281 76.1934C174.591 76.0339 174.851 75.8151 175.061 75.5371C175.27 75.2546 175.427 74.9333 175.532 74.5732C175.642 74.2087 175.696 73.8236 175.696 73.418V73.1924C175.696 72.7913 175.642 72.4108 175.532 72.0508C175.427 71.6908 175.268 71.3695 175.054 71.0869C174.844 70.8044 174.584 70.5811 174.274 70.417C173.965 70.2529 173.609 70.1709 173.208 70.1709C172.807 70.1709 172.451 70.2529 172.142 70.417C171.836 70.5811 171.576 70.8044 171.362 71.0869C171.153 71.3695 170.993 71.6908 170.884 72.0508C170.779 72.4108 170.727 72.7913 170.727 73.1924ZM179.121 69.6035V77H178.308V69.6035H179.121ZM178.164 67.4639C178.164 67.3089 178.212 67.179 178.308 67.0742C178.408 66.9648 178.545 66.9102 178.718 66.9102C178.891 66.9102 179.028 66.9648 179.128 67.0742C179.233 67.179 179.285 67.3089 179.285 67.4639C179.285 67.6143 179.233 67.7441 179.128 67.8535C179.028 67.9583 178.891 68.0107 178.718 68.0107C178.545 68.0107 178.408 67.9583 178.308 67.8535C178.212 67.7441 178.164 67.6143 178.164 67.4639ZM181.678 69.6035L183.674 72.5908L185.677 69.6035H186.647L184.139 73.2266L186.75 77H185.793L183.681 73.876L181.575 77H180.618L183.229 73.2266L180.721 69.6035H181.678ZM188.992 71.1826V77H188.179V69.6035H188.958L188.992 71.1826ZM188.808 72.8438L188.445 72.6387C188.473 72.2012 188.562 71.791 188.712 71.4082C188.862 71.0254 189.065 70.6882 189.32 70.3965C189.58 70.1048 189.883 69.877 190.229 69.7129C190.58 69.5488 190.968 69.4668 191.392 69.4668C191.761 69.4668 192.091 69.5169 192.383 69.6172C192.674 69.7174 192.923 69.877 193.128 70.0957C193.333 70.3145 193.488 70.5947 193.593 70.9365C193.702 71.2783 193.757 71.6953 193.757 72.1875V77H192.937V72.1807C192.937 71.6702 192.866 71.2715 192.725 70.9844C192.583 70.6927 192.383 70.4854 192.123 70.3623C191.863 70.2393 191.556 70.1777 191.2 70.1777C190.808 70.1777 190.464 70.2643 190.168 70.4375C189.876 70.6061 189.63 70.8271 189.43 71.1006C189.234 71.3695 189.083 71.6589 188.979 71.9688C188.874 72.2741 188.817 72.5658 188.808 72.8438ZM200.374 75.6738V71.8594C200.374 71.5085 200.301 71.2054 200.155 70.9502C200.009 70.695 199.795 70.499 199.513 70.3623C199.23 70.2256 198.882 70.1572 198.467 70.1572C198.084 70.1572 197.742 70.2256 197.441 70.3623C197.145 70.4945 196.91 70.6745 196.737 70.9023C196.569 71.1257 196.484 71.374 196.484 71.6475L195.664 71.6406C195.664 71.3626 195.732 71.0938 195.869 70.834C196.006 70.5742 196.2 70.3418 196.45 70.1367C196.701 69.9316 196.999 69.7699 197.346 69.6514C197.697 69.5283 198.082 69.4668 198.501 69.4668C199.03 69.4668 199.494 69.5557 199.896 69.7334C200.301 69.9111 200.618 70.1777 200.846 70.5332C201.074 70.8887 201.188 71.3353 201.188 71.873V75.4482C201.188 75.7035 201.206 75.9678 201.242 76.2412C201.283 76.5146 201.34 76.7402 201.413 76.918V77H200.545C200.49 76.8359 200.447 76.6309 200.415 76.3848C200.388 76.1341 200.374 75.8971 200.374 75.6738ZM200.565 72.6934L200.579 73.3223H198.973C198.553 73.3223 198.177 73.361 197.845 73.4385C197.517 73.5114 197.239 73.6208 197.011 73.7666C196.783 73.9079 196.607 74.0788 196.484 74.2793C196.366 74.4798 196.307 74.7077 196.307 74.9629C196.307 75.2272 196.373 75.4688 196.505 75.6875C196.642 75.9062 196.833 76.0817 197.079 76.2139C197.33 76.3415 197.626 76.4053 197.968 76.4053C198.424 76.4053 198.825 76.321 199.171 76.1523C199.522 75.9837 199.811 75.7627 200.039 75.4893C200.267 75.2158 200.42 74.9173 200.497 74.5938L200.853 75.0654C200.793 75.2933 200.684 75.528 200.524 75.7695C200.369 76.0065 200.167 76.2298 199.916 76.4395C199.665 76.6445 199.369 76.8132 199.027 76.9453C198.69 77.0729 198.307 77.1367 197.879 77.1367C197.396 77.1367 196.974 77.0456 196.614 76.8633C196.259 76.681 195.981 76.4326 195.78 76.1182C195.584 75.7992 195.486 75.4391 195.486 75.0381C195.486 74.6735 195.564 74.3477 195.719 74.0605C195.874 73.7689 196.097 73.5228 196.389 73.3223C196.685 73.1172 197.04 72.9622 197.455 72.8574C197.874 72.748 198.344 72.6934 198.863 72.6934H200.565ZM202.931 73.418V73.1924C202.931 72.6546 203.008 72.1579 203.163 71.7021C203.318 71.2464 203.539 70.8522 203.826 70.5195C204.118 70.1868 204.466 69.9294 204.872 69.7471C205.278 69.5602 205.729 69.4668 206.226 69.4668C206.727 69.4668 207.18 69.5602 207.586 69.7471C207.992 69.9294 208.34 70.1868 208.632 70.5195C208.924 70.8522 209.147 71.2464 209.302 71.7021C209.457 72.1579 209.534 72.6546 209.534 73.1924V73.418C209.534 73.9557 209.457 74.4525 209.302 74.9082C209.147 75.3594 208.924 75.7513 208.632 76.084C208.345 76.4167 207.998 76.6764 207.593 76.8633C207.187 77.0456 206.736 77.1367 206.239 77.1367C205.738 77.1367 205.285 77.0456 204.879 76.8633C204.473 76.6764 204.125 76.4167 203.833 76.084C203.541 75.7513 203.318 75.3594 203.163 74.9082C203.008 74.4525 202.931 73.9557 202.931 73.418ZM203.744 73.1924V73.418C203.744 73.8236 203.799 74.2087 203.908 74.5732C204.018 74.9333 204.177 75.2546 204.387 75.5371C204.596 75.8151 204.856 76.0339 205.166 76.1934C205.476 76.3529 205.834 76.4326 206.239 76.4326C206.64 76.4326 206.993 76.3529 207.299 76.1934C207.609 76.0339 207.868 75.8151 208.078 75.5371C208.288 75.2546 208.445 74.9333 208.55 74.5732C208.659 74.2087 208.714 73.8236 208.714 73.418V73.1924C208.714 72.7913 208.659 72.4108 208.55 72.0508C208.445 71.6908 208.285 71.3695 208.071 71.0869C207.862 70.8044 207.602 70.5811 207.292 70.417C206.982 70.2529 206.627 70.1709 206.226 70.1709C205.825 70.1709 205.469 70.2529 205.159 70.417C204.854 70.5811 204.594 70.8044 204.38 71.0869C204.17 71.3695 204.011 71.6908 203.901 72.0508C203.797 72.4108 203.744 72.7913 203.744 73.1924ZM212.139 69.6035V77H211.325V69.6035H212.139ZM211.182 67.4639C211.182 67.3089 211.229 67.179 211.325 67.0742C211.425 66.9648 211.562 66.9102 211.735 66.9102C211.909 66.9102 212.045 66.9648 212.146 67.0742C212.25 67.179 212.303 67.3089 212.303 67.4639C212.303 67.6143 212.25 67.7441 212.146 67.8535C212.045 67.9583 211.909 68.0107 211.735 68.0107C211.562 68.0107 211.425 67.9583 211.325 67.8535C211.229 67.7441 211.182 67.6143 211.182 67.4639ZM218.804 75.1133C218.804 74.9128 218.754 74.7145 218.653 74.5186C218.553 74.3226 218.359 74.1426 218.072 73.9785C217.79 73.8145 217.373 73.6755 216.821 73.5615C216.411 73.4704 216.044 73.3678 215.721 73.2539C215.402 73.14 215.133 73.0033 214.914 72.8438C214.695 72.6842 214.529 72.4928 214.415 72.2695C214.301 72.0462 214.244 71.7819 214.244 71.4766C214.244 71.2031 214.303 70.9456 214.422 70.7041C214.545 70.458 214.718 70.2438 214.941 70.0615C215.169 69.8747 215.443 69.7288 215.762 69.624C216.085 69.5192 216.448 69.4668 216.849 69.4668C217.418 69.4668 217.906 69.5648 218.312 69.7607C218.722 69.9521 219.034 70.2142 219.248 70.5469C219.467 70.8796 219.576 71.2555 219.576 71.6748H218.763C218.763 71.4196 218.688 71.1781 218.537 70.9502C218.391 70.7223 218.175 70.5355 217.888 70.3896C217.605 70.2438 217.259 70.1709 216.849 70.1709C216.425 70.1709 216.081 70.2347 215.816 70.3623C215.552 70.4899 215.358 70.6517 215.235 70.8477C215.117 71.0436 215.058 71.2464 215.058 71.4561C215.058 71.6201 215.083 71.7705 215.133 71.9072C215.188 72.0394 215.283 72.1624 215.42 72.2764C215.561 72.3903 215.762 72.4974 216.021 72.5977C216.281 72.6979 216.618 72.7959 217.033 72.8916C217.63 73.0238 218.118 73.1855 218.496 73.377C218.879 73.5638 219.161 73.7962 219.344 74.0742C219.526 74.3477 219.617 74.6803 219.617 75.0723C219.617 75.3776 219.553 75.6579 219.426 75.9131C219.298 76.1637 219.114 76.3802 218.872 76.5625C218.635 76.7448 218.348 76.8861 218.011 76.9863C217.678 77.0866 217.304 77.1367 216.89 77.1367C216.265 77.1367 215.737 77.0342 215.304 76.8291C214.875 76.6195 214.549 76.346 214.326 76.0088C214.107 75.667 213.998 75.3047 213.998 74.9219H214.812C214.839 75.3047 214.96 75.6077 215.174 75.8311C215.388 76.0498 215.65 76.2048 215.96 76.2959C216.274 76.387 216.584 76.4326 216.89 76.4326C217.309 76.4326 217.66 76.3711 217.942 76.248C218.225 76.125 218.439 75.9632 218.585 75.7627C218.731 75.5622 218.804 75.3457 218.804 75.1133ZM222.283 71.1826V77H221.47V69.6035H222.249L222.283 71.1826ZM222.099 72.8438L221.736 72.6387C221.764 72.2012 221.853 71.791 222.003 71.4082C222.153 71.0254 222.356 70.6882 222.611 70.3965C222.871 70.1048 223.174 69.877 223.521 69.7129C223.871 69.5488 224.259 69.4668 224.683 69.4668C225.052 69.4668 225.382 69.5169 225.674 69.6172C225.965 69.7174 226.214 69.877 226.419 70.0957C226.624 70.3145 226.779 70.5947 226.884 70.9365C226.993 71.2783 227.048 71.6953 227.048 72.1875V77H226.228V72.1807C226.228 71.6702 226.157 71.2715 226.016 70.9844C225.874 70.6927 225.674 70.4854 225.414 70.3623C225.154 70.2393 224.847 70.1777 224.491 70.1777C224.099 70.1777 223.755 70.2643 223.459 70.4375C223.167 70.6061 222.921 70.8271 222.721 71.1006C222.525 71.3695 222.374 71.6589 222.27 71.9688C222.165 72.2741 222.108 72.5658 222.099 72.8438ZM229.488 69.6035L231.484 72.5908L233.487 69.6035H234.458L231.949 73.2266L234.561 77H233.604L231.491 73.876L229.386 77H228.429L231.04 73.2266L228.531 69.6035H229.488ZM235.401 73.418V73.1924C235.401 72.6546 235.479 72.1579 235.634 71.7021C235.789 71.2464 236.01 70.8522 236.297 70.5195C236.589 70.1868 236.937 69.9294 237.343 69.7471C237.748 69.5602 238.2 69.4668 238.696 69.4668C239.198 69.4668 239.651 69.5602 240.057 69.7471C240.462 69.9294 240.811 70.1868 241.103 70.5195C241.394 70.8522 241.618 71.2464 241.772 71.7021C241.927 72.1579 242.005 72.6546 242.005 73.1924V73.418C242.005 73.9557 241.927 74.4525 241.772 74.9082C241.618 75.3594 241.394 75.7513 241.103 76.084C240.815 76.4167 240.469 76.6764 240.063 76.8633C239.658 77.0456 239.207 77.1367 238.71 77.1367C238.209 77.1367 237.755 77.0456 237.35 76.8633C236.944 76.6764 236.595 76.4167 236.304 76.084C236.012 75.7513 235.789 75.3594 235.634 74.9082C235.479 74.4525 235.401 73.9557 235.401 73.418ZM236.215 73.1924V73.418C236.215 73.8236 236.27 74.2087 236.379 74.5732C236.488 74.9333 236.648 75.2546 236.857 75.5371C237.067 75.8151 237.327 76.0339 237.637 76.1934C237.947 76.3529 238.304 76.4326 238.71 76.4326C239.111 76.4326 239.464 76.3529 239.77 76.1934C240.079 76.0339 240.339 75.8151 240.549 75.5371C240.758 75.2546 240.916 74.9333 241.021 74.5732C241.13 74.2087 241.185 73.8236 241.185 73.418V73.1924C241.185 72.7913 241.13 72.4108 241.021 72.0508C240.916 71.6908 240.756 71.3695 240.542 71.0869C240.332 70.8044 240.073 70.5811 239.763 70.417C239.453 70.2529 239.097 70.1709 238.696 70.1709C238.295 70.1709 237.94 70.2529 237.63 70.417C237.325 70.5811 237.065 70.8044 236.851 71.0869C236.641 71.3695 236.481 71.6908 236.372 72.0508C236.267 72.4108 236.215 72.7913 236.215 73.1924ZM244.609 69.6035V77H243.796V69.6035H244.609ZM243.652 67.4639C243.652 67.3089 243.7 67.179 243.796 67.0742C243.896 66.9648 244.033 66.9102 244.206 66.9102C244.379 66.9102 244.516 66.9648 244.616 67.0742C244.721 67.179 244.773 67.3089 244.773 67.4639C244.773 67.6143 244.721 67.7441 244.616 67.8535C244.516 67.9583 244.379 68.0107 244.206 68.0107C244.033 68.0107 243.896 67.9583 243.796 67.8535C243.7 67.7441 243.652 67.6143 243.652 67.4639ZM251.343 75.6738V71.8594C251.343 71.5085 251.27 71.2054 251.124 70.9502C250.978 70.695 250.764 70.499 250.481 70.3623C250.199 70.2256 249.85 70.1572 249.436 70.1572C249.053 70.1572 248.711 70.2256 248.41 70.3623C248.114 70.4945 247.879 70.6745 247.706 70.9023C247.537 71.1257 247.453 71.374 247.453 71.6475L246.633 71.6406C246.633 71.3626 246.701 71.0938 246.838 70.834C246.975 70.5742 247.168 70.3418 247.419 70.1367C247.67 69.9316 247.968 69.7699 248.314 69.6514C248.665 69.5283 249.05 69.4668 249.47 69.4668C249.998 69.4668 250.463 69.5557 250.864 69.7334C251.27 69.9111 251.587 70.1777 251.814 70.5332C252.042 70.8887 252.156 71.3353 252.156 71.873V75.4482C252.156 75.7035 252.174 75.9678 252.211 76.2412C252.252 76.5146 252.309 76.7402 252.382 76.918V77H251.514C251.459 76.8359 251.416 76.6309 251.384 76.3848C251.356 76.1341 251.343 75.8971 251.343 75.6738ZM251.534 72.6934L251.548 73.3223H249.941C249.522 73.3223 249.146 73.361 248.813 73.4385C248.485 73.5114 248.207 73.6208 247.979 73.7666C247.752 73.9079 247.576 74.0788 247.453 74.2793C247.335 74.4798 247.275 74.7077 247.275 74.9629C247.275 75.2272 247.341 75.4688 247.474 75.6875C247.61 75.9062 247.802 76.0817 248.048 76.2139C248.299 76.3415 248.595 76.4053 248.937 76.4053C249.392 76.4053 249.793 76.321 250.14 76.1523C250.491 75.9837 250.78 75.7627 251.008 75.4893C251.236 75.2158 251.388 74.9173 251.466 74.5938L251.821 75.0654C251.762 75.2933 251.653 75.528 251.493 75.7695C251.338 76.0065 251.135 76.2298 250.885 76.4395C250.634 76.6445 250.338 76.8132 249.996 76.9453C249.659 77.0729 249.276 77.1367 248.848 77.1367C248.365 77.1367 247.943 77.0456 247.583 76.8633C247.228 76.681 246.95 76.4326 246.749 76.1182C246.553 75.7992 246.455 75.4391 246.455 75.0381C246.455 74.6735 246.533 74.3477 246.688 74.0605C246.842 73.7689 247.066 73.5228 247.357 73.3223C247.654 73.1172 248.009 72.9622 248.424 72.8574C248.843 72.748 249.312 72.6934 249.832 72.6934H251.534ZM255.164 71.1826V77H254.351V69.6035H255.13L255.164 71.1826ZM254.979 72.8438L254.617 72.6387C254.645 72.2012 254.733 71.791 254.884 71.4082C255.034 71.0254 255.237 70.6882 255.492 70.3965C255.752 70.1048 256.055 69.877 256.401 69.7129C256.752 69.5488 257.14 69.4668 257.563 69.4668C257.933 69.4668 258.263 69.5169 258.555 69.6172C258.846 69.7174 259.095 69.877 259.3 70.0957C259.505 70.3145 259.66 70.5947 259.765 70.9365C259.874 71.2783 259.929 71.6953 259.929 72.1875V77H259.108V72.1807C259.108 71.6702 259.038 71.2715 258.896 70.9844C258.755 70.6927 258.555 70.4854 258.295 70.3623C258.035 70.2393 257.728 70.1777 257.372 70.1777C256.98 70.1777 256.636 70.2643 256.34 70.4375C256.048 70.6061 255.802 70.8271 255.602 71.1006C255.406 71.3695 255.255 71.6589 255.15 71.9688C255.046 72.2741 254.989 72.5658 254.979 72.8438ZM262.369 69.6035L264.365 72.5908L266.368 69.6035H267.339L264.83 73.2266L267.441 77H266.484L264.372 73.876L262.267 77H261.31L263.921 73.2266L261.412 69.6035H262.369ZM268.282 73.418V73.1924C268.282 72.6546 268.36 72.1579 268.515 71.7021C268.67 71.2464 268.891 70.8522 269.178 70.5195C269.469 70.1868 269.818 69.9294 270.224 69.7471C270.629 69.5602 271.08 69.4668 271.577 69.4668C272.078 69.4668 272.532 69.5602 272.938 69.7471C273.343 69.9294 273.692 70.1868 273.983 70.5195C274.275 70.8522 274.498 71.2464 274.653 71.7021C274.808 72.1579 274.886 72.6546 274.886 73.1924V73.418C274.886 73.9557 274.808 74.4525 274.653 74.9082C274.498 75.3594 274.275 75.7513 273.983 76.084C273.696 76.4167 273.35 76.6764 272.944 76.8633C272.539 77.0456 272.088 77.1367 271.591 77.1367C271.09 77.1367 270.636 77.0456 270.23 76.8633C269.825 76.6764 269.476 76.4167 269.185 76.084C268.893 75.7513 268.67 75.3594 268.515 74.9082C268.36 74.4525 268.282 73.9557 268.282 73.418ZM269.096 73.1924V73.418C269.096 73.8236 269.15 74.2087 269.26 74.5732C269.369 74.9333 269.529 75.2546 269.738 75.5371C269.948 75.8151 270.208 76.0339 270.518 76.1934C270.827 76.3529 271.185 76.4326 271.591 76.4326C271.992 76.4326 272.345 76.3529 272.65 76.1934C272.96 76.0339 273.22 75.8151 273.43 75.5371C273.639 75.2546 273.797 74.9333 273.901 74.5732C274.011 74.2087 274.065 73.8236 274.065 73.418V73.1924C274.065 72.7913 274.011 72.4108 273.901 72.0508C273.797 71.6908 273.637 71.3695 273.423 71.0869C273.213 70.8044 272.953 70.5811 272.644 70.417C272.334 70.2529 271.978 70.1709 271.577 70.1709C271.176 70.1709 270.821 70.2529 270.511 70.417C270.205 70.5811 269.946 70.8044 269.731 71.0869C269.522 71.3695 269.362 71.6908 269.253 72.0508C269.148 72.4108 269.096 72.7913 269.096 73.1924ZM277.49 69.6035V77H276.677V69.6035H277.49ZM276.533 67.4639C276.533 67.3089 276.581 67.179 276.677 67.0742C276.777 66.9648 276.914 66.9102 277.087 66.9102C277.26 66.9102 277.397 66.9648 277.497 67.0742C277.602 67.179 277.654 67.3089 277.654 67.4639C277.654 67.6143 277.602 67.7441 277.497 67.8535C277.397 67.9583 277.26 68.0107 277.087 68.0107C276.914 68.0107 276.777 67.9583 276.677 67.8535C276.581 67.7441 276.533 67.6143 276.533 67.4639ZM284.224 75.6738V71.8594C284.224 71.5085 284.151 71.2054 284.005 70.9502C283.859 70.695 283.645 70.499 283.362 70.3623C283.08 70.2256 282.731 70.1572 282.316 70.1572C281.934 70.1572 281.592 70.2256 281.291 70.3623C280.995 70.4945 280.76 70.6745 280.587 70.9023C280.418 71.1257 280.334 71.374 280.334 71.6475L279.514 71.6406C279.514 71.3626 279.582 71.0938 279.719 70.834C279.855 70.5742 280.049 70.3418 280.3 70.1367C280.55 69.9316 280.849 69.7699 281.195 69.6514C281.546 69.5283 281.931 69.4668 282.351 69.4668C282.879 69.4668 283.344 69.5557 283.745 69.7334C284.151 69.9111 284.467 70.1777 284.695 70.5332C284.923 70.8887 285.037 71.3353 285.037 71.873V75.4482C285.037 75.7035 285.055 75.9678 285.092 76.2412C285.133 76.5146 285.19 76.7402 285.263 76.918V77H284.395C284.34 76.8359 284.297 76.6309 284.265 76.3848C284.237 76.1341 284.224 75.8971 284.224 75.6738ZM284.415 72.6934L284.429 73.3223H282.822C282.403 73.3223 282.027 73.361 281.694 73.4385C281.366 73.5114 281.088 73.6208 280.86 73.7666C280.632 73.9079 280.457 74.0788 280.334 74.2793C280.215 74.4798 280.156 74.7077 280.156 74.9629C280.156 75.2272 280.222 75.4688 280.354 75.6875C280.491 75.9062 280.683 76.0817 280.929 76.2139C281.179 76.3415 281.476 76.4053 281.817 76.4053C282.273 76.4053 282.674 76.321 283.021 76.1523C283.371 75.9837 283.661 75.7627 283.889 75.4893C284.117 75.2158 284.269 74.9173 284.347 74.5938L284.702 75.0654C284.643 75.2933 284.534 75.528 284.374 75.7695C284.219 76.0065 284.016 76.2298 283.766 76.4395C283.515 76.6445 283.219 76.8132 282.877 76.9453C282.54 77.0729 282.157 77.1367 281.729 77.1367C281.245 77.1367 280.824 77.0456 280.464 76.8633C280.108 76.681 279.83 76.4326 279.63 76.1182C279.434 75.7992 279.336 75.4391 279.336 75.0381C279.336 74.6735 279.413 74.3477 279.568 74.0605C279.723 73.7689 279.947 73.5228 280.238 73.3223C280.535 73.1172 280.89 72.9622 281.305 72.8574C281.724 72.748 282.193 72.6934 282.713 72.6934H284.415ZM291.661 75.1133C291.661 74.9128 291.611 74.7145 291.511 74.5186C291.41 74.3226 291.217 74.1426 290.93 73.9785C290.647 73.8145 290.23 73.6755 289.679 73.5615C289.269 73.4704 288.902 73.3678 288.578 73.2539C288.259 73.14 287.99 73.0033 287.771 72.8438C287.553 72.6842 287.386 72.4928 287.272 72.2695C287.159 72.0462 287.102 71.7819 287.102 71.4766C287.102 71.2031 287.161 70.9456 287.279 70.7041C287.402 70.458 287.576 70.2438 287.799 70.0615C288.027 69.8747 288.3 69.7288 288.619 69.624C288.943 69.5192 289.305 69.4668 289.706 69.4668C290.276 69.4668 290.763 69.5648 291.169 69.7607C291.579 69.9521 291.891 70.2142 292.105 70.5469C292.324 70.8796 292.434 71.2555 292.434 71.6748H291.62C291.62 71.4196 291.545 71.1781 291.395 70.9502C291.249 70.7223 291.032 70.5355 290.745 70.3896C290.463 70.2438 290.116 70.1709 289.706 70.1709C289.282 70.1709 288.938 70.2347 288.674 70.3623C288.41 70.4899 288.216 70.6517 288.093 70.8477C287.974 71.0436 287.915 71.2464 287.915 71.4561C287.915 71.6201 287.94 71.7705 287.99 71.9072C288.045 72.0394 288.141 72.1624 288.277 72.2764C288.419 72.3903 288.619 72.4974 288.879 72.5977C289.139 72.6979 289.476 72.7959 289.891 72.8916C290.488 73.0238 290.975 73.1855 291.354 73.377C291.736 73.5638 292.019 73.7962 292.201 74.0742C292.383 74.3477 292.475 74.6803 292.475 75.0723C292.475 75.3776 292.411 75.6579 292.283 75.9131C292.156 76.1637 291.971 76.3802 291.729 76.5625C291.493 76.7448 291.205 76.8861 290.868 76.9863C290.535 77.0866 290.162 77.1367 289.747 77.1367C289.123 77.1367 288.594 77.0342 288.161 76.8291C287.733 76.6195 287.407 76.346 287.184 76.0088C286.965 75.667 286.855 75.3047 286.855 74.9219H287.669C287.696 75.3047 287.817 75.6077 288.031 75.8311C288.245 76.0498 288.507 76.2048 288.817 76.2959C289.132 76.387 289.442 76.4326 289.747 76.4326C290.166 76.4326 290.517 76.3711 290.8 76.248C291.082 76.125 291.297 75.9632 291.442 75.7627C291.588 75.5622 291.661 75.3457 291.661 75.1133ZM295.141 71.1826V77H294.327V69.6035H295.106L295.141 71.1826ZM294.956 72.8438L294.594 72.6387C294.621 72.2012 294.71 71.791 294.86 71.4082C295.011 71.0254 295.214 70.6882 295.469 70.3965C295.729 70.1048 296.032 69.877 296.378 69.7129C296.729 69.5488 297.116 69.4668 297.54 69.4668C297.909 69.4668 298.24 69.5169 298.531 69.6172C298.823 69.7174 299.071 69.877 299.276 70.0957C299.481 70.3145 299.636 70.5947 299.741 70.9365C299.851 71.2783 299.905 71.6953 299.905 72.1875V77H299.085V72.1807C299.085 71.6702 299.014 71.2715 298.873 70.9844C298.732 70.6927 298.531 70.4854 298.271 70.3623C298.012 70.2393 297.704 70.1777 297.349 70.1777C296.957 70.1777 296.613 70.2643 296.316 70.4375C296.025 70.6061 295.779 70.8271 295.578 71.1006C295.382 71.3695 295.232 71.6589 295.127 71.9688C295.022 72.2741 294.965 72.5658 294.956 72.8438ZM137.395 85.6035L139.391 88.5908L141.394 85.6035H142.364L139.855 89.2266L142.467 93H141.51L139.397 89.876L137.292 93H136.335L138.946 89.2266L136.438 85.6035H137.395ZM143.308 89.418V89.1924C143.308 88.6546 143.385 88.1579 143.54 87.7021C143.695 87.2464 143.916 86.8522 144.203 86.5195C144.495 86.1868 144.843 85.9294 145.249 85.7471C145.655 85.5602 146.106 85.4668 146.603 85.4668C147.104 85.4668 147.557 85.5602 147.963 85.7471C148.368 85.9294 148.717 86.1868 149.009 86.5195C149.3 86.8522 149.524 87.2464 149.679 87.7021C149.834 88.1579 149.911 88.6546 149.911 89.1924V89.418C149.911 89.9557 149.834 90.4525 149.679 90.9082C149.524 91.3594 149.3 91.7513 149.009 92.084C148.722 92.4167 148.375 92.6764 147.97 92.8633C147.564 93.0456 147.113 93.1367 146.616 93.1367C146.115 93.1367 145.661 93.0456 145.256 92.8633C144.85 92.6764 144.502 92.4167 144.21 92.084C143.918 91.7513 143.695 91.3594 143.54 90.9082C143.385 90.4525 143.308 89.9557 143.308 89.418ZM144.121 89.1924V89.418C144.121 89.8236 144.176 90.2087 144.285 90.5732C144.395 90.9333 144.554 91.2546 144.764 91.5371C144.973 91.8151 145.233 92.0339 145.543 92.1934C145.853 92.3529 146.211 92.4326 146.616 92.4326C147.017 92.4326 147.37 92.3529 147.676 92.1934C147.986 92.0339 148.245 91.8151 148.455 91.5371C148.665 91.2546 148.822 90.9333 148.927 90.5732C149.036 90.2087 149.091 89.8236 149.091 89.418V89.1924C149.091 88.7913 149.036 88.4108 148.927 88.0508C148.822 87.6908 148.662 87.3695 148.448 87.0869C148.239 86.8044 147.979 86.5811 147.669 86.417C147.359 86.2529 147.004 86.1709 146.603 86.1709C146.201 86.1709 145.846 86.2529 145.536 86.417C145.231 86.5811 144.971 86.8044 144.757 87.0869C144.547 87.3695 144.388 87.6908 144.278 88.0508C144.174 88.4108 144.121 88.7913 144.121 89.1924ZM152.516 85.6035V93H151.702V85.6035H152.516ZM151.559 83.4639C151.559 83.3089 151.606 83.179 151.702 83.0742C151.802 82.9648 151.939 82.9102 152.112 82.9102C152.285 82.9102 152.422 82.9648 152.522 83.0742C152.627 83.179 152.68 83.3089 152.68 83.4639C152.68 83.6143 152.627 83.7441 152.522 83.8535C152.422 83.9583 152.285 84.0107 152.112 84.0107C151.939 84.0107 151.802 83.9583 151.702 83.8535C151.606 83.7441 151.559 83.6143 151.559 83.4639ZM159.249 91.6738V87.8594C159.249 87.5085 159.176 87.2054 159.03 86.9502C158.884 86.695 158.67 86.499 158.388 86.3623C158.105 86.2256 157.757 86.1572 157.342 86.1572C156.959 86.1572 156.617 86.2256 156.316 86.3623C156.02 86.4945 155.785 86.6745 155.612 86.9023C155.444 87.1257 155.359 87.374 155.359 87.6475L154.539 87.6406C154.539 87.3626 154.607 87.0938 154.744 86.834C154.881 86.5742 155.075 86.3418 155.325 86.1367C155.576 85.9316 155.874 85.7699 156.221 85.6514C156.572 85.5283 156.957 85.4668 157.376 85.4668C157.905 85.4668 158.369 85.5557 158.771 85.7334C159.176 85.9111 159.493 86.1777 159.721 86.5332C159.949 86.8887 160.062 87.3353 160.062 87.873V91.4482C160.062 91.7035 160.081 91.9678 160.117 92.2412C160.158 92.5146 160.215 92.7402 160.288 92.918V93H159.42C159.365 92.8359 159.322 92.6309 159.29 92.3848C159.263 92.1341 159.249 91.8971 159.249 91.6738ZM159.44 88.6934L159.454 89.3223H157.848C157.428 89.3223 157.052 89.361 156.72 89.4385C156.392 89.5114 156.114 89.6208 155.886 89.7666C155.658 89.9079 155.482 90.0788 155.359 90.2793C155.241 90.4798 155.182 90.7077 155.182 90.9629C155.182 91.2272 155.248 91.4688 155.38 91.6875C155.517 91.9062 155.708 92.0817 155.954 92.2139C156.205 92.3415 156.501 92.4053 156.843 92.4053C157.299 92.4053 157.7 92.321 158.046 92.1523C158.397 91.9837 158.686 91.7627 158.914 91.4893C159.142 91.2158 159.295 90.9173 159.372 90.5938L159.728 91.0654C159.668 91.2933 159.559 91.528 159.399 91.7695C159.244 92.0065 159.042 92.2298 158.791 92.4395C158.54 92.6445 158.244 92.8132 157.902 92.9453C157.565 93.0729 157.182 93.1367 156.754 93.1367C156.271 93.1367 155.849 93.0456 155.489 92.8633C155.134 92.681 154.856 92.4326 154.655 92.1182C154.459 91.7992 154.361 91.4391 154.361 91.0381C154.361 90.6735 154.439 90.3477 154.594 90.0605C154.749 89.7689 154.972 89.5228 155.264 89.3223C155.56 89.1172 155.915 88.9622 156.33 88.8574C156.749 88.748 157.219 88.6934 157.738 88.6934H159.44ZM162.578 85.6035L164.574 88.5908L166.577 85.6035H167.548L165.039 89.2266L167.65 93H166.693L164.581 89.876L162.476 93H161.519L164.13 89.2266L161.621 85.6035H162.578ZM169.893 87.1826V93H169.079V85.6035H169.858L169.893 87.1826ZM169.708 88.8438L169.346 88.6387C169.373 88.2012 169.462 87.791 169.612 87.4082C169.763 87.0254 169.965 86.6882 170.221 86.3965C170.48 86.1048 170.784 85.877 171.13 85.7129C171.481 85.5488 171.868 85.4668 172.292 85.4668C172.661 85.4668 172.992 85.5169 173.283 85.6172C173.575 85.7174 173.823 85.877 174.028 86.0957C174.233 86.3145 174.388 86.5947 174.493 86.9365C174.603 87.2783 174.657 87.6953 174.657 88.1875V93H173.837V88.1807C173.837 87.6702 173.766 87.2715 173.625 86.9844C173.484 86.6927 173.283 86.4854 173.023 86.3623C172.764 86.2393 172.456 86.1777 172.101 86.1777C171.709 86.1777 171.365 86.2643 171.068 86.4375C170.777 86.6061 170.531 86.8271 170.33 87.1006C170.134 87.3695 169.984 87.6589 169.879 87.9688C169.774 88.2741 169.717 88.5658 169.708 88.8438ZM176.325 89.418V89.1924C176.325 88.6546 176.403 88.1579 176.558 87.7021C176.713 87.2464 176.934 86.8522 177.221 86.5195C177.512 86.1868 177.861 85.9294 178.267 85.7471C178.672 85.5602 179.123 85.4668 179.62 85.4668C180.121 85.4668 180.575 85.5602 180.98 85.7471C181.386 85.9294 181.735 86.1868 182.026 86.5195C182.318 86.8522 182.541 87.2464 182.696 87.7021C182.851 88.1579 182.929 88.6546 182.929 89.1924V89.418C182.929 89.9557 182.851 90.4525 182.696 90.9082C182.541 91.3594 182.318 91.7513 182.026 92.084C181.739 92.4167 181.393 92.6764 180.987 92.8633C180.582 93.0456 180.131 93.1367 179.634 93.1367C179.132 93.1367 178.679 93.0456 178.273 92.8633C177.868 92.6764 177.519 92.4167 177.228 92.084C176.936 91.7513 176.713 91.3594 176.558 90.9082C176.403 90.4525 176.325 89.9557 176.325 89.418ZM177.139 89.1924V89.418C177.139 89.8236 177.193 90.2087 177.303 90.5732C177.412 90.9333 177.572 91.2546 177.781 91.5371C177.991 91.8151 178.251 92.0339 178.561 92.1934C178.87 92.3529 179.228 92.4326 179.634 92.4326C180.035 92.4326 180.388 92.3529 180.693 92.1934C181.003 92.0339 181.263 91.8151 181.473 91.5371C181.682 91.2546 181.84 90.9333 181.944 90.5732C182.054 90.2087 182.108 89.8236 182.108 89.418V89.1924C182.108 88.7913 182.054 88.4108 181.944 88.0508C181.84 87.6908 181.68 87.3695 181.466 87.0869C181.256 86.8044 180.996 86.5811 180.687 86.417C180.377 86.2529 180.021 86.1709 179.62 86.1709C179.219 86.1709 178.864 86.2529 178.554 86.417C178.248 86.5811 177.989 86.8044 177.774 87.0869C177.565 87.3695 177.405 87.6908 177.296 88.0508C177.191 88.4108 177.139 88.7913 177.139 89.1924ZM185.533 85.6035V93H184.72V85.6035H185.533ZM184.576 83.4639C184.576 83.3089 184.624 83.179 184.72 83.0742C184.82 82.9648 184.957 82.9102 185.13 82.9102C185.303 82.9102 185.44 82.9648 185.54 83.0742C185.645 83.179 185.697 83.3089 185.697 83.4639C185.697 83.6143 185.645 83.7441 185.54 83.8535C185.44 83.9583 185.303 84.0107 185.13 84.0107C184.957 84.0107 184.82 83.9583 184.72 83.8535C184.624 83.7441 184.576 83.6143 184.576 83.4639ZM192.267 91.6738V87.8594C192.267 87.5085 192.194 87.2054 192.048 86.9502C191.902 86.695 191.688 86.499 191.405 86.3623C191.123 86.2256 190.774 86.1572 190.359 86.1572C189.977 86.1572 189.635 86.2256 189.334 86.3623C189.038 86.4945 188.803 86.6745 188.63 86.9023C188.461 87.1257 188.377 87.374 188.377 87.6475L187.557 87.6406C187.557 87.3626 187.625 87.0938 187.762 86.834C187.898 86.5742 188.092 86.3418 188.343 86.1367C188.593 85.9316 188.892 85.7699 189.238 85.6514C189.589 85.5283 189.974 85.4668 190.394 85.4668C190.922 85.4668 191.387 85.5557 191.788 85.7334C192.194 85.9111 192.51 86.1777 192.738 86.5332C192.966 86.8887 193.08 87.3353 193.08 87.873V91.4482C193.08 91.7035 193.098 91.9678 193.135 92.2412C193.176 92.5146 193.233 92.7402 193.306 92.918V93H192.438C192.383 92.8359 192.34 92.6309 192.308 92.3848C192.28 92.1341 192.267 91.8971 192.267 91.6738ZM192.458 88.6934L192.472 89.3223H190.865C190.446 89.3223 190.07 89.361 189.737 89.4385C189.409 89.5114 189.131 89.6208 188.903 89.7666C188.675 89.9079 188.5 90.0788 188.377 90.2793C188.258 90.4798 188.199 90.7077 188.199 90.9629C188.199 91.2272 188.265 91.4688 188.397 91.6875C188.534 91.9062 188.726 92.0817 188.972 92.2139C189.222 92.3415 189.519 92.4053 189.86 92.4053C190.316 92.4053 190.717 92.321 191.063 92.1523C191.414 91.9837 191.704 91.7627 191.932 91.4893C192.16 91.2158 192.312 90.9173 192.39 90.5938L192.745 91.0654C192.686 91.2933 192.576 91.528 192.417 91.7695C192.262 92.0065 192.059 92.2298 191.809 92.4395C191.558 92.6445 191.262 92.8132 190.92 92.9453C190.583 93.0729 190.2 93.1367 189.771 93.1367C189.288 93.1367 188.867 93.0456 188.507 92.8633C188.151 92.681 187.873 92.4326 187.673 92.1182C187.477 91.7992 187.379 91.4391 187.379 91.0381C187.379 90.6735 187.456 90.3477 187.611 90.0605C187.766 89.7689 187.99 89.5228 188.281 89.3223C188.577 89.1172 188.933 88.9622 189.348 88.8574C189.767 88.748 190.236 88.6934 190.756 88.6934H192.458ZM199.704 91.1133C199.704 90.9128 199.654 90.7145 199.554 90.5186C199.453 90.3226 199.26 90.1426 198.973 89.9785C198.69 89.8145 198.273 89.6755 197.722 89.5615C197.312 89.4704 196.945 89.3678 196.621 89.2539C196.302 89.14 196.033 89.0033 195.814 88.8438C195.596 88.6842 195.429 88.4928 195.315 88.2695C195.201 88.0462 195.145 87.7819 195.145 87.4766C195.145 87.2031 195.204 86.9456 195.322 86.7041C195.445 86.458 195.618 86.2438 195.842 86.0615C196.07 85.8747 196.343 85.7288 196.662 85.624C196.986 85.5192 197.348 85.4668 197.749 85.4668C198.319 85.4668 198.806 85.5648 199.212 85.7607C199.622 85.9521 199.934 86.2142 200.148 86.5469C200.367 86.8796 200.477 87.2555 200.477 87.6748H199.663C199.663 87.4196 199.588 87.1781 199.438 86.9502C199.292 86.7223 199.075 86.5355 198.788 86.3896C198.506 86.2438 198.159 86.1709 197.749 86.1709C197.325 86.1709 196.981 86.2347 196.717 86.3623C196.452 86.4899 196.259 86.6517 196.136 86.8477C196.017 87.0436 195.958 87.2464 195.958 87.4561C195.958 87.6201 195.983 87.7705 196.033 87.9072C196.088 88.0394 196.184 88.1624 196.32 88.2764C196.462 88.3903 196.662 88.4974 196.922 88.5977C197.182 88.6979 197.519 88.7959 197.934 88.8916C198.531 89.0238 199.018 89.1855 199.396 89.377C199.779 89.5638 200.062 89.7962 200.244 90.0742C200.426 90.3477 200.518 90.6803 200.518 91.0723C200.518 91.3776 200.454 91.6579 200.326 91.9131C200.199 92.1637 200.014 92.3802 199.772 92.5625C199.535 92.7448 199.248 92.8861 198.911 92.9863C198.578 93.0866 198.205 93.1367 197.79 93.1367C197.166 93.1367 196.637 93.0342 196.204 92.8291C195.776 92.6195 195.45 92.346 195.227 92.0088C195.008 91.667 194.898 91.3047 194.898 90.9219H195.712C195.739 91.3047 195.86 91.6077 196.074 91.8311C196.288 92.0498 196.55 92.2048 196.86 92.2959C197.175 92.387 197.485 92.4326 197.79 92.4326C198.209 92.4326 198.56 92.3711 198.843 92.248C199.125 92.125 199.34 91.9632 199.485 91.7627C199.631 91.5622 199.704 91.3457 199.704 91.1133ZM203.184 87.1826V93H202.37V85.6035H203.149L203.184 87.1826ZM202.999 88.8438L202.637 88.6387C202.664 88.2012 202.753 87.791 202.903 87.4082C203.054 87.0254 203.257 86.6882 203.512 86.3965C203.771 86.1048 204.075 85.877 204.421 85.7129C204.772 85.5488 205.159 85.4668 205.583 85.4668C205.952 85.4668 206.283 85.5169 206.574 85.6172C206.866 85.7174 207.114 85.877 207.319 86.0957C207.524 86.3145 207.679 86.5947 207.784 86.9365C207.894 87.2783 207.948 87.6953 207.948 88.1875V93H207.128V88.1807C207.128 87.6702 207.057 87.2715 206.916 86.9844C206.775 86.6927 206.574 86.4854 206.314 86.3623C206.055 86.2393 205.747 86.1777 205.392 86.1777C205 86.1777 204.656 86.2643 204.359 86.4375C204.068 86.6061 203.822 86.8271 203.621 87.1006C203.425 87.3695 203.275 87.6589 203.17 87.9688C203.065 88.2741 203.008 88.5658 202.999 88.8438ZM210.389 85.6035L212.385 88.5908L214.388 85.6035H215.358L212.85 89.2266L215.461 93H214.504L212.392 89.876L210.286 93H209.329L211.94 89.2266L209.432 85.6035H210.389ZM221.388 91.6738V87.8594C221.388 87.5085 221.315 87.2054 221.169 86.9502C221.023 86.695 220.809 86.499 220.526 86.3623C220.244 86.2256 219.895 86.1572 219.48 86.1572C219.098 86.1572 218.756 86.2256 218.455 86.3623C218.159 86.4945 217.924 86.6745 217.751 86.9023C217.582 87.1257 217.498 87.374 217.498 87.6475L216.678 87.6406C216.678 87.3626 216.746 87.0938 216.883 86.834C217.02 86.5742 217.213 86.3418 217.464 86.1367C217.715 85.9316 218.013 85.7699 218.359 85.6514C218.71 85.5283 219.095 85.4668 219.515 85.4668C220.043 85.4668 220.508 85.5557 220.909 85.7334C221.315 85.9111 221.632 86.1777 221.859 86.5332C222.087 86.8887 222.201 87.3353 222.201 87.873V91.4482C222.201 91.7035 222.219 91.9678 222.256 92.2412C222.297 92.5146 222.354 92.7402 222.427 92.918V93H221.559C221.504 92.8359 221.461 92.6309 221.429 92.3848C221.401 92.1341 221.388 91.8971 221.388 91.6738ZM221.579 88.6934L221.593 89.3223H219.986C219.567 89.3223 219.191 89.361 218.858 89.4385C218.53 89.5114 218.252 89.6208 218.024 89.7666C217.797 89.9079 217.621 90.0788 217.498 90.2793C217.38 90.4798 217.32 90.7077 217.32 90.9629C217.32 91.2272 217.386 91.4688 217.519 91.6875C217.655 91.9062 217.847 92.0817 218.093 92.2139C218.343 92.3415 218.64 92.4053 218.981 92.4053C219.437 92.4053 219.838 92.321 220.185 92.1523C220.535 91.9837 220.825 91.7627 221.053 91.4893C221.281 91.2158 221.433 90.9173 221.511 90.5938L221.866 91.0654C221.807 91.2933 221.698 91.528 221.538 91.7695C221.383 92.0065 221.18 92.2298 220.93 92.4395C220.679 92.6445 220.383 92.8132 220.041 92.9453C219.704 93.0729 219.321 93.1367 218.893 93.1367C218.41 93.1367 217.988 93.0456 217.628 92.8633C217.272 92.681 216.994 92.4326 216.794 92.1182C216.598 91.7992 216.5 91.4391 216.5 91.0381C216.5 90.6735 216.577 90.3477 216.732 90.0605C216.887 89.7689 217.111 89.5228 217.402 89.3223C217.699 89.1172 218.054 88.9622 218.469 88.8574C218.888 88.748 219.357 88.6934 219.877 88.6934H221.579Z" fill="white"/>
<path d="M75.144 41.7871L55.7708 67.3444C55.3457 67.9632 55.1743 68.7217 55.2922 69.4632C55.4101 70.2047 55.8082 70.8726 56.4043 71.329L66.8279 79.2295C67.432 79.6828 68.1882 79.8847 68.938 79.7929C69.6877 79.7012 70.3729 79.3229 70.8499 78.7373C70.905 78.668 70.9636 78.6016 71.0255 78.5384L90.0569 53.4289C90.0982 53.3561 90.1433 53.2855 90.1923 53.2176C90.6279 52.6006 90.8072 51.8387 90.6925 51.0922C90.5777 50.3456 90.1778 49.6727 89.5769 49.2151L79.1533 41.3147C78.5527 40.8623 77.8007 40.659 77.0539 40.747C76.3071 40.835 75.623 41.2075 75.144 41.7871ZM98.2055 55.7776C97.6263 55.3419 96.8998 55.15 96.181 55.2427C95.4623 55.3354 94.8083 55.7055 94.3587 56.2739C94.3228 56.3302 94.2875 56.3916 94.2549 56.4346L75.043 81.7822C75.0104 81.8252 74.9587 81.8786 74.9163 81.9255C74.4917 82.5121 74.3131 83.2413 74.4184 83.9577C74.5238 84.6741 74.9048 85.321 75.4804 85.7604L84.0112 92.2285C85.7305 93.526 87.8939 94.0895 90.0277 93.7957C92.1616 93.5019 94.0921 92.3746 95.3968 90.6607L108.306 73.6285C109.603 71.9094 110.166 69.7466 109.872 67.6134C109.579 65.4801 108.452 63.55 106.739 62.2453L98.2055 55.7776ZM50.1688 30.4287L38.0999 46.3639C37.6159 49.3459 37.9556 52.4035 39.0822 55.2066C40.2089 58.0097 42.0798 60.4518 44.4929 62.2693L47.775 64.7615C48.3533 65.2033 49.0829 65.3982 49.8045 65.3037C50.5261 65.2091 51.1809 64.8328 51.6258 64.2569L51.689 64.1557L70.9381 38.7619C70.9729 38.716 71.02 38.6659 71.0645 38.6161C71.4905 38.0295 71.6699 37.2996 71.5645 36.5824C71.459 35.8652 71.077 35.2177 70.5001 34.7787L67.213 32.2872C64.8098 30.4563 61.9527 29.3156 58.9493 28.9881C55.9459 28.6607 52.9101 29.1587 50.1688 30.4287ZM35.118 41.7418L44.9167 28.8167L38.3802 23.8466L28.5663 36.7918L35.118 41.7418Z" fill="white"/>
</svg>
