<svg width="346" height="120" viewBox="0 0 346 120" fill="none" xmlns="http://www.w3.org/2000/svg">
<rect x="0.25" y="0.25" width="345.5" height="119.5" rx="19.75" fill="white" stroke="#2A6D4C" stroke-width="0.5"/>
<path d="M138.574 37.8359V41H129.949V37.8359H138.574ZM131.414 23.9375V41H127.301V23.9375H131.414ZM139.629 34.7891V34.543C139.629 33.6133 139.762 32.7578 140.027 31.9766C140.293 31.1875 140.684 30.5039 141.199 29.9258C141.715 29.3477 142.352 28.8984 143.109 28.5781C143.867 28.25 144.742 28.0859 145.734 28.0859C146.734 28.0859 147.613 28.25 148.371 28.5781C149.137 28.8984 149.777 29.3477 150.293 29.9258C150.809 30.5039 151.199 31.1875 151.465 31.9766C151.73 32.7578 151.863 33.6133 151.863 34.543V34.7891C151.863 35.7109 151.73 36.5664 151.465 37.3555C151.199 38.1367 150.809 38.8203 150.293 39.4062C149.777 39.9844 149.141 40.4336 148.383 40.7539C147.625 41.0742 146.75 41.2344 145.758 41.2344C144.766 41.2344 143.887 41.0742 143.121 40.7539C142.355 40.4336 141.715 39.9844 141.199 39.4062C140.684 38.8203 140.293 38.1367 140.027 37.3555C139.762 36.5664 139.629 35.7109 139.629 34.7891ZM143.578 34.543V34.7891C143.578 35.2656 143.613 35.7109 143.684 36.125C143.754 36.5391 143.871 36.9023 144.035 37.2148C144.199 37.5195 144.422 37.7578 144.703 37.9297C144.984 38.1016 145.336 38.1875 145.758 38.1875C146.172 38.1875 146.516 38.1016 146.789 37.9297C147.07 37.7578 147.293 37.5195 147.457 37.2148C147.621 36.9023 147.738 36.5391 147.809 36.125C147.879 35.7109 147.914 35.2656 147.914 34.7891V34.543C147.914 34.082 147.879 33.6484 147.809 33.2422C147.738 32.8281 147.621 32.4648 147.457 32.1523C147.293 31.832 147.07 31.582 146.789 31.4023C146.508 31.2227 146.156 31.1328 145.734 31.1328C145.32 31.1328 144.973 31.2227 144.691 31.4023C144.418 31.582 144.199 31.832 144.035 32.1523C143.871 32.4648 143.754 32.8281 143.684 33.2422C143.613 33.6484 143.578 34.082 143.578 34.543ZM153.656 23H157.605V37.8828L157.195 41H153.656V23ZM165.387 34.5195V34.7656C165.387 35.7266 165.289 36.6016 165.094 37.3906C164.898 38.1797 164.598 38.8633 164.191 39.4414C163.785 40.0117 163.273 40.4531 162.656 40.7656C162.039 41.0781 161.309 41.2344 160.465 41.2344C159.699 41.2344 159.043 41.0703 158.496 40.7422C157.949 40.4062 157.492 39.9453 157.125 39.3594C156.758 38.7656 156.461 38.082 156.234 37.3086C156.008 36.5273 155.828 35.6914 155.695 34.8008V34.5078C155.828 33.625 156.008 32.7969 156.234 32.0234C156.461 31.2422 156.758 30.5586 157.125 29.9727C157.492 29.3789 157.945 28.918 158.484 28.5898C159.031 28.2539 159.684 28.0859 160.441 28.0859C161.293 28.0859 162.027 28.2461 162.645 28.5664C163.27 28.8867 163.785 29.3359 164.191 29.9141C164.598 30.4922 164.898 31.1719 165.094 31.9531C165.289 32.7344 165.387 33.5898 165.387 34.5195ZM161.438 34.7656V34.5195C161.438 34.0586 161.41 33.625 161.355 33.2188C161.301 32.8125 161.203 32.4531 161.062 32.1406C160.922 31.8281 160.723 31.582 160.465 31.4023C160.207 31.2227 159.871 31.1328 159.457 31.1328C159.035 31.1328 158.68 31.2031 158.391 31.3438C158.109 31.4844 157.883 31.6875 157.711 31.9531C157.547 32.2109 157.43 32.5312 157.359 32.9141C157.289 33.2891 157.258 33.7148 157.266 34.1914V35.1172C157.25 35.7656 157.309 36.3203 157.441 36.7812C157.574 37.2422 157.805 37.5938 158.133 37.8359C158.461 38.0781 158.91 38.1992 159.48 38.1992C159.902 38.1992 160.242 38.1172 160.5 37.9531C160.766 37.7891 160.965 37.5547 161.098 37.25C161.23 36.9453 161.32 36.582 161.367 36.1602C161.414 35.7383 161.438 35.2734 161.438 34.7656ZM173.285 41.2344C172.254 41.2344 171.332 41.0742 170.52 40.7539C169.707 40.4258 169.02 39.9766 168.457 39.4062C167.902 38.8359 167.477 38.1797 167.18 37.4375C166.891 36.6953 166.746 35.9102 166.746 35.082V34.6367C166.746 33.707 166.875 32.8477 167.133 32.0586C167.391 31.2617 167.773 30.5664 168.281 29.9727C168.789 29.3789 169.426 28.918 170.191 28.5898C170.957 28.2539 171.848 28.0859 172.863 28.0859C173.762 28.0859 174.566 28.2305 175.277 28.5195C175.988 28.8086 176.59 29.2227 177.082 29.7617C177.582 30.3008 177.961 30.9531 178.219 31.7188C178.484 32.4844 178.617 33.3438 178.617 34.2969V35.9023H168.258V33.4297H174.762V33.125C174.77 32.7031 174.695 32.3438 174.539 32.0469C174.391 31.75 174.172 31.5234 173.883 31.3672C173.594 31.2109 173.242 31.1328 172.828 31.1328C172.398 31.1328 172.043 31.2266 171.762 31.4141C171.488 31.6016 171.273 31.8594 171.117 32.1875C170.969 32.5078 170.863 32.8789 170.801 33.3008C170.738 33.7227 170.707 34.168 170.707 34.6367V35.082C170.707 35.5508 170.77 35.9766 170.895 36.3594C171.027 36.7422 171.215 37.0703 171.457 37.3438C171.707 37.6094 172.004 37.8164 172.348 37.9648C172.699 38.1133 173.098 38.1875 173.543 38.1875C174.082 38.1875 174.613 38.0859 175.137 37.8828C175.66 37.6797 176.109 37.3438 176.484 36.875L178.277 39.0078C178.02 39.375 177.652 39.7305 177.176 40.0742C176.707 40.418 176.145 40.6992 175.488 40.918C174.832 41.1289 174.098 41.2344 173.285 41.2344ZM186.867 37.4375C186.867 37.2188 186.793 37.0312 186.645 36.875C186.504 36.7109 186.254 36.5625 185.895 36.4297C185.535 36.2891 185.031 36.1484 184.383 36.0078C183.766 35.875 183.184 35.6992 182.637 35.4805C182.098 35.2617 181.625 34.9961 181.219 34.6836C180.812 34.3711 180.492 34 180.258 33.5703C180.031 33.1406 179.918 32.6484 179.918 32.0938C179.918 31.5547 180.031 31.0469 180.258 30.5703C180.492 30.0859 180.832 29.6602 181.277 29.293C181.73 28.918 182.281 28.625 182.93 28.4141C183.578 28.1953 184.316 28.0859 185.145 28.0859C186.285 28.0859 187.27 28.2617 188.098 28.6133C188.926 28.957 189.562 29.4414 190.008 30.0664C190.461 30.6836 190.688 31.3984 190.688 32.2109H186.738C186.738 31.8906 186.684 31.6172 186.574 31.3906C186.473 31.1641 186.305 30.9922 186.07 30.875C185.836 30.75 185.523 30.6875 185.133 30.6875C184.859 30.6875 184.609 30.7383 184.383 30.8398C184.164 30.9414 183.988 31.082 183.855 31.2617C183.723 31.4414 183.656 31.6523 183.656 31.8945C183.656 32.0664 183.695 32.2227 183.773 32.3633C183.859 32.4961 183.988 32.6211 184.16 32.7383C184.332 32.8477 184.551 32.9492 184.816 33.043C185.082 33.1289 185.402 33.207 185.777 33.2773C186.629 33.4336 187.426 33.6562 188.168 33.9453C188.91 34.2344 189.512 34.6445 189.973 35.1758C190.441 35.707 190.676 36.4219 190.676 37.3203C190.676 37.8828 190.547 38.4023 190.289 38.8789C190.031 39.3477 189.66 39.7617 189.176 40.1211C188.691 40.4727 188.109 40.7461 187.43 40.9414C186.75 41.1367 185.984 41.2344 185.133 41.2344C183.922 41.2344 182.898 41.0195 182.062 40.5898C181.227 40.1523 180.594 39.6055 180.164 38.9492C179.742 38.2852 179.531 37.6133 179.531 36.9336H183.211C183.227 37.3242 183.32 37.6445 183.492 37.8945C183.672 38.1445 183.91 38.3281 184.207 38.4453C184.504 38.5625 184.848 38.6211 185.238 38.6211C185.598 38.6211 185.895 38.5703 186.129 38.4688C186.371 38.3672 186.555 38.2305 186.68 38.0586C186.805 37.8789 186.867 37.6719 186.867 37.4375ZM196.699 28.3203V41H192.738V28.3203H196.699ZM192.504 25.0508C192.504 24.4883 192.707 24.0273 193.113 23.668C193.52 23.3086 194.047 23.1289 194.695 23.1289C195.344 23.1289 195.871 23.3086 196.277 23.668C196.684 24.0273 196.887 24.4883 196.887 25.0508C196.887 25.6133 196.684 26.0742 196.277 26.4336C195.871 26.793 195.344 26.9727 194.695 26.9727C194.047 26.9727 193.52 26.793 193.113 26.4336C192.707 26.0742 192.504 25.6133 192.504 25.0508ZM205.723 37.8125V32.5859C205.723 32.2266 205.672 31.918 205.57 31.6602C205.469 31.4023 205.309 31.2031 205.09 31.0625C204.871 30.9141 204.578 30.8398 204.211 30.8398C203.914 30.8398 203.66 30.8906 203.449 30.9922C203.238 31.0938 203.078 31.2461 202.969 31.4492C202.859 31.6523 202.805 31.9102 202.805 32.2227H198.855C198.855 31.6367 198.984 31.0938 199.242 30.5938C199.508 30.0859 199.883 29.6445 200.367 29.2695C200.859 28.8945 201.445 28.6055 202.125 28.4023C202.812 28.1914 203.578 28.0859 204.422 28.0859C205.43 28.0859 206.328 28.2539 207.117 28.5898C207.914 28.9258 208.543 29.4297 209.004 30.1016C209.465 30.7656 209.695 31.6016 209.695 32.6094V37.8008C209.695 38.6289 209.742 39.2578 209.836 39.6875C209.93 40.1094 210.062 40.4805 210.234 40.8008V41H206.273C206.086 40.6094 205.945 40.1328 205.852 39.5703C205.766 39 205.723 38.4141 205.723 37.8125ZM206.203 33.2539L206.227 35.3633H204.48C204.113 35.3633 203.801 35.4141 203.543 35.5156C203.293 35.6172 203.09 35.7578 202.934 35.9375C202.785 36.1094 202.676 36.3047 202.605 36.5234C202.543 36.7422 202.512 36.9727 202.512 37.2148C202.512 37.4492 202.566 37.6602 202.676 37.8477C202.793 38.0273 202.949 38.168 203.145 38.2695C203.34 38.3711 203.559 38.4219 203.801 38.4219C204.238 38.4219 204.609 38.3398 204.914 38.1758C205.227 38.0039 205.465 37.7969 205.629 37.5547C205.793 37.3125 205.875 37.0859 205.875 36.875L206.742 38.4922C206.586 38.8047 206.406 39.1211 206.203 39.4414C206.008 39.7617 205.762 40.0586 205.465 40.332C205.176 40.5977 204.82 40.8164 204.398 40.9883C203.977 41.1523 203.465 41.2344 202.863 41.2344C202.082 41.2344 201.363 41.0742 200.707 40.7539C200.059 40.4336 199.539 39.9883 199.148 39.418C198.758 38.8398 198.562 38.1758 198.562 37.4258C198.562 36.7695 198.68 36.1836 198.914 35.668C199.156 35.1523 199.52 34.7148 200.004 34.3555C200.488 33.9961 201.105 33.7227 201.855 33.5352C202.605 33.3477 203.488 33.2539 204.504 33.2539H206.203ZM217.898 23H221.848V37.8828L221.438 41H217.898V23ZM229.629 34.5195V34.7656C229.629 35.7266 229.531 36.6016 229.336 37.3906C229.141 38.1797 228.84 38.8633 228.434 39.4414C228.027 40.0117 227.516 40.4531 226.898 40.7656C226.281 41.0781 225.551 41.2344 224.707 41.2344C223.941 41.2344 223.285 41.0703 222.738 40.7422C222.191 40.4062 221.734 39.9453 221.367 39.3594C221 38.7656 220.703 38.082 220.477 37.3086C220.25 36.5273 220.07 35.6914 219.938 34.8008V34.5078C220.07 33.625 220.25 32.7969 220.477 32.0234C220.703 31.2422 221 30.5586 221.367 29.9727C221.734 29.3789 222.188 28.918 222.727 28.5898C223.273 28.2539 223.926 28.0859 224.684 28.0859C225.535 28.0859 226.27 28.2461 226.887 28.5664C227.512 28.8867 228.027 29.3359 228.434 29.9141C228.84 30.4922 229.141 31.1719 229.336 31.9531C229.531 32.7344 229.629 33.5898 229.629 34.5195ZM225.68 34.7656V34.5195C225.68 34.0586 225.652 33.625 225.598 33.2188C225.543 32.8125 225.445 32.4531 225.305 32.1406C225.164 31.8281 224.965 31.582 224.707 31.4023C224.449 31.2227 224.113 31.1328 223.699 31.1328C223.277 31.1328 222.922 31.2031 222.633 31.3438C222.352 31.4844 222.125 31.6875 221.953 31.9531C221.789 32.2109 221.672 32.5312 221.602 32.9141C221.531 33.2891 221.5 33.7148 221.508 34.1914V35.1172C221.492 35.7656 221.551 36.3203 221.684 36.7812C221.816 37.2422 222.047 37.5938 222.375 37.8359C222.703 38.0781 223.152 38.1992 223.723 38.1992C224.145 38.1992 224.484 38.1172 224.742 37.9531C225.008 37.7891 225.207 37.5547 225.34 37.25C225.473 36.9453 225.562 36.582 225.609 36.1602C225.656 35.7383 225.68 35.2734 225.68 34.7656ZM230.895 34.7891V34.543C230.895 33.6133 231.027 32.7578 231.293 31.9766C231.559 31.1875 231.949 30.5039 232.465 29.9258C232.98 29.3477 233.617 28.8984 234.375 28.5781C235.133 28.25 236.008 28.0859 237 28.0859C238 28.0859 238.879 28.25 239.637 28.5781C240.402 28.8984 241.043 29.3477 241.559 29.9258C242.074 30.5039 242.465 31.1875 242.73 31.9766C242.996 32.7578 243.129 33.6133 243.129 34.543V34.7891C243.129 35.7109 242.996 36.5664 242.73 37.3555C242.465 38.1367 242.074 38.8203 241.559 39.4062C241.043 39.9844 240.406 40.4336 239.648 40.7539C238.891 41.0742 238.016 41.2344 237.023 41.2344C236.031 41.2344 235.152 41.0742 234.387 40.7539C233.621 40.4336 232.98 39.9844 232.465 39.4062C231.949 38.8203 231.559 38.1367 231.293 37.3555C231.027 36.5664 230.895 35.7109 230.895 34.7891ZM234.844 34.543V34.7891C234.844 35.2656 234.879 35.7109 234.949 36.125C235.02 36.5391 235.137 36.9023 235.301 37.2148C235.465 37.5195 235.688 37.7578 235.969 37.9297C236.25 38.1016 236.602 38.1875 237.023 38.1875C237.438 38.1875 237.781 38.1016 238.055 37.9297C238.336 37.7578 238.559 37.5195 238.723 37.2148C238.887 36.9023 239.004 36.5391 239.074 36.125C239.145 35.7109 239.18 35.2656 239.18 34.7891V34.543C239.18 34.082 239.145 33.6484 239.074 33.2422C239.004 32.8281 238.887 32.4648 238.723 32.1523C238.559 31.832 238.336 31.582 238.055 31.4023C237.773 31.2227 237.422 31.1328 237 31.1328C236.586 31.1328 236.238 31.2227 235.957 31.4023C235.684 31.582 235.465 31.832 235.301 32.1523C235.137 32.4648 235.02 32.8281 234.949 33.2422C234.879 33.6484 234.844 34.082 234.844 34.543ZM251.566 28.3203V31.0625H243.926V28.3203H251.566ZM245.531 25.168H249.48V36.8633C249.48 37.1992 249.52 37.4609 249.598 37.6484C249.676 37.8281 249.809 37.957 249.996 38.0352C250.191 38.1055 250.449 38.1406 250.77 38.1406C250.996 38.1406 251.184 38.1367 251.332 38.1289C251.48 38.1133 251.621 38.0938 251.754 38.0703V40.8945C251.418 41.0039 251.066 41.0859 250.699 41.1406C250.332 41.2031 249.941 41.2344 249.527 41.2344C248.684 41.2344 247.961 41.1016 247.359 40.8359C246.766 40.5703 246.312 40.1523 246 39.582C245.688 39.0117 245.531 38.2695 245.531 37.3555V25.168ZM257.121 31.4609V41H253.172V28.3203H256.863L257.121 31.4609ZM260.871 28.2266L260.801 31.8945C260.645 31.8789 260.434 31.8594 260.168 31.8359C259.902 31.8125 259.68 31.8008 259.5 31.8008C259.039 31.8008 258.641 31.8555 258.305 31.9648C257.977 32.0664 257.703 32.2227 257.484 32.4336C257.273 32.6367 257.117 32.8945 257.016 33.207C256.922 33.5195 256.879 33.8828 256.887 34.2969L256.172 33.8281C256.172 32.9766 256.254 32.2031 256.418 31.5078C256.59 30.8047 256.832 30.1992 257.145 29.6914C257.457 29.1758 257.836 28.7812 258.281 28.5078C258.727 28.2266 259.227 28.0859 259.781 28.0859C259.977 28.0859 260.168 28.0977 260.355 28.1211C260.551 28.1445 260.723 28.1797 260.871 28.2266ZM268.465 37.8125V32.5859C268.465 32.2266 268.414 31.918 268.312 31.6602C268.211 31.4023 268.051 31.2031 267.832 31.0625C267.613 30.9141 267.32 30.8398 266.953 30.8398C266.656 30.8398 266.402 30.8906 266.191 30.9922C265.98 31.0938 265.82 31.2461 265.711 31.4492C265.602 31.6523 265.547 31.9102 265.547 32.2227H261.598C261.598 31.6367 261.727 31.0938 261.984 30.5938C262.25 30.0859 262.625 29.6445 263.109 29.2695C263.602 28.8945 264.188 28.6055 264.867 28.4023C265.555 28.1914 266.32 28.0859 267.164 28.0859C268.172 28.0859 269.07 28.2539 269.859 28.5898C270.656 28.9258 271.285 29.4297 271.746 30.1016C272.207 30.7656 272.438 31.6016 272.438 32.6094V37.8008C272.438 38.6289 272.484 39.2578 272.578 39.6875C272.672 40.1094 272.805 40.4805 272.977 40.8008V41H269.016C268.828 40.6094 268.688 40.1328 268.594 39.5703C268.508 39 268.465 38.4141 268.465 37.8125ZM268.945 33.2539L268.969 35.3633H267.223C266.855 35.3633 266.543 35.4141 266.285 35.5156C266.035 35.6172 265.832 35.7578 265.676 35.9375C265.527 36.1094 265.418 36.3047 265.348 36.5234C265.285 36.7422 265.254 36.9727 265.254 37.2148C265.254 37.4492 265.309 37.6602 265.418 37.8477C265.535 38.0273 265.691 38.168 265.887 38.2695C266.082 38.3711 266.301 38.4219 266.543 38.4219C266.98 38.4219 267.352 38.3398 267.656 38.1758C267.969 38.0039 268.207 37.7969 268.371 37.5547C268.535 37.3125 268.617 37.0859 268.617 36.875L269.484 38.4922C269.328 38.8047 269.148 39.1211 268.945 39.4414C268.75 39.7617 268.504 40.0586 268.207 40.332C267.918 40.5977 267.562 40.8164 267.141 40.9883C266.719 41.1523 266.207 41.2344 265.605 41.2344C264.824 41.2344 264.105 41.0742 263.449 40.7539C262.801 40.4336 262.281 39.9883 261.891 39.418C261.5 38.8398 261.305 38.1758 261.305 37.4258C261.305 36.7695 261.422 36.1836 261.656 35.668C261.898 35.1523 262.262 34.7148 262.746 34.3555C263.23 33.9961 263.848 33.7227 264.598 33.5352C265.348 33.3477 266.23 33.2539 267.246 33.2539H268.945ZM278.508 31.0273V41H274.559V28.3203H278.262L278.508 31.0273ZM278.039 34.2266L277.113 34.25C277.113 33.2812 277.23 32.418 277.465 31.6602C277.699 30.8945 278.031 30.2461 278.461 29.7148C278.891 29.1836 279.402 28.7812 279.996 28.5078C280.598 28.2266 281.266 28.0859 282 28.0859C282.586 28.0859 283.121 28.1719 283.605 28.3438C284.098 28.5156 284.52 28.793 284.871 29.1758C285.23 29.5586 285.504 30.0664 285.691 30.6992C285.887 31.3242 285.984 32.0977 285.984 33.0195V41H282.012V33.0078C282.012 32.5 281.941 32.1133 281.801 31.8477C281.66 31.5742 281.457 31.3867 281.191 31.2852C280.926 31.1836 280.602 31.1328 280.219 31.1328C279.812 31.1328 279.469 31.2109 279.188 31.3672C278.906 31.5234 278.68 31.7422 278.508 32.0234C278.344 32.2969 278.223 32.6211 278.145 32.9961C278.074 33.3711 278.039 33.7812 278.039 34.2266ZM294.762 37.8125V32.5859C294.762 32.2266 294.711 31.918 294.609 31.6602C294.508 31.4023 294.348 31.2031 294.129 31.0625C293.91 30.9141 293.617 30.8398 293.25 30.8398C292.953 30.8398 292.699 30.8906 292.488 30.9922C292.277 31.0938 292.117 31.2461 292.008 31.4492C291.898 31.6523 291.844 31.9102 291.844 32.2227H287.895C287.895 31.6367 288.023 31.0938 288.281 30.5938C288.547 30.0859 288.922 29.6445 289.406 29.2695C289.898 28.8945 290.484 28.6055 291.164 28.4023C291.852 28.1914 292.617 28.0859 293.461 28.0859C294.469 28.0859 295.367 28.2539 296.156 28.5898C296.953 28.9258 297.582 29.4297 298.043 30.1016C298.504 30.7656 298.734 31.6016 298.734 32.6094V37.8008C298.734 38.6289 298.781 39.2578 298.875 39.6875C298.969 40.1094 299.102 40.4805 299.273 40.8008V41H295.312C295.125 40.6094 294.984 40.1328 294.891 39.5703C294.805 39 294.762 38.4141 294.762 37.8125ZM295.242 33.2539L295.266 35.3633H293.52C293.152 35.3633 292.84 35.4141 292.582 35.5156C292.332 35.6172 292.129 35.7578 291.973 35.9375C291.824 36.1094 291.715 36.3047 291.645 36.5234C291.582 36.7422 291.551 36.9727 291.551 37.2148C291.551 37.4492 291.605 37.6602 291.715 37.8477C291.832 38.0273 291.988 38.168 292.184 38.2695C292.379 38.3711 292.598 38.4219 292.84 38.4219C293.277 38.4219 293.648 38.3398 293.953 38.1758C294.266 38.0039 294.504 37.7969 294.668 37.5547C294.832 37.3125 294.914 37.0859 294.914 36.875L295.781 38.4922C295.625 38.8047 295.445 39.1211 295.242 39.4414C295.047 39.7617 294.801 40.0586 294.504 40.332C294.215 40.5977 293.859 40.8164 293.438 40.9883C293.016 41.1523 292.504 41.2344 291.902 41.2344C291.121 41.2344 290.402 41.0742 289.746 40.7539C289.098 40.4336 288.578 39.9883 288.188 39.418C287.797 38.8398 287.602 38.1758 287.602 37.4258C287.602 36.7695 287.719 36.1836 287.953 35.668C288.195 35.1523 288.559 34.7148 289.043 34.3555C289.527 33.9961 290.145 33.7227 290.895 33.5352C291.645 33.3477 292.527 33.2539 293.543 33.2539H295.242Z" fill="#222121"/>
<path d="M131.571 59.6738V55.8594C131.571 55.5085 131.498 55.2054 131.353 54.9502C131.207 54.695 130.993 54.499 130.71 54.3623C130.427 54.2256 130.079 54.1572 129.664 54.1572C129.281 54.1572 128.939 54.2256 128.639 54.3623C128.342 54.4945 128.108 54.6745 127.935 54.9023C127.766 55.1257 127.682 55.374 127.682 55.6475L126.861 55.6406C126.861 55.3626 126.93 55.0938 127.066 54.834C127.203 54.5742 127.397 54.3418 127.647 54.1367C127.898 53.9316 128.197 53.7699 128.543 53.6514C128.894 53.5283 129.279 53.4668 129.698 53.4668C130.227 53.4668 130.692 53.5557 131.093 53.7334C131.498 53.9111 131.815 54.1777 132.043 54.5332C132.271 54.8887 132.385 55.3353 132.385 55.873V59.4482C132.385 59.7035 132.403 59.9678 132.439 60.2412C132.48 60.5146 132.537 60.7402 132.61 60.918V61H131.742C131.688 60.8359 131.644 60.6309 131.612 60.3848C131.585 60.1341 131.571 59.8971 131.571 59.6738ZM131.763 56.6934L131.776 57.3223H130.17C129.751 57.3223 129.375 57.361 129.042 57.4385C128.714 57.5114 128.436 57.6208 128.208 57.7666C127.98 57.9079 127.805 58.0788 127.682 58.2793C127.563 58.4798 127.504 58.7077 127.504 58.9629C127.504 59.2272 127.57 59.4688 127.702 59.6875C127.839 59.9062 128.03 60.0817 128.276 60.2139C128.527 60.3415 128.823 60.4053 129.165 60.4053C129.621 60.4053 130.022 60.321 130.368 60.1523C130.719 59.9837 131.008 59.7627 131.236 59.4893C131.464 59.2158 131.617 58.9173 131.694 58.5938L132.05 59.0654C131.991 59.2933 131.881 59.528 131.722 59.7695C131.567 60.0065 131.364 60.2298 131.113 60.4395C130.863 60.6445 130.566 60.8132 130.225 60.9453C129.887 61.0729 129.505 61.1367 129.076 61.1367C128.593 61.1367 128.172 61.0456 127.812 60.8633C127.456 60.681 127.178 60.4326 126.978 60.1182C126.782 59.7992 126.684 59.4391 126.684 59.0381C126.684 58.6735 126.761 58.3477 126.916 58.0605C127.071 57.7689 127.294 57.5228 127.586 57.3223C127.882 57.1172 128.238 56.9622 128.652 56.8574C129.072 56.748 129.541 56.6934 130.061 56.6934H131.763ZM134.565 50.5H135.386V59.5645L135.331 61H134.565V50.5ZM140.533 57.2334V57.377C140.533 57.9284 140.469 58.4342 140.342 58.8945C140.214 59.3548 140.03 59.7536 139.788 60.0908C139.547 60.4235 139.25 60.681 138.899 60.8633C138.553 61.0456 138.154 61.1367 137.703 61.1367C137.261 61.1367 136.869 61.0684 136.527 60.9316C136.186 60.7904 135.894 60.5921 135.652 60.3369C135.411 60.0771 135.217 59.7741 135.071 59.4277C134.925 59.0768 134.823 58.6917 134.764 58.2725V56.4473C134.832 56.0007 134.941 55.5951 135.092 55.2305C135.242 54.8659 135.436 54.5514 135.673 54.2871C135.914 54.0228 136.201 53.82 136.534 53.6787C136.871 53.5374 137.257 53.4668 137.689 53.4668C138.141 53.4668 138.542 53.5557 138.893 53.7334C139.248 53.9066 139.547 54.1595 139.788 54.4922C140.03 54.8203 140.214 55.2168 140.342 55.6816C140.469 56.1419 140.533 56.6592 140.533 57.2334ZM139.706 57.377V57.2334C139.706 56.8005 139.665 56.3994 139.583 56.0303C139.501 55.6611 139.371 55.3398 139.193 55.0664C139.02 54.7884 138.797 54.5719 138.523 54.417C138.25 54.262 137.922 54.1846 137.539 54.1846C137.147 54.1846 136.812 54.2507 136.534 54.3828C136.261 54.5104 136.033 54.6813 135.851 54.8955C135.673 55.1051 135.532 55.3353 135.427 55.5859C135.322 55.8366 135.244 56.0827 135.194 56.3242V58.4502C135.272 58.792 135.406 59.1133 135.598 59.4141C135.789 59.7148 136.047 59.9587 136.37 60.1455C136.694 60.3278 137.088 60.4189 137.553 60.4189C137.926 60.4189 138.248 60.3415 138.517 60.1865C138.79 60.0316 139.013 59.8174 139.187 59.5439C139.364 59.2705 139.494 58.9492 139.576 58.5801C139.663 58.2109 139.706 57.8099 139.706 57.377ZM147.15 59.5645V50.5H147.971V61H147.205L147.15 59.5645ZM142.017 57.377V57.2334C142.017 56.6592 142.083 56.1419 142.215 55.6816C142.347 55.2168 142.536 54.8203 142.782 54.4922C143.033 54.1595 143.334 53.9066 143.685 53.7334C144.035 53.5557 144.432 53.4668 144.874 53.4668C145.307 53.4668 145.69 53.5374 146.022 53.6787C146.355 53.82 146.64 54.0228 146.877 54.2871C147.118 54.5514 147.312 54.8659 147.458 55.2305C147.608 55.5951 147.718 56.0007 147.786 56.4473V58.2725C147.731 58.6917 147.631 59.0768 147.485 59.4277C147.34 59.7741 147.146 60.0771 146.904 60.3369C146.663 60.5921 146.371 60.7904 146.029 60.9316C145.692 61.0684 145.302 61.1367 144.86 61.1367C144.423 61.1367 144.029 61.0456 143.678 60.8633C143.327 60.681 143.028 60.4235 142.782 60.0908C142.536 59.7536 142.347 59.3548 142.215 58.8945C142.083 58.4342 142.017 57.9284 142.017 57.377ZM142.837 57.2334V57.377C142.837 57.8099 142.88 58.2109 142.967 58.5801C143.053 58.9492 143.186 59.2705 143.363 59.5439C143.541 59.8174 143.767 60.0316 144.04 60.1865C144.313 60.3415 144.637 60.4189 145.011 60.4189C145.48 60.4189 145.874 60.3301 146.193 60.1523C146.512 59.9701 146.768 59.7308 146.959 59.4346C147.15 59.1338 147.289 58.8057 147.376 58.4502V56.3242C147.321 56.0827 147.242 55.8366 147.137 55.5859C147.032 55.3353 146.888 55.1051 146.706 54.8955C146.528 54.6813 146.3 54.5104 146.022 54.3828C145.749 54.2507 145.416 54.1846 145.024 54.1846C144.646 54.1846 144.32 54.262 144.047 54.417C143.773 54.5719 143.546 54.7884 143.363 55.0664C143.186 55.3398 143.053 55.6611 142.967 56.0303C142.88 56.3994 142.837 56.8005 142.837 57.2334ZM151.525 61H150.712V52.6875C150.712 52.1816 150.799 51.7555 150.972 51.4092C151.149 51.0628 151.4 50.8008 151.724 50.623C152.052 50.4453 152.441 50.3564 152.893 50.3564C153.034 50.3564 153.18 50.3656 153.33 50.3838C153.48 50.3975 153.626 50.4271 153.768 50.4727L153.706 51.1631C153.592 51.1312 153.476 51.1107 153.357 51.1016C153.243 51.0879 153.109 51.0811 152.954 51.0811C152.658 51.0811 152.403 51.1449 152.188 51.2725C151.974 51.3955 151.81 51.5755 151.696 51.8125C151.582 52.0495 151.525 52.3411 151.525 52.6875V61ZM153.289 53.6035V54.2734H149.488V53.6035H153.289ZM154.308 57.418V57.1924C154.308 56.6546 154.385 56.1579 154.54 55.7021C154.695 55.2464 154.916 54.8522 155.203 54.5195C155.495 54.1868 155.843 53.9294 156.249 53.7471C156.655 53.5602 157.106 53.4668 157.603 53.4668C158.104 53.4668 158.557 53.5602 158.963 53.7471C159.368 53.9294 159.717 54.1868 160.009 54.5195C160.3 54.8522 160.524 55.2464 160.679 55.7021C160.834 56.1579 160.911 56.6546 160.911 57.1924V57.418C160.911 57.9557 160.834 58.4525 160.679 58.9082C160.524 59.3594 160.3 59.7513 160.009 60.084C159.722 60.4167 159.375 60.6764 158.97 60.8633C158.564 61.0456 158.113 61.1367 157.616 61.1367C157.115 61.1367 156.661 61.0456 156.256 60.8633C155.85 60.6764 155.502 60.4167 155.21 60.084C154.918 59.7513 154.695 59.3594 154.54 58.9082C154.385 58.4525 154.308 57.9557 154.308 57.418ZM155.121 57.1924V57.418C155.121 57.8236 155.176 58.2087 155.285 58.5732C155.395 58.9333 155.554 59.2546 155.764 59.5371C155.973 59.8151 156.233 60.0339 156.543 60.1934C156.853 60.3529 157.211 60.4326 157.616 60.4326C158.017 60.4326 158.37 60.3529 158.676 60.1934C158.986 60.0339 159.245 59.8151 159.455 59.5371C159.665 59.2546 159.822 58.9333 159.927 58.5732C160.036 58.2087 160.091 57.8236 160.091 57.418V57.1924C160.091 56.7913 160.036 56.4108 159.927 56.0508C159.822 55.6908 159.662 55.3695 159.448 55.0869C159.239 54.8044 158.979 54.5811 158.669 54.417C158.359 54.2529 158.004 54.1709 157.603 54.1709C157.201 54.1709 156.846 54.2529 156.536 54.417C156.231 54.5811 155.971 54.8044 155.757 55.0869C155.547 55.3695 155.388 55.6908 155.278 56.0508C155.174 56.4108 155.121 56.7913 155.121 57.1924ZM163.516 53.6035V61H162.702V53.6035H163.516ZM162.559 51.4639C162.559 51.3089 162.606 51.179 162.702 51.0742C162.802 50.9648 162.939 50.9102 163.112 50.9102C163.285 50.9102 163.422 50.9648 163.522 51.0742C163.627 51.179 163.68 51.3089 163.68 51.4639C163.68 51.6143 163.627 51.7441 163.522 51.8535C163.422 51.9583 163.285 52.0107 163.112 52.0107C162.939 52.0107 162.802 51.9583 162.702 51.8535C162.606 51.7441 162.559 51.6143 162.559 51.4639ZM170.249 59.6738V55.8594C170.249 55.5085 170.176 55.2054 170.03 54.9502C169.884 54.695 169.67 54.499 169.388 54.3623C169.105 54.2256 168.757 54.1572 168.342 54.1572C167.959 54.1572 167.617 54.2256 167.316 54.3623C167.02 54.4945 166.785 54.6745 166.612 54.9023C166.444 55.1257 166.359 55.374 166.359 55.6475L165.539 55.6406C165.539 55.3626 165.607 55.0938 165.744 54.834C165.881 54.5742 166.075 54.3418 166.325 54.1367C166.576 53.9316 166.874 53.7699 167.221 53.6514C167.572 53.5283 167.957 53.4668 168.376 53.4668C168.905 53.4668 169.369 53.5557 169.771 53.7334C170.176 53.9111 170.493 54.1777 170.721 54.5332C170.949 54.8887 171.062 55.3353 171.062 55.873V59.4482C171.062 59.7035 171.081 59.9678 171.117 60.2412C171.158 60.5146 171.215 60.7402 171.288 60.918V61H170.42C170.365 60.8359 170.322 60.6309 170.29 60.3848C170.263 60.1341 170.249 59.8971 170.249 59.6738ZM170.44 56.6934L170.454 57.3223H168.848C168.428 57.3223 168.052 57.361 167.72 57.4385C167.392 57.5114 167.114 57.6208 166.886 57.7666C166.658 57.9079 166.482 58.0788 166.359 58.2793C166.241 58.4798 166.182 58.7077 166.182 58.9629C166.182 59.2272 166.248 59.4688 166.38 59.6875C166.517 59.9062 166.708 60.0817 166.954 60.2139C167.205 60.3415 167.501 60.4053 167.843 60.4053C168.299 60.4053 168.7 60.321 169.046 60.1523C169.397 59.9837 169.686 59.7627 169.914 59.4893C170.142 59.2158 170.295 58.9173 170.372 58.5938L170.728 59.0654C170.668 59.2933 170.559 59.528 170.399 59.7695C170.244 60.0065 170.042 60.2298 169.791 60.4395C169.54 60.6445 169.244 60.8132 168.902 60.9453C168.565 61.0729 168.182 61.1367 167.754 61.1367C167.271 61.1367 166.849 61.0456 166.489 60.8633C166.134 60.681 165.856 60.4326 165.655 60.1182C165.459 59.7992 165.361 59.4391 165.361 59.0381C165.361 58.6735 165.439 58.3477 165.594 58.0605C165.749 57.7689 165.972 57.5228 166.264 57.3223C166.56 57.1172 166.915 56.9622 167.33 56.8574C167.749 56.748 168.219 56.6934 168.738 56.6934H170.44ZM173.243 50.5H174.063V59.5645L174.009 61H173.243V50.5ZM179.211 57.2334V57.377C179.211 57.9284 179.147 58.4342 179.02 58.8945C178.892 59.3548 178.707 59.7536 178.466 60.0908C178.224 60.4235 177.928 60.681 177.577 60.8633C177.231 61.0456 176.832 61.1367 176.381 61.1367C175.939 61.1367 175.547 61.0684 175.205 60.9316C174.863 60.7904 174.572 60.5921 174.33 60.3369C174.089 60.0771 173.895 59.7741 173.749 59.4277C173.603 59.0768 173.501 58.6917 173.441 58.2725V56.4473C173.51 56.0007 173.619 55.5951 173.77 55.2305C173.92 54.8659 174.114 54.5514 174.351 54.2871C174.592 54.0228 174.879 53.82 175.212 53.6787C175.549 53.5374 175.934 53.4668 176.367 53.4668C176.818 53.4668 177.219 53.5557 177.57 53.7334C177.926 53.9066 178.224 54.1595 178.466 54.4922C178.707 54.8203 178.892 55.2168 179.02 55.6816C179.147 56.1419 179.211 56.6592 179.211 57.2334ZM178.384 57.377V57.2334C178.384 56.8005 178.343 56.3994 178.261 56.0303C178.179 55.6611 178.049 55.3398 177.871 55.0664C177.698 54.7884 177.475 54.5719 177.201 54.417C176.928 54.262 176.6 54.1846 176.217 54.1846C175.825 54.1846 175.49 54.2507 175.212 54.3828C174.938 54.5104 174.711 54.6813 174.528 54.8955C174.351 55.1051 174.209 55.3353 174.104 55.5859C174 55.8366 173.922 56.0827 173.872 56.3242V58.4502C173.95 58.792 174.084 59.1133 174.275 59.4141C174.467 59.7148 174.724 59.9587 175.048 60.1455C175.371 60.3278 175.766 60.4189 176.23 60.4189C176.604 60.4189 176.925 60.3415 177.194 60.1865C177.468 60.0316 177.691 59.8174 177.864 59.5439C178.042 59.2705 178.172 58.9492 178.254 58.5801C178.34 58.2109 178.384 57.8099 178.384 57.377ZM185.452 59.1133C185.452 58.9128 185.402 58.7145 185.302 58.5186C185.201 58.3226 185.008 58.1426 184.721 57.9785C184.438 57.8145 184.021 57.6755 183.47 57.5615C183.06 57.4704 182.693 57.3678 182.369 57.2539C182.05 57.14 181.781 57.0033 181.562 56.8438C181.344 56.6842 181.177 56.4928 181.063 56.2695C180.95 56.0462 180.893 55.7819 180.893 55.4766C180.893 55.2031 180.952 54.9456 181.07 54.7041C181.193 54.458 181.367 54.2438 181.59 54.0615C181.818 53.8747 182.091 53.7288 182.41 53.624C182.734 53.5192 183.096 53.4668 183.497 53.4668C184.067 53.4668 184.554 53.5648 184.96 53.7607C185.37 53.9521 185.682 54.2142 185.896 54.5469C186.115 54.8796 186.225 55.2555 186.225 55.6748H185.411C185.411 55.4196 185.336 55.1781 185.186 54.9502C185.04 54.7223 184.823 54.5355 184.536 54.3896C184.254 54.2438 183.907 54.1709 183.497 54.1709C183.073 54.1709 182.729 54.2347 182.465 54.3623C182.201 54.4899 182.007 54.6517 181.884 54.8477C181.765 55.0436 181.706 55.2464 181.706 55.4561C181.706 55.6201 181.731 55.7705 181.781 55.9072C181.836 56.0394 181.932 56.1624 182.068 56.2764C182.21 56.3903 182.41 56.4974 182.67 56.5977C182.93 56.6979 183.267 56.7959 183.682 56.8916C184.279 57.0238 184.766 57.1855 185.145 57.377C185.527 57.5638 185.81 57.7962 185.992 58.0742C186.174 58.3477 186.266 58.6803 186.266 59.0723C186.266 59.3776 186.202 59.6579 186.074 59.9131C185.947 60.1637 185.762 60.3802 185.521 60.5625C185.284 60.7448 184.996 60.8861 184.659 60.9863C184.326 61.0866 183.953 61.1367 183.538 61.1367C182.914 61.1367 182.385 61.0342 181.952 60.8291C181.524 60.6195 181.198 60.346 180.975 60.0088C180.756 59.667 180.646 59.3047 180.646 58.9219H181.46C181.487 59.3047 181.608 59.6077 181.822 59.8311C182.036 60.0498 182.299 60.2048 182.608 60.2959C182.923 60.387 183.233 60.4326 183.538 60.4326C183.957 60.4326 184.308 60.3711 184.591 60.248C184.873 60.125 185.088 59.9632 185.233 59.7627C185.379 59.5622 185.452 59.3457 185.452 59.1133ZM189.027 53.6035V61H188.214V53.6035H189.027ZM188.07 51.4639C188.07 51.3089 188.118 51.179 188.214 51.0742C188.314 50.9648 188.451 50.9102 188.624 50.9102C188.797 50.9102 188.934 50.9648 189.034 51.0742C189.139 51.179 189.191 51.3089 189.191 51.4639C189.191 51.6143 189.139 51.7441 189.034 51.8535C188.934 51.9583 188.797 52.0107 188.624 52.0107C188.451 52.0107 188.314 51.9583 188.214 51.8535C188.118 51.7441 188.07 51.6143 188.07 51.4639ZM195.761 59.6738V55.8594C195.761 55.5085 195.688 55.2054 195.542 54.9502C195.396 54.695 195.182 54.499 194.899 54.3623C194.617 54.2256 194.268 54.1572 193.854 54.1572C193.471 54.1572 193.129 54.2256 192.828 54.3623C192.532 54.4945 192.297 54.6745 192.124 54.9023C191.955 55.1257 191.871 55.374 191.871 55.6475L191.051 55.6406C191.051 55.3626 191.119 55.0938 191.256 54.834C191.393 54.5742 191.586 54.3418 191.837 54.1367C192.088 53.9316 192.386 53.7699 192.732 53.6514C193.083 53.5283 193.468 53.4668 193.888 53.4668C194.416 53.4668 194.881 53.5557 195.282 53.7334C195.688 53.9111 196.005 54.1777 196.232 54.5332C196.46 54.8887 196.574 55.3353 196.574 55.873V59.4482C196.574 59.7035 196.592 59.9678 196.629 60.2412C196.67 60.5146 196.727 60.7402 196.8 60.918V61H195.932C195.877 60.8359 195.834 60.6309 195.802 60.3848C195.774 60.1341 195.761 59.8971 195.761 59.6738ZM195.952 56.6934L195.966 57.3223H194.359C193.94 57.3223 193.564 57.361 193.231 57.4385C192.903 57.5114 192.625 57.6208 192.397 57.7666C192.17 57.9079 191.994 58.0788 191.871 58.2793C191.753 58.4798 191.693 58.7077 191.693 58.9629C191.693 59.2272 191.759 59.4688 191.892 59.6875C192.028 59.9062 192.22 60.0817 192.466 60.2139C192.716 60.3415 193.013 60.4053 193.354 60.4053C193.81 60.4053 194.211 60.321 194.558 60.1523C194.909 59.9837 195.198 59.7627 195.426 59.4893C195.654 59.2158 195.806 58.9173 195.884 58.5938L196.239 59.0654C196.18 59.2933 196.071 59.528 195.911 59.7695C195.756 60.0065 195.553 60.2298 195.303 60.4395C195.052 60.6445 194.756 60.8132 194.414 60.9453C194.077 61.0729 193.694 61.1367 193.266 61.1367C192.783 61.1367 192.361 61.0456 192.001 60.8633C191.646 60.681 191.368 60.4326 191.167 60.1182C190.971 59.7992 190.873 59.4391 190.873 59.0381C190.873 58.6735 190.951 58.3477 191.105 58.0605C191.26 57.7689 191.484 57.5228 191.775 57.3223C192.072 57.1172 192.427 56.9622 192.842 56.8574C193.261 56.748 193.73 56.6934 194.25 56.6934H195.952ZM199.582 55.1826V61H198.769V53.6035H199.548L199.582 55.1826ZM199.397 56.8438L199.035 56.6387C199.062 56.2012 199.151 55.791 199.302 55.4082C199.452 55.0254 199.655 54.6882 199.91 54.3965C200.17 54.1048 200.473 53.877 200.819 53.7129C201.17 53.5488 201.558 53.4668 201.981 53.4668C202.351 53.4668 202.681 53.5169 202.973 53.6172C203.264 53.7174 203.513 53.877 203.718 54.0957C203.923 54.3145 204.078 54.5947 204.183 54.9365C204.292 55.2783 204.347 55.6953 204.347 56.1875V61H203.526V56.1807C203.526 55.6702 203.456 55.2715 203.314 54.9844C203.173 54.6927 202.973 54.4854 202.713 54.3623C202.453 54.2393 202.146 54.1777 201.79 54.1777C201.398 54.1777 201.054 54.2643 200.758 54.4375C200.466 54.6061 200.22 54.8271 200.02 55.1006C199.824 55.3695 199.673 55.6589 199.568 55.9688C199.464 56.2741 199.407 56.5658 199.397 56.8438ZM211.271 59.5645V50.5H212.092V61H211.326L211.271 59.5645ZM206.138 57.377V57.2334C206.138 56.6592 206.204 56.1419 206.336 55.6816C206.468 55.2168 206.657 54.8203 206.903 54.4922C207.154 54.1595 207.455 53.9066 207.806 53.7334C208.157 53.5557 208.553 53.4668 208.995 53.4668C209.428 53.4668 209.811 53.5374 210.144 53.6787C210.476 53.82 210.761 54.0228 210.998 54.2871C211.24 54.5514 211.433 54.8659 211.579 55.2305C211.729 55.5951 211.839 56.0007 211.907 56.4473V58.2725C211.853 58.6917 211.752 59.0768 211.606 59.4277C211.461 59.7741 211.267 60.0771 211.025 60.3369C210.784 60.5921 210.492 60.7904 210.15 60.9316C209.813 61.0684 209.424 61.1367 208.981 61.1367C208.544 61.1367 208.15 61.0456 207.799 60.8633C207.448 60.681 207.149 60.4235 206.903 60.0908C206.657 59.7536 206.468 59.3548 206.336 58.8945C206.204 58.4342 206.138 57.9284 206.138 57.377ZM206.958 57.2334V57.377C206.958 57.8099 207.001 58.2109 207.088 58.5801C207.174 58.9492 207.307 59.2705 207.484 59.5439C207.662 59.8174 207.888 60.0316 208.161 60.1865C208.435 60.3415 208.758 60.4189 209.132 60.4189C209.601 60.4189 209.995 60.3301 210.314 60.1523C210.633 59.9701 210.889 59.7308 211.08 59.4346C211.271 59.1338 211.41 58.8057 211.497 58.4502V56.3242C211.442 56.0827 211.363 55.8366 211.258 55.5859C211.153 55.3353 211.009 55.1051 210.827 54.8955C210.649 54.6813 210.422 54.5104 210.144 54.3828C209.87 54.2507 209.537 54.1846 209.146 54.1846C208.767 54.1846 208.441 54.262 208.168 54.417C207.895 54.5719 207.667 54.7884 207.484 55.0664C207.307 55.3398 207.174 55.6611 207.088 56.0303C207.001 56.3994 206.958 56.8005 206.958 57.2334ZM213.794 57.418V57.1924C213.794 56.6546 213.871 56.1579 214.026 55.7021C214.181 55.2464 214.402 54.8522 214.689 54.5195C214.981 54.1868 215.33 53.9294 215.735 53.7471C216.141 53.5602 216.592 53.4668 217.089 53.4668C217.59 53.4668 218.044 53.5602 218.449 53.7471C218.855 53.9294 219.203 54.1868 219.495 54.5195C219.787 54.8522 220.01 55.2464 220.165 55.7021C220.32 56.1579 220.397 56.6546 220.397 57.1924V57.418C220.397 57.9557 220.32 58.4525 220.165 58.9082C220.01 59.3594 219.787 59.7513 219.495 60.084C219.208 60.4167 218.862 60.6764 218.456 60.8633C218.05 61.0456 217.599 61.1367 217.103 61.1367C216.601 61.1367 216.148 61.0456 215.742 60.8633C215.337 60.6764 214.988 60.4167 214.696 60.084C214.405 59.7513 214.181 59.3594 214.026 58.9082C213.871 58.4525 213.794 57.9557 213.794 57.418ZM214.607 57.1924V57.418C214.607 57.8236 214.662 58.2087 214.771 58.5732C214.881 58.9333 215.04 59.2546 215.25 59.5371C215.46 59.8151 215.719 60.0339 216.029 60.1934C216.339 60.3529 216.697 60.4326 217.103 60.4326C217.504 60.4326 217.857 60.3529 218.162 60.1934C218.472 60.0339 218.732 59.8151 218.941 59.5371C219.151 59.2546 219.308 58.9333 219.413 58.5732C219.522 58.2087 219.577 57.8236 219.577 57.418V57.1924C219.577 56.7913 219.522 56.4108 219.413 56.0508C219.308 55.6908 219.149 55.3695 218.935 55.0869C218.725 54.8044 218.465 54.5811 218.155 54.417C217.845 54.2529 217.49 54.1709 217.089 54.1709C216.688 54.1709 216.332 54.2529 216.022 54.417C215.717 54.5811 215.457 54.8044 215.243 55.0869C215.034 55.3695 214.874 55.6908 214.765 56.0508C214.66 56.4108 214.607 56.7913 214.607 57.1924ZM223.002 53.6035V61H222.188V53.6035H223.002ZM222.045 51.4639C222.045 51.3089 222.093 51.179 222.188 51.0742C222.289 50.9648 222.425 50.9102 222.599 50.9102C222.772 50.9102 222.909 50.9648 223.009 51.0742C223.114 51.179 223.166 51.3089 223.166 51.4639C223.166 51.6143 223.114 51.7441 223.009 51.8535C222.909 51.9583 222.772 52.0107 222.599 52.0107C222.425 52.0107 222.289 51.9583 222.188 51.8535C222.093 51.7441 222.045 51.6143 222.045 51.4639ZM229.735 59.6738V55.8594C229.735 55.5085 229.662 55.2054 229.517 54.9502C229.371 54.695 229.157 54.499 228.874 54.3623C228.591 54.2256 228.243 54.1572 227.828 54.1572C227.445 54.1572 227.104 54.2256 226.803 54.3623C226.507 54.4945 226.272 54.6745 226.099 54.9023C225.93 55.1257 225.846 55.374 225.846 55.6475L225.025 55.6406C225.025 55.3626 225.094 55.0938 225.23 54.834C225.367 54.5742 225.561 54.3418 225.812 54.1367C226.062 53.9316 226.361 53.7699 226.707 53.6514C227.058 53.5283 227.443 53.4668 227.862 53.4668C228.391 53.4668 228.856 53.5557 229.257 53.7334C229.662 53.9111 229.979 54.1777 230.207 54.5332C230.435 54.8887 230.549 55.3353 230.549 55.873V59.4482C230.549 59.7035 230.567 59.9678 230.604 60.2412C230.645 60.5146 230.701 60.7402 230.774 60.918V61H229.906C229.852 60.8359 229.808 60.6309 229.776 60.3848C229.749 60.1341 229.735 59.8971 229.735 59.6738ZM229.927 56.6934L229.94 57.3223H228.334C227.915 57.3223 227.539 57.361 227.206 57.4385C226.878 57.5114 226.6 57.6208 226.372 57.7666C226.144 57.9079 225.969 58.0788 225.846 58.2793C225.727 58.4798 225.668 58.7077 225.668 58.9629C225.668 59.2272 225.734 59.4688 225.866 59.6875C226.003 59.9062 226.194 60.0817 226.44 60.2139C226.691 60.3415 226.987 60.4053 227.329 60.4053C227.785 60.4053 228.186 60.321 228.532 60.1523C228.883 59.9837 229.173 59.7627 229.4 59.4893C229.628 59.2158 229.781 58.9173 229.858 58.5938L230.214 59.0654C230.155 59.2933 230.045 59.528 229.886 59.7695C229.731 60.0065 229.528 60.2298 229.277 60.4395C229.027 60.6445 228.73 60.8132 228.389 60.9453C228.051 61.0729 227.669 61.1367 227.24 61.1367C226.757 61.1367 226.336 61.0456 225.976 60.8633C225.62 60.681 225.342 60.4326 225.142 60.1182C224.946 59.7992 224.848 59.4391 224.848 59.0381C224.848 58.6735 224.925 58.3477 225.08 58.0605C225.235 57.7689 225.458 57.5228 225.75 57.3223C226.046 57.1172 226.402 56.9622 226.816 56.8574C227.236 56.748 227.705 56.6934 228.225 56.6934H229.927ZM233.557 55.1826V61H232.743V53.6035H233.522L233.557 55.1826ZM233.372 56.8438L233.01 56.6387C233.037 56.2012 233.126 55.791 233.276 55.4082C233.427 55.0254 233.63 54.6882 233.885 54.3965C234.145 54.1048 234.448 53.877 234.794 53.7129C235.145 53.5488 235.532 53.4668 235.956 53.4668C236.325 53.4668 236.656 53.5169 236.947 53.6172C237.239 53.7174 237.487 53.877 237.692 54.0957C237.897 54.3145 238.052 54.5947 238.157 54.9365C238.267 55.2783 238.321 55.6953 238.321 56.1875V61H237.501V56.1807C237.501 55.6702 237.43 55.2715 237.289 54.9844C237.148 54.6927 236.947 54.4854 236.688 54.3623C236.428 54.2393 236.12 54.1777 235.765 54.1777C235.373 54.1777 235.029 54.2643 234.732 54.4375C234.441 54.6061 234.195 54.8271 233.994 55.1006C233.798 55.3695 233.648 55.6589 233.543 55.9688C233.438 56.2741 233.381 56.5658 233.372 56.8438ZM245.246 59.5645V50.5H246.066V61H245.301L245.246 59.5645ZM240.112 57.377V57.2334C240.112 56.6592 240.178 56.1419 240.311 55.6816C240.443 55.2168 240.632 54.8203 240.878 54.4922C241.129 54.1595 241.429 53.9066 241.78 53.7334C242.131 53.5557 242.528 53.4668 242.97 53.4668C243.403 53.4668 243.785 53.5374 244.118 53.6787C244.451 53.82 244.736 54.0228 244.973 54.2871C245.214 54.5514 245.408 54.8659 245.554 55.2305C245.704 55.5951 245.813 56.0007 245.882 56.4473V58.2725C245.827 58.6917 245.727 59.0768 245.581 59.4277C245.435 59.7741 245.242 60.0771 245 60.3369C244.758 60.5921 244.467 60.7904 244.125 60.9316C243.788 61.0684 243.398 61.1367 242.956 61.1367C242.519 61.1367 242.124 61.0456 241.773 60.8633C241.423 60.681 241.124 60.4235 240.878 60.0908C240.632 59.7536 240.443 59.3548 240.311 58.8945C240.178 58.4342 240.112 57.9284 240.112 57.377ZM240.933 57.2334V57.377C240.933 57.8099 240.976 58.2109 241.062 58.5801C241.149 58.9492 241.281 59.2705 241.459 59.5439C241.637 59.8174 241.862 60.0316 242.136 60.1865C242.409 60.3415 242.733 60.4189 243.106 60.4189C243.576 60.4189 243.97 60.3301 244.289 60.1523C244.608 59.9701 244.863 59.7308 245.055 59.4346C245.246 59.1338 245.385 58.8057 245.472 58.4502V56.3242C245.417 56.0827 245.337 55.8366 245.232 55.5859C245.128 55.3353 244.984 55.1051 244.802 54.8955C244.624 54.6813 244.396 54.5104 244.118 54.3828C243.845 54.2507 243.512 54.1846 243.12 54.1846C242.742 54.1846 242.416 54.262 242.143 54.417C241.869 54.5719 241.641 54.7884 241.459 55.0664C241.281 55.3398 241.149 55.6611 241.062 56.0303C240.976 56.3994 240.933 56.8005 240.933 57.2334ZM247.769 57.418V57.1924C247.769 56.6546 247.846 56.1579 248.001 55.7021C248.156 55.2464 248.377 54.8522 248.664 54.5195C248.956 54.1868 249.304 53.9294 249.71 53.7471C250.116 53.5602 250.567 53.4668 251.063 53.4668C251.565 53.4668 252.018 53.5602 252.424 53.7471C252.829 53.9294 253.178 54.1868 253.47 54.5195C253.761 54.8522 253.985 55.2464 254.14 55.7021C254.295 56.1579 254.372 56.6546 254.372 57.1924V57.418C254.372 57.9557 254.295 58.4525 254.14 58.9082C253.985 59.3594 253.761 59.7513 253.47 60.084C253.183 60.4167 252.836 60.6764 252.431 60.8633C252.025 61.0456 251.574 61.1367 251.077 61.1367C250.576 61.1367 250.122 61.0456 249.717 60.8633C249.311 60.6764 248.963 60.4167 248.671 60.084C248.379 59.7513 248.156 59.3594 248.001 58.9082C247.846 58.4525 247.769 57.9557 247.769 57.418ZM248.582 57.1924V57.418C248.582 57.8236 248.637 58.2087 248.746 58.5732C248.855 58.9333 249.015 59.2546 249.225 59.5371C249.434 59.8151 249.694 60.0339 250.004 60.1934C250.314 60.3529 250.672 60.4326 251.077 60.4326C251.478 60.4326 251.831 60.3529 252.137 60.1934C252.447 60.0339 252.706 59.8151 252.916 59.5371C253.126 59.2546 253.283 58.9333 253.388 58.5732C253.497 58.2087 253.552 57.8236 253.552 57.418V57.1924C253.552 56.7913 253.497 56.4108 253.388 56.0508C253.283 55.6908 253.123 55.3695 252.909 55.0869C252.7 54.8044 252.44 54.5811 252.13 54.417C251.82 54.2529 251.465 54.1709 251.063 54.1709C250.662 54.1709 250.307 54.2529 249.997 54.417C249.692 54.5811 249.432 54.8044 249.218 55.0869C249.008 55.3695 248.849 55.6908 248.739 56.0508C248.634 56.4108 248.582 56.7913 248.582 57.1924ZM256.977 53.6035V61H256.163V53.6035H256.977ZM256.02 51.4639C256.02 51.3089 256.067 51.179 256.163 51.0742C256.263 50.9648 256.4 50.9102 256.573 50.9102C256.746 50.9102 256.883 50.9648 256.983 51.0742C257.088 51.179 257.141 51.3089 257.141 51.4639C257.141 51.6143 257.088 51.7441 256.983 51.8535C256.883 51.9583 256.746 52.0107 256.573 52.0107C256.4 52.0107 256.263 51.9583 256.163 51.8535C256.067 51.7441 256.02 51.6143 256.02 51.4639ZM263.71 59.6738V55.8594C263.71 55.5085 263.637 55.2054 263.491 54.9502C263.345 54.695 263.131 54.499 262.849 54.3623C262.566 54.2256 262.217 54.1572 261.803 54.1572C261.42 54.1572 261.078 54.2256 260.777 54.3623C260.481 54.4945 260.246 54.6745 260.073 54.9023C259.905 55.1257 259.82 55.374 259.82 55.6475L259 55.6406C259 55.3626 259.068 55.0938 259.205 54.834C259.342 54.5742 259.535 54.3418 259.786 54.1367C260.037 53.9316 260.335 53.7699 260.682 53.6514C261.033 53.5283 261.418 53.4668 261.837 53.4668C262.366 53.4668 262.83 53.5557 263.231 53.7334C263.637 53.9111 263.954 54.1777 264.182 54.5332C264.41 54.8887 264.523 55.3353 264.523 55.873V59.4482C264.523 59.7035 264.542 59.9678 264.578 60.2412C264.619 60.5146 264.676 60.7402 264.749 60.918V61H263.881C263.826 60.8359 263.783 60.6309 263.751 60.3848C263.724 60.1341 263.71 59.8971 263.71 59.6738ZM263.901 56.6934L263.915 57.3223H262.309C261.889 57.3223 261.513 57.361 261.181 57.4385C260.853 57.5114 260.575 57.6208 260.347 57.7666C260.119 57.9079 259.943 58.0788 259.82 58.2793C259.702 58.4798 259.643 58.7077 259.643 58.9629C259.643 59.2272 259.709 59.4688 259.841 59.6875C259.978 59.9062 260.169 60.0817 260.415 60.2139C260.666 60.3415 260.962 60.4053 261.304 60.4053C261.759 60.4053 262.16 60.321 262.507 60.1523C262.858 59.9837 263.147 59.7627 263.375 59.4893C263.603 59.2158 263.756 58.9173 263.833 58.5938L264.188 59.0654C264.129 59.2933 264.02 59.528 263.86 59.7695C263.705 60.0065 263.503 60.2298 263.252 60.4395C263.001 60.6445 262.705 60.8132 262.363 60.9453C262.026 61.0729 261.643 61.1367 261.215 61.1367C260.732 61.1367 260.31 61.0456 259.95 60.8633C259.595 60.681 259.317 60.4326 259.116 60.1182C258.92 59.7992 258.822 59.4391 258.822 59.0381C258.822 58.6735 258.9 58.3477 259.055 58.0605C259.21 57.7689 259.433 57.5228 259.725 57.3223C260.021 57.1172 260.376 56.9622 260.791 56.8574C261.21 56.748 261.68 56.6934 262.199 56.6934H263.901ZM271.147 59.1133C271.147 58.9128 271.097 58.7145 270.997 58.5186C270.897 58.3226 270.703 58.1426 270.416 57.9785C270.133 57.8145 269.716 57.6755 269.165 57.5615C268.755 57.4704 268.388 57.3678 268.064 57.2539C267.745 57.14 267.477 57.0033 267.258 56.8438C267.039 56.6842 266.873 56.4928 266.759 56.2695C266.645 56.0462 266.588 55.7819 266.588 55.4766C266.588 55.2031 266.647 54.9456 266.766 54.7041C266.889 54.458 267.062 54.2438 267.285 54.0615C267.513 53.8747 267.786 53.7288 268.105 53.624C268.429 53.5192 268.791 53.4668 269.192 53.4668C269.762 53.4668 270.25 53.5648 270.655 53.7607C271.065 53.9521 271.378 54.2142 271.592 54.5469C271.811 54.8796 271.92 55.2555 271.92 55.6748H271.106C271.106 55.4196 271.031 55.1781 270.881 54.9502C270.735 54.7223 270.519 54.5355 270.231 54.3896C269.949 54.2438 269.603 54.1709 269.192 54.1709C268.769 54.1709 268.424 54.2347 268.16 54.3623C267.896 54.4899 267.702 54.6517 267.579 54.8477C267.461 55.0436 267.401 55.2464 267.401 55.4561C267.401 55.6201 267.426 55.7705 267.477 55.9072C267.531 56.0394 267.627 56.1624 267.764 56.2764C267.905 56.3903 268.105 56.4974 268.365 56.5977C268.625 56.6979 268.962 56.7959 269.377 56.8916C269.974 57.0238 270.462 57.1855 270.84 57.377C271.223 57.5638 271.505 57.7962 271.688 58.0742C271.87 58.3477 271.961 58.6803 271.961 59.0723C271.961 59.3776 271.897 59.6579 271.77 59.9131C271.642 60.1637 271.457 60.3802 271.216 60.5625C270.979 60.7448 270.692 60.8861 270.354 60.9863C270.022 61.0866 269.648 61.1367 269.233 61.1367C268.609 61.1367 268.08 61.0342 267.647 60.8291C267.219 60.6195 266.893 60.346 266.67 60.0088C266.451 59.667 266.342 59.3047 266.342 58.9219H267.155C267.183 59.3047 267.303 59.6077 267.518 59.8311C267.732 60.0498 267.994 60.2048 268.304 60.2959C268.618 60.387 268.928 60.4326 269.233 60.4326C269.653 60.4326 270.004 60.3711 270.286 60.248C270.569 60.125 270.783 59.9632 270.929 59.7627C271.075 59.5622 271.147 59.3457 271.147 59.1133ZM274.627 55.1826V61H273.813V53.6035H274.593L274.627 55.1826ZM274.442 56.8438L274.08 56.6387C274.107 56.2012 274.196 55.791 274.347 55.4082C274.497 55.0254 274.7 54.6882 274.955 54.3965C275.215 54.1048 275.518 53.877 275.864 53.7129C276.215 53.5488 276.603 53.4668 277.026 53.4668C277.396 53.4668 277.726 53.5169 278.018 53.6172C278.309 53.7174 278.558 53.877 278.763 54.0957C278.968 54.3145 279.123 54.5947 279.228 54.9365C279.337 55.2783 279.392 55.6953 279.392 56.1875V61H278.571V56.1807C278.571 55.6702 278.501 55.2715 278.359 54.9844C278.218 54.6927 278.018 54.4854 277.758 54.3623C277.498 54.2393 277.19 54.1777 276.835 54.1777C276.443 54.1777 276.099 54.2643 275.803 54.4375C275.511 54.6061 275.265 54.8271 275.064 55.1006C274.868 55.3695 274.718 55.6589 274.613 55.9688C274.508 56.2741 274.451 56.5658 274.442 56.8438ZM286.316 59.5645V50.5H287.137V61H286.371L286.316 59.5645ZM281.183 57.377V57.2334C281.183 56.6592 281.249 56.1419 281.381 55.6816C281.513 55.2168 281.702 54.8203 281.948 54.4922C282.199 54.1595 282.5 53.9066 282.851 53.7334C283.201 53.5557 283.598 53.4668 284.04 53.4668C284.473 53.4668 284.856 53.5374 285.188 53.6787C285.521 53.82 285.806 54.0228 286.043 54.2871C286.285 54.5514 286.478 54.8659 286.624 55.2305C286.774 55.5951 286.884 56.0007 286.952 56.4473V58.2725C286.897 58.6917 286.797 59.0768 286.651 59.4277C286.506 59.7741 286.312 60.0771 286.07 60.3369C285.829 60.5921 285.537 60.7904 285.195 60.9316C284.858 61.0684 284.468 61.1367 284.026 61.1367C283.589 61.1367 283.195 61.0456 282.844 60.8633C282.493 60.681 282.194 60.4235 281.948 60.0908C281.702 59.7536 281.513 59.3548 281.381 58.8945C281.249 58.4342 281.183 57.9284 281.183 57.377ZM282.003 57.2334V57.377C282.003 57.8099 282.046 58.2109 282.133 58.5801C282.219 58.9492 282.352 59.2705 282.529 59.5439C282.707 59.8174 282.933 60.0316 283.206 60.1865C283.479 60.3415 283.803 60.4189 284.177 60.4189C284.646 60.4189 285.04 60.3301 285.359 60.1523C285.678 59.9701 285.934 59.7308 286.125 59.4346C286.316 59.1338 286.455 58.8057 286.542 58.4502V56.3242C286.487 56.0827 286.408 55.8366 286.303 55.5859C286.198 55.3353 286.054 55.1051 285.872 54.8955C285.694 54.6813 285.466 54.5104 285.188 54.3828C284.915 54.2507 284.582 54.1846 284.19 54.1846C283.812 54.1846 283.486 54.262 283.213 54.417C282.939 54.5719 282.712 54.7884 282.529 55.0664C282.352 55.3398 282.219 55.6611 282.133 56.0303C282.046 56.3994 282.003 56.8005 282.003 57.2334ZM126.622 73.418V73.1924C126.622 72.6546 126.7 72.1579 126.854 71.7021C127.009 71.2464 127.23 70.8522 127.518 70.5195C127.809 70.1868 128.158 69.9294 128.563 69.7471C128.969 69.5602 129.42 69.4668 129.917 69.4668C130.418 69.4668 130.872 69.5602 131.277 69.7471C131.683 69.9294 132.032 70.1868 132.323 70.5195C132.615 70.8522 132.838 71.2464 132.993 71.7021C133.148 72.1579 133.226 72.6546 133.226 73.1924V73.418C133.226 73.9557 133.148 74.4525 132.993 74.9082C132.838 75.3594 132.615 75.7513 132.323 76.084C132.036 76.4167 131.69 76.6764 131.284 76.8633C130.879 77.0456 130.427 77.1367 129.931 77.1367C129.429 77.1367 128.976 77.0456 128.57 76.8633C128.165 76.6764 127.816 76.4167 127.524 76.084C127.233 75.7513 127.009 75.3594 126.854 74.9082C126.7 74.4525 126.622 73.9557 126.622 73.418ZM127.436 73.1924V73.418C127.436 73.8236 127.49 74.2087 127.6 74.5732C127.709 74.9333 127.868 75.2546 128.078 75.5371C128.288 75.8151 128.548 76.0339 128.857 76.1934C129.167 76.3529 129.525 76.4326 129.931 76.4326C130.332 76.4326 130.685 76.3529 130.99 76.1934C131.3 76.0339 131.56 75.8151 131.77 75.5371C131.979 75.2546 132.136 74.9333 132.241 74.5732C132.351 74.2087 132.405 73.8236 132.405 73.418V73.1924C132.405 72.7913 132.351 72.4108 132.241 72.0508C132.136 71.6908 131.977 71.3695 131.763 71.0869C131.553 70.8044 131.293 70.5811 130.983 70.417C130.674 70.2529 130.318 70.1709 129.917 70.1709C129.516 70.1709 129.16 70.2529 128.851 70.417C128.545 70.5811 128.285 70.8044 128.071 71.0869C127.862 71.3695 127.702 71.6908 127.593 72.0508C127.488 72.4108 127.436 72.7913 127.436 73.1924ZM135.83 69.6035V77H135.017V69.6035H135.83ZM134.873 67.4639C134.873 67.3089 134.921 67.179 135.017 67.0742C135.117 66.9648 135.254 66.9102 135.427 66.9102C135.6 66.9102 135.737 66.9648 135.837 67.0742C135.942 67.179 135.994 67.3089 135.994 67.4639C135.994 67.6143 135.942 67.7441 135.837 67.8535C135.737 67.9583 135.6 68.0107 135.427 68.0107C135.254 68.0107 135.117 67.9583 135.017 67.8535C134.921 67.7441 134.873 67.6143 134.873 67.4639ZM138.879 71.1826V77H138.065V69.6035H138.845L138.879 71.1826ZM138.694 72.8438L138.332 72.6387C138.359 72.2012 138.448 71.791 138.599 71.4082C138.749 71.0254 138.952 70.6882 139.207 70.3965C139.467 70.1048 139.77 69.877 140.116 69.7129C140.467 69.5488 140.854 69.4668 141.278 69.4668C141.647 69.4668 141.978 69.5169 142.27 69.6172C142.561 69.7174 142.81 69.877 143.015 70.0957C143.22 70.3145 143.375 70.5947 143.479 70.9365C143.589 71.2783 143.644 71.6953 143.644 72.1875V77H142.823V72.1807C142.823 71.6702 142.753 71.2715 142.611 70.9844C142.47 70.6927 142.27 70.4854 142.01 70.3623C141.75 70.2393 141.442 70.1777 141.087 70.1777C140.695 70.1777 140.351 70.2643 140.055 70.4375C139.763 70.6061 139.517 70.8271 139.316 71.1006C139.12 71.3695 138.97 71.6589 138.865 71.9688C138.76 72.2741 138.703 72.5658 138.694 72.8438ZM150.261 75.6738V71.8594C150.261 71.5085 150.188 71.2054 150.042 70.9502C149.896 70.695 149.682 70.499 149.399 70.3623C149.117 70.2256 148.768 70.1572 148.354 70.1572C147.971 70.1572 147.629 70.2256 147.328 70.3623C147.032 70.4945 146.797 70.6745 146.624 70.9023C146.455 71.1257 146.371 71.374 146.371 71.6475L145.551 71.6406C145.551 71.3626 145.619 71.0938 145.756 70.834C145.893 70.5742 146.086 70.3418 146.337 70.1367C146.588 69.9316 146.886 69.7699 147.232 69.6514C147.583 69.5283 147.968 69.4668 148.388 69.4668C148.916 69.4668 149.381 69.5557 149.782 69.7334C150.188 69.9111 150.505 70.1777 150.732 70.5332C150.96 70.8887 151.074 71.3353 151.074 71.873V75.4482C151.074 75.7035 151.092 75.9678 151.129 76.2412C151.17 76.5146 151.227 76.7402 151.3 76.918V77H150.432C150.377 76.8359 150.334 76.6309 150.302 76.3848C150.274 76.1341 150.261 75.8971 150.261 75.6738ZM150.452 72.6934L150.466 73.3223H148.859C148.44 73.3223 148.064 73.361 147.731 73.4385C147.403 73.5114 147.125 73.6208 146.897 73.7666C146.67 73.9079 146.494 74.0788 146.371 74.2793C146.253 74.4798 146.193 74.7077 146.193 74.9629C146.193 75.2272 146.259 75.4688 146.392 75.6875C146.528 75.9062 146.72 76.0817 146.966 76.2139C147.216 76.3415 147.513 76.4053 147.854 76.4053C148.31 76.4053 148.711 76.321 149.058 76.1523C149.409 75.9837 149.698 75.7627 149.926 75.4893C150.154 75.2158 150.306 74.9173 150.384 74.5938L150.739 75.0654C150.68 75.2933 150.571 75.528 150.411 75.7695C150.256 76.0065 150.053 76.2298 149.803 76.4395C149.552 76.6445 149.256 76.8132 148.914 76.9453C148.577 77.0729 148.194 77.1367 147.766 77.1367C147.283 77.1367 146.861 77.0456 146.501 76.8633C146.146 76.681 145.868 76.4326 145.667 76.1182C145.471 75.7992 145.373 75.4391 145.373 75.0381C145.373 74.6735 145.451 74.3477 145.605 74.0605C145.76 73.7689 145.984 73.5228 146.275 73.3223C146.572 73.1172 146.927 72.9622 147.342 72.8574C147.761 72.748 148.23 72.6934 148.75 72.6934H150.452ZM157.698 75.1133C157.698 74.9128 157.648 74.7145 157.548 74.5186C157.448 74.3226 157.254 74.1426 156.967 73.9785C156.684 73.8145 156.267 73.6755 155.716 73.5615C155.306 73.4704 154.939 73.3678 154.615 73.2539C154.296 73.14 154.027 73.0033 153.809 72.8438C153.59 72.6842 153.424 72.4928 153.31 72.2695C153.196 72.0462 153.139 71.7819 153.139 71.4766C153.139 71.2031 153.198 70.9456 153.316 70.7041C153.439 70.458 153.613 70.2438 153.836 70.0615C154.064 69.8747 154.337 69.7288 154.656 69.624C154.98 69.5192 155.342 69.4668 155.743 69.4668C156.313 69.4668 156.8 69.5648 157.206 69.7607C157.616 69.9521 157.928 70.2142 158.143 70.5469C158.361 70.8796 158.471 71.2555 158.471 71.6748H157.657C157.657 71.4196 157.582 71.1781 157.432 70.9502C157.286 70.7223 157.069 70.5355 156.782 70.3896C156.5 70.2438 156.153 70.1709 155.743 70.1709C155.319 70.1709 154.975 70.2347 154.711 70.3623C154.447 70.4899 154.253 70.6517 154.13 70.8477C154.011 71.0436 153.952 71.2464 153.952 71.4561C153.952 71.6201 153.977 71.7705 154.027 71.9072C154.082 72.0394 154.178 72.1624 154.314 72.2764C154.456 72.3903 154.656 72.4974 154.916 72.5977C155.176 72.6979 155.513 72.7959 155.928 72.8916C156.525 73.0238 157.012 73.1855 157.391 73.377C157.773 73.5638 158.056 73.7962 158.238 74.0742C158.421 74.3477 158.512 74.6803 158.512 75.0723C158.512 75.3776 158.448 75.6579 158.32 75.9131C158.193 76.1637 158.008 76.3802 157.767 76.5625C157.53 76.7448 157.243 76.8861 156.905 76.9863C156.573 77.0866 156.199 77.1367 155.784 77.1367C155.16 77.1367 154.631 77.0342 154.198 76.8291C153.77 76.6195 153.444 76.346 153.221 76.0088C153.002 75.667 152.893 75.3047 152.893 74.9219H153.706C153.733 75.3047 153.854 75.6077 154.068 75.8311C154.283 76.0498 154.545 76.2048 154.854 76.2959C155.169 76.387 155.479 76.4326 155.784 76.4326C156.203 76.4326 156.554 76.3711 156.837 76.248C157.119 76.125 157.334 75.9632 157.479 75.7627C157.625 75.5622 157.698 75.3457 157.698 75.1133ZM159.913 73.418V73.1924C159.913 72.6546 159.991 72.1579 160.146 71.7021C160.3 71.2464 160.521 70.8522 160.809 70.5195C161.1 70.1868 161.449 69.9294 161.854 69.7471C162.26 69.5602 162.711 69.4668 163.208 69.4668C163.709 69.4668 164.163 69.5602 164.568 69.7471C164.974 69.9294 165.323 70.1868 165.614 70.5195C165.906 70.8522 166.129 71.2464 166.284 71.7021C166.439 72.1579 166.517 72.6546 166.517 73.1924V73.418C166.517 73.9557 166.439 74.4525 166.284 74.9082C166.129 75.3594 165.906 75.7513 165.614 76.084C165.327 76.4167 164.981 76.6764 164.575 76.8633C164.17 77.0456 163.718 77.1367 163.222 77.1367C162.72 77.1367 162.267 77.0456 161.861 76.8633C161.456 76.6764 161.107 76.4167 160.815 76.084C160.524 75.7513 160.3 75.3594 160.146 74.9082C159.991 74.4525 159.913 73.9557 159.913 73.418ZM160.727 73.1924V73.418C160.727 73.8236 160.781 74.2087 160.891 74.5732C161 74.9333 161.16 75.2546 161.369 75.5371C161.579 75.8151 161.839 76.0339 162.148 76.1934C162.458 76.3529 162.816 76.4326 163.222 76.4326C163.623 76.4326 163.976 76.3529 164.281 76.1934C164.591 76.0339 164.851 75.8151 165.061 75.5371C165.27 75.2546 165.427 74.9333 165.532 74.5732C165.642 74.2087 165.696 73.8236 165.696 73.418V73.1924C165.696 72.7913 165.642 72.4108 165.532 72.0508C165.427 71.6908 165.268 71.3695 165.054 71.0869C164.844 70.8044 164.584 70.5811 164.274 70.417C163.965 70.2529 163.609 70.1709 163.208 70.1709C162.807 70.1709 162.451 70.2529 162.142 70.417C161.836 70.5811 161.576 70.8044 161.362 71.0869C161.153 71.3695 160.993 71.6908 160.884 72.0508C160.779 72.4108 160.727 72.7913 160.727 73.1924ZM169.121 69.6035V77H168.308V69.6035H169.121ZM168.164 67.4639C168.164 67.3089 168.212 67.179 168.308 67.0742C168.408 66.9648 168.545 66.9102 168.718 66.9102C168.891 66.9102 169.028 66.9648 169.128 67.0742C169.233 67.179 169.285 67.3089 169.285 67.4639C169.285 67.6143 169.233 67.7441 169.128 67.8535C169.028 67.9583 168.891 68.0107 168.718 68.0107C168.545 68.0107 168.408 67.9583 168.308 67.8535C168.212 67.7441 168.164 67.6143 168.164 67.4639ZM171.678 69.6035L173.674 72.5908L175.677 69.6035H176.647L174.139 73.2266L176.75 77H175.793L173.681 73.876L171.575 77H170.618L173.229 73.2266L170.721 69.6035H171.678ZM178.992 71.1826V77H178.179V69.6035H178.958L178.992 71.1826ZM178.808 72.8438L178.445 72.6387C178.473 72.2012 178.562 71.791 178.712 71.4082C178.862 71.0254 179.065 70.6882 179.32 70.3965C179.58 70.1048 179.883 69.877 180.229 69.7129C180.58 69.5488 180.968 69.4668 181.392 69.4668C181.761 69.4668 182.091 69.5169 182.383 69.6172C182.674 69.7174 182.923 69.877 183.128 70.0957C183.333 70.3145 183.488 70.5947 183.593 70.9365C183.702 71.2783 183.757 71.6953 183.757 72.1875V77H182.937V72.1807C182.937 71.6702 182.866 71.2715 182.725 70.9844C182.583 70.6927 182.383 70.4854 182.123 70.3623C181.863 70.2393 181.556 70.1777 181.2 70.1777C180.808 70.1777 180.464 70.2643 180.168 70.4375C179.876 70.6061 179.63 70.8271 179.43 71.1006C179.234 71.3695 179.083 71.6589 178.979 71.9688C178.874 72.2741 178.817 72.5658 178.808 72.8438ZM190.374 75.6738V71.8594C190.374 71.5085 190.301 71.2054 190.155 70.9502C190.009 70.695 189.795 70.499 189.513 70.3623C189.23 70.2256 188.882 70.1572 188.467 70.1572C188.084 70.1572 187.742 70.2256 187.441 70.3623C187.145 70.4945 186.91 70.6745 186.737 70.9023C186.569 71.1257 186.484 71.374 186.484 71.6475L185.664 71.6406C185.664 71.3626 185.732 71.0938 185.869 70.834C186.006 70.5742 186.2 70.3418 186.45 70.1367C186.701 69.9316 186.999 69.7699 187.346 69.6514C187.697 69.5283 188.082 69.4668 188.501 69.4668C189.03 69.4668 189.494 69.5557 189.896 69.7334C190.301 69.9111 190.618 70.1777 190.846 70.5332C191.074 70.8887 191.188 71.3353 191.188 71.873V75.4482C191.188 75.7035 191.206 75.9678 191.242 76.2412C191.283 76.5146 191.34 76.7402 191.413 76.918V77H190.545C190.49 76.8359 190.447 76.6309 190.415 76.3848C190.388 76.1341 190.374 75.8971 190.374 75.6738ZM190.565 72.6934L190.579 73.3223H188.973C188.553 73.3223 188.177 73.361 187.845 73.4385C187.517 73.5114 187.239 73.6208 187.011 73.7666C186.783 73.9079 186.607 74.0788 186.484 74.2793C186.366 74.4798 186.307 74.7077 186.307 74.9629C186.307 75.2272 186.373 75.4688 186.505 75.6875C186.642 75.9062 186.833 76.0817 187.079 76.2139C187.33 76.3415 187.626 76.4053 187.968 76.4053C188.424 76.4053 188.825 76.321 189.171 76.1523C189.522 75.9837 189.811 75.7627 190.039 75.4893C190.267 75.2158 190.42 74.9173 190.497 74.5938L190.853 75.0654C190.793 75.2933 190.684 75.528 190.524 75.7695C190.369 76.0065 190.167 76.2298 189.916 76.4395C189.665 76.6445 189.369 76.8132 189.027 76.9453C188.69 77.0729 188.307 77.1367 187.879 77.1367C187.396 77.1367 186.974 77.0456 186.614 76.8633C186.259 76.681 185.981 76.4326 185.78 76.1182C185.584 75.7992 185.486 75.4391 185.486 75.0381C185.486 74.6735 185.564 74.3477 185.719 74.0605C185.874 73.7689 186.097 73.5228 186.389 73.3223C186.685 73.1172 187.04 72.9622 187.455 72.8574C187.874 72.748 188.344 72.6934 188.863 72.6934H190.565ZM192.931 73.418V73.1924C192.931 72.6546 193.008 72.1579 193.163 71.7021C193.318 71.2464 193.539 70.8522 193.826 70.5195C194.118 70.1868 194.466 69.9294 194.872 69.7471C195.278 69.5602 195.729 69.4668 196.226 69.4668C196.727 69.4668 197.18 69.5602 197.586 69.7471C197.992 69.9294 198.34 70.1868 198.632 70.5195C198.924 70.8522 199.147 71.2464 199.302 71.7021C199.457 72.1579 199.534 72.6546 199.534 73.1924V73.418C199.534 73.9557 199.457 74.4525 199.302 74.9082C199.147 75.3594 198.924 75.7513 198.632 76.084C198.345 76.4167 197.998 76.6764 197.593 76.8633C197.187 77.0456 196.736 77.1367 196.239 77.1367C195.738 77.1367 195.285 77.0456 194.879 76.8633C194.473 76.6764 194.125 76.4167 193.833 76.084C193.541 75.7513 193.318 75.3594 193.163 74.9082C193.008 74.4525 192.931 73.9557 192.931 73.418ZM193.744 73.1924V73.418C193.744 73.8236 193.799 74.2087 193.908 74.5732C194.018 74.9333 194.177 75.2546 194.387 75.5371C194.596 75.8151 194.856 76.0339 195.166 76.1934C195.476 76.3529 195.834 76.4326 196.239 76.4326C196.64 76.4326 196.993 76.3529 197.299 76.1934C197.609 76.0339 197.868 75.8151 198.078 75.5371C198.288 75.2546 198.445 74.9333 198.55 74.5732C198.659 74.2087 198.714 73.8236 198.714 73.418V73.1924C198.714 72.7913 198.659 72.4108 198.55 72.0508C198.445 71.6908 198.285 71.3695 198.071 71.0869C197.862 70.8044 197.602 70.5811 197.292 70.417C196.982 70.2529 196.627 70.1709 196.226 70.1709C195.825 70.1709 195.469 70.2529 195.159 70.417C194.854 70.5811 194.594 70.8044 194.38 71.0869C194.17 71.3695 194.011 71.6908 193.901 72.0508C193.797 72.4108 193.744 72.7913 193.744 73.1924ZM202.139 69.6035V77H201.325V69.6035H202.139ZM201.182 67.4639C201.182 67.3089 201.229 67.179 201.325 67.0742C201.425 66.9648 201.562 66.9102 201.735 66.9102C201.909 66.9102 202.045 66.9648 202.146 67.0742C202.25 67.179 202.303 67.3089 202.303 67.4639C202.303 67.6143 202.25 67.7441 202.146 67.8535C202.045 67.9583 201.909 68.0107 201.735 68.0107C201.562 68.0107 201.425 67.9583 201.325 67.8535C201.229 67.7441 201.182 67.6143 201.182 67.4639ZM208.804 75.1133C208.804 74.9128 208.754 74.7145 208.653 74.5186C208.553 74.3226 208.359 74.1426 208.072 73.9785C207.79 73.8145 207.373 73.6755 206.821 73.5615C206.411 73.4704 206.044 73.3678 205.721 73.2539C205.402 73.14 205.133 73.0033 204.914 72.8438C204.695 72.6842 204.529 72.4928 204.415 72.2695C204.301 72.0462 204.244 71.7819 204.244 71.4766C204.244 71.2031 204.303 70.9456 204.422 70.7041C204.545 70.458 204.718 70.2438 204.941 70.0615C205.169 69.8747 205.443 69.7288 205.762 69.624C206.085 69.5192 206.448 69.4668 206.849 69.4668C207.418 69.4668 207.906 69.5648 208.312 69.7607C208.722 69.9521 209.034 70.2142 209.248 70.5469C209.467 70.8796 209.576 71.2555 209.576 71.6748H208.763C208.763 71.4196 208.688 71.1781 208.537 70.9502C208.391 70.7223 208.175 70.5355 207.888 70.3896C207.605 70.2438 207.259 70.1709 206.849 70.1709C206.425 70.1709 206.081 70.2347 205.816 70.3623C205.552 70.4899 205.358 70.6517 205.235 70.8477C205.117 71.0436 205.058 71.2464 205.058 71.4561C205.058 71.6201 205.083 71.7705 205.133 71.9072C205.188 72.0394 205.283 72.1624 205.42 72.2764C205.561 72.3903 205.762 72.4974 206.021 72.5977C206.281 72.6979 206.618 72.7959 207.033 72.8916C207.63 73.0238 208.118 73.1855 208.496 73.377C208.879 73.5638 209.161 73.7962 209.344 74.0742C209.526 74.3477 209.617 74.6803 209.617 75.0723C209.617 75.3776 209.553 75.6579 209.426 75.9131C209.298 76.1637 209.114 76.3802 208.872 76.5625C208.635 76.7448 208.348 76.8861 208.011 76.9863C207.678 77.0866 207.304 77.1367 206.89 77.1367C206.265 77.1367 205.737 77.0342 205.304 76.8291C204.875 76.6195 204.549 76.346 204.326 76.0088C204.107 75.667 203.998 75.3047 203.998 74.9219H204.812C204.839 75.3047 204.96 75.6077 205.174 75.8311C205.388 76.0498 205.65 76.2048 205.96 76.2959C206.274 76.387 206.584 76.4326 206.89 76.4326C207.309 76.4326 207.66 76.3711 207.942 76.248C208.225 76.125 208.439 75.9632 208.585 75.7627C208.731 75.5622 208.804 75.3457 208.804 75.1133ZM212.283 71.1826V77H211.47V69.6035H212.249L212.283 71.1826ZM212.099 72.8438L211.736 72.6387C211.764 72.2012 211.853 71.791 212.003 71.4082C212.153 71.0254 212.356 70.6882 212.611 70.3965C212.871 70.1048 213.174 69.877 213.521 69.7129C213.871 69.5488 214.259 69.4668 214.683 69.4668C215.052 69.4668 215.382 69.5169 215.674 69.6172C215.965 69.7174 216.214 69.877 216.419 70.0957C216.624 70.3145 216.779 70.5947 216.884 70.9365C216.993 71.2783 217.048 71.6953 217.048 72.1875V77H216.228V72.1807C216.228 71.6702 216.157 71.2715 216.016 70.9844C215.874 70.6927 215.674 70.4854 215.414 70.3623C215.154 70.2393 214.847 70.1777 214.491 70.1777C214.099 70.1777 213.755 70.2643 213.459 70.4375C213.167 70.6061 212.921 70.8271 212.721 71.1006C212.525 71.3695 212.374 71.6589 212.27 71.9688C212.165 72.2741 212.108 72.5658 212.099 72.8438ZM219.488 69.6035L221.484 72.5908L223.487 69.6035H224.458L221.949 73.2266L224.561 77H223.604L221.491 73.876L219.386 77H218.429L221.04 73.2266L218.531 69.6035H219.488ZM225.401 73.418V73.1924C225.401 72.6546 225.479 72.1579 225.634 71.7021C225.789 71.2464 226.01 70.8522 226.297 70.5195C226.589 70.1868 226.937 69.9294 227.343 69.7471C227.748 69.5602 228.2 69.4668 228.696 69.4668C229.198 69.4668 229.651 69.5602 230.057 69.7471C230.462 69.9294 230.811 70.1868 231.103 70.5195C231.394 70.8522 231.618 71.2464 231.772 71.7021C231.927 72.1579 232.005 72.6546 232.005 73.1924V73.418C232.005 73.9557 231.927 74.4525 231.772 74.9082C231.618 75.3594 231.394 75.7513 231.103 76.084C230.815 76.4167 230.469 76.6764 230.063 76.8633C229.658 77.0456 229.207 77.1367 228.71 77.1367C228.209 77.1367 227.755 77.0456 227.35 76.8633C226.944 76.6764 226.595 76.4167 226.304 76.084C226.012 75.7513 225.789 75.3594 225.634 74.9082C225.479 74.4525 225.401 73.9557 225.401 73.418ZM226.215 73.1924V73.418C226.215 73.8236 226.27 74.2087 226.379 74.5732C226.488 74.9333 226.648 75.2546 226.857 75.5371C227.067 75.8151 227.327 76.0339 227.637 76.1934C227.947 76.3529 228.304 76.4326 228.71 76.4326C229.111 76.4326 229.464 76.3529 229.77 76.1934C230.079 76.0339 230.339 75.8151 230.549 75.5371C230.758 75.2546 230.916 74.9333 231.021 74.5732C231.13 74.2087 231.185 73.8236 231.185 73.418V73.1924C231.185 72.7913 231.13 72.4108 231.021 72.0508C230.916 71.6908 230.756 71.3695 230.542 71.0869C230.332 70.8044 230.073 70.5811 229.763 70.417C229.453 70.2529 229.097 70.1709 228.696 70.1709C228.295 70.1709 227.94 70.2529 227.63 70.417C227.325 70.5811 227.065 70.8044 226.851 71.0869C226.641 71.3695 226.481 71.6908 226.372 72.0508C226.267 72.4108 226.215 72.7913 226.215 73.1924ZM234.609 69.6035V77H233.796V69.6035H234.609ZM233.652 67.4639C233.652 67.3089 233.7 67.179 233.796 67.0742C233.896 66.9648 234.033 66.9102 234.206 66.9102C234.379 66.9102 234.516 66.9648 234.616 67.0742C234.721 67.179 234.773 67.3089 234.773 67.4639C234.773 67.6143 234.721 67.7441 234.616 67.8535C234.516 67.9583 234.379 68.0107 234.206 68.0107C234.033 68.0107 233.896 67.9583 233.796 67.8535C233.7 67.7441 233.652 67.6143 233.652 67.4639ZM241.343 75.6738V71.8594C241.343 71.5085 241.27 71.2054 241.124 70.9502C240.978 70.695 240.764 70.499 240.481 70.3623C240.199 70.2256 239.85 70.1572 239.436 70.1572C239.053 70.1572 238.711 70.2256 238.41 70.3623C238.114 70.4945 237.879 70.6745 237.706 70.9023C237.537 71.1257 237.453 71.374 237.453 71.6475L236.633 71.6406C236.633 71.3626 236.701 71.0938 236.838 70.834C236.975 70.5742 237.168 70.3418 237.419 70.1367C237.67 69.9316 237.968 69.7699 238.314 69.6514C238.665 69.5283 239.05 69.4668 239.47 69.4668C239.998 69.4668 240.463 69.5557 240.864 69.7334C241.27 69.9111 241.587 70.1777 241.814 70.5332C242.042 70.8887 242.156 71.3353 242.156 71.873V75.4482C242.156 75.7035 242.174 75.9678 242.211 76.2412C242.252 76.5146 242.309 76.7402 242.382 76.918V77H241.514C241.459 76.8359 241.416 76.6309 241.384 76.3848C241.356 76.1341 241.343 75.8971 241.343 75.6738ZM241.534 72.6934L241.548 73.3223H239.941C239.522 73.3223 239.146 73.361 238.813 73.4385C238.485 73.5114 238.207 73.6208 237.979 73.7666C237.752 73.9079 237.576 74.0788 237.453 74.2793C237.335 74.4798 237.275 74.7077 237.275 74.9629C237.275 75.2272 237.341 75.4688 237.474 75.6875C237.61 75.9062 237.802 76.0817 238.048 76.2139C238.299 76.3415 238.595 76.4053 238.937 76.4053C239.392 76.4053 239.793 76.321 240.14 76.1523C240.491 75.9837 240.78 75.7627 241.008 75.4893C241.236 75.2158 241.388 74.9173 241.466 74.5938L241.821 75.0654C241.762 75.2933 241.653 75.528 241.493 75.7695C241.338 76.0065 241.135 76.2298 240.885 76.4395C240.634 76.6445 240.338 76.8132 239.996 76.9453C239.659 77.0729 239.276 77.1367 238.848 77.1367C238.365 77.1367 237.943 77.0456 237.583 76.8633C237.228 76.681 236.95 76.4326 236.749 76.1182C236.553 75.7992 236.455 75.4391 236.455 75.0381C236.455 74.6735 236.533 74.3477 236.688 74.0605C236.842 73.7689 237.066 73.5228 237.357 73.3223C237.654 73.1172 238.009 72.9622 238.424 72.8574C238.843 72.748 239.312 72.6934 239.832 72.6934H241.534ZM245.164 71.1826V77H244.351V69.6035H245.13L245.164 71.1826ZM244.979 72.8438L244.617 72.6387C244.645 72.2012 244.733 71.791 244.884 71.4082C245.034 71.0254 245.237 70.6882 245.492 70.3965C245.752 70.1048 246.055 69.877 246.401 69.7129C246.752 69.5488 247.14 69.4668 247.563 69.4668C247.933 69.4668 248.263 69.5169 248.555 69.6172C248.846 69.7174 249.095 69.877 249.3 70.0957C249.505 70.3145 249.66 70.5947 249.765 70.9365C249.874 71.2783 249.929 71.6953 249.929 72.1875V77H249.108V72.1807C249.108 71.6702 249.038 71.2715 248.896 70.9844C248.755 70.6927 248.555 70.4854 248.295 70.3623C248.035 70.2393 247.728 70.1777 247.372 70.1777C246.98 70.1777 246.636 70.2643 246.34 70.4375C246.048 70.6061 245.802 70.8271 245.602 71.1006C245.406 71.3695 245.255 71.6589 245.15 71.9688C245.046 72.2741 244.989 72.5658 244.979 72.8438ZM252.369 69.6035L254.365 72.5908L256.368 69.6035H257.339L254.83 73.2266L257.441 77H256.484L254.372 73.876L252.267 77H251.31L253.921 73.2266L251.412 69.6035H252.369ZM258.282 73.418V73.1924C258.282 72.6546 258.36 72.1579 258.515 71.7021C258.67 71.2464 258.891 70.8522 259.178 70.5195C259.469 70.1868 259.818 69.9294 260.224 69.7471C260.629 69.5602 261.08 69.4668 261.577 69.4668C262.078 69.4668 262.532 69.5602 262.938 69.7471C263.343 69.9294 263.692 70.1868 263.983 70.5195C264.275 70.8522 264.498 71.2464 264.653 71.7021C264.808 72.1579 264.886 72.6546 264.886 73.1924V73.418C264.886 73.9557 264.808 74.4525 264.653 74.9082C264.498 75.3594 264.275 75.7513 263.983 76.084C263.696 76.4167 263.35 76.6764 262.944 76.8633C262.539 77.0456 262.088 77.1367 261.591 77.1367C261.09 77.1367 260.636 77.0456 260.23 76.8633C259.825 76.6764 259.476 76.4167 259.185 76.084C258.893 75.7513 258.67 75.3594 258.515 74.9082C258.36 74.4525 258.282 73.9557 258.282 73.418ZM259.096 73.1924V73.418C259.096 73.8236 259.15 74.2087 259.26 74.5732C259.369 74.9333 259.529 75.2546 259.738 75.5371C259.948 75.8151 260.208 76.0339 260.518 76.1934C260.827 76.3529 261.185 76.4326 261.591 76.4326C261.992 76.4326 262.345 76.3529 262.65 76.1934C262.96 76.0339 263.22 75.8151 263.43 75.5371C263.639 75.2546 263.797 74.9333 263.901 74.5732C264.011 74.2087 264.065 73.8236 264.065 73.418V73.1924C264.065 72.7913 264.011 72.4108 263.901 72.0508C263.797 71.6908 263.637 71.3695 263.423 71.0869C263.213 70.8044 262.953 70.5811 262.644 70.417C262.334 70.2529 261.978 70.1709 261.577 70.1709C261.176 70.1709 260.821 70.2529 260.511 70.417C260.205 70.5811 259.946 70.8044 259.731 71.0869C259.522 71.3695 259.362 71.6908 259.253 72.0508C259.148 72.4108 259.096 72.7913 259.096 73.1924ZM267.49 69.6035V77H266.677V69.6035H267.49ZM266.533 67.4639C266.533 67.3089 266.581 67.179 266.677 67.0742C266.777 66.9648 266.914 66.9102 267.087 66.9102C267.26 66.9102 267.397 66.9648 267.497 67.0742C267.602 67.179 267.654 67.3089 267.654 67.4639C267.654 67.6143 267.602 67.7441 267.497 67.8535C267.397 67.9583 267.26 68.0107 267.087 68.0107C266.914 68.0107 266.777 67.9583 266.677 67.8535C266.581 67.7441 266.533 67.6143 266.533 67.4639ZM274.224 75.6738V71.8594C274.224 71.5085 274.151 71.2054 274.005 70.9502C273.859 70.695 273.645 70.499 273.362 70.3623C273.08 70.2256 272.731 70.1572 272.316 70.1572C271.934 70.1572 271.592 70.2256 271.291 70.3623C270.995 70.4945 270.76 70.6745 270.587 70.9023C270.418 71.1257 270.334 71.374 270.334 71.6475L269.514 71.6406C269.514 71.3626 269.582 71.0938 269.719 70.834C269.855 70.5742 270.049 70.3418 270.3 70.1367C270.55 69.9316 270.849 69.7699 271.195 69.6514C271.546 69.5283 271.931 69.4668 272.351 69.4668C272.879 69.4668 273.344 69.5557 273.745 69.7334C274.151 69.9111 274.467 70.1777 274.695 70.5332C274.923 70.8887 275.037 71.3353 275.037 71.873V75.4482C275.037 75.7035 275.055 75.9678 275.092 76.2412C275.133 76.5146 275.19 76.7402 275.263 76.918V77H274.395C274.34 76.8359 274.297 76.6309 274.265 76.3848C274.237 76.1341 274.224 75.8971 274.224 75.6738ZM274.415 72.6934L274.429 73.3223H272.822C272.403 73.3223 272.027 73.361 271.694 73.4385C271.366 73.5114 271.088 73.6208 270.86 73.7666C270.632 73.9079 270.457 74.0788 270.334 74.2793C270.215 74.4798 270.156 74.7077 270.156 74.9629C270.156 75.2272 270.222 75.4688 270.354 75.6875C270.491 75.9062 270.683 76.0817 270.929 76.2139C271.179 76.3415 271.476 76.4053 271.817 76.4053C272.273 76.4053 272.674 76.321 273.021 76.1523C273.371 75.9837 273.661 75.7627 273.889 75.4893C274.117 75.2158 274.269 74.9173 274.347 74.5938L274.702 75.0654C274.643 75.2933 274.534 75.528 274.374 75.7695C274.219 76.0065 274.016 76.2298 273.766 76.4395C273.515 76.6445 273.219 76.8132 272.877 76.9453C272.54 77.0729 272.157 77.1367 271.729 77.1367C271.245 77.1367 270.824 77.0456 270.464 76.8633C270.108 76.681 269.83 76.4326 269.63 76.1182C269.434 75.7992 269.336 75.4391 269.336 75.0381C269.336 74.6735 269.413 74.3477 269.568 74.0605C269.723 73.7689 269.947 73.5228 270.238 73.3223C270.535 73.1172 270.89 72.9622 271.305 72.8574C271.724 72.748 272.193 72.6934 272.713 72.6934H274.415ZM281.661 75.1133C281.661 74.9128 281.611 74.7145 281.511 74.5186C281.41 74.3226 281.217 74.1426 280.93 73.9785C280.647 73.8145 280.23 73.6755 279.679 73.5615C279.269 73.4704 278.902 73.3678 278.578 73.2539C278.259 73.14 277.99 73.0033 277.771 72.8438C277.553 72.6842 277.386 72.4928 277.272 72.2695C277.159 72.0462 277.102 71.7819 277.102 71.4766C277.102 71.2031 277.161 70.9456 277.279 70.7041C277.402 70.458 277.576 70.2438 277.799 70.0615C278.027 69.8747 278.3 69.7288 278.619 69.624C278.943 69.5192 279.305 69.4668 279.706 69.4668C280.276 69.4668 280.763 69.5648 281.169 69.7607C281.579 69.9521 281.891 70.2142 282.105 70.5469C282.324 70.8796 282.434 71.2555 282.434 71.6748H281.62C281.62 71.4196 281.545 71.1781 281.395 70.9502C281.249 70.7223 281.032 70.5355 280.745 70.3896C280.463 70.2438 280.116 70.1709 279.706 70.1709C279.282 70.1709 278.938 70.2347 278.674 70.3623C278.41 70.4899 278.216 70.6517 278.093 70.8477C277.974 71.0436 277.915 71.2464 277.915 71.4561C277.915 71.6201 277.94 71.7705 277.99 71.9072C278.045 72.0394 278.141 72.1624 278.277 72.2764C278.419 72.3903 278.619 72.4974 278.879 72.5977C279.139 72.6979 279.476 72.7959 279.891 72.8916C280.488 73.0238 280.975 73.1855 281.354 73.377C281.736 73.5638 282.019 73.7962 282.201 74.0742C282.383 74.3477 282.475 74.6803 282.475 75.0723C282.475 75.3776 282.411 75.6579 282.283 75.9131C282.156 76.1637 281.971 76.3802 281.729 76.5625C281.493 76.7448 281.205 76.8861 280.868 76.9863C280.535 77.0866 280.162 77.1367 279.747 77.1367C279.123 77.1367 278.594 77.0342 278.161 76.8291C277.733 76.6195 277.407 76.346 277.184 76.0088C276.965 75.667 276.855 75.3047 276.855 74.9219H277.669C277.696 75.3047 277.817 75.6077 278.031 75.8311C278.245 76.0498 278.507 76.2048 278.817 76.2959C279.132 76.387 279.442 76.4326 279.747 76.4326C280.166 76.4326 280.517 76.3711 280.8 76.248C281.082 76.125 281.297 75.9632 281.442 75.7627C281.588 75.5622 281.661 75.3457 281.661 75.1133ZM285.141 71.1826V77H284.327V69.6035H285.106L285.141 71.1826ZM284.956 72.8438L284.594 72.6387C284.621 72.2012 284.71 71.791 284.86 71.4082C285.011 71.0254 285.214 70.6882 285.469 70.3965C285.729 70.1048 286.032 69.877 286.378 69.7129C286.729 69.5488 287.116 69.4668 287.54 69.4668C287.909 69.4668 288.24 69.5169 288.531 69.6172C288.823 69.7174 289.071 69.877 289.276 70.0957C289.481 70.3145 289.636 70.5947 289.741 70.9365C289.851 71.2783 289.905 71.6953 289.905 72.1875V77H289.085V72.1807C289.085 71.6702 289.014 71.2715 288.873 70.9844C288.732 70.6927 288.531 70.4854 288.271 70.3623C288.012 70.2393 287.704 70.1777 287.349 70.1777C286.957 70.1777 286.613 70.2643 286.316 70.4375C286.025 70.6061 285.779 70.8271 285.578 71.1006C285.382 71.3695 285.232 71.6589 285.127 71.9688C285.022 72.2741 284.965 72.5658 284.956 72.8438ZM127.395 85.6035L129.391 88.5908L131.394 85.6035H132.364L129.855 89.2266L132.467 93H131.51L129.397 89.876L127.292 93H126.335L128.946 89.2266L126.438 85.6035H127.395ZM133.308 89.418V89.1924C133.308 88.6546 133.385 88.1579 133.54 87.7021C133.695 87.2464 133.916 86.8522 134.203 86.5195C134.495 86.1868 134.843 85.9294 135.249 85.7471C135.655 85.5602 136.106 85.4668 136.603 85.4668C137.104 85.4668 137.557 85.5602 137.963 85.7471C138.368 85.9294 138.717 86.1868 139.009 86.5195C139.3 86.8522 139.524 87.2464 139.679 87.7021C139.834 88.1579 139.911 88.6546 139.911 89.1924V89.418C139.911 89.9557 139.834 90.4525 139.679 90.9082C139.524 91.3594 139.3 91.7513 139.009 92.084C138.722 92.4167 138.375 92.6764 137.97 92.8633C137.564 93.0456 137.113 93.1367 136.616 93.1367C136.115 93.1367 135.661 93.0456 135.256 92.8633C134.85 92.6764 134.502 92.4167 134.21 92.084C133.918 91.7513 133.695 91.3594 133.54 90.9082C133.385 90.4525 133.308 89.9557 133.308 89.418ZM134.121 89.1924V89.418C134.121 89.8236 134.176 90.2087 134.285 90.5732C134.395 90.9333 134.554 91.2546 134.764 91.5371C134.973 91.8151 135.233 92.0339 135.543 92.1934C135.853 92.3529 136.211 92.4326 136.616 92.4326C137.017 92.4326 137.37 92.3529 137.676 92.1934C137.986 92.0339 138.245 91.8151 138.455 91.5371C138.665 91.2546 138.822 90.9333 138.927 90.5732C139.036 90.2087 139.091 89.8236 139.091 89.418V89.1924C139.091 88.7913 139.036 88.4108 138.927 88.0508C138.822 87.6908 138.662 87.3695 138.448 87.0869C138.239 86.8044 137.979 86.5811 137.669 86.417C137.359 86.2529 137.004 86.1709 136.603 86.1709C136.201 86.1709 135.846 86.2529 135.536 86.417C135.231 86.5811 134.971 86.8044 134.757 87.0869C134.547 87.3695 134.388 87.6908 134.278 88.0508C134.174 88.4108 134.121 88.7913 134.121 89.1924ZM142.516 85.6035V93H141.702V85.6035H142.516ZM141.559 83.4639C141.559 83.3089 141.606 83.179 141.702 83.0742C141.802 82.9648 141.939 82.9102 142.112 82.9102C142.285 82.9102 142.422 82.9648 142.522 83.0742C142.627 83.179 142.68 83.3089 142.68 83.4639C142.68 83.6143 142.627 83.7441 142.522 83.8535C142.422 83.9583 142.285 84.0107 142.112 84.0107C141.939 84.0107 141.802 83.9583 141.702 83.8535C141.606 83.7441 141.559 83.6143 141.559 83.4639ZM149.249 91.6738V87.8594C149.249 87.5085 149.176 87.2054 149.03 86.9502C148.884 86.695 148.67 86.499 148.388 86.3623C148.105 86.2256 147.757 86.1572 147.342 86.1572C146.959 86.1572 146.617 86.2256 146.316 86.3623C146.02 86.4945 145.785 86.6745 145.612 86.9023C145.444 87.1257 145.359 87.374 145.359 87.6475L144.539 87.6406C144.539 87.3626 144.607 87.0938 144.744 86.834C144.881 86.5742 145.075 86.3418 145.325 86.1367C145.576 85.9316 145.874 85.7699 146.221 85.6514C146.572 85.5283 146.957 85.4668 147.376 85.4668C147.905 85.4668 148.369 85.5557 148.771 85.7334C149.176 85.9111 149.493 86.1777 149.721 86.5332C149.949 86.8887 150.062 87.3353 150.062 87.873V91.4482C150.062 91.7035 150.081 91.9678 150.117 92.2412C150.158 92.5146 150.215 92.7402 150.288 92.918V93H149.42C149.365 92.8359 149.322 92.6309 149.29 92.3848C149.263 92.1341 149.249 91.8971 149.249 91.6738ZM149.44 88.6934L149.454 89.3223H147.848C147.428 89.3223 147.052 89.361 146.72 89.4385C146.392 89.5114 146.114 89.6208 145.886 89.7666C145.658 89.9079 145.482 90.0788 145.359 90.2793C145.241 90.4798 145.182 90.7077 145.182 90.9629C145.182 91.2272 145.248 91.4688 145.38 91.6875C145.517 91.9062 145.708 92.0817 145.954 92.2139C146.205 92.3415 146.501 92.4053 146.843 92.4053C147.299 92.4053 147.7 92.321 148.046 92.1523C148.397 91.9837 148.686 91.7627 148.914 91.4893C149.142 91.2158 149.295 90.9173 149.372 90.5938L149.728 91.0654C149.668 91.2933 149.559 91.528 149.399 91.7695C149.244 92.0065 149.042 92.2298 148.791 92.4395C148.54 92.6445 148.244 92.8132 147.902 92.9453C147.565 93.0729 147.182 93.1367 146.754 93.1367C146.271 93.1367 145.849 93.0456 145.489 92.8633C145.134 92.681 144.856 92.4326 144.655 92.1182C144.459 91.7992 144.361 91.4391 144.361 91.0381C144.361 90.6735 144.439 90.3477 144.594 90.0605C144.749 89.7689 144.972 89.5228 145.264 89.3223C145.56 89.1172 145.915 88.9622 146.33 88.8574C146.749 88.748 147.219 88.6934 147.738 88.6934H149.44ZM152.578 85.6035L154.574 88.5908L156.577 85.6035H157.548L155.039 89.2266L157.65 93H156.693L154.581 89.876L152.476 93H151.519L154.13 89.2266L151.621 85.6035H152.578ZM159.893 87.1826V93H159.079V85.6035H159.858L159.893 87.1826ZM159.708 88.8438L159.346 88.6387C159.373 88.2012 159.462 87.791 159.612 87.4082C159.763 87.0254 159.965 86.6882 160.221 86.3965C160.48 86.1048 160.784 85.877 161.13 85.7129C161.481 85.5488 161.868 85.4668 162.292 85.4668C162.661 85.4668 162.992 85.5169 163.283 85.6172C163.575 85.7174 163.823 85.877 164.028 86.0957C164.233 86.3145 164.388 86.5947 164.493 86.9365C164.603 87.2783 164.657 87.6953 164.657 88.1875V93H163.837V88.1807C163.837 87.6702 163.766 87.2715 163.625 86.9844C163.484 86.6927 163.283 86.4854 163.023 86.3623C162.764 86.2393 162.456 86.1777 162.101 86.1777C161.709 86.1777 161.365 86.2643 161.068 86.4375C160.777 86.6061 160.531 86.8271 160.33 87.1006C160.134 87.3695 159.984 87.6589 159.879 87.9688C159.774 88.2741 159.717 88.5658 159.708 88.8438ZM166.325 89.418V89.1924C166.325 88.6546 166.403 88.1579 166.558 87.7021C166.713 87.2464 166.934 86.8522 167.221 86.5195C167.512 86.1868 167.861 85.9294 168.267 85.7471C168.672 85.5602 169.123 85.4668 169.62 85.4668C170.121 85.4668 170.575 85.5602 170.98 85.7471C171.386 85.9294 171.735 86.1868 172.026 86.5195C172.318 86.8522 172.541 87.2464 172.696 87.7021C172.851 88.1579 172.929 88.6546 172.929 89.1924V89.418C172.929 89.9557 172.851 90.4525 172.696 90.9082C172.541 91.3594 172.318 91.7513 172.026 92.084C171.739 92.4167 171.393 92.6764 170.987 92.8633C170.582 93.0456 170.131 93.1367 169.634 93.1367C169.132 93.1367 168.679 93.0456 168.273 92.8633C167.868 92.6764 167.519 92.4167 167.228 92.084C166.936 91.7513 166.713 91.3594 166.558 90.9082C166.403 90.4525 166.325 89.9557 166.325 89.418ZM167.139 89.1924V89.418C167.139 89.8236 167.193 90.2087 167.303 90.5732C167.412 90.9333 167.572 91.2546 167.781 91.5371C167.991 91.8151 168.251 92.0339 168.561 92.1934C168.87 92.3529 169.228 92.4326 169.634 92.4326C170.035 92.4326 170.388 92.3529 170.693 92.1934C171.003 92.0339 171.263 91.8151 171.473 91.5371C171.682 91.2546 171.84 90.9333 171.944 90.5732C172.054 90.2087 172.108 89.8236 172.108 89.418V89.1924C172.108 88.7913 172.054 88.4108 171.944 88.0508C171.84 87.6908 171.68 87.3695 171.466 87.0869C171.256 86.8044 170.996 86.5811 170.687 86.417C170.377 86.2529 170.021 86.1709 169.62 86.1709C169.219 86.1709 168.864 86.2529 168.554 86.417C168.248 86.5811 167.989 86.8044 167.774 87.0869C167.565 87.3695 167.405 87.6908 167.296 88.0508C167.191 88.4108 167.139 88.7913 167.139 89.1924ZM175.533 85.6035V93H174.72V85.6035H175.533ZM174.576 83.4639C174.576 83.3089 174.624 83.179 174.72 83.0742C174.82 82.9648 174.957 82.9102 175.13 82.9102C175.303 82.9102 175.44 82.9648 175.54 83.0742C175.645 83.179 175.697 83.3089 175.697 83.4639C175.697 83.6143 175.645 83.7441 175.54 83.8535C175.44 83.9583 175.303 84.0107 175.13 84.0107C174.957 84.0107 174.82 83.9583 174.72 83.8535C174.624 83.7441 174.576 83.6143 174.576 83.4639ZM182.267 91.6738V87.8594C182.267 87.5085 182.194 87.2054 182.048 86.9502C181.902 86.695 181.688 86.499 181.405 86.3623C181.123 86.2256 180.774 86.1572 180.359 86.1572C179.977 86.1572 179.635 86.2256 179.334 86.3623C179.038 86.4945 178.803 86.6745 178.63 86.9023C178.461 87.1257 178.377 87.374 178.377 87.6475L177.557 87.6406C177.557 87.3626 177.625 87.0938 177.762 86.834C177.898 86.5742 178.092 86.3418 178.343 86.1367C178.593 85.9316 178.892 85.7699 179.238 85.6514C179.589 85.5283 179.974 85.4668 180.394 85.4668C180.922 85.4668 181.387 85.5557 181.788 85.7334C182.194 85.9111 182.51 86.1777 182.738 86.5332C182.966 86.8887 183.08 87.3353 183.08 87.873V91.4482C183.08 91.7035 183.098 91.9678 183.135 92.2412C183.176 92.5146 183.233 92.7402 183.306 92.918V93H182.438C182.383 92.8359 182.34 92.6309 182.308 92.3848C182.28 92.1341 182.267 91.8971 182.267 91.6738ZM182.458 88.6934L182.472 89.3223H180.865C180.446 89.3223 180.07 89.361 179.737 89.4385C179.409 89.5114 179.131 89.6208 178.903 89.7666C178.675 89.9079 178.5 90.0788 178.377 90.2793C178.258 90.4798 178.199 90.7077 178.199 90.9629C178.199 91.2272 178.265 91.4688 178.397 91.6875C178.534 91.9062 178.726 92.0817 178.972 92.2139C179.222 92.3415 179.519 92.4053 179.86 92.4053C180.316 92.4053 180.717 92.321 181.063 92.1523C181.414 91.9837 181.704 91.7627 181.932 91.4893C182.16 91.2158 182.312 90.9173 182.39 90.5938L182.745 91.0654C182.686 91.2933 182.576 91.528 182.417 91.7695C182.262 92.0065 182.059 92.2298 181.809 92.4395C181.558 92.6445 181.262 92.8132 180.92 92.9453C180.583 93.0729 180.2 93.1367 179.771 93.1367C179.288 93.1367 178.867 93.0456 178.507 92.8633C178.151 92.681 177.873 92.4326 177.673 92.1182C177.477 91.7992 177.379 91.4391 177.379 91.0381C177.379 90.6735 177.456 90.3477 177.611 90.0605C177.766 89.7689 177.99 89.5228 178.281 89.3223C178.577 89.1172 178.933 88.9622 179.348 88.8574C179.767 88.748 180.236 88.6934 180.756 88.6934H182.458ZM189.704 91.1133C189.704 90.9128 189.654 90.7145 189.554 90.5186C189.453 90.3226 189.26 90.1426 188.973 89.9785C188.69 89.8145 188.273 89.6755 187.722 89.5615C187.312 89.4704 186.945 89.3678 186.621 89.2539C186.302 89.14 186.033 89.0033 185.814 88.8438C185.596 88.6842 185.429 88.4928 185.315 88.2695C185.201 88.0462 185.145 87.7819 185.145 87.4766C185.145 87.2031 185.204 86.9456 185.322 86.7041C185.445 86.458 185.618 86.2438 185.842 86.0615C186.07 85.8747 186.343 85.7288 186.662 85.624C186.986 85.5192 187.348 85.4668 187.749 85.4668C188.319 85.4668 188.806 85.5648 189.212 85.7607C189.622 85.9521 189.934 86.2142 190.148 86.5469C190.367 86.8796 190.477 87.2555 190.477 87.6748H189.663C189.663 87.4196 189.588 87.1781 189.438 86.9502C189.292 86.7223 189.075 86.5355 188.788 86.3896C188.506 86.2438 188.159 86.1709 187.749 86.1709C187.325 86.1709 186.981 86.2347 186.717 86.3623C186.452 86.4899 186.259 86.6517 186.136 86.8477C186.017 87.0436 185.958 87.2464 185.958 87.4561C185.958 87.6201 185.983 87.7705 186.033 87.9072C186.088 88.0394 186.184 88.1624 186.32 88.2764C186.462 88.3903 186.662 88.4974 186.922 88.5977C187.182 88.6979 187.519 88.7959 187.934 88.8916C188.531 89.0238 189.018 89.1855 189.396 89.377C189.779 89.5638 190.062 89.7962 190.244 90.0742C190.426 90.3477 190.518 90.6803 190.518 91.0723C190.518 91.3776 190.454 91.6579 190.326 91.9131C190.199 92.1637 190.014 92.3802 189.772 92.5625C189.535 92.7448 189.248 92.8861 188.911 92.9863C188.578 93.0866 188.205 93.1367 187.79 93.1367C187.166 93.1367 186.637 93.0342 186.204 92.8291C185.776 92.6195 185.45 92.346 185.227 92.0088C185.008 91.667 184.898 91.3047 184.898 90.9219H185.712C185.739 91.3047 185.86 91.6077 186.074 91.8311C186.288 92.0498 186.55 92.2048 186.86 92.2959C187.175 92.387 187.485 92.4326 187.79 92.4326C188.209 92.4326 188.56 92.3711 188.843 92.248C189.125 92.125 189.34 91.9632 189.485 91.7627C189.631 91.5622 189.704 91.3457 189.704 91.1133ZM193.184 87.1826V93H192.37V85.6035H193.149L193.184 87.1826ZM192.999 88.8438L192.637 88.6387C192.664 88.2012 192.753 87.791 192.903 87.4082C193.054 87.0254 193.257 86.6882 193.512 86.3965C193.771 86.1048 194.075 85.877 194.421 85.7129C194.772 85.5488 195.159 85.4668 195.583 85.4668C195.952 85.4668 196.283 85.5169 196.574 85.6172C196.866 85.7174 197.114 85.877 197.319 86.0957C197.524 86.3145 197.679 86.5947 197.784 86.9365C197.894 87.2783 197.948 87.6953 197.948 88.1875V93H197.128V88.1807C197.128 87.6702 197.057 87.2715 196.916 86.9844C196.775 86.6927 196.574 86.4854 196.314 86.3623C196.055 86.2393 195.747 86.1777 195.392 86.1777C195 86.1777 194.656 86.2643 194.359 86.4375C194.068 86.6061 193.822 86.8271 193.621 87.1006C193.425 87.3695 193.275 87.6589 193.17 87.9688C193.065 88.2741 193.008 88.5658 192.999 88.8438ZM200.389 85.6035L202.385 88.5908L204.388 85.6035H205.358L202.85 89.2266L205.461 93H204.504L202.392 89.876L200.286 93H199.329L201.94 89.2266L199.432 85.6035H200.389ZM211.388 91.6738V87.8594C211.388 87.5085 211.315 87.2054 211.169 86.9502C211.023 86.695 210.809 86.499 210.526 86.3623C210.244 86.2256 209.895 86.1572 209.48 86.1572C209.098 86.1572 208.756 86.2256 208.455 86.3623C208.159 86.4945 207.924 86.6745 207.751 86.9023C207.582 87.1257 207.498 87.374 207.498 87.6475L206.678 87.6406C206.678 87.3626 206.746 87.0938 206.883 86.834C207.02 86.5742 207.213 86.3418 207.464 86.1367C207.715 85.9316 208.013 85.7699 208.359 85.6514C208.71 85.5283 209.095 85.4668 209.515 85.4668C210.043 85.4668 210.508 85.5557 210.909 85.7334C211.315 85.9111 211.632 86.1777 211.859 86.5332C212.087 86.8887 212.201 87.3353 212.201 87.873V91.4482C212.201 91.7035 212.219 91.9678 212.256 92.2412C212.297 92.5146 212.354 92.7402 212.427 92.918V93H211.559C211.504 92.8359 211.461 92.6309 211.429 92.3848C211.401 92.1341 211.388 91.8971 211.388 91.6738ZM211.579 88.6934L211.593 89.3223H209.986C209.567 89.3223 209.191 89.361 208.858 89.4385C208.53 89.5114 208.252 89.6208 208.024 89.7666C207.797 89.9079 207.621 90.0788 207.498 90.2793C207.38 90.4798 207.32 90.7077 207.32 90.9629C207.32 91.2272 207.386 91.4688 207.519 91.6875C207.655 91.9062 207.847 92.0817 208.093 92.2139C208.343 92.3415 208.64 92.4053 208.981 92.4053C209.437 92.4053 209.838 92.321 210.185 92.1523C210.535 91.9837 210.825 91.7627 211.053 91.4893C211.281 91.2158 211.433 90.9173 211.511 90.5938L211.866 91.0654C211.807 91.2933 211.698 91.528 211.538 91.7695C211.383 92.0065 211.18 92.2298 210.93 92.4395C210.679 92.6445 210.383 92.8132 210.041 92.9453C209.704 93.0729 209.321 93.1367 208.893 93.1367C208.41 93.1367 207.988 93.0456 207.628 92.8633C207.272 92.681 206.994 92.4326 206.794 92.1182C206.598 91.7992 206.5 91.4391 206.5 91.0381C206.5 90.6735 206.577 90.3477 206.732 90.0605C206.887 89.7689 207.111 89.5228 207.402 89.3223C207.699 89.1172 208.054 88.9622 208.469 88.8574C208.888 88.748 209.357 88.6934 209.877 88.6934H211.579Z" fill="#222121"/>
<path d="M69.9286 62.0952C69.9286 66.7048 66.1357 70.4762 61.5 70.4762C56.8643 70.4762 53.0714 66.7048 53.0714 62.0952C53.0714 57.4857 56.8643 53.7143 61.5 53.7143C66.1357 53.7143 69.9286 57.4857 69.9286 62.0952ZM40.4286 53.7143C35.7929 53.7143 32 57.4857 32 62.0952C32 66.7048 35.7929 70.4762 40.4286 70.4762C45.0643 70.4762 48.8571 66.7048 48.8571 62.0952C48.8571 57.4857 45.0643 53.7143 40.4286 53.7143ZM82.5714 53.7143C77.9357 53.7143 74.1429 57.4857 74.1429 62.0952C74.1429 66.7048 77.9357 70.4762 82.5714 70.4762C87.2071 70.4762 91 66.7048 91 62.0952C91 57.4857 87.2071 53.7143 82.5714 53.7143ZM72.0357 36.9524C67.4 36.9524 63.6071 40.7238 63.6071 45.3333C63.6071 49.9429 67.4 53.7143 72.0357 53.7143C76.6714 53.7143 80.4643 49.9429 80.4643 45.3333C80.4643 40.7238 76.6714 36.9524 72.0357 36.9524ZM50.9643 36.9524C46.3286 36.9524 42.5357 40.7238 42.5357 45.3333C42.5357 49.9429 46.3286 53.7143 50.9643 53.7143C55.6 53.7143 59.3929 49.9429 59.3929 45.3333C59.3929 40.7238 55.6 36.9524 50.9643 36.9524ZM72.0357 70.4762C67.4 70.4762 63.6071 74.2476 63.6071 78.8571C63.6071 83.4667 67.4 87.2381 72.0357 87.2381C76.6714 87.2381 80.4643 83.4667 80.4643 78.8571C80.4643 74.2476 76.6714 70.4762 72.0357 70.4762ZM50.9643 70.4762C46.3286 70.4762 42.5357 74.2476 42.5357 78.8571C42.5357 83.4667 46.3286 87.2381 50.9643 87.2381C55.6 87.2381 59.3929 83.4667 59.3929 78.8571C59.3929 74.2476 55.6 70.4762 50.9643 70.4762ZM61.5 87.2381C56.8643 87.2381 53.0714 91.0095 53.0714 95.619C53.0714 100.229 56.8643 104 61.5 104C66.1357 104 69.9286 100.229 69.9286 95.619C69.9286 91.0095 66.1357 87.2381 61.5 87.2381ZM71.6143 21.0286L68.2429 16C58.9714 20.1905 58.1286 35.2762 58.1286 36.9524H64.45C64.8714 33.6 66.1357 23.1238 71.6143 21.0286Z" fill="#2A6D4C"/>
</svg>
