<svg width="346" height="120" viewBox="0 0 346 120" fill="none" xmlns="http://www.w3.org/2000/svg">
<rect x="0.25" y="0.25" width="345.5" height="119.5" rx="19.75" fill="white" stroke="#2A6D4C" stroke-width="0.5"/>
<path d="M142.258 31.8828V38.8906C141.969 39.2109 141.523 39.5547 140.922 39.9219C140.328 40.2812 139.578 40.5898 138.672 40.8477C137.766 41.1055 136.699 41.2344 135.473 41.2344C134.34 41.2344 133.312 41.0547 132.391 40.6953C131.469 40.3281 130.676 39.793 130.012 39.0898C129.355 38.3789 128.848 37.5117 128.488 36.4883C128.137 35.457 127.961 34.2773 127.961 32.9492V32C127.961 30.6719 128.141 29.4922 128.5 28.4609C128.859 27.4297 129.363 26.5625 130.012 25.8594C130.668 25.1484 131.438 24.6094 132.32 24.2422C133.211 23.875 134.188 23.6914 135.25 23.6914C136.82 23.6914 138.098 23.9414 139.082 24.4414C140.066 24.9336 140.812 25.6172 141.32 26.4922C141.828 27.3594 142.137 28.3633 142.246 29.5039H138.297C138.219 28.9414 138.07 28.4648 137.852 28.0742C137.641 27.6758 137.336 27.375 136.938 27.1719C136.539 26.9609 136.023 26.8555 135.391 26.8555C134.898 26.8555 134.449 26.9609 134.043 27.1719C133.645 27.3828 133.305 27.7031 133.023 28.1328C132.742 28.5547 132.523 29.0859 132.367 29.7266C132.219 30.3672 132.145 31.1172 132.145 31.9766V32.9492C132.145 33.8008 132.215 34.5469 132.355 35.1875C132.504 35.8281 132.723 36.3633 133.012 36.793C133.309 37.2148 133.684 37.5352 134.137 37.7539C134.598 37.9648 135.141 38.0703 135.766 38.0703C136.203 38.0703 136.578 38.0352 136.891 37.9648C137.203 37.8867 137.461 37.793 137.664 37.6836C137.875 37.5664 138.035 37.457 138.145 37.3555V34.707H135.285V31.8828H142.258ZM151.059 37.8125V32.5859C151.059 32.2266 151.008 31.918 150.906 31.6602C150.805 31.4023 150.645 31.2031 150.426 31.0625C150.207 30.9141 149.914 30.8398 149.547 30.8398C149.25 30.8398 148.996 30.8906 148.785 30.9922C148.574 31.0938 148.414 31.2461 148.305 31.4492C148.195 31.6523 148.141 31.9102 148.141 32.2227H144.191C144.191 31.6367 144.32 31.0938 144.578 30.5938C144.844 30.0859 145.219 29.6445 145.703 29.2695C146.195 28.8945 146.781 28.6055 147.461 28.4023C148.148 28.1914 148.914 28.0859 149.758 28.0859C150.766 28.0859 151.664 28.2539 152.453 28.5898C153.25 28.9258 153.879 29.4297 154.34 30.1016C154.801 30.7656 155.031 31.6016 155.031 32.6094V37.8008C155.031 38.6289 155.078 39.2578 155.172 39.6875C155.266 40.1094 155.398 40.4805 155.57 40.8008V41H151.609C151.422 40.6094 151.281 40.1328 151.188 39.5703C151.102 39 151.059 38.4141 151.059 37.8125ZM151.539 33.2539L151.562 35.3633H149.816C149.449 35.3633 149.137 35.4141 148.879 35.5156C148.629 35.6172 148.426 35.7578 148.27 35.9375C148.121 36.1094 148.012 36.3047 147.941 36.5234C147.879 36.7422 147.848 36.9727 147.848 37.2148C147.848 37.4492 147.902 37.6602 148.012 37.8477C148.129 38.0273 148.285 38.168 148.48 38.2695C148.676 38.3711 148.895 38.4219 149.137 38.4219C149.574 38.4219 149.945 38.3398 150.25 38.1758C150.562 38.0039 150.801 37.7969 150.965 37.5547C151.129 37.3125 151.211 37.0859 151.211 36.875L152.078 38.4922C151.922 38.8047 151.742 39.1211 151.539 39.4414C151.344 39.7617 151.098 40.0586 150.801 40.332C150.512 40.5977 150.156 40.8164 149.734 40.9883C149.312 41.1523 148.801 41.2344 148.199 41.2344C147.418 41.2344 146.699 41.0742 146.043 40.7539C145.395 40.4336 144.875 39.9883 144.484 39.418C144.094 38.8398 143.898 38.1758 143.898 37.4258C143.898 36.7695 144.016 36.1836 144.25 35.668C144.492 35.1523 144.855 34.7148 145.34 34.3555C145.824 33.9961 146.441 33.7227 147.191 33.5352C147.941 33.3477 148.824 33.2539 149.84 33.2539H151.539ZM161.395 23V41H157.434V23H161.395ZM167.816 30.7578V45.875H163.867V28.3203H167.547L167.816 30.7578ZM175.598 34.5078V34.7539C175.598 35.6758 175.492 36.5312 175.281 37.3203C175.07 38.1094 174.758 38.7969 174.344 39.3828C173.93 39.9688 173.414 40.4258 172.797 40.7539C172.188 41.0742 171.48 41.2344 170.676 41.2344C169.918 41.2344 169.266 41.0664 168.719 40.7305C168.172 40.3945 167.715 39.9297 167.348 39.3359C166.98 38.7422 166.684 38.0625 166.457 37.2969C166.23 36.5312 166.051 35.7227 165.918 34.8711V34.5547C166.051 33.6406 166.23 32.793 166.457 32.0117C166.684 31.2227 166.98 30.5352 167.348 29.9492C167.715 29.3633 168.168 28.9062 168.707 28.5781C169.254 28.25 169.906 28.0859 170.664 28.0859C171.469 28.0859 172.176 28.2383 172.785 28.543C173.402 28.8477 173.918 29.2852 174.332 29.8555C174.754 30.418 175.07 31.0938 175.281 31.8828C175.492 32.6719 175.598 33.5469 175.598 34.5078ZM171.648 34.7539V34.5078C171.648 34.0156 171.613 33.5664 171.543 33.1602C171.473 32.7461 171.359 32.3867 171.203 32.082C171.055 31.7773 170.855 31.543 170.605 31.3789C170.355 31.2148 170.047 31.1328 169.68 31.1328C169.258 31.1328 168.902 31.1992 168.613 31.332C168.332 31.457 168.105 31.6523 167.934 31.918C167.77 32.1758 167.652 32.5 167.582 32.8906C167.52 33.2734 167.492 33.7227 167.5 34.2383V35.1992C167.484 35.793 167.543 36.3164 167.676 36.7695C167.809 37.2148 168.039 37.5625 168.367 37.8125C168.695 38.0625 169.141 38.1875 169.703 38.1875C170.078 38.1875 170.391 38.1016 170.641 37.9297C170.891 37.75 171.09 37.5039 171.238 37.1914C171.387 36.8711 171.492 36.5039 171.555 36.0898C171.617 35.6758 171.648 35.2305 171.648 34.7539ZM176.863 34.7891V34.543C176.863 33.6133 176.996 32.7578 177.262 31.9766C177.527 31.1875 177.918 30.5039 178.434 29.9258C178.949 29.3477 179.586 28.8984 180.344 28.5781C181.102 28.25 181.977 28.0859 182.969 28.0859C183.969 28.0859 184.848 28.25 185.605 28.5781C186.371 28.8984 187.012 29.3477 187.527 29.9258C188.043 30.5039 188.434 31.1875 188.699 31.9766C188.965 32.7578 189.098 33.6133 189.098 34.543V34.7891C189.098 35.7109 188.965 36.5664 188.699 37.3555C188.434 38.1367 188.043 38.8203 187.527 39.4062C187.012 39.9844 186.375 40.4336 185.617 40.7539C184.859 41.0742 183.984 41.2344 182.992 41.2344C182 41.2344 181.121 41.0742 180.355 40.7539C179.59 40.4336 178.949 39.9844 178.434 39.4062C177.918 38.8203 177.527 38.1367 177.262 37.3555C176.996 36.5664 176.863 35.7109 176.863 34.7891ZM180.812 34.543V34.7891C180.812 35.2656 180.848 35.7109 180.918 36.125C180.988 36.5391 181.105 36.9023 181.27 37.2148C181.434 37.5195 181.656 37.7578 181.938 37.9297C182.219 38.1016 182.57 38.1875 182.992 38.1875C183.406 38.1875 183.75 38.1016 184.023 37.9297C184.305 37.7578 184.527 37.5195 184.691 37.2148C184.855 36.9023 184.973 36.5391 185.043 36.125C185.113 35.7109 185.148 35.2656 185.148 34.7891V34.543C185.148 34.082 185.113 33.6484 185.043 33.2422C184.973 32.8281 184.855 32.4648 184.691 32.1523C184.527 31.832 184.305 31.582 184.023 31.4023C183.742 31.2227 183.391 31.1328 182.969 31.1328C182.555 31.1328 182.207 31.2227 181.926 31.4023C181.652 31.582 181.434 31.832 181.27 32.1523C181.105 32.4648 180.988 32.8281 180.918 33.2422C180.848 33.6484 180.812 34.082 180.812 34.543ZM194.734 31.0273V41H190.785V28.3203H194.488L194.734 31.0273ZM194.266 34.2266L193.34 34.25C193.34 33.2812 193.457 32.418 193.691 31.6602C193.926 30.8945 194.258 30.2461 194.688 29.7148C195.117 29.1836 195.629 28.7812 196.223 28.5078C196.824 28.2266 197.492 28.0859 198.227 28.0859C198.812 28.0859 199.348 28.1719 199.832 28.3438C200.324 28.5156 200.746 28.793 201.098 29.1758C201.457 29.5586 201.73 30.0664 201.918 30.6992C202.113 31.3242 202.211 32.0977 202.211 33.0195V41H198.238V33.0078C198.238 32.5 198.168 32.1133 198.027 31.8477C197.887 31.5742 197.684 31.3867 197.418 31.2852C197.152 31.1836 196.828 31.1328 196.445 31.1328C196.039 31.1328 195.695 31.2109 195.414 31.3672C195.133 31.5234 194.906 31.7422 194.734 32.0234C194.57 32.2969 194.449 32.6211 194.371 32.9961C194.301 33.3711 194.266 33.7812 194.266 34.2266ZM210.543 41.2344C209.512 41.2344 208.59 41.0742 207.777 40.7539C206.965 40.4258 206.277 39.9766 205.715 39.4062C205.16 38.8359 204.734 38.1797 204.438 37.4375C204.148 36.6953 204.004 35.9102 204.004 35.082V34.6367C204.004 33.707 204.133 32.8477 204.391 32.0586C204.648 31.2617 205.031 30.5664 205.539 29.9727C206.047 29.3789 206.684 28.918 207.449 28.5898C208.215 28.2539 209.105 28.0859 210.121 28.0859C211.02 28.0859 211.824 28.2305 212.535 28.5195C213.246 28.8086 213.848 29.2227 214.34 29.7617C214.84 30.3008 215.219 30.9531 215.477 31.7188C215.742 32.4844 215.875 33.3438 215.875 34.2969V35.9023H205.516V33.4297H212.02V33.125C212.027 32.7031 211.953 32.3438 211.797 32.0469C211.648 31.75 211.43 31.5234 211.141 31.3672C210.852 31.2109 210.5 31.1328 210.086 31.1328C209.656 31.1328 209.301 31.2266 209.02 31.4141C208.746 31.6016 208.531 31.8594 208.375 32.1875C208.227 32.5078 208.121 32.8789 208.059 33.3008C207.996 33.7227 207.965 34.168 207.965 34.6367V35.082C207.965 35.5508 208.027 35.9766 208.152 36.3594C208.285 36.7422 208.473 37.0703 208.715 37.3438C208.965 37.6094 209.262 37.8164 209.605 37.9648C209.957 38.1133 210.355 38.1875 210.801 38.1875C211.34 38.1875 211.871 38.0859 212.395 37.8828C212.918 37.6797 213.367 37.3438 213.742 36.875L215.535 39.0078C215.277 39.375 214.91 39.7305 214.434 40.0742C213.965 40.418 213.402 40.6992 212.746 40.918C212.09 41.1289 211.355 41.2344 210.543 41.2344ZM224.125 37.4375C224.125 37.2188 224.051 37.0312 223.902 36.875C223.762 36.7109 223.512 36.5625 223.152 36.4297C222.793 36.2891 222.289 36.1484 221.641 36.0078C221.023 35.875 220.441 35.6992 219.895 35.4805C219.355 35.2617 218.883 34.9961 218.477 34.6836C218.07 34.3711 217.75 34 217.516 33.5703C217.289 33.1406 217.176 32.6484 217.176 32.0938C217.176 31.5547 217.289 31.0469 217.516 30.5703C217.75 30.0859 218.09 29.6602 218.535 29.293C218.988 28.918 219.539 28.625 220.188 28.4141C220.836 28.1953 221.574 28.0859 222.402 28.0859C223.543 28.0859 224.527 28.2617 225.355 28.6133C226.184 28.957 226.82 29.4414 227.266 30.0664C227.719 30.6836 227.945 31.3984 227.945 32.2109H223.996C223.996 31.8906 223.941 31.6172 223.832 31.3906C223.73 31.1641 223.562 30.9922 223.328 30.875C223.094 30.75 222.781 30.6875 222.391 30.6875C222.117 30.6875 221.867 30.7383 221.641 30.8398C221.422 30.9414 221.246 31.082 221.113 31.2617C220.98 31.4414 220.914 31.6523 220.914 31.8945C220.914 32.0664 220.953 32.2227 221.031 32.3633C221.117 32.4961 221.246 32.6211 221.418 32.7383C221.59 32.8477 221.809 32.9492 222.074 33.043C222.34 33.1289 222.66 33.207 223.035 33.2773C223.887 33.4336 224.684 33.6562 225.426 33.9453C226.168 34.2344 226.77 34.6445 227.23 35.1758C227.699 35.707 227.934 36.4219 227.934 37.3203C227.934 37.8828 227.805 38.4023 227.547 38.8789C227.289 39.3477 226.918 39.7617 226.434 40.1211C225.949 40.4727 225.367 40.7461 224.688 40.9414C224.008 41.1367 223.242 41.2344 222.391 41.2344C221.18 41.2344 220.156 41.0195 219.32 40.5898C218.484 40.1523 217.852 39.6055 217.422 38.9492C217 38.2852 216.789 37.6133 216.789 36.9336H220.469C220.484 37.3242 220.578 37.6445 220.75 37.8945C220.93 38.1445 221.168 38.3281 221.465 38.4453C221.762 38.5625 222.105 38.6211 222.496 38.6211C222.855 38.6211 223.152 38.5703 223.387 38.4688C223.629 38.3672 223.812 38.2305 223.938 38.0586C224.062 37.8789 224.125 37.6719 224.125 37.4375ZM243.051 38.0938V23H247.023V41H243.461L243.051 38.0938ZM235.27 34.8125V34.5664C235.27 33.6055 235.375 32.7305 235.586 31.9414C235.797 31.1445 236.109 30.4609 236.523 29.8906C236.938 29.3125 237.453 28.8672 238.07 28.5547C238.688 28.2422 239.398 28.0859 240.203 28.0859C240.922 28.0859 241.551 28.2539 242.09 28.5898C242.629 28.918 243.09 29.3789 243.473 29.9727C243.855 30.5664 244.168 31.2617 244.41 32.0586C244.652 32.8477 244.836 33.6992 244.961 34.6133V34.9062C244.836 35.7656 244.652 36.5781 244.41 37.3438C244.168 38.1016 243.855 38.7734 243.473 39.3594C243.09 39.9453 242.625 40.4062 242.078 40.7422C241.539 41.0703 240.906 41.2344 240.18 41.2344C239.375 41.2344 238.664 41.0742 238.047 40.7539C237.438 40.4336 236.926 39.9844 236.512 39.4062C236.105 38.8281 235.797 38.1484 235.586 37.3672C235.375 36.5859 235.27 35.7344 235.27 34.8125ZM239.219 34.5664V34.8125C239.219 35.2891 239.25 35.7305 239.312 36.1367C239.375 36.543 239.48 36.9023 239.629 37.2148C239.785 37.5195 239.988 37.7578 240.238 37.9297C240.496 38.1016 240.812 38.1875 241.188 38.1875C241.695 38.1875 242.113 38.0664 242.441 37.8242C242.777 37.582 243.023 37.2383 243.18 36.793C243.344 36.3477 243.414 35.8242 243.391 35.2227V34.2969C243.406 33.7812 243.371 33.3281 243.285 32.9375C243.199 32.5391 243.062 32.207 242.875 31.9414C242.695 31.6758 242.465 31.4766 242.184 31.3438C241.91 31.2031 241.586 31.1328 241.211 31.1328C240.844 31.1328 240.531 31.2188 240.273 31.3906C240.023 31.5625 239.82 31.8047 239.664 32.1172C239.508 32.4219 239.395 32.7852 239.324 33.207C239.254 33.6211 239.219 34.0742 239.219 34.5664ZM255.402 41.2344C254.371 41.2344 253.449 41.0742 252.637 40.7539C251.824 40.4258 251.137 39.9766 250.574 39.4062C250.02 38.8359 249.594 38.1797 249.297 37.4375C249.008 36.6953 248.863 35.9102 248.863 35.082V34.6367C248.863 33.707 248.992 32.8477 249.25 32.0586C249.508 31.2617 249.891 30.5664 250.398 29.9727C250.906 29.3789 251.543 28.918 252.309 28.5898C253.074 28.2539 253.965 28.0859 254.98 28.0859C255.879 28.0859 256.684 28.2305 257.395 28.5195C258.105 28.8086 258.707 29.2227 259.199 29.7617C259.699 30.3008 260.078 30.9531 260.336 31.7188C260.602 32.4844 260.734 33.3438 260.734 34.2969V35.9023H250.375V33.4297H256.879V33.125C256.887 32.7031 256.812 32.3438 256.656 32.0469C256.508 31.75 256.289 31.5234 256 31.3672C255.711 31.2109 255.359 31.1328 254.945 31.1328C254.516 31.1328 254.16 31.2266 253.879 31.4141C253.605 31.6016 253.391 31.8594 253.234 32.1875C253.086 32.5078 252.98 32.8789 252.918 33.3008C252.855 33.7227 252.824 34.168 252.824 34.6367V35.082C252.824 35.5508 252.887 35.9766 253.012 36.3594C253.145 36.7422 253.332 37.0703 253.574 37.3438C253.824 37.6094 254.121 37.8164 254.465 37.9648C254.816 38.1133 255.215 38.1875 255.66 38.1875C256.199 38.1875 256.73 38.0859 257.254 37.8828C257.777 37.6797 258.227 37.3438 258.602 36.875L260.395 39.0078C260.137 39.375 259.77 39.7305 259.293 40.0742C258.824 40.418 258.262 40.6992 257.605 40.918C256.949 41.1289 256.215 41.2344 255.402 41.2344ZM275.734 27.5234L271.574 41H267.156L273.426 23.9375H276.227L275.734 27.5234ZM279.18 41L275.008 27.5234L274.469 23.9375H277.305L283.609 41H279.18ZM279.016 34.6367V37.8125H270.262V34.6367H279.016ZM284.969 28.3203H288.93V41.4102C288.93 42.4258 288.734 43.2812 288.344 43.9766C287.953 44.6797 287.395 45.2109 286.668 45.5703C285.941 45.9375 285.074 46.1211 284.066 46.1211C283.73 46.1211 283.422 46.1055 283.141 46.0742C282.852 46.0508 282.535 46 282.191 45.9219V42.9336C282.395 42.9648 282.582 42.9883 282.754 43.0039C282.926 43.0273 283.113 43.0391 283.316 43.0391C283.676 43.0391 283.977 42.9805 284.219 42.8633C284.461 42.7461 284.645 42.5664 284.77 42.3242C284.902 42.082 284.969 41.7773 284.969 41.4102V28.3203ZM284.676 25.0508C284.676 24.4883 284.879 24.0273 285.285 23.668C285.691 23.3086 286.219 23.1289 286.867 23.1289C287.516 23.1289 288.043 23.3086 288.449 23.668C288.855 24.0273 289.059 24.4883 289.059 25.0508C289.059 25.6133 288.855 26.0742 288.449 26.4336C288.043 26.793 287.516 26.9727 286.867 26.9727C286.219 26.9727 285.691 26.793 285.285 26.4336C284.879 26.0742 284.676 25.6133 284.676 25.0508ZM290.676 34.7891V34.543C290.676 33.6133 290.809 32.7578 291.074 31.9766C291.34 31.1875 291.73 30.5039 292.246 29.9258C292.762 29.3477 293.398 28.8984 294.156 28.5781C294.914 28.25 295.789 28.0859 296.781 28.0859C297.781 28.0859 298.66 28.25 299.418 28.5781C300.184 28.8984 300.824 29.3477 301.34 29.9258C301.855 30.5039 302.246 31.1875 302.512 31.9766C302.777 32.7578 302.91 33.6133 302.91 34.543V34.7891C302.91 35.7109 302.777 36.5664 302.512 37.3555C302.246 38.1367 301.855 38.8203 301.34 39.4062C300.824 39.9844 300.188 40.4336 299.43 40.7539C298.672 41.0742 297.797 41.2344 296.805 41.2344C295.812 41.2344 294.934 41.0742 294.168 40.7539C293.402 40.4336 292.762 39.9844 292.246 39.4062C291.73 38.8203 291.34 38.1367 291.074 37.3555C290.809 36.5664 290.676 35.7109 290.676 34.7891ZM294.625 34.543V34.7891C294.625 35.2656 294.66 35.7109 294.73 36.125C294.801 36.5391 294.918 36.9023 295.082 37.2148C295.246 37.5195 295.469 37.7578 295.75 37.9297C296.031 38.1016 296.383 38.1875 296.805 38.1875C297.219 38.1875 297.562 38.1016 297.836 37.9297C298.117 37.7578 298.34 37.5195 298.504 37.2148C298.668 36.9023 298.785 36.5391 298.855 36.125C298.926 35.7109 298.961 35.2656 298.961 34.7891V34.543C298.961 34.082 298.926 33.6484 298.855 33.2422C298.785 32.8281 298.668 32.4648 298.504 32.1523C298.34 31.832 298.117 31.582 297.836 31.4023C297.555 31.2227 297.203 31.1328 296.781 31.1328C296.367 31.1328 296.02 31.2227 295.738 31.4023C295.465 31.582 295.246 31.832 295.082 32.1523C294.918 32.4648 294.801 32.8281 294.73 33.2422C294.66 33.6484 294.625 34.082 294.625 34.543Z" fill="#222121"/>
<path d="M135.571 61.6738V57.8594C135.571 57.5085 135.498 57.2054 135.353 56.9502C135.207 56.695 134.993 56.499 134.71 56.3623C134.427 56.2256 134.079 56.1572 133.664 56.1572C133.281 56.1572 132.939 56.2256 132.639 56.3623C132.342 56.4945 132.108 56.6745 131.935 56.9023C131.766 57.1257 131.682 57.374 131.682 57.6475L130.861 57.6406C130.861 57.3626 130.93 57.0938 131.066 56.834C131.203 56.5742 131.397 56.3418 131.647 56.1367C131.898 55.9316 132.197 55.7699 132.543 55.6514C132.894 55.5283 133.279 55.4668 133.698 55.4668C134.227 55.4668 134.692 55.5557 135.093 55.7334C135.498 55.9111 135.815 56.1777 136.043 56.5332C136.271 56.8887 136.385 57.3353 136.385 57.873V61.4482C136.385 61.7035 136.403 61.9678 136.439 62.2412C136.48 62.5146 136.537 62.7402 136.61 62.918V63H135.742C135.688 62.8359 135.644 62.6309 135.612 62.3848C135.585 62.1341 135.571 61.8971 135.571 61.6738ZM135.763 58.6934L135.776 59.3223H134.17C133.751 59.3223 133.375 59.361 133.042 59.4385C132.714 59.5114 132.436 59.6208 132.208 59.7666C131.98 59.9079 131.805 60.0788 131.682 60.2793C131.563 60.4798 131.504 60.7077 131.504 60.9629C131.504 61.2272 131.57 61.4688 131.702 61.6875C131.839 61.9062 132.03 62.0817 132.276 62.2139C132.527 62.3415 132.823 62.4053 133.165 62.4053C133.621 62.4053 134.022 62.321 134.368 62.1523C134.719 61.9837 135.008 61.7627 135.236 61.4893C135.464 61.2158 135.617 60.9173 135.694 60.5938L136.05 61.0654C135.991 61.2933 135.881 61.528 135.722 61.7695C135.567 62.0065 135.364 62.2298 135.113 62.4395C134.863 62.6445 134.566 62.8132 134.225 62.9453C133.887 63.0729 133.505 63.1367 133.076 63.1367C132.593 63.1367 132.172 63.0456 131.812 62.8633C131.456 62.681 131.178 62.4326 130.978 62.1182C130.782 61.7992 130.684 61.4391 130.684 61.0381C130.684 60.6735 130.761 60.3477 130.916 60.0605C131.071 59.7689 131.294 59.5228 131.586 59.3223C131.882 59.1172 132.238 58.9622 132.652 58.8574C133.072 58.748 133.541 58.6934 134.061 58.6934H135.763ZM138.565 52.5H139.386V61.5645L139.331 63H138.565V52.5ZM144.533 59.2334V59.377C144.533 59.9284 144.469 60.4342 144.342 60.8945C144.214 61.3548 144.03 61.7536 143.788 62.0908C143.547 62.4235 143.25 62.681 142.899 62.8633C142.553 63.0456 142.154 63.1367 141.703 63.1367C141.261 63.1367 140.869 63.0684 140.527 62.9316C140.186 62.7904 139.894 62.5921 139.652 62.3369C139.411 62.0771 139.217 61.7741 139.071 61.4277C138.925 61.0768 138.823 60.6917 138.764 60.2725V58.4473C138.832 58.0007 138.941 57.5951 139.092 57.2305C139.242 56.8659 139.436 56.5514 139.673 56.2871C139.914 56.0228 140.201 55.82 140.534 55.6787C140.871 55.5374 141.257 55.4668 141.689 55.4668C142.141 55.4668 142.542 55.5557 142.893 55.7334C143.248 55.9066 143.547 56.1595 143.788 56.4922C144.03 56.8203 144.214 57.2168 144.342 57.6816C144.469 58.1419 144.533 58.6592 144.533 59.2334ZM143.706 59.377V59.2334C143.706 58.8005 143.665 58.3994 143.583 58.0303C143.501 57.6611 143.371 57.3398 143.193 57.0664C143.02 56.7884 142.797 56.5719 142.523 56.417C142.25 56.262 141.922 56.1846 141.539 56.1846C141.147 56.1846 140.812 56.2507 140.534 56.3828C140.261 56.5104 140.033 56.6813 139.851 56.8955C139.673 57.1051 139.532 57.3353 139.427 57.5859C139.322 57.8366 139.244 58.0827 139.194 58.3242V60.4502C139.272 60.792 139.406 61.1133 139.598 61.4141C139.789 61.7148 140.047 61.9587 140.37 62.1455C140.694 62.3278 141.088 62.4189 141.553 62.4189C141.926 62.4189 142.248 62.3415 142.517 62.1865C142.79 62.0316 143.013 61.8174 143.187 61.5439C143.364 61.2705 143.494 60.9492 143.576 60.5801C143.663 60.2109 143.706 59.8099 143.706 59.377ZM151.15 61.5645V52.5H151.971V63H151.205L151.15 61.5645ZM146.017 59.377V59.2334C146.017 58.6592 146.083 58.1419 146.215 57.6816C146.347 57.2168 146.536 56.8203 146.782 56.4922C147.033 56.1595 147.334 55.9066 147.685 55.7334C148.035 55.5557 148.432 55.4668 148.874 55.4668C149.307 55.4668 149.69 55.5374 150.022 55.6787C150.355 55.82 150.64 56.0228 150.877 56.2871C151.118 56.5514 151.312 56.8659 151.458 57.2305C151.608 57.5951 151.718 58.0007 151.786 58.4473V60.2725C151.731 60.6917 151.631 61.0768 151.485 61.4277C151.34 61.7741 151.146 62.0771 150.904 62.3369C150.663 62.5921 150.371 62.7904 150.029 62.9316C149.692 63.0684 149.302 63.1367 148.86 63.1367C148.423 63.1367 148.029 63.0456 147.678 62.8633C147.327 62.681 147.028 62.4235 146.782 62.0908C146.536 61.7536 146.347 61.3548 146.215 60.8945C146.083 60.4342 146.017 59.9284 146.017 59.377ZM146.837 59.2334V59.377C146.837 59.8099 146.88 60.2109 146.967 60.5801C147.053 60.9492 147.186 61.2705 147.363 61.5439C147.541 61.8174 147.767 62.0316 148.04 62.1865C148.313 62.3415 148.637 62.4189 149.011 62.4189C149.48 62.4189 149.874 62.3301 150.193 62.1523C150.512 61.9701 150.768 61.7308 150.959 61.4346C151.15 61.1338 151.289 60.8057 151.376 60.4502V58.3242C151.321 58.0827 151.242 57.8366 151.137 57.5859C151.032 57.3353 150.888 57.1051 150.706 56.8955C150.528 56.6813 150.3 56.5104 150.022 56.3828C149.749 56.2507 149.416 56.1846 149.024 56.1846C148.646 56.1846 148.32 56.262 148.047 56.417C147.773 56.5719 147.546 56.7884 147.363 57.0664C147.186 57.3398 147.053 57.6611 146.967 58.0303C146.88 58.3994 146.837 58.8005 146.837 59.2334ZM155.525 63H154.712V54.6875C154.712 54.1816 154.799 53.7555 154.972 53.4092C155.149 53.0628 155.4 52.8008 155.724 52.623C156.052 52.4453 156.441 52.3564 156.893 52.3564C157.034 52.3564 157.18 52.3656 157.33 52.3838C157.48 52.3975 157.626 52.4271 157.768 52.4727L157.706 53.1631C157.592 53.1312 157.476 53.1107 157.357 53.1016C157.243 53.0879 157.109 53.0811 156.954 53.0811C156.658 53.0811 156.403 53.1449 156.188 53.2725C155.974 53.3955 155.81 53.5755 155.696 53.8125C155.582 54.0495 155.525 54.3411 155.525 54.6875V63ZM157.289 55.6035V56.2734H153.488V55.6035H157.289ZM158.308 59.418V59.1924C158.308 58.6546 158.385 58.1579 158.54 57.7021C158.695 57.2464 158.916 56.8522 159.203 56.5195C159.495 56.1868 159.843 55.9294 160.249 55.7471C160.655 55.5602 161.106 55.4668 161.603 55.4668C162.104 55.4668 162.557 55.5602 162.963 55.7471C163.368 55.9294 163.717 56.1868 164.009 56.5195C164.3 56.8522 164.524 57.2464 164.679 57.7021C164.834 58.1579 164.911 58.6546 164.911 59.1924V59.418C164.911 59.9557 164.834 60.4525 164.679 60.9082C164.524 61.3594 164.3 61.7513 164.009 62.084C163.722 62.4167 163.375 62.6764 162.97 62.8633C162.564 63.0456 162.113 63.1367 161.616 63.1367C161.115 63.1367 160.661 63.0456 160.256 62.8633C159.85 62.6764 159.502 62.4167 159.21 62.084C158.918 61.7513 158.695 61.3594 158.54 60.9082C158.385 60.4525 158.308 59.9557 158.308 59.418ZM159.121 59.1924V59.418C159.121 59.8236 159.176 60.2087 159.285 60.5732C159.395 60.9333 159.554 61.2546 159.764 61.5371C159.973 61.8151 160.233 62.0339 160.543 62.1934C160.853 62.3529 161.211 62.4326 161.616 62.4326C162.017 62.4326 162.37 62.3529 162.676 62.1934C162.986 62.0339 163.245 61.8151 163.455 61.5371C163.665 61.2546 163.822 60.9333 163.927 60.5732C164.036 60.2087 164.091 59.8236 164.091 59.418V59.1924C164.091 58.7913 164.036 58.4108 163.927 58.0508C163.822 57.6908 163.662 57.3695 163.448 57.0869C163.239 56.8044 162.979 56.5811 162.669 56.417C162.359 56.2529 162.004 56.1709 161.603 56.1709C161.201 56.1709 160.846 56.2529 160.536 56.417C160.231 56.5811 159.971 56.8044 159.757 57.0869C159.547 57.3695 159.388 57.6908 159.278 58.0508C159.174 58.4108 159.121 58.7913 159.121 59.1924ZM167.516 55.6035V63H166.702V55.6035H167.516ZM166.559 53.4639C166.559 53.3089 166.606 53.179 166.702 53.0742C166.802 52.9648 166.939 52.9102 167.112 52.9102C167.285 52.9102 167.422 52.9648 167.522 53.0742C167.627 53.179 167.68 53.3089 167.68 53.4639C167.68 53.6143 167.627 53.7441 167.522 53.8535C167.422 53.9583 167.285 54.0107 167.112 54.0107C166.939 54.0107 166.802 53.9583 166.702 53.8535C166.606 53.7441 166.559 53.6143 166.559 53.4639ZM174.249 61.6738V57.8594C174.249 57.5085 174.176 57.2054 174.03 56.9502C173.884 56.695 173.67 56.499 173.388 56.3623C173.105 56.2256 172.757 56.1572 172.342 56.1572C171.959 56.1572 171.617 56.2256 171.316 56.3623C171.02 56.4945 170.785 56.6745 170.612 56.9023C170.444 57.1257 170.359 57.374 170.359 57.6475L169.539 57.6406C169.539 57.3626 169.607 57.0938 169.744 56.834C169.881 56.5742 170.075 56.3418 170.325 56.1367C170.576 55.9316 170.874 55.7699 171.221 55.6514C171.572 55.5283 171.957 55.4668 172.376 55.4668C172.905 55.4668 173.369 55.5557 173.771 55.7334C174.176 55.9111 174.493 56.1777 174.721 56.5332C174.949 56.8887 175.062 57.3353 175.062 57.873V61.4482C175.062 61.7035 175.081 61.9678 175.117 62.2412C175.158 62.5146 175.215 62.7402 175.288 62.918V63H174.42C174.365 62.8359 174.322 62.6309 174.29 62.3848C174.263 62.1341 174.249 61.8971 174.249 61.6738ZM174.44 58.6934L174.454 59.3223H172.848C172.428 59.3223 172.052 59.361 171.72 59.4385C171.392 59.5114 171.114 59.6208 170.886 59.7666C170.658 59.9079 170.482 60.0788 170.359 60.2793C170.241 60.4798 170.182 60.7077 170.182 60.9629C170.182 61.2272 170.248 61.4688 170.38 61.6875C170.517 61.9062 170.708 62.0817 170.954 62.2139C171.205 62.3415 171.501 62.4053 171.843 62.4053C172.299 62.4053 172.7 62.321 173.046 62.1523C173.397 61.9837 173.686 61.7627 173.914 61.4893C174.142 61.2158 174.295 60.9173 174.372 60.5938L174.728 61.0654C174.668 61.2933 174.559 61.528 174.399 61.7695C174.244 62.0065 174.042 62.2298 173.791 62.4395C173.54 62.6445 173.244 62.8132 172.902 62.9453C172.565 63.0729 172.182 63.1367 171.754 63.1367C171.271 63.1367 170.849 63.0456 170.489 62.8633C170.134 62.681 169.856 62.4326 169.655 62.1182C169.459 61.7992 169.361 61.4391 169.361 61.0381C169.361 60.6735 169.439 60.3477 169.594 60.0605C169.749 59.7689 169.972 59.5228 170.264 59.3223C170.56 59.1172 170.915 58.9622 171.33 58.8574C171.749 58.748 172.219 58.6934 172.738 58.6934H174.44ZM177.243 52.5H178.063V61.5645L178.009 63H177.243V52.5ZM183.211 59.2334V59.377C183.211 59.9284 183.147 60.4342 183.02 60.8945C182.892 61.3548 182.707 61.7536 182.466 62.0908C182.224 62.4235 181.928 62.681 181.577 62.8633C181.231 63.0456 180.832 63.1367 180.381 63.1367C179.939 63.1367 179.547 63.0684 179.205 62.9316C178.863 62.7904 178.572 62.5921 178.33 62.3369C178.089 62.0771 177.895 61.7741 177.749 61.4277C177.603 61.0768 177.501 60.6917 177.441 60.2725V58.4473C177.51 58.0007 177.619 57.5951 177.77 57.2305C177.92 56.8659 178.114 56.5514 178.351 56.2871C178.592 56.0228 178.879 55.82 179.212 55.6787C179.549 55.5374 179.934 55.4668 180.367 55.4668C180.818 55.4668 181.219 55.5557 181.57 55.7334C181.926 55.9066 182.224 56.1595 182.466 56.4922C182.707 56.8203 182.892 57.2168 183.02 57.6816C183.147 58.1419 183.211 58.6592 183.211 59.2334ZM182.384 59.377V59.2334C182.384 58.8005 182.343 58.3994 182.261 58.0303C182.179 57.6611 182.049 57.3398 181.871 57.0664C181.698 56.7884 181.475 56.5719 181.201 56.417C180.928 56.262 180.6 56.1846 180.217 56.1846C179.825 56.1846 179.49 56.2507 179.212 56.3828C178.938 56.5104 178.711 56.6813 178.528 56.8955C178.351 57.1051 178.209 57.3353 178.104 57.5859C178 57.8366 177.922 58.0827 177.872 58.3242V60.4502C177.95 60.792 178.084 61.1133 178.275 61.4141C178.467 61.7148 178.724 61.9587 179.048 62.1455C179.371 62.3278 179.766 62.4189 180.23 62.4189C180.604 62.4189 180.925 62.3415 181.194 62.1865C181.468 62.0316 181.691 61.8174 181.864 61.5439C182.042 61.2705 182.172 60.9492 182.254 60.5801C182.34 60.2109 182.384 59.8099 182.384 59.377ZM189.452 61.1133C189.452 60.9128 189.402 60.7145 189.302 60.5186C189.201 60.3226 189.008 60.1426 188.721 59.9785C188.438 59.8145 188.021 59.6755 187.47 59.5615C187.06 59.4704 186.693 59.3678 186.369 59.2539C186.05 59.14 185.781 59.0033 185.562 58.8438C185.344 58.6842 185.177 58.4928 185.063 58.2695C184.95 58.0462 184.893 57.7819 184.893 57.4766C184.893 57.2031 184.952 56.9456 185.07 56.7041C185.193 56.458 185.367 56.2438 185.59 56.0615C185.818 55.8747 186.091 55.7288 186.41 55.624C186.734 55.5192 187.096 55.4668 187.497 55.4668C188.067 55.4668 188.554 55.5648 188.96 55.7607C189.37 55.9521 189.682 56.2142 189.896 56.5469C190.115 56.8796 190.225 57.2555 190.225 57.6748H189.411C189.411 57.4196 189.336 57.1781 189.186 56.9502C189.04 56.7223 188.823 56.5355 188.536 56.3896C188.254 56.2438 187.907 56.1709 187.497 56.1709C187.073 56.1709 186.729 56.2347 186.465 56.3623C186.201 56.4899 186.007 56.6517 185.884 56.8477C185.765 57.0436 185.706 57.2464 185.706 57.4561C185.706 57.6201 185.731 57.7705 185.781 57.9072C185.836 58.0394 185.932 58.1624 186.068 58.2764C186.21 58.3903 186.41 58.4974 186.67 58.5977C186.93 58.6979 187.267 58.7959 187.682 58.8916C188.279 59.0238 188.766 59.1855 189.145 59.377C189.527 59.5638 189.81 59.7962 189.992 60.0742C190.174 60.3477 190.266 60.6803 190.266 61.0723C190.266 61.3776 190.202 61.6579 190.074 61.9131C189.947 62.1637 189.762 62.3802 189.521 62.5625C189.284 62.7448 188.996 62.8861 188.659 62.9863C188.326 63.0866 187.953 63.1367 187.538 63.1367C186.914 63.1367 186.385 63.0342 185.952 62.8291C185.524 62.6195 185.198 62.346 184.975 62.0088C184.756 61.667 184.646 61.3047 184.646 60.9219H185.46C185.487 61.3047 185.608 61.6077 185.822 61.8311C186.036 62.0498 186.299 62.2048 186.608 62.2959C186.923 62.387 187.233 62.4326 187.538 62.4326C187.957 62.4326 188.308 62.3711 188.591 62.248C188.873 62.125 189.088 61.9632 189.233 61.7627C189.379 61.5622 189.452 61.3457 189.452 61.1133ZM193.027 55.6035V63H192.214V55.6035H193.027ZM192.07 53.4639C192.07 53.3089 192.118 53.179 192.214 53.0742C192.314 52.9648 192.451 52.9102 192.624 52.9102C192.797 52.9102 192.934 52.9648 193.034 53.0742C193.139 53.179 193.191 53.3089 193.191 53.4639C193.191 53.6143 193.139 53.7441 193.034 53.8535C192.934 53.9583 192.797 54.0107 192.624 54.0107C192.451 54.0107 192.314 53.9583 192.214 53.8535C192.118 53.7441 192.07 53.6143 192.07 53.4639ZM199.761 61.6738V57.8594C199.761 57.5085 199.688 57.2054 199.542 56.9502C199.396 56.695 199.182 56.499 198.899 56.3623C198.617 56.2256 198.268 56.1572 197.854 56.1572C197.471 56.1572 197.129 56.2256 196.828 56.3623C196.532 56.4945 196.297 56.6745 196.124 56.9023C195.955 57.1257 195.871 57.374 195.871 57.6475L195.051 57.6406C195.051 57.3626 195.119 57.0938 195.256 56.834C195.393 56.5742 195.586 56.3418 195.837 56.1367C196.088 55.9316 196.386 55.7699 196.732 55.6514C197.083 55.5283 197.468 55.4668 197.888 55.4668C198.416 55.4668 198.881 55.5557 199.282 55.7334C199.688 55.9111 200.005 56.1777 200.232 56.5332C200.46 56.8887 200.574 57.3353 200.574 57.873V61.4482C200.574 61.7035 200.592 61.9678 200.629 62.2412C200.67 62.5146 200.727 62.7402 200.8 62.918V63H199.932C199.877 62.8359 199.834 62.6309 199.802 62.3848C199.774 62.1341 199.761 61.8971 199.761 61.6738ZM199.952 58.6934L199.966 59.3223H198.359C197.94 59.3223 197.564 59.361 197.231 59.4385C196.903 59.5114 196.625 59.6208 196.397 59.7666C196.17 59.9079 195.994 60.0788 195.871 60.2793C195.753 60.4798 195.693 60.7077 195.693 60.9629C195.693 61.2272 195.759 61.4688 195.892 61.6875C196.028 61.9062 196.22 62.0817 196.466 62.2139C196.716 62.3415 197.013 62.4053 197.354 62.4053C197.81 62.4053 198.211 62.321 198.558 62.1523C198.909 61.9837 199.198 61.7627 199.426 61.4893C199.654 61.2158 199.806 60.9173 199.884 60.5938L200.239 61.0654C200.18 61.2933 200.071 61.528 199.911 61.7695C199.756 62.0065 199.553 62.2298 199.303 62.4395C199.052 62.6445 198.756 62.8132 198.414 62.9453C198.077 63.0729 197.694 63.1367 197.266 63.1367C196.783 63.1367 196.361 63.0456 196.001 62.8633C195.646 62.681 195.368 62.4326 195.167 62.1182C194.971 61.7992 194.873 61.4391 194.873 61.0381C194.873 60.6735 194.951 60.3477 195.105 60.0605C195.26 59.7689 195.484 59.5228 195.775 59.3223C196.072 59.1172 196.427 58.9622 196.842 58.8574C197.261 58.748 197.73 58.6934 198.25 58.6934H199.952ZM203.582 57.1826V63H202.769V55.6035H203.548L203.582 57.1826ZM203.397 58.8438L203.035 58.6387C203.062 58.2012 203.151 57.791 203.302 57.4082C203.452 57.0254 203.655 56.6882 203.91 56.3965C204.17 56.1048 204.473 55.877 204.819 55.7129C205.17 55.5488 205.558 55.4668 205.981 55.4668C206.351 55.4668 206.681 55.5169 206.973 55.6172C207.264 55.7174 207.513 55.877 207.718 56.0957C207.923 56.3145 208.078 56.5947 208.183 56.9365C208.292 57.2783 208.347 57.6953 208.347 58.1875V63H207.526V58.1807C207.526 57.6702 207.456 57.2715 207.314 56.9844C207.173 56.6927 206.973 56.4854 206.713 56.3623C206.453 56.2393 206.146 56.1777 205.79 56.1777C205.398 56.1777 205.054 56.2643 204.758 56.4375C204.466 56.6061 204.22 56.8271 204.02 57.1006C203.824 57.3695 203.673 57.6589 203.568 57.9688C203.464 58.2741 203.407 58.5658 203.397 58.8438ZM215.271 61.5645V52.5H216.092V63H215.326L215.271 61.5645ZM210.138 59.377V59.2334C210.138 58.6592 210.204 58.1419 210.336 57.6816C210.468 57.2168 210.657 56.8203 210.903 56.4922C211.154 56.1595 211.455 55.9066 211.806 55.7334C212.157 55.5557 212.553 55.4668 212.995 55.4668C213.428 55.4668 213.811 55.5374 214.144 55.6787C214.476 55.82 214.761 56.0228 214.998 56.2871C215.24 56.5514 215.433 56.8659 215.579 57.2305C215.729 57.5951 215.839 58.0007 215.907 58.4473V60.2725C215.853 60.6917 215.752 61.0768 215.606 61.4277C215.461 61.7741 215.267 62.0771 215.025 62.3369C214.784 62.5921 214.492 62.7904 214.15 62.9316C213.813 63.0684 213.424 63.1367 212.981 63.1367C212.544 63.1367 212.15 63.0456 211.799 62.8633C211.448 62.681 211.149 62.4235 210.903 62.0908C210.657 61.7536 210.468 61.3548 210.336 60.8945C210.204 60.4342 210.138 59.9284 210.138 59.377ZM210.958 59.2334V59.377C210.958 59.8099 211.001 60.2109 211.088 60.5801C211.174 60.9492 211.307 61.2705 211.484 61.5439C211.662 61.8174 211.888 62.0316 212.161 62.1865C212.435 62.3415 212.758 62.4189 213.132 62.4189C213.601 62.4189 213.995 62.3301 214.314 62.1523C214.633 61.9701 214.889 61.7308 215.08 61.4346C215.271 61.1338 215.41 60.8057 215.497 60.4502V58.3242C215.442 58.0827 215.363 57.8366 215.258 57.5859C215.153 57.3353 215.009 57.1051 214.827 56.8955C214.649 56.6813 214.422 56.5104 214.144 56.3828C213.87 56.2507 213.537 56.1846 213.146 56.1846C212.767 56.1846 212.441 56.262 212.168 56.417C211.895 56.5719 211.667 56.7884 211.484 57.0664C211.307 57.3398 211.174 57.6611 211.088 58.0303C211.001 58.3994 210.958 58.8005 210.958 59.2334ZM217.794 59.418V59.1924C217.794 58.6546 217.871 58.1579 218.026 57.7021C218.181 57.2464 218.402 56.8522 218.689 56.5195C218.981 56.1868 219.33 55.9294 219.735 55.7471C220.141 55.5602 220.592 55.4668 221.089 55.4668C221.59 55.4668 222.044 55.5602 222.449 55.7471C222.855 55.9294 223.203 56.1868 223.495 56.5195C223.787 56.8522 224.01 57.2464 224.165 57.7021C224.32 58.1579 224.397 58.6546 224.397 59.1924V59.418C224.397 59.9557 224.32 60.4525 224.165 60.9082C224.01 61.3594 223.787 61.7513 223.495 62.084C223.208 62.4167 222.862 62.6764 222.456 62.8633C222.05 63.0456 221.599 63.1367 221.103 63.1367C220.601 63.1367 220.148 63.0456 219.742 62.8633C219.337 62.6764 218.988 62.4167 218.696 62.084C218.405 61.7513 218.181 61.3594 218.026 60.9082C217.871 60.4525 217.794 59.9557 217.794 59.418ZM218.607 59.1924V59.418C218.607 59.8236 218.662 60.2087 218.771 60.5732C218.881 60.9333 219.04 61.2546 219.25 61.5371C219.46 61.8151 219.719 62.0339 220.029 62.1934C220.339 62.3529 220.697 62.4326 221.103 62.4326C221.504 62.4326 221.857 62.3529 222.162 62.1934C222.472 62.0339 222.732 61.8151 222.941 61.5371C223.151 61.2546 223.308 60.9333 223.413 60.5732C223.522 60.2087 223.577 59.8236 223.577 59.418V59.1924C223.577 58.7913 223.522 58.4108 223.413 58.0508C223.308 57.6908 223.149 57.3695 222.935 57.0869C222.725 56.8044 222.465 56.5811 222.155 56.417C221.845 56.2529 221.49 56.1709 221.089 56.1709C220.688 56.1709 220.332 56.2529 220.022 56.417C219.717 56.5811 219.457 56.8044 219.243 57.0869C219.034 57.3695 218.874 57.6908 218.765 58.0508C218.66 58.4108 218.607 58.7913 218.607 59.1924ZM227.002 55.6035V63H226.188V55.6035H227.002ZM226.045 53.4639C226.045 53.3089 226.093 53.179 226.188 53.0742C226.289 52.9648 226.425 52.9102 226.599 52.9102C226.772 52.9102 226.909 52.9648 227.009 53.0742C227.114 53.179 227.166 53.3089 227.166 53.4639C227.166 53.6143 227.114 53.7441 227.009 53.8535C226.909 53.9583 226.772 54.0107 226.599 54.0107C226.425 54.0107 226.289 53.9583 226.188 53.8535C226.093 53.7441 226.045 53.6143 226.045 53.4639ZM233.735 61.6738V57.8594C233.735 57.5085 233.662 57.2054 233.517 56.9502C233.371 56.695 233.157 56.499 232.874 56.3623C232.591 56.2256 232.243 56.1572 231.828 56.1572C231.445 56.1572 231.104 56.2256 230.803 56.3623C230.507 56.4945 230.272 56.6745 230.099 56.9023C229.93 57.1257 229.846 57.374 229.846 57.6475L229.025 57.6406C229.025 57.3626 229.094 57.0938 229.23 56.834C229.367 56.5742 229.561 56.3418 229.812 56.1367C230.062 55.9316 230.361 55.7699 230.707 55.6514C231.058 55.5283 231.443 55.4668 231.862 55.4668C232.391 55.4668 232.856 55.5557 233.257 55.7334C233.662 55.9111 233.979 56.1777 234.207 56.5332C234.435 56.8887 234.549 57.3353 234.549 57.873V61.4482C234.549 61.7035 234.567 61.9678 234.604 62.2412C234.645 62.5146 234.701 62.7402 234.774 62.918V63H233.906C233.852 62.8359 233.808 62.6309 233.776 62.3848C233.749 62.1341 233.735 61.8971 233.735 61.6738ZM233.927 58.6934L233.94 59.3223H232.334C231.915 59.3223 231.539 59.361 231.206 59.4385C230.878 59.5114 230.6 59.6208 230.372 59.7666C230.144 59.9079 229.969 60.0788 229.846 60.2793C229.727 60.4798 229.668 60.7077 229.668 60.9629C229.668 61.2272 229.734 61.4688 229.866 61.6875C230.003 61.9062 230.194 62.0817 230.44 62.2139C230.691 62.3415 230.987 62.4053 231.329 62.4053C231.785 62.4053 232.186 62.321 232.532 62.1523C232.883 61.9837 233.173 61.7627 233.4 61.4893C233.628 61.2158 233.781 60.9173 233.858 60.5938L234.214 61.0654C234.155 61.2933 234.045 61.528 233.886 61.7695C233.731 62.0065 233.528 62.2298 233.277 62.4395C233.027 62.6445 232.73 62.8132 232.389 62.9453C232.051 63.0729 231.669 63.1367 231.24 63.1367C230.757 63.1367 230.336 63.0456 229.976 62.8633C229.62 62.681 229.342 62.4326 229.142 62.1182C228.946 61.7992 228.848 61.4391 228.848 61.0381C228.848 60.6735 228.925 60.3477 229.08 60.0605C229.235 59.7689 229.458 59.5228 229.75 59.3223C230.046 59.1172 230.402 58.9622 230.816 58.8574C231.236 58.748 231.705 58.6934 232.225 58.6934H233.927ZM237.557 57.1826V63H236.743V55.6035H237.522L237.557 57.1826ZM237.372 58.8438L237.01 58.6387C237.037 58.2012 237.126 57.791 237.276 57.4082C237.427 57.0254 237.63 56.6882 237.885 56.3965C238.145 56.1048 238.448 55.877 238.794 55.7129C239.145 55.5488 239.532 55.4668 239.956 55.4668C240.325 55.4668 240.656 55.5169 240.947 55.6172C241.239 55.7174 241.487 55.877 241.692 56.0957C241.897 56.3145 242.052 56.5947 242.157 56.9365C242.267 57.2783 242.321 57.6953 242.321 58.1875V63H241.501V58.1807C241.501 57.6702 241.43 57.2715 241.289 56.9844C241.148 56.6927 240.947 56.4854 240.688 56.3623C240.428 56.2393 240.12 56.1777 239.765 56.1777C239.373 56.1777 239.029 56.2643 238.732 56.4375C238.441 56.6061 238.195 56.8271 237.994 57.1006C237.798 57.3695 237.648 57.6589 237.543 57.9688C237.438 58.2741 237.381 58.5658 237.372 58.8438ZM249.246 61.5645V52.5H250.066V63H249.301L249.246 61.5645ZM244.112 59.377V59.2334C244.112 58.6592 244.178 58.1419 244.311 57.6816C244.443 57.2168 244.632 56.8203 244.878 56.4922C245.129 56.1595 245.429 55.9066 245.78 55.7334C246.131 55.5557 246.528 55.4668 246.97 55.4668C247.403 55.4668 247.785 55.5374 248.118 55.6787C248.451 55.82 248.736 56.0228 248.973 56.2871C249.214 56.5514 249.408 56.8659 249.554 57.2305C249.704 57.5951 249.813 58.0007 249.882 58.4473V60.2725C249.827 60.6917 249.727 61.0768 249.581 61.4277C249.435 61.7741 249.242 62.0771 249 62.3369C248.758 62.5921 248.467 62.7904 248.125 62.9316C247.788 63.0684 247.398 63.1367 246.956 63.1367C246.519 63.1367 246.124 63.0456 245.773 62.8633C245.423 62.681 245.124 62.4235 244.878 62.0908C244.632 61.7536 244.443 61.3548 244.311 60.8945C244.178 60.4342 244.112 59.9284 244.112 59.377ZM244.933 59.2334V59.377C244.933 59.8099 244.976 60.2109 245.062 60.5801C245.149 60.9492 245.281 61.2705 245.459 61.5439C245.637 61.8174 245.862 62.0316 246.136 62.1865C246.409 62.3415 246.733 62.4189 247.106 62.4189C247.576 62.4189 247.97 62.3301 248.289 62.1523C248.608 61.9701 248.863 61.7308 249.055 61.4346C249.246 61.1338 249.385 60.8057 249.472 60.4502V58.3242C249.417 58.0827 249.337 57.8366 249.232 57.5859C249.128 57.3353 248.984 57.1051 248.802 56.8955C248.624 56.6813 248.396 56.5104 248.118 56.3828C247.845 56.2507 247.512 56.1846 247.12 56.1846C246.742 56.1846 246.416 56.262 246.143 56.417C245.869 56.5719 245.641 56.7884 245.459 57.0664C245.281 57.3398 245.149 57.6611 245.062 58.0303C244.976 58.3994 244.933 58.8005 244.933 59.2334ZM251.769 59.418V59.1924C251.769 58.6546 251.846 58.1579 252.001 57.7021C252.156 57.2464 252.377 56.8522 252.664 56.5195C252.956 56.1868 253.304 55.9294 253.71 55.7471C254.116 55.5602 254.567 55.4668 255.063 55.4668C255.565 55.4668 256.018 55.5602 256.424 55.7471C256.829 55.9294 257.178 56.1868 257.47 56.5195C257.761 56.8522 257.985 57.2464 258.14 57.7021C258.295 58.1579 258.372 58.6546 258.372 59.1924V59.418C258.372 59.9557 258.295 60.4525 258.14 60.9082C257.985 61.3594 257.761 61.7513 257.47 62.084C257.183 62.4167 256.836 62.6764 256.431 62.8633C256.025 63.0456 255.574 63.1367 255.077 63.1367C254.576 63.1367 254.122 63.0456 253.717 62.8633C253.311 62.6764 252.963 62.4167 252.671 62.084C252.379 61.7513 252.156 61.3594 252.001 60.9082C251.846 60.4525 251.769 59.9557 251.769 59.418ZM252.582 59.1924V59.418C252.582 59.8236 252.637 60.2087 252.746 60.5732C252.855 60.9333 253.015 61.2546 253.225 61.5371C253.434 61.8151 253.694 62.0339 254.004 62.1934C254.314 62.3529 254.672 62.4326 255.077 62.4326C255.478 62.4326 255.831 62.3529 256.137 62.1934C256.447 62.0339 256.706 61.8151 256.916 61.5371C257.126 61.2546 257.283 60.9333 257.388 60.5732C257.497 60.2087 257.552 59.8236 257.552 59.418V59.1924C257.552 58.7913 257.497 58.4108 257.388 58.0508C257.283 57.6908 257.123 57.3695 256.909 57.0869C256.7 56.8044 256.44 56.5811 256.13 56.417C255.82 56.2529 255.465 56.1709 255.063 56.1709C254.662 56.1709 254.307 56.2529 253.997 56.417C253.692 56.5811 253.432 56.8044 253.218 57.0869C253.008 57.3695 252.849 57.6908 252.739 58.0508C252.634 58.4108 252.582 58.7913 252.582 59.1924ZM260.977 55.6035V63H260.163V55.6035H260.977ZM260.02 53.4639C260.02 53.3089 260.067 53.179 260.163 53.0742C260.263 52.9648 260.4 52.9102 260.573 52.9102C260.746 52.9102 260.883 52.9648 260.983 53.0742C261.088 53.179 261.141 53.3089 261.141 53.4639C261.141 53.6143 261.088 53.7441 260.983 53.8535C260.883 53.9583 260.746 54.0107 260.573 54.0107C260.4 54.0107 260.263 53.9583 260.163 53.8535C260.067 53.7441 260.02 53.6143 260.02 53.4639ZM267.71 61.6738V57.8594C267.71 57.5085 267.637 57.2054 267.491 56.9502C267.345 56.695 267.131 56.499 266.849 56.3623C266.566 56.2256 266.217 56.1572 265.803 56.1572C265.42 56.1572 265.078 56.2256 264.777 56.3623C264.481 56.4945 264.246 56.6745 264.073 56.9023C263.905 57.1257 263.82 57.374 263.82 57.6475L263 57.6406C263 57.3626 263.068 57.0938 263.205 56.834C263.342 56.5742 263.535 56.3418 263.786 56.1367C264.037 55.9316 264.335 55.7699 264.682 55.6514C265.033 55.5283 265.418 55.4668 265.837 55.4668C266.366 55.4668 266.83 55.5557 267.231 55.7334C267.637 55.9111 267.954 56.1777 268.182 56.5332C268.41 56.8887 268.523 57.3353 268.523 57.873V61.4482C268.523 61.7035 268.542 61.9678 268.578 62.2412C268.619 62.5146 268.676 62.7402 268.749 62.918V63H267.881C267.826 62.8359 267.783 62.6309 267.751 62.3848C267.724 62.1341 267.71 61.8971 267.71 61.6738ZM267.901 58.6934L267.915 59.3223H266.309C265.889 59.3223 265.513 59.361 265.181 59.4385C264.853 59.5114 264.575 59.6208 264.347 59.7666C264.119 59.9079 263.943 60.0788 263.82 60.2793C263.702 60.4798 263.643 60.7077 263.643 60.9629C263.643 61.2272 263.709 61.4688 263.841 61.6875C263.978 61.9062 264.169 62.0817 264.415 62.2139C264.666 62.3415 264.962 62.4053 265.304 62.4053C265.759 62.4053 266.16 62.321 266.507 62.1523C266.858 61.9837 267.147 61.7627 267.375 61.4893C267.603 61.2158 267.756 60.9173 267.833 60.5938L268.188 61.0654C268.129 61.2933 268.02 61.528 267.86 61.7695C267.705 62.0065 267.503 62.2298 267.252 62.4395C267.001 62.6445 266.705 62.8132 266.363 62.9453C266.026 63.0729 265.643 63.1367 265.215 63.1367C264.732 63.1367 264.31 63.0456 263.95 62.8633C263.595 62.681 263.317 62.4326 263.116 62.1182C262.92 61.7992 262.822 61.4391 262.822 61.0381C262.822 60.6735 262.9 60.3477 263.055 60.0605C263.21 59.7689 263.433 59.5228 263.725 59.3223C264.021 59.1172 264.376 58.9622 264.791 58.8574C265.21 58.748 265.68 58.6934 266.199 58.6934H267.901ZM275.147 61.1133C275.147 60.9128 275.097 60.7145 274.997 60.5186C274.897 60.3226 274.703 60.1426 274.416 59.9785C274.133 59.8145 273.716 59.6755 273.165 59.5615C272.755 59.4704 272.388 59.3678 272.064 59.2539C271.745 59.14 271.477 59.0033 271.258 58.8438C271.039 58.6842 270.873 58.4928 270.759 58.2695C270.645 58.0462 270.588 57.7819 270.588 57.4766C270.588 57.2031 270.647 56.9456 270.766 56.7041C270.889 56.458 271.062 56.2438 271.285 56.0615C271.513 55.8747 271.786 55.7288 272.105 55.624C272.429 55.5192 272.791 55.4668 273.192 55.4668C273.762 55.4668 274.25 55.5648 274.655 55.7607C275.065 55.9521 275.378 56.2142 275.592 56.5469C275.811 56.8796 275.92 57.2555 275.92 57.6748H275.106C275.106 57.4196 275.031 57.1781 274.881 56.9502C274.735 56.7223 274.519 56.5355 274.231 56.3896C273.949 56.2438 273.603 56.1709 273.192 56.1709C272.769 56.1709 272.424 56.2347 272.16 56.3623C271.896 56.4899 271.702 56.6517 271.579 56.8477C271.461 57.0436 271.401 57.2464 271.401 57.4561C271.401 57.6201 271.426 57.7705 271.477 57.9072C271.531 58.0394 271.627 58.1624 271.764 58.2764C271.905 58.3903 272.105 58.4974 272.365 58.5977C272.625 58.6979 272.962 58.7959 273.377 58.8916C273.974 59.0238 274.462 59.1855 274.84 59.377C275.223 59.5638 275.505 59.7962 275.688 60.0742C275.87 60.3477 275.961 60.6803 275.961 61.0723C275.961 61.3776 275.897 61.6579 275.77 61.9131C275.642 62.1637 275.457 62.3802 275.216 62.5625C274.979 62.7448 274.692 62.8861 274.354 62.9863C274.022 63.0866 273.648 63.1367 273.233 63.1367C272.609 63.1367 272.08 63.0342 271.647 62.8291C271.219 62.6195 270.893 62.346 270.67 62.0088C270.451 61.667 270.342 61.3047 270.342 60.9219H271.155C271.183 61.3047 271.303 61.6077 271.518 61.8311C271.732 62.0498 271.994 62.2048 272.304 62.2959C272.618 62.387 272.928 62.4326 273.233 62.4326C273.653 62.4326 274.004 62.3711 274.286 62.248C274.569 62.125 274.783 61.9632 274.929 61.7627C275.075 61.5622 275.147 61.3457 275.147 61.1133ZM278.627 57.1826V63H277.813V55.6035H278.593L278.627 57.1826ZM278.442 58.8438L278.08 58.6387C278.107 58.2012 278.196 57.791 278.347 57.4082C278.497 57.0254 278.7 56.6882 278.955 56.3965C279.215 56.1048 279.518 55.877 279.864 55.7129C280.215 55.5488 280.603 55.4668 281.026 55.4668C281.396 55.4668 281.726 55.5169 282.018 55.6172C282.309 55.7174 282.558 55.877 282.763 56.0957C282.968 56.3145 283.123 56.5947 283.228 56.9365C283.337 57.2783 283.392 57.6953 283.392 58.1875V63H282.571V58.1807C282.571 57.6702 282.501 57.2715 282.359 56.9844C282.218 56.6927 282.018 56.4854 281.758 56.3623C281.498 56.2393 281.19 56.1777 280.835 56.1777C280.443 56.1777 280.099 56.2643 279.803 56.4375C279.511 56.6061 279.265 56.8271 279.064 57.1006C278.868 57.3695 278.718 57.6589 278.613 57.9688C278.508 58.2741 278.451 58.5658 278.442 58.8438ZM290.316 61.5645V52.5H291.137V63H290.371L290.316 61.5645ZM285.183 59.377V59.2334C285.183 58.6592 285.249 58.1419 285.381 57.6816C285.513 57.2168 285.702 56.8203 285.948 56.4922C286.199 56.1595 286.5 55.9066 286.851 55.7334C287.201 55.5557 287.598 55.4668 288.04 55.4668C288.473 55.4668 288.856 55.5374 289.188 55.6787C289.521 55.82 289.806 56.0228 290.043 56.2871C290.285 56.5514 290.478 56.8659 290.624 57.2305C290.774 57.5951 290.884 58.0007 290.952 58.4473V60.2725C290.897 60.6917 290.797 61.0768 290.651 61.4277C290.506 61.7741 290.312 62.0771 290.07 62.3369C289.829 62.5921 289.537 62.7904 289.195 62.9316C288.858 63.0684 288.468 63.1367 288.026 63.1367C287.589 63.1367 287.195 63.0456 286.844 62.8633C286.493 62.681 286.194 62.4235 285.948 62.0908C285.702 61.7536 285.513 61.3548 285.381 60.8945C285.249 60.4342 285.183 59.9284 285.183 59.377ZM286.003 59.2334V59.377C286.003 59.8099 286.046 60.2109 286.133 60.5801C286.219 60.9492 286.352 61.2705 286.529 61.5439C286.707 61.8174 286.933 62.0316 287.206 62.1865C287.479 62.3415 287.803 62.4189 288.177 62.4189C288.646 62.4189 289.04 62.3301 289.359 62.1523C289.678 61.9701 289.934 61.7308 290.125 61.4346C290.316 61.1338 290.455 60.8057 290.542 60.4502V58.3242C290.487 58.0827 290.408 57.8366 290.303 57.5859C290.198 57.3353 290.054 57.1051 289.872 56.8955C289.694 56.6813 289.466 56.5104 289.188 56.3828C288.915 56.2507 288.582 56.1846 288.19 56.1846C287.812 56.1846 287.486 56.262 287.213 56.417C286.939 56.5719 286.712 56.7884 286.529 57.0664C286.352 57.3398 286.219 57.6611 286.133 58.0303C286.046 58.3994 286.003 58.8005 286.003 59.2334ZM130.622 75.418V75.1924C130.622 74.6546 130.7 74.1579 130.854 73.7021C131.009 73.2464 131.23 72.8522 131.518 72.5195C131.809 72.1868 132.158 71.9294 132.563 71.7471C132.969 71.5602 133.42 71.4668 133.917 71.4668C134.418 71.4668 134.872 71.5602 135.277 71.7471C135.683 71.9294 136.032 72.1868 136.323 72.5195C136.615 72.8522 136.838 73.2464 136.993 73.7021C137.148 74.1579 137.226 74.6546 137.226 75.1924V75.418C137.226 75.9557 137.148 76.4525 136.993 76.9082C136.838 77.3594 136.615 77.7513 136.323 78.084C136.036 78.4167 135.69 78.6764 135.284 78.8633C134.879 79.0456 134.427 79.1367 133.931 79.1367C133.429 79.1367 132.976 79.0456 132.57 78.8633C132.165 78.6764 131.816 78.4167 131.524 78.084C131.233 77.7513 131.009 77.3594 130.854 76.9082C130.7 76.4525 130.622 75.9557 130.622 75.418ZM131.436 75.1924V75.418C131.436 75.8236 131.49 76.2087 131.6 76.5732C131.709 76.9333 131.868 77.2546 132.078 77.5371C132.288 77.8151 132.548 78.0339 132.857 78.1934C133.167 78.3529 133.525 78.4326 133.931 78.4326C134.332 78.4326 134.685 78.3529 134.99 78.1934C135.3 78.0339 135.56 77.8151 135.77 77.5371C135.979 77.2546 136.136 76.9333 136.241 76.5732C136.351 76.2087 136.405 75.8236 136.405 75.418V75.1924C136.405 74.7913 136.351 74.4108 136.241 74.0508C136.136 73.6908 135.977 73.3695 135.763 73.0869C135.553 72.8044 135.293 72.5811 134.983 72.417C134.674 72.2529 134.318 72.1709 133.917 72.1709C133.516 72.1709 133.16 72.2529 132.851 72.417C132.545 72.5811 132.285 72.8044 132.071 73.0869C131.862 73.3695 131.702 73.6908 131.593 74.0508C131.488 74.4108 131.436 74.7913 131.436 75.1924ZM139.83 71.6035V79H139.017V71.6035H139.83ZM138.873 69.4639C138.873 69.3089 138.921 69.179 139.017 69.0742C139.117 68.9648 139.254 68.9102 139.427 68.9102C139.6 68.9102 139.737 68.9648 139.837 69.0742C139.942 69.179 139.994 69.3089 139.994 69.4639C139.994 69.6143 139.942 69.7441 139.837 69.8535C139.737 69.9583 139.6 70.0107 139.427 70.0107C139.254 70.0107 139.117 69.9583 139.017 69.8535C138.921 69.7441 138.873 69.6143 138.873 69.4639ZM142.879 73.1826V79H142.065V71.6035H142.845L142.879 73.1826ZM142.694 74.8438L142.332 74.6387C142.359 74.2012 142.448 73.791 142.599 73.4082C142.749 73.0254 142.952 72.6882 143.207 72.3965C143.467 72.1048 143.77 71.877 144.116 71.7129C144.467 71.5488 144.854 71.4668 145.278 71.4668C145.647 71.4668 145.978 71.5169 146.27 71.6172C146.561 71.7174 146.81 71.877 147.015 72.0957C147.22 72.3145 147.375 72.5947 147.479 72.9365C147.589 73.2783 147.644 73.6953 147.644 74.1875V79H146.823V74.1807C146.823 73.6702 146.753 73.2715 146.611 72.9844C146.47 72.6927 146.27 72.4854 146.01 72.3623C145.75 72.2393 145.442 72.1777 145.087 72.1777C144.695 72.1777 144.351 72.2643 144.055 72.4375C143.763 72.6061 143.517 72.8271 143.316 73.1006C143.12 73.3695 142.97 73.6589 142.865 73.9688C142.76 74.2741 142.703 74.5658 142.694 74.8438ZM154.261 77.6738V73.8594C154.261 73.5085 154.188 73.2054 154.042 72.9502C153.896 72.695 153.682 72.499 153.399 72.3623C153.117 72.2256 152.768 72.1572 152.354 72.1572C151.971 72.1572 151.629 72.2256 151.328 72.3623C151.032 72.4945 150.797 72.6745 150.624 72.9023C150.455 73.1257 150.371 73.374 150.371 73.6475L149.551 73.6406C149.551 73.3626 149.619 73.0938 149.756 72.834C149.893 72.5742 150.086 72.3418 150.337 72.1367C150.588 71.9316 150.886 71.7699 151.232 71.6514C151.583 71.5283 151.968 71.4668 152.388 71.4668C152.916 71.4668 153.381 71.5557 153.782 71.7334C154.188 71.9111 154.505 72.1777 154.732 72.5332C154.96 72.8887 155.074 73.3353 155.074 73.873V77.4482C155.074 77.7035 155.092 77.9678 155.129 78.2412C155.17 78.5146 155.227 78.7402 155.3 78.918V79H154.432C154.377 78.8359 154.334 78.6309 154.302 78.3848C154.274 78.1341 154.261 77.8971 154.261 77.6738ZM154.452 74.6934L154.466 75.3223H152.859C152.44 75.3223 152.064 75.361 151.731 75.4385C151.403 75.5114 151.125 75.6208 150.897 75.7666C150.67 75.9079 150.494 76.0788 150.371 76.2793C150.253 76.4798 150.193 76.7077 150.193 76.9629C150.193 77.2272 150.259 77.4688 150.392 77.6875C150.528 77.9062 150.72 78.0817 150.966 78.2139C151.216 78.3415 151.513 78.4053 151.854 78.4053C152.31 78.4053 152.711 78.321 153.058 78.1523C153.409 77.9837 153.698 77.7627 153.926 77.4893C154.154 77.2158 154.306 76.9173 154.384 76.5938L154.739 77.0654C154.68 77.2933 154.571 77.528 154.411 77.7695C154.256 78.0065 154.053 78.2298 153.803 78.4395C153.552 78.6445 153.256 78.8132 152.914 78.9453C152.577 79.0729 152.194 79.1367 151.766 79.1367C151.283 79.1367 150.861 79.0456 150.501 78.8633C150.146 78.681 149.868 78.4326 149.667 78.1182C149.471 77.7992 149.373 77.4391 149.373 77.0381C149.373 76.6735 149.451 76.3477 149.605 76.0605C149.76 75.7689 149.984 75.5228 150.275 75.3223C150.572 75.1172 150.927 74.9622 151.342 74.8574C151.761 74.748 152.23 74.6934 152.75 74.6934H154.452ZM161.698 77.1133C161.698 76.9128 161.648 76.7145 161.548 76.5186C161.448 76.3226 161.254 76.1426 160.967 75.9785C160.684 75.8145 160.267 75.6755 159.716 75.5615C159.306 75.4704 158.939 75.3678 158.615 75.2539C158.296 75.14 158.027 75.0033 157.809 74.8438C157.59 74.6842 157.424 74.4928 157.31 74.2695C157.196 74.0462 157.139 73.7819 157.139 73.4766C157.139 73.2031 157.198 72.9456 157.316 72.7041C157.439 72.458 157.613 72.2438 157.836 72.0615C158.064 71.8747 158.337 71.7288 158.656 71.624C158.98 71.5192 159.342 71.4668 159.743 71.4668C160.313 71.4668 160.8 71.5648 161.206 71.7607C161.616 71.9521 161.928 72.2142 162.143 72.5469C162.361 72.8796 162.471 73.2555 162.471 73.6748H161.657C161.657 73.4196 161.582 73.1781 161.432 72.9502C161.286 72.7223 161.069 72.5355 160.782 72.3896C160.5 72.2438 160.153 72.1709 159.743 72.1709C159.319 72.1709 158.975 72.2347 158.711 72.3623C158.447 72.4899 158.253 72.6517 158.13 72.8477C158.011 73.0436 157.952 73.2464 157.952 73.4561C157.952 73.6201 157.977 73.7705 158.027 73.9072C158.082 74.0394 158.178 74.1624 158.314 74.2764C158.456 74.3903 158.656 74.4974 158.916 74.5977C159.176 74.6979 159.513 74.7959 159.928 74.8916C160.525 75.0238 161.012 75.1855 161.391 75.377C161.773 75.5638 162.056 75.7962 162.238 76.0742C162.421 76.3477 162.512 76.6803 162.512 77.0723C162.512 77.3776 162.448 77.6579 162.32 77.9131C162.193 78.1637 162.008 78.3802 161.767 78.5625C161.53 78.7448 161.243 78.8861 160.905 78.9863C160.573 79.0866 160.199 79.1367 159.784 79.1367C159.16 79.1367 158.631 79.0342 158.198 78.8291C157.77 78.6195 157.444 78.346 157.221 78.0088C157.002 77.667 156.893 77.3047 156.893 76.9219H157.706C157.733 77.3047 157.854 77.6077 158.068 77.8311C158.283 78.0498 158.545 78.2048 158.854 78.2959C159.169 78.387 159.479 78.4326 159.784 78.4326C160.203 78.4326 160.554 78.3711 160.837 78.248C161.119 78.125 161.334 77.9632 161.479 77.7627C161.625 77.5622 161.698 77.3457 161.698 77.1133ZM163.913 75.418V75.1924C163.913 74.6546 163.991 74.1579 164.146 73.7021C164.3 73.2464 164.521 72.8522 164.809 72.5195C165.1 72.1868 165.449 71.9294 165.854 71.7471C166.26 71.5602 166.711 71.4668 167.208 71.4668C167.709 71.4668 168.163 71.5602 168.568 71.7471C168.974 71.9294 169.323 72.1868 169.614 72.5195C169.906 72.8522 170.129 73.2464 170.284 73.7021C170.439 74.1579 170.517 74.6546 170.517 75.1924V75.418C170.517 75.9557 170.439 76.4525 170.284 76.9082C170.129 77.3594 169.906 77.7513 169.614 78.084C169.327 78.4167 168.981 78.6764 168.575 78.8633C168.17 79.0456 167.718 79.1367 167.222 79.1367C166.72 79.1367 166.267 79.0456 165.861 78.8633C165.456 78.6764 165.107 78.4167 164.815 78.084C164.524 77.7513 164.3 77.3594 164.146 76.9082C163.991 76.4525 163.913 75.9557 163.913 75.418ZM164.727 75.1924V75.418C164.727 75.8236 164.781 76.2087 164.891 76.5732C165 76.9333 165.16 77.2546 165.369 77.5371C165.579 77.8151 165.839 78.0339 166.148 78.1934C166.458 78.3529 166.816 78.4326 167.222 78.4326C167.623 78.4326 167.976 78.3529 168.281 78.1934C168.591 78.0339 168.851 77.8151 169.061 77.5371C169.27 77.2546 169.427 76.9333 169.532 76.5732C169.642 76.2087 169.696 75.8236 169.696 75.418V75.1924C169.696 74.7913 169.642 74.4108 169.532 74.0508C169.427 73.6908 169.268 73.3695 169.054 73.0869C168.844 72.8044 168.584 72.5811 168.274 72.417C167.965 72.2529 167.609 72.1709 167.208 72.1709C166.807 72.1709 166.451 72.2529 166.142 72.417C165.836 72.5811 165.576 72.8044 165.362 73.0869C165.153 73.3695 164.993 73.6908 164.884 74.0508C164.779 74.4108 164.727 74.7913 164.727 75.1924ZM173.121 71.6035V79H172.308V71.6035H173.121ZM172.164 69.4639C172.164 69.3089 172.212 69.179 172.308 69.0742C172.408 68.9648 172.545 68.9102 172.718 68.9102C172.891 68.9102 173.028 68.9648 173.128 69.0742C173.233 69.179 173.285 69.3089 173.285 69.4639C173.285 69.6143 173.233 69.7441 173.128 69.8535C173.028 69.9583 172.891 70.0107 172.718 70.0107C172.545 70.0107 172.408 69.9583 172.308 69.8535C172.212 69.7441 172.164 69.6143 172.164 69.4639ZM175.678 71.6035L177.674 74.5908L179.677 71.6035H180.647L178.139 75.2266L180.75 79H179.793L177.681 75.876L175.575 79H174.618L177.229 75.2266L174.721 71.6035H175.678ZM182.992 73.1826V79H182.179V71.6035H182.958L182.992 73.1826ZM182.808 74.8438L182.445 74.6387C182.473 74.2012 182.562 73.791 182.712 73.4082C182.862 73.0254 183.065 72.6882 183.32 72.3965C183.58 72.1048 183.883 71.877 184.229 71.7129C184.58 71.5488 184.968 71.4668 185.392 71.4668C185.761 71.4668 186.091 71.5169 186.383 71.6172C186.674 71.7174 186.923 71.877 187.128 72.0957C187.333 72.3145 187.488 72.5947 187.593 72.9365C187.702 73.2783 187.757 73.6953 187.757 74.1875V79H186.937V74.1807C186.937 73.6702 186.866 73.2715 186.725 72.9844C186.583 72.6927 186.383 72.4854 186.123 72.3623C185.863 72.2393 185.556 72.1777 185.2 72.1777C184.808 72.1777 184.464 72.2643 184.168 72.4375C183.876 72.6061 183.63 72.8271 183.43 73.1006C183.234 73.3695 183.083 73.6589 182.979 73.9688C182.874 74.2741 182.817 74.5658 182.808 74.8438ZM194.374 77.6738V73.8594C194.374 73.5085 194.301 73.2054 194.155 72.9502C194.009 72.695 193.795 72.499 193.513 72.3623C193.23 72.2256 192.882 72.1572 192.467 72.1572C192.084 72.1572 191.742 72.2256 191.441 72.3623C191.145 72.4945 190.91 72.6745 190.737 72.9023C190.569 73.1257 190.484 73.374 190.484 73.6475L189.664 73.6406C189.664 73.3626 189.732 73.0938 189.869 72.834C190.006 72.5742 190.2 72.3418 190.45 72.1367C190.701 71.9316 190.999 71.7699 191.346 71.6514C191.697 71.5283 192.082 71.4668 192.501 71.4668C193.03 71.4668 193.494 71.5557 193.896 71.7334C194.301 71.9111 194.618 72.1777 194.846 72.5332C195.074 72.8887 195.188 73.3353 195.188 73.873V77.4482C195.188 77.7035 195.206 77.9678 195.242 78.2412C195.283 78.5146 195.34 78.7402 195.413 78.918V79H194.545C194.49 78.8359 194.447 78.6309 194.415 78.3848C194.388 78.1341 194.374 77.8971 194.374 77.6738ZM194.565 74.6934L194.579 75.3223H192.973C192.553 75.3223 192.177 75.361 191.845 75.4385C191.517 75.5114 191.239 75.6208 191.011 75.7666C190.783 75.9079 190.607 76.0788 190.484 76.2793C190.366 76.4798 190.307 76.7077 190.307 76.9629C190.307 77.2272 190.373 77.4688 190.505 77.6875C190.642 77.9062 190.833 78.0817 191.079 78.2139C191.33 78.3415 191.626 78.4053 191.968 78.4053C192.424 78.4053 192.825 78.321 193.171 78.1523C193.522 77.9837 193.811 77.7627 194.039 77.4893C194.267 77.2158 194.42 76.9173 194.497 76.5938L194.853 77.0654C194.793 77.2933 194.684 77.528 194.524 77.7695C194.369 78.0065 194.167 78.2298 193.916 78.4395C193.665 78.6445 193.369 78.8132 193.027 78.9453C192.69 79.0729 192.307 79.1367 191.879 79.1367C191.396 79.1367 190.974 79.0456 190.614 78.8633C190.259 78.681 189.981 78.4326 189.78 78.1182C189.584 77.7992 189.486 77.4391 189.486 77.0381C189.486 76.6735 189.564 76.3477 189.719 76.0605C189.874 75.7689 190.097 75.5228 190.389 75.3223C190.685 75.1172 191.04 74.9622 191.455 74.8574C191.874 74.748 192.344 74.6934 192.863 74.6934H194.565ZM196.931 75.418V75.1924C196.931 74.6546 197.008 74.1579 197.163 73.7021C197.318 73.2464 197.539 72.8522 197.826 72.5195C198.118 72.1868 198.466 71.9294 198.872 71.7471C199.278 71.5602 199.729 71.4668 200.226 71.4668C200.727 71.4668 201.18 71.5602 201.586 71.7471C201.992 71.9294 202.34 72.1868 202.632 72.5195C202.924 72.8522 203.147 73.2464 203.302 73.7021C203.457 74.1579 203.534 74.6546 203.534 75.1924V75.418C203.534 75.9557 203.457 76.4525 203.302 76.9082C203.147 77.3594 202.924 77.7513 202.632 78.084C202.345 78.4167 201.998 78.6764 201.593 78.8633C201.187 79.0456 200.736 79.1367 200.239 79.1367C199.738 79.1367 199.285 79.0456 198.879 78.8633C198.473 78.6764 198.125 78.4167 197.833 78.084C197.541 77.7513 197.318 77.3594 197.163 76.9082C197.008 76.4525 196.931 75.9557 196.931 75.418ZM197.744 75.1924V75.418C197.744 75.8236 197.799 76.2087 197.908 76.5732C198.018 76.9333 198.177 77.2546 198.387 77.5371C198.596 77.8151 198.856 78.0339 199.166 78.1934C199.476 78.3529 199.834 78.4326 200.239 78.4326C200.64 78.4326 200.993 78.3529 201.299 78.1934C201.609 78.0339 201.868 77.8151 202.078 77.5371C202.288 77.2546 202.445 76.9333 202.55 76.5732C202.659 76.2087 202.714 75.8236 202.714 75.418V75.1924C202.714 74.7913 202.659 74.4108 202.55 74.0508C202.445 73.6908 202.285 73.3695 202.071 73.0869C201.862 72.8044 201.602 72.5811 201.292 72.417C200.982 72.2529 200.627 72.1709 200.226 72.1709C199.825 72.1709 199.469 72.2529 199.159 72.417C198.854 72.5811 198.594 72.8044 198.38 73.0869C198.17 73.3695 198.011 73.6908 197.901 74.0508C197.797 74.4108 197.744 74.7913 197.744 75.1924ZM206.139 71.6035V79H205.325V71.6035H206.139ZM205.182 69.4639C205.182 69.3089 205.229 69.179 205.325 69.0742C205.425 68.9648 205.562 68.9102 205.735 68.9102C205.909 68.9102 206.045 68.9648 206.146 69.0742C206.25 69.179 206.303 69.3089 206.303 69.4639C206.303 69.6143 206.25 69.7441 206.146 69.8535C206.045 69.9583 205.909 70.0107 205.735 70.0107C205.562 70.0107 205.425 69.9583 205.325 69.8535C205.229 69.7441 205.182 69.6143 205.182 69.4639ZM212.804 77.1133C212.804 76.9128 212.754 76.7145 212.653 76.5186C212.553 76.3226 212.359 76.1426 212.072 75.9785C211.79 75.8145 211.373 75.6755 210.821 75.5615C210.411 75.4704 210.044 75.3678 209.721 75.2539C209.402 75.14 209.133 75.0033 208.914 74.8438C208.695 74.6842 208.529 74.4928 208.415 74.2695C208.301 74.0462 208.244 73.7819 208.244 73.4766C208.244 73.2031 208.303 72.9456 208.422 72.7041C208.545 72.458 208.718 72.2438 208.941 72.0615C209.169 71.8747 209.443 71.7288 209.762 71.624C210.085 71.5192 210.448 71.4668 210.849 71.4668C211.418 71.4668 211.906 71.5648 212.312 71.7607C212.722 71.9521 213.034 72.2142 213.248 72.5469C213.467 72.8796 213.576 73.2555 213.576 73.6748H212.763C212.763 73.4196 212.688 73.1781 212.537 72.9502C212.391 72.7223 212.175 72.5355 211.888 72.3896C211.605 72.2438 211.259 72.1709 210.849 72.1709C210.425 72.1709 210.081 72.2347 209.816 72.3623C209.552 72.4899 209.358 72.6517 209.235 72.8477C209.117 73.0436 209.058 73.2464 209.058 73.4561C209.058 73.6201 209.083 73.7705 209.133 73.9072C209.188 74.0394 209.283 74.1624 209.42 74.2764C209.561 74.3903 209.762 74.4974 210.021 74.5977C210.281 74.6979 210.618 74.7959 211.033 74.8916C211.63 75.0238 212.118 75.1855 212.496 75.377C212.879 75.5638 213.161 75.7962 213.344 76.0742C213.526 76.3477 213.617 76.6803 213.617 77.0723C213.617 77.3776 213.553 77.6579 213.426 77.9131C213.298 78.1637 213.114 78.3802 212.872 78.5625C212.635 78.7448 212.348 78.8861 212.011 78.9863C211.678 79.0866 211.304 79.1367 210.89 79.1367C210.265 79.1367 209.737 79.0342 209.304 78.8291C208.875 78.6195 208.549 78.346 208.326 78.0088C208.107 77.667 207.998 77.3047 207.998 76.9219H208.812C208.839 77.3047 208.96 77.6077 209.174 77.8311C209.388 78.0498 209.65 78.2048 209.96 78.2959C210.274 78.387 210.584 78.4326 210.89 78.4326C211.309 78.4326 211.66 78.3711 211.942 78.248C212.225 78.125 212.439 77.9632 212.585 77.7627C212.731 77.5622 212.804 77.3457 212.804 77.1133ZM216.283 73.1826V79H215.47V71.6035H216.249L216.283 73.1826ZM216.099 74.8438L215.736 74.6387C215.764 74.2012 215.853 73.791 216.003 73.4082C216.153 73.0254 216.356 72.6882 216.611 72.3965C216.871 72.1048 217.174 71.877 217.521 71.7129C217.871 71.5488 218.259 71.4668 218.683 71.4668C219.052 71.4668 219.382 71.5169 219.674 71.6172C219.965 71.7174 220.214 71.877 220.419 72.0957C220.624 72.3145 220.779 72.5947 220.884 72.9365C220.993 73.2783 221.048 73.6953 221.048 74.1875V79H220.228V74.1807C220.228 73.6702 220.157 73.2715 220.016 72.9844C219.874 72.6927 219.674 72.4854 219.414 72.3623C219.154 72.2393 218.847 72.1777 218.491 72.1777C218.099 72.1777 217.755 72.2643 217.459 72.4375C217.167 72.6061 216.921 72.8271 216.721 73.1006C216.525 73.3695 216.374 73.6589 216.27 73.9688C216.165 74.2741 216.108 74.5658 216.099 74.8438ZM223.488 71.6035L225.484 74.5908L227.487 71.6035H228.458L225.949 75.2266L228.561 79H227.604L225.491 75.876L223.386 79H222.429L225.04 75.2266L222.531 71.6035H223.488ZM229.401 75.418V75.1924C229.401 74.6546 229.479 74.1579 229.634 73.7021C229.789 73.2464 230.01 72.8522 230.297 72.5195C230.589 72.1868 230.937 71.9294 231.343 71.7471C231.748 71.5602 232.2 71.4668 232.696 71.4668C233.198 71.4668 233.651 71.5602 234.057 71.7471C234.462 71.9294 234.811 72.1868 235.103 72.5195C235.394 72.8522 235.618 73.2464 235.772 73.7021C235.927 74.1579 236.005 74.6546 236.005 75.1924V75.418C236.005 75.9557 235.927 76.4525 235.772 76.9082C235.618 77.3594 235.394 77.7513 235.103 78.084C234.815 78.4167 234.469 78.6764 234.063 78.8633C233.658 79.0456 233.207 79.1367 232.71 79.1367C232.209 79.1367 231.755 79.0456 231.35 78.8633C230.944 78.6764 230.595 78.4167 230.304 78.084C230.012 77.7513 229.789 77.3594 229.634 76.9082C229.479 76.4525 229.401 75.9557 229.401 75.418ZM230.215 75.1924V75.418C230.215 75.8236 230.27 76.2087 230.379 76.5732C230.488 76.9333 230.648 77.2546 230.857 77.5371C231.067 77.8151 231.327 78.0339 231.637 78.1934C231.947 78.3529 232.304 78.4326 232.71 78.4326C233.111 78.4326 233.464 78.3529 233.77 78.1934C234.079 78.0339 234.339 77.8151 234.549 77.5371C234.758 77.2546 234.916 76.9333 235.021 76.5732C235.13 76.2087 235.185 75.8236 235.185 75.418V75.1924C235.185 74.7913 235.13 74.4108 235.021 74.0508C234.916 73.6908 234.756 73.3695 234.542 73.0869C234.332 72.8044 234.073 72.5811 233.763 72.417C233.453 72.2529 233.097 72.1709 232.696 72.1709C232.295 72.1709 231.94 72.2529 231.63 72.417C231.325 72.5811 231.065 72.8044 230.851 73.0869C230.641 73.3695 230.481 73.6908 230.372 74.0508C230.267 74.4108 230.215 74.7913 230.215 75.1924ZM238.609 71.6035V79H237.796V71.6035H238.609ZM237.652 69.4639C237.652 69.3089 237.7 69.179 237.796 69.0742C237.896 68.9648 238.033 68.9102 238.206 68.9102C238.379 68.9102 238.516 68.9648 238.616 69.0742C238.721 69.179 238.773 69.3089 238.773 69.4639C238.773 69.6143 238.721 69.7441 238.616 69.8535C238.516 69.9583 238.379 70.0107 238.206 70.0107C238.033 70.0107 237.896 69.9583 237.796 69.8535C237.7 69.7441 237.652 69.6143 237.652 69.4639ZM245.343 77.6738V73.8594C245.343 73.5085 245.27 73.2054 245.124 72.9502C244.978 72.695 244.764 72.499 244.481 72.3623C244.199 72.2256 243.85 72.1572 243.436 72.1572C243.053 72.1572 242.711 72.2256 242.41 72.3623C242.114 72.4945 241.879 72.6745 241.706 72.9023C241.537 73.1257 241.453 73.374 241.453 73.6475L240.633 73.6406C240.633 73.3626 240.701 73.0938 240.838 72.834C240.975 72.5742 241.168 72.3418 241.419 72.1367C241.67 71.9316 241.968 71.7699 242.314 71.6514C242.665 71.5283 243.05 71.4668 243.47 71.4668C243.998 71.4668 244.463 71.5557 244.864 71.7334C245.27 71.9111 245.587 72.1777 245.814 72.5332C246.042 72.8887 246.156 73.3353 246.156 73.873V77.4482C246.156 77.7035 246.174 77.9678 246.211 78.2412C246.252 78.5146 246.309 78.7402 246.382 78.918V79H245.514C245.459 78.8359 245.416 78.6309 245.384 78.3848C245.356 78.1341 245.343 77.8971 245.343 77.6738ZM245.534 74.6934L245.548 75.3223H243.941C243.522 75.3223 243.146 75.361 242.813 75.4385C242.485 75.5114 242.207 75.6208 241.979 75.7666C241.752 75.9079 241.576 76.0788 241.453 76.2793C241.335 76.4798 241.275 76.7077 241.275 76.9629C241.275 77.2272 241.341 77.4688 241.474 77.6875C241.61 77.9062 241.802 78.0817 242.048 78.2139C242.299 78.3415 242.595 78.4053 242.937 78.4053C243.392 78.4053 243.793 78.321 244.14 78.1523C244.491 77.9837 244.78 77.7627 245.008 77.4893C245.236 77.2158 245.388 76.9173 245.466 76.5938L245.821 77.0654C245.762 77.2933 245.653 77.528 245.493 77.7695C245.338 78.0065 245.135 78.2298 244.885 78.4395C244.634 78.6445 244.338 78.8132 243.996 78.9453C243.659 79.0729 243.276 79.1367 242.848 79.1367C242.365 79.1367 241.943 79.0456 241.583 78.8633C241.228 78.681 240.95 78.4326 240.749 78.1182C240.553 77.7992 240.455 77.4391 240.455 77.0381C240.455 76.6735 240.533 76.3477 240.688 76.0605C240.842 75.7689 241.066 75.5228 241.357 75.3223C241.654 75.1172 242.009 74.9622 242.424 74.8574C242.843 74.748 243.312 74.6934 243.832 74.6934H245.534ZM249.164 73.1826V79H248.351V71.6035H249.13L249.164 73.1826ZM248.979 74.8438L248.617 74.6387C248.645 74.2012 248.733 73.791 248.884 73.4082C249.034 73.0254 249.237 72.6882 249.492 72.3965C249.752 72.1048 250.055 71.877 250.401 71.7129C250.752 71.5488 251.14 71.4668 251.563 71.4668C251.933 71.4668 252.263 71.5169 252.555 71.6172C252.846 71.7174 253.095 71.877 253.3 72.0957C253.505 72.3145 253.66 72.5947 253.765 72.9365C253.874 73.2783 253.929 73.6953 253.929 74.1875V79H253.108V74.1807C253.108 73.6702 253.038 73.2715 252.896 72.9844C252.755 72.6927 252.555 72.4854 252.295 72.3623C252.035 72.2393 251.728 72.1777 251.372 72.1777C250.98 72.1777 250.636 72.2643 250.34 72.4375C250.048 72.6061 249.802 72.8271 249.602 73.1006C249.406 73.3695 249.255 73.6589 249.15 73.9688C249.046 74.2741 248.989 74.5658 248.979 74.8438ZM256.369 71.6035L258.365 74.5908L260.368 71.6035H261.339L258.83 75.2266L261.441 79H260.484L258.372 75.876L256.267 79H255.31L257.921 75.2266L255.412 71.6035H256.369ZM262.282 75.418V75.1924C262.282 74.6546 262.36 74.1579 262.515 73.7021C262.67 73.2464 262.891 72.8522 263.178 72.5195C263.469 72.1868 263.818 71.9294 264.224 71.7471C264.629 71.5602 265.08 71.4668 265.577 71.4668C266.078 71.4668 266.532 71.5602 266.938 71.7471C267.343 71.9294 267.692 72.1868 267.983 72.5195C268.275 72.8522 268.498 73.2464 268.653 73.7021C268.808 74.1579 268.886 74.6546 268.886 75.1924V75.418C268.886 75.9557 268.808 76.4525 268.653 76.9082C268.498 77.3594 268.275 77.7513 267.983 78.084C267.696 78.4167 267.35 78.6764 266.944 78.8633C266.539 79.0456 266.088 79.1367 265.591 79.1367C265.09 79.1367 264.636 79.0456 264.23 78.8633C263.825 78.6764 263.476 78.4167 263.185 78.084C262.893 77.7513 262.67 77.3594 262.515 76.9082C262.36 76.4525 262.282 75.9557 262.282 75.418ZM263.096 75.1924V75.418C263.096 75.8236 263.15 76.2087 263.26 76.5732C263.369 76.9333 263.529 77.2546 263.738 77.5371C263.948 77.8151 264.208 78.0339 264.518 78.1934C264.827 78.3529 265.185 78.4326 265.591 78.4326C265.992 78.4326 266.345 78.3529 266.65 78.1934C266.96 78.0339 267.22 77.8151 267.43 77.5371C267.639 77.2546 267.797 76.9333 267.901 76.5732C268.011 76.2087 268.065 75.8236 268.065 75.418V75.1924C268.065 74.7913 268.011 74.4108 267.901 74.0508C267.797 73.6908 267.637 73.3695 267.423 73.0869C267.213 72.8044 266.953 72.5811 266.644 72.417C266.334 72.2529 265.978 72.1709 265.577 72.1709C265.176 72.1709 264.821 72.2529 264.511 72.417C264.205 72.5811 263.946 72.8044 263.731 73.0869C263.522 73.3695 263.362 73.6908 263.253 74.0508C263.148 74.4108 263.096 74.7913 263.096 75.1924ZM271.49 71.6035V79H270.677V71.6035H271.49ZM270.533 69.4639C270.533 69.3089 270.581 69.179 270.677 69.0742C270.777 68.9648 270.914 68.9102 271.087 68.9102C271.26 68.9102 271.397 68.9648 271.497 69.0742C271.602 69.179 271.654 69.3089 271.654 69.4639C271.654 69.6143 271.602 69.7441 271.497 69.8535C271.397 69.9583 271.26 70.0107 271.087 70.0107C270.914 70.0107 270.777 69.9583 270.677 69.8535C270.581 69.7441 270.533 69.6143 270.533 69.4639ZM278.224 77.6738V73.8594C278.224 73.5085 278.151 73.2054 278.005 72.9502C277.859 72.695 277.645 72.499 277.362 72.3623C277.08 72.2256 276.731 72.1572 276.316 72.1572C275.934 72.1572 275.592 72.2256 275.291 72.3623C274.995 72.4945 274.76 72.6745 274.587 72.9023C274.418 73.1257 274.334 73.374 274.334 73.6475L273.514 73.6406C273.514 73.3626 273.582 73.0938 273.719 72.834C273.855 72.5742 274.049 72.3418 274.3 72.1367C274.55 71.9316 274.849 71.7699 275.195 71.6514C275.546 71.5283 275.931 71.4668 276.351 71.4668C276.879 71.4668 277.344 71.5557 277.745 71.7334C278.151 71.9111 278.467 72.1777 278.695 72.5332C278.923 72.8887 279.037 73.3353 279.037 73.873V77.4482C279.037 77.7035 279.055 77.9678 279.092 78.2412C279.133 78.5146 279.19 78.7402 279.263 78.918V79H278.395C278.34 78.8359 278.297 78.6309 278.265 78.3848C278.237 78.1341 278.224 77.8971 278.224 77.6738ZM278.415 74.6934L278.429 75.3223H276.822C276.403 75.3223 276.027 75.361 275.694 75.4385C275.366 75.5114 275.088 75.6208 274.86 75.7666C274.632 75.9079 274.457 76.0788 274.334 76.2793C274.215 76.4798 274.156 76.7077 274.156 76.9629C274.156 77.2272 274.222 77.4688 274.354 77.6875C274.491 77.9062 274.683 78.0817 274.929 78.2139C275.179 78.3415 275.476 78.4053 275.817 78.4053C276.273 78.4053 276.674 78.321 277.021 78.1523C277.371 77.9837 277.661 77.7627 277.889 77.4893C278.117 77.2158 278.269 76.9173 278.347 76.5938L278.702 77.0654C278.643 77.2933 278.534 77.528 278.374 77.7695C278.219 78.0065 278.016 78.2298 277.766 78.4395C277.515 78.6445 277.219 78.8132 276.877 78.9453C276.54 79.0729 276.157 79.1367 275.729 79.1367C275.245 79.1367 274.824 79.0456 274.464 78.8633C274.108 78.681 273.83 78.4326 273.63 78.1182C273.434 77.7992 273.336 77.4391 273.336 77.0381C273.336 76.6735 273.413 76.3477 273.568 76.0605C273.723 75.7689 273.947 75.5228 274.238 75.3223C274.535 75.1172 274.89 74.9622 275.305 74.8574C275.724 74.748 276.193 74.6934 276.713 74.6934H278.415ZM285.661 77.1133C285.661 76.9128 285.611 76.7145 285.511 76.5186C285.41 76.3226 285.217 76.1426 284.93 75.9785C284.647 75.8145 284.23 75.6755 283.679 75.5615C283.269 75.4704 282.902 75.3678 282.578 75.2539C282.259 75.14 281.99 75.0033 281.771 74.8438C281.553 74.6842 281.386 74.4928 281.272 74.2695C281.159 74.0462 281.102 73.7819 281.102 73.4766C281.102 73.2031 281.161 72.9456 281.279 72.7041C281.402 72.458 281.576 72.2438 281.799 72.0615C282.027 71.8747 282.3 71.7288 282.619 71.624C282.943 71.5192 283.305 71.4668 283.706 71.4668C284.276 71.4668 284.763 71.5648 285.169 71.7607C285.579 71.9521 285.891 72.2142 286.105 72.5469C286.324 72.8796 286.434 73.2555 286.434 73.6748H285.62C285.62 73.4196 285.545 73.1781 285.395 72.9502C285.249 72.7223 285.032 72.5355 284.745 72.3896C284.463 72.2438 284.116 72.1709 283.706 72.1709C283.282 72.1709 282.938 72.2347 282.674 72.3623C282.41 72.4899 282.216 72.6517 282.093 72.8477C281.974 73.0436 281.915 73.2464 281.915 73.4561C281.915 73.6201 281.94 73.7705 281.99 73.9072C282.045 74.0394 282.141 74.1624 282.277 74.2764C282.419 74.3903 282.619 74.4974 282.879 74.5977C283.139 74.6979 283.476 74.7959 283.891 74.8916C284.488 75.0238 284.975 75.1855 285.354 75.377C285.736 75.5638 286.019 75.7962 286.201 76.0742C286.383 76.3477 286.475 76.6803 286.475 77.0723C286.475 77.3776 286.411 77.6579 286.283 77.9131C286.156 78.1637 285.971 78.3802 285.729 78.5625C285.493 78.7448 285.205 78.8861 284.868 78.9863C284.535 79.0866 284.162 79.1367 283.747 79.1367C283.123 79.1367 282.594 79.0342 282.161 78.8291C281.733 78.6195 281.407 78.346 281.184 78.0088C280.965 77.667 280.855 77.3047 280.855 76.9219H281.669C281.696 77.3047 281.817 77.6077 282.031 77.8311C282.245 78.0498 282.507 78.2048 282.817 78.2959C283.132 78.387 283.442 78.4326 283.747 78.4326C284.166 78.4326 284.517 78.3711 284.8 78.248C285.082 78.125 285.297 77.9632 285.442 77.7627C285.588 77.5622 285.661 77.3457 285.661 77.1133ZM289.141 73.1826V79H288.327V71.6035H289.106L289.141 73.1826ZM288.956 74.8438L288.594 74.6387C288.621 74.2012 288.71 73.791 288.86 73.4082C289.011 73.0254 289.214 72.6882 289.469 72.3965C289.729 72.1048 290.032 71.877 290.378 71.7129C290.729 71.5488 291.116 71.4668 291.54 71.4668C291.909 71.4668 292.24 71.5169 292.531 71.6172C292.823 71.7174 293.071 71.877 293.276 72.0957C293.481 72.3145 293.636 72.5947 293.741 72.9365C293.851 73.2783 293.905 73.6953 293.905 74.1875V79H293.085V74.1807C293.085 73.6702 293.014 73.2715 292.873 72.9844C292.732 72.6927 292.531 72.4854 292.271 72.3623C292.012 72.2393 291.704 72.1777 291.349 72.1777C290.957 72.1777 290.613 72.2643 290.316 72.4375C290.025 72.6061 289.779 72.8271 289.578 73.1006C289.382 73.3695 289.232 73.6589 289.127 73.9688C289.022 74.2741 288.965 74.5658 288.956 74.8438ZM131.395 87.6035L133.391 90.5908L135.394 87.6035H136.364L133.855 91.2266L136.467 95H135.51L133.397 91.876L131.292 95H130.335L132.946 91.2266L130.438 87.6035H131.395ZM137.308 91.418V91.1924C137.308 90.6546 137.385 90.1579 137.54 89.7021C137.695 89.2464 137.916 88.8522 138.203 88.5195C138.495 88.1868 138.843 87.9294 139.249 87.7471C139.655 87.5602 140.106 87.4668 140.603 87.4668C141.104 87.4668 141.557 87.5602 141.963 87.7471C142.368 87.9294 142.717 88.1868 143.009 88.5195C143.3 88.8522 143.524 89.2464 143.679 89.7021C143.834 90.1579 143.911 90.6546 143.911 91.1924V91.418C143.911 91.9557 143.834 92.4525 143.679 92.9082C143.524 93.3594 143.3 93.7513 143.009 94.084C142.722 94.4167 142.375 94.6764 141.97 94.8633C141.564 95.0456 141.113 95.1367 140.616 95.1367C140.115 95.1367 139.661 95.0456 139.256 94.8633C138.85 94.6764 138.502 94.4167 138.21 94.084C137.918 93.7513 137.695 93.3594 137.54 92.9082C137.385 92.4525 137.308 91.9557 137.308 91.418ZM138.121 91.1924V91.418C138.121 91.8236 138.176 92.2087 138.285 92.5732C138.395 92.9333 138.554 93.2546 138.764 93.5371C138.973 93.8151 139.233 94.0339 139.543 94.1934C139.853 94.3529 140.211 94.4326 140.616 94.4326C141.017 94.4326 141.37 94.3529 141.676 94.1934C141.986 94.0339 142.245 93.8151 142.455 93.5371C142.665 93.2546 142.822 92.9333 142.927 92.5732C143.036 92.2087 143.091 91.8236 143.091 91.418V91.1924C143.091 90.7913 143.036 90.4108 142.927 90.0508C142.822 89.6908 142.662 89.3695 142.448 89.0869C142.239 88.8044 141.979 88.5811 141.669 88.417C141.359 88.2529 141.004 88.1709 140.603 88.1709C140.201 88.1709 139.846 88.2529 139.536 88.417C139.231 88.5811 138.971 88.8044 138.757 89.0869C138.547 89.3695 138.388 89.6908 138.278 90.0508C138.174 90.4108 138.121 90.7913 138.121 91.1924ZM146.516 87.6035V95H145.702V87.6035H146.516ZM145.559 85.4639C145.559 85.3089 145.606 85.179 145.702 85.0742C145.802 84.9648 145.939 84.9102 146.112 84.9102C146.285 84.9102 146.422 84.9648 146.522 85.0742C146.627 85.179 146.68 85.3089 146.68 85.4639C146.68 85.6143 146.627 85.7441 146.522 85.8535C146.422 85.9583 146.285 86.0107 146.112 86.0107C145.939 86.0107 145.802 85.9583 145.702 85.8535C145.606 85.7441 145.559 85.6143 145.559 85.4639ZM153.249 93.6738V89.8594C153.249 89.5085 153.176 89.2054 153.03 88.9502C152.884 88.695 152.67 88.499 152.388 88.3623C152.105 88.2256 151.757 88.1572 151.342 88.1572C150.959 88.1572 150.617 88.2256 150.316 88.3623C150.02 88.4945 149.785 88.6745 149.612 88.9023C149.444 89.1257 149.359 89.374 149.359 89.6475L148.539 89.6406C148.539 89.3626 148.607 89.0938 148.744 88.834C148.881 88.5742 149.075 88.3418 149.325 88.1367C149.576 87.9316 149.874 87.7699 150.221 87.6514C150.572 87.5283 150.957 87.4668 151.376 87.4668C151.905 87.4668 152.369 87.5557 152.771 87.7334C153.176 87.9111 153.493 88.1777 153.721 88.5332C153.949 88.8887 154.062 89.3353 154.062 89.873V93.4482C154.062 93.7035 154.081 93.9678 154.117 94.2412C154.158 94.5146 154.215 94.7402 154.288 94.918V95H153.42C153.365 94.8359 153.322 94.6309 153.29 94.3848C153.263 94.1341 153.249 93.8971 153.249 93.6738ZM153.44 90.6934L153.454 91.3223H151.848C151.428 91.3223 151.052 91.361 150.72 91.4385C150.392 91.5114 150.114 91.6208 149.886 91.7666C149.658 91.9079 149.482 92.0788 149.359 92.2793C149.241 92.4798 149.182 92.7077 149.182 92.9629C149.182 93.2272 149.248 93.4688 149.38 93.6875C149.517 93.9062 149.708 94.0817 149.954 94.2139C150.205 94.3415 150.501 94.4053 150.843 94.4053C151.299 94.4053 151.7 94.321 152.046 94.1523C152.397 93.9837 152.686 93.7627 152.914 93.4893C153.142 93.2158 153.295 92.9173 153.372 92.5938L153.728 93.0654C153.668 93.2933 153.559 93.528 153.399 93.7695C153.244 94.0065 153.042 94.2298 152.791 94.4395C152.54 94.6445 152.244 94.8132 151.902 94.9453C151.565 95.0729 151.182 95.1367 150.754 95.1367C150.271 95.1367 149.849 95.0456 149.489 94.8633C149.134 94.681 148.856 94.4326 148.655 94.1182C148.459 93.7992 148.361 93.4391 148.361 93.0381C148.361 92.6735 148.439 92.3477 148.594 92.0605C148.749 91.7689 148.972 91.5228 149.264 91.3223C149.56 91.1172 149.915 90.9622 150.33 90.8574C150.749 90.748 151.219 90.6934 151.738 90.6934H153.44ZM156.578 87.6035L158.574 90.5908L160.577 87.6035H161.548L159.039 91.2266L161.65 95H160.693L158.581 91.876L156.476 95H155.519L158.13 91.2266L155.621 87.6035H156.578ZM163.893 89.1826V95H163.079V87.6035H163.858L163.893 89.1826ZM163.708 90.8438L163.346 90.6387C163.373 90.2012 163.462 89.791 163.612 89.4082C163.763 89.0254 163.965 88.6882 164.221 88.3965C164.48 88.1048 164.784 87.877 165.13 87.7129C165.481 87.5488 165.868 87.4668 166.292 87.4668C166.661 87.4668 166.992 87.5169 167.283 87.6172C167.575 87.7174 167.823 87.877 168.028 88.0957C168.233 88.3145 168.388 88.5947 168.493 88.9365C168.603 89.2783 168.657 89.6953 168.657 90.1875V95H167.837V90.1807C167.837 89.6702 167.766 89.2715 167.625 88.9844C167.484 88.6927 167.283 88.4854 167.023 88.3623C166.764 88.2393 166.456 88.1777 166.101 88.1777C165.709 88.1777 165.365 88.2643 165.068 88.4375C164.777 88.6061 164.531 88.8271 164.33 89.1006C164.134 89.3695 163.984 89.6589 163.879 89.9688C163.774 90.2741 163.717 90.5658 163.708 90.8438ZM170.325 91.418V91.1924C170.325 90.6546 170.403 90.1579 170.558 89.7021C170.713 89.2464 170.934 88.8522 171.221 88.5195C171.512 88.1868 171.861 87.9294 172.267 87.7471C172.672 87.5602 173.123 87.4668 173.62 87.4668C174.121 87.4668 174.575 87.5602 174.98 87.7471C175.386 87.9294 175.735 88.1868 176.026 88.5195C176.318 88.8522 176.541 89.2464 176.696 89.7021C176.851 90.1579 176.929 90.6546 176.929 91.1924V91.418C176.929 91.9557 176.851 92.4525 176.696 92.9082C176.541 93.3594 176.318 93.7513 176.026 94.084C175.739 94.4167 175.393 94.6764 174.987 94.8633C174.582 95.0456 174.131 95.1367 173.634 95.1367C173.132 95.1367 172.679 95.0456 172.273 94.8633C171.868 94.6764 171.519 94.4167 171.228 94.084C170.936 93.7513 170.713 93.3594 170.558 92.9082C170.403 92.4525 170.325 91.9557 170.325 91.418ZM171.139 91.1924V91.418C171.139 91.8236 171.193 92.2087 171.303 92.5732C171.412 92.9333 171.572 93.2546 171.781 93.5371C171.991 93.8151 172.251 94.0339 172.561 94.1934C172.87 94.3529 173.228 94.4326 173.634 94.4326C174.035 94.4326 174.388 94.3529 174.693 94.1934C175.003 94.0339 175.263 93.8151 175.473 93.5371C175.682 93.2546 175.84 92.9333 175.944 92.5732C176.054 92.2087 176.108 91.8236 176.108 91.418V91.1924C176.108 90.7913 176.054 90.4108 175.944 90.0508C175.84 89.6908 175.68 89.3695 175.466 89.0869C175.256 88.8044 174.996 88.5811 174.687 88.417C174.377 88.2529 174.021 88.1709 173.62 88.1709C173.219 88.1709 172.864 88.2529 172.554 88.417C172.248 88.5811 171.989 88.8044 171.774 89.0869C171.565 89.3695 171.405 89.6908 171.296 90.0508C171.191 90.4108 171.139 90.7913 171.139 91.1924ZM179.533 87.6035V95H178.72V87.6035H179.533ZM178.576 85.4639C178.576 85.3089 178.624 85.179 178.72 85.0742C178.82 84.9648 178.957 84.9102 179.13 84.9102C179.303 84.9102 179.44 84.9648 179.54 85.0742C179.645 85.179 179.697 85.3089 179.697 85.4639C179.697 85.6143 179.645 85.7441 179.54 85.8535C179.44 85.9583 179.303 86.0107 179.13 86.0107C178.957 86.0107 178.82 85.9583 178.72 85.8535C178.624 85.7441 178.576 85.6143 178.576 85.4639ZM186.267 93.6738V89.8594C186.267 89.5085 186.194 89.2054 186.048 88.9502C185.902 88.695 185.688 88.499 185.405 88.3623C185.123 88.2256 184.774 88.1572 184.359 88.1572C183.977 88.1572 183.635 88.2256 183.334 88.3623C183.038 88.4945 182.803 88.6745 182.63 88.9023C182.461 89.1257 182.377 89.374 182.377 89.6475L181.557 89.6406C181.557 89.3626 181.625 89.0938 181.762 88.834C181.898 88.5742 182.092 88.3418 182.343 88.1367C182.593 87.9316 182.892 87.7699 183.238 87.6514C183.589 87.5283 183.974 87.4668 184.394 87.4668C184.922 87.4668 185.387 87.5557 185.788 87.7334C186.194 87.9111 186.51 88.1777 186.738 88.5332C186.966 88.8887 187.08 89.3353 187.08 89.873V93.4482C187.08 93.7035 187.098 93.9678 187.135 94.2412C187.176 94.5146 187.233 94.7402 187.306 94.918V95H186.438C186.383 94.8359 186.34 94.6309 186.308 94.3848C186.28 94.1341 186.267 93.8971 186.267 93.6738ZM186.458 90.6934L186.472 91.3223H184.865C184.446 91.3223 184.07 91.361 183.737 91.4385C183.409 91.5114 183.131 91.6208 182.903 91.7666C182.675 91.9079 182.5 92.0788 182.377 92.2793C182.258 92.4798 182.199 92.7077 182.199 92.9629C182.199 93.2272 182.265 93.4688 182.397 93.6875C182.534 93.9062 182.726 94.0817 182.972 94.2139C183.222 94.3415 183.519 94.4053 183.86 94.4053C184.316 94.4053 184.717 94.321 185.063 94.1523C185.414 93.9837 185.704 93.7627 185.932 93.4893C186.16 93.2158 186.312 92.9173 186.39 92.5938L186.745 93.0654C186.686 93.2933 186.576 93.528 186.417 93.7695C186.262 94.0065 186.059 94.2298 185.809 94.4395C185.558 94.6445 185.262 94.8132 184.92 94.9453C184.583 95.0729 184.2 95.1367 183.771 95.1367C183.288 95.1367 182.867 95.0456 182.507 94.8633C182.151 94.681 181.873 94.4326 181.673 94.1182C181.477 93.7992 181.379 93.4391 181.379 93.0381C181.379 92.6735 181.456 92.3477 181.611 92.0605C181.766 91.7689 181.99 91.5228 182.281 91.3223C182.577 91.1172 182.933 90.9622 183.348 90.8574C183.767 90.748 184.236 90.6934 184.756 90.6934H186.458ZM193.704 93.1133C193.704 92.9128 193.654 92.7145 193.554 92.5186C193.453 92.3226 193.26 92.1426 192.973 91.9785C192.69 91.8145 192.273 91.6755 191.722 91.5615C191.312 91.4704 190.945 91.3678 190.621 91.2539C190.302 91.14 190.033 91.0033 189.814 90.8438C189.596 90.6842 189.429 90.4928 189.315 90.2695C189.201 90.0462 189.145 89.7819 189.145 89.4766C189.145 89.2031 189.204 88.9456 189.322 88.7041C189.445 88.458 189.618 88.2438 189.842 88.0615C190.07 87.8747 190.343 87.7288 190.662 87.624C190.986 87.5192 191.348 87.4668 191.749 87.4668C192.319 87.4668 192.806 87.5648 193.212 87.7607C193.622 87.9521 193.934 88.2142 194.148 88.5469C194.367 88.8796 194.477 89.2555 194.477 89.6748H193.663C193.663 89.4196 193.588 89.1781 193.438 88.9502C193.292 88.7223 193.075 88.5355 192.788 88.3896C192.506 88.2438 192.159 88.1709 191.749 88.1709C191.325 88.1709 190.981 88.2347 190.717 88.3623C190.452 88.4899 190.259 88.6517 190.136 88.8477C190.017 89.0436 189.958 89.2464 189.958 89.4561C189.958 89.6201 189.983 89.7705 190.033 89.9072C190.088 90.0394 190.184 90.1624 190.32 90.2764C190.462 90.3903 190.662 90.4974 190.922 90.5977C191.182 90.6979 191.519 90.7959 191.934 90.8916C192.531 91.0238 193.018 91.1855 193.396 91.377C193.779 91.5638 194.062 91.7962 194.244 92.0742C194.426 92.3477 194.518 92.6803 194.518 93.0723C194.518 93.3776 194.454 93.6579 194.326 93.9131C194.199 94.1637 194.014 94.3802 193.772 94.5625C193.535 94.7448 193.248 94.8861 192.911 94.9863C192.578 95.0866 192.205 95.1367 191.79 95.1367C191.166 95.1367 190.637 95.0342 190.204 94.8291C189.776 94.6195 189.45 94.346 189.227 94.0088C189.008 93.667 188.898 93.3047 188.898 92.9219H189.712C189.739 93.3047 189.86 93.6077 190.074 93.8311C190.288 94.0498 190.55 94.2048 190.86 94.2959C191.175 94.387 191.485 94.4326 191.79 94.4326C192.209 94.4326 192.56 94.3711 192.843 94.248C193.125 94.125 193.34 93.9632 193.485 93.7627C193.631 93.5622 193.704 93.3457 193.704 93.1133ZM197.184 89.1826V95H196.37V87.6035H197.149L197.184 89.1826ZM196.999 90.8438L196.637 90.6387C196.664 90.2012 196.753 89.791 196.903 89.4082C197.054 89.0254 197.257 88.6882 197.512 88.3965C197.771 88.1048 198.075 87.877 198.421 87.7129C198.772 87.5488 199.159 87.4668 199.583 87.4668C199.952 87.4668 200.283 87.5169 200.574 87.6172C200.866 87.7174 201.114 87.877 201.319 88.0957C201.524 88.3145 201.679 88.5947 201.784 88.9365C201.894 89.2783 201.948 89.6953 201.948 90.1875V95H201.128V90.1807C201.128 89.6702 201.057 89.2715 200.916 88.9844C200.775 88.6927 200.574 88.4854 200.314 88.3623C200.055 88.2393 199.747 88.1777 199.392 88.1777C199 88.1777 198.656 88.2643 198.359 88.4375C198.068 88.6061 197.822 88.8271 197.621 89.1006C197.425 89.3695 197.275 89.6589 197.17 89.9688C197.065 90.2741 197.008 90.5658 196.999 90.8438ZM204.389 87.6035L206.385 90.5908L208.388 87.6035H209.358L206.85 91.2266L209.461 95H208.504L206.392 91.876L204.286 95H203.329L205.94 91.2266L203.432 87.6035H204.389ZM215.388 93.6738V89.8594C215.388 89.5085 215.315 89.2054 215.169 88.9502C215.023 88.695 214.809 88.499 214.526 88.3623C214.244 88.2256 213.895 88.1572 213.48 88.1572C213.098 88.1572 212.756 88.2256 212.455 88.3623C212.159 88.4945 211.924 88.6745 211.751 88.9023C211.582 89.1257 211.498 89.374 211.498 89.6475L210.678 89.6406C210.678 89.3626 210.746 89.0938 210.883 88.834C211.02 88.5742 211.213 88.3418 211.464 88.1367C211.715 87.9316 212.013 87.7699 212.359 87.6514C212.71 87.5283 213.095 87.4668 213.515 87.4668C214.043 87.4668 214.508 87.5557 214.909 87.7334C215.315 87.9111 215.632 88.1777 215.859 88.5332C216.087 88.8887 216.201 89.3353 216.201 89.873V93.4482C216.201 93.7035 216.219 93.9678 216.256 94.2412C216.297 94.5146 216.354 94.7402 216.427 94.918V95H215.559C215.504 94.8359 215.461 94.6309 215.429 94.3848C215.401 94.1341 215.388 93.8971 215.388 93.6738ZM215.579 90.6934L215.593 91.3223H213.986C213.567 91.3223 213.191 91.361 212.858 91.4385C212.53 91.5114 212.252 91.6208 212.024 91.7666C211.797 91.9079 211.621 92.0788 211.498 92.2793C211.38 92.4798 211.32 92.7077 211.32 92.9629C211.32 93.2272 211.386 93.4688 211.519 93.6875C211.655 93.9062 211.847 94.0817 212.093 94.2139C212.343 94.3415 212.64 94.4053 212.981 94.4053C213.437 94.4053 213.838 94.321 214.185 94.1523C214.535 93.9837 214.825 93.7627 215.053 93.4893C215.281 93.2158 215.433 92.9173 215.511 92.5938L215.866 93.0654C215.807 93.2933 215.698 93.528 215.538 93.7695C215.383 94.0065 215.18 94.2298 214.93 94.4395C214.679 94.6445 214.383 94.8132 214.041 94.9453C213.704 95.0729 213.321 95.1367 212.893 95.1367C212.41 95.1367 211.988 95.0456 211.628 94.8633C211.272 94.681 210.994 94.4326 210.794 94.1182C210.598 93.7992 210.5 93.4391 210.5 93.0381C210.5 92.6735 210.577 92.3477 210.732 92.0605C210.887 91.7689 211.111 91.5228 211.402 91.3223C211.699 91.1172 212.054 90.9622 212.469 90.8574C212.888 90.748 213.357 90.6934 213.877 90.6934H215.579Z" fill="#222121"/>
<path d="M68.7931 52.2667C68.7931 67.8476 74.6359 63.9524 76.5836 73.6905C78.5779 83.6682 70.2304 93.1667 60.0288 93.1667C49.8252 93.1667 41.5264 83.8668 41.5264 73.6905C41.5264 64.712 46.3954 59.0833 51.2645 56.1619C56.1335 53.2405 61.0026 50.3191 61.0026 42.5286" stroke="#2A6D4C" stroke-width="4" stroke-linecap="round" stroke-linejoin="round"/>
<path d="M80.4788 56.1619C82.4264 56.1619 91.1907 60.0571 92.1645 69.7952C93.0448 78.6043 87.2955 92.1929 62.9502 93.1667" stroke="#2A6D4C" stroke-width="4" stroke-linecap="round"/>
<path d="M47.3715 89.2715C32.0885 89.2715 24.0019 80.1118 24 69.7953C24 58.6841 39.581 48.3715 43.4762 46.4238C47.3715 44.4762 49.3191 40.6745 49.3191 36.6857V28.8952C49.3191 26.2075 50.5266 25 53.2143 25H70.7429C72.9632 25 74.6382 26.9476 74.6382 28.8952V34.7381C74.6382 38.7327 77.1116 41.8917 80.6505 43.6543C82.1307 44.3944 83.6907 45.0995 85.2858 45.7519C91.7324 48.389 101.905 52.5491 101.905 63.9524C101.905 73.4588 95.2771 81.481 90.2191 81.481" stroke="#2A6D4C" stroke-width="4" stroke-linecap="round"/>
</svg>
