<svg width="346" height="120" viewBox="0 0 346 120" fill="none" xmlns="http://www.w3.org/2000/svg">
<rect x="0.25" y="0.25" width="345.5" height="119.5" rx="19.75" fill="white" stroke="#2A6D4C" stroke-width="0.5"/>
<path d="M124.406 23.9375H130.957C132.262 23.9375 133.391 24.1328 134.344 24.5234C135.305 24.9141 136.043 25.4922 136.559 26.2578C137.074 27.0234 137.332 27.9688 137.332 29.0938C137.332 30.0312 137.18 30.8281 136.875 31.4844C136.57 32.1406 136.141 32.6836 135.586 33.1133C135.039 33.543 134.398 33.8906 133.664 34.1562L132.422 34.8359H126.844L126.82 31.8711H130.969C131.539 31.8711 132.012 31.7695 132.387 31.5664C132.762 31.3633 133.043 31.0781 133.23 30.7109C133.426 30.3359 133.523 29.8984 133.523 29.3984C133.523 28.8828 133.426 28.4375 133.23 28.0625C133.035 27.6875 132.746 27.4023 132.363 27.207C131.988 27.0039 131.52 26.9023 130.957 26.9023H128.227V41H124.406V23.9375ZM133.852 41L130.02 33.418L134.051 33.4062L137.941 40.8242V41H133.852ZM145.711 41.2344C144.703 41.2344 143.801 41.0742 143.004 40.7539C142.207 40.4336 141.531 39.9922 140.977 39.4297C140.43 38.8594 140.012 38.2031 139.723 37.4609C139.434 36.7188 139.289 35.9258 139.289 35.082V34.6367C139.289 33.6914 139.422 32.8203 139.688 32.0234C139.953 31.2266 140.34 30.5352 140.848 29.9492C141.363 29.3555 141.996 28.8984 142.746 28.5781C143.496 28.25 144.352 28.0859 145.312 28.0859C146.211 28.0859 147.012 28.2344 147.715 28.5312C148.418 28.8203 149.012 29.2383 149.496 29.7852C149.98 30.3242 150.348 30.9766 150.598 31.7422C150.855 32.5 150.984 33.3516 150.984 34.2969V35.7969H140.766V33.4414H147.398V33.1602C147.398 32.7148 147.316 32.3242 147.152 31.9883C146.996 31.6523 146.762 31.3945 146.449 31.2148C146.145 31.0273 145.758 30.9336 145.289 30.9336C144.844 30.9336 144.473 31.0273 144.176 31.2148C143.879 31.4023 143.641 31.668 143.461 32.0117C143.289 32.3477 143.164 32.7422 143.086 33.1953C143.008 33.6406 142.969 34.1211 142.969 34.6367V35.082C142.969 35.5742 143.035 36.0234 143.168 36.4297C143.301 36.8359 143.496 37.1836 143.754 37.4727C144.012 37.7617 144.324 37.9883 144.691 38.1523C145.059 38.3164 145.477 38.3984 145.945 38.3984C146.523 38.3984 147.074 38.2891 147.598 38.0703C148.121 37.8438 148.574 37.4922 148.957 37.0156L150.668 38.9727C150.41 39.3477 150.047 39.7109 149.578 40.0625C149.117 40.4062 148.562 40.6875 147.914 40.9062C147.266 41.125 146.531 41.2344 145.711 41.2344ZM160.758 28.3203H164.086V40.543C164.086 41.707 163.82 42.6953 163.289 43.5078C162.766 44.3203 162.035 44.9375 161.098 45.3594C160.16 45.7812 159.062 45.9922 157.805 45.9922C157.258 45.9922 156.688 45.918 156.094 45.7695C155.5 45.6289 154.941 45.4141 154.418 45.125C153.895 44.8438 153.457 44.4844 153.105 44.0469L154.664 41.8906C155.023 42.2969 155.453 42.625 155.953 42.875C156.453 43.1328 157.023 43.2617 157.664 43.2617C158.25 43.2617 158.746 43.1562 159.152 42.9453C159.559 42.7344 159.867 42.4258 160.078 42.0195C160.297 41.6133 160.406 41.1211 160.406 40.543V31.2852L160.758 28.3203ZM152.285 34.8125V34.5664C152.285 33.6055 152.402 32.7305 152.637 31.9414C152.871 31.1445 153.211 30.4609 153.656 29.8906C154.109 29.3125 154.652 28.8672 155.285 28.5547C155.926 28.2422 156.645 28.0859 157.441 28.0859C158.301 28.0859 159.012 28.25 159.574 28.5781C160.137 28.8984 160.594 29.3516 160.945 29.9375C161.297 30.5156 161.574 31.1992 161.777 31.9883C161.98 32.7695 162.145 33.6172 162.27 34.5312V34.9531C162.145 35.8281 161.965 36.6445 161.73 37.4023C161.496 38.1602 161.191 38.8281 160.816 39.4062C160.441 39.9766 159.973 40.4258 159.41 40.7539C158.855 41.0742 158.191 41.2344 157.418 41.2344C156.629 41.2344 155.918 41.0742 155.285 40.7539C154.652 40.4336 154.109 39.9844 153.656 39.4062C153.211 38.8281 152.871 38.1484 152.637 37.3672C152.402 36.5859 152.285 35.7344 152.285 34.8125ZM155.941 34.5664V34.8125C155.941 35.3125 155.988 35.7773 156.082 36.207C156.184 36.6367 156.332 37.0156 156.527 37.3438C156.73 37.6719 156.98 37.9297 157.277 38.1172C157.582 38.2969 157.938 38.3867 158.344 38.3867C158.938 38.3867 159.418 38.2617 159.785 38.0117C160.16 37.7539 160.434 37.3984 160.605 36.9453C160.785 36.4922 160.879 35.9648 160.887 35.3633V34.1328C160.887 33.6328 160.836 33.1836 160.734 32.7852C160.633 32.3867 160.48 32.0508 160.277 31.7773C160.082 31.5039 159.824 31.2969 159.504 31.1562C159.191 31.0078 158.812 30.9336 158.367 30.9336C157.969 30.9336 157.617 31.0273 157.312 31.2148C157.008 31.3945 156.754 31.6484 156.551 31.9766C156.348 32.3047 156.195 32.6914 156.094 33.1367C155.992 33.5742 155.941 34.0508 155.941 34.5664ZM170.379 28.3203V41H166.711V28.3203H170.379ZM166.488 25.0391C166.488 24.5078 166.676 24.0742 167.051 23.7383C167.426 23.3945 167.918 23.2227 168.527 23.2227C169.137 23.2227 169.629 23.3945 170.004 23.7383C170.387 24.0742 170.578 24.5078 170.578 25.0391C170.578 25.5625 170.387 25.9961 170.004 26.3398C169.629 26.6758 169.137 26.8438 168.527 26.8438C167.918 26.8438 167.426 26.6758 167.051 26.3398C166.676 25.9961 166.488 25.5625 166.488 25.0391ZM179.766 37.4727C179.766 37.2383 179.691 37.0312 179.543 36.8516C179.402 36.6719 179.145 36.5078 178.77 36.3594C178.402 36.2109 177.883 36.0625 177.211 35.9141C176.578 35.7812 175.988 35.6094 175.441 35.3984C174.895 35.1797 174.418 34.918 174.012 34.6133C173.605 34.3008 173.289 33.9336 173.062 33.5117C172.836 33.082 172.723 32.5938 172.723 32.0469C172.723 31.5156 172.836 31.0117 173.062 30.5352C173.297 30.0586 173.633 29.6367 174.07 29.2695C174.516 28.9023 175.055 28.6133 175.688 28.4023C176.328 28.1914 177.055 28.0859 177.867 28.0859C178.984 28.0859 179.949 28.2617 180.762 28.6133C181.574 28.957 182.199 29.4414 182.637 30.0664C183.074 30.6836 183.293 31.3906 183.293 32.1875H179.637C179.637 31.8594 179.574 31.5742 179.449 31.332C179.324 31.0898 179.133 30.9023 178.875 30.7695C178.617 30.6289 178.277 30.5586 177.855 30.5586C177.527 30.5586 177.238 30.6172 176.988 30.7344C176.746 30.8438 176.555 30.9961 176.414 31.1914C176.281 31.3867 176.215 31.6133 176.215 31.8711C176.215 32.0508 176.254 32.2148 176.332 32.3633C176.418 32.5039 176.547 32.6367 176.719 32.7617C176.898 32.8789 177.129 32.9844 177.41 33.0781C177.699 33.1719 178.051 33.2617 178.465 33.3477C179.348 33.5117 180.152 33.7422 180.879 34.0391C181.613 34.3359 182.199 34.7461 182.637 35.2695C183.082 35.793 183.305 36.4844 183.305 37.3438C183.305 37.9062 183.176 38.4219 182.918 38.8906C182.668 39.3594 182.305 39.7695 181.828 40.1211C181.352 40.4727 180.781 40.7461 180.117 40.9414C179.453 41.1367 178.703 41.2344 177.867 41.2344C176.672 41.2344 175.66 41.0195 174.832 40.5898C174.004 40.1602 173.379 39.6211 172.957 38.9727C172.543 38.3164 172.336 37.6445 172.336 36.957H175.77C175.785 37.3789 175.891 37.7227 176.086 37.9883C176.289 38.2539 176.551 38.4492 176.871 38.5742C177.191 38.6914 177.551 38.75 177.949 38.75C178.348 38.75 178.68 38.6953 178.945 38.5859C179.211 38.4766 179.414 38.3281 179.555 38.1406C179.695 37.9453 179.766 37.7227 179.766 37.4727ZM191.789 28.3203V30.8867H184.266V28.3203H191.789ZM185.988 25.1797H189.656V37.0273C189.656 37.3789 189.699 37.6484 189.785 37.8359C189.871 38.0234 190.012 38.1562 190.207 38.2344C190.402 38.3047 190.652 38.3398 190.957 38.3398C191.176 38.3398 191.363 38.332 191.52 38.3164C191.676 38.3008 191.82 38.2812 191.953 38.2578V40.9062C191.641 41.0078 191.309 41.0859 190.957 41.1406C190.605 41.2031 190.223 41.2344 189.809 41.2344C189.02 41.2344 188.336 41.1055 187.758 40.8477C187.188 40.5898 186.75 40.1836 186.445 39.6289C186.141 39.0664 185.988 38.3359 185.988 37.4375V25.1797ZM197.215 31.2734V41H193.559V28.3203H196.992L197.215 31.2734ZM201 28.2266L200.941 31.6367C200.785 31.6133 200.582 31.5938 200.332 31.5781C200.082 31.5547 199.867 31.543 199.688 31.543C199.219 31.543 198.812 31.6016 198.469 31.7188C198.133 31.8281 197.852 31.9922 197.625 32.2109C197.406 32.4297 197.242 32.7031 197.133 33.0312C197.023 33.3516 196.969 33.7227 196.969 34.1445L196.277 33.8047C196.277 32.9688 196.359 32.2031 196.523 31.5078C196.688 30.8125 196.926 30.2109 197.238 29.7031C197.551 29.1875 197.934 28.7891 198.387 28.5078C198.84 28.2266 199.355 28.0859 199.934 28.0859C200.121 28.0859 200.312 28.0977 200.508 28.1211C200.703 28.1445 200.867 28.1797 201 28.2266ZM201.574 34.7891V34.543C201.574 33.6133 201.707 32.7578 201.973 31.9766C202.238 31.1875 202.629 30.5039 203.145 29.9258C203.66 29.3477 204.293 28.8984 205.043 28.5781C205.793 28.25 206.652 28.0859 207.621 28.0859C208.605 28.0859 209.473 28.25 210.223 28.5781C210.98 28.8984 211.617 29.3477 212.133 29.9258C212.648 30.5039 213.039 31.1875 213.305 31.9766C213.57 32.7578 213.703 33.6133 213.703 34.543V34.7891C213.703 35.7109 213.57 36.5664 213.305 37.3555C213.039 38.1367 212.648 38.8203 212.133 39.4062C211.617 39.9844 210.984 40.4336 210.234 40.7539C209.484 41.0742 208.621 41.2344 207.645 41.2344C206.676 41.2344 205.812 41.0742 205.055 40.7539C204.297 40.4336 203.66 39.9844 203.145 39.4062C202.629 38.8203 202.238 38.1367 201.973 37.3555C201.707 36.5664 201.574 35.7109 201.574 34.7891ZM205.242 34.543V34.7891C205.242 35.2891 205.281 35.7578 205.359 36.1953C205.445 36.6328 205.582 37.0156 205.77 37.3438C205.957 37.6719 206.203 37.9297 206.508 38.1172C206.82 38.2969 207.199 38.3867 207.645 38.3867C208.09 38.3867 208.465 38.2969 208.77 38.1172C209.074 37.9297 209.32 37.6719 209.508 37.3438C209.695 37.0156 209.828 36.6328 209.906 36.1953C209.992 35.7578 210.035 35.2891 210.035 34.7891V34.543C210.035 34.0508 209.992 33.5898 209.906 33.1602C209.828 32.7227 209.695 32.3359 209.508 32C209.32 31.6641 209.07 31.4023 208.758 31.2148C208.453 31.0273 208.074 30.9336 207.621 30.9336C207.184 30.9336 206.812 31.0273 206.508 31.2148C206.203 31.4023 205.957 31.6641 205.77 32C205.582 32.3359 205.445 32.7227 205.359 33.1602C205.281 33.5898 205.242 34.0508 205.242 34.543ZM228.984 38.1641V23H232.664V41H229.359L228.984 38.1641ZM221.086 34.8125V34.5664C221.086 33.6055 221.191 32.7305 221.402 31.9414C221.621 31.1445 221.938 30.4609 222.352 29.8906C222.773 29.3125 223.293 28.8672 223.91 28.5547C224.527 28.2422 225.234 28.0859 226.031 28.0859C226.766 28.0859 227.406 28.25 227.953 28.5781C228.5 28.8984 228.965 29.3516 229.348 29.9375C229.738 30.5156 230.055 31.1992 230.297 31.9883C230.539 32.7695 230.723 33.6172 230.848 34.5312V34.9531C230.73 35.8281 230.547 36.6445 230.297 37.4023C230.055 38.1602 229.738 38.8281 229.348 39.4062C228.965 39.9766 228.496 40.4258 227.941 40.7539C227.395 41.0742 226.75 41.2344 226.008 41.2344C225.211 41.2344 224.504 41.0742 223.887 40.7539C223.277 40.4336 222.766 39.9844 222.352 39.4062C221.938 38.8281 221.621 38.1484 221.402 37.3672C221.191 36.5859 221.086 35.7344 221.086 34.8125ZM224.742 34.5664V34.8125C224.742 35.3125 224.777 35.7773 224.848 36.207C224.926 36.6367 225.051 37.0156 225.223 37.3438C225.395 37.6719 225.621 37.9297 225.902 38.1172C226.184 38.2969 226.527 38.3867 226.934 38.3867C227.48 38.3867 227.93 38.2617 228.281 38.0117C228.633 37.7539 228.898 37.3984 229.078 36.9453C229.258 36.4922 229.352 35.9648 229.359 35.3633V34.1328C229.359 33.6328 229.309 33.1836 229.207 32.7852C229.105 32.3867 228.953 32.0508 228.75 31.7773C228.555 31.5039 228.309 31.2969 228.012 31.1562C227.715 31.0078 227.363 30.9336 226.957 30.9336C226.559 30.9336 226.219 31.0273 225.938 31.2148C225.656 31.3945 225.426 31.6484 225.246 31.9766C225.074 32.3047 224.945 32.6914 224.859 33.1367C224.781 33.5742 224.742 34.0508 224.742 34.5664ZM241.078 41.2344C240.07 41.2344 239.168 41.0742 238.371 40.7539C237.574 40.4336 236.898 39.9922 236.344 39.4297C235.797 38.8594 235.379 38.2031 235.09 37.4609C234.801 36.7188 234.656 35.9258 234.656 35.082V34.6367C234.656 33.6914 234.789 32.8203 235.055 32.0234C235.32 31.2266 235.707 30.5352 236.215 29.9492C236.73 29.3555 237.363 28.8984 238.113 28.5781C238.863 28.25 239.719 28.0859 240.68 28.0859C241.578 28.0859 242.379 28.2344 243.082 28.5312C243.785 28.8203 244.379 29.2383 244.863 29.7852C245.348 30.3242 245.715 30.9766 245.965 31.7422C246.223 32.5 246.352 33.3516 246.352 34.2969V35.7969H236.133V33.4414H242.766V33.1602C242.766 32.7148 242.684 32.3242 242.52 31.9883C242.363 31.6523 242.129 31.3945 241.816 31.2148C241.512 31.0273 241.125 30.9336 240.656 30.9336C240.211 30.9336 239.84 31.0273 239.543 31.2148C239.246 31.4023 239.008 31.668 238.828 32.0117C238.656 32.3477 238.531 32.7422 238.453 33.1953C238.375 33.6406 238.336 34.1211 238.336 34.6367V35.082C238.336 35.5742 238.402 36.0234 238.535 36.4297C238.668 36.8359 238.863 37.1836 239.121 37.4727C239.379 37.7617 239.691 37.9883 240.059 38.1523C240.426 38.3164 240.844 38.3984 241.312 38.3984C241.891 38.3984 242.441 38.2891 242.965 38.0703C243.488 37.8438 243.941 37.4922 244.324 37.0156L246.035 38.9727C245.777 39.3477 245.414 39.7109 244.945 40.0625C244.484 40.4062 243.93 40.6875 243.281 40.9062C242.633 41.125 241.898 41.2344 241.078 41.2344ZM261.492 38.1641V23H265.172V41H261.867L261.492 38.1641ZM253.594 34.8125V34.5664C253.594 33.6055 253.699 32.7305 253.91 31.9414C254.129 31.1445 254.445 30.4609 254.859 29.8906C255.281 29.3125 255.801 28.8672 256.418 28.5547C257.035 28.2422 257.742 28.0859 258.539 28.0859C259.273 28.0859 259.914 28.25 260.461 28.5781C261.008 28.8984 261.473 29.3516 261.855 29.9375C262.246 30.5156 262.562 31.1992 262.805 31.9883C263.047 32.7695 263.23 33.6172 263.355 34.5312V34.9531C263.238 35.8281 263.055 36.6445 262.805 37.4023C262.562 38.1602 262.246 38.8281 261.855 39.4062C261.473 39.9766 261.004 40.4258 260.449 40.7539C259.902 41.0742 259.258 41.2344 258.516 41.2344C257.719 41.2344 257.012 41.0742 256.395 40.7539C255.785 40.4336 255.273 39.9844 254.859 39.4062C254.445 38.8281 254.129 38.1484 253.91 37.3672C253.699 36.5859 253.594 35.7344 253.594 34.8125ZM257.25 34.5664V34.8125C257.25 35.3125 257.285 35.7773 257.355 36.207C257.434 36.6367 257.559 37.0156 257.73 37.3438C257.902 37.6719 258.129 37.9297 258.41 38.1172C258.691 38.2969 259.035 38.3867 259.441 38.3867C259.988 38.3867 260.438 38.2617 260.789 38.0117C261.141 37.7539 261.406 37.3984 261.586 36.9453C261.766 36.4922 261.859 35.9648 261.867 35.3633V34.1328C261.867 33.6328 261.816 33.1836 261.715 32.7852C261.613 32.3867 261.461 32.0508 261.258 31.7773C261.062 31.5039 260.816 31.2969 260.52 31.1562C260.223 31.0078 259.871 30.9336 259.465 30.9336C259.066 30.9336 258.727 31.0273 258.445 31.2148C258.164 31.3945 257.934 31.6484 257.754 31.9766C257.582 32.3047 257.453 32.6914 257.367 33.1367C257.289 33.5742 257.25 34.0508 257.25 34.5664ZM274.324 37.9766V32.5391C274.324 32.1562 274.266 31.8281 274.148 31.5547C274.031 31.2812 273.848 31.0664 273.598 30.9102C273.348 30.7539 273.023 30.6758 272.625 30.6758C272.289 30.6758 271.996 30.7344 271.746 30.8516C271.504 30.9688 271.316 31.1367 271.184 31.3555C271.059 31.5742 270.996 31.8438 270.996 32.1641H267.34C267.34 31.5938 267.469 31.0625 267.727 30.5703C267.984 30.0781 268.352 29.6445 268.828 29.2695C269.312 28.8945 269.891 28.6055 270.562 28.4023C271.234 28.1914 271.988 28.0859 272.824 28.0859C273.816 28.0859 274.699 28.2539 275.473 28.5898C276.254 28.918 276.871 29.4141 277.324 30.0781C277.777 30.7344 278.004 31.5625 278.004 32.5625V37.8711C278.004 38.6367 278.047 39.2383 278.133 39.6758C278.227 40.1055 278.359 40.4805 278.531 40.8008V41H274.84C274.668 40.6328 274.539 40.1797 274.453 39.6406C274.367 39.0938 274.324 38.5391 274.324 37.9766ZM274.781 33.2656L274.805 35.2812H272.988C272.582 35.2812 272.23 35.332 271.934 35.4336C271.645 35.5352 271.41 35.6758 271.23 35.8555C271.051 36.0273 270.918 36.2305 270.832 36.4648C270.754 36.6914 270.715 36.9414 270.715 37.2148C270.715 37.4727 270.777 37.707 270.902 37.918C271.027 38.1211 271.199 38.2812 271.418 38.3984C271.637 38.5156 271.891 38.5742 272.18 38.5742C272.656 38.5742 273.062 38.4805 273.398 38.293C273.742 38.1055 274.008 37.8789 274.195 37.6133C274.383 37.3398 274.477 37.0859 274.477 36.8516L275.355 38.375C275.215 38.6875 275.043 39.0117 274.84 39.3477C274.637 39.6758 274.379 39.9844 274.066 40.2734C273.754 40.5547 273.375 40.7852 272.93 40.9648C272.492 41.1445 271.965 41.2344 271.348 41.2344C270.551 41.2344 269.828 41.0742 269.18 40.7539C268.531 40.4258 268.012 39.9766 267.621 39.4062C267.238 38.8359 267.047 38.1797 267.047 37.4375C267.047 36.7734 267.168 36.1836 267.41 35.668C267.652 35.1523 268.016 34.7148 268.5 34.3555C268.992 33.9961 269.609 33.7266 270.352 33.5469C271.094 33.3594 271.961 33.2656 272.953 33.2656H274.781ZM283.992 31.0273V41H280.324V28.3203H283.77L283.992 31.0273ZM283.512 34.2148L282.598 34.2383C282.598 33.2852 282.715 32.4297 282.949 31.6719C283.184 30.9141 283.516 30.2695 283.945 29.7383C284.383 29.1992 284.902 28.7891 285.504 28.5078C286.113 28.2266 286.785 28.0859 287.52 28.0859C288.113 28.0859 288.656 28.1719 289.148 28.3438C289.641 28.5156 290.062 28.793 290.414 29.1758C290.773 29.5508 291.047 30.0508 291.234 30.6758C291.422 31.293 291.516 32.0547 291.516 32.9609V41H287.836V32.9492C287.836 32.418 287.762 32.0078 287.613 31.7188C287.465 31.4297 287.246 31.2266 286.957 31.1094C286.676 30.9922 286.332 30.9336 285.926 30.9336C285.496 30.9336 285.129 31.0195 284.824 31.1914C284.52 31.3555 284.27 31.5859 284.074 31.8828C283.879 32.1797 283.734 32.5273 283.641 32.9258C283.555 33.3242 283.512 33.7539 283.512 34.2148ZM288.352 23.0234L290.414 23.1523C290.414 23.7227 290.297 24.2461 290.062 24.7227C289.836 25.1992 289.52 25.582 289.113 25.8711C288.715 26.1523 288.258 26.293 287.742 26.293C287.375 26.293 287.055 26.2461 286.781 26.1523C286.508 26.0508 286.254 25.9336 286.02 25.8008C285.785 25.6602 285.547 25.5391 285.305 25.4375C285.062 25.3359 284.789 25.2852 284.484 25.2852C284.234 25.2852 284.016 25.3789 283.828 25.5664C283.648 25.7539 283.559 26.0273 283.559 26.3867L281.473 26.2695C281.473 25.7148 281.586 25.1992 281.812 24.7227C282.039 24.2383 282.352 23.8516 282.75 23.5625C283.156 23.2734 283.621 23.1289 284.145 23.1289C284.457 23.1289 284.746 23.1797 285.012 23.2812C285.285 23.375 285.547 23.4883 285.797 23.6211C286.055 23.7539 286.312 23.8711 286.57 23.9727C286.828 24.0742 287.102 24.125 287.391 24.125C287.648 24.125 287.871 24.0312 288.059 23.8438C288.254 23.6562 288.352 23.3828 288.352 23.0234ZM293.379 34.7891V34.543C293.379 33.6133 293.512 32.7578 293.777 31.9766C294.043 31.1875 294.434 30.5039 294.949 29.9258C295.465 29.3477 296.098 28.8984 296.848 28.5781C297.598 28.25 298.457 28.0859 299.426 28.0859C300.41 28.0859 301.277 28.25 302.027 28.5781C302.785 28.8984 303.422 29.3477 303.938 29.9258C304.453 30.5039 304.844 31.1875 305.109 31.9766C305.375 32.7578 305.508 33.6133 305.508 34.543V34.7891C305.508 35.7109 305.375 36.5664 305.109 37.3555C304.844 38.1367 304.453 38.8203 303.938 39.4062C303.422 39.9844 302.789 40.4336 302.039 40.7539C301.289 41.0742 300.426 41.2344 299.449 41.2344C298.48 41.2344 297.617 41.0742 296.859 40.7539C296.102 40.4336 295.465 39.9844 294.949 39.4062C294.434 38.8203 294.043 38.1367 293.777 37.3555C293.512 36.5664 293.379 35.7109 293.379 34.7891ZM297.047 34.543V34.7891C297.047 35.2891 297.086 35.7578 297.164 36.1953C297.25 36.6328 297.387 37.0156 297.574 37.3438C297.762 37.6719 298.008 37.9297 298.312 38.1172C298.625 38.2969 299.004 38.3867 299.449 38.3867C299.895 38.3867 300.27 38.2969 300.574 38.1172C300.879 37.9297 301.125 37.6719 301.312 37.3438C301.5 37.0156 301.633 36.6328 301.711 36.1953C301.797 35.7578 301.84 35.2891 301.84 34.7891V34.543C301.84 34.0508 301.797 33.5898 301.711 33.1602C301.633 32.7227 301.5 32.3359 301.312 32C301.125 31.6641 300.875 31.4023 300.562 31.2148C300.258 31.0273 299.879 30.9336 299.426 30.9336C298.988 30.9336 298.617 31.0273 298.312 31.2148C298.008 31.4023 297.762 31.6641 297.574 32C297.387 32.3359 297.25 32.7227 297.164 33.1602C297.086 33.5898 297.047 34.0508 297.047 34.543Z" fill="#222121"/>
<path d="M128.571 60.6738V56.8594C128.571 56.5085 128.498 56.2054 128.353 55.9502C128.207 55.695 127.993 55.499 127.71 55.3623C127.427 55.2256 127.079 55.1572 126.664 55.1572C126.281 55.1572 125.939 55.2256 125.639 55.3623C125.342 55.4945 125.108 55.6745 124.935 55.9023C124.766 56.1257 124.682 56.374 124.682 56.6475L123.861 56.6406C123.861 56.3626 123.93 56.0938 124.066 55.834C124.203 55.5742 124.397 55.3418 124.647 55.1367C124.898 54.9316 125.197 54.7699 125.543 54.6514C125.894 54.5283 126.279 54.4668 126.698 54.4668C127.227 54.4668 127.692 54.5557 128.093 54.7334C128.498 54.9111 128.815 55.1777 129.043 55.5332C129.271 55.8887 129.385 56.3353 129.385 56.873V60.4482C129.385 60.7035 129.403 60.9678 129.439 61.2412C129.48 61.5146 129.537 61.7402 129.61 61.918V62H128.742C128.688 61.8359 128.644 61.6309 128.612 61.3848C128.585 61.1341 128.571 60.8971 128.571 60.6738ZM128.763 57.6934L128.776 58.3223H127.17C126.751 58.3223 126.375 58.361 126.042 58.4385C125.714 58.5114 125.436 58.6208 125.208 58.7666C124.98 58.9079 124.805 59.0788 124.682 59.2793C124.563 59.4798 124.504 59.7077 124.504 59.9629C124.504 60.2272 124.57 60.4688 124.702 60.6875C124.839 60.9062 125.03 61.0817 125.276 61.2139C125.527 61.3415 125.823 61.4053 126.165 61.4053C126.621 61.4053 127.022 61.321 127.368 61.1523C127.719 60.9837 128.008 60.7627 128.236 60.4893C128.464 60.2158 128.617 59.9173 128.694 59.5938L129.05 60.0654C128.991 60.2933 128.881 60.528 128.722 60.7695C128.567 61.0065 128.364 61.2298 128.113 61.4395C127.863 61.6445 127.566 61.8132 127.225 61.9453C126.887 62.0729 126.505 62.1367 126.076 62.1367C125.593 62.1367 125.172 62.0456 124.812 61.8633C124.456 61.681 124.178 61.4326 123.978 61.1182C123.782 60.7992 123.684 60.4391 123.684 60.0381C123.684 59.6735 123.761 59.3477 123.916 59.0605C124.071 58.7689 124.294 58.5228 124.586 58.3223C124.882 58.1172 125.238 57.9622 125.652 57.8574C126.072 57.748 126.541 57.6934 127.061 57.6934H128.763ZM131.565 51.5H132.386V60.5645L132.331 62H131.565V51.5ZM137.533 58.2334V58.377C137.533 58.9284 137.469 59.4342 137.342 59.8945C137.214 60.3548 137.03 60.7536 136.788 61.0908C136.547 61.4235 136.25 61.681 135.899 61.8633C135.553 62.0456 135.154 62.1367 134.703 62.1367C134.261 62.1367 133.869 62.0684 133.527 61.9316C133.186 61.7904 132.894 61.5921 132.652 61.3369C132.411 61.0771 132.217 60.7741 132.071 60.4277C131.925 60.0768 131.823 59.6917 131.764 59.2725V57.4473C131.832 57.0007 131.941 56.5951 132.092 56.2305C132.242 55.8659 132.436 55.5514 132.673 55.2871C132.914 55.0228 133.201 54.82 133.534 54.6787C133.871 54.5374 134.257 54.4668 134.689 54.4668C135.141 54.4668 135.542 54.5557 135.893 54.7334C136.248 54.9066 136.547 55.1595 136.788 55.4922C137.03 55.8203 137.214 56.2168 137.342 56.6816C137.469 57.1419 137.533 57.6592 137.533 58.2334ZM136.706 58.377V58.2334C136.706 57.8005 136.665 57.3994 136.583 57.0303C136.501 56.6611 136.371 56.3398 136.193 56.0664C136.02 55.7884 135.797 55.5719 135.523 55.417C135.25 55.262 134.922 55.1846 134.539 55.1846C134.147 55.1846 133.812 55.2507 133.534 55.3828C133.261 55.5104 133.033 55.6813 132.851 55.8955C132.673 56.1051 132.532 56.3353 132.427 56.5859C132.322 56.8366 132.244 57.0827 132.194 57.3242V59.4502C132.272 59.792 132.406 60.1133 132.598 60.4141C132.789 60.7148 133.047 60.9587 133.37 61.1455C133.694 61.3278 134.088 61.4189 134.553 61.4189C134.926 61.4189 135.248 61.3415 135.517 61.1865C135.79 61.0316 136.013 60.8174 136.187 60.5439C136.364 60.2705 136.494 59.9492 136.576 59.5801C136.663 59.2109 136.706 58.8099 136.706 58.377ZM144.15 60.5645V51.5H144.971V62H144.205L144.15 60.5645ZM139.017 58.377V58.2334C139.017 57.6592 139.083 57.1419 139.215 56.6816C139.347 56.2168 139.536 55.8203 139.782 55.4922C140.033 55.1595 140.334 54.9066 140.685 54.7334C141.035 54.5557 141.432 54.4668 141.874 54.4668C142.307 54.4668 142.69 54.5374 143.022 54.6787C143.355 54.82 143.64 55.0228 143.877 55.2871C144.118 55.5514 144.312 55.8659 144.458 56.2305C144.608 56.5951 144.718 57.0007 144.786 57.4473V59.2725C144.731 59.6917 144.631 60.0768 144.485 60.4277C144.34 60.7741 144.146 61.0771 143.904 61.3369C143.663 61.5921 143.371 61.7904 143.029 61.9316C142.692 62.0684 142.302 62.1367 141.86 62.1367C141.423 62.1367 141.029 62.0456 140.678 61.8633C140.327 61.681 140.028 61.4235 139.782 61.0908C139.536 60.7536 139.347 60.3548 139.215 59.8945C139.083 59.4342 139.017 58.9284 139.017 58.377ZM139.837 58.2334V58.377C139.837 58.8099 139.88 59.2109 139.967 59.5801C140.053 59.9492 140.186 60.2705 140.363 60.5439C140.541 60.8174 140.767 61.0316 141.04 61.1865C141.313 61.3415 141.637 61.4189 142.011 61.4189C142.48 61.4189 142.874 61.3301 143.193 61.1523C143.512 60.9701 143.768 60.7308 143.959 60.4346C144.15 60.1338 144.289 59.8057 144.376 59.4502V57.3242C144.321 57.0827 144.242 56.8366 144.137 56.5859C144.032 56.3353 143.888 56.1051 143.706 55.8955C143.528 55.6813 143.3 55.5104 143.022 55.3828C142.749 55.2507 142.416 55.1846 142.024 55.1846C141.646 55.1846 141.32 55.262 141.047 55.417C140.773 55.5719 140.546 55.7884 140.363 56.0664C140.186 56.3398 140.053 56.6611 139.967 57.0303C139.88 57.3994 139.837 57.8005 139.837 58.2334ZM148.525 62H147.712V53.6875C147.712 53.1816 147.799 52.7555 147.972 52.4092C148.149 52.0628 148.4 51.8008 148.724 51.623C149.052 51.4453 149.441 51.3564 149.893 51.3564C150.034 51.3564 150.18 51.3656 150.33 51.3838C150.48 51.3975 150.626 51.4271 150.768 51.4727L150.706 52.1631C150.592 52.1312 150.476 52.1107 150.357 52.1016C150.243 52.0879 150.109 52.0811 149.954 52.0811C149.658 52.0811 149.403 52.1449 149.188 52.2725C148.974 52.3955 148.81 52.5755 148.696 52.8125C148.582 53.0495 148.525 53.3411 148.525 53.6875V62ZM150.289 54.6035V55.2734H146.488V54.6035H150.289ZM151.308 58.418V58.1924C151.308 57.6546 151.385 57.1579 151.54 56.7021C151.695 56.2464 151.916 55.8522 152.203 55.5195C152.495 55.1868 152.843 54.9294 153.249 54.7471C153.655 54.5602 154.106 54.4668 154.603 54.4668C155.104 54.4668 155.557 54.5602 155.963 54.7471C156.368 54.9294 156.717 55.1868 157.009 55.5195C157.3 55.8522 157.524 56.2464 157.679 56.7021C157.834 57.1579 157.911 57.6546 157.911 58.1924V58.418C157.911 58.9557 157.834 59.4525 157.679 59.9082C157.524 60.3594 157.3 60.7513 157.009 61.084C156.722 61.4167 156.375 61.6764 155.97 61.8633C155.564 62.0456 155.113 62.1367 154.616 62.1367C154.115 62.1367 153.661 62.0456 153.256 61.8633C152.85 61.6764 152.502 61.4167 152.21 61.084C151.918 60.7513 151.695 60.3594 151.54 59.9082C151.385 59.4525 151.308 58.9557 151.308 58.418ZM152.121 58.1924V58.418C152.121 58.8236 152.176 59.2087 152.285 59.5732C152.395 59.9333 152.554 60.2546 152.764 60.5371C152.973 60.8151 153.233 61.0339 153.543 61.1934C153.853 61.3529 154.211 61.4326 154.616 61.4326C155.017 61.4326 155.37 61.3529 155.676 61.1934C155.986 61.0339 156.245 60.8151 156.455 60.5371C156.665 60.2546 156.822 59.9333 156.927 59.5732C157.036 59.2087 157.091 58.8236 157.091 58.418V58.1924C157.091 57.7913 157.036 57.4108 156.927 57.0508C156.822 56.6908 156.662 56.3695 156.448 56.0869C156.239 55.8044 155.979 55.5811 155.669 55.417C155.359 55.2529 155.004 55.1709 154.603 55.1709C154.201 55.1709 153.846 55.2529 153.536 55.417C153.231 55.5811 152.971 55.8044 152.757 56.0869C152.547 56.3695 152.388 56.6908 152.278 57.0508C152.174 57.4108 152.121 57.7913 152.121 58.1924ZM160.516 54.6035V62H159.702V54.6035H160.516ZM159.559 52.4639C159.559 52.3089 159.606 52.179 159.702 52.0742C159.802 51.9648 159.939 51.9102 160.112 51.9102C160.285 51.9102 160.422 51.9648 160.522 52.0742C160.627 52.179 160.68 52.3089 160.68 52.4639C160.68 52.6143 160.627 52.7441 160.522 52.8535C160.422 52.9583 160.285 53.0107 160.112 53.0107C159.939 53.0107 159.802 52.9583 159.702 52.8535C159.606 52.7441 159.559 52.6143 159.559 52.4639ZM167.249 60.6738V56.8594C167.249 56.5085 167.176 56.2054 167.03 55.9502C166.884 55.695 166.67 55.499 166.388 55.3623C166.105 55.2256 165.757 55.1572 165.342 55.1572C164.959 55.1572 164.617 55.2256 164.316 55.3623C164.02 55.4945 163.785 55.6745 163.612 55.9023C163.444 56.1257 163.359 56.374 163.359 56.6475L162.539 56.6406C162.539 56.3626 162.607 56.0938 162.744 55.834C162.881 55.5742 163.075 55.3418 163.325 55.1367C163.576 54.9316 163.874 54.7699 164.221 54.6514C164.572 54.5283 164.957 54.4668 165.376 54.4668C165.905 54.4668 166.369 54.5557 166.771 54.7334C167.176 54.9111 167.493 55.1777 167.721 55.5332C167.949 55.8887 168.062 56.3353 168.062 56.873V60.4482C168.062 60.7035 168.081 60.9678 168.117 61.2412C168.158 61.5146 168.215 61.7402 168.288 61.918V62H167.42C167.365 61.8359 167.322 61.6309 167.29 61.3848C167.263 61.1341 167.249 60.8971 167.249 60.6738ZM167.44 57.6934L167.454 58.3223H165.848C165.428 58.3223 165.052 58.361 164.72 58.4385C164.392 58.5114 164.114 58.6208 163.886 58.7666C163.658 58.9079 163.482 59.0788 163.359 59.2793C163.241 59.4798 163.182 59.7077 163.182 59.9629C163.182 60.2272 163.248 60.4688 163.38 60.6875C163.517 60.9062 163.708 61.0817 163.954 61.2139C164.205 61.3415 164.501 61.4053 164.843 61.4053C165.299 61.4053 165.7 61.321 166.046 61.1523C166.397 60.9837 166.686 60.7627 166.914 60.4893C167.142 60.2158 167.295 59.9173 167.372 59.5938L167.728 60.0654C167.668 60.2933 167.559 60.528 167.399 60.7695C167.244 61.0065 167.042 61.2298 166.791 61.4395C166.54 61.6445 166.244 61.8132 165.902 61.9453C165.565 62.0729 165.182 62.1367 164.754 62.1367C164.271 62.1367 163.849 62.0456 163.489 61.8633C163.134 61.681 162.856 61.4326 162.655 61.1182C162.459 60.7992 162.361 60.4391 162.361 60.0381C162.361 59.6735 162.439 59.3477 162.594 59.0605C162.749 58.7689 162.972 58.5228 163.264 58.3223C163.56 58.1172 163.915 57.9622 164.33 57.8574C164.749 57.748 165.219 57.6934 165.738 57.6934H167.44ZM170.243 51.5H171.063V60.5645L171.009 62H170.243V51.5ZM176.211 58.2334V58.377C176.211 58.9284 176.147 59.4342 176.02 59.8945C175.892 60.3548 175.707 60.7536 175.466 61.0908C175.224 61.4235 174.928 61.681 174.577 61.8633C174.231 62.0456 173.832 62.1367 173.381 62.1367C172.939 62.1367 172.547 62.0684 172.205 61.9316C171.863 61.7904 171.572 61.5921 171.33 61.3369C171.089 61.0771 170.895 60.7741 170.749 60.4277C170.603 60.0768 170.501 59.6917 170.441 59.2725V57.4473C170.51 57.0007 170.619 56.5951 170.77 56.2305C170.92 55.8659 171.114 55.5514 171.351 55.2871C171.592 55.0228 171.879 54.82 172.212 54.6787C172.549 54.5374 172.934 54.4668 173.367 54.4668C173.818 54.4668 174.219 54.5557 174.57 54.7334C174.926 54.9066 175.224 55.1595 175.466 55.4922C175.707 55.8203 175.892 56.2168 176.02 56.6816C176.147 57.1419 176.211 57.6592 176.211 58.2334ZM175.384 58.377V58.2334C175.384 57.8005 175.343 57.3994 175.261 57.0303C175.179 56.6611 175.049 56.3398 174.871 56.0664C174.698 55.7884 174.475 55.5719 174.201 55.417C173.928 55.262 173.6 55.1846 173.217 55.1846C172.825 55.1846 172.49 55.2507 172.212 55.3828C171.938 55.5104 171.711 55.6813 171.528 55.8955C171.351 56.1051 171.209 56.3353 171.104 56.5859C171 56.8366 170.922 57.0827 170.872 57.3242V59.4502C170.95 59.792 171.084 60.1133 171.275 60.4141C171.467 60.7148 171.724 60.9587 172.048 61.1455C172.371 61.3278 172.766 61.4189 173.23 61.4189C173.604 61.4189 173.925 61.3415 174.194 61.1865C174.468 61.0316 174.691 60.8174 174.864 60.5439C175.042 60.2705 175.172 59.9492 175.254 59.5801C175.34 59.2109 175.384 58.8099 175.384 58.377ZM182.452 60.1133C182.452 59.9128 182.402 59.7145 182.302 59.5186C182.201 59.3226 182.008 59.1426 181.721 58.9785C181.438 58.8145 181.021 58.6755 180.47 58.5615C180.06 58.4704 179.693 58.3678 179.369 58.2539C179.05 58.14 178.781 58.0033 178.562 57.8438C178.344 57.6842 178.177 57.4928 178.063 57.2695C177.95 57.0462 177.893 56.7819 177.893 56.4766C177.893 56.2031 177.952 55.9456 178.07 55.7041C178.193 55.458 178.367 55.2438 178.59 55.0615C178.818 54.8747 179.091 54.7288 179.41 54.624C179.734 54.5192 180.096 54.4668 180.497 54.4668C181.067 54.4668 181.554 54.5648 181.96 54.7607C182.37 54.9521 182.682 55.2142 182.896 55.5469C183.115 55.8796 183.225 56.2555 183.225 56.6748H182.411C182.411 56.4196 182.336 56.1781 182.186 55.9502C182.04 55.7223 181.823 55.5355 181.536 55.3896C181.254 55.2438 180.907 55.1709 180.497 55.1709C180.073 55.1709 179.729 55.2347 179.465 55.3623C179.201 55.4899 179.007 55.6517 178.884 55.8477C178.765 56.0436 178.706 56.2464 178.706 56.4561C178.706 56.6201 178.731 56.7705 178.781 56.9072C178.836 57.0394 178.932 57.1624 179.068 57.2764C179.21 57.3903 179.41 57.4974 179.67 57.5977C179.93 57.6979 180.267 57.7959 180.682 57.8916C181.279 58.0238 181.766 58.1855 182.145 58.377C182.527 58.5638 182.81 58.7962 182.992 59.0742C183.174 59.3477 183.266 59.6803 183.266 60.0723C183.266 60.3776 183.202 60.6579 183.074 60.9131C182.947 61.1637 182.762 61.3802 182.521 61.5625C182.284 61.7448 181.996 61.8861 181.659 61.9863C181.326 62.0866 180.953 62.1367 180.538 62.1367C179.914 62.1367 179.385 62.0342 178.952 61.8291C178.524 61.6195 178.198 61.346 177.975 61.0088C177.756 60.667 177.646 60.3047 177.646 59.9219H178.46C178.487 60.3047 178.608 60.6077 178.822 60.8311C179.036 61.0498 179.299 61.2048 179.608 61.2959C179.923 61.387 180.233 61.4326 180.538 61.4326C180.957 61.4326 181.308 61.3711 181.591 61.248C181.873 61.125 182.088 60.9632 182.233 60.7627C182.379 60.5622 182.452 60.3457 182.452 60.1133ZM186.027 54.6035V62H185.214V54.6035H186.027ZM185.07 52.4639C185.07 52.3089 185.118 52.179 185.214 52.0742C185.314 51.9648 185.451 51.9102 185.624 51.9102C185.797 51.9102 185.934 51.9648 186.034 52.0742C186.139 52.179 186.191 52.3089 186.191 52.4639C186.191 52.6143 186.139 52.7441 186.034 52.8535C185.934 52.9583 185.797 53.0107 185.624 53.0107C185.451 53.0107 185.314 52.9583 185.214 52.8535C185.118 52.7441 185.07 52.6143 185.07 52.4639ZM192.761 60.6738V56.8594C192.761 56.5085 192.688 56.2054 192.542 55.9502C192.396 55.695 192.182 55.499 191.899 55.3623C191.617 55.2256 191.268 55.1572 190.854 55.1572C190.471 55.1572 190.129 55.2256 189.828 55.3623C189.532 55.4945 189.297 55.6745 189.124 55.9023C188.955 56.1257 188.871 56.374 188.871 56.6475L188.051 56.6406C188.051 56.3626 188.119 56.0938 188.256 55.834C188.393 55.5742 188.586 55.3418 188.837 55.1367C189.088 54.9316 189.386 54.7699 189.732 54.6514C190.083 54.5283 190.468 54.4668 190.888 54.4668C191.416 54.4668 191.881 54.5557 192.282 54.7334C192.688 54.9111 193.005 55.1777 193.232 55.5332C193.46 55.8887 193.574 56.3353 193.574 56.873V60.4482C193.574 60.7035 193.592 60.9678 193.629 61.2412C193.67 61.5146 193.727 61.7402 193.8 61.918V62H192.932C192.877 61.8359 192.834 61.6309 192.802 61.3848C192.774 61.1341 192.761 60.8971 192.761 60.6738ZM192.952 57.6934L192.966 58.3223H191.359C190.94 58.3223 190.564 58.361 190.231 58.4385C189.903 58.5114 189.625 58.6208 189.397 58.7666C189.17 58.9079 188.994 59.0788 188.871 59.2793C188.753 59.4798 188.693 59.7077 188.693 59.9629C188.693 60.2272 188.759 60.4688 188.892 60.6875C189.028 60.9062 189.22 61.0817 189.466 61.2139C189.716 61.3415 190.013 61.4053 190.354 61.4053C190.81 61.4053 191.211 61.321 191.558 61.1523C191.909 60.9837 192.198 60.7627 192.426 60.4893C192.654 60.2158 192.806 59.9173 192.884 59.5938L193.239 60.0654C193.18 60.2933 193.071 60.528 192.911 60.7695C192.756 61.0065 192.553 61.2298 192.303 61.4395C192.052 61.6445 191.756 61.8132 191.414 61.9453C191.077 62.0729 190.694 62.1367 190.266 62.1367C189.783 62.1367 189.361 62.0456 189.001 61.8633C188.646 61.681 188.368 61.4326 188.167 61.1182C187.971 60.7992 187.873 60.4391 187.873 60.0381C187.873 59.6735 187.951 59.3477 188.105 59.0605C188.26 58.7689 188.484 58.5228 188.775 58.3223C189.072 58.1172 189.427 57.9622 189.842 57.8574C190.261 57.748 190.73 57.6934 191.25 57.6934H192.952ZM196.582 56.1826V62H195.769V54.6035H196.548L196.582 56.1826ZM196.397 57.8438L196.035 57.6387C196.062 57.2012 196.151 56.791 196.302 56.4082C196.452 56.0254 196.655 55.6882 196.91 55.3965C197.17 55.1048 197.473 54.877 197.819 54.7129C198.17 54.5488 198.558 54.4668 198.981 54.4668C199.351 54.4668 199.681 54.5169 199.973 54.6172C200.264 54.7174 200.513 54.877 200.718 55.0957C200.923 55.3145 201.078 55.5947 201.183 55.9365C201.292 56.2783 201.347 56.6953 201.347 57.1875V62H200.526V57.1807C200.526 56.6702 200.456 56.2715 200.314 55.9844C200.173 55.6927 199.973 55.4854 199.713 55.3623C199.453 55.2393 199.146 55.1777 198.79 55.1777C198.398 55.1777 198.054 55.2643 197.758 55.4375C197.466 55.6061 197.22 55.8271 197.02 56.1006C196.824 56.3695 196.673 56.6589 196.568 56.9688C196.464 57.2741 196.407 57.5658 196.397 57.8438ZM208.271 60.5645V51.5H209.092V62H208.326L208.271 60.5645ZM203.138 58.377V58.2334C203.138 57.6592 203.204 57.1419 203.336 56.6816C203.468 56.2168 203.657 55.8203 203.903 55.4922C204.154 55.1595 204.455 54.9066 204.806 54.7334C205.157 54.5557 205.553 54.4668 205.995 54.4668C206.428 54.4668 206.811 54.5374 207.144 54.6787C207.476 54.82 207.761 55.0228 207.998 55.2871C208.24 55.5514 208.433 55.8659 208.579 56.2305C208.729 56.5951 208.839 57.0007 208.907 57.4473V59.2725C208.853 59.6917 208.752 60.0768 208.606 60.4277C208.461 60.7741 208.267 61.0771 208.025 61.3369C207.784 61.5921 207.492 61.7904 207.15 61.9316C206.813 62.0684 206.424 62.1367 205.981 62.1367C205.544 62.1367 205.15 62.0456 204.799 61.8633C204.448 61.681 204.149 61.4235 203.903 61.0908C203.657 60.7536 203.468 60.3548 203.336 59.8945C203.204 59.4342 203.138 58.9284 203.138 58.377ZM203.958 58.2334V58.377C203.958 58.8099 204.001 59.2109 204.088 59.5801C204.174 59.9492 204.307 60.2705 204.484 60.5439C204.662 60.8174 204.888 61.0316 205.161 61.1865C205.435 61.3415 205.758 61.4189 206.132 61.4189C206.601 61.4189 206.995 61.3301 207.314 61.1523C207.633 60.9701 207.889 60.7308 208.08 60.4346C208.271 60.1338 208.41 59.8057 208.497 59.4502V57.3242C208.442 57.0827 208.363 56.8366 208.258 56.5859C208.153 56.3353 208.009 56.1051 207.827 55.8955C207.649 55.6813 207.422 55.5104 207.144 55.3828C206.87 55.2507 206.537 55.1846 206.146 55.1846C205.767 55.1846 205.441 55.262 205.168 55.417C204.895 55.5719 204.667 55.7884 204.484 56.0664C204.307 56.3398 204.174 56.6611 204.088 57.0303C204.001 57.3994 203.958 57.8005 203.958 58.2334ZM210.794 58.418V58.1924C210.794 57.6546 210.871 57.1579 211.026 56.7021C211.181 56.2464 211.402 55.8522 211.689 55.5195C211.981 55.1868 212.33 54.9294 212.735 54.7471C213.141 54.5602 213.592 54.4668 214.089 54.4668C214.59 54.4668 215.044 54.5602 215.449 54.7471C215.855 54.9294 216.203 55.1868 216.495 55.5195C216.787 55.8522 217.01 56.2464 217.165 56.7021C217.32 57.1579 217.397 57.6546 217.397 58.1924V58.418C217.397 58.9557 217.32 59.4525 217.165 59.9082C217.01 60.3594 216.787 60.7513 216.495 61.084C216.208 61.4167 215.862 61.6764 215.456 61.8633C215.05 62.0456 214.599 62.1367 214.103 62.1367C213.601 62.1367 213.148 62.0456 212.742 61.8633C212.337 61.6764 211.988 61.4167 211.696 61.084C211.405 60.7513 211.181 60.3594 211.026 59.9082C210.871 59.4525 210.794 58.9557 210.794 58.418ZM211.607 58.1924V58.418C211.607 58.8236 211.662 59.2087 211.771 59.5732C211.881 59.9333 212.04 60.2546 212.25 60.5371C212.46 60.8151 212.719 61.0339 213.029 61.1934C213.339 61.3529 213.697 61.4326 214.103 61.4326C214.504 61.4326 214.857 61.3529 215.162 61.1934C215.472 61.0339 215.732 60.8151 215.941 60.5371C216.151 60.2546 216.308 59.9333 216.413 59.5732C216.522 59.2087 216.577 58.8236 216.577 58.418V58.1924C216.577 57.7913 216.522 57.4108 216.413 57.0508C216.308 56.6908 216.149 56.3695 215.935 56.0869C215.725 55.8044 215.465 55.5811 215.155 55.417C214.845 55.2529 214.49 55.1709 214.089 55.1709C213.688 55.1709 213.332 55.2529 213.022 55.417C212.717 55.5811 212.457 55.8044 212.243 56.0869C212.034 56.3695 211.874 56.6908 211.765 57.0508C211.66 57.4108 211.607 57.7913 211.607 58.1924ZM220.002 54.6035V62H219.188V54.6035H220.002ZM219.045 52.4639C219.045 52.3089 219.093 52.179 219.188 52.0742C219.289 51.9648 219.425 51.9102 219.599 51.9102C219.772 51.9102 219.909 51.9648 220.009 52.0742C220.114 52.179 220.166 52.3089 220.166 52.4639C220.166 52.6143 220.114 52.7441 220.009 52.8535C219.909 52.9583 219.772 53.0107 219.599 53.0107C219.425 53.0107 219.289 52.9583 219.188 52.8535C219.093 52.7441 219.045 52.6143 219.045 52.4639ZM226.735 60.6738V56.8594C226.735 56.5085 226.662 56.2054 226.517 55.9502C226.371 55.695 226.157 55.499 225.874 55.3623C225.591 55.2256 225.243 55.1572 224.828 55.1572C224.445 55.1572 224.104 55.2256 223.803 55.3623C223.507 55.4945 223.272 55.6745 223.099 55.9023C222.93 56.1257 222.846 56.374 222.846 56.6475L222.025 56.6406C222.025 56.3626 222.094 56.0938 222.23 55.834C222.367 55.5742 222.561 55.3418 222.812 55.1367C223.062 54.9316 223.361 54.7699 223.707 54.6514C224.058 54.5283 224.443 54.4668 224.862 54.4668C225.391 54.4668 225.856 54.5557 226.257 54.7334C226.662 54.9111 226.979 55.1777 227.207 55.5332C227.435 55.8887 227.549 56.3353 227.549 56.873V60.4482C227.549 60.7035 227.567 60.9678 227.604 61.2412C227.645 61.5146 227.701 61.7402 227.774 61.918V62H226.906C226.852 61.8359 226.808 61.6309 226.776 61.3848C226.749 61.1341 226.735 60.8971 226.735 60.6738ZM226.927 57.6934L226.94 58.3223H225.334C224.915 58.3223 224.539 58.361 224.206 58.4385C223.878 58.5114 223.6 58.6208 223.372 58.7666C223.144 58.9079 222.969 59.0788 222.846 59.2793C222.727 59.4798 222.668 59.7077 222.668 59.9629C222.668 60.2272 222.734 60.4688 222.866 60.6875C223.003 60.9062 223.194 61.0817 223.44 61.2139C223.691 61.3415 223.987 61.4053 224.329 61.4053C224.785 61.4053 225.186 61.321 225.532 61.1523C225.883 60.9837 226.173 60.7627 226.4 60.4893C226.628 60.2158 226.781 59.9173 226.858 59.5938L227.214 60.0654C227.155 60.2933 227.045 60.528 226.886 60.7695C226.731 61.0065 226.528 61.2298 226.277 61.4395C226.027 61.6445 225.73 61.8132 225.389 61.9453C225.051 62.0729 224.669 62.1367 224.24 62.1367C223.757 62.1367 223.336 62.0456 222.976 61.8633C222.62 61.681 222.342 61.4326 222.142 61.1182C221.946 60.7992 221.848 60.4391 221.848 60.0381C221.848 59.6735 221.925 59.3477 222.08 59.0605C222.235 58.7689 222.458 58.5228 222.75 58.3223C223.046 58.1172 223.402 57.9622 223.816 57.8574C224.236 57.748 224.705 57.6934 225.225 57.6934H226.927ZM230.557 56.1826V62H229.743V54.6035H230.522L230.557 56.1826ZM230.372 57.8438L230.01 57.6387C230.037 57.2012 230.126 56.791 230.276 56.4082C230.427 56.0254 230.63 55.6882 230.885 55.3965C231.145 55.1048 231.448 54.877 231.794 54.7129C232.145 54.5488 232.532 54.4668 232.956 54.4668C233.325 54.4668 233.656 54.5169 233.947 54.6172C234.239 54.7174 234.487 54.877 234.692 55.0957C234.897 55.3145 235.052 55.5947 235.157 55.9365C235.267 56.2783 235.321 56.6953 235.321 57.1875V62H234.501V57.1807C234.501 56.6702 234.43 56.2715 234.289 55.9844C234.148 55.6927 233.947 55.4854 233.688 55.3623C233.428 55.2393 233.12 55.1777 232.765 55.1777C232.373 55.1777 232.029 55.2643 231.732 55.4375C231.441 55.6061 231.195 55.8271 230.994 56.1006C230.798 56.3695 230.648 56.6589 230.543 56.9688C230.438 57.2741 230.381 57.5658 230.372 57.8438ZM242.246 60.5645V51.5H243.066V62H242.301L242.246 60.5645ZM237.112 58.377V58.2334C237.112 57.6592 237.178 57.1419 237.311 56.6816C237.443 56.2168 237.632 55.8203 237.878 55.4922C238.129 55.1595 238.429 54.9066 238.78 54.7334C239.131 54.5557 239.528 54.4668 239.97 54.4668C240.403 54.4668 240.785 54.5374 241.118 54.6787C241.451 54.82 241.736 55.0228 241.973 55.2871C242.214 55.5514 242.408 55.8659 242.554 56.2305C242.704 56.5951 242.813 57.0007 242.882 57.4473V59.2725C242.827 59.6917 242.727 60.0768 242.581 60.4277C242.435 60.7741 242.242 61.0771 242 61.3369C241.758 61.5921 241.467 61.7904 241.125 61.9316C240.788 62.0684 240.398 62.1367 239.956 62.1367C239.519 62.1367 239.124 62.0456 238.773 61.8633C238.423 61.681 238.124 61.4235 237.878 61.0908C237.632 60.7536 237.443 60.3548 237.311 59.8945C237.178 59.4342 237.112 58.9284 237.112 58.377ZM237.933 58.2334V58.377C237.933 58.8099 237.976 59.2109 238.062 59.5801C238.149 59.9492 238.281 60.2705 238.459 60.5439C238.637 60.8174 238.862 61.0316 239.136 61.1865C239.409 61.3415 239.733 61.4189 240.106 61.4189C240.576 61.4189 240.97 61.3301 241.289 61.1523C241.608 60.9701 241.863 60.7308 242.055 60.4346C242.246 60.1338 242.385 59.8057 242.472 59.4502V57.3242C242.417 57.0827 242.337 56.8366 242.232 56.5859C242.128 56.3353 241.984 56.1051 241.802 55.8955C241.624 55.6813 241.396 55.5104 241.118 55.3828C240.845 55.2507 240.512 55.1846 240.12 55.1846C239.742 55.1846 239.416 55.262 239.143 55.417C238.869 55.5719 238.641 55.7884 238.459 56.0664C238.281 56.3398 238.149 56.6611 238.062 57.0303C237.976 57.3994 237.933 57.8005 237.933 58.2334ZM244.769 58.418V58.1924C244.769 57.6546 244.846 57.1579 245.001 56.7021C245.156 56.2464 245.377 55.8522 245.664 55.5195C245.956 55.1868 246.304 54.9294 246.71 54.7471C247.116 54.5602 247.567 54.4668 248.063 54.4668C248.565 54.4668 249.018 54.5602 249.424 54.7471C249.829 54.9294 250.178 55.1868 250.47 55.5195C250.761 55.8522 250.985 56.2464 251.14 56.7021C251.295 57.1579 251.372 57.6546 251.372 58.1924V58.418C251.372 58.9557 251.295 59.4525 251.14 59.9082C250.985 60.3594 250.761 60.7513 250.47 61.084C250.183 61.4167 249.836 61.6764 249.431 61.8633C249.025 62.0456 248.574 62.1367 248.077 62.1367C247.576 62.1367 247.122 62.0456 246.717 61.8633C246.311 61.6764 245.963 61.4167 245.671 61.084C245.379 60.7513 245.156 60.3594 245.001 59.9082C244.846 59.4525 244.769 58.9557 244.769 58.418ZM245.582 58.1924V58.418C245.582 58.8236 245.637 59.2087 245.746 59.5732C245.855 59.9333 246.015 60.2546 246.225 60.5371C246.434 60.8151 246.694 61.0339 247.004 61.1934C247.314 61.3529 247.672 61.4326 248.077 61.4326C248.478 61.4326 248.831 61.3529 249.137 61.1934C249.447 61.0339 249.706 60.8151 249.916 60.5371C250.126 60.2546 250.283 59.9333 250.388 59.5732C250.497 59.2087 250.552 58.8236 250.552 58.418V58.1924C250.552 57.7913 250.497 57.4108 250.388 57.0508C250.283 56.6908 250.123 56.3695 249.909 56.0869C249.7 55.8044 249.44 55.5811 249.13 55.417C248.82 55.2529 248.465 55.1709 248.063 55.1709C247.662 55.1709 247.307 55.2529 246.997 55.417C246.692 55.5811 246.432 55.8044 246.218 56.0869C246.008 56.3695 245.849 56.6908 245.739 57.0508C245.634 57.4108 245.582 57.7913 245.582 58.1924ZM253.977 54.6035V62H253.163V54.6035H253.977ZM253.02 52.4639C253.02 52.3089 253.067 52.179 253.163 52.0742C253.263 51.9648 253.4 51.9102 253.573 51.9102C253.746 51.9102 253.883 51.9648 253.983 52.0742C254.088 52.179 254.141 52.3089 254.141 52.4639C254.141 52.6143 254.088 52.7441 253.983 52.8535C253.883 52.9583 253.746 53.0107 253.573 53.0107C253.4 53.0107 253.263 52.9583 253.163 52.8535C253.067 52.7441 253.02 52.6143 253.02 52.4639ZM260.71 60.6738V56.8594C260.71 56.5085 260.637 56.2054 260.491 55.9502C260.345 55.695 260.131 55.499 259.849 55.3623C259.566 55.2256 259.217 55.1572 258.803 55.1572C258.42 55.1572 258.078 55.2256 257.777 55.3623C257.481 55.4945 257.246 55.6745 257.073 55.9023C256.905 56.1257 256.82 56.374 256.82 56.6475L256 56.6406C256 56.3626 256.068 56.0938 256.205 55.834C256.342 55.5742 256.535 55.3418 256.786 55.1367C257.037 54.9316 257.335 54.7699 257.682 54.6514C258.033 54.5283 258.418 54.4668 258.837 54.4668C259.366 54.4668 259.83 54.5557 260.231 54.7334C260.637 54.9111 260.954 55.1777 261.182 55.5332C261.41 55.8887 261.523 56.3353 261.523 56.873V60.4482C261.523 60.7035 261.542 60.9678 261.578 61.2412C261.619 61.5146 261.676 61.7402 261.749 61.918V62H260.881C260.826 61.8359 260.783 61.6309 260.751 61.3848C260.724 61.1341 260.71 60.8971 260.71 60.6738ZM260.901 57.6934L260.915 58.3223H259.309C258.889 58.3223 258.513 58.361 258.181 58.4385C257.853 58.5114 257.575 58.6208 257.347 58.7666C257.119 58.9079 256.943 59.0788 256.82 59.2793C256.702 59.4798 256.643 59.7077 256.643 59.9629C256.643 60.2272 256.709 60.4688 256.841 60.6875C256.978 60.9062 257.169 61.0817 257.415 61.2139C257.666 61.3415 257.962 61.4053 258.304 61.4053C258.759 61.4053 259.16 61.321 259.507 61.1523C259.858 60.9837 260.147 60.7627 260.375 60.4893C260.603 60.2158 260.756 59.9173 260.833 59.5938L261.188 60.0654C261.129 60.2933 261.02 60.528 260.86 60.7695C260.705 61.0065 260.503 61.2298 260.252 61.4395C260.001 61.6445 259.705 61.8132 259.363 61.9453C259.026 62.0729 258.643 62.1367 258.215 62.1367C257.732 62.1367 257.31 62.0456 256.95 61.8633C256.595 61.681 256.317 61.4326 256.116 61.1182C255.92 60.7992 255.822 60.4391 255.822 60.0381C255.822 59.6735 255.9 59.3477 256.055 59.0605C256.21 58.7689 256.433 58.5228 256.725 58.3223C257.021 58.1172 257.376 57.9622 257.791 57.8574C258.21 57.748 258.68 57.6934 259.199 57.6934H260.901ZM268.147 60.1133C268.147 59.9128 268.097 59.7145 267.997 59.5186C267.897 59.3226 267.703 59.1426 267.416 58.9785C267.133 58.8145 266.716 58.6755 266.165 58.5615C265.755 58.4704 265.388 58.3678 265.064 58.2539C264.745 58.14 264.477 58.0033 264.258 57.8438C264.039 57.6842 263.873 57.4928 263.759 57.2695C263.645 57.0462 263.588 56.7819 263.588 56.4766C263.588 56.2031 263.647 55.9456 263.766 55.7041C263.889 55.458 264.062 55.2438 264.285 55.0615C264.513 54.8747 264.786 54.7288 265.105 54.624C265.429 54.5192 265.791 54.4668 266.192 54.4668C266.762 54.4668 267.25 54.5648 267.655 54.7607C268.065 54.9521 268.378 55.2142 268.592 55.5469C268.811 55.8796 268.92 56.2555 268.92 56.6748H268.106C268.106 56.4196 268.031 56.1781 267.881 55.9502C267.735 55.7223 267.519 55.5355 267.231 55.3896C266.949 55.2438 266.603 55.1709 266.192 55.1709C265.769 55.1709 265.424 55.2347 265.16 55.3623C264.896 55.4899 264.702 55.6517 264.579 55.8477C264.461 56.0436 264.401 56.2464 264.401 56.4561C264.401 56.6201 264.426 56.7705 264.477 56.9072C264.531 57.0394 264.627 57.1624 264.764 57.2764C264.905 57.3903 265.105 57.4974 265.365 57.5977C265.625 57.6979 265.962 57.7959 266.377 57.8916C266.974 58.0238 267.462 58.1855 267.84 58.377C268.223 58.5638 268.505 58.7962 268.688 59.0742C268.87 59.3477 268.961 59.6803 268.961 60.0723C268.961 60.3776 268.897 60.6579 268.77 60.9131C268.642 61.1637 268.457 61.3802 268.216 61.5625C267.979 61.7448 267.692 61.8861 267.354 61.9863C267.022 62.0866 266.648 62.1367 266.233 62.1367C265.609 62.1367 265.08 62.0342 264.647 61.8291C264.219 61.6195 263.893 61.346 263.67 61.0088C263.451 60.667 263.342 60.3047 263.342 59.9219H264.155C264.183 60.3047 264.303 60.6077 264.518 60.8311C264.732 61.0498 264.994 61.2048 265.304 61.2959C265.618 61.387 265.928 61.4326 266.233 61.4326C266.653 61.4326 267.004 61.3711 267.286 61.248C267.569 61.125 267.783 60.9632 267.929 60.7627C268.075 60.5622 268.147 60.3457 268.147 60.1133ZM271.627 56.1826V62H270.813V54.6035H271.593L271.627 56.1826ZM271.442 57.8438L271.08 57.6387C271.107 57.2012 271.196 56.791 271.347 56.4082C271.497 56.0254 271.7 55.6882 271.955 55.3965C272.215 55.1048 272.518 54.877 272.864 54.7129C273.215 54.5488 273.603 54.4668 274.026 54.4668C274.396 54.4668 274.726 54.5169 275.018 54.6172C275.309 54.7174 275.558 54.877 275.763 55.0957C275.968 55.3145 276.123 55.5947 276.228 55.9365C276.337 56.2783 276.392 56.6953 276.392 57.1875V62H275.571V57.1807C275.571 56.6702 275.501 56.2715 275.359 55.9844C275.218 55.6927 275.018 55.4854 274.758 55.3623C274.498 55.2393 274.19 55.1777 273.835 55.1777C273.443 55.1777 273.099 55.2643 272.803 55.4375C272.511 55.6061 272.265 55.8271 272.064 56.1006C271.868 56.3695 271.718 56.6589 271.613 56.9688C271.508 57.2741 271.451 57.5658 271.442 57.8438ZM283.316 60.5645V51.5H284.137V62H283.371L283.316 60.5645ZM278.183 58.377V58.2334C278.183 57.6592 278.249 57.1419 278.381 56.6816C278.513 56.2168 278.702 55.8203 278.948 55.4922C279.199 55.1595 279.5 54.9066 279.851 54.7334C280.201 54.5557 280.598 54.4668 281.04 54.4668C281.473 54.4668 281.856 54.5374 282.188 54.6787C282.521 54.82 282.806 55.0228 283.043 55.2871C283.285 55.5514 283.478 55.8659 283.624 56.2305C283.774 56.5951 283.884 57.0007 283.952 57.4473V59.2725C283.897 59.6917 283.797 60.0768 283.651 60.4277C283.506 60.7741 283.312 61.0771 283.07 61.3369C282.829 61.5921 282.537 61.7904 282.195 61.9316C281.858 62.0684 281.468 62.1367 281.026 62.1367C280.589 62.1367 280.195 62.0456 279.844 61.8633C279.493 61.681 279.194 61.4235 278.948 61.0908C278.702 60.7536 278.513 60.3548 278.381 59.8945C278.249 59.4342 278.183 58.9284 278.183 58.377ZM279.003 58.2334V58.377C279.003 58.8099 279.046 59.2109 279.133 59.5801C279.219 59.9492 279.352 60.2705 279.529 60.5439C279.707 60.8174 279.933 61.0316 280.206 61.1865C280.479 61.3415 280.803 61.4189 281.177 61.4189C281.646 61.4189 282.04 61.3301 282.359 61.1523C282.678 60.9701 282.934 60.7308 283.125 60.4346C283.316 60.1338 283.455 59.8057 283.542 59.4502V57.3242C283.487 57.0827 283.408 56.8366 283.303 56.5859C283.198 56.3353 283.054 56.1051 282.872 55.8955C282.694 55.6813 282.466 55.5104 282.188 55.3828C281.915 55.2507 281.582 55.1846 281.19 55.1846C280.812 55.1846 280.486 55.262 280.213 55.417C279.939 55.5719 279.712 55.7884 279.529 56.0664C279.352 56.3398 279.219 56.6611 279.133 57.0303C279.046 57.3994 279.003 57.8005 279.003 58.2334ZM123.622 74.418V74.1924C123.622 73.6546 123.7 73.1579 123.854 72.7021C124.009 72.2464 124.23 71.8522 124.518 71.5195C124.809 71.1868 125.158 70.9294 125.563 70.7471C125.969 70.5602 126.42 70.4668 126.917 70.4668C127.418 70.4668 127.872 70.5602 128.277 70.7471C128.683 70.9294 129.032 71.1868 129.323 71.5195C129.615 71.8522 129.838 72.2464 129.993 72.7021C130.148 73.1579 130.226 73.6546 130.226 74.1924V74.418C130.226 74.9557 130.148 75.4525 129.993 75.9082C129.838 76.3594 129.615 76.7513 129.323 77.084C129.036 77.4167 128.69 77.6764 128.284 77.8633C127.879 78.0456 127.427 78.1367 126.931 78.1367C126.429 78.1367 125.976 78.0456 125.57 77.8633C125.165 77.6764 124.816 77.4167 124.524 77.084C124.233 76.7513 124.009 76.3594 123.854 75.9082C123.7 75.4525 123.622 74.9557 123.622 74.418ZM124.436 74.1924V74.418C124.436 74.8236 124.49 75.2087 124.6 75.5732C124.709 75.9333 124.868 76.2546 125.078 76.5371C125.288 76.8151 125.548 77.0339 125.857 77.1934C126.167 77.3529 126.525 77.4326 126.931 77.4326C127.332 77.4326 127.685 77.3529 127.99 77.1934C128.3 77.0339 128.56 76.8151 128.77 76.5371C128.979 76.2546 129.136 75.9333 129.241 75.5732C129.351 75.2087 129.405 74.8236 129.405 74.418V74.1924C129.405 73.7913 129.351 73.4108 129.241 73.0508C129.136 72.6908 128.977 72.3695 128.763 72.0869C128.553 71.8044 128.293 71.5811 127.983 71.417C127.674 71.2529 127.318 71.1709 126.917 71.1709C126.516 71.1709 126.16 71.2529 125.851 71.417C125.545 71.5811 125.285 71.8044 125.071 72.0869C124.862 72.3695 124.702 72.6908 124.593 73.0508C124.488 73.4108 124.436 73.7913 124.436 74.1924ZM132.83 70.6035V78H132.017V70.6035H132.83ZM131.873 68.4639C131.873 68.3089 131.921 68.179 132.017 68.0742C132.117 67.9648 132.254 67.9102 132.427 67.9102C132.6 67.9102 132.737 67.9648 132.837 68.0742C132.942 68.179 132.994 68.3089 132.994 68.4639C132.994 68.6143 132.942 68.7441 132.837 68.8535C132.737 68.9583 132.6 69.0107 132.427 69.0107C132.254 69.0107 132.117 68.9583 132.017 68.8535C131.921 68.7441 131.873 68.6143 131.873 68.4639ZM135.879 72.1826V78H135.065V70.6035H135.845L135.879 72.1826ZM135.694 73.8438L135.332 73.6387C135.359 73.2012 135.448 72.791 135.599 72.4082C135.749 72.0254 135.952 71.6882 136.207 71.3965C136.467 71.1048 136.77 70.877 137.116 70.7129C137.467 70.5488 137.854 70.4668 138.278 70.4668C138.647 70.4668 138.978 70.5169 139.27 70.6172C139.561 70.7174 139.81 70.877 140.015 71.0957C140.22 71.3145 140.375 71.5947 140.479 71.9365C140.589 72.2783 140.644 72.6953 140.644 73.1875V78H139.823V73.1807C139.823 72.6702 139.753 72.2715 139.611 71.9844C139.47 71.6927 139.27 71.4854 139.01 71.3623C138.75 71.2393 138.442 71.1777 138.087 71.1777C137.695 71.1777 137.351 71.2643 137.055 71.4375C136.763 71.6061 136.517 71.8271 136.316 72.1006C136.12 72.3695 135.97 72.6589 135.865 72.9688C135.76 73.2741 135.703 73.5658 135.694 73.8438ZM147.261 76.6738V72.8594C147.261 72.5085 147.188 72.2054 147.042 71.9502C146.896 71.695 146.682 71.499 146.399 71.3623C146.117 71.2256 145.768 71.1572 145.354 71.1572C144.971 71.1572 144.629 71.2256 144.328 71.3623C144.032 71.4945 143.797 71.6745 143.624 71.9023C143.455 72.1257 143.371 72.374 143.371 72.6475L142.551 72.6406C142.551 72.3626 142.619 72.0938 142.756 71.834C142.893 71.5742 143.086 71.3418 143.337 71.1367C143.588 70.9316 143.886 70.7699 144.232 70.6514C144.583 70.5283 144.968 70.4668 145.388 70.4668C145.916 70.4668 146.381 70.5557 146.782 70.7334C147.188 70.9111 147.505 71.1777 147.732 71.5332C147.96 71.8887 148.074 72.3353 148.074 72.873V76.4482C148.074 76.7035 148.092 76.9678 148.129 77.2412C148.17 77.5146 148.227 77.7402 148.3 77.918V78H147.432C147.377 77.8359 147.334 77.6309 147.302 77.3848C147.274 77.1341 147.261 76.8971 147.261 76.6738ZM147.452 73.6934L147.466 74.3223H145.859C145.44 74.3223 145.064 74.361 144.731 74.4385C144.403 74.5114 144.125 74.6208 143.897 74.7666C143.67 74.9079 143.494 75.0788 143.371 75.2793C143.253 75.4798 143.193 75.7077 143.193 75.9629C143.193 76.2272 143.259 76.4688 143.392 76.6875C143.528 76.9062 143.72 77.0817 143.966 77.2139C144.216 77.3415 144.513 77.4053 144.854 77.4053C145.31 77.4053 145.711 77.321 146.058 77.1523C146.409 76.9837 146.698 76.7627 146.926 76.4893C147.154 76.2158 147.306 75.9173 147.384 75.5938L147.739 76.0654C147.68 76.2933 147.571 76.528 147.411 76.7695C147.256 77.0065 147.053 77.2298 146.803 77.4395C146.552 77.6445 146.256 77.8132 145.914 77.9453C145.577 78.0729 145.194 78.1367 144.766 78.1367C144.283 78.1367 143.861 78.0456 143.501 77.8633C143.146 77.681 142.868 77.4326 142.667 77.1182C142.471 76.7992 142.373 76.4391 142.373 76.0381C142.373 75.6735 142.451 75.3477 142.605 75.0605C142.76 74.7689 142.984 74.5228 143.275 74.3223C143.572 74.1172 143.927 73.9622 144.342 73.8574C144.761 73.748 145.23 73.6934 145.75 73.6934H147.452ZM154.698 76.1133C154.698 75.9128 154.648 75.7145 154.548 75.5186C154.448 75.3226 154.254 75.1426 153.967 74.9785C153.684 74.8145 153.267 74.6755 152.716 74.5615C152.306 74.4704 151.939 74.3678 151.615 74.2539C151.296 74.14 151.027 74.0033 150.809 73.8438C150.59 73.6842 150.424 73.4928 150.31 73.2695C150.196 73.0462 150.139 72.7819 150.139 72.4766C150.139 72.2031 150.198 71.9456 150.316 71.7041C150.439 71.458 150.613 71.2438 150.836 71.0615C151.064 70.8747 151.337 70.7288 151.656 70.624C151.98 70.5192 152.342 70.4668 152.743 70.4668C153.313 70.4668 153.8 70.5648 154.206 70.7607C154.616 70.9521 154.928 71.2142 155.143 71.5469C155.361 71.8796 155.471 72.2555 155.471 72.6748H154.657C154.657 72.4196 154.582 72.1781 154.432 71.9502C154.286 71.7223 154.069 71.5355 153.782 71.3896C153.5 71.2438 153.153 71.1709 152.743 71.1709C152.319 71.1709 151.975 71.2347 151.711 71.3623C151.447 71.4899 151.253 71.6517 151.13 71.8477C151.011 72.0436 150.952 72.2464 150.952 72.4561C150.952 72.6201 150.977 72.7705 151.027 72.9072C151.082 73.0394 151.178 73.1624 151.314 73.2764C151.456 73.3903 151.656 73.4974 151.916 73.5977C152.176 73.6979 152.513 73.7959 152.928 73.8916C153.525 74.0238 154.012 74.1855 154.391 74.377C154.773 74.5638 155.056 74.7962 155.238 75.0742C155.421 75.3477 155.512 75.6803 155.512 76.0723C155.512 76.3776 155.448 76.6579 155.32 76.9131C155.193 77.1637 155.008 77.3802 154.767 77.5625C154.53 77.7448 154.243 77.8861 153.905 77.9863C153.573 78.0866 153.199 78.1367 152.784 78.1367C152.16 78.1367 151.631 78.0342 151.198 77.8291C150.77 77.6195 150.444 77.346 150.221 77.0088C150.002 76.667 149.893 76.3047 149.893 75.9219H150.706C150.733 76.3047 150.854 76.6077 151.068 76.8311C151.283 77.0498 151.545 77.2048 151.854 77.2959C152.169 77.387 152.479 77.4326 152.784 77.4326C153.203 77.4326 153.554 77.3711 153.837 77.248C154.119 77.125 154.334 76.9632 154.479 76.7627C154.625 76.5622 154.698 76.3457 154.698 76.1133ZM156.913 74.418V74.1924C156.913 73.6546 156.991 73.1579 157.146 72.7021C157.3 72.2464 157.521 71.8522 157.809 71.5195C158.1 71.1868 158.449 70.9294 158.854 70.7471C159.26 70.5602 159.711 70.4668 160.208 70.4668C160.709 70.4668 161.163 70.5602 161.568 70.7471C161.974 70.9294 162.323 71.1868 162.614 71.5195C162.906 71.8522 163.129 72.2464 163.284 72.7021C163.439 73.1579 163.517 73.6546 163.517 74.1924V74.418C163.517 74.9557 163.439 75.4525 163.284 75.9082C163.129 76.3594 162.906 76.7513 162.614 77.084C162.327 77.4167 161.981 77.6764 161.575 77.8633C161.17 78.0456 160.718 78.1367 160.222 78.1367C159.72 78.1367 159.267 78.0456 158.861 77.8633C158.456 77.6764 158.107 77.4167 157.815 77.084C157.524 76.7513 157.3 76.3594 157.146 75.9082C156.991 75.4525 156.913 74.9557 156.913 74.418ZM157.727 74.1924V74.418C157.727 74.8236 157.781 75.2087 157.891 75.5732C158 75.9333 158.16 76.2546 158.369 76.5371C158.579 76.8151 158.839 77.0339 159.148 77.1934C159.458 77.3529 159.816 77.4326 160.222 77.4326C160.623 77.4326 160.976 77.3529 161.281 77.1934C161.591 77.0339 161.851 76.8151 162.061 76.5371C162.27 76.2546 162.427 75.9333 162.532 75.5732C162.642 75.2087 162.696 74.8236 162.696 74.418V74.1924C162.696 73.7913 162.642 73.4108 162.532 73.0508C162.427 72.6908 162.268 72.3695 162.054 72.0869C161.844 71.8044 161.584 71.5811 161.274 71.417C160.965 71.2529 160.609 71.1709 160.208 71.1709C159.807 71.1709 159.451 71.2529 159.142 71.417C158.836 71.5811 158.576 71.8044 158.362 72.0869C158.153 72.3695 157.993 72.6908 157.884 73.0508C157.779 73.4108 157.727 73.7913 157.727 74.1924ZM166.121 70.6035V78H165.308V70.6035H166.121ZM165.164 68.4639C165.164 68.3089 165.212 68.179 165.308 68.0742C165.408 67.9648 165.545 67.9102 165.718 67.9102C165.891 67.9102 166.028 67.9648 166.128 68.0742C166.233 68.179 166.285 68.3089 166.285 68.4639C166.285 68.6143 166.233 68.7441 166.128 68.8535C166.028 68.9583 165.891 69.0107 165.718 69.0107C165.545 69.0107 165.408 68.9583 165.308 68.8535C165.212 68.7441 165.164 68.6143 165.164 68.4639ZM168.678 70.6035L170.674 73.5908L172.677 70.6035H173.647L171.139 74.2266L173.75 78H172.793L170.681 74.876L168.575 78H167.618L170.229 74.2266L167.721 70.6035H168.678ZM175.992 72.1826V78H175.179V70.6035H175.958L175.992 72.1826ZM175.808 73.8438L175.445 73.6387C175.473 73.2012 175.562 72.791 175.712 72.4082C175.862 72.0254 176.065 71.6882 176.32 71.3965C176.58 71.1048 176.883 70.877 177.229 70.7129C177.58 70.5488 177.968 70.4668 178.392 70.4668C178.761 70.4668 179.091 70.5169 179.383 70.6172C179.674 70.7174 179.923 70.877 180.128 71.0957C180.333 71.3145 180.488 71.5947 180.593 71.9365C180.702 72.2783 180.757 72.6953 180.757 73.1875V78H179.937V73.1807C179.937 72.6702 179.866 72.2715 179.725 71.9844C179.583 71.6927 179.383 71.4854 179.123 71.3623C178.863 71.2393 178.556 71.1777 178.2 71.1777C177.808 71.1777 177.464 71.2643 177.168 71.4375C176.876 71.6061 176.63 71.8271 176.43 72.1006C176.234 72.3695 176.083 72.6589 175.979 72.9688C175.874 73.2741 175.817 73.5658 175.808 73.8438ZM187.374 76.6738V72.8594C187.374 72.5085 187.301 72.2054 187.155 71.9502C187.009 71.695 186.795 71.499 186.513 71.3623C186.23 71.2256 185.882 71.1572 185.467 71.1572C185.084 71.1572 184.742 71.2256 184.441 71.3623C184.145 71.4945 183.91 71.6745 183.737 71.9023C183.569 72.1257 183.484 72.374 183.484 72.6475L182.664 72.6406C182.664 72.3626 182.732 72.0938 182.869 71.834C183.006 71.5742 183.2 71.3418 183.45 71.1367C183.701 70.9316 183.999 70.7699 184.346 70.6514C184.697 70.5283 185.082 70.4668 185.501 70.4668C186.03 70.4668 186.494 70.5557 186.896 70.7334C187.301 70.9111 187.618 71.1777 187.846 71.5332C188.074 71.8887 188.188 72.3353 188.188 72.873V76.4482C188.188 76.7035 188.206 76.9678 188.242 77.2412C188.283 77.5146 188.34 77.7402 188.413 77.918V78H187.545C187.49 77.8359 187.447 77.6309 187.415 77.3848C187.388 77.1341 187.374 76.8971 187.374 76.6738ZM187.565 73.6934L187.579 74.3223H185.973C185.553 74.3223 185.177 74.361 184.845 74.4385C184.517 74.5114 184.239 74.6208 184.011 74.7666C183.783 74.9079 183.607 75.0788 183.484 75.2793C183.366 75.4798 183.307 75.7077 183.307 75.9629C183.307 76.2272 183.373 76.4688 183.505 76.6875C183.642 76.9062 183.833 77.0817 184.079 77.2139C184.33 77.3415 184.626 77.4053 184.968 77.4053C185.424 77.4053 185.825 77.321 186.171 77.1523C186.522 76.9837 186.811 76.7627 187.039 76.4893C187.267 76.2158 187.42 75.9173 187.497 75.5938L187.853 76.0654C187.793 76.2933 187.684 76.528 187.524 76.7695C187.369 77.0065 187.167 77.2298 186.916 77.4395C186.665 77.6445 186.369 77.8132 186.027 77.9453C185.69 78.0729 185.307 78.1367 184.879 78.1367C184.396 78.1367 183.974 78.0456 183.614 77.8633C183.259 77.681 182.981 77.4326 182.78 77.1182C182.584 76.7992 182.486 76.4391 182.486 76.0381C182.486 75.6735 182.564 75.3477 182.719 75.0605C182.874 74.7689 183.097 74.5228 183.389 74.3223C183.685 74.1172 184.04 73.9622 184.455 73.8574C184.874 73.748 185.344 73.6934 185.863 73.6934H187.565ZM189.931 74.418V74.1924C189.931 73.6546 190.008 73.1579 190.163 72.7021C190.318 72.2464 190.539 71.8522 190.826 71.5195C191.118 71.1868 191.466 70.9294 191.872 70.7471C192.278 70.5602 192.729 70.4668 193.226 70.4668C193.727 70.4668 194.18 70.5602 194.586 70.7471C194.992 70.9294 195.34 71.1868 195.632 71.5195C195.924 71.8522 196.147 72.2464 196.302 72.7021C196.457 73.1579 196.534 73.6546 196.534 74.1924V74.418C196.534 74.9557 196.457 75.4525 196.302 75.9082C196.147 76.3594 195.924 76.7513 195.632 77.084C195.345 77.4167 194.998 77.6764 194.593 77.8633C194.187 78.0456 193.736 78.1367 193.239 78.1367C192.738 78.1367 192.285 78.0456 191.879 77.8633C191.473 77.6764 191.125 77.4167 190.833 77.084C190.541 76.7513 190.318 76.3594 190.163 75.9082C190.008 75.4525 189.931 74.9557 189.931 74.418ZM190.744 74.1924V74.418C190.744 74.8236 190.799 75.2087 190.908 75.5732C191.018 75.9333 191.177 76.2546 191.387 76.5371C191.596 76.8151 191.856 77.0339 192.166 77.1934C192.476 77.3529 192.834 77.4326 193.239 77.4326C193.64 77.4326 193.993 77.3529 194.299 77.1934C194.609 77.0339 194.868 76.8151 195.078 76.5371C195.288 76.2546 195.445 75.9333 195.55 75.5732C195.659 75.2087 195.714 74.8236 195.714 74.418V74.1924C195.714 73.7913 195.659 73.4108 195.55 73.0508C195.445 72.6908 195.285 72.3695 195.071 72.0869C194.862 71.8044 194.602 71.5811 194.292 71.417C193.982 71.2529 193.627 71.1709 193.226 71.1709C192.825 71.1709 192.469 71.2529 192.159 71.417C191.854 71.5811 191.594 71.8044 191.38 72.0869C191.17 72.3695 191.011 72.6908 190.901 73.0508C190.797 73.4108 190.744 73.7913 190.744 74.1924ZM199.139 70.6035V78H198.325V70.6035H199.139ZM198.182 68.4639C198.182 68.3089 198.229 68.179 198.325 68.0742C198.425 67.9648 198.562 67.9102 198.735 67.9102C198.909 67.9102 199.045 67.9648 199.146 68.0742C199.25 68.179 199.303 68.3089 199.303 68.4639C199.303 68.6143 199.25 68.7441 199.146 68.8535C199.045 68.9583 198.909 69.0107 198.735 69.0107C198.562 69.0107 198.425 68.9583 198.325 68.8535C198.229 68.7441 198.182 68.6143 198.182 68.4639ZM205.804 76.1133C205.804 75.9128 205.754 75.7145 205.653 75.5186C205.553 75.3226 205.359 75.1426 205.072 74.9785C204.79 74.8145 204.373 74.6755 203.821 74.5615C203.411 74.4704 203.044 74.3678 202.721 74.2539C202.402 74.14 202.133 74.0033 201.914 73.8438C201.695 73.6842 201.529 73.4928 201.415 73.2695C201.301 73.0462 201.244 72.7819 201.244 72.4766C201.244 72.2031 201.303 71.9456 201.422 71.7041C201.545 71.458 201.718 71.2438 201.941 71.0615C202.169 70.8747 202.443 70.7288 202.762 70.624C203.085 70.5192 203.448 70.4668 203.849 70.4668C204.418 70.4668 204.906 70.5648 205.312 70.7607C205.722 70.9521 206.034 71.2142 206.248 71.5469C206.467 71.8796 206.576 72.2555 206.576 72.6748H205.763C205.763 72.4196 205.688 72.1781 205.537 71.9502C205.391 71.7223 205.175 71.5355 204.888 71.3896C204.605 71.2438 204.259 71.1709 203.849 71.1709C203.425 71.1709 203.081 71.2347 202.816 71.3623C202.552 71.4899 202.358 71.6517 202.235 71.8477C202.117 72.0436 202.058 72.2464 202.058 72.4561C202.058 72.6201 202.083 72.7705 202.133 72.9072C202.188 73.0394 202.283 73.1624 202.42 73.2764C202.561 73.3903 202.762 73.4974 203.021 73.5977C203.281 73.6979 203.618 73.7959 204.033 73.8916C204.63 74.0238 205.118 74.1855 205.496 74.377C205.879 74.5638 206.161 74.7962 206.344 75.0742C206.526 75.3477 206.617 75.6803 206.617 76.0723C206.617 76.3776 206.553 76.6579 206.426 76.9131C206.298 77.1637 206.114 77.3802 205.872 77.5625C205.635 77.7448 205.348 77.8861 205.011 77.9863C204.678 78.0866 204.304 78.1367 203.89 78.1367C203.265 78.1367 202.737 78.0342 202.304 77.8291C201.875 77.6195 201.549 77.346 201.326 77.0088C201.107 76.667 200.998 76.3047 200.998 75.9219H201.812C201.839 76.3047 201.96 76.6077 202.174 76.8311C202.388 77.0498 202.65 77.2048 202.96 77.2959C203.274 77.387 203.584 77.4326 203.89 77.4326C204.309 77.4326 204.66 77.3711 204.942 77.248C205.225 77.125 205.439 76.9632 205.585 76.7627C205.731 76.5622 205.804 76.3457 205.804 76.1133ZM209.283 72.1826V78H208.47V70.6035H209.249L209.283 72.1826ZM209.099 73.8438L208.736 73.6387C208.764 73.2012 208.853 72.791 209.003 72.4082C209.153 72.0254 209.356 71.6882 209.611 71.3965C209.871 71.1048 210.174 70.877 210.521 70.7129C210.871 70.5488 211.259 70.4668 211.683 70.4668C212.052 70.4668 212.382 70.5169 212.674 70.6172C212.965 70.7174 213.214 70.877 213.419 71.0957C213.624 71.3145 213.779 71.5947 213.884 71.9365C213.993 72.2783 214.048 72.6953 214.048 73.1875V78H213.228V73.1807C213.228 72.6702 213.157 72.2715 213.016 71.9844C212.874 71.6927 212.674 71.4854 212.414 71.3623C212.154 71.2393 211.847 71.1777 211.491 71.1777C211.099 71.1777 210.755 71.2643 210.459 71.4375C210.167 71.6061 209.921 71.8271 209.721 72.1006C209.525 72.3695 209.374 72.6589 209.27 72.9688C209.165 73.2741 209.108 73.5658 209.099 73.8438ZM216.488 70.6035L218.484 73.5908L220.487 70.6035H221.458L218.949 74.2266L221.561 78H220.604L218.491 74.876L216.386 78H215.429L218.04 74.2266L215.531 70.6035H216.488ZM222.401 74.418V74.1924C222.401 73.6546 222.479 73.1579 222.634 72.7021C222.789 72.2464 223.01 71.8522 223.297 71.5195C223.589 71.1868 223.937 70.9294 224.343 70.7471C224.748 70.5602 225.2 70.4668 225.696 70.4668C226.198 70.4668 226.651 70.5602 227.057 70.7471C227.462 70.9294 227.811 71.1868 228.103 71.5195C228.394 71.8522 228.618 72.2464 228.772 72.7021C228.927 73.1579 229.005 73.6546 229.005 74.1924V74.418C229.005 74.9557 228.927 75.4525 228.772 75.9082C228.618 76.3594 228.394 76.7513 228.103 77.084C227.815 77.4167 227.469 77.6764 227.063 77.8633C226.658 78.0456 226.207 78.1367 225.71 78.1367C225.209 78.1367 224.755 78.0456 224.35 77.8633C223.944 77.6764 223.595 77.4167 223.304 77.084C223.012 76.7513 222.789 76.3594 222.634 75.9082C222.479 75.4525 222.401 74.9557 222.401 74.418ZM223.215 74.1924V74.418C223.215 74.8236 223.27 75.2087 223.379 75.5732C223.488 75.9333 223.648 76.2546 223.857 76.5371C224.067 76.8151 224.327 77.0339 224.637 77.1934C224.947 77.3529 225.304 77.4326 225.71 77.4326C226.111 77.4326 226.464 77.3529 226.77 77.1934C227.079 77.0339 227.339 76.8151 227.549 76.5371C227.758 76.2546 227.916 75.9333 228.021 75.5732C228.13 75.2087 228.185 74.8236 228.185 74.418V74.1924C228.185 73.7913 228.13 73.4108 228.021 73.0508C227.916 72.6908 227.756 72.3695 227.542 72.0869C227.332 71.8044 227.073 71.5811 226.763 71.417C226.453 71.2529 226.097 71.1709 225.696 71.1709C225.295 71.1709 224.94 71.2529 224.63 71.417C224.325 71.5811 224.065 71.8044 223.851 72.0869C223.641 72.3695 223.481 72.6908 223.372 73.0508C223.267 73.4108 223.215 73.7913 223.215 74.1924ZM231.609 70.6035V78H230.796V70.6035H231.609ZM230.652 68.4639C230.652 68.3089 230.7 68.179 230.796 68.0742C230.896 67.9648 231.033 67.9102 231.206 67.9102C231.379 67.9102 231.516 67.9648 231.616 68.0742C231.721 68.179 231.773 68.3089 231.773 68.4639C231.773 68.6143 231.721 68.7441 231.616 68.8535C231.516 68.9583 231.379 69.0107 231.206 69.0107C231.033 69.0107 230.896 68.9583 230.796 68.8535C230.7 68.7441 230.652 68.6143 230.652 68.4639ZM238.343 76.6738V72.8594C238.343 72.5085 238.27 72.2054 238.124 71.9502C237.978 71.695 237.764 71.499 237.481 71.3623C237.199 71.2256 236.85 71.1572 236.436 71.1572C236.053 71.1572 235.711 71.2256 235.41 71.3623C235.114 71.4945 234.879 71.6745 234.706 71.9023C234.537 72.1257 234.453 72.374 234.453 72.6475L233.633 72.6406C233.633 72.3626 233.701 72.0938 233.838 71.834C233.975 71.5742 234.168 71.3418 234.419 71.1367C234.67 70.9316 234.968 70.7699 235.314 70.6514C235.665 70.5283 236.05 70.4668 236.47 70.4668C236.998 70.4668 237.463 70.5557 237.864 70.7334C238.27 70.9111 238.587 71.1777 238.814 71.5332C239.042 71.8887 239.156 72.3353 239.156 72.873V76.4482C239.156 76.7035 239.174 76.9678 239.211 77.2412C239.252 77.5146 239.309 77.7402 239.382 77.918V78H238.514C238.459 77.8359 238.416 77.6309 238.384 77.3848C238.356 77.1341 238.343 76.8971 238.343 76.6738ZM238.534 73.6934L238.548 74.3223H236.941C236.522 74.3223 236.146 74.361 235.813 74.4385C235.485 74.5114 235.207 74.6208 234.979 74.7666C234.752 74.9079 234.576 75.0788 234.453 75.2793C234.335 75.4798 234.275 75.7077 234.275 75.9629C234.275 76.2272 234.341 76.4688 234.474 76.6875C234.61 76.9062 234.802 77.0817 235.048 77.2139C235.299 77.3415 235.595 77.4053 235.937 77.4053C236.392 77.4053 236.793 77.321 237.14 77.1523C237.491 76.9837 237.78 76.7627 238.008 76.4893C238.236 76.2158 238.388 75.9173 238.466 75.5938L238.821 76.0654C238.762 76.2933 238.653 76.528 238.493 76.7695C238.338 77.0065 238.135 77.2298 237.885 77.4395C237.634 77.6445 237.338 77.8132 236.996 77.9453C236.659 78.0729 236.276 78.1367 235.848 78.1367C235.365 78.1367 234.943 78.0456 234.583 77.8633C234.228 77.681 233.95 77.4326 233.749 77.1182C233.553 76.7992 233.455 76.4391 233.455 76.0381C233.455 75.6735 233.533 75.3477 233.688 75.0605C233.842 74.7689 234.066 74.5228 234.357 74.3223C234.654 74.1172 235.009 73.9622 235.424 73.8574C235.843 73.748 236.312 73.6934 236.832 73.6934H238.534ZM242.164 72.1826V78H241.351V70.6035H242.13L242.164 72.1826ZM241.979 73.8438L241.617 73.6387C241.645 73.2012 241.733 72.791 241.884 72.4082C242.034 72.0254 242.237 71.6882 242.492 71.3965C242.752 71.1048 243.055 70.877 243.401 70.7129C243.752 70.5488 244.14 70.4668 244.563 70.4668C244.933 70.4668 245.263 70.5169 245.555 70.6172C245.846 70.7174 246.095 70.877 246.3 71.0957C246.505 71.3145 246.66 71.5947 246.765 71.9365C246.874 72.2783 246.929 72.6953 246.929 73.1875V78H246.108V73.1807C246.108 72.6702 246.038 72.2715 245.896 71.9844C245.755 71.6927 245.555 71.4854 245.295 71.3623C245.035 71.2393 244.728 71.1777 244.372 71.1777C243.98 71.1777 243.636 71.2643 243.34 71.4375C243.048 71.6061 242.802 71.8271 242.602 72.1006C242.406 72.3695 242.255 72.6589 242.15 72.9688C242.046 73.2741 241.989 73.5658 241.979 73.8438ZM249.369 70.6035L251.365 73.5908L253.368 70.6035H254.339L251.83 74.2266L254.441 78H253.484L251.372 74.876L249.267 78H248.31L250.921 74.2266L248.412 70.6035H249.369ZM255.282 74.418V74.1924C255.282 73.6546 255.36 73.1579 255.515 72.7021C255.67 72.2464 255.891 71.8522 256.178 71.5195C256.469 71.1868 256.818 70.9294 257.224 70.7471C257.629 70.5602 258.08 70.4668 258.577 70.4668C259.078 70.4668 259.532 70.5602 259.938 70.7471C260.343 70.9294 260.692 71.1868 260.983 71.5195C261.275 71.8522 261.498 72.2464 261.653 72.7021C261.808 73.1579 261.886 73.6546 261.886 74.1924V74.418C261.886 74.9557 261.808 75.4525 261.653 75.9082C261.498 76.3594 261.275 76.7513 260.983 77.084C260.696 77.4167 260.35 77.6764 259.944 77.8633C259.539 78.0456 259.088 78.1367 258.591 78.1367C258.09 78.1367 257.636 78.0456 257.23 77.8633C256.825 77.6764 256.476 77.4167 256.185 77.084C255.893 76.7513 255.67 76.3594 255.515 75.9082C255.36 75.4525 255.282 74.9557 255.282 74.418ZM256.096 74.1924V74.418C256.096 74.8236 256.15 75.2087 256.26 75.5732C256.369 75.9333 256.529 76.2546 256.738 76.5371C256.948 76.8151 257.208 77.0339 257.518 77.1934C257.827 77.3529 258.185 77.4326 258.591 77.4326C258.992 77.4326 259.345 77.3529 259.65 77.1934C259.96 77.0339 260.22 76.8151 260.43 76.5371C260.639 76.2546 260.797 75.9333 260.901 75.5732C261.011 75.2087 261.065 74.8236 261.065 74.418V74.1924C261.065 73.7913 261.011 73.4108 260.901 73.0508C260.797 72.6908 260.637 72.3695 260.423 72.0869C260.213 71.8044 259.953 71.5811 259.644 71.417C259.334 71.2529 258.978 71.1709 258.577 71.1709C258.176 71.1709 257.821 71.2529 257.511 71.417C257.205 71.5811 256.946 71.8044 256.731 72.0869C256.522 72.3695 256.362 72.6908 256.253 73.0508C256.148 73.4108 256.096 73.7913 256.096 74.1924ZM264.49 70.6035V78H263.677V70.6035H264.49ZM263.533 68.4639C263.533 68.3089 263.581 68.179 263.677 68.0742C263.777 67.9648 263.914 67.9102 264.087 67.9102C264.26 67.9102 264.397 67.9648 264.497 68.0742C264.602 68.179 264.654 68.3089 264.654 68.4639C264.654 68.6143 264.602 68.7441 264.497 68.8535C264.397 68.9583 264.26 69.0107 264.087 69.0107C263.914 69.0107 263.777 68.9583 263.677 68.8535C263.581 68.7441 263.533 68.6143 263.533 68.4639ZM271.224 76.6738V72.8594C271.224 72.5085 271.151 72.2054 271.005 71.9502C270.859 71.695 270.645 71.499 270.362 71.3623C270.08 71.2256 269.731 71.1572 269.316 71.1572C268.934 71.1572 268.592 71.2256 268.291 71.3623C267.995 71.4945 267.76 71.6745 267.587 71.9023C267.418 72.1257 267.334 72.374 267.334 72.6475L266.514 72.6406C266.514 72.3626 266.582 72.0938 266.719 71.834C266.855 71.5742 267.049 71.3418 267.3 71.1367C267.55 70.9316 267.849 70.7699 268.195 70.6514C268.546 70.5283 268.931 70.4668 269.351 70.4668C269.879 70.4668 270.344 70.5557 270.745 70.7334C271.151 70.9111 271.467 71.1777 271.695 71.5332C271.923 71.8887 272.037 72.3353 272.037 72.873V76.4482C272.037 76.7035 272.055 76.9678 272.092 77.2412C272.133 77.5146 272.19 77.7402 272.263 77.918V78H271.395C271.34 77.8359 271.297 77.6309 271.265 77.3848C271.237 77.1341 271.224 76.8971 271.224 76.6738ZM271.415 73.6934L271.429 74.3223H269.822C269.403 74.3223 269.027 74.361 268.694 74.4385C268.366 74.5114 268.088 74.6208 267.86 74.7666C267.632 74.9079 267.457 75.0788 267.334 75.2793C267.215 75.4798 267.156 75.7077 267.156 75.9629C267.156 76.2272 267.222 76.4688 267.354 76.6875C267.491 76.9062 267.683 77.0817 267.929 77.2139C268.179 77.3415 268.476 77.4053 268.817 77.4053C269.273 77.4053 269.674 77.321 270.021 77.1523C270.371 76.9837 270.661 76.7627 270.889 76.4893C271.117 76.2158 271.269 75.9173 271.347 75.5938L271.702 76.0654C271.643 76.2933 271.534 76.528 271.374 76.7695C271.219 77.0065 271.016 77.2298 270.766 77.4395C270.515 77.6445 270.219 77.8132 269.877 77.9453C269.54 78.0729 269.157 78.1367 268.729 78.1367C268.245 78.1367 267.824 78.0456 267.464 77.8633C267.108 77.681 266.83 77.4326 266.63 77.1182C266.434 76.7992 266.336 76.4391 266.336 76.0381C266.336 75.6735 266.413 75.3477 266.568 75.0605C266.723 74.7689 266.947 74.5228 267.238 74.3223C267.535 74.1172 267.89 73.9622 268.305 73.8574C268.724 73.748 269.193 73.6934 269.713 73.6934H271.415ZM278.661 76.1133C278.661 75.9128 278.611 75.7145 278.511 75.5186C278.41 75.3226 278.217 75.1426 277.93 74.9785C277.647 74.8145 277.23 74.6755 276.679 74.5615C276.269 74.4704 275.902 74.3678 275.578 74.2539C275.259 74.14 274.99 74.0033 274.771 73.8438C274.553 73.6842 274.386 73.4928 274.272 73.2695C274.159 73.0462 274.102 72.7819 274.102 72.4766C274.102 72.2031 274.161 71.9456 274.279 71.7041C274.402 71.458 274.576 71.2438 274.799 71.0615C275.027 70.8747 275.3 70.7288 275.619 70.624C275.943 70.5192 276.305 70.4668 276.706 70.4668C277.276 70.4668 277.763 70.5648 278.169 70.7607C278.579 70.9521 278.891 71.2142 279.105 71.5469C279.324 71.8796 279.434 72.2555 279.434 72.6748H278.62C278.62 72.4196 278.545 72.1781 278.395 71.9502C278.249 71.7223 278.032 71.5355 277.745 71.3896C277.463 71.2438 277.116 71.1709 276.706 71.1709C276.282 71.1709 275.938 71.2347 275.674 71.3623C275.41 71.4899 275.216 71.6517 275.093 71.8477C274.974 72.0436 274.915 72.2464 274.915 72.4561C274.915 72.6201 274.94 72.7705 274.99 72.9072C275.045 73.0394 275.141 73.1624 275.277 73.2764C275.419 73.3903 275.619 73.4974 275.879 73.5977C276.139 73.6979 276.476 73.7959 276.891 73.8916C277.488 74.0238 277.975 74.1855 278.354 74.377C278.736 74.5638 279.019 74.7962 279.201 75.0742C279.383 75.3477 279.475 75.6803 279.475 76.0723C279.475 76.3776 279.411 76.6579 279.283 76.9131C279.156 77.1637 278.971 77.3802 278.729 77.5625C278.493 77.7448 278.205 77.8861 277.868 77.9863C277.535 78.0866 277.162 78.1367 276.747 78.1367C276.123 78.1367 275.594 78.0342 275.161 77.8291C274.733 77.6195 274.407 77.346 274.184 77.0088C273.965 76.667 273.855 76.3047 273.855 75.9219H274.669C274.696 76.3047 274.817 76.6077 275.031 76.8311C275.245 77.0498 275.507 77.2048 275.817 77.2959C276.132 77.387 276.442 77.4326 276.747 77.4326C277.166 77.4326 277.517 77.3711 277.8 77.248C278.082 77.125 278.297 76.9632 278.442 76.7627C278.588 76.5622 278.661 76.3457 278.661 76.1133ZM282.141 72.1826V78H281.327V70.6035H282.106L282.141 72.1826ZM281.956 73.8438L281.594 73.6387C281.621 73.2012 281.71 72.791 281.86 72.4082C282.011 72.0254 282.214 71.6882 282.469 71.3965C282.729 71.1048 283.032 70.877 283.378 70.7129C283.729 70.5488 284.116 70.4668 284.54 70.4668C284.909 70.4668 285.24 70.5169 285.531 70.6172C285.823 70.7174 286.071 70.877 286.276 71.0957C286.481 71.3145 286.636 71.5947 286.741 71.9365C286.851 72.2783 286.905 72.6953 286.905 73.1875V78H286.085V73.1807C286.085 72.6702 286.014 72.2715 285.873 71.9844C285.732 71.6927 285.531 71.4854 285.271 71.3623C285.012 71.2393 284.704 71.1777 284.349 71.1777C283.957 71.1777 283.613 71.2643 283.316 71.4375C283.025 71.6061 282.779 71.8271 282.578 72.1006C282.382 72.3695 282.232 72.6589 282.127 72.9688C282.022 73.2741 281.965 73.5658 281.956 73.8438ZM124.395 86.6035L126.391 89.5908L128.394 86.6035H129.364L126.855 90.2266L129.467 94H128.51L126.397 90.876L124.292 94H123.335L125.946 90.2266L123.438 86.6035H124.395ZM130.308 90.418V90.1924C130.308 89.6546 130.385 89.1579 130.54 88.7021C130.695 88.2464 130.916 87.8522 131.203 87.5195C131.495 87.1868 131.843 86.9294 132.249 86.7471C132.655 86.5602 133.106 86.4668 133.603 86.4668C134.104 86.4668 134.557 86.5602 134.963 86.7471C135.368 86.9294 135.717 87.1868 136.009 87.5195C136.3 87.8522 136.524 88.2464 136.679 88.7021C136.834 89.1579 136.911 89.6546 136.911 90.1924V90.418C136.911 90.9557 136.834 91.4525 136.679 91.9082C136.524 92.3594 136.3 92.7513 136.009 93.084C135.722 93.4167 135.375 93.6764 134.97 93.8633C134.564 94.0456 134.113 94.1367 133.616 94.1367C133.115 94.1367 132.661 94.0456 132.256 93.8633C131.85 93.6764 131.502 93.4167 131.21 93.084C130.918 92.7513 130.695 92.3594 130.54 91.9082C130.385 91.4525 130.308 90.9557 130.308 90.418ZM131.121 90.1924V90.418C131.121 90.8236 131.176 91.2087 131.285 91.5732C131.395 91.9333 131.554 92.2546 131.764 92.5371C131.973 92.8151 132.233 93.0339 132.543 93.1934C132.853 93.3529 133.211 93.4326 133.616 93.4326C134.017 93.4326 134.37 93.3529 134.676 93.1934C134.986 93.0339 135.245 92.8151 135.455 92.5371C135.665 92.2546 135.822 91.9333 135.927 91.5732C136.036 91.2087 136.091 90.8236 136.091 90.418V90.1924C136.091 89.7913 136.036 89.4108 135.927 89.0508C135.822 88.6908 135.662 88.3695 135.448 88.0869C135.239 87.8044 134.979 87.5811 134.669 87.417C134.359 87.2529 134.004 87.1709 133.603 87.1709C133.201 87.1709 132.846 87.2529 132.536 87.417C132.231 87.5811 131.971 87.8044 131.757 88.0869C131.547 88.3695 131.388 88.6908 131.278 89.0508C131.174 89.4108 131.121 89.7913 131.121 90.1924ZM139.516 86.6035V94H138.702V86.6035H139.516ZM138.559 84.4639C138.559 84.3089 138.606 84.179 138.702 84.0742C138.802 83.9648 138.939 83.9102 139.112 83.9102C139.285 83.9102 139.422 83.9648 139.522 84.0742C139.627 84.179 139.68 84.3089 139.68 84.4639C139.68 84.6143 139.627 84.7441 139.522 84.8535C139.422 84.9583 139.285 85.0107 139.112 85.0107C138.939 85.0107 138.802 84.9583 138.702 84.8535C138.606 84.7441 138.559 84.6143 138.559 84.4639ZM146.249 92.6738V88.8594C146.249 88.5085 146.176 88.2054 146.03 87.9502C145.884 87.695 145.67 87.499 145.388 87.3623C145.105 87.2256 144.757 87.1572 144.342 87.1572C143.959 87.1572 143.617 87.2256 143.316 87.3623C143.02 87.4945 142.785 87.6745 142.612 87.9023C142.444 88.1257 142.359 88.374 142.359 88.6475L141.539 88.6406C141.539 88.3626 141.607 88.0938 141.744 87.834C141.881 87.5742 142.075 87.3418 142.325 87.1367C142.576 86.9316 142.874 86.7699 143.221 86.6514C143.572 86.5283 143.957 86.4668 144.376 86.4668C144.905 86.4668 145.369 86.5557 145.771 86.7334C146.176 86.9111 146.493 87.1777 146.721 87.5332C146.949 87.8887 147.062 88.3353 147.062 88.873V92.4482C147.062 92.7035 147.081 92.9678 147.117 93.2412C147.158 93.5146 147.215 93.7402 147.288 93.918V94H146.42C146.365 93.8359 146.322 93.6309 146.29 93.3848C146.263 93.1341 146.249 92.8971 146.249 92.6738ZM146.44 89.6934L146.454 90.3223H144.848C144.428 90.3223 144.052 90.361 143.72 90.4385C143.392 90.5114 143.114 90.6208 142.886 90.7666C142.658 90.9079 142.482 91.0788 142.359 91.2793C142.241 91.4798 142.182 91.7077 142.182 91.9629C142.182 92.2272 142.248 92.4688 142.38 92.6875C142.517 92.9062 142.708 93.0817 142.954 93.2139C143.205 93.3415 143.501 93.4053 143.843 93.4053C144.299 93.4053 144.7 93.321 145.046 93.1523C145.397 92.9837 145.686 92.7627 145.914 92.4893C146.142 92.2158 146.295 91.9173 146.372 91.5938L146.728 92.0654C146.668 92.2933 146.559 92.528 146.399 92.7695C146.244 93.0065 146.042 93.2298 145.791 93.4395C145.54 93.6445 145.244 93.8132 144.902 93.9453C144.565 94.0729 144.182 94.1367 143.754 94.1367C143.271 94.1367 142.849 94.0456 142.489 93.8633C142.134 93.681 141.856 93.4326 141.655 93.1182C141.459 92.7992 141.361 92.4391 141.361 92.0381C141.361 91.6735 141.439 91.3477 141.594 91.0605C141.749 90.7689 141.972 90.5228 142.264 90.3223C142.56 90.1172 142.915 89.9622 143.33 89.8574C143.749 89.748 144.219 89.6934 144.738 89.6934H146.44ZM149.578 86.6035L151.574 89.5908L153.577 86.6035H154.548L152.039 90.2266L154.65 94H153.693L151.581 90.876L149.476 94H148.519L151.13 90.2266L148.621 86.6035H149.578ZM156.893 88.1826V94H156.079V86.6035H156.858L156.893 88.1826ZM156.708 89.8438L156.346 89.6387C156.373 89.2012 156.462 88.791 156.612 88.4082C156.763 88.0254 156.965 87.6882 157.221 87.3965C157.48 87.1048 157.784 86.877 158.13 86.7129C158.481 86.5488 158.868 86.4668 159.292 86.4668C159.661 86.4668 159.992 86.5169 160.283 86.6172C160.575 86.7174 160.823 86.877 161.028 87.0957C161.233 87.3145 161.388 87.5947 161.493 87.9365C161.603 88.2783 161.657 88.6953 161.657 89.1875V94H160.837V89.1807C160.837 88.6702 160.766 88.2715 160.625 87.9844C160.484 87.6927 160.283 87.4854 160.023 87.3623C159.764 87.2393 159.456 87.1777 159.101 87.1777C158.709 87.1777 158.365 87.2643 158.068 87.4375C157.777 87.6061 157.531 87.8271 157.33 88.1006C157.134 88.3695 156.984 88.6589 156.879 88.9688C156.774 89.2741 156.717 89.5658 156.708 89.8438ZM163.325 90.418V90.1924C163.325 89.6546 163.403 89.1579 163.558 88.7021C163.713 88.2464 163.934 87.8522 164.221 87.5195C164.512 87.1868 164.861 86.9294 165.267 86.7471C165.672 86.5602 166.123 86.4668 166.62 86.4668C167.121 86.4668 167.575 86.5602 167.98 86.7471C168.386 86.9294 168.735 87.1868 169.026 87.5195C169.318 87.8522 169.541 88.2464 169.696 88.7021C169.851 89.1579 169.929 89.6546 169.929 90.1924V90.418C169.929 90.9557 169.851 91.4525 169.696 91.9082C169.541 92.3594 169.318 92.7513 169.026 93.084C168.739 93.4167 168.393 93.6764 167.987 93.8633C167.582 94.0456 167.131 94.1367 166.634 94.1367C166.132 94.1367 165.679 94.0456 165.273 93.8633C164.868 93.6764 164.519 93.4167 164.228 93.084C163.936 92.7513 163.713 92.3594 163.558 91.9082C163.403 91.4525 163.325 90.9557 163.325 90.418ZM164.139 90.1924V90.418C164.139 90.8236 164.193 91.2087 164.303 91.5732C164.412 91.9333 164.572 92.2546 164.781 92.5371C164.991 92.8151 165.251 93.0339 165.561 93.1934C165.87 93.3529 166.228 93.4326 166.634 93.4326C167.035 93.4326 167.388 93.3529 167.693 93.1934C168.003 93.0339 168.263 92.8151 168.473 92.5371C168.682 92.2546 168.84 91.9333 168.944 91.5732C169.054 91.2087 169.108 90.8236 169.108 90.418V90.1924C169.108 89.7913 169.054 89.4108 168.944 89.0508C168.84 88.6908 168.68 88.3695 168.466 88.0869C168.256 87.8044 167.996 87.5811 167.687 87.417C167.377 87.2529 167.021 87.1709 166.62 87.1709C166.219 87.1709 165.864 87.2529 165.554 87.417C165.248 87.5811 164.989 87.8044 164.774 88.0869C164.565 88.3695 164.405 88.6908 164.296 89.0508C164.191 89.4108 164.139 89.7913 164.139 90.1924ZM172.533 86.6035V94H171.72V86.6035H172.533ZM171.576 84.4639C171.576 84.3089 171.624 84.179 171.72 84.0742C171.82 83.9648 171.957 83.9102 172.13 83.9102C172.303 83.9102 172.44 83.9648 172.54 84.0742C172.645 84.179 172.697 84.3089 172.697 84.4639C172.697 84.6143 172.645 84.7441 172.54 84.8535C172.44 84.9583 172.303 85.0107 172.13 85.0107C171.957 85.0107 171.82 84.9583 171.72 84.8535C171.624 84.7441 171.576 84.6143 171.576 84.4639ZM179.267 92.6738V88.8594C179.267 88.5085 179.194 88.2054 179.048 87.9502C178.902 87.695 178.688 87.499 178.405 87.3623C178.123 87.2256 177.774 87.1572 177.359 87.1572C176.977 87.1572 176.635 87.2256 176.334 87.3623C176.038 87.4945 175.803 87.6745 175.63 87.9023C175.461 88.1257 175.377 88.374 175.377 88.6475L174.557 88.6406C174.557 88.3626 174.625 88.0938 174.762 87.834C174.898 87.5742 175.092 87.3418 175.343 87.1367C175.593 86.9316 175.892 86.7699 176.238 86.6514C176.589 86.5283 176.974 86.4668 177.394 86.4668C177.922 86.4668 178.387 86.5557 178.788 86.7334C179.194 86.9111 179.51 87.1777 179.738 87.5332C179.966 87.8887 180.08 88.3353 180.08 88.873V92.4482C180.08 92.7035 180.098 92.9678 180.135 93.2412C180.176 93.5146 180.233 93.7402 180.306 93.918V94H179.438C179.383 93.8359 179.34 93.6309 179.308 93.3848C179.28 93.1341 179.267 92.8971 179.267 92.6738ZM179.458 89.6934L179.472 90.3223H177.865C177.446 90.3223 177.07 90.361 176.737 90.4385C176.409 90.5114 176.131 90.6208 175.903 90.7666C175.675 90.9079 175.5 91.0788 175.377 91.2793C175.258 91.4798 175.199 91.7077 175.199 91.9629C175.199 92.2272 175.265 92.4688 175.397 92.6875C175.534 92.9062 175.726 93.0817 175.972 93.2139C176.222 93.3415 176.519 93.4053 176.86 93.4053C177.316 93.4053 177.717 93.321 178.063 93.1523C178.414 92.9837 178.704 92.7627 178.932 92.4893C179.16 92.2158 179.312 91.9173 179.39 91.5938L179.745 92.0654C179.686 92.2933 179.576 92.528 179.417 92.7695C179.262 93.0065 179.059 93.2298 178.809 93.4395C178.558 93.6445 178.262 93.8132 177.92 93.9453C177.583 94.0729 177.2 94.1367 176.771 94.1367C176.288 94.1367 175.867 94.0456 175.507 93.8633C175.151 93.681 174.873 93.4326 174.673 93.1182C174.477 92.7992 174.379 92.4391 174.379 92.0381C174.379 91.6735 174.456 91.3477 174.611 91.0605C174.766 90.7689 174.99 90.5228 175.281 90.3223C175.577 90.1172 175.933 89.9622 176.348 89.8574C176.767 89.748 177.236 89.6934 177.756 89.6934H179.458ZM186.704 92.1133C186.704 91.9128 186.654 91.7145 186.554 91.5186C186.453 91.3226 186.26 91.1426 185.973 90.9785C185.69 90.8145 185.273 90.6755 184.722 90.5615C184.312 90.4704 183.945 90.3678 183.621 90.2539C183.302 90.14 183.033 90.0033 182.814 89.8438C182.596 89.6842 182.429 89.4928 182.315 89.2695C182.201 89.0462 182.145 88.7819 182.145 88.4766C182.145 88.2031 182.204 87.9456 182.322 87.7041C182.445 87.458 182.618 87.2438 182.842 87.0615C183.07 86.8747 183.343 86.7288 183.662 86.624C183.986 86.5192 184.348 86.4668 184.749 86.4668C185.319 86.4668 185.806 86.5648 186.212 86.7607C186.622 86.9521 186.934 87.2142 187.148 87.5469C187.367 87.8796 187.477 88.2555 187.477 88.6748H186.663C186.663 88.4196 186.588 88.1781 186.438 87.9502C186.292 87.7223 186.075 87.5355 185.788 87.3896C185.506 87.2438 185.159 87.1709 184.749 87.1709C184.325 87.1709 183.981 87.2347 183.717 87.3623C183.452 87.4899 183.259 87.6517 183.136 87.8477C183.017 88.0436 182.958 88.2464 182.958 88.4561C182.958 88.6201 182.983 88.7705 183.033 88.9072C183.088 89.0394 183.184 89.1624 183.32 89.2764C183.462 89.3903 183.662 89.4974 183.922 89.5977C184.182 89.6979 184.519 89.7959 184.934 89.8916C185.531 90.0238 186.018 90.1855 186.396 90.377C186.779 90.5638 187.062 90.7962 187.244 91.0742C187.426 91.3477 187.518 91.6803 187.518 92.0723C187.518 92.3776 187.454 92.6579 187.326 92.9131C187.199 93.1637 187.014 93.3802 186.772 93.5625C186.535 93.7448 186.248 93.8861 185.911 93.9863C185.578 94.0866 185.205 94.1367 184.79 94.1367C184.166 94.1367 183.637 94.0342 183.204 93.8291C182.776 93.6195 182.45 93.346 182.227 93.0088C182.008 92.667 181.898 92.3047 181.898 91.9219H182.712C182.739 92.3047 182.86 92.6077 183.074 92.8311C183.288 93.0498 183.55 93.2048 183.86 93.2959C184.175 93.387 184.485 93.4326 184.79 93.4326C185.209 93.4326 185.56 93.3711 185.843 93.248C186.125 93.125 186.34 92.9632 186.485 92.7627C186.631 92.5622 186.704 92.3457 186.704 92.1133ZM190.184 88.1826V94H189.37V86.6035H190.149L190.184 88.1826ZM189.999 89.8438L189.637 89.6387C189.664 89.2012 189.753 88.791 189.903 88.4082C190.054 88.0254 190.257 87.6882 190.512 87.3965C190.771 87.1048 191.075 86.877 191.421 86.7129C191.772 86.5488 192.159 86.4668 192.583 86.4668C192.952 86.4668 193.283 86.5169 193.574 86.6172C193.866 86.7174 194.114 86.877 194.319 87.0957C194.524 87.3145 194.679 87.5947 194.784 87.9365C194.894 88.2783 194.948 88.6953 194.948 89.1875V94H194.128V89.1807C194.128 88.6702 194.057 88.2715 193.916 87.9844C193.775 87.6927 193.574 87.4854 193.314 87.3623C193.055 87.2393 192.747 87.1777 192.392 87.1777C192 87.1777 191.656 87.2643 191.359 87.4375C191.068 87.6061 190.822 87.8271 190.621 88.1006C190.425 88.3695 190.275 88.6589 190.17 88.9688C190.065 89.2741 190.008 89.5658 189.999 89.8438ZM197.389 86.6035L199.385 89.5908L201.388 86.6035H202.358L199.85 90.2266L202.461 94H201.504L199.392 90.876L197.286 94H196.329L198.94 90.2266L196.432 86.6035H197.389ZM208.388 92.6738V88.8594C208.388 88.5085 208.315 88.2054 208.169 87.9502C208.023 87.695 207.809 87.499 207.526 87.3623C207.244 87.2256 206.895 87.1572 206.48 87.1572C206.098 87.1572 205.756 87.2256 205.455 87.3623C205.159 87.4945 204.924 87.6745 204.751 87.9023C204.582 88.1257 204.498 88.374 204.498 88.6475L203.678 88.6406C203.678 88.3626 203.746 88.0938 203.883 87.834C204.02 87.5742 204.213 87.3418 204.464 87.1367C204.715 86.9316 205.013 86.7699 205.359 86.6514C205.71 86.5283 206.095 86.4668 206.515 86.4668C207.043 86.4668 207.508 86.5557 207.909 86.7334C208.315 86.9111 208.632 87.1777 208.859 87.5332C209.087 87.8887 209.201 88.3353 209.201 88.873V92.4482C209.201 92.7035 209.219 92.9678 209.256 93.2412C209.297 93.5146 209.354 93.7402 209.427 93.918V94H208.559C208.504 93.8359 208.461 93.6309 208.429 93.3848C208.401 93.1341 208.388 92.8971 208.388 92.6738ZM208.579 89.6934L208.593 90.3223H206.986C206.567 90.3223 206.191 90.361 205.858 90.4385C205.53 90.5114 205.252 90.6208 205.024 90.7666C204.797 90.9079 204.621 91.0788 204.498 91.2793C204.38 91.4798 204.32 91.7077 204.32 91.9629C204.32 92.2272 204.386 92.4688 204.519 92.6875C204.655 92.9062 204.847 93.0817 205.093 93.2139C205.343 93.3415 205.64 93.4053 205.981 93.4053C206.437 93.4053 206.838 93.321 207.185 93.1523C207.535 92.9837 207.825 92.7627 208.053 92.4893C208.281 92.2158 208.433 91.9173 208.511 91.5938L208.866 92.0654C208.807 92.2933 208.698 92.528 208.538 92.7695C208.383 93.0065 208.18 93.2298 207.93 93.4395C207.679 93.6445 207.383 93.8132 207.041 93.9453C206.704 94.0729 206.321 94.1367 205.893 94.1367C205.41 94.1367 204.988 94.0456 204.628 93.8633C204.272 93.681 203.994 93.4326 203.794 93.1182C203.598 92.7992 203.5 92.4391 203.5 92.0381C203.5 91.6735 203.577 91.3477 203.732 91.0605C203.887 90.7689 204.111 90.5228 204.402 90.3223C204.699 90.1172 205.054 89.9622 205.469 89.8574C205.888 89.748 206.357 89.6934 206.877 89.6934H208.579Z" fill="#222121"/>
<path d="M103 53.5126L90.6548 48.9244C89.6024 44.2551 86.9714 41.5753 86.9714 41.5753C85.3965 39.9923 83.5259 38.7365 81.4666 37.8796C79.4072 37.0227 77.1997 36.5817 74.9702 36.5817C72.7408 36.5817 70.5332 37.0227 68.4739 37.8796C66.4146 38.7365 64.5439 39.9923 62.969 41.5753L56.9786 47.5845L30.1429 19C26.0952 35.2412 30.1429 51.4824 40.0595 64.5566L18 85.995C18 85.995 53.9833 94.1156 74.95 77.6714C86.1214 68.9011 88.631 63.7851 90.2095 58.3849L103 53.5126ZM81.5881 54.4058C80.0095 55.9894 77.419 55.9894 75.8405 54.4058C75.4652 54.0302 75.1676 53.584 74.9644 53.0928C74.7613 52.6016 74.6568 52.0751 74.6568 51.5433C74.6568 51.0116 74.7613 50.485 74.9644 49.9938C75.1676 49.5026 75.4652 49.0564 75.8405 48.6808C77.419 47.0973 80.0095 47.0973 81.5881 48.6808C83.1667 50.2643 83.1667 52.8223 81.5881 54.4058Z" fill="#2A6D4C"/>
</svg>
