<svg width="346" height="120" viewBox="0 0 346 120" fill="none" xmlns="http://www.w3.org/2000/svg">
<rect width="346" height="120" rx="20" fill="#2A6D4C"/>
<path d="M133.109 32.2109H128.867V29.0352H133.109C133.688 29.0352 134.156 28.9375 134.516 28.7422C134.875 28.5469 135.137 28.2773 135.301 27.9336C135.473 27.582 135.559 27.1875 135.559 26.75C135.559 26.2812 135.473 25.8477 135.301 25.4492C135.137 25.0508 134.875 24.7305 134.516 24.4883C134.156 24.2383 133.688 24.1133 133.109 24.1133H130.414V38H126.301V20.9375H133.109C134.477 20.9375 135.652 21.1875 136.637 21.6875C137.629 22.1875 138.391 22.875 138.922 23.75C139.453 24.6172 139.719 25.6094 139.719 26.7266C139.719 27.8281 139.453 28.7891 138.922 29.6094C138.391 30.4297 137.629 31.0703 136.637 31.5312C135.652 31.9844 134.477 32.2109 133.109 32.2109ZM148.191 34.8125V29.5859C148.191 29.2266 148.141 28.918 148.039 28.6602C147.938 28.4023 147.777 28.2031 147.559 28.0625C147.34 27.9141 147.047 27.8398 146.68 27.8398C146.383 27.8398 146.129 27.8906 145.918 27.9922C145.707 28.0938 145.547 28.2461 145.438 28.4492C145.328 28.6523 145.273 28.9102 145.273 29.2227H141.324C141.324 28.6367 141.453 28.0938 141.711 27.5938C141.977 27.0859 142.352 26.6445 142.836 26.2695C143.328 25.8945 143.914 25.6055 144.594 25.4023C145.281 25.1914 146.047 25.0859 146.891 25.0859C147.898 25.0859 148.797 25.2539 149.586 25.5898C150.383 25.9258 151.012 26.4297 151.473 27.1016C151.934 27.7656 152.164 28.6016 152.164 29.6094V34.8008C152.164 35.6289 152.211 36.2578 152.305 36.6875C152.398 37.1094 152.531 37.4805 152.703 37.8008V38H148.742C148.555 37.6094 148.414 37.1328 148.32 36.5703C148.234 36 148.191 35.4141 148.191 34.8125ZM148.672 30.2539L148.695 32.3633H146.949C146.582 32.3633 146.27 32.4141 146.012 32.5156C145.762 32.6172 145.559 32.7578 145.402 32.9375C145.254 33.1094 145.145 33.3047 145.074 33.5234C145.012 33.7422 144.98 33.9727 144.98 34.2148C144.98 34.4492 145.035 34.6602 145.145 34.8477C145.262 35.0273 145.418 35.168 145.613 35.2695C145.809 35.3711 146.027 35.4219 146.27 35.4219C146.707 35.4219 147.078 35.3398 147.383 35.1758C147.695 35.0039 147.934 34.7969 148.098 34.5547C148.262 34.3125 148.344 34.0859 148.344 33.875L149.211 35.4922C149.055 35.8047 148.875 36.1211 148.672 36.4414C148.477 36.7617 148.23 37.0586 147.934 37.332C147.645 37.5977 147.289 37.8164 146.867 37.9883C146.445 38.1523 145.934 38.2344 145.332 38.2344C144.551 38.2344 143.832 38.0742 143.176 37.7539C142.527 37.4336 142.008 36.9883 141.617 36.418C141.227 35.8398 141.031 35.1758 141.031 34.4258C141.031 33.7695 141.148 33.1836 141.383 32.668C141.625 32.1523 141.988 31.7148 142.473 31.3555C142.957 30.9961 143.574 30.7227 144.324 30.5352C145.074 30.3477 145.957 30.2539 146.973 30.2539H148.672ZM162.324 25.3203H165.91V37.5078C165.91 38.6797 165.641 39.6719 165.102 40.4844C164.562 41.3047 163.809 41.9258 162.84 42.3477C161.879 42.7773 160.754 42.9922 159.465 42.9922C158.895 42.9922 158.312 42.918 157.719 42.7695C157.125 42.6289 156.57 42.418 156.055 42.1367C155.539 41.8555 155.105 41.5078 154.754 41.0938L156.406 38.7734C156.727 39.1328 157.129 39.4375 157.613 39.6875C158.098 39.9453 158.668 40.0742 159.324 40.0742C159.895 40.0742 160.371 39.9727 160.754 39.7695C161.145 39.5664 161.441 39.2695 161.645 38.8789C161.848 38.4961 161.949 38.0312 161.949 37.4844V28.3203L162.324 25.3203ZM153.898 31.8125V31.5664C153.898 30.6055 154.016 29.7305 154.25 28.9414C154.492 28.1445 154.836 27.4609 155.281 26.8906C155.734 26.3125 156.281 25.8672 156.922 25.5547C157.562 25.2422 158.285 25.0859 159.09 25.0859C159.957 25.0859 160.668 25.2539 161.223 25.5898C161.785 25.918 162.234 26.3789 162.57 26.9727C162.914 27.5664 163.18 28.2617 163.367 29.0586C163.562 29.8477 163.727 30.6992 163.859 31.6133V31.9062C163.727 32.7656 163.543 33.5781 163.309 34.3438C163.082 35.1016 162.785 35.7734 162.418 36.3594C162.051 36.9453 161.59 37.4062 161.035 37.7422C160.488 38.0703 159.832 38.2344 159.066 38.2344C158.27 38.2344 157.551 38.0742 156.91 37.7539C156.277 37.4336 155.734 36.9844 155.281 36.4062C154.836 35.8281 154.492 35.1484 154.25 34.3672C154.016 33.5859 153.898 32.7344 153.898 31.8125ZM157.848 31.5664V31.8125C157.848 32.2891 157.891 32.7305 157.977 33.1367C158.07 33.543 158.211 33.9023 158.398 34.2148C158.586 34.5195 158.816 34.7578 159.09 34.9297C159.371 35.1016 159.699 35.1875 160.074 35.1875C160.645 35.1875 161.105 35.0664 161.457 34.8242C161.809 34.582 162.062 34.2383 162.219 33.793C162.375 33.3477 162.441 32.8242 162.418 32.2227V31.2969C162.434 30.7812 162.398 30.3281 162.312 29.9375C162.227 29.5391 162.09 29.207 161.902 28.9414C161.723 28.6758 161.48 28.4766 161.176 28.3438C160.879 28.2031 160.52 28.1328 160.098 28.1328C159.73 28.1328 159.406 28.2188 159.125 28.3906C158.844 28.5625 158.609 28.8047 158.422 29.1172C158.234 29.4219 158.09 29.7852 157.988 30.207C157.895 30.6211 157.848 31.0742 157.848 31.5664ZM174.77 34.8125V29.5859C174.77 29.2266 174.719 28.918 174.617 28.6602C174.516 28.4023 174.355 28.2031 174.137 28.0625C173.918 27.9141 173.625 27.8398 173.258 27.8398C172.961 27.8398 172.707 27.8906 172.496 27.9922C172.285 28.0938 172.125 28.2461 172.016 28.4492C171.906 28.6523 171.852 28.9102 171.852 29.2227H167.902C167.902 28.6367 168.031 28.0938 168.289 27.5938C168.555 27.0859 168.93 26.6445 169.414 26.2695C169.906 25.8945 170.492 25.6055 171.172 25.4023C171.859 25.1914 172.625 25.0859 173.469 25.0859C174.477 25.0859 175.375 25.2539 176.164 25.5898C176.961 25.9258 177.59 26.4297 178.051 27.1016C178.512 27.7656 178.742 28.6016 178.742 29.6094V34.8008C178.742 35.6289 178.789 36.2578 178.883 36.6875C178.977 37.1094 179.109 37.4805 179.281 37.8008V38H175.32C175.133 37.6094 174.992 37.1328 174.898 36.5703C174.812 36 174.77 35.4141 174.77 34.8125ZM175.25 30.2539L175.273 32.3633H173.527C173.16 32.3633 172.848 32.4141 172.59 32.5156C172.34 32.6172 172.137 32.7578 171.98 32.9375C171.832 33.1094 171.723 33.3047 171.652 33.5234C171.59 33.7422 171.559 33.9727 171.559 34.2148C171.559 34.4492 171.613 34.6602 171.723 34.8477C171.84 35.0273 171.996 35.168 172.191 35.2695C172.387 35.3711 172.605 35.4219 172.848 35.4219C173.285 35.4219 173.656 35.3398 173.961 35.1758C174.273 35.0039 174.512 34.7969 174.676 34.5547C174.84 34.3125 174.922 34.0859 174.922 33.875L175.789 35.4922C175.633 35.8047 175.453 36.1211 175.25 36.4414C175.055 36.7617 174.809 37.0586 174.512 37.332C174.223 37.5977 173.867 37.8164 173.445 37.9883C173.023 38.1523 172.512 38.2344 171.91 38.2344C171.129 38.2344 170.41 38.0742 169.754 37.7539C169.105 37.4336 168.586 36.9883 168.195 36.418C167.805 35.8398 167.609 35.1758 167.609 34.4258C167.609 33.7695 167.727 33.1836 167.961 32.668C168.203 32.1523 168.566 31.7148 169.051 31.3555C169.535 30.9961 170.152 30.7227 170.902 30.5352C171.652 30.3477 172.535 30.2539 173.551 30.2539H175.25ZM171.535 23.6797L173.855 20H178.027L174.758 23.6797H171.535ZM193.59 25.3203V28.0625H185.949V25.3203H193.59ZM187.555 22.168H191.504V33.8633C191.504 34.1992 191.543 34.4609 191.621 34.6484C191.699 34.8281 191.832 34.957 192.02 35.0352C192.215 35.1055 192.473 35.1406 192.793 35.1406C193.02 35.1406 193.207 35.1367 193.355 35.1289C193.504 35.1133 193.645 35.0938 193.777 35.0703V37.8945C193.441 38.0039 193.09 38.0859 192.723 38.1406C192.355 38.2031 191.965 38.2344 191.551 38.2344C190.707 38.2344 189.984 38.1016 189.383 37.8359C188.789 37.5703 188.336 37.1523 188.023 36.582C187.711 36.0117 187.555 35.2695 187.555 34.3555V22.168ZM202.566 34.918V25.3203H206.527V38H202.824L202.566 34.918ZM202.941 32.3398L203.973 32.3164C203.973 33.168 203.871 33.957 203.668 34.6836C203.465 35.4023 203.164 36.0273 202.766 36.5586C202.375 37.0898 201.891 37.5039 201.312 37.8008C200.742 38.0898 200.082 38.2344 199.332 38.2344C198.707 38.2344 198.133 38.1484 197.609 37.9766C197.094 37.7969 196.648 37.5195 196.273 37.1445C195.898 36.7617 195.605 36.2734 195.395 35.6797C195.191 35.0781 195.09 34.3594 195.09 33.5234V25.3203H199.039V33.5469C199.039 33.8281 199.074 34.0703 199.145 34.2734C199.215 34.4766 199.316 34.6484 199.449 34.7891C199.582 34.9219 199.746 35.0234 199.941 35.0938C200.145 35.1562 200.375 35.1875 200.633 35.1875C201.227 35.1875 201.691 35.0625 202.027 34.8125C202.363 34.5625 202.598 34.2227 202.73 33.793C202.871 33.3633 202.941 32.8789 202.941 32.3398ZM215.352 34.4375C215.352 34.2188 215.277 34.0312 215.129 33.875C214.988 33.7109 214.738 33.5625 214.379 33.4297C214.02 33.2891 213.516 33.1484 212.867 33.0078C212.25 32.875 211.668 32.6992 211.121 32.4805C210.582 32.2617 210.109 31.9961 209.703 31.6836C209.297 31.3711 208.977 31 208.742 30.5703C208.516 30.1406 208.402 29.6484 208.402 29.0938C208.402 28.5547 208.516 28.0469 208.742 27.5703C208.977 27.0859 209.316 26.6602 209.762 26.293C210.215 25.918 210.766 25.625 211.414 25.4141C212.062 25.1953 212.801 25.0859 213.629 25.0859C214.77 25.0859 215.754 25.2617 216.582 25.6133C217.41 25.957 218.047 26.4414 218.492 27.0664C218.945 27.6836 219.172 28.3984 219.172 29.2109H215.223C215.223 28.8906 215.168 28.6172 215.059 28.3906C214.957 28.1641 214.789 27.9922 214.555 27.875C214.32 27.75 214.008 27.6875 213.617 27.6875C213.344 27.6875 213.094 27.7383 212.867 27.8398C212.648 27.9414 212.473 28.082 212.34 28.2617C212.207 28.4414 212.141 28.6523 212.141 28.8945C212.141 29.0664 212.18 29.2227 212.258 29.3633C212.344 29.4961 212.473 29.6211 212.645 29.7383C212.816 29.8477 213.035 29.9492 213.301 30.043C213.566 30.1289 213.887 30.207 214.262 30.2773C215.113 30.4336 215.91 30.6562 216.652 30.9453C217.395 31.2344 217.996 31.6445 218.457 32.1758C218.926 32.707 219.16 33.4219 219.16 34.3203C219.16 34.8828 219.031 35.4023 218.773 35.8789C218.516 36.3477 218.145 36.7617 217.66 37.1211C217.176 37.4727 216.594 37.7461 215.914 37.9414C215.234 38.1367 214.469 38.2344 213.617 38.2344C212.406 38.2344 211.383 38.0195 210.547 37.5898C209.711 37.1523 209.078 36.6055 208.648 35.9492C208.227 35.2852 208.016 34.6133 208.016 33.9336H211.695C211.711 34.3242 211.805 34.6445 211.977 34.8945C212.156 35.1445 212.395 35.3281 212.691 35.4453C212.988 35.5625 213.332 35.6211 213.723 35.6211C214.082 35.6211 214.379 35.5703 214.613 35.4688C214.855 35.3672 215.039 35.2305 215.164 35.0586C215.289 34.8789 215.352 34.6719 215.352 34.4375ZM234.734 20.9375V38H230.621V20.9375H234.734ZM239.867 20.9375V24.1133H225.605V20.9375H239.867ZM246.02 34.8125V29.5859C246.02 29.2266 245.969 28.918 245.867 28.6602C245.766 28.4023 245.605 28.2031 245.387 28.0625C245.168 27.9141 244.875 27.8398 244.508 27.8398C244.211 27.8398 243.957 27.8906 243.746 27.9922C243.535 28.0938 243.375 28.2461 243.266 28.4492C243.156 28.6523 243.102 28.9102 243.102 29.2227H239.152C239.152 28.6367 239.281 28.0938 239.539 27.5938C239.805 27.0859 240.18 26.6445 240.664 26.2695C241.156 25.8945 241.742 25.6055 242.422 25.4023C243.109 25.1914 243.875 25.0859 244.719 25.0859C245.727 25.0859 246.625 25.2539 247.414 25.5898C248.211 25.9258 248.84 26.4297 249.301 27.1016C249.762 27.7656 249.992 28.6016 249.992 29.6094V34.8008C249.992 35.6289 250.039 36.2578 250.133 36.6875C250.227 37.1094 250.359 37.4805 250.531 37.8008V38H246.57C246.383 37.6094 246.242 37.1328 246.148 36.5703C246.062 36 246.02 35.4141 246.02 34.8125ZM246.5 30.2539L246.523 32.3633H244.777C244.41 32.3633 244.098 32.4141 243.84 32.5156C243.59 32.6172 243.387 32.7578 243.23 32.9375C243.082 33.1094 242.973 33.3047 242.902 33.5234C242.84 33.7422 242.809 33.9727 242.809 34.2148C242.809 34.4492 242.863 34.6602 242.973 34.8477C243.09 35.0273 243.246 35.168 243.441 35.2695C243.637 35.3711 243.855 35.4219 244.098 35.4219C244.535 35.4219 244.906 35.3398 245.211 35.1758C245.523 35.0039 245.762 34.7969 245.926 34.5547C246.09 34.3125 246.172 34.0859 246.172 33.875L247.039 35.4922C246.883 35.8047 246.703 36.1211 246.5 36.4414C246.305 36.7617 246.059 37.0586 245.762 37.332C245.473 37.5977 245.117 37.8164 244.695 37.9883C244.273 38.1523 243.762 38.2344 243.16 38.2344C242.379 38.2344 241.66 38.0742 241.004 37.7539C240.355 37.4336 239.836 36.9883 239.445 36.418C239.055 35.8398 238.859 35.1758 238.859 34.4258C238.859 33.7695 238.977 33.1836 239.211 32.668C239.453 32.1523 239.816 31.7148 240.301 31.3555C240.785 30.9961 241.402 30.7227 242.152 30.5352C242.902 30.3477 243.785 30.2539 244.801 30.2539H246.5ZM258.828 34.4375C258.828 34.2188 258.754 34.0312 258.605 33.875C258.465 33.7109 258.215 33.5625 257.855 33.4297C257.496 33.2891 256.992 33.1484 256.344 33.0078C255.727 32.875 255.145 32.6992 254.598 32.4805C254.059 32.2617 253.586 31.9961 253.18 31.6836C252.773 31.3711 252.453 31 252.219 30.5703C251.992 30.1406 251.879 29.6484 251.879 29.0938C251.879 28.5547 251.992 28.0469 252.219 27.5703C252.453 27.0859 252.793 26.6602 253.238 26.293C253.691 25.918 254.242 25.625 254.891 25.4141C255.539 25.1953 256.277 25.0859 257.105 25.0859C258.246 25.0859 259.23 25.2617 260.059 25.6133C260.887 25.957 261.523 26.4414 261.969 27.0664C262.422 27.6836 262.648 28.3984 262.648 29.2109H258.699C258.699 28.8906 258.645 28.6172 258.535 28.3906C258.434 28.1641 258.266 27.9922 258.031 27.875C257.797 27.75 257.484 27.6875 257.094 27.6875C256.82 27.6875 256.57 27.7383 256.344 27.8398C256.125 27.9414 255.949 28.082 255.816 28.2617C255.684 28.4414 255.617 28.6523 255.617 28.8945C255.617 29.0664 255.656 29.2227 255.734 29.3633C255.82 29.4961 255.949 29.6211 256.121 29.7383C256.293 29.8477 256.512 29.9492 256.777 30.043C257.043 30.1289 257.363 30.207 257.738 30.2773C258.59 30.4336 259.387 30.6562 260.129 30.9453C260.871 31.2344 261.473 31.6445 261.934 32.1758C262.402 32.707 262.637 33.4219 262.637 34.3203C262.637 34.8828 262.508 35.4023 262.25 35.8789C261.992 36.3477 261.621 36.7617 261.137 37.1211C260.652 37.4727 260.07 37.7461 259.391 37.9414C258.711 38.1367 257.945 38.2344 257.094 38.2344C255.883 38.2344 254.859 38.0195 254.023 37.5898C253.188 37.1523 252.555 36.6055 252.125 35.9492C251.703 35.2852 251.492 34.6133 251.492 33.9336H255.172C255.188 34.3242 255.281 34.6445 255.453 34.8945C255.633 35.1445 255.871 35.3281 256.168 35.4453C256.465 35.5625 256.809 35.6211 257.199 35.6211C257.559 35.6211 257.855 35.5703 258.09 35.4688C258.332 35.3672 258.516 35.2305 258.641 35.0586C258.766 34.8789 258.828 34.6719 258.828 34.4375ZM271.074 34.8125V29.5859C271.074 29.2266 271.023 28.918 270.922 28.6602C270.82 28.4023 270.66 28.2031 270.441 28.0625C270.223 27.9141 269.93 27.8398 269.562 27.8398C269.266 27.8398 269.012 27.8906 268.801 27.9922C268.59 28.0938 268.43 28.2461 268.32 28.4492C268.211 28.6523 268.156 28.9102 268.156 29.2227H264.207C264.207 28.6367 264.336 28.0938 264.594 27.5938C264.859 27.0859 265.234 26.6445 265.719 26.2695C266.211 25.8945 266.797 25.6055 267.477 25.4023C268.164 25.1914 268.93 25.0859 269.773 25.0859C270.781 25.0859 271.68 25.2539 272.469 25.5898C273.266 25.9258 273.895 26.4297 274.355 27.1016C274.816 27.7656 275.047 28.6016 275.047 29.6094V34.8008C275.047 35.6289 275.094 36.2578 275.188 36.6875C275.281 37.1094 275.414 37.4805 275.586 37.8008V38H271.625C271.438 37.6094 271.297 37.1328 271.203 36.5703C271.117 36 271.074 35.4141 271.074 34.8125ZM271.555 30.2539L271.578 32.3633H269.832C269.465 32.3633 269.152 32.4141 268.895 32.5156C268.645 32.6172 268.441 32.7578 268.285 32.9375C268.137 33.1094 268.027 33.3047 267.957 33.5234C267.895 33.7422 267.863 33.9727 267.863 34.2148C267.863 34.4492 267.918 34.6602 268.027 34.8477C268.145 35.0273 268.301 35.168 268.496 35.2695C268.691 35.3711 268.91 35.4219 269.152 35.4219C269.59 35.4219 269.961 35.3398 270.266 35.1758C270.578 35.0039 270.816 34.7969 270.98 34.5547C271.145 34.3125 271.227 34.0859 271.227 33.875L272.094 35.4922C271.938 35.8047 271.758 36.1211 271.555 36.4414C271.359 36.7617 271.113 37.0586 270.816 37.332C270.527 37.5977 270.172 37.8164 269.75 37.9883C269.328 38.1523 268.816 38.2344 268.215 38.2344C267.434 38.2344 266.715 38.0742 266.059 37.7539C265.41 37.4336 264.891 36.9883 264.5 36.418C264.109 35.8398 263.914 35.1758 263.914 34.4258C263.914 33.7695 264.031 33.1836 264.266 32.668C264.508 32.1523 264.871 31.7148 265.355 31.3555C265.84 30.9961 266.457 30.7227 267.207 30.5352C267.957 30.3477 268.84 30.2539 269.855 30.2539H271.555ZM283.883 34.4375C283.883 34.2188 283.809 34.0312 283.66 33.875C283.52 33.7109 283.27 33.5625 282.91 33.4297C282.551 33.2891 282.047 33.1484 281.398 33.0078C280.781 32.875 280.199 32.6992 279.652 32.4805C279.113 32.2617 278.641 31.9961 278.234 31.6836C277.828 31.3711 277.508 31 277.273 30.5703C277.047 30.1406 276.934 29.6484 276.934 29.0938C276.934 28.5547 277.047 28.0469 277.273 27.5703C277.508 27.0859 277.848 26.6602 278.293 26.293C278.746 25.918 279.297 25.625 279.945 25.4141C280.594 25.1953 281.332 25.0859 282.16 25.0859C283.301 25.0859 284.285 25.2617 285.113 25.6133C285.941 25.957 286.578 26.4414 287.023 27.0664C287.477 27.6836 287.703 28.3984 287.703 29.2109H283.754C283.754 28.8906 283.699 28.6172 283.59 28.3906C283.488 28.1641 283.32 27.9922 283.086 27.875C282.852 27.75 282.539 27.6875 282.148 27.6875C281.875 27.6875 281.625 27.7383 281.398 27.8398C281.18 27.9414 281.004 28.082 280.871 28.2617C280.738 28.4414 280.672 28.6523 280.672 28.8945C280.672 29.0664 280.711 29.2227 280.789 29.3633C280.875 29.4961 281.004 29.6211 281.176 29.7383C281.348 29.8477 281.566 29.9492 281.832 30.043C282.098 30.1289 282.418 30.207 282.793 30.2773C283.645 30.4336 284.441 30.6562 285.184 30.9453C285.926 31.2344 286.527 31.6445 286.988 32.1758C287.457 32.707 287.691 33.4219 287.691 34.3203C287.691 34.8828 287.562 35.4023 287.305 35.8789C287.047 36.3477 286.676 36.7617 286.191 37.1211C285.707 37.4727 285.125 37.7461 284.445 37.9414C283.766 38.1367 283 38.2344 282.148 38.2344C280.938 38.2344 279.914 38.0195 279.078 37.5898C278.242 37.1523 277.609 36.6055 277.18 35.9492C276.758 35.2852 276.547 34.6133 276.547 33.9336H280.227C280.242 34.3242 280.336 34.6445 280.508 34.8945C280.688 35.1445 280.926 35.3281 281.223 35.4453C281.52 35.5625 281.863 35.6211 282.254 35.6211C282.613 35.6211 282.91 35.5703 283.145 35.4688C283.387 35.3672 283.57 35.2305 283.695 35.0586C283.82 34.8789 283.883 34.6719 283.883 34.4375Z" fill="white"/>
<path d="M130.571 59.6738V55.8594C130.571 55.5085 130.498 55.2054 130.353 54.9502C130.207 54.695 129.993 54.499 129.71 54.3623C129.427 54.2256 129.079 54.1572 128.664 54.1572C128.281 54.1572 127.939 54.2256 127.639 54.3623C127.342 54.4945 127.108 54.6745 126.935 54.9023C126.766 55.1257 126.682 55.374 126.682 55.6475L125.861 55.6406C125.861 55.3626 125.93 55.0938 126.066 54.834C126.203 54.5742 126.397 54.3418 126.647 54.1367C126.898 53.9316 127.197 53.7699 127.543 53.6514C127.894 53.5283 128.279 53.4668 128.698 53.4668C129.227 53.4668 129.692 53.5557 130.093 53.7334C130.498 53.9111 130.815 54.1777 131.043 54.5332C131.271 54.8887 131.385 55.3353 131.385 55.873V59.4482C131.385 59.7035 131.403 59.9678 131.439 60.2412C131.48 60.5146 131.537 60.7402 131.61 60.918V61H130.742C130.688 60.8359 130.644 60.6309 130.612 60.3848C130.585 60.1341 130.571 59.8971 130.571 59.6738ZM130.763 56.6934L130.776 57.3223H129.17C128.751 57.3223 128.375 57.361 128.042 57.4385C127.714 57.5114 127.436 57.6208 127.208 57.7666C126.98 57.9079 126.805 58.0788 126.682 58.2793C126.563 58.4798 126.504 58.7077 126.504 58.9629C126.504 59.2272 126.57 59.4688 126.702 59.6875C126.839 59.9062 127.03 60.0817 127.276 60.2139C127.527 60.3415 127.823 60.4053 128.165 60.4053C128.621 60.4053 129.022 60.321 129.368 60.1523C129.719 59.9837 130.008 59.7627 130.236 59.4893C130.464 59.2158 130.617 58.9173 130.694 58.5938L131.05 59.0654C130.991 59.2933 130.881 59.528 130.722 59.7695C130.567 60.0065 130.364 60.2298 130.113 60.4395C129.863 60.6445 129.566 60.8132 129.225 60.9453C128.887 61.0729 128.505 61.1367 128.076 61.1367C127.593 61.1367 127.172 61.0456 126.812 60.8633C126.456 60.681 126.178 60.4326 125.978 60.1182C125.782 59.7992 125.684 59.4391 125.684 59.0381C125.684 58.6735 125.761 58.3477 125.916 58.0605C126.071 57.7689 126.294 57.5228 126.586 57.3223C126.882 57.1172 127.238 56.9622 127.652 56.8574C128.072 56.748 128.541 56.6934 129.061 56.6934H130.763ZM133.565 50.5H134.386V59.5645L134.331 61H133.565V50.5ZM139.533 57.2334V57.377C139.533 57.9284 139.469 58.4342 139.342 58.8945C139.214 59.3548 139.03 59.7536 138.788 60.0908C138.547 60.4235 138.25 60.681 137.899 60.8633C137.553 61.0456 137.154 61.1367 136.703 61.1367C136.261 61.1367 135.869 61.0684 135.527 60.9316C135.186 60.7904 134.894 60.5921 134.652 60.3369C134.411 60.0771 134.217 59.7741 134.071 59.4277C133.925 59.0768 133.823 58.6917 133.764 58.2725V56.4473C133.832 56.0007 133.941 55.5951 134.092 55.2305C134.242 54.8659 134.436 54.5514 134.673 54.2871C134.914 54.0228 135.201 53.82 135.534 53.6787C135.871 53.5374 136.257 53.4668 136.689 53.4668C137.141 53.4668 137.542 53.5557 137.893 53.7334C138.248 53.9066 138.547 54.1595 138.788 54.4922C139.03 54.8203 139.214 55.2168 139.342 55.6816C139.469 56.1419 139.533 56.6592 139.533 57.2334ZM138.706 57.377V57.2334C138.706 56.8005 138.665 56.3994 138.583 56.0303C138.501 55.6611 138.371 55.3398 138.193 55.0664C138.02 54.7884 137.797 54.5719 137.523 54.417C137.25 54.262 136.922 54.1846 136.539 54.1846C136.147 54.1846 135.812 54.2507 135.534 54.3828C135.261 54.5104 135.033 54.6813 134.851 54.8955C134.673 55.1051 134.532 55.3353 134.427 55.5859C134.322 55.8366 134.244 56.0827 134.194 56.3242V58.4502C134.272 58.792 134.406 59.1133 134.598 59.4141C134.789 59.7148 135.047 59.9587 135.37 60.1455C135.694 60.3278 136.088 60.4189 136.553 60.4189C136.926 60.4189 137.248 60.3415 137.517 60.1865C137.79 60.0316 138.013 59.8174 138.187 59.5439C138.364 59.2705 138.494 58.9492 138.576 58.5801C138.663 58.2109 138.706 57.8099 138.706 57.377ZM146.15 59.5645V50.5H146.971V61H146.205L146.15 59.5645ZM141.017 57.377V57.2334C141.017 56.6592 141.083 56.1419 141.215 55.6816C141.347 55.2168 141.536 54.8203 141.782 54.4922C142.033 54.1595 142.334 53.9066 142.685 53.7334C143.035 53.5557 143.432 53.4668 143.874 53.4668C144.307 53.4668 144.69 53.5374 145.022 53.6787C145.355 53.82 145.64 54.0228 145.877 54.2871C146.118 54.5514 146.312 54.8659 146.458 55.2305C146.608 55.5951 146.718 56.0007 146.786 56.4473V58.2725C146.731 58.6917 146.631 59.0768 146.485 59.4277C146.34 59.7741 146.146 60.0771 145.904 60.3369C145.663 60.5921 145.371 60.7904 145.029 60.9316C144.692 61.0684 144.302 61.1367 143.86 61.1367C143.423 61.1367 143.029 61.0456 142.678 60.8633C142.327 60.681 142.028 60.4235 141.782 60.0908C141.536 59.7536 141.347 59.3548 141.215 58.8945C141.083 58.4342 141.017 57.9284 141.017 57.377ZM141.837 57.2334V57.377C141.837 57.8099 141.88 58.2109 141.967 58.5801C142.053 58.9492 142.186 59.2705 142.363 59.5439C142.541 59.8174 142.767 60.0316 143.04 60.1865C143.313 60.3415 143.637 60.4189 144.011 60.4189C144.48 60.4189 144.874 60.3301 145.193 60.1523C145.512 59.9701 145.768 59.7308 145.959 59.4346C146.15 59.1338 146.289 58.8057 146.376 58.4502V56.3242C146.321 56.0827 146.242 55.8366 146.137 55.5859C146.032 55.3353 145.888 55.1051 145.706 54.8955C145.528 54.6813 145.3 54.5104 145.022 54.3828C144.749 54.2507 144.416 54.1846 144.024 54.1846C143.646 54.1846 143.32 54.262 143.047 54.417C142.773 54.5719 142.546 54.7884 142.363 55.0664C142.186 55.3398 142.053 55.6611 141.967 56.0303C141.88 56.3994 141.837 56.8005 141.837 57.2334ZM150.525 61H149.712V52.6875C149.712 52.1816 149.799 51.7555 149.972 51.4092C150.149 51.0628 150.4 50.8008 150.724 50.623C151.052 50.4453 151.441 50.3564 151.893 50.3564C152.034 50.3564 152.18 50.3656 152.33 50.3838C152.48 50.3975 152.626 50.4271 152.768 50.4727L152.706 51.1631C152.592 51.1312 152.476 51.1107 152.357 51.1016C152.243 51.0879 152.109 51.0811 151.954 51.0811C151.658 51.0811 151.403 51.1449 151.188 51.2725C150.974 51.3955 150.81 51.5755 150.696 51.8125C150.582 52.0495 150.525 52.3411 150.525 52.6875V61ZM152.289 53.6035V54.2734H148.488V53.6035H152.289ZM153.308 57.418V57.1924C153.308 56.6546 153.385 56.1579 153.54 55.7021C153.695 55.2464 153.916 54.8522 154.203 54.5195C154.495 54.1868 154.843 53.9294 155.249 53.7471C155.655 53.5602 156.106 53.4668 156.603 53.4668C157.104 53.4668 157.557 53.5602 157.963 53.7471C158.368 53.9294 158.717 54.1868 159.009 54.5195C159.3 54.8522 159.524 55.2464 159.679 55.7021C159.834 56.1579 159.911 56.6546 159.911 57.1924V57.418C159.911 57.9557 159.834 58.4525 159.679 58.9082C159.524 59.3594 159.3 59.7513 159.009 60.084C158.722 60.4167 158.375 60.6764 157.97 60.8633C157.564 61.0456 157.113 61.1367 156.616 61.1367C156.115 61.1367 155.661 61.0456 155.256 60.8633C154.85 60.6764 154.502 60.4167 154.21 60.084C153.918 59.7513 153.695 59.3594 153.54 58.9082C153.385 58.4525 153.308 57.9557 153.308 57.418ZM154.121 57.1924V57.418C154.121 57.8236 154.176 58.2087 154.285 58.5732C154.395 58.9333 154.554 59.2546 154.764 59.5371C154.973 59.8151 155.233 60.0339 155.543 60.1934C155.853 60.3529 156.211 60.4326 156.616 60.4326C157.017 60.4326 157.37 60.3529 157.676 60.1934C157.986 60.0339 158.245 59.8151 158.455 59.5371C158.665 59.2546 158.822 58.9333 158.927 58.5732C159.036 58.2087 159.091 57.8236 159.091 57.418V57.1924C159.091 56.7913 159.036 56.4108 158.927 56.0508C158.822 55.6908 158.662 55.3695 158.448 55.0869C158.239 54.8044 157.979 54.5811 157.669 54.417C157.359 54.2529 157.004 54.1709 156.603 54.1709C156.201 54.1709 155.846 54.2529 155.536 54.417C155.231 54.5811 154.971 54.8044 154.757 55.0869C154.547 55.3695 154.388 55.6908 154.278 56.0508C154.174 56.4108 154.121 56.7913 154.121 57.1924ZM162.516 53.6035V61H161.702V53.6035H162.516ZM161.559 51.4639C161.559 51.3089 161.606 51.179 161.702 51.0742C161.802 50.9648 161.939 50.9102 162.112 50.9102C162.285 50.9102 162.422 50.9648 162.522 51.0742C162.627 51.179 162.68 51.3089 162.68 51.4639C162.68 51.6143 162.627 51.7441 162.522 51.8535C162.422 51.9583 162.285 52.0107 162.112 52.0107C161.939 52.0107 161.802 51.9583 161.702 51.8535C161.606 51.7441 161.559 51.6143 161.559 51.4639ZM169.249 59.6738V55.8594C169.249 55.5085 169.176 55.2054 169.03 54.9502C168.884 54.695 168.67 54.499 168.388 54.3623C168.105 54.2256 167.757 54.1572 167.342 54.1572C166.959 54.1572 166.617 54.2256 166.316 54.3623C166.02 54.4945 165.785 54.6745 165.612 54.9023C165.444 55.1257 165.359 55.374 165.359 55.6475L164.539 55.6406C164.539 55.3626 164.607 55.0938 164.744 54.834C164.881 54.5742 165.075 54.3418 165.325 54.1367C165.576 53.9316 165.874 53.7699 166.221 53.6514C166.572 53.5283 166.957 53.4668 167.376 53.4668C167.905 53.4668 168.369 53.5557 168.771 53.7334C169.176 53.9111 169.493 54.1777 169.721 54.5332C169.949 54.8887 170.062 55.3353 170.062 55.873V59.4482C170.062 59.7035 170.081 59.9678 170.117 60.2412C170.158 60.5146 170.215 60.7402 170.288 60.918V61H169.42C169.365 60.8359 169.322 60.6309 169.29 60.3848C169.263 60.1341 169.249 59.8971 169.249 59.6738ZM169.44 56.6934L169.454 57.3223H167.848C167.428 57.3223 167.052 57.361 166.72 57.4385C166.392 57.5114 166.114 57.6208 165.886 57.7666C165.658 57.9079 165.482 58.0788 165.359 58.2793C165.241 58.4798 165.182 58.7077 165.182 58.9629C165.182 59.2272 165.248 59.4688 165.38 59.6875C165.517 59.9062 165.708 60.0817 165.954 60.2139C166.205 60.3415 166.501 60.4053 166.843 60.4053C167.299 60.4053 167.7 60.321 168.046 60.1523C168.397 59.9837 168.686 59.7627 168.914 59.4893C169.142 59.2158 169.295 58.9173 169.372 58.5938L169.728 59.0654C169.668 59.2933 169.559 59.528 169.399 59.7695C169.244 60.0065 169.042 60.2298 168.791 60.4395C168.54 60.6445 168.244 60.8132 167.902 60.9453C167.565 61.0729 167.182 61.1367 166.754 61.1367C166.271 61.1367 165.849 61.0456 165.489 60.8633C165.134 60.681 164.856 60.4326 164.655 60.1182C164.459 59.7992 164.361 59.4391 164.361 59.0381C164.361 58.6735 164.439 58.3477 164.594 58.0605C164.749 57.7689 164.972 57.5228 165.264 57.3223C165.56 57.1172 165.915 56.9622 166.33 56.8574C166.749 56.748 167.219 56.6934 167.738 56.6934H169.44ZM172.243 50.5H173.063V59.5645L173.009 61H172.243V50.5ZM178.211 57.2334V57.377C178.211 57.9284 178.147 58.4342 178.02 58.8945C177.892 59.3548 177.707 59.7536 177.466 60.0908C177.224 60.4235 176.928 60.681 176.577 60.8633C176.231 61.0456 175.832 61.1367 175.381 61.1367C174.939 61.1367 174.547 61.0684 174.205 60.9316C173.863 60.7904 173.572 60.5921 173.33 60.3369C173.089 60.0771 172.895 59.7741 172.749 59.4277C172.603 59.0768 172.501 58.6917 172.441 58.2725V56.4473C172.51 56.0007 172.619 55.5951 172.77 55.2305C172.92 54.8659 173.114 54.5514 173.351 54.2871C173.592 54.0228 173.879 53.82 174.212 53.6787C174.549 53.5374 174.934 53.4668 175.367 53.4668C175.818 53.4668 176.219 53.5557 176.57 53.7334C176.926 53.9066 177.224 54.1595 177.466 54.4922C177.707 54.8203 177.892 55.2168 178.02 55.6816C178.147 56.1419 178.211 56.6592 178.211 57.2334ZM177.384 57.377V57.2334C177.384 56.8005 177.343 56.3994 177.261 56.0303C177.179 55.6611 177.049 55.3398 176.871 55.0664C176.698 54.7884 176.475 54.5719 176.201 54.417C175.928 54.262 175.6 54.1846 175.217 54.1846C174.825 54.1846 174.49 54.2507 174.212 54.3828C173.938 54.5104 173.711 54.6813 173.528 54.8955C173.351 55.1051 173.209 55.3353 173.104 55.5859C173 55.8366 172.922 56.0827 172.872 56.3242V58.4502C172.95 58.792 173.084 59.1133 173.275 59.4141C173.467 59.7148 173.724 59.9587 174.048 60.1455C174.371 60.3278 174.766 60.4189 175.23 60.4189C175.604 60.4189 175.925 60.3415 176.194 60.1865C176.468 60.0316 176.691 59.8174 176.864 59.5439C177.042 59.2705 177.172 58.9492 177.254 58.5801C177.34 58.2109 177.384 57.8099 177.384 57.377ZM184.452 59.1133C184.452 58.9128 184.402 58.7145 184.302 58.5186C184.201 58.3226 184.008 58.1426 183.721 57.9785C183.438 57.8145 183.021 57.6755 182.47 57.5615C182.06 57.4704 181.693 57.3678 181.369 57.2539C181.05 57.14 180.781 57.0033 180.562 56.8438C180.344 56.6842 180.177 56.4928 180.063 56.2695C179.95 56.0462 179.893 55.7819 179.893 55.4766C179.893 55.2031 179.952 54.9456 180.07 54.7041C180.193 54.458 180.367 54.2438 180.59 54.0615C180.818 53.8747 181.091 53.7288 181.41 53.624C181.734 53.5192 182.096 53.4668 182.497 53.4668C183.067 53.4668 183.554 53.5648 183.96 53.7607C184.37 53.9521 184.682 54.2142 184.896 54.5469C185.115 54.8796 185.225 55.2555 185.225 55.6748H184.411C184.411 55.4196 184.336 55.1781 184.186 54.9502C184.04 54.7223 183.823 54.5355 183.536 54.3896C183.254 54.2438 182.907 54.1709 182.497 54.1709C182.073 54.1709 181.729 54.2347 181.465 54.3623C181.201 54.4899 181.007 54.6517 180.884 54.8477C180.765 55.0436 180.706 55.2464 180.706 55.4561C180.706 55.6201 180.731 55.7705 180.781 55.9072C180.836 56.0394 180.932 56.1624 181.068 56.2764C181.21 56.3903 181.41 56.4974 181.67 56.5977C181.93 56.6979 182.267 56.7959 182.682 56.8916C183.279 57.0238 183.766 57.1855 184.145 57.377C184.527 57.5638 184.81 57.7962 184.992 58.0742C185.174 58.3477 185.266 58.6803 185.266 59.0723C185.266 59.3776 185.202 59.6579 185.074 59.9131C184.947 60.1637 184.762 60.3802 184.521 60.5625C184.284 60.7448 183.996 60.8861 183.659 60.9863C183.326 61.0866 182.953 61.1367 182.538 61.1367C181.914 61.1367 181.385 61.0342 180.952 60.8291C180.524 60.6195 180.198 60.346 179.975 60.0088C179.756 59.667 179.646 59.3047 179.646 58.9219H180.46C180.487 59.3047 180.608 59.6077 180.822 59.8311C181.036 60.0498 181.299 60.2048 181.608 60.2959C181.923 60.387 182.233 60.4326 182.538 60.4326C182.957 60.4326 183.308 60.3711 183.591 60.248C183.873 60.125 184.088 59.9632 184.233 59.7627C184.379 59.5622 184.452 59.3457 184.452 59.1133ZM188.027 53.6035V61H187.214V53.6035H188.027ZM187.07 51.4639C187.07 51.3089 187.118 51.179 187.214 51.0742C187.314 50.9648 187.451 50.9102 187.624 50.9102C187.797 50.9102 187.934 50.9648 188.034 51.0742C188.139 51.179 188.191 51.3089 188.191 51.4639C188.191 51.6143 188.139 51.7441 188.034 51.8535C187.934 51.9583 187.797 52.0107 187.624 52.0107C187.451 52.0107 187.314 51.9583 187.214 51.8535C187.118 51.7441 187.07 51.6143 187.07 51.4639ZM194.761 59.6738V55.8594C194.761 55.5085 194.688 55.2054 194.542 54.9502C194.396 54.695 194.182 54.499 193.899 54.3623C193.617 54.2256 193.268 54.1572 192.854 54.1572C192.471 54.1572 192.129 54.2256 191.828 54.3623C191.532 54.4945 191.297 54.6745 191.124 54.9023C190.955 55.1257 190.871 55.374 190.871 55.6475L190.051 55.6406C190.051 55.3626 190.119 55.0938 190.256 54.834C190.393 54.5742 190.586 54.3418 190.837 54.1367C191.088 53.9316 191.386 53.7699 191.732 53.6514C192.083 53.5283 192.468 53.4668 192.888 53.4668C193.416 53.4668 193.881 53.5557 194.282 53.7334C194.688 53.9111 195.005 54.1777 195.232 54.5332C195.46 54.8887 195.574 55.3353 195.574 55.873V59.4482C195.574 59.7035 195.592 59.9678 195.629 60.2412C195.67 60.5146 195.727 60.7402 195.8 60.918V61H194.932C194.877 60.8359 194.834 60.6309 194.802 60.3848C194.774 60.1341 194.761 59.8971 194.761 59.6738ZM194.952 56.6934L194.966 57.3223H193.359C192.94 57.3223 192.564 57.361 192.231 57.4385C191.903 57.5114 191.625 57.6208 191.397 57.7666C191.17 57.9079 190.994 58.0788 190.871 58.2793C190.753 58.4798 190.693 58.7077 190.693 58.9629C190.693 59.2272 190.759 59.4688 190.892 59.6875C191.028 59.9062 191.22 60.0817 191.466 60.2139C191.716 60.3415 192.013 60.4053 192.354 60.4053C192.81 60.4053 193.211 60.321 193.558 60.1523C193.909 59.9837 194.198 59.7627 194.426 59.4893C194.654 59.2158 194.806 58.9173 194.884 58.5938L195.239 59.0654C195.18 59.2933 195.071 59.528 194.911 59.7695C194.756 60.0065 194.553 60.2298 194.303 60.4395C194.052 60.6445 193.756 60.8132 193.414 60.9453C193.077 61.0729 192.694 61.1367 192.266 61.1367C191.783 61.1367 191.361 61.0456 191.001 60.8633C190.646 60.681 190.368 60.4326 190.167 60.1182C189.971 59.7992 189.873 59.4391 189.873 59.0381C189.873 58.6735 189.951 58.3477 190.105 58.0605C190.26 57.7689 190.484 57.5228 190.775 57.3223C191.072 57.1172 191.427 56.9622 191.842 56.8574C192.261 56.748 192.73 56.6934 193.25 56.6934H194.952ZM198.582 55.1826V61H197.769V53.6035H198.548L198.582 55.1826ZM198.397 56.8438L198.035 56.6387C198.062 56.2012 198.151 55.791 198.302 55.4082C198.452 55.0254 198.655 54.6882 198.91 54.3965C199.17 54.1048 199.473 53.877 199.819 53.7129C200.17 53.5488 200.558 53.4668 200.981 53.4668C201.351 53.4668 201.681 53.5169 201.973 53.6172C202.264 53.7174 202.513 53.877 202.718 54.0957C202.923 54.3145 203.078 54.5947 203.183 54.9365C203.292 55.2783 203.347 55.6953 203.347 56.1875V61H202.526V56.1807C202.526 55.6702 202.456 55.2715 202.314 54.9844C202.173 54.6927 201.973 54.4854 201.713 54.3623C201.453 54.2393 201.146 54.1777 200.79 54.1777C200.398 54.1777 200.054 54.2643 199.758 54.4375C199.466 54.6061 199.22 54.8271 199.02 55.1006C198.824 55.3695 198.673 55.6589 198.568 55.9688C198.464 56.2741 198.407 56.5658 198.397 56.8438ZM210.271 59.5645V50.5H211.092V61H210.326L210.271 59.5645ZM205.138 57.377V57.2334C205.138 56.6592 205.204 56.1419 205.336 55.6816C205.468 55.2168 205.657 54.8203 205.903 54.4922C206.154 54.1595 206.455 53.9066 206.806 53.7334C207.157 53.5557 207.553 53.4668 207.995 53.4668C208.428 53.4668 208.811 53.5374 209.144 53.6787C209.476 53.82 209.761 54.0228 209.998 54.2871C210.24 54.5514 210.433 54.8659 210.579 55.2305C210.729 55.5951 210.839 56.0007 210.907 56.4473V58.2725C210.853 58.6917 210.752 59.0768 210.606 59.4277C210.461 59.7741 210.267 60.0771 210.025 60.3369C209.784 60.5921 209.492 60.7904 209.15 60.9316C208.813 61.0684 208.424 61.1367 207.981 61.1367C207.544 61.1367 207.15 61.0456 206.799 60.8633C206.448 60.681 206.149 60.4235 205.903 60.0908C205.657 59.7536 205.468 59.3548 205.336 58.8945C205.204 58.4342 205.138 57.9284 205.138 57.377ZM205.958 57.2334V57.377C205.958 57.8099 206.001 58.2109 206.088 58.5801C206.174 58.9492 206.307 59.2705 206.484 59.5439C206.662 59.8174 206.888 60.0316 207.161 60.1865C207.435 60.3415 207.758 60.4189 208.132 60.4189C208.601 60.4189 208.995 60.3301 209.314 60.1523C209.633 59.9701 209.889 59.7308 210.08 59.4346C210.271 59.1338 210.41 58.8057 210.497 58.4502V56.3242C210.442 56.0827 210.363 55.8366 210.258 55.5859C210.153 55.3353 210.009 55.1051 209.827 54.8955C209.649 54.6813 209.422 54.5104 209.144 54.3828C208.87 54.2507 208.537 54.1846 208.146 54.1846C207.767 54.1846 207.441 54.262 207.168 54.417C206.895 54.5719 206.667 54.7884 206.484 55.0664C206.307 55.3398 206.174 55.6611 206.088 56.0303C206.001 56.3994 205.958 56.8005 205.958 57.2334ZM212.794 57.418V57.1924C212.794 56.6546 212.871 56.1579 213.026 55.7021C213.181 55.2464 213.402 54.8522 213.689 54.5195C213.981 54.1868 214.33 53.9294 214.735 53.7471C215.141 53.5602 215.592 53.4668 216.089 53.4668C216.59 53.4668 217.044 53.5602 217.449 53.7471C217.855 53.9294 218.203 54.1868 218.495 54.5195C218.787 54.8522 219.01 55.2464 219.165 55.7021C219.32 56.1579 219.397 56.6546 219.397 57.1924V57.418C219.397 57.9557 219.32 58.4525 219.165 58.9082C219.01 59.3594 218.787 59.7513 218.495 60.084C218.208 60.4167 217.862 60.6764 217.456 60.8633C217.05 61.0456 216.599 61.1367 216.103 61.1367C215.601 61.1367 215.148 61.0456 214.742 60.8633C214.337 60.6764 213.988 60.4167 213.696 60.084C213.405 59.7513 213.181 59.3594 213.026 58.9082C212.871 58.4525 212.794 57.9557 212.794 57.418ZM213.607 57.1924V57.418C213.607 57.8236 213.662 58.2087 213.771 58.5732C213.881 58.9333 214.04 59.2546 214.25 59.5371C214.46 59.8151 214.719 60.0339 215.029 60.1934C215.339 60.3529 215.697 60.4326 216.103 60.4326C216.504 60.4326 216.857 60.3529 217.162 60.1934C217.472 60.0339 217.732 59.8151 217.941 59.5371C218.151 59.2546 218.308 58.9333 218.413 58.5732C218.522 58.2087 218.577 57.8236 218.577 57.418V57.1924C218.577 56.7913 218.522 56.4108 218.413 56.0508C218.308 55.6908 218.149 55.3695 217.935 55.0869C217.725 54.8044 217.465 54.5811 217.155 54.417C216.845 54.2529 216.49 54.1709 216.089 54.1709C215.688 54.1709 215.332 54.2529 215.022 54.417C214.717 54.5811 214.457 54.8044 214.243 55.0869C214.034 55.3695 213.874 55.6908 213.765 56.0508C213.66 56.4108 213.607 56.7913 213.607 57.1924ZM222.002 53.6035V61H221.188V53.6035H222.002ZM221.045 51.4639C221.045 51.3089 221.093 51.179 221.188 51.0742C221.289 50.9648 221.425 50.9102 221.599 50.9102C221.772 50.9102 221.909 50.9648 222.009 51.0742C222.114 51.179 222.166 51.3089 222.166 51.4639C222.166 51.6143 222.114 51.7441 222.009 51.8535C221.909 51.9583 221.772 52.0107 221.599 52.0107C221.425 52.0107 221.289 51.9583 221.188 51.8535C221.093 51.7441 221.045 51.6143 221.045 51.4639ZM228.735 59.6738V55.8594C228.735 55.5085 228.662 55.2054 228.517 54.9502C228.371 54.695 228.157 54.499 227.874 54.3623C227.591 54.2256 227.243 54.1572 226.828 54.1572C226.445 54.1572 226.104 54.2256 225.803 54.3623C225.507 54.4945 225.272 54.6745 225.099 54.9023C224.93 55.1257 224.846 55.374 224.846 55.6475L224.025 55.6406C224.025 55.3626 224.094 55.0938 224.23 54.834C224.367 54.5742 224.561 54.3418 224.812 54.1367C225.062 53.9316 225.361 53.7699 225.707 53.6514C226.058 53.5283 226.443 53.4668 226.862 53.4668C227.391 53.4668 227.856 53.5557 228.257 53.7334C228.662 53.9111 228.979 54.1777 229.207 54.5332C229.435 54.8887 229.549 55.3353 229.549 55.873V59.4482C229.549 59.7035 229.567 59.9678 229.604 60.2412C229.645 60.5146 229.701 60.7402 229.774 60.918V61H228.906C228.852 60.8359 228.808 60.6309 228.776 60.3848C228.749 60.1341 228.735 59.8971 228.735 59.6738ZM228.927 56.6934L228.94 57.3223H227.334C226.915 57.3223 226.539 57.361 226.206 57.4385C225.878 57.5114 225.6 57.6208 225.372 57.7666C225.144 57.9079 224.969 58.0788 224.846 58.2793C224.727 58.4798 224.668 58.7077 224.668 58.9629C224.668 59.2272 224.734 59.4688 224.866 59.6875C225.003 59.9062 225.194 60.0817 225.44 60.2139C225.691 60.3415 225.987 60.4053 226.329 60.4053C226.785 60.4053 227.186 60.321 227.532 60.1523C227.883 59.9837 228.173 59.7627 228.4 59.4893C228.628 59.2158 228.781 58.9173 228.858 58.5938L229.214 59.0654C229.155 59.2933 229.045 59.528 228.886 59.7695C228.731 60.0065 228.528 60.2298 228.277 60.4395C228.027 60.6445 227.73 60.8132 227.389 60.9453C227.051 61.0729 226.669 61.1367 226.24 61.1367C225.757 61.1367 225.336 61.0456 224.976 60.8633C224.62 60.681 224.342 60.4326 224.142 60.1182C223.946 59.7992 223.848 59.4391 223.848 59.0381C223.848 58.6735 223.925 58.3477 224.08 58.0605C224.235 57.7689 224.458 57.5228 224.75 57.3223C225.046 57.1172 225.402 56.9622 225.816 56.8574C226.236 56.748 226.705 56.6934 227.225 56.6934H228.927ZM232.557 55.1826V61H231.743V53.6035H232.522L232.557 55.1826ZM232.372 56.8438L232.01 56.6387C232.037 56.2012 232.126 55.791 232.276 55.4082C232.427 55.0254 232.63 54.6882 232.885 54.3965C233.145 54.1048 233.448 53.877 233.794 53.7129C234.145 53.5488 234.532 53.4668 234.956 53.4668C235.325 53.4668 235.656 53.5169 235.947 53.6172C236.239 53.7174 236.487 53.877 236.692 54.0957C236.897 54.3145 237.052 54.5947 237.157 54.9365C237.267 55.2783 237.321 55.6953 237.321 56.1875V61H236.501V56.1807C236.501 55.6702 236.43 55.2715 236.289 54.9844C236.148 54.6927 235.947 54.4854 235.688 54.3623C235.428 54.2393 235.12 54.1777 234.765 54.1777C234.373 54.1777 234.029 54.2643 233.732 54.4375C233.441 54.6061 233.195 54.8271 232.994 55.1006C232.798 55.3695 232.648 55.6589 232.543 55.9688C232.438 56.2741 232.381 56.5658 232.372 56.8438ZM244.246 59.5645V50.5H245.066V61H244.301L244.246 59.5645ZM239.112 57.377V57.2334C239.112 56.6592 239.178 56.1419 239.311 55.6816C239.443 55.2168 239.632 54.8203 239.878 54.4922C240.129 54.1595 240.429 53.9066 240.78 53.7334C241.131 53.5557 241.528 53.4668 241.97 53.4668C242.403 53.4668 242.785 53.5374 243.118 53.6787C243.451 53.82 243.736 54.0228 243.973 54.2871C244.214 54.5514 244.408 54.8659 244.554 55.2305C244.704 55.5951 244.813 56.0007 244.882 56.4473V58.2725C244.827 58.6917 244.727 59.0768 244.581 59.4277C244.435 59.7741 244.242 60.0771 244 60.3369C243.758 60.5921 243.467 60.7904 243.125 60.9316C242.788 61.0684 242.398 61.1367 241.956 61.1367C241.519 61.1367 241.124 61.0456 240.773 60.8633C240.423 60.681 240.124 60.4235 239.878 60.0908C239.632 59.7536 239.443 59.3548 239.311 58.8945C239.178 58.4342 239.112 57.9284 239.112 57.377ZM239.933 57.2334V57.377C239.933 57.8099 239.976 58.2109 240.062 58.5801C240.149 58.9492 240.281 59.2705 240.459 59.5439C240.637 59.8174 240.862 60.0316 241.136 60.1865C241.409 60.3415 241.733 60.4189 242.106 60.4189C242.576 60.4189 242.97 60.3301 243.289 60.1523C243.608 59.9701 243.863 59.7308 244.055 59.4346C244.246 59.1338 244.385 58.8057 244.472 58.4502V56.3242C244.417 56.0827 244.337 55.8366 244.232 55.5859C244.128 55.3353 243.984 55.1051 243.802 54.8955C243.624 54.6813 243.396 54.5104 243.118 54.3828C242.845 54.2507 242.512 54.1846 242.12 54.1846C241.742 54.1846 241.416 54.262 241.143 54.417C240.869 54.5719 240.641 54.7884 240.459 55.0664C240.281 55.3398 240.149 55.6611 240.062 56.0303C239.976 56.3994 239.933 56.8005 239.933 57.2334ZM246.769 57.418V57.1924C246.769 56.6546 246.846 56.1579 247.001 55.7021C247.156 55.2464 247.377 54.8522 247.664 54.5195C247.956 54.1868 248.304 53.9294 248.71 53.7471C249.116 53.5602 249.567 53.4668 250.063 53.4668C250.565 53.4668 251.018 53.5602 251.424 53.7471C251.829 53.9294 252.178 54.1868 252.47 54.5195C252.761 54.8522 252.985 55.2464 253.14 55.7021C253.295 56.1579 253.372 56.6546 253.372 57.1924V57.418C253.372 57.9557 253.295 58.4525 253.14 58.9082C252.985 59.3594 252.761 59.7513 252.47 60.084C252.183 60.4167 251.836 60.6764 251.431 60.8633C251.025 61.0456 250.574 61.1367 250.077 61.1367C249.576 61.1367 249.122 61.0456 248.717 60.8633C248.311 60.6764 247.963 60.4167 247.671 60.084C247.379 59.7513 247.156 59.3594 247.001 58.9082C246.846 58.4525 246.769 57.9557 246.769 57.418ZM247.582 57.1924V57.418C247.582 57.8236 247.637 58.2087 247.746 58.5732C247.855 58.9333 248.015 59.2546 248.225 59.5371C248.434 59.8151 248.694 60.0339 249.004 60.1934C249.314 60.3529 249.672 60.4326 250.077 60.4326C250.478 60.4326 250.831 60.3529 251.137 60.1934C251.447 60.0339 251.706 59.8151 251.916 59.5371C252.126 59.2546 252.283 58.9333 252.388 58.5732C252.497 58.2087 252.552 57.8236 252.552 57.418V57.1924C252.552 56.7913 252.497 56.4108 252.388 56.0508C252.283 55.6908 252.123 55.3695 251.909 55.0869C251.7 54.8044 251.44 54.5811 251.13 54.417C250.82 54.2529 250.465 54.1709 250.063 54.1709C249.662 54.1709 249.307 54.2529 248.997 54.417C248.692 54.5811 248.432 54.8044 248.218 55.0869C248.008 55.3695 247.849 55.6908 247.739 56.0508C247.634 56.4108 247.582 56.7913 247.582 57.1924ZM255.977 53.6035V61H255.163V53.6035H255.977ZM255.02 51.4639C255.02 51.3089 255.067 51.179 255.163 51.0742C255.263 50.9648 255.4 50.9102 255.573 50.9102C255.746 50.9102 255.883 50.9648 255.983 51.0742C256.088 51.179 256.141 51.3089 256.141 51.4639C256.141 51.6143 256.088 51.7441 255.983 51.8535C255.883 51.9583 255.746 52.0107 255.573 52.0107C255.4 52.0107 255.263 51.9583 255.163 51.8535C255.067 51.7441 255.02 51.6143 255.02 51.4639ZM262.71 59.6738V55.8594C262.71 55.5085 262.637 55.2054 262.491 54.9502C262.345 54.695 262.131 54.499 261.849 54.3623C261.566 54.2256 261.217 54.1572 260.803 54.1572C260.42 54.1572 260.078 54.2256 259.777 54.3623C259.481 54.4945 259.246 54.6745 259.073 54.9023C258.905 55.1257 258.82 55.374 258.82 55.6475L258 55.6406C258 55.3626 258.068 55.0938 258.205 54.834C258.342 54.5742 258.535 54.3418 258.786 54.1367C259.037 53.9316 259.335 53.7699 259.682 53.6514C260.033 53.5283 260.418 53.4668 260.837 53.4668C261.366 53.4668 261.83 53.5557 262.231 53.7334C262.637 53.9111 262.954 54.1777 263.182 54.5332C263.41 54.8887 263.523 55.3353 263.523 55.873V59.4482C263.523 59.7035 263.542 59.9678 263.578 60.2412C263.619 60.5146 263.676 60.7402 263.749 60.918V61H262.881C262.826 60.8359 262.783 60.6309 262.751 60.3848C262.724 60.1341 262.71 59.8971 262.71 59.6738ZM262.901 56.6934L262.915 57.3223H261.309C260.889 57.3223 260.513 57.361 260.181 57.4385C259.853 57.5114 259.575 57.6208 259.347 57.7666C259.119 57.9079 258.943 58.0788 258.82 58.2793C258.702 58.4798 258.643 58.7077 258.643 58.9629C258.643 59.2272 258.709 59.4688 258.841 59.6875C258.978 59.9062 259.169 60.0817 259.415 60.2139C259.666 60.3415 259.962 60.4053 260.304 60.4053C260.759 60.4053 261.16 60.321 261.507 60.1523C261.858 59.9837 262.147 59.7627 262.375 59.4893C262.603 59.2158 262.756 58.9173 262.833 58.5938L263.188 59.0654C263.129 59.2933 263.02 59.528 262.86 59.7695C262.705 60.0065 262.503 60.2298 262.252 60.4395C262.001 60.6445 261.705 60.8132 261.363 60.9453C261.026 61.0729 260.643 61.1367 260.215 61.1367C259.732 61.1367 259.31 61.0456 258.95 60.8633C258.595 60.681 258.317 60.4326 258.116 60.1182C257.92 59.7992 257.822 59.4391 257.822 59.0381C257.822 58.6735 257.9 58.3477 258.055 58.0605C258.21 57.7689 258.433 57.5228 258.725 57.3223C259.021 57.1172 259.376 56.9622 259.791 56.8574C260.21 56.748 260.68 56.6934 261.199 56.6934H262.901ZM270.147 59.1133C270.147 58.9128 270.097 58.7145 269.997 58.5186C269.897 58.3226 269.703 58.1426 269.416 57.9785C269.133 57.8145 268.716 57.6755 268.165 57.5615C267.755 57.4704 267.388 57.3678 267.064 57.2539C266.745 57.14 266.477 57.0033 266.258 56.8438C266.039 56.6842 265.873 56.4928 265.759 56.2695C265.645 56.0462 265.588 55.7819 265.588 55.4766C265.588 55.2031 265.647 54.9456 265.766 54.7041C265.889 54.458 266.062 54.2438 266.285 54.0615C266.513 53.8747 266.786 53.7288 267.105 53.624C267.429 53.5192 267.791 53.4668 268.192 53.4668C268.762 53.4668 269.25 53.5648 269.655 53.7607C270.065 53.9521 270.378 54.2142 270.592 54.5469C270.811 54.8796 270.92 55.2555 270.92 55.6748H270.106C270.106 55.4196 270.031 55.1781 269.881 54.9502C269.735 54.7223 269.519 54.5355 269.231 54.3896C268.949 54.2438 268.603 54.1709 268.192 54.1709C267.769 54.1709 267.424 54.2347 267.16 54.3623C266.896 54.4899 266.702 54.6517 266.579 54.8477C266.461 55.0436 266.401 55.2464 266.401 55.4561C266.401 55.6201 266.426 55.7705 266.477 55.9072C266.531 56.0394 266.627 56.1624 266.764 56.2764C266.905 56.3903 267.105 56.4974 267.365 56.5977C267.625 56.6979 267.962 56.7959 268.377 56.8916C268.974 57.0238 269.462 57.1855 269.84 57.377C270.223 57.5638 270.505 57.7962 270.688 58.0742C270.87 58.3477 270.961 58.6803 270.961 59.0723C270.961 59.3776 270.897 59.6579 270.77 59.9131C270.642 60.1637 270.457 60.3802 270.216 60.5625C269.979 60.7448 269.692 60.8861 269.354 60.9863C269.022 61.0866 268.648 61.1367 268.233 61.1367C267.609 61.1367 267.08 61.0342 266.647 60.8291C266.219 60.6195 265.893 60.346 265.67 60.0088C265.451 59.667 265.342 59.3047 265.342 58.9219H266.155C266.183 59.3047 266.303 59.6077 266.518 59.8311C266.732 60.0498 266.994 60.2048 267.304 60.2959C267.618 60.387 267.928 60.4326 268.233 60.4326C268.653 60.4326 269.004 60.3711 269.286 60.248C269.569 60.125 269.783 59.9632 269.929 59.7627C270.075 59.5622 270.147 59.3457 270.147 59.1133ZM273.627 55.1826V61H272.813V53.6035H273.593L273.627 55.1826ZM273.442 56.8438L273.08 56.6387C273.107 56.2012 273.196 55.791 273.347 55.4082C273.497 55.0254 273.7 54.6882 273.955 54.3965C274.215 54.1048 274.518 53.877 274.864 53.7129C275.215 53.5488 275.603 53.4668 276.026 53.4668C276.396 53.4668 276.726 53.5169 277.018 53.6172C277.309 53.7174 277.558 53.877 277.763 54.0957C277.968 54.3145 278.123 54.5947 278.228 54.9365C278.337 55.2783 278.392 55.6953 278.392 56.1875V61H277.571V56.1807C277.571 55.6702 277.501 55.2715 277.359 54.9844C277.218 54.6927 277.018 54.4854 276.758 54.3623C276.498 54.2393 276.19 54.1777 275.835 54.1777C275.443 54.1777 275.099 54.2643 274.803 54.4375C274.511 54.6061 274.265 54.8271 274.064 55.1006C273.868 55.3695 273.718 55.6589 273.613 55.9688C273.508 56.2741 273.451 56.5658 273.442 56.8438ZM285.316 59.5645V50.5H286.137V61H285.371L285.316 59.5645ZM280.183 57.377V57.2334C280.183 56.6592 280.249 56.1419 280.381 55.6816C280.513 55.2168 280.702 54.8203 280.948 54.4922C281.199 54.1595 281.5 53.9066 281.851 53.7334C282.201 53.5557 282.598 53.4668 283.04 53.4668C283.473 53.4668 283.856 53.5374 284.188 53.6787C284.521 53.82 284.806 54.0228 285.043 54.2871C285.285 54.5514 285.478 54.8659 285.624 55.2305C285.774 55.5951 285.884 56.0007 285.952 56.4473V58.2725C285.897 58.6917 285.797 59.0768 285.651 59.4277C285.506 59.7741 285.312 60.0771 285.07 60.3369C284.829 60.5921 284.537 60.7904 284.195 60.9316C283.858 61.0684 283.468 61.1367 283.026 61.1367C282.589 61.1367 282.195 61.0456 281.844 60.8633C281.493 60.681 281.194 60.4235 280.948 60.0908C280.702 59.7536 280.513 59.3548 280.381 58.8945C280.249 58.4342 280.183 57.9284 280.183 57.377ZM281.003 57.2334V57.377C281.003 57.8099 281.046 58.2109 281.133 58.5801C281.219 58.9492 281.352 59.2705 281.529 59.5439C281.707 59.8174 281.933 60.0316 282.206 60.1865C282.479 60.3415 282.803 60.4189 283.177 60.4189C283.646 60.4189 284.04 60.3301 284.359 60.1523C284.678 59.9701 284.934 59.7308 285.125 59.4346C285.316 59.1338 285.455 58.8057 285.542 58.4502V56.3242C285.487 56.0827 285.408 55.8366 285.303 55.5859C285.198 55.3353 285.054 55.1051 284.872 54.8955C284.694 54.6813 284.466 54.5104 284.188 54.3828C283.915 54.2507 283.582 54.1846 283.19 54.1846C282.812 54.1846 282.486 54.262 282.213 54.417C281.939 54.5719 281.712 54.7884 281.529 55.0664C281.352 55.3398 281.219 55.6611 281.133 56.0303C281.046 56.3994 281.003 56.8005 281.003 57.2334ZM125.622 73.418V73.1924C125.622 72.6546 125.7 72.1579 125.854 71.7021C126.009 71.2464 126.23 70.8522 126.518 70.5195C126.809 70.1868 127.158 69.9294 127.563 69.7471C127.969 69.5602 128.42 69.4668 128.917 69.4668C129.418 69.4668 129.872 69.5602 130.277 69.7471C130.683 69.9294 131.032 70.1868 131.323 70.5195C131.615 70.8522 131.838 71.2464 131.993 71.7021C132.148 72.1579 132.226 72.6546 132.226 73.1924V73.418C132.226 73.9557 132.148 74.4525 131.993 74.9082C131.838 75.3594 131.615 75.7513 131.323 76.084C131.036 76.4167 130.69 76.6764 130.284 76.8633C129.879 77.0456 129.427 77.1367 128.931 77.1367C128.429 77.1367 127.976 77.0456 127.57 76.8633C127.165 76.6764 126.816 76.4167 126.524 76.084C126.233 75.7513 126.009 75.3594 125.854 74.9082C125.7 74.4525 125.622 73.9557 125.622 73.418ZM126.436 73.1924V73.418C126.436 73.8236 126.49 74.2087 126.6 74.5732C126.709 74.9333 126.868 75.2546 127.078 75.5371C127.288 75.8151 127.548 76.0339 127.857 76.1934C128.167 76.3529 128.525 76.4326 128.931 76.4326C129.332 76.4326 129.685 76.3529 129.99 76.1934C130.3 76.0339 130.56 75.8151 130.77 75.5371C130.979 75.2546 131.136 74.9333 131.241 74.5732C131.351 74.2087 131.405 73.8236 131.405 73.418V73.1924C131.405 72.7913 131.351 72.4108 131.241 72.0508C131.136 71.6908 130.977 71.3695 130.763 71.0869C130.553 70.8044 130.293 70.5811 129.983 70.417C129.674 70.2529 129.318 70.1709 128.917 70.1709C128.516 70.1709 128.16 70.2529 127.851 70.417C127.545 70.5811 127.285 70.8044 127.071 71.0869C126.862 71.3695 126.702 71.6908 126.593 72.0508C126.488 72.4108 126.436 72.7913 126.436 73.1924ZM134.83 69.6035V77H134.017V69.6035H134.83ZM133.873 67.4639C133.873 67.3089 133.921 67.179 134.017 67.0742C134.117 66.9648 134.254 66.9102 134.427 66.9102C134.6 66.9102 134.737 66.9648 134.837 67.0742C134.942 67.179 134.994 67.3089 134.994 67.4639C134.994 67.6143 134.942 67.7441 134.837 67.8535C134.737 67.9583 134.6 68.0107 134.427 68.0107C134.254 68.0107 134.117 67.9583 134.017 67.8535C133.921 67.7441 133.873 67.6143 133.873 67.4639ZM137.879 71.1826V77H137.065V69.6035H137.845L137.879 71.1826ZM137.694 72.8438L137.332 72.6387C137.359 72.2012 137.448 71.791 137.599 71.4082C137.749 71.0254 137.952 70.6882 138.207 70.3965C138.467 70.1048 138.77 69.877 139.116 69.7129C139.467 69.5488 139.854 69.4668 140.278 69.4668C140.647 69.4668 140.978 69.5169 141.27 69.6172C141.561 69.7174 141.81 69.877 142.015 70.0957C142.22 70.3145 142.375 70.5947 142.479 70.9365C142.589 71.2783 142.644 71.6953 142.644 72.1875V77H141.823V72.1807C141.823 71.6702 141.753 71.2715 141.611 70.9844C141.47 70.6927 141.27 70.4854 141.01 70.3623C140.75 70.2393 140.442 70.1777 140.087 70.1777C139.695 70.1777 139.351 70.2643 139.055 70.4375C138.763 70.6061 138.517 70.8271 138.316 71.1006C138.12 71.3695 137.97 71.6589 137.865 71.9688C137.76 72.2741 137.703 72.5658 137.694 72.8438ZM149.261 75.6738V71.8594C149.261 71.5085 149.188 71.2054 149.042 70.9502C148.896 70.695 148.682 70.499 148.399 70.3623C148.117 70.2256 147.768 70.1572 147.354 70.1572C146.971 70.1572 146.629 70.2256 146.328 70.3623C146.032 70.4945 145.797 70.6745 145.624 70.9023C145.455 71.1257 145.371 71.374 145.371 71.6475L144.551 71.6406C144.551 71.3626 144.619 71.0938 144.756 70.834C144.893 70.5742 145.086 70.3418 145.337 70.1367C145.588 69.9316 145.886 69.7699 146.232 69.6514C146.583 69.5283 146.968 69.4668 147.388 69.4668C147.916 69.4668 148.381 69.5557 148.782 69.7334C149.188 69.9111 149.505 70.1777 149.732 70.5332C149.96 70.8887 150.074 71.3353 150.074 71.873V75.4482C150.074 75.7035 150.092 75.9678 150.129 76.2412C150.17 76.5146 150.227 76.7402 150.3 76.918V77H149.432C149.377 76.8359 149.334 76.6309 149.302 76.3848C149.274 76.1341 149.261 75.8971 149.261 75.6738ZM149.452 72.6934L149.466 73.3223H147.859C147.44 73.3223 147.064 73.361 146.731 73.4385C146.403 73.5114 146.125 73.6208 145.897 73.7666C145.67 73.9079 145.494 74.0788 145.371 74.2793C145.253 74.4798 145.193 74.7077 145.193 74.9629C145.193 75.2272 145.259 75.4688 145.392 75.6875C145.528 75.9062 145.72 76.0817 145.966 76.2139C146.216 76.3415 146.513 76.4053 146.854 76.4053C147.31 76.4053 147.711 76.321 148.058 76.1523C148.409 75.9837 148.698 75.7627 148.926 75.4893C149.154 75.2158 149.306 74.9173 149.384 74.5938L149.739 75.0654C149.68 75.2933 149.571 75.528 149.411 75.7695C149.256 76.0065 149.053 76.2298 148.803 76.4395C148.552 76.6445 148.256 76.8132 147.914 76.9453C147.577 77.0729 147.194 77.1367 146.766 77.1367C146.283 77.1367 145.861 77.0456 145.501 76.8633C145.146 76.681 144.868 76.4326 144.667 76.1182C144.471 75.7992 144.373 75.4391 144.373 75.0381C144.373 74.6735 144.451 74.3477 144.605 74.0605C144.76 73.7689 144.984 73.5228 145.275 73.3223C145.572 73.1172 145.927 72.9622 146.342 72.8574C146.761 72.748 147.23 72.6934 147.75 72.6934H149.452ZM156.698 75.1133C156.698 74.9128 156.648 74.7145 156.548 74.5186C156.448 74.3226 156.254 74.1426 155.967 73.9785C155.684 73.8145 155.267 73.6755 154.716 73.5615C154.306 73.4704 153.939 73.3678 153.615 73.2539C153.296 73.14 153.027 73.0033 152.809 72.8438C152.59 72.6842 152.424 72.4928 152.31 72.2695C152.196 72.0462 152.139 71.7819 152.139 71.4766C152.139 71.2031 152.198 70.9456 152.316 70.7041C152.439 70.458 152.613 70.2438 152.836 70.0615C153.064 69.8747 153.337 69.7288 153.656 69.624C153.98 69.5192 154.342 69.4668 154.743 69.4668C155.313 69.4668 155.8 69.5648 156.206 69.7607C156.616 69.9521 156.928 70.2142 157.143 70.5469C157.361 70.8796 157.471 71.2555 157.471 71.6748H156.657C156.657 71.4196 156.582 71.1781 156.432 70.9502C156.286 70.7223 156.069 70.5355 155.782 70.3896C155.5 70.2438 155.153 70.1709 154.743 70.1709C154.319 70.1709 153.975 70.2347 153.711 70.3623C153.447 70.4899 153.253 70.6517 153.13 70.8477C153.011 71.0436 152.952 71.2464 152.952 71.4561C152.952 71.6201 152.977 71.7705 153.027 71.9072C153.082 72.0394 153.178 72.1624 153.314 72.2764C153.456 72.3903 153.656 72.4974 153.916 72.5977C154.176 72.6979 154.513 72.7959 154.928 72.8916C155.525 73.0238 156.012 73.1855 156.391 73.377C156.773 73.5638 157.056 73.7962 157.238 74.0742C157.421 74.3477 157.512 74.6803 157.512 75.0723C157.512 75.3776 157.448 75.6579 157.32 75.9131C157.193 76.1637 157.008 76.3802 156.767 76.5625C156.53 76.7448 156.243 76.8861 155.905 76.9863C155.573 77.0866 155.199 77.1367 154.784 77.1367C154.16 77.1367 153.631 77.0342 153.198 76.8291C152.77 76.6195 152.444 76.346 152.221 76.0088C152.002 75.667 151.893 75.3047 151.893 74.9219H152.706C152.733 75.3047 152.854 75.6077 153.068 75.8311C153.283 76.0498 153.545 76.2048 153.854 76.2959C154.169 76.387 154.479 76.4326 154.784 76.4326C155.203 76.4326 155.554 76.3711 155.837 76.248C156.119 76.125 156.334 75.9632 156.479 75.7627C156.625 75.5622 156.698 75.3457 156.698 75.1133ZM158.913 73.418V73.1924C158.913 72.6546 158.991 72.1579 159.146 71.7021C159.3 71.2464 159.521 70.8522 159.809 70.5195C160.1 70.1868 160.449 69.9294 160.854 69.7471C161.26 69.5602 161.711 69.4668 162.208 69.4668C162.709 69.4668 163.163 69.5602 163.568 69.7471C163.974 69.9294 164.323 70.1868 164.614 70.5195C164.906 70.8522 165.129 71.2464 165.284 71.7021C165.439 72.1579 165.517 72.6546 165.517 73.1924V73.418C165.517 73.9557 165.439 74.4525 165.284 74.9082C165.129 75.3594 164.906 75.7513 164.614 76.084C164.327 76.4167 163.981 76.6764 163.575 76.8633C163.17 77.0456 162.718 77.1367 162.222 77.1367C161.72 77.1367 161.267 77.0456 160.861 76.8633C160.456 76.6764 160.107 76.4167 159.815 76.084C159.524 75.7513 159.3 75.3594 159.146 74.9082C158.991 74.4525 158.913 73.9557 158.913 73.418ZM159.727 73.1924V73.418C159.727 73.8236 159.781 74.2087 159.891 74.5732C160 74.9333 160.16 75.2546 160.369 75.5371C160.579 75.8151 160.839 76.0339 161.148 76.1934C161.458 76.3529 161.816 76.4326 162.222 76.4326C162.623 76.4326 162.976 76.3529 163.281 76.1934C163.591 76.0339 163.851 75.8151 164.061 75.5371C164.27 75.2546 164.427 74.9333 164.532 74.5732C164.642 74.2087 164.696 73.8236 164.696 73.418V73.1924C164.696 72.7913 164.642 72.4108 164.532 72.0508C164.427 71.6908 164.268 71.3695 164.054 71.0869C163.844 70.8044 163.584 70.5811 163.274 70.417C162.965 70.2529 162.609 70.1709 162.208 70.1709C161.807 70.1709 161.451 70.2529 161.142 70.417C160.836 70.5811 160.576 70.8044 160.362 71.0869C160.153 71.3695 159.993 71.6908 159.884 72.0508C159.779 72.4108 159.727 72.7913 159.727 73.1924ZM168.121 69.6035V77H167.308V69.6035H168.121ZM167.164 67.4639C167.164 67.3089 167.212 67.179 167.308 67.0742C167.408 66.9648 167.545 66.9102 167.718 66.9102C167.891 66.9102 168.028 66.9648 168.128 67.0742C168.233 67.179 168.285 67.3089 168.285 67.4639C168.285 67.6143 168.233 67.7441 168.128 67.8535C168.028 67.9583 167.891 68.0107 167.718 68.0107C167.545 68.0107 167.408 67.9583 167.308 67.8535C167.212 67.7441 167.164 67.6143 167.164 67.4639ZM170.678 69.6035L172.674 72.5908L174.677 69.6035H175.647L173.139 73.2266L175.75 77H174.793L172.681 73.876L170.575 77H169.618L172.229 73.2266L169.721 69.6035H170.678ZM177.992 71.1826V77H177.179V69.6035H177.958L177.992 71.1826ZM177.808 72.8438L177.445 72.6387C177.473 72.2012 177.562 71.791 177.712 71.4082C177.862 71.0254 178.065 70.6882 178.32 70.3965C178.58 70.1048 178.883 69.877 179.229 69.7129C179.58 69.5488 179.968 69.4668 180.392 69.4668C180.761 69.4668 181.091 69.5169 181.383 69.6172C181.674 69.7174 181.923 69.877 182.128 70.0957C182.333 70.3145 182.488 70.5947 182.593 70.9365C182.702 71.2783 182.757 71.6953 182.757 72.1875V77H181.937V72.1807C181.937 71.6702 181.866 71.2715 181.725 70.9844C181.583 70.6927 181.383 70.4854 181.123 70.3623C180.863 70.2393 180.556 70.1777 180.2 70.1777C179.808 70.1777 179.464 70.2643 179.168 70.4375C178.876 70.6061 178.63 70.8271 178.43 71.1006C178.234 71.3695 178.083 71.6589 177.979 71.9688C177.874 72.2741 177.817 72.5658 177.808 72.8438ZM189.374 75.6738V71.8594C189.374 71.5085 189.301 71.2054 189.155 70.9502C189.009 70.695 188.795 70.499 188.513 70.3623C188.23 70.2256 187.882 70.1572 187.467 70.1572C187.084 70.1572 186.742 70.2256 186.441 70.3623C186.145 70.4945 185.91 70.6745 185.737 70.9023C185.569 71.1257 185.484 71.374 185.484 71.6475L184.664 71.6406C184.664 71.3626 184.732 71.0938 184.869 70.834C185.006 70.5742 185.2 70.3418 185.45 70.1367C185.701 69.9316 185.999 69.7699 186.346 69.6514C186.697 69.5283 187.082 69.4668 187.501 69.4668C188.03 69.4668 188.494 69.5557 188.896 69.7334C189.301 69.9111 189.618 70.1777 189.846 70.5332C190.074 70.8887 190.188 71.3353 190.188 71.873V75.4482C190.188 75.7035 190.206 75.9678 190.242 76.2412C190.283 76.5146 190.34 76.7402 190.413 76.918V77H189.545C189.49 76.8359 189.447 76.6309 189.415 76.3848C189.388 76.1341 189.374 75.8971 189.374 75.6738ZM189.565 72.6934L189.579 73.3223H187.973C187.553 73.3223 187.177 73.361 186.845 73.4385C186.517 73.5114 186.239 73.6208 186.011 73.7666C185.783 73.9079 185.607 74.0788 185.484 74.2793C185.366 74.4798 185.307 74.7077 185.307 74.9629C185.307 75.2272 185.373 75.4688 185.505 75.6875C185.642 75.9062 185.833 76.0817 186.079 76.2139C186.33 76.3415 186.626 76.4053 186.968 76.4053C187.424 76.4053 187.825 76.321 188.171 76.1523C188.522 75.9837 188.811 75.7627 189.039 75.4893C189.267 75.2158 189.42 74.9173 189.497 74.5938L189.853 75.0654C189.793 75.2933 189.684 75.528 189.524 75.7695C189.369 76.0065 189.167 76.2298 188.916 76.4395C188.665 76.6445 188.369 76.8132 188.027 76.9453C187.69 77.0729 187.307 77.1367 186.879 77.1367C186.396 77.1367 185.974 77.0456 185.614 76.8633C185.259 76.681 184.981 76.4326 184.78 76.1182C184.584 75.7992 184.486 75.4391 184.486 75.0381C184.486 74.6735 184.564 74.3477 184.719 74.0605C184.874 73.7689 185.097 73.5228 185.389 73.3223C185.685 73.1172 186.04 72.9622 186.455 72.8574C186.874 72.748 187.344 72.6934 187.863 72.6934H189.565ZM191.931 73.418V73.1924C191.931 72.6546 192.008 72.1579 192.163 71.7021C192.318 71.2464 192.539 70.8522 192.826 70.5195C193.118 70.1868 193.466 69.9294 193.872 69.7471C194.278 69.5602 194.729 69.4668 195.226 69.4668C195.727 69.4668 196.18 69.5602 196.586 69.7471C196.992 69.9294 197.34 70.1868 197.632 70.5195C197.924 70.8522 198.147 71.2464 198.302 71.7021C198.457 72.1579 198.534 72.6546 198.534 73.1924V73.418C198.534 73.9557 198.457 74.4525 198.302 74.9082C198.147 75.3594 197.924 75.7513 197.632 76.084C197.345 76.4167 196.998 76.6764 196.593 76.8633C196.187 77.0456 195.736 77.1367 195.239 77.1367C194.738 77.1367 194.285 77.0456 193.879 76.8633C193.473 76.6764 193.125 76.4167 192.833 76.084C192.541 75.7513 192.318 75.3594 192.163 74.9082C192.008 74.4525 191.931 73.9557 191.931 73.418ZM192.744 73.1924V73.418C192.744 73.8236 192.799 74.2087 192.908 74.5732C193.018 74.9333 193.177 75.2546 193.387 75.5371C193.596 75.8151 193.856 76.0339 194.166 76.1934C194.476 76.3529 194.834 76.4326 195.239 76.4326C195.64 76.4326 195.993 76.3529 196.299 76.1934C196.609 76.0339 196.868 75.8151 197.078 75.5371C197.288 75.2546 197.445 74.9333 197.55 74.5732C197.659 74.2087 197.714 73.8236 197.714 73.418V73.1924C197.714 72.7913 197.659 72.4108 197.55 72.0508C197.445 71.6908 197.285 71.3695 197.071 71.0869C196.862 70.8044 196.602 70.5811 196.292 70.417C195.982 70.2529 195.627 70.1709 195.226 70.1709C194.825 70.1709 194.469 70.2529 194.159 70.417C193.854 70.5811 193.594 70.8044 193.38 71.0869C193.17 71.3695 193.011 71.6908 192.901 72.0508C192.797 72.4108 192.744 72.7913 192.744 73.1924ZM201.139 69.6035V77H200.325V69.6035H201.139ZM200.182 67.4639C200.182 67.3089 200.229 67.179 200.325 67.0742C200.425 66.9648 200.562 66.9102 200.735 66.9102C200.909 66.9102 201.045 66.9648 201.146 67.0742C201.25 67.179 201.303 67.3089 201.303 67.4639C201.303 67.6143 201.25 67.7441 201.146 67.8535C201.045 67.9583 200.909 68.0107 200.735 68.0107C200.562 68.0107 200.425 67.9583 200.325 67.8535C200.229 67.7441 200.182 67.6143 200.182 67.4639ZM207.804 75.1133C207.804 74.9128 207.754 74.7145 207.653 74.5186C207.553 74.3226 207.359 74.1426 207.072 73.9785C206.79 73.8145 206.373 73.6755 205.821 73.5615C205.411 73.4704 205.044 73.3678 204.721 73.2539C204.402 73.14 204.133 73.0033 203.914 72.8438C203.695 72.6842 203.529 72.4928 203.415 72.2695C203.301 72.0462 203.244 71.7819 203.244 71.4766C203.244 71.2031 203.303 70.9456 203.422 70.7041C203.545 70.458 203.718 70.2438 203.941 70.0615C204.169 69.8747 204.443 69.7288 204.762 69.624C205.085 69.5192 205.448 69.4668 205.849 69.4668C206.418 69.4668 206.906 69.5648 207.312 69.7607C207.722 69.9521 208.034 70.2142 208.248 70.5469C208.467 70.8796 208.576 71.2555 208.576 71.6748H207.763C207.763 71.4196 207.688 71.1781 207.537 70.9502C207.391 70.7223 207.175 70.5355 206.888 70.3896C206.605 70.2438 206.259 70.1709 205.849 70.1709C205.425 70.1709 205.081 70.2347 204.816 70.3623C204.552 70.4899 204.358 70.6517 204.235 70.8477C204.117 71.0436 204.058 71.2464 204.058 71.4561C204.058 71.6201 204.083 71.7705 204.133 71.9072C204.188 72.0394 204.283 72.1624 204.42 72.2764C204.561 72.3903 204.762 72.4974 205.021 72.5977C205.281 72.6979 205.618 72.7959 206.033 72.8916C206.63 73.0238 207.118 73.1855 207.496 73.377C207.879 73.5638 208.161 73.7962 208.344 74.0742C208.526 74.3477 208.617 74.6803 208.617 75.0723C208.617 75.3776 208.553 75.6579 208.426 75.9131C208.298 76.1637 208.114 76.3802 207.872 76.5625C207.635 76.7448 207.348 76.8861 207.011 76.9863C206.678 77.0866 206.304 77.1367 205.89 77.1367C205.265 77.1367 204.737 77.0342 204.304 76.8291C203.875 76.6195 203.549 76.346 203.326 76.0088C203.107 75.667 202.998 75.3047 202.998 74.9219H203.812C203.839 75.3047 203.96 75.6077 204.174 75.8311C204.388 76.0498 204.65 76.2048 204.96 76.2959C205.274 76.387 205.584 76.4326 205.89 76.4326C206.309 76.4326 206.66 76.3711 206.942 76.248C207.225 76.125 207.439 75.9632 207.585 75.7627C207.731 75.5622 207.804 75.3457 207.804 75.1133ZM211.283 71.1826V77H210.47V69.6035H211.249L211.283 71.1826ZM211.099 72.8438L210.736 72.6387C210.764 72.2012 210.853 71.791 211.003 71.4082C211.153 71.0254 211.356 70.6882 211.611 70.3965C211.871 70.1048 212.174 69.877 212.521 69.7129C212.871 69.5488 213.259 69.4668 213.683 69.4668C214.052 69.4668 214.382 69.5169 214.674 69.6172C214.965 69.7174 215.214 69.877 215.419 70.0957C215.624 70.3145 215.779 70.5947 215.884 70.9365C215.993 71.2783 216.048 71.6953 216.048 72.1875V77H215.228V72.1807C215.228 71.6702 215.157 71.2715 215.016 70.9844C214.874 70.6927 214.674 70.4854 214.414 70.3623C214.154 70.2393 213.847 70.1777 213.491 70.1777C213.099 70.1777 212.755 70.2643 212.459 70.4375C212.167 70.6061 211.921 70.8271 211.721 71.1006C211.525 71.3695 211.374 71.6589 211.27 71.9688C211.165 72.2741 211.108 72.5658 211.099 72.8438ZM218.488 69.6035L220.484 72.5908L222.487 69.6035H223.458L220.949 73.2266L223.561 77H222.604L220.491 73.876L218.386 77H217.429L220.04 73.2266L217.531 69.6035H218.488ZM224.401 73.418V73.1924C224.401 72.6546 224.479 72.1579 224.634 71.7021C224.789 71.2464 225.01 70.8522 225.297 70.5195C225.589 70.1868 225.937 69.9294 226.343 69.7471C226.748 69.5602 227.2 69.4668 227.696 69.4668C228.198 69.4668 228.651 69.5602 229.057 69.7471C229.462 69.9294 229.811 70.1868 230.103 70.5195C230.394 70.8522 230.618 71.2464 230.772 71.7021C230.927 72.1579 231.005 72.6546 231.005 73.1924V73.418C231.005 73.9557 230.927 74.4525 230.772 74.9082C230.618 75.3594 230.394 75.7513 230.103 76.084C229.815 76.4167 229.469 76.6764 229.063 76.8633C228.658 77.0456 228.207 77.1367 227.71 77.1367C227.209 77.1367 226.755 77.0456 226.35 76.8633C225.944 76.6764 225.595 76.4167 225.304 76.084C225.012 75.7513 224.789 75.3594 224.634 74.9082C224.479 74.4525 224.401 73.9557 224.401 73.418ZM225.215 73.1924V73.418C225.215 73.8236 225.27 74.2087 225.379 74.5732C225.488 74.9333 225.648 75.2546 225.857 75.5371C226.067 75.8151 226.327 76.0339 226.637 76.1934C226.947 76.3529 227.304 76.4326 227.71 76.4326C228.111 76.4326 228.464 76.3529 228.77 76.1934C229.079 76.0339 229.339 75.8151 229.549 75.5371C229.758 75.2546 229.916 74.9333 230.021 74.5732C230.13 74.2087 230.185 73.8236 230.185 73.418V73.1924C230.185 72.7913 230.13 72.4108 230.021 72.0508C229.916 71.6908 229.756 71.3695 229.542 71.0869C229.332 70.8044 229.073 70.5811 228.763 70.417C228.453 70.2529 228.097 70.1709 227.696 70.1709C227.295 70.1709 226.94 70.2529 226.63 70.417C226.325 70.5811 226.065 70.8044 225.851 71.0869C225.641 71.3695 225.481 71.6908 225.372 72.0508C225.267 72.4108 225.215 72.7913 225.215 73.1924ZM233.609 69.6035V77H232.796V69.6035H233.609ZM232.652 67.4639C232.652 67.3089 232.7 67.179 232.796 67.0742C232.896 66.9648 233.033 66.9102 233.206 66.9102C233.379 66.9102 233.516 66.9648 233.616 67.0742C233.721 67.179 233.773 67.3089 233.773 67.4639C233.773 67.6143 233.721 67.7441 233.616 67.8535C233.516 67.9583 233.379 68.0107 233.206 68.0107C233.033 68.0107 232.896 67.9583 232.796 67.8535C232.7 67.7441 232.652 67.6143 232.652 67.4639ZM240.343 75.6738V71.8594C240.343 71.5085 240.27 71.2054 240.124 70.9502C239.978 70.695 239.764 70.499 239.481 70.3623C239.199 70.2256 238.85 70.1572 238.436 70.1572C238.053 70.1572 237.711 70.2256 237.41 70.3623C237.114 70.4945 236.879 70.6745 236.706 70.9023C236.537 71.1257 236.453 71.374 236.453 71.6475L235.633 71.6406C235.633 71.3626 235.701 71.0938 235.838 70.834C235.975 70.5742 236.168 70.3418 236.419 70.1367C236.67 69.9316 236.968 69.7699 237.314 69.6514C237.665 69.5283 238.05 69.4668 238.47 69.4668C238.998 69.4668 239.463 69.5557 239.864 69.7334C240.27 69.9111 240.587 70.1777 240.814 70.5332C241.042 70.8887 241.156 71.3353 241.156 71.873V75.4482C241.156 75.7035 241.174 75.9678 241.211 76.2412C241.252 76.5146 241.309 76.7402 241.382 76.918V77H240.514C240.459 76.8359 240.416 76.6309 240.384 76.3848C240.356 76.1341 240.343 75.8971 240.343 75.6738ZM240.534 72.6934L240.548 73.3223H238.941C238.522 73.3223 238.146 73.361 237.813 73.4385C237.485 73.5114 237.207 73.6208 236.979 73.7666C236.752 73.9079 236.576 74.0788 236.453 74.2793C236.335 74.4798 236.275 74.7077 236.275 74.9629C236.275 75.2272 236.341 75.4688 236.474 75.6875C236.61 75.9062 236.802 76.0817 237.048 76.2139C237.299 76.3415 237.595 76.4053 237.937 76.4053C238.392 76.4053 238.793 76.321 239.14 76.1523C239.491 75.9837 239.78 75.7627 240.008 75.4893C240.236 75.2158 240.388 74.9173 240.466 74.5938L240.821 75.0654C240.762 75.2933 240.653 75.528 240.493 75.7695C240.338 76.0065 240.135 76.2298 239.885 76.4395C239.634 76.6445 239.338 76.8132 238.996 76.9453C238.659 77.0729 238.276 77.1367 237.848 77.1367C237.365 77.1367 236.943 77.0456 236.583 76.8633C236.228 76.681 235.95 76.4326 235.749 76.1182C235.553 75.7992 235.455 75.4391 235.455 75.0381C235.455 74.6735 235.533 74.3477 235.688 74.0605C235.842 73.7689 236.066 73.5228 236.357 73.3223C236.654 73.1172 237.009 72.9622 237.424 72.8574C237.843 72.748 238.312 72.6934 238.832 72.6934H240.534ZM244.164 71.1826V77H243.351V69.6035H244.13L244.164 71.1826ZM243.979 72.8438L243.617 72.6387C243.645 72.2012 243.733 71.791 243.884 71.4082C244.034 71.0254 244.237 70.6882 244.492 70.3965C244.752 70.1048 245.055 69.877 245.401 69.7129C245.752 69.5488 246.14 69.4668 246.563 69.4668C246.933 69.4668 247.263 69.5169 247.555 69.6172C247.846 69.7174 248.095 69.877 248.3 70.0957C248.505 70.3145 248.66 70.5947 248.765 70.9365C248.874 71.2783 248.929 71.6953 248.929 72.1875V77H248.108V72.1807C248.108 71.6702 248.038 71.2715 247.896 70.9844C247.755 70.6927 247.555 70.4854 247.295 70.3623C247.035 70.2393 246.728 70.1777 246.372 70.1777C245.98 70.1777 245.636 70.2643 245.34 70.4375C245.048 70.6061 244.802 70.8271 244.602 71.1006C244.406 71.3695 244.255 71.6589 244.15 71.9688C244.046 72.2741 243.989 72.5658 243.979 72.8438ZM251.369 69.6035L253.365 72.5908L255.368 69.6035H256.339L253.83 73.2266L256.441 77H255.484L253.372 73.876L251.267 77H250.31L252.921 73.2266L250.412 69.6035H251.369ZM257.282 73.418V73.1924C257.282 72.6546 257.36 72.1579 257.515 71.7021C257.67 71.2464 257.891 70.8522 258.178 70.5195C258.469 70.1868 258.818 69.9294 259.224 69.7471C259.629 69.5602 260.08 69.4668 260.577 69.4668C261.078 69.4668 261.532 69.5602 261.938 69.7471C262.343 69.9294 262.692 70.1868 262.983 70.5195C263.275 70.8522 263.498 71.2464 263.653 71.7021C263.808 72.1579 263.886 72.6546 263.886 73.1924V73.418C263.886 73.9557 263.808 74.4525 263.653 74.9082C263.498 75.3594 263.275 75.7513 262.983 76.084C262.696 76.4167 262.35 76.6764 261.944 76.8633C261.539 77.0456 261.088 77.1367 260.591 77.1367C260.09 77.1367 259.636 77.0456 259.23 76.8633C258.825 76.6764 258.476 76.4167 258.185 76.084C257.893 75.7513 257.67 75.3594 257.515 74.9082C257.36 74.4525 257.282 73.9557 257.282 73.418ZM258.096 73.1924V73.418C258.096 73.8236 258.15 74.2087 258.26 74.5732C258.369 74.9333 258.529 75.2546 258.738 75.5371C258.948 75.8151 259.208 76.0339 259.518 76.1934C259.827 76.3529 260.185 76.4326 260.591 76.4326C260.992 76.4326 261.345 76.3529 261.65 76.1934C261.96 76.0339 262.22 75.8151 262.43 75.5371C262.639 75.2546 262.797 74.9333 262.901 74.5732C263.011 74.2087 263.065 73.8236 263.065 73.418V73.1924C263.065 72.7913 263.011 72.4108 262.901 72.0508C262.797 71.6908 262.637 71.3695 262.423 71.0869C262.213 70.8044 261.953 70.5811 261.644 70.417C261.334 70.2529 260.978 70.1709 260.577 70.1709C260.176 70.1709 259.821 70.2529 259.511 70.417C259.205 70.5811 258.946 70.8044 258.731 71.0869C258.522 71.3695 258.362 71.6908 258.253 72.0508C258.148 72.4108 258.096 72.7913 258.096 73.1924ZM266.49 69.6035V77H265.677V69.6035H266.49ZM265.533 67.4639C265.533 67.3089 265.581 67.179 265.677 67.0742C265.777 66.9648 265.914 66.9102 266.087 66.9102C266.26 66.9102 266.397 66.9648 266.497 67.0742C266.602 67.179 266.654 67.3089 266.654 67.4639C266.654 67.6143 266.602 67.7441 266.497 67.8535C266.397 67.9583 266.26 68.0107 266.087 68.0107C265.914 68.0107 265.777 67.9583 265.677 67.8535C265.581 67.7441 265.533 67.6143 265.533 67.4639ZM273.224 75.6738V71.8594C273.224 71.5085 273.151 71.2054 273.005 70.9502C272.859 70.695 272.645 70.499 272.362 70.3623C272.08 70.2256 271.731 70.1572 271.316 70.1572C270.934 70.1572 270.592 70.2256 270.291 70.3623C269.995 70.4945 269.76 70.6745 269.587 70.9023C269.418 71.1257 269.334 71.374 269.334 71.6475L268.514 71.6406C268.514 71.3626 268.582 71.0938 268.719 70.834C268.855 70.5742 269.049 70.3418 269.3 70.1367C269.55 69.9316 269.849 69.7699 270.195 69.6514C270.546 69.5283 270.931 69.4668 271.351 69.4668C271.879 69.4668 272.344 69.5557 272.745 69.7334C273.151 69.9111 273.467 70.1777 273.695 70.5332C273.923 70.8887 274.037 71.3353 274.037 71.873V75.4482C274.037 75.7035 274.055 75.9678 274.092 76.2412C274.133 76.5146 274.19 76.7402 274.263 76.918V77H273.395C273.34 76.8359 273.297 76.6309 273.265 76.3848C273.237 76.1341 273.224 75.8971 273.224 75.6738ZM273.415 72.6934L273.429 73.3223H271.822C271.403 73.3223 271.027 73.361 270.694 73.4385C270.366 73.5114 270.088 73.6208 269.86 73.7666C269.632 73.9079 269.457 74.0788 269.334 74.2793C269.215 74.4798 269.156 74.7077 269.156 74.9629C269.156 75.2272 269.222 75.4688 269.354 75.6875C269.491 75.9062 269.683 76.0817 269.929 76.2139C270.179 76.3415 270.476 76.4053 270.817 76.4053C271.273 76.4053 271.674 76.321 272.021 76.1523C272.371 75.9837 272.661 75.7627 272.889 75.4893C273.117 75.2158 273.269 74.9173 273.347 74.5938L273.702 75.0654C273.643 75.2933 273.534 75.528 273.374 75.7695C273.219 76.0065 273.016 76.2298 272.766 76.4395C272.515 76.6445 272.219 76.8132 271.877 76.9453C271.54 77.0729 271.157 77.1367 270.729 77.1367C270.245 77.1367 269.824 77.0456 269.464 76.8633C269.108 76.681 268.83 76.4326 268.63 76.1182C268.434 75.7992 268.336 75.4391 268.336 75.0381C268.336 74.6735 268.413 74.3477 268.568 74.0605C268.723 73.7689 268.947 73.5228 269.238 73.3223C269.535 73.1172 269.89 72.9622 270.305 72.8574C270.724 72.748 271.193 72.6934 271.713 72.6934H273.415ZM280.661 75.1133C280.661 74.9128 280.611 74.7145 280.511 74.5186C280.41 74.3226 280.217 74.1426 279.93 73.9785C279.647 73.8145 279.23 73.6755 278.679 73.5615C278.269 73.4704 277.902 73.3678 277.578 73.2539C277.259 73.14 276.99 73.0033 276.771 72.8438C276.553 72.6842 276.386 72.4928 276.272 72.2695C276.159 72.0462 276.102 71.7819 276.102 71.4766C276.102 71.2031 276.161 70.9456 276.279 70.7041C276.402 70.458 276.576 70.2438 276.799 70.0615C277.027 69.8747 277.3 69.7288 277.619 69.624C277.943 69.5192 278.305 69.4668 278.706 69.4668C279.276 69.4668 279.763 69.5648 280.169 69.7607C280.579 69.9521 280.891 70.2142 281.105 70.5469C281.324 70.8796 281.434 71.2555 281.434 71.6748H280.62C280.62 71.4196 280.545 71.1781 280.395 70.9502C280.249 70.7223 280.032 70.5355 279.745 70.3896C279.463 70.2438 279.116 70.1709 278.706 70.1709C278.282 70.1709 277.938 70.2347 277.674 70.3623C277.41 70.4899 277.216 70.6517 277.093 70.8477C276.974 71.0436 276.915 71.2464 276.915 71.4561C276.915 71.6201 276.94 71.7705 276.99 71.9072C277.045 72.0394 277.141 72.1624 277.277 72.2764C277.419 72.3903 277.619 72.4974 277.879 72.5977C278.139 72.6979 278.476 72.7959 278.891 72.8916C279.488 73.0238 279.975 73.1855 280.354 73.377C280.736 73.5638 281.019 73.7962 281.201 74.0742C281.383 74.3477 281.475 74.6803 281.475 75.0723C281.475 75.3776 281.411 75.6579 281.283 75.9131C281.156 76.1637 280.971 76.3802 280.729 76.5625C280.493 76.7448 280.205 76.8861 279.868 76.9863C279.535 77.0866 279.162 77.1367 278.747 77.1367C278.123 77.1367 277.594 77.0342 277.161 76.8291C276.733 76.6195 276.407 76.346 276.184 76.0088C275.965 75.667 275.855 75.3047 275.855 74.9219H276.669C276.696 75.3047 276.817 75.6077 277.031 75.8311C277.245 76.0498 277.507 76.2048 277.817 76.2959C278.132 76.387 278.442 76.4326 278.747 76.4326C279.166 76.4326 279.517 76.3711 279.8 76.248C280.082 76.125 280.297 75.9632 280.442 75.7627C280.588 75.5622 280.661 75.3457 280.661 75.1133ZM284.141 71.1826V77H283.327V69.6035H284.106L284.141 71.1826ZM283.956 72.8438L283.594 72.6387C283.621 72.2012 283.71 71.791 283.86 71.4082C284.011 71.0254 284.214 70.6882 284.469 70.3965C284.729 70.1048 285.032 69.877 285.378 69.7129C285.729 69.5488 286.116 69.4668 286.54 69.4668C286.909 69.4668 287.24 69.5169 287.531 69.6172C287.823 69.7174 288.071 69.877 288.276 70.0957C288.481 70.3145 288.636 70.5947 288.741 70.9365C288.851 71.2783 288.905 71.6953 288.905 72.1875V77H288.085V72.1807C288.085 71.6702 288.014 71.2715 287.873 70.9844C287.732 70.6927 287.531 70.4854 287.271 70.3623C287.012 70.2393 286.704 70.1777 286.349 70.1777C285.957 70.1777 285.613 70.2643 285.316 70.4375C285.025 70.6061 284.779 70.8271 284.578 71.1006C284.382 71.3695 284.232 71.6589 284.127 71.9688C284.022 72.2741 283.965 72.5658 283.956 72.8438ZM126.395 85.6035L128.391 88.5908L130.394 85.6035H131.364L128.855 89.2266L131.467 93H130.51L128.397 89.876L126.292 93H125.335L127.946 89.2266L125.438 85.6035H126.395ZM132.308 89.418V89.1924C132.308 88.6546 132.385 88.1579 132.54 87.7021C132.695 87.2464 132.916 86.8522 133.203 86.5195C133.495 86.1868 133.843 85.9294 134.249 85.7471C134.655 85.5602 135.106 85.4668 135.603 85.4668C136.104 85.4668 136.557 85.5602 136.963 85.7471C137.368 85.9294 137.717 86.1868 138.009 86.5195C138.3 86.8522 138.524 87.2464 138.679 87.7021C138.834 88.1579 138.911 88.6546 138.911 89.1924V89.418C138.911 89.9557 138.834 90.4525 138.679 90.9082C138.524 91.3594 138.3 91.7513 138.009 92.084C137.722 92.4167 137.375 92.6764 136.97 92.8633C136.564 93.0456 136.113 93.1367 135.616 93.1367C135.115 93.1367 134.661 93.0456 134.256 92.8633C133.85 92.6764 133.502 92.4167 133.21 92.084C132.918 91.7513 132.695 91.3594 132.54 90.9082C132.385 90.4525 132.308 89.9557 132.308 89.418ZM133.121 89.1924V89.418C133.121 89.8236 133.176 90.2087 133.285 90.5732C133.395 90.9333 133.554 91.2546 133.764 91.5371C133.973 91.8151 134.233 92.0339 134.543 92.1934C134.853 92.3529 135.211 92.4326 135.616 92.4326C136.017 92.4326 136.37 92.3529 136.676 92.1934C136.986 92.0339 137.245 91.8151 137.455 91.5371C137.665 91.2546 137.822 90.9333 137.927 90.5732C138.036 90.2087 138.091 89.8236 138.091 89.418V89.1924C138.091 88.7913 138.036 88.4108 137.927 88.0508C137.822 87.6908 137.662 87.3695 137.448 87.0869C137.239 86.8044 136.979 86.5811 136.669 86.417C136.359 86.2529 136.004 86.1709 135.603 86.1709C135.201 86.1709 134.846 86.2529 134.536 86.417C134.231 86.5811 133.971 86.8044 133.757 87.0869C133.547 87.3695 133.388 87.6908 133.278 88.0508C133.174 88.4108 133.121 88.7913 133.121 89.1924ZM141.516 85.6035V93H140.702V85.6035H141.516ZM140.559 83.4639C140.559 83.3089 140.606 83.179 140.702 83.0742C140.802 82.9648 140.939 82.9102 141.112 82.9102C141.285 82.9102 141.422 82.9648 141.522 83.0742C141.627 83.179 141.68 83.3089 141.68 83.4639C141.68 83.6143 141.627 83.7441 141.522 83.8535C141.422 83.9583 141.285 84.0107 141.112 84.0107C140.939 84.0107 140.802 83.9583 140.702 83.8535C140.606 83.7441 140.559 83.6143 140.559 83.4639ZM148.249 91.6738V87.8594C148.249 87.5085 148.176 87.2054 148.03 86.9502C147.884 86.695 147.67 86.499 147.388 86.3623C147.105 86.2256 146.757 86.1572 146.342 86.1572C145.959 86.1572 145.617 86.2256 145.316 86.3623C145.02 86.4945 144.785 86.6745 144.612 86.9023C144.444 87.1257 144.359 87.374 144.359 87.6475L143.539 87.6406C143.539 87.3626 143.607 87.0938 143.744 86.834C143.881 86.5742 144.075 86.3418 144.325 86.1367C144.576 85.9316 144.874 85.7699 145.221 85.6514C145.572 85.5283 145.957 85.4668 146.376 85.4668C146.905 85.4668 147.369 85.5557 147.771 85.7334C148.176 85.9111 148.493 86.1777 148.721 86.5332C148.949 86.8887 149.062 87.3353 149.062 87.873V91.4482C149.062 91.7035 149.081 91.9678 149.117 92.2412C149.158 92.5146 149.215 92.7402 149.288 92.918V93H148.42C148.365 92.8359 148.322 92.6309 148.29 92.3848C148.263 92.1341 148.249 91.8971 148.249 91.6738ZM148.44 88.6934L148.454 89.3223H146.848C146.428 89.3223 146.052 89.361 145.72 89.4385C145.392 89.5114 145.114 89.6208 144.886 89.7666C144.658 89.9079 144.482 90.0788 144.359 90.2793C144.241 90.4798 144.182 90.7077 144.182 90.9629C144.182 91.2272 144.248 91.4688 144.38 91.6875C144.517 91.9062 144.708 92.0817 144.954 92.2139C145.205 92.3415 145.501 92.4053 145.843 92.4053C146.299 92.4053 146.7 92.321 147.046 92.1523C147.397 91.9837 147.686 91.7627 147.914 91.4893C148.142 91.2158 148.295 90.9173 148.372 90.5938L148.728 91.0654C148.668 91.2933 148.559 91.528 148.399 91.7695C148.244 92.0065 148.042 92.2298 147.791 92.4395C147.54 92.6445 147.244 92.8132 146.902 92.9453C146.565 93.0729 146.182 93.1367 145.754 93.1367C145.271 93.1367 144.849 93.0456 144.489 92.8633C144.134 92.681 143.856 92.4326 143.655 92.1182C143.459 91.7992 143.361 91.4391 143.361 91.0381C143.361 90.6735 143.439 90.3477 143.594 90.0605C143.749 89.7689 143.972 89.5228 144.264 89.3223C144.56 89.1172 144.915 88.9622 145.33 88.8574C145.749 88.748 146.219 88.6934 146.738 88.6934H148.44ZM151.578 85.6035L153.574 88.5908L155.577 85.6035H156.548L154.039 89.2266L156.65 93H155.693L153.581 89.876L151.476 93H150.519L153.13 89.2266L150.621 85.6035H151.578ZM158.893 87.1826V93H158.079V85.6035H158.858L158.893 87.1826ZM158.708 88.8438L158.346 88.6387C158.373 88.2012 158.462 87.791 158.612 87.4082C158.763 87.0254 158.965 86.6882 159.221 86.3965C159.48 86.1048 159.784 85.877 160.13 85.7129C160.481 85.5488 160.868 85.4668 161.292 85.4668C161.661 85.4668 161.992 85.5169 162.283 85.6172C162.575 85.7174 162.823 85.877 163.028 86.0957C163.233 86.3145 163.388 86.5947 163.493 86.9365C163.603 87.2783 163.657 87.6953 163.657 88.1875V93H162.837V88.1807C162.837 87.6702 162.766 87.2715 162.625 86.9844C162.484 86.6927 162.283 86.4854 162.023 86.3623C161.764 86.2393 161.456 86.1777 161.101 86.1777C160.709 86.1777 160.365 86.2643 160.068 86.4375C159.777 86.6061 159.531 86.8271 159.33 87.1006C159.134 87.3695 158.984 87.6589 158.879 87.9688C158.774 88.2741 158.717 88.5658 158.708 88.8438ZM165.325 89.418V89.1924C165.325 88.6546 165.403 88.1579 165.558 87.7021C165.713 87.2464 165.934 86.8522 166.221 86.5195C166.512 86.1868 166.861 85.9294 167.267 85.7471C167.672 85.5602 168.123 85.4668 168.62 85.4668C169.121 85.4668 169.575 85.5602 169.98 85.7471C170.386 85.9294 170.735 86.1868 171.026 86.5195C171.318 86.8522 171.541 87.2464 171.696 87.7021C171.851 88.1579 171.929 88.6546 171.929 89.1924V89.418C171.929 89.9557 171.851 90.4525 171.696 90.9082C171.541 91.3594 171.318 91.7513 171.026 92.084C170.739 92.4167 170.393 92.6764 169.987 92.8633C169.582 93.0456 169.131 93.1367 168.634 93.1367C168.132 93.1367 167.679 93.0456 167.273 92.8633C166.868 92.6764 166.519 92.4167 166.228 92.084C165.936 91.7513 165.713 91.3594 165.558 90.9082C165.403 90.4525 165.325 89.9557 165.325 89.418ZM166.139 89.1924V89.418C166.139 89.8236 166.193 90.2087 166.303 90.5732C166.412 90.9333 166.572 91.2546 166.781 91.5371C166.991 91.8151 167.251 92.0339 167.561 92.1934C167.87 92.3529 168.228 92.4326 168.634 92.4326C169.035 92.4326 169.388 92.3529 169.693 92.1934C170.003 92.0339 170.263 91.8151 170.473 91.5371C170.682 91.2546 170.84 90.9333 170.944 90.5732C171.054 90.2087 171.108 89.8236 171.108 89.418V89.1924C171.108 88.7913 171.054 88.4108 170.944 88.0508C170.84 87.6908 170.68 87.3695 170.466 87.0869C170.256 86.8044 169.996 86.5811 169.687 86.417C169.377 86.2529 169.021 86.1709 168.62 86.1709C168.219 86.1709 167.864 86.2529 167.554 86.417C167.248 86.5811 166.989 86.8044 166.774 87.0869C166.565 87.3695 166.405 87.6908 166.296 88.0508C166.191 88.4108 166.139 88.7913 166.139 89.1924ZM174.533 85.6035V93H173.72V85.6035H174.533ZM173.576 83.4639C173.576 83.3089 173.624 83.179 173.72 83.0742C173.82 82.9648 173.957 82.9102 174.13 82.9102C174.303 82.9102 174.44 82.9648 174.54 83.0742C174.645 83.179 174.697 83.3089 174.697 83.4639C174.697 83.6143 174.645 83.7441 174.54 83.8535C174.44 83.9583 174.303 84.0107 174.13 84.0107C173.957 84.0107 173.82 83.9583 173.72 83.8535C173.624 83.7441 173.576 83.6143 173.576 83.4639ZM181.267 91.6738V87.8594C181.267 87.5085 181.194 87.2054 181.048 86.9502C180.902 86.695 180.688 86.499 180.405 86.3623C180.123 86.2256 179.774 86.1572 179.359 86.1572C178.977 86.1572 178.635 86.2256 178.334 86.3623C178.038 86.4945 177.803 86.6745 177.63 86.9023C177.461 87.1257 177.377 87.374 177.377 87.6475L176.557 87.6406C176.557 87.3626 176.625 87.0938 176.762 86.834C176.898 86.5742 177.092 86.3418 177.343 86.1367C177.593 85.9316 177.892 85.7699 178.238 85.6514C178.589 85.5283 178.974 85.4668 179.394 85.4668C179.922 85.4668 180.387 85.5557 180.788 85.7334C181.194 85.9111 181.51 86.1777 181.738 86.5332C181.966 86.8887 182.08 87.3353 182.08 87.873V91.4482C182.08 91.7035 182.098 91.9678 182.135 92.2412C182.176 92.5146 182.233 92.7402 182.306 92.918V93H181.438C181.383 92.8359 181.34 92.6309 181.308 92.3848C181.28 92.1341 181.267 91.8971 181.267 91.6738ZM181.458 88.6934L181.472 89.3223H179.865C179.446 89.3223 179.07 89.361 178.737 89.4385C178.409 89.5114 178.131 89.6208 177.903 89.7666C177.675 89.9079 177.5 90.0788 177.377 90.2793C177.258 90.4798 177.199 90.7077 177.199 90.9629C177.199 91.2272 177.265 91.4688 177.397 91.6875C177.534 91.9062 177.726 92.0817 177.972 92.2139C178.222 92.3415 178.519 92.4053 178.86 92.4053C179.316 92.4053 179.717 92.321 180.063 92.1523C180.414 91.9837 180.704 91.7627 180.932 91.4893C181.16 91.2158 181.312 90.9173 181.39 90.5938L181.745 91.0654C181.686 91.2933 181.576 91.528 181.417 91.7695C181.262 92.0065 181.059 92.2298 180.809 92.4395C180.558 92.6445 180.262 92.8132 179.92 92.9453C179.583 93.0729 179.2 93.1367 178.771 93.1367C178.288 93.1367 177.867 93.0456 177.507 92.8633C177.151 92.681 176.873 92.4326 176.673 92.1182C176.477 91.7992 176.379 91.4391 176.379 91.0381C176.379 90.6735 176.456 90.3477 176.611 90.0605C176.766 89.7689 176.99 89.5228 177.281 89.3223C177.577 89.1172 177.933 88.9622 178.348 88.8574C178.767 88.748 179.236 88.6934 179.756 88.6934H181.458ZM188.704 91.1133C188.704 90.9128 188.654 90.7145 188.554 90.5186C188.453 90.3226 188.26 90.1426 187.973 89.9785C187.69 89.8145 187.273 89.6755 186.722 89.5615C186.312 89.4704 185.945 89.3678 185.621 89.2539C185.302 89.14 185.033 89.0033 184.814 88.8438C184.596 88.6842 184.429 88.4928 184.315 88.2695C184.201 88.0462 184.145 87.7819 184.145 87.4766C184.145 87.2031 184.204 86.9456 184.322 86.7041C184.445 86.458 184.618 86.2438 184.842 86.0615C185.07 85.8747 185.343 85.7288 185.662 85.624C185.986 85.5192 186.348 85.4668 186.749 85.4668C187.319 85.4668 187.806 85.5648 188.212 85.7607C188.622 85.9521 188.934 86.2142 189.148 86.5469C189.367 86.8796 189.477 87.2555 189.477 87.6748H188.663C188.663 87.4196 188.588 87.1781 188.438 86.9502C188.292 86.7223 188.075 86.5355 187.788 86.3896C187.506 86.2438 187.159 86.1709 186.749 86.1709C186.325 86.1709 185.981 86.2347 185.717 86.3623C185.452 86.4899 185.259 86.6517 185.136 86.8477C185.017 87.0436 184.958 87.2464 184.958 87.4561C184.958 87.6201 184.983 87.7705 185.033 87.9072C185.088 88.0394 185.184 88.1624 185.32 88.2764C185.462 88.3903 185.662 88.4974 185.922 88.5977C186.182 88.6979 186.519 88.7959 186.934 88.8916C187.531 89.0238 188.018 89.1855 188.396 89.377C188.779 89.5638 189.062 89.7962 189.244 90.0742C189.426 90.3477 189.518 90.6803 189.518 91.0723C189.518 91.3776 189.454 91.6579 189.326 91.9131C189.199 92.1637 189.014 92.3802 188.772 92.5625C188.535 92.7448 188.248 92.8861 187.911 92.9863C187.578 93.0866 187.205 93.1367 186.79 93.1367C186.166 93.1367 185.637 93.0342 185.204 92.8291C184.776 92.6195 184.45 92.346 184.227 92.0088C184.008 91.667 183.898 91.3047 183.898 90.9219H184.712C184.739 91.3047 184.86 91.6077 185.074 91.8311C185.288 92.0498 185.55 92.2048 185.86 92.2959C186.175 92.387 186.485 92.4326 186.79 92.4326C187.209 92.4326 187.56 92.3711 187.843 92.248C188.125 92.125 188.34 91.9632 188.485 91.7627C188.631 91.5622 188.704 91.3457 188.704 91.1133ZM192.184 87.1826V93H191.37V85.6035H192.149L192.184 87.1826ZM191.999 88.8438L191.637 88.6387C191.664 88.2012 191.753 87.791 191.903 87.4082C192.054 87.0254 192.257 86.6882 192.512 86.3965C192.771 86.1048 193.075 85.877 193.421 85.7129C193.772 85.5488 194.159 85.4668 194.583 85.4668C194.952 85.4668 195.283 85.5169 195.574 85.6172C195.866 85.7174 196.114 85.877 196.319 86.0957C196.524 86.3145 196.679 86.5947 196.784 86.9365C196.894 87.2783 196.948 87.6953 196.948 88.1875V93H196.128V88.1807C196.128 87.6702 196.057 87.2715 195.916 86.9844C195.775 86.6927 195.574 86.4854 195.314 86.3623C195.055 86.2393 194.747 86.1777 194.392 86.1777C194 86.1777 193.656 86.2643 193.359 86.4375C193.068 86.6061 192.822 86.8271 192.621 87.1006C192.425 87.3695 192.275 87.6589 192.17 87.9688C192.065 88.2741 192.008 88.5658 191.999 88.8438ZM199.389 85.6035L201.385 88.5908L203.388 85.6035H204.358L201.85 89.2266L204.461 93H203.504L201.392 89.876L199.286 93H198.329L200.94 89.2266L198.432 85.6035H199.389ZM210.388 91.6738V87.8594C210.388 87.5085 210.315 87.2054 210.169 86.9502C210.023 86.695 209.809 86.499 209.526 86.3623C209.244 86.2256 208.895 86.1572 208.48 86.1572C208.098 86.1572 207.756 86.2256 207.455 86.3623C207.159 86.4945 206.924 86.6745 206.751 86.9023C206.582 87.1257 206.498 87.374 206.498 87.6475L205.678 87.6406C205.678 87.3626 205.746 87.0938 205.883 86.834C206.02 86.5742 206.213 86.3418 206.464 86.1367C206.715 85.9316 207.013 85.7699 207.359 85.6514C207.71 85.5283 208.095 85.4668 208.515 85.4668C209.043 85.4668 209.508 85.5557 209.909 85.7334C210.315 85.9111 210.632 86.1777 210.859 86.5332C211.087 86.8887 211.201 87.3353 211.201 87.873V91.4482C211.201 91.7035 211.219 91.9678 211.256 92.2412C211.297 92.5146 211.354 92.7402 211.427 92.918V93H210.559C210.504 92.8359 210.461 92.6309 210.429 92.3848C210.401 92.1341 210.388 91.8971 210.388 91.6738ZM210.579 88.6934L210.593 89.3223H208.986C208.567 89.3223 208.191 89.361 207.858 89.4385C207.53 89.5114 207.252 89.6208 207.024 89.7666C206.797 89.9079 206.621 90.0788 206.498 90.2793C206.38 90.4798 206.32 90.7077 206.32 90.9629C206.32 91.2272 206.386 91.4688 206.519 91.6875C206.655 91.9062 206.847 92.0817 207.093 92.2139C207.343 92.3415 207.64 92.4053 207.981 92.4053C208.437 92.4053 208.838 92.321 209.185 92.1523C209.535 91.9837 209.825 91.7627 210.053 91.4893C210.281 91.2158 210.433 90.9173 210.511 90.5938L210.866 91.0654C210.807 91.2933 210.698 91.528 210.538 91.7695C210.383 92.0065 210.18 92.2298 209.93 92.4395C209.679 92.6445 209.383 92.8132 209.041 92.9453C208.704 93.0729 208.321 93.1367 207.893 93.1367C207.41 93.1367 206.988 93.0456 206.628 92.8633C206.272 92.681 205.994 92.4326 205.794 92.1182C205.598 91.7992 205.5 91.4391 205.5 91.0381C205.5 90.6735 205.577 90.3477 205.732 90.0605C205.887 89.7689 206.111 89.5228 206.402 89.3223C206.699 89.1172 207.054 88.9622 207.469 88.8574C207.888 88.748 208.357 88.6934 208.877 88.6934H210.579Z" fill="white"/>
<path fill-rule="evenodd" clip-rule="evenodd" d="M45.565 22H80.435C84.6847 22 86.8077 22 88.5237 22.6031C90.1416 23.1817 91.6056 24.129 92.8017 25.3713C93.9979 26.6136 94.8941 28.1175 95.4207 29.7661C96 31.5495 96 33.7546 96 38.1686V89.9823C96 93.1568 92.3883 94.844 90.104 92.7351C89.4631 92.1375 88.6226 91.8056 87.75 91.8056C86.8774 91.8056 86.0369 92.1375 85.396 92.7351L83.625 94.3704C82.5022 95.4181 81.0292 96 79.5 96C77.9708 96 76.4978 95.4181 75.375 94.3704C74.2522 93.3227 72.7792 92.7408 71.25 92.7408C69.7208 92.7408 68.2478 93.3227 67.125 94.3704C66.0022 95.4181 64.5292 96 63 96C61.4708 96 59.9978 95.4181 58.875 94.3704C57.7522 93.3227 56.2792 92.7408 54.75 92.7408C53.2208 92.7408 51.7478 93.3227 50.625 94.3704C49.5022 95.4181 48.0292 96 46.5 96C44.9708 96 43.4978 95.4181 42.375 94.3704L40.604 92.7351C39.9631 92.1375 39.1226 91.8056 38.25 91.8056C37.3774 91.8056 36.5369 92.1375 35.896 92.7351C33.6117 94.844 30 93.1568 30 89.9823V38.1686C30 33.7546 30 31.5458 30.5793 29.7698C31.6793 26.3918 34.2277 23.7427 37.4763 22.6031C39.1923 22 41.3153 22 45.565 22ZM74.22 46.0495C74.4608 45.7774 74.646 45.4601 74.7653 45.1158C74.8845 44.7714 74.9354 44.4067 74.915 44.0425C74.8945 43.6784 74.8032 43.3218 74.6462 42.9932C74.4892 42.6647 74.2696 42.3705 74 42.1276C73.7304 41.8846 73.4159 41.6977 73.0747 41.5773C72.7334 41.457 72.372 41.4057 72.0111 41.4263C71.6502 41.4469 71.2968 41.5391 70.9712 41.6975C70.6456 41.8559 70.3541 42.0775 70.1133 42.3496L59.073 54.8331L55.883 51.2294C55.3955 50.6857 54.7146 50.3589 53.989 50.3203C53.2634 50.2816 52.5522 50.5343 52.0106 51.0231C51.4691 51.5118 51.1412 52.197 51.0987 52.9289C51.0562 53.6608 51.3024 54.38 51.7837 54.9293L57.0197 60.8492C57.2776 61.1407 57.5937 61.3741 57.9473 61.5338C58.3008 61.6936 58.6838 61.7761 59.0712 61.7761C59.4585 61.7761 59.8415 61.6936 60.1951 61.5338C60.5486 61.3741 60.8647 61.1407 61.1227 60.8492L74.22 46.0495ZM46.5 69.174C45.7707 69.174 45.0712 69.4663 44.5555 69.9867C44.0397 70.5071 43.75 71.213 43.75 71.9489C43.75 72.6849 44.0397 73.3907 44.5555 73.9111C45.0712 74.4315 45.7707 74.7239 46.5 74.7239H79.5C80.2293 74.7239 80.9288 74.4315 81.4445 73.9111C81.9603 73.3907 82.25 72.6849 82.25 71.9489C82.25 71.213 81.9603 70.5071 81.4445 69.9867C80.9288 69.4663 80.2293 69.174 79.5 69.174H46.5Z" fill="white"/>
</svg>
