<svg width="346" height="120" viewBox="0 0 346 120" fill="none" xmlns="http://www.w3.org/2000/svg">
<rect width="346" height="120" rx="20" fill="#2A6D4C"/>
<path d="M132.562 22.9375V40H128.449V22.9375H132.562ZM137.695 22.9375V26.1133H123.434V22.9375H137.695ZM142.465 30.4609V40H138.516V27.3203H142.207L142.465 30.4609ZM146.215 27.2266L146.145 30.8945C145.988 30.8789 145.777 30.8594 145.512 30.8359C145.246 30.8125 145.023 30.8008 144.844 30.8008C144.383 30.8008 143.984 30.8555 143.648 30.9648C143.32 31.0664 143.047 31.2227 142.828 31.4336C142.617 31.6367 142.461 31.8945 142.359 32.207C142.266 32.5195 142.223 32.8828 142.23 33.2969L141.516 32.8281C141.516 31.9766 141.598 31.2031 141.762 30.5078C141.934 29.8047 142.176 29.1992 142.488 28.6914C142.801 28.1758 143.18 27.7812 143.625 27.5078C144.07 27.2266 144.57 27.0859 145.125 27.0859C145.32 27.0859 145.512 27.0977 145.699 27.1211C145.895 27.1445 146.066 27.1797 146.215 27.2266ZM153.809 36.8125V31.5859C153.809 31.2266 153.758 30.918 153.656 30.6602C153.555 30.4023 153.395 30.2031 153.176 30.0625C152.957 29.9141 152.664 29.8398 152.297 29.8398C152 29.8398 151.746 29.8906 151.535 29.9922C151.324 30.0938 151.164 30.2461 151.055 30.4492C150.945 30.6523 150.891 30.9102 150.891 31.2227H146.941C146.941 30.6367 147.07 30.0938 147.328 29.5938C147.594 29.0859 147.969 28.6445 148.453 28.2695C148.945 27.8945 149.531 27.6055 150.211 27.4023C150.898 27.1914 151.664 27.0859 152.508 27.0859C153.516 27.0859 154.414 27.2539 155.203 27.5898C156 27.9258 156.629 28.4297 157.09 29.1016C157.551 29.7656 157.781 30.6016 157.781 31.6094V36.8008C157.781 37.6289 157.828 38.2578 157.922 38.6875C158.016 39.1094 158.148 39.4805 158.32 39.8008V40H154.359C154.172 39.6094 154.031 39.1328 153.938 38.5703C153.852 38 153.809 37.4141 153.809 36.8125ZM154.289 32.2539L154.312 34.3633H152.566C152.199 34.3633 151.887 34.4141 151.629 34.5156C151.379 34.6172 151.176 34.7578 151.02 34.9375C150.871 35.1094 150.762 35.3047 150.691 35.5234C150.629 35.7422 150.598 35.9727 150.598 36.2148C150.598 36.4492 150.652 36.6602 150.762 36.8477C150.879 37.0273 151.035 37.168 151.23 37.2695C151.426 37.3711 151.645 37.4219 151.887 37.4219C152.324 37.4219 152.695 37.3398 153 37.1758C153.312 37.0039 153.551 36.7969 153.715 36.5547C153.879 36.3125 153.961 36.0859 153.961 35.875L154.828 37.4922C154.672 37.8047 154.492 38.1211 154.289 38.4414C154.094 38.7617 153.848 39.0586 153.551 39.332C153.262 39.5977 152.906 39.8164 152.484 39.9883C152.062 40.1523 151.551 40.2344 150.949 40.2344C150.168 40.2344 149.449 40.0742 148.793 39.7539C148.145 39.4336 147.625 38.9883 147.234 38.418C146.844 37.8398 146.648 37.1758 146.648 36.4258C146.648 35.7695 146.766 35.1836 147 34.668C147.242 34.1523 147.605 33.7148 148.09 33.3555C148.574 32.9961 149.191 32.7227 149.941 32.5352C150.691 32.3477 151.574 32.2539 152.59 32.2539H154.289ZM163.852 30.0273V40H159.902V27.3203H163.605L163.852 30.0273ZM163.383 33.2266L162.457 33.25C162.457 32.2812 162.574 31.418 162.809 30.6602C163.043 29.8945 163.375 29.2461 163.805 28.7148C164.234 28.1836 164.746 27.7812 165.34 27.5078C165.941 27.2266 166.609 27.0859 167.344 27.0859C167.93 27.0859 168.465 27.1719 168.949 27.3438C169.441 27.5156 169.863 27.793 170.215 28.1758C170.574 28.5586 170.848 29.0664 171.035 29.6992C171.23 30.3242 171.328 31.0977 171.328 32.0195V40H167.355V32.0078C167.355 31.5 167.285 31.1133 167.145 30.8477C167.004 30.5742 166.801 30.3867 166.535 30.2852C166.27 30.1836 165.945 30.1328 165.562 30.1328C165.156 30.1328 164.812 30.2109 164.531 30.3672C164.25 30.5234 164.023 30.7422 163.852 31.0234C163.688 31.2969 163.566 31.6211 163.488 31.9961C163.418 32.3711 163.383 32.7812 163.383 33.2266ZM180.164 36.4375C180.164 36.2188 180.09 36.0312 179.941 35.875C179.801 35.7109 179.551 35.5625 179.191 35.4297C178.832 35.2891 178.328 35.1484 177.68 35.0078C177.062 34.875 176.48 34.6992 175.934 34.4805C175.395 34.2617 174.922 33.9961 174.516 33.6836C174.109 33.3711 173.789 33 173.555 32.5703C173.328 32.1406 173.215 31.6484 173.215 31.0938C173.215 30.5547 173.328 30.0469 173.555 29.5703C173.789 29.0859 174.129 28.6602 174.574 28.293C175.027 27.918 175.578 27.625 176.227 27.4141C176.875 27.1953 177.613 27.0859 178.441 27.0859C179.582 27.0859 180.566 27.2617 181.395 27.6133C182.223 27.957 182.859 28.4414 183.305 29.0664C183.758 29.6836 183.984 30.3984 183.984 31.2109H180.035C180.035 30.8906 179.98 30.6172 179.871 30.3906C179.77 30.1641 179.602 29.9922 179.367 29.875C179.133 29.75 178.82 29.6875 178.43 29.6875C178.156 29.6875 177.906 29.7383 177.68 29.8398C177.461 29.9414 177.285 30.082 177.152 30.2617C177.02 30.4414 176.953 30.6523 176.953 30.8945C176.953 31.0664 176.992 31.2227 177.07 31.3633C177.156 31.4961 177.285 31.6211 177.457 31.7383C177.629 31.8477 177.848 31.9492 178.113 32.043C178.379 32.1289 178.699 32.207 179.074 32.2773C179.926 32.4336 180.723 32.6562 181.465 32.9453C182.207 33.2344 182.809 33.6445 183.27 34.1758C183.738 34.707 183.973 35.4219 183.973 36.3203C183.973 36.8828 183.844 37.4023 183.586 37.8789C183.328 38.3477 182.957 38.7617 182.473 39.1211C181.988 39.4727 181.406 39.7461 180.727 39.9414C180.047 40.1367 179.281 40.2344 178.43 40.2344C177.219 40.2344 176.195 40.0195 175.359 39.5898C174.523 39.1523 173.891 38.6055 173.461 37.9492C173.039 37.2852 172.828 36.6133 172.828 35.9336H176.508C176.523 36.3242 176.617 36.6445 176.789 36.8945C176.969 37.1445 177.207 37.3281 177.504 37.4453C177.801 37.5625 178.145 37.6211 178.535 37.6211C178.895 37.6211 179.191 37.5703 179.426 37.4688C179.668 37.3672 179.852 37.2305 179.977 37.0586C180.102 36.8789 180.164 36.6719 180.164 36.4375ZM189.809 29.7578V44.875H185.859V27.3203H189.539L189.809 29.7578ZM197.59 33.5078V33.7539C197.59 34.6758 197.484 35.5312 197.273 36.3203C197.062 37.1094 196.75 37.7969 196.336 38.3828C195.922 38.9688 195.406 39.4258 194.789 39.7539C194.18 40.0742 193.473 40.2344 192.668 40.2344C191.91 40.2344 191.258 40.0664 190.711 39.7305C190.164 39.3945 189.707 38.9297 189.34 38.3359C188.973 37.7422 188.676 37.0625 188.449 36.2969C188.223 35.5312 188.043 34.7227 187.91 33.8711V33.5547C188.043 32.6406 188.223 31.793 188.449 31.0117C188.676 30.2227 188.973 29.5352 189.34 28.9492C189.707 28.3633 190.16 27.9062 190.699 27.5781C191.246 27.25 191.898 27.0859 192.656 27.0859C193.461 27.0859 194.168 27.2383 194.777 27.543C195.395 27.8477 195.91 28.2852 196.324 28.8555C196.746 29.418 197.062 30.0938 197.273 30.8828C197.484 31.6719 197.59 32.5469 197.59 33.5078ZM193.641 33.7539V33.5078C193.641 33.0156 193.605 32.5664 193.535 32.1602C193.465 31.7461 193.352 31.3867 193.195 31.082C193.047 30.7773 192.848 30.543 192.598 30.3789C192.348 30.2148 192.039 30.1328 191.672 30.1328C191.25 30.1328 190.895 30.1992 190.605 30.332C190.324 30.457 190.098 30.6523 189.926 30.918C189.762 31.1758 189.645 31.5 189.574 31.8906C189.512 32.2734 189.484 32.7227 189.492 33.2383V34.1992C189.477 34.793 189.535 35.3164 189.668 35.7695C189.801 36.2148 190.031 36.5625 190.359 36.8125C190.688 37.0625 191.133 37.1875 191.695 37.1875C192.07 37.1875 192.383 37.1016 192.633 36.9297C192.883 36.75 193.082 36.5039 193.23 36.1914C193.379 35.8711 193.484 35.5039 193.547 35.0898C193.609 34.6758 193.641 34.2305 193.641 33.7539ZM198.855 33.7891V33.543C198.855 32.6133 198.988 31.7578 199.254 30.9766C199.52 30.1875 199.91 29.5039 200.426 28.9258C200.941 28.3477 201.578 27.8984 202.336 27.5781C203.094 27.25 203.969 27.0859 204.961 27.0859C205.961 27.0859 206.84 27.25 207.598 27.5781C208.363 27.8984 209.004 28.3477 209.52 28.9258C210.035 29.5039 210.426 30.1875 210.691 30.9766C210.957 31.7578 211.09 32.6133 211.09 33.543V33.7891C211.09 34.7109 210.957 35.5664 210.691 36.3555C210.426 37.1367 210.035 37.8203 209.52 38.4062C209.004 38.9844 208.367 39.4336 207.609 39.7539C206.852 40.0742 205.977 40.2344 204.984 40.2344C203.992 40.2344 203.113 40.0742 202.348 39.7539C201.582 39.4336 200.941 38.9844 200.426 38.4062C199.91 37.8203 199.52 37.1367 199.254 36.3555C198.988 35.5664 198.855 34.7109 198.855 33.7891ZM202.805 33.543V33.7891C202.805 34.2656 202.84 34.7109 202.91 35.125C202.98 35.5391 203.098 35.9023 203.262 36.2148C203.426 36.5195 203.648 36.7578 203.93 36.9297C204.211 37.1016 204.562 37.1875 204.984 37.1875C205.398 37.1875 205.742 37.1016 206.016 36.9297C206.297 36.7578 206.52 36.5195 206.684 36.2148C206.848 35.9023 206.965 35.5391 207.035 35.125C207.105 34.7109 207.141 34.2656 207.141 33.7891V33.543C207.141 33.082 207.105 32.6484 207.035 32.2422C206.965 31.8281 206.848 31.4648 206.684 31.1523C206.52 30.832 206.297 30.582 206.016 30.4023C205.734 30.2227 205.383 30.1328 204.961 30.1328C204.547 30.1328 204.199 30.2227 203.918 30.4023C203.645 30.582 203.426 30.832 203.262 31.1523C203.098 31.4648 202.98 31.8281 202.91 32.2422C202.84 32.6484 202.805 33.082 202.805 33.543ZM216.832 30.4609V40H212.883V27.3203H216.574L216.832 30.4609ZM220.582 27.2266L220.512 30.8945C220.355 30.8789 220.145 30.8594 219.879 30.8359C219.613 30.8125 219.391 30.8008 219.211 30.8008C218.75 30.8008 218.352 30.8555 218.016 30.9648C217.688 31.0664 217.414 31.2227 217.195 31.4336C216.984 31.6367 216.828 31.8945 216.727 32.207C216.633 32.5195 216.59 32.8828 216.598 33.2969L215.883 32.8281C215.883 31.9766 215.965 31.2031 216.129 30.5078C216.301 29.8047 216.543 29.1992 216.855 28.6914C217.168 28.1758 217.547 27.7812 217.992 27.5078C218.438 27.2266 218.938 27.0859 219.492 27.0859C219.688 27.0859 219.879 27.0977 220.066 27.1211C220.262 27.1445 220.434 27.1797 220.582 27.2266ZM229.207 27.3203V30.0625H221.566V27.3203H229.207ZM223.172 24.168H227.121V35.8633C227.121 36.1992 227.16 36.4609 227.238 36.6484C227.316 36.8281 227.449 36.957 227.637 37.0352C227.832 37.1055 228.09 37.1406 228.41 37.1406C228.637 37.1406 228.824 37.1367 228.973 37.1289C229.121 37.1133 229.262 37.0938 229.395 37.0703V39.8945C229.059 40.0039 228.707 40.0859 228.34 40.1406C227.973 40.2031 227.582 40.2344 227.168 40.2344C226.324 40.2344 225.602 40.1016 225 39.8359C224.406 39.5703 223.953 39.1523 223.641 38.582C223.328 38.0117 223.172 37.2695 223.172 36.3555V24.168ZM236.918 40.2344C235.887 40.2344 234.965 40.0742 234.152 39.7539C233.34 39.4258 232.652 38.9766 232.09 38.4062C231.535 37.8359 231.109 37.1797 230.812 36.4375C230.523 35.6953 230.379 34.9102 230.379 34.082V33.6367C230.379 32.707 230.508 31.8477 230.766 31.0586C231.023 30.2617 231.406 29.5664 231.914 28.9727C232.422 28.3789 233.059 27.918 233.824 27.5898C234.59 27.2539 235.48 27.0859 236.496 27.0859C237.395 27.0859 238.199 27.2305 238.91 27.5195C239.621 27.8086 240.223 28.2227 240.715 28.7617C241.215 29.3008 241.594 29.9531 241.852 30.7188C242.117 31.4844 242.25 32.3438 242.25 33.2969V34.9023H231.891V32.4297H238.395V32.125C238.402 31.7031 238.328 31.3438 238.172 31.0469C238.023 30.75 237.805 30.5234 237.516 30.3672C237.227 30.2109 236.875 30.1328 236.461 30.1328C236.031 30.1328 235.676 30.2266 235.395 30.4141C235.121 30.6016 234.906 30.8594 234.75 31.1875C234.602 31.5078 234.496 31.8789 234.434 32.3008C234.371 32.7227 234.34 33.168 234.34 33.6367V34.082C234.34 34.5508 234.402 34.9766 234.527 35.3594C234.66 35.7422 234.848 36.0703 235.09 36.3438C235.34 36.6094 235.637 36.8164 235.98 36.9648C236.332 37.1133 236.73 37.1875 237.176 37.1875C237.715 37.1875 238.246 37.0859 238.77 36.8828C239.293 36.6797 239.742 36.3438 240.117 35.875L241.91 38.0078C241.652 38.375 241.285 38.7305 240.809 39.0742C240.34 39.418 239.777 39.6992 239.121 39.918C238.465 40.1289 237.73 40.2344 236.918 40.2344Z" fill="white"/>
<path d="M128.571 61.6738V57.8594C128.571 57.5085 128.498 57.2054 128.353 56.9502C128.207 56.695 127.993 56.499 127.71 56.3623C127.427 56.2256 127.079 56.1572 126.664 56.1572C126.281 56.1572 125.939 56.2256 125.639 56.3623C125.342 56.4945 125.108 56.6745 124.935 56.9023C124.766 57.1257 124.682 57.374 124.682 57.6475L123.861 57.6406C123.861 57.3626 123.93 57.0938 124.066 56.834C124.203 56.5742 124.397 56.3418 124.647 56.1367C124.898 55.9316 125.197 55.7699 125.543 55.6514C125.894 55.5283 126.279 55.4668 126.698 55.4668C127.227 55.4668 127.692 55.5557 128.093 55.7334C128.498 55.9111 128.815 56.1777 129.043 56.5332C129.271 56.8887 129.385 57.3353 129.385 57.873V61.4482C129.385 61.7035 129.403 61.9678 129.439 62.2412C129.48 62.5146 129.537 62.7402 129.61 62.918V63H128.742C128.688 62.8359 128.644 62.6309 128.612 62.3848C128.585 62.1341 128.571 61.8971 128.571 61.6738ZM128.763 58.6934L128.776 59.3223H127.17C126.751 59.3223 126.375 59.361 126.042 59.4385C125.714 59.5114 125.436 59.6208 125.208 59.7666C124.98 59.9079 124.805 60.0788 124.682 60.2793C124.563 60.4798 124.504 60.7077 124.504 60.9629C124.504 61.2272 124.57 61.4688 124.702 61.6875C124.839 61.9062 125.03 62.0817 125.276 62.2139C125.527 62.3415 125.823 62.4053 126.165 62.4053C126.621 62.4053 127.022 62.321 127.368 62.1523C127.719 61.9837 128.008 61.7627 128.236 61.4893C128.464 61.2158 128.617 60.9173 128.694 60.5938L129.05 61.0654C128.991 61.2933 128.881 61.528 128.722 61.7695C128.567 62.0065 128.364 62.2298 128.113 62.4395C127.863 62.6445 127.566 62.8132 127.225 62.9453C126.887 63.0729 126.505 63.1367 126.076 63.1367C125.593 63.1367 125.172 63.0456 124.812 62.8633C124.456 62.681 124.178 62.4326 123.978 62.1182C123.782 61.7992 123.684 61.4391 123.684 61.0381C123.684 60.6735 123.761 60.3477 123.916 60.0605C124.071 59.7689 124.294 59.5228 124.586 59.3223C124.882 59.1172 125.238 58.9622 125.652 58.8574C126.072 58.748 126.541 58.6934 127.061 58.6934H128.763ZM131.565 52.5H132.386V61.5645L132.331 63H131.565V52.5ZM137.533 59.2334V59.377C137.533 59.9284 137.469 60.4342 137.342 60.8945C137.214 61.3548 137.03 61.7536 136.788 62.0908C136.547 62.4235 136.25 62.681 135.899 62.8633C135.553 63.0456 135.154 63.1367 134.703 63.1367C134.261 63.1367 133.869 63.0684 133.527 62.9316C133.186 62.7904 132.894 62.5921 132.652 62.3369C132.411 62.0771 132.217 61.7741 132.071 61.4277C131.925 61.0768 131.823 60.6917 131.764 60.2725V58.4473C131.832 58.0007 131.941 57.5951 132.092 57.2305C132.242 56.8659 132.436 56.5514 132.673 56.2871C132.914 56.0228 133.201 55.82 133.534 55.6787C133.871 55.5374 134.257 55.4668 134.689 55.4668C135.141 55.4668 135.542 55.5557 135.893 55.7334C136.248 55.9066 136.547 56.1595 136.788 56.4922C137.03 56.8203 137.214 57.2168 137.342 57.6816C137.469 58.1419 137.533 58.6592 137.533 59.2334ZM136.706 59.377V59.2334C136.706 58.8005 136.665 58.3994 136.583 58.0303C136.501 57.6611 136.371 57.3398 136.193 57.0664C136.02 56.7884 135.797 56.5719 135.523 56.417C135.25 56.262 134.922 56.1846 134.539 56.1846C134.147 56.1846 133.812 56.2507 133.534 56.3828C133.261 56.5104 133.033 56.6813 132.851 56.8955C132.673 57.1051 132.532 57.3353 132.427 57.5859C132.322 57.8366 132.244 58.0827 132.194 58.3242V60.4502C132.272 60.792 132.406 61.1133 132.598 61.4141C132.789 61.7148 133.047 61.9587 133.37 62.1455C133.694 62.3278 134.088 62.4189 134.553 62.4189C134.926 62.4189 135.248 62.3415 135.517 62.1865C135.79 62.0316 136.013 61.8174 136.187 61.5439C136.364 61.2705 136.494 60.9492 136.576 60.5801C136.663 60.2109 136.706 59.8099 136.706 59.377ZM144.15 61.5645V52.5H144.971V63H144.205L144.15 61.5645ZM139.017 59.377V59.2334C139.017 58.6592 139.083 58.1419 139.215 57.6816C139.347 57.2168 139.536 56.8203 139.782 56.4922C140.033 56.1595 140.334 55.9066 140.685 55.7334C141.035 55.5557 141.432 55.4668 141.874 55.4668C142.307 55.4668 142.69 55.5374 143.022 55.6787C143.355 55.82 143.64 56.0228 143.877 56.2871C144.118 56.5514 144.312 56.8659 144.458 57.2305C144.608 57.5951 144.718 58.0007 144.786 58.4473V60.2725C144.731 60.6917 144.631 61.0768 144.485 61.4277C144.34 61.7741 144.146 62.0771 143.904 62.3369C143.663 62.5921 143.371 62.7904 143.029 62.9316C142.692 63.0684 142.302 63.1367 141.86 63.1367C141.423 63.1367 141.029 63.0456 140.678 62.8633C140.327 62.681 140.028 62.4235 139.782 62.0908C139.536 61.7536 139.347 61.3548 139.215 60.8945C139.083 60.4342 139.017 59.9284 139.017 59.377ZM139.837 59.2334V59.377C139.837 59.8099 139.88 60.2109 139.967 60.5801C140.053 60.9492 140.186 61.2705 140.363 61.5439C140.541 61.8174 140.767 62.0316 141.04 62.1865C141.313 62.3415 141.637 62.4189 142.011 62.4189C142.48 62.4189 142.874 62.3301 143.193 62.1523C143.512 61.9701 143.768 61.7308 143.959 61.4346C144.15 61.1338 144.289 60.8057 144.376 60.4502V58.3242C144.321 58.0827 144.242 57.8366 144.137 57.5859C144.032 57.3353 143.888 57.1051 143.706 56.8955C143.528 56.6813 143.3 56.5104 143.022 56.3828C142.749 56.2507 142.416 56.1846 142.024 56.1846C141.646 56.1846 141.32 56.262 141.047 56.417C140.773 56.5719 140.546 56.7884 140.363 57.0664C140.186 57.3398 140.053 57.6611 139.967 58.0303C139.88 58.3994 139.837 58.8005 139.837 59.2334ZM148.525 63H147.712V54.6875C147.712 54.1816 147.799 53.7555 147.972 53.4092C148.149 53.0628 148.4 52.8008 148.724 52.623C149.052 52.4453 149.441 52.3564 149.893 52.3564C150.034 52.3564 150.18 52.3656 150.33 52.3838C150.48 52.3975 150.626 52.4271 150.768 52.4727L150.706 53.1631C150.592 53.1312 150.476 53.1107 150.357 53.1016C150.243 53.0879 150.109 53.0811 149.954 53.0811C149.658 53.0811 149.403 53.1449 149.188 53.2725C148.974 53.3955 148.81 53.5755 148.696 53.8125C148.582 54.0495 148.525 54.3411 148.525 54.6875V63ZM150.289 55.6035V56.2734H146.488V55.6035H150.289ZM151.308 59.418V59.1924C151.308 58.6546 151.385 58.1579 151.54 57.7021C151.695 57.2464 151.916 56.8522 152.203 56.5195C152.495 56.1868 152.843 55.9294 153.249 55.7471C153.655 55.5602 154.106 55.4668 154.603 55.4668C155.104 55.4668 155.557 55.5602 155.963 55.7471C156.368 55.9294 156.717 56.1868 157.009 56.5195C157.3 56.8522 157.524 57.2464 157.679 57.7021C157.834 58.1579 157.911 58.6546 157.911 59.1924V59.418C157.911 59.9557 157.834 60.4525 157.679 60.9082C157.524 61.3594 157.3 61.7513 157.009 62.084C156.722 62.4167 156.375 62.6764 155.97 62.8633C155.564 63.0456 155.113 63.1367 154.616 63.1367C154.115 63.1367 153.661 63.0456 153.256 62.8633C152.85 62.6764 152.502 62.4167 152.21 62.084C151.918 61.7513 151.695 61.3594 151.54 60.9082C151.385 60.4525 151.308 59.9557 151.308 59.418ZM152.121 59.1924V59.418C152.121 59.8236 152.176 60.2087 152.285 60.5732C152.395 60.9333 152.554 61.2546 152.764 61.5371C152.973 61.8151 153.233 62.0339 153.543 62.1934C153.853 62.3529 154.211 62.4326 154.616 62.4326C155.017 62.4326 155.37 62.3529 155.676 62.1934C155.986 62.0339 156.245 61.8151 156.455 61.5371C156.665 61.2546 156.822 60.9333 156.927 60.5732C157.036 60.2087 157.091 59.8236 157.091 59.418V59.1924C157.091 58.7913 157.036 58.4108 156.927 58.0508C156.822 57.6908 156.662 57.3695 156.448 57.0869C156.239 56.8044 155.979 56.5811 155.669 56.417C155.359 56.2529 155.004 56.1709 154.603 56.1709C154.201 56.1709 153.846 56.2529 153.536 56.417C153.231 56.5811 152.971 56.8044 152.757 57.0869C152.547 57.3695 152.388 57.6908 152.278 58.0508C152.174 58.4108 152.121 58.7913 152.121 59.1924ZM160.516 55.6035V63H159.702V55.6035H160.516ZM159.559 53.4639C159.559 53.3089 159.606 53.179 159.702 53.0742C159.802 52.9648 159.939 52.9102 160.112 52.9102C160.285 52.9102 160.422 52.9648 160.522 53.0742C160.627 53.179 160.68 53.3089 160.68 53.4639C160.68 53.6143 160.627 53.7441 160.522 53.8535C160.422 53.9583 160.285 54.0107 160.112 54.0107C159.939 54.0107 159.802 53.9583 159.702 53.8535C159.606 53.7441 159.559 53.6143 159.559 53.4639ZM167.249 61.6738V57.8594C167.249 57.5085 167.176 57.2054 167.03 56.9502C166.884 56.695 166.67 56.499 166.388 56.3623C166.105 56.2256 165.757 56.1572 165.342 56.1572C164.959 56.1572 164.617 56.2256 164.316 56.3623C164.02 56.4945 163.785 56.6745 163.612 56.9023C163.444 57.1257 163.359 57.374 163.359 57.6475L162.539 57.6406C162.539 57.3626 162.607 57.0938 162.744 56.834C162.881 56.5742 163.075 56.3418 163.325 56.1367C163.576 55.9316 163.874 55.7699 164.221 55.6514C164.572 55.5283 164.957 55.4668 165.376 55.4668C165.905 55.4668 166.369 55.5557 166.771 55.7334C167.176 55.9111 167.493 56.1777 167.721 56.5332C167.949 56.8887 168.062 57.3353 168.062 57.873V61.4482C168.062 61.7035 168.081 61.9678 168.117 62.2412C168.158 62.5146 168.215 62.7402 168.288 62.918V63H167.42C167.365 62.8359 167.322 62.6309 167.29 62.3848C167.263 62.1341 167.249 61.8971 167.249 61.6738ZM167.44 58.6934L167.454 59.3223H165.848C165.428 59.3223 165.052 59.361 164.72 59.4385C164.392 59.5114 164.114 59.6208 163.886 59.7666C163.658 59.9079 163.482 60.0788 163.359 60.2793C163.241 60.4798 163.182 60.7077 163.182 60.9629C163.182 61.2272 163.248 61.4688 163.38 61.6875C163.517 61.9062 163.708 62.0817 163.954 62.2139C164.205 62.3415 164.501 62.4053 164.843 62.4053C165.299 62.4053 165.7 62.321 166.046 62.1523C166.397 61.9837 166.686 61.7627 166.914 61.4893C167.142 61.2158 167.295 60.9173 167.372 60.5938L167.728 61.0654C167.668 61.2933 167.559 61.528 167.399 61.7695C167.244 62.0065 167.042 62.2298 166.791 62.4395C166.54 62.6445 166.244 62.8132 165.902 62.9453C165.565 63.0729 165.182 63.1367 164.754 63.1367C164.271 63.1367 163.849 63.0456 163.489 62.8633C163.134 62.681 162.856 62.4326 162.655 62.1182C162.459 61.7992 162.361 61.4391 162.361 61.0381C162.361 60.6735 162.439 60.3477 162.594 60.0605C162.749 59.7689 162.972 59.5228 163.264 59.3223C163.56 59.1172 163.915 58.9622 164.33 58.8574C164.749 58.748 165.219 58.6934 165.738 58.6934H167.44ZM170.243 52.5H171.063V61.5645L171.009 63H170.243V52.5ZM176.211 59.2334V59.377C176.211 59.9284 176.147 60.4342 176.02 60.8945C175.892 61.3548 175.707 61.7536 175.466 62.0908C175.224 62.4235 174.928 62.681 174.577 62.8633C174.231 63.0456 173.832 63.1367 173.381 63.1367C172.939 63.1367 172.547 63.0684 172.205 62.9316C171.863 62.7904 171.572 62.5921 171.33 62.3369C171.089 62.0771 170.895 61.7741 170.749 61.4277C170.603 61.0768 170.501 60.6917 170.441 60.2725V58.4473C170.51 58.0007 170.619 57.5951 170.77 57.2305C170.92 56.8659 171.114 56.5514 171.351 56.2871C171.592 56.0228 171.879 55.82 172.212 55.6787C172.549 55.5374 172.934 55.4668 173.367 55.4668C173.818 55.4668 174.219 55.5557 174.57 55.7334C174.926 55.9066 175.224 56.1595 175.466 56.4922C175.707 56.8203 175.892 57.2168 176.02 57.6816C176.147 58.1419 176.211 58.6592 176.211 59.2334ZM175.384 59.377V59.2334C175.384 58.8005 175.343 58.3994 175.261 58.0303C175.179 57.6611 175.049 57.3398 174.871 57.0664C174.698 56.7884 174.475 56.5719 174.201 56.417C173.928 56.262 173.6 56.1846 173.217 56.1846C172.825 56.1846 172.49 56.2507 172.212 56.3828C171.938 56.5104 171.711 56.6813 171.528 56.8955C171.351 57.1051 171.209 57.3353 171.104 57.5859C171 57.8366 170.922 58.0827 170.872 58.3242V60.4502C170.95 60.792 171.084 61.1133 171.275 61.4141C171.467 61.7148 171.724 61.9587 172.048 62.1455C172.371 62.3278 172.766 62.4189 173.23 62.4189C173.604 62.4189 173.925 62.3415 174.194 62.1865C174.468 62.0316 174.691 61.8174 174.864 61.5439C175.042 61.2705 175.172 60.9492 175.254 60.5801C175.34 60.2109 175.384 59.8099 175.384 59.377ZM182.452 61.1133C182.452 60.9128 182.402 60.7145 182.302 60.5186C182.201 60.3226 182.008 60.1426 181.721 59.9785C181.438 59.8145 181.021 59.6755 180.47 59.5615C180.06 59.4704 179.693 59.3678 179.369 59.2539C179.05 59.14 178.781 59.0033 178.562 58.8438C178.344 58.6842 178.177 58.4928 178.063 58.2695C177.95 58.0462 177.893 57.7819 177.893 57.4766C177.893 57.2031 177.952 56.9456 178.07 56.7041C178.193 56.458 178.367 56.2438 178.59 56.0615C178.818 55.8747 179.091 55.7288 179.41 55.624C179.734 55.5192 180.096 55.4668 180.497 55.4668C181.067 55.4668 181.554 55.5648 181.96 55.7607C182.37 55.9521 182.682 56.2142 182.896 56.5469C183.115 56.8796 183.225 57.2555 183.225 57.6748H182.411C182.411 57.4196 182.336 57.1781 182.186 56.9502C182.04 56.7223 181.823 56.5355 181.536 56.3896C181.254 56.2438 180.907 56.1709 180.497 56.1709C180.073 56.1709 179.729 56.2347 179.465 56.3623C179.201 56.4899 179.007 56.6517 178.884 56.8477C178.765 57.0436 178.706 57.2464 178.706 57.4561C178.706 57.6201 178.731 57.7705 178.781 57.9072C178.836 58.0394 178.932 58.1624 179.068 58.2764C179.21 58.3903 179.41 58.4974 179.67 58.5977C179.93 58.6979 180.267 58.7959 180.682 58.8916C181.279 59.0238 181.766 59.1855 182.145 59.377C182.527 59.5638 182.81 59.7962 182.992 60.0742C183.174 60.3477 183.266 60.6803 183.266 61.0723C183.266 61.3776 183.202 61.6579 183.074 61.9131C182.947 62.1637 182.762 62.3802 182.521 62.5625C182.284 62.7448 181.996 62.8861 181.659 62.9863C181.326 63.0866 180.953 63.1367 180.538 63.1367C179.914 63.1367 179.385 63.0342 178.952 62.8291C178.524 62.6195 178.198 62.346 177.975 62.0088C177.756 61.667 177.646 61.3047 177.646 60.9219H178.46C178.487 61.3047 178.608 61.6077 178.822 61.8311C179.036 62.0498 179.299 62.2048 179.608 62.2959C179.923 62.387 180.233 62.4326 180.538 62.4326C180.957 62.4326 181.308 62.3711 181.591 62.248C181.873 62.125 182.088 61.9632 182.233 61.7627C182.379 61.5622 182.452 61.3457 182.452 61.1133ZM186.027 55.6035V63H185.214V55.6035H186.027ZM185.07 53.4639C185.07 53.3089 185.118 53.179 185.214 53.0742C185.314 52.9648 185.451 52.9102 185.624 52.9102C185.797 52.9102 185.934 52.9648 186.034 53.0742C186.139 53.179 186.191 53.3089 186.191 53.4639C186.191 53.6143 186.139 53.7441 186.034 53.8535C185.934 53.9583 185.797 54.0107 185.624 54.0107C185.451 54.0107 185.314 53.9583 185.214 53.8535C185.118 53.7441 185.07 53.6143 185.07 53.4639ZM192.761 61.6738V57.8594C192.761 57.5085 192.688 57.2054 192.542 56.9502C192.396 56.695 192.182 56.499 191.899 56.3623C191.617 56.2256 191.268 56.1572 190.854 56.1572C190.471 56.1572 190.129 56.2256 189.828 56.3623C189.532 56.4945 189.297 56.6745 189.124 56.9023C188.955 57.1257 188.871 57.374 188.871 57.6475L188.051 57.6406C188.051 57.3626 188.119 57.0938 188.256 56.834C188.393 56.5742 188.586 56.3418 188.837 56.1367C189.088 55.9316 189.386 55.7699 189.732 55.6514C190.083 55.5283 190.468 55.4668 190.888 55.4668C191.416 55.4668 191.881 55.5557 192.282 55.7334C192.688 55.9111 193.005 56.1777 193.232 56.5332C193.46 56.8887 193.574 57.3353 193.574 57.873V61.4482C193.574 61.7035 193.592 61.9678 193.629 62.2412C193.67 62.5146 193.727 62.7402 193.8 62.918V63H192.932C192.877 62.8359 192.834 62.6309 192.802 62.3848C192.774 62.1341 192.761 61.8971 192.761 61.6738ZM192.952 58.6934L192.966 59.3223H191.359C190.94 59.3223 190.564 59.361 190.231 59.4385C189.903 59.5114 189.625 59.6208 189.397 59.7666C189.17 59.9079 188.994 60.0788 188.871 60.2793C188.753 60.4798 188.693 60.7077 188.693 60.9629C188.693 61.2272 188.759 61.4688 188.892 61.6875C189.028 61.9062 189.22 62.0817 189.466 62.2139C189.716 62.3415 190.013 62.4053 190.354 62.4053C190.81 62.4053 191.211 62.321 191.558 62.1523C191.909 61.9837 192.198 61.7627 192.426 61.4893C192.654 61.2158 192.806 60.9173 192.884 60.5938L193.239 61.0654C193.18 61.2933 193.071 61.528 192.911 61.7695C192.756 62.0065 192.553 62.2298 192.303 62.4395C192.052 62.6445 191.756 62.8132 191.414 62.9453C191.077 63.0729 190.694 63.1367 190.266 63.1367C189.783 63.1367 189.361 63.0456 189.001 62.8633C188.646 62.681 188.368 62.4326 188.167 62.1182C187.971 61.7992 187.873 61.4391 187.873 61.0381C187.873 60.6735 187.951 60.3477 188.105 60.0605C188.26 59.7689 188.484 59.5228 188.775 59.3223C189.072 59.1172 189.427 58.9622 189.842 58.8574C190.261 58.748 190.73 58.6934 191.25 58.6934H192.952ZM196.582 57.1826V63H195.769V55.6035H196.548L196.582 57.1826ZM196.397 58.8438L196.035 58.6387C196.062 58.2012 196.151 57.791 196.302 57.4082C196.452 57.0254 196.655 56.6882 196.91 56.3965C197.17 56.1048 197.473 55.877 197.819 55.7129C198.17 55.5488 198.558 55.4668 198.981 55.4668C199.351 55.4668 199.681 55.5169 199.973 55.6172C200.264 55.7174 200.513 55.877 200.718 56.0957C200.923 56.3145 201.078 56.5947 201.183 56.9365C201.292 57.2783 201.347 57.6953 201.347 58.1875V63H200.526V58.1807C200.526 57.6702 200.456 57.2715 200.314 56.9844C200.173 56.6927 199.973 56.4854 199.713 56.3623C199.453 56.2393 199.146 56.1777 198.79 56.1777C198.398 56.1777 198.054 56.2643 197.758 56.4375C197.466 56.6061 197.22 56.8271 197.02 57.1006C196.824 57.3695 196.673 57.6589 196.568 57.9688C196.464 58.2741 196.407 58.5658 196.397 58.8438ZM208.271 61.5645V52.5H209.092V63H208.326L208.271 61.5645ZM203.138 59.377V59.2334C203.138 58.6592 203.204 58.1419 203.336 57.6816C203.468 57.2168 203.657 56.8203 203.903 56.4922C204.154 56.1595 204.455 55.9066 204.806 55.7334C205.157 55.5557 205.553 55.4668 205.995 55.4668C206.428 55.4668 206.811 55.5374 207.144 55.6787C207.476 55.82 207.761 56.0228 207.998 56.2871C208.24 56.5514 208.433 56.8659 208.579 57.2305C208.729 57.5951 208.839 58.0007 208.907 58.4473V60.2725C208.853 60.6917 208.752 61.0768 208.606 61.4277C208.461 61.7741 208.267 62.0771 208.025 62.3369C207.784 62.5921 207.492 62.7904 207.15 62.9316C206.813 63.0684 206.424 63.1367 205.981 63.1367C205.544 63.1367 205.15 63.0456 204.799 62.8633C204.448 62.681 204.149 62.4235 203.903 62.0908C203.657 61.7536 203.468 61.3548 203.336 60.8945C203.204 60.4342 203.138 59.9284 203.138 59.377ZM203.958 59.2334V59.377C203.958 59.8099 204.001 60.2109 204.088 60.5801C204.174 60.9492 204.307 61.2705 204.484 61.5439C204.662 61.8174 204.888 62.0316 205.161 62.1865C205.435 62.3415 205.758 62.4189 206.132 62.4189C206.601 62.4189 206.995 62.3301 207.314 62.1523C207.633 61.9701 207.889 61.7308 208.08 61.4346C208.271 61.1338 208.41 60.8057 208.497 60.4502V58.3242C208.442 58.0827 208.363 57.8366 208.258 57.5859C208.153 57.3353 208.009 57.1051 207.827 56.8955C207.649 56.6813 207.422 56.5104 207.144 56.3828C206.87 56.2507 206.537 56.1846 206.146 56.1846C205.767 56.1846 205.441 56.262 205.168 56.417C204.895 56.5719 204.667 56.7884 204.484 57.0664C204.307 57.3398 204.174 57.6611 204.088 58.0303C204.001 58.3994 203.958 58.8005 203.958 59.2334ZM210.794 59.418V59.1924C210.794 58.6546 210.871 58.1579 211.026 57.7021C211.181 57.2464 211.402 56.8522 211.689 56.5195C211.981 56.1868 212.33 55.9294 212.735 55.7471C213.141 55.5602 213.592 55.4668 214.089 55.4668C214.59 55.4668 215.044 55.5602 215.449 55.7471C215.855 55.9294 216.203 56.1868 216.495 56.5195C216.787 56.8522 217.01 57.2464 217.165 57.7021C217.32 58.1579 217.397 58.6546 217.397 59.1924V59.418C217.397 59.9557 217.32 60.4525 217.165 60.9082C217.01 61.3594 216.787 61.7513 216.495 62.084C216.208 62.4167 215.862 62.6764 215.456 62.8633C215.05 63.0456 214.599 63.1367 214.103 63.1367C213.601 63.1367 213.148 63.0456 212.742 62.8633C212.337 62.6764 211.988 62.4167 211.696 62.084C211.405 61.7513 211.181 61.3594 211.026 60.9082C210.871 60.4525 210.794 59.9557 210.794 59.418ZM211.607 59.1924V59.418C211.607 59.8236 211.662 60.2087 211.771 60.5732C211.881 60.9333 212.04 61.2546 212.25 61.5371C212.46 61.8151 212.719 62.0339 213.029 62.1934C213.339 62.3529 213.697 62.4326 214.103 62.4326C214.504 62.4326 214.857 62.3529 215.162 62.1934C215.472 62.0339 215.732 61.8151 215.941 61.5371C216.151 61.2546 216.308 60.9333 216.413 60.5732C216.522 60.2087 216.577 59.8236 216.577 59.418V59.1924C216.577 58.7913 216.522 58.4108 216.413 58.0508C216.308 57.6908 216.149 57.3695 215.935 57.0869C215.725 56.8044 215.465 56.5811 215.155 56.417C214.845 56.2529 214.49 56.1709 214.089 56.1709C213.688 56.1709 213.332 56.2529 213.022 56.417C212.717 56.5811 212.457 56.8044 212.243 57.0869C212.034 57.3695 211.874 57.6908 211.765 58.0508C211.66 58.4108 211.607 58.7913 211.607 59.1924ZM220.002 55.6035V63H219.188V55.6035H220.002ZM219.045 53.4639C219.045 53.3089 219.093 53.179 219.188 53.0742C219.289 52.9648 219.425 52.9102 219.599 52.9102C219.772 52.9102 219.909 52.9648 220.009 53.0742C220.114 53.179 220.166 53.3089 220.166 53.4639C220.166 53.6143 220.114 53.7441 220.009 53.8535C219.909 53.9583 219.772 54.0107 219.599 54.0107C219.425 54.0107 219.289 53.9583 219.188 53.8535C219.093 53.7441 219.045 53.6143 219.045 53.4639ZM226.735 61.6738V57.8594C226.735 57.5085 226.662 57.2054 226.517 56.9502C226.371 56.695 226.157 56.499 225.874 56.3623C225.591 56.2256 225.243 56.1572 224.828 56.1572C224.445 56.1572 224.104 56.2256 223.803 56.3623C223.507 56.4945 223.272 56.6745 223.099 56.9023C222.93 57.1257 222.846 57.374 222.846 57.6475L222.025 57.6406C222.025 57.3626 222.094 57.0938 222.23 56.834C222.367 56.5742 222.561 56.3418 222.812 56.1367C223.062 55.9316 223.361 55.7699 223.707 55.6514C224.058 55.5283 224.443 55.4668 224.862 55.4668C225.391 55.4668 225.856 55.5557 226.257 55.7334C226.662 55.9111 226.979 56.1777 227.207 56.5332C227.435 56.8887 227.549 57.3353 227.549 57.873V61.4482C227.549 61.7035 227.567 61.9678 227.604 62.2412C227.645 62.5146 227.701 62.7402 227.774 62.918V63H226.906C226.852 62.8359 226.808 62.6309 226.776 62.3848C226.749 62.1341 226.735 61.8971 226.735 61.6738ZM226.927 58.6934L226.94 59.3223H225.334C224.915 59.3223 224.539 59.361 224.206 59.4385C223.878 59.5114 223.6 59.6208 223.372 59.7666C223.144 59.9079 222.969 60.0788 222.846 60.2793C222.727 60.4798 222.668 60.7077 222.668 60.9629C222.668 61.2272 222.734 61.4688 222.866 61.6875C223.003 61.9062 223.194 62.0817 223.44 62.2139C223.691 62.3415 223.987 62.4053 224.329 62.4053C224.785 62.4053 225.186 62.321 225.532 62.1523C225.883 61.9837 226.173 61.7627 226.4 61.4893C226.628 61.2158 226.781 60.9173 226.858 60.5938L227.214 61.0654C227.155 61.2933 227.045 61.528 226.886 61.7695C226.731 62.0065 226.528 62.2298 226.277 62.4395C226.027 62.6445 225.73 62.8132 225.389 62.9453C225.051 63.0729 224.669 63.1367 224.24 63.1367C223.757 63.1367 223.336 63.0456 222.976 62.8633C222.62 62.681 222.342 62.4326 222.142 62.1182C221.946 61.7992 221.848 61.4391 221.848 61.0381C221.848 60.6735 221.925 60.3477 222.08 60.0605C222.235 59.7689 222.458 59.5228 222.75 59.3223C223.046 59.1172 223.402 58.9622 223.816 58.8574C224.236 58.748 224.705 58.6934 225.225 58.6934H226.927ZM230.557 57.1826V63H229.743V55.6035H230.522L230.557 57.1826ZM230.372 58.8438L230.01 58.6387C230.037 58.2012 230.126 57.791 230.276 57.4082C230.427 57.0254 230.63 56.6882 230.885 56.3965C231.145 56.1048 231.448 55.877 231.794 55.7129C232.145 55.5488 232.532 55.4668 232.956 55.4668C233.325 55.4668 233.656 55.5169 233.947 55.6172C234.239 55.7174 234.487 55.877 234.692 56.0957C234.897 56.3145 235.052 56.5947 235.157 56.9365C235.267 57.2783 235.321 57.6953 235.321 58.1875V63H234.501V58.1807C234.501 57.6702 234.43 57.2715 234.289 56.9844C234.148 56.6927 233.947 56.4854 233.688 56.3623C233.428 56.2393 233.12 56.1777 232.765 56.1777C232.373 56.1777 232.029 56.2643 231.732 56.4375C231.441 56.6061 231.195 56.8271 230.994 57.1006C230.798 57.3695 230.648 57.6589 230.543 57.9688C230.438 58.2741 230.381 58.5658 230.372 58.8438ZM242.246 61.5645V52.5H243.066V63H242.301L242.246 61.5645ZM237.112 59.377V59.2334C237.112 58.6592 237.178 58.1419 237.311 57.6816C237.443 57.2168 237.632 56.8203 237.878 56.4922C238.129 56.1595 238.429 55.9066 238.78 55.7334C239.131 55.5557 239.528 55.4668 239.97 55.4668C240.403 55.4668 240.785 55.5374 241.118 55.6787C241.451 55.82 241.736 56.0228 241.973 56.2871C242.214 56.5514 242.408 56.8659 242.554 57.2305C242.704 57.5951 242.813 58.0007 242.882 58.4473V60.2725C242.827 60.6917 242.727 61.0768 242.581 61.4277C242.435 61.7741 242.242 62.0771 242 62.3369C241.758 62.5921 241.467 62.7904 241.125 62.9316C240.788 63.0684 240.398 63.1367 239.956 63.1367C239.519 63.1367 239.124 63.0456 238.773 62.8633C238.423 62.681 238.124 62.4235 237.878 62.0908C237.632 61.7536 237.443 61.3548 237.311 60.8945C237.178 60.4342 237.112 59.9284 237.112 59.377ZM237.933 59.2334V59.377C237.933 59.8099 237.976 60.2109 238.062 60.5801C238.149 60.9492 238.281 61.2705 238.459 61.5439C238.637 61.8174 238.862 62.0316 239.136 62.1865C239.409 62.3415 239.733 62.4189 240.106 62.4189C240.576 62.4189 240.97 62.3301 241.289 62.1523C241.608 61.9701 241.863 61.7308 242.055 61.4346C242.246 61.1338 242.385 60.8057 242.472 60.4502V58.3242C242.417 58.0827 242.337 57.8366 242.232 57.5859C242.128 57.3353 241.984 57.1051 241.802 56.8955C241.624 56.6813 241.396 56.5104 241.118 56.3828C240.845 56.2507 240.512 56.1846 240.12 56.1846C239.742 56.1846 239.416 56.262 239.143 56.417C238.869 56.5719 238.641 56.7884 238.459 57.0664C238.281 57.3398 238.149 57.6611 238.062 58.0303C237.976 58.3994 237.933 58.8005 237.933 59.2334ZM244.769 59.418V59.1924C244.769 58.6546 244.846 58.1579 245.001 57.7021C245.156 57.2464 245.377 56.8522 245.664 56.5195C245.956 56.1868 246.304 55.9294 246.71 55.7471C247.116 55.5602 247.567 55.4668 248.063 55.4668C248.565 55.4668 249.018 55.5602 249.424 55.7471C249.829 55.9294 250.178 56.1868 250.47 56.5195C250.761 56.8522 250.985 57.2464 251.14 57.7021C251.295 58.1579 251.372 58.6546 251.372 59.1924V59.418C251.372 59.9557 251.295 60.4525 251.14 60.9082C250.985 61.3594 250.761 61.7513 250.47 62.084C250.183 62.4167 249.836 62.6764 249.431 62.8633C249.025 63.0456 248.574 63.1367 248.077 63.1367C247.576 63.1367 247.122 63.0456 246.717 62.8633C246.311 62.6764 245.963 62.4167 245.671 62.084C245.379 61.7513 245.156 61.3594 245.001 60.9082C244.846 60.4525 244.769 59.9557 244.769 59.418ZM245.582 59.1924V59.418C245.582 59.8236 245.637 60.2087 245.746 60.5732C245.855 60.9333 246.015 61.2546 246.225 61.5371C246.434 61.8151 246.694 62.0339 247.004 62.1934C247.314 62.3529 247.672 62.4326 248.077 62.4326C248.478 62.4326 248.831 62.3529 249.137 62.1934C249.447 62.0339 249.706 61.8151 249.916 61.5371C250.126 61.2546 250.283 60.9333 250.388 60.5732C250.497 60.2087 250.552 59.8236 250.552 59.418V59.1924C250.552 58.7913 250.497 58.4108 250.388 58.0508C250.283 57.6908 250.123 57.3695 249.909 57.0869C249.7 56.8044 249.44 56.5811 249.13 56.417C248.82 56.2529 248.465 56.1709 248.063 56.1709C247.662 56.1709 247.307 56.2529 246.997 56.417C246.692 56.5811 246.432 56.8044 246.218 57.0869C246.008 57.3695 245.849 57.6908 245.739 58.0508C245.634 58.4108 245.582 58.7913 245.582 59.1924ZM253.977 55.6035V63H253.163V55.6035H253.977ZM253.02 53.4639C253.02 53.3089 253.067 53.179 253.163 53.0742C253.263 52.9648 253.4 52.9102 253.573 52.9102C253.746 52.9102 253.883 52.9648 253.983 53.0742C254.088 53.179 254.141 53.3089 254.141 53.4639C254.141 53.6143 254.088 53.7441 253.983 53.8535C253.883 53.9583 253.746 54.0107 253.573 54.0107C253.4 54.0107 253.263 53.9583 253.163 53.8535C253.067 53.7441 253.02 53.6143 253.02 53.4639ZM260.71 61.6738V57.8594C260.71 57.5085 260.637 57.2054 260.491 56.9502C260.345 56.695 260.131 56.499 259.849 56.3623C259.566 56.2256 259.217 56.1572 258.803 56.1572C258.42 56.1572 258.078 56.2256 257.777 56.3623C257.481 56.4945 257.246 56.6745 257.073 56.9023C256.905 57.1257 256.82 57.374 256.82 57.6475L256 57.6406C256 57.3626 256.068 57.0938 256.205 56.834C256.342 56.5742 256.535 56.3418 256.786 56.1367C257.037 55.9316 257.335 55.7699 257.682 55.6514C258.033 55.5283 258.418 55.4668 258.837 55.4668C259.366 55.4668 259.83 55.5557 260.231 55.7334C260.637 55.9111 260.954 56.1777 261.182 56.5332C261.41 56.8887 261.523 57.3353 261.523 57.873V61.4482C261.523 61.7035 261.542 61.9678 261.578 62.2412C261.619 62.5146 261.676 62.7402 261.749 62.918V63H260.881C260.826 62.8359 260.783 62.6309 260.751 62.3848C260.724 62.1341 260.71 61.8971 260.71 61.6738ZM260.901 58.6934L260.915 59.3223H259.309C258.889 59.3223 258.513 59.361 258.181 59.4385C257.853 59.5114 257.575 59.6208 257.347 59.7666C257.119 59.9079 256.943 60.0788 256.82 60.2793C256.702 60.4798 256.643 60.7077 256.643 60.9629C256.643 61.2272 256.709 61.4688 256.841 61.6875C256.978 61.9062 257.169 62.0817 257.415 62.2139C257.666 62.3415 257.962 62.4053 258.304 62.4053C258.759 62.4053 259.16 62.321 259.507 62.1523C259.858 61.9837 260.147 61.7627 260.375 61.4893C260.603 61.2158 260.756 60.9173 260.833 60.5938L261.188 61.0654C261.129 61.2933 261.02 61.528 260.86 61.7695C260.705 62.0065 260.503 62.2298 260.252 62.4395C260.001 62.6445 259.705 62.8132 259.363 62.9453C259.026 63.0729 258.643 63.1367 258.215 63.1367C257.732 63.1367 257.31 63.0456 256.95 62.8633C256.595 62.681 256.317 62.4326 256.116 62.1182C255.92 61.7992 255.822 61.4391 255.822 61.0381C255.822 60.6735 255.9 60.3477 256.055 60.0605C256.21 59.7689 256.433 59.5228 256.725 59.3223C257.021 59.1172 257.376 58.9622 257.791 58.8574C258.21 58.748 258.68 58.6934 259.199 58.6934H260.901ZM268.147 61.1133C268.147 60.9128 268.097 60.7145 267.997 60.5186C267.897 60.3226 267.703 60.1426 267.416 59.9785C267.133 59.8145 266.716 59.6755 266.165 59.5615C265.755 59.4704 265.388 59.3678 265.064 59.2539C264.745 59.14 264.477 59.0033 264.258 58.8438C264.039 58.6842 263.873 58.4928 263.759 58.2695C263.645 58.0462 263.588 57.7819 263.588 57.4766C263.588 57.2031 263.647 56.9456 263.766 56.7041C263.889 56.458 264.062 56.2438 264.285 56.0615C264.513 55.8747 264.786 55.7288 265.105 55.624C265.429 55.5192 265.791 55.4668 266.192 55.4668C266.762 55.4668 267.25 55.5648 267.655 55.7607C268.065 55.9521 268.378 56.2142 268.592 56.5469C268.811 56.8796 268.92 57.2555 268.92 57.6748H268.106C268.106 57.4196 268.031 57.1781 267.881 56.9502C267.735 56.7223 267.519 56.5355 267.231 56.3896C266.949 56.2438 266.603 56.1709 266.192 56.1709C265.769 56.1709 265.424 56.2347 265.16 56.3623C264.896 56.4899 264.702 56.6517 264.579 56.8477C264.461 57.0436 264.401 57.2464 264.401 57.4561C264.401 57.6201 264.426 57.7705 264.477 57.9072C264.531 58.0394 264.627 58.1624 264.764 58.2764C264.905 58.3903 265.105 58.4974 265.365 58.5977C265.625 58.6979 265.962 58.7959 266.377 58.8916C266.974 59.0238 267.462 59.1855 267.84 59.377C268.223 59.5638 268.505 59.7962 268.688 60.0742C268.87 60.3477 268.961 60.6803 268.961 61.0723C268.961 61.3776 268.897 61.6579 268.77 61.9131C268.642 62.1637 268.457 62.3802 268.216 62.5625C267.979 62.7448 267.692 62.8861 267.354 62.9863C267.022 63.0866 266.648 63.1367 266.233 63.1367C265.609 63.1367 265.08 63.0342 264.647 62.8291C264.219 62.6195 263.893 62.346 263.67 62.0088C263.451 61.667 263.342 61.3047 263.342 60.9219H264.155C264.183 61.3047 264.303 61.6077 264.518 61.8311C264.732 62.0498 264.994 62.2048 265.304 62.2959C265.618 62.387 265.928 62.4326 266.233 62.4326C266.653 62.4326 267.004 62.3711 267.286 62.248C267.569 62.125 267.783 61.9632 267.929 61.7627C268.075 61.5622 268.147 61.3457 268.147 61.1133ZM271.627 57.1826V63H270.813V55.6035H271.593L271.627 57.1826ZM271.442 58.8438L271.08 58.6387C271.107 58.2012 271.196 57.791 271.347 57.4082C271.497 57.0254 271.7 56.6882 271.955 56.3965C272.215 56.1048 272.518 55.877 272.864 55.7129C273.215 55.5488 273.603 55.4668 274.026 55.4668C274.396 55.4668 274.726 55.5169 275.018 55.6172C275.309 55.7174 275.558 55.877 275.763 56.0957C275.968 56.3145 276.123 56.5947 276.228 56.9365C276.337 57.2783 276.392 57.6953 276.392 58.1875V63H275.571V58.1807C275.571 57.6702 275.501 57.2715 275.359 56.9844C275.218 56.6927 275.018 56.4854 274.758 56.3623C274.498 56.2393 274.19 56.1777 273.835 56.1777C273.443 56.1777 273.099 56.2643 272.803 56.4375C272.511 56.6061 272.265 56.8271 272.064 57.1006C271.868 57.3695 271.718 57.6589 271.613 57.9688C271.508 58.2741 271.451 58.5658 271.442 58.8438ZM283.316 61.5645V52.5H284.137V63H283.371L283.316 61.5645ZM278.183 59.377V59.2334C278.183 58.6592 278.249 58.1419 278.381 57.6816C278.513 57.2168 278.702 56.8203 278.948 56.4922C279.199 56.1595 279.5 55.9066 279.851 55.7334C280.201 55.5557 280.598 55.4668 281.04 55.4668C281.473 55.4668 281.856 55.5374 282.188 55.6787C282.521 55.82 282.806 56.0228 283.043 56.2871C283.285 56.5514 283.478 56.8659 283.624 57.2305C283.774 57.5951 283.884 58.0007 283.952 58.4473V60.2725C283.897 60.6917 283.797 61.0768 283.651 61.4277C283.506 61.7741 283.312 62.0771 283.07 62.3369C282.829 62.5921 282.537 62.7904 282.195 62.9316C281.858 63.0684 281.468 63.1367 281.026 63.1367C280.589 63.1367 280.195 63.0456 279.844 62.8633C279.493 62.681 279.194 62.4235 278.948 62.0908C278.702 61.7536 278.513 61.3548 278.381 60.8945C278.249 60.4342 278.183 59.9284 278.183 59.377ZM279.003 59.2334V59.377C279.003 59.8099 279.046 60.2109 279.133 60.5801C279.219 60.9492 279.352 61.2705 279.529 61.5439C279.707 61.8174 279.933 62.0316 280.206 62.1865C280.479 62.3415 280.803 62.4189 281.177 62.4189C281.646 62.4189 282.04 62.3301 282.359 62.1523C282.678 61.9701 282.934 61.7308 283.125 61.4346C283.316 61.1338 283.455 60.8057 283.542 60.4502V58.3242C283.487 58.0827 283.408 57.8366 283.303 57.5859C283.198 57.3353 283.054 57.1051 282.872 56.8955C282.694 56.6813 282.466 56.5104 282.188 56.3828C281.915 56.2507 281.582 56.1846 281.19 56.1846C280.812 56.1846 280.486 56.262 280.213 56.417C279.939 56.5719 279.712 56.7884 279.529 57.0664C279.352 57.3398 279.219 57.6611 279.133 58.0303C279.046 58.3994 279.003 58.8005 279.003 59.2334ZM123.622 75.418V75.1924C123.622 74.6546 123.7 74.1579 123.854 73.7021C124.009 73.2464 124.23 72.8522 124.518 72.5195C124.809 72.1868 125.158 71.9294 125.563 71.7471C125.969 71.5602 126.42 71.4668 126.917 71.4668C127.418 71.4668 127.872 71.5602 128.277 71.7471C128.683 71.9294 129.032 72.1868 129.323 72.5195C129.615 72.8522 129.838 73.2464 129.993 73.7021C130.148 74.1579 130.226 74.6546 130.226 75.1924V75.418C130.226 75.9557 130.148 76.4525 129.993 76.9082C129.838 77.3594 129.615 77.7513 129.323 78.084C129.036 78.4167 128.69 78.6764 128.284 78.8633C127.879 79.0456 127.427 79.1367 126.931 79.1367C126.429 79.1367 125.976 79.0456 125.57 78.8633C125.165 78.6764 124.816 78.4167 124.524 78.084C124.233 77.7513 124.009 77.3594 123.854 76.9082C123.7 76.4525 123.622 75.9557 123.622 75.418ZM124.436 75.1924V75.418C124.436 75.8236 124.49 76.2087 124.6 76.5732C124.709 76.9333 124.868 77.2546 125.078 77.5371C125.288 77.8151 125.548 78.0339 125.857 78.1934C126.167 78.3529 126.525 78.4326 126.931 78.4326C127.332 78.4326 127.685 78.3529 127.99 78.1934C128.3 78.0339 128.56 77.8151 128.77 77.5371C128.979 77.2546 129.136 76.9333 129.241 76.5732C129.351 76.2087 129.405 75.8236 129.405 75.418V75.1924C129.405 74.7913 129.351 74.4108 129.241 74.0508C129.136 73.6908 128.977 73.3695 128.763 73.0869C128.553 72.8044 128.293 72.5811 127.983 72.417C127.674 72.2529 127.318 72.1709 126.917 72.1709C126.516 72.1709 126.16 72.2529 125.851 72.417C125.545 72.5811 125.285 72.8044 125.071 73.0869C124.862 73.3695 124.702 73.6908 124.593 74.0508C124.488 74.4108 124.436 74.7913 124.436 75.1924ZM132.83 71.6035V79H132.017V71.6035H132.83ZM131.873 69.4639C131.873 69.3089 131.921 69.179 132.017 69.0742C132.117 68.9648 132.254 68.9102 132.427 68.9102C132.6 68.9102 132.737 68.9648 132.837 69.0742C132.942 69.179 132.994 69.3089 132.994 69.4639C132.994 69.6143 132.942 69.7441 132.837 69.8535C132.737 69.9583 132.6 70.0107 132.427 70.0107C132.254 70.0107 132.117 69.9583 132.017 69.8535C131.921 69.7441 131.873 69.6143 131.873 69.4639ZM135.879 73.1826V79H135.065V71.6035H135.845L135.879 73.1826ZM135.694 74.8438L135.332 74.6387C135.359 74.2012 135.448 73.791 135.599 73.4082C135.749 73.0254 135.952 72.6882 136.207 72.3965C136.467 72.1048 136.77 71.877 137.116 71.7129C137.467 71.5488 137.854 71.4668 138.278 71.4668C138.647 71.4668 138.978 71.5169 139.27 71.6172C139.561 71.7174 139.81 71.877 140.015 72.0957C140.22 72.3145 140.375 72.5947 140.479 72.9365C140.589 73.2783 140.644 73.6953 140.644 74.1875V79H139.823V74.1807C139.823 73.6702 139.753 73.2715 139.611 72.9844C139.47 72.6927 139.27 72.4854 139.01 72.3623C138.75 72.2393 138.442 72.1777 138.087 72.1777C137.695 72.1777 137.351 72.2643 137.055 72.4375C136.763 72.6061 136.517 72.8271 136.316 73.1006C136.12 73.3695 135.97 73.6589 135.865 73.9688C135.76 74.2741 135.703 74.5658 135.694 74.8438ZM147.261 77.6738V73.8594C147.261 73.5085 147.188 73.2054 147.042 72.9502C146.896 72.695 146.682 72.499 146.399 72.3623C146.117 72.2256 145.768 72.1572 145.354 72.1572C144.971 72.1572 144.629 72.2256 144.328 72.3623C144.032 72.4945 143.797 72.6745 143.624 72.9023C143.455 73.1257 143.371 73.374 143.371 73.6475L142.551 73.6406C142.551 73.3626 142.619 73.0938 142.756 72.834C142.893 72.5742 143.086 72.3418 143.337 72.1367C143.588 71.9316 143.886 71.7699 144.232 71.6514C144.583 71.5283 144.968 71.4668 145.388 71.4668C145.916 71.4668 146.381 71.5557 146.782 71.7334C147.188 71.9111 147.505 72.1777 147.732 72.5332C147.96 72.8887 148.074 73.3353 148.074 73.873V77.4482C148.074 77.7035 148.092 77.9678 148.129 78.2412C148.17 78.5146 148.227 78.7402 148.3 78.918V79H147.432C147.377 78.8359 147.334 78.6309 147.302 78.3848C147.274 78.1341 147.261 77.8971 147.261 77.6738ZM147.452 74.6934L147.466 75.3223H145.859C145.44 75.3223 145.064 75.361 144.731 75.4385C144.403 75.5114 144.125 75.6208 143.897 75.7666C143.67 75.9079 143.494 76.0788 143.371 76.2793C143.253 76.4798 143.193 76.7077 143.193 76.9629C143.193 77.2272 143.259 77.4688 143.392 77.6875C143.528 77.9062 143.72 78.0817 143.966 78.2139C144.216 78.3415 144.513 78.4053 144.854 78.4053C145.31 78.4053 145.711 78.321 146.058 78.1523C146.409 77.9837 146.698 77.7627 146.926 77.4893C147.154 77.2158 147.306 76.9173 147.384 76.5938L147.739 77.0654C147.68 77.2933 147.571 77.528 147.411 77.7695C147.256 78.0065 147.053 78.2298 146.803 78.4395C146.552 78.6445 146.256 78.8132 145.914 78.9453C145.577 79.0729 145.194 79.1367 144.766 79.1367C144.283 79.1367 143.861 79.0456 143.501 78.8633C143.146 78.681 142.868 78.4326 142.667 78.1182C142.471 77.7992 142.373 77.4391 142.373 77.0381C142.373 76.6735 142.451 76.3477 142.605 76.0605C142.76 75.7689 142.984 75.5228 143.275 75.3223C143.572 75.1172 143.927 74.9622 144.342 74.8574C144.761 74.748 145.23 74.6934 145.75 74.6934H147.452ZM154.698 77.1133C154.698 76.9128 154.648 76.7145 154.548 76.5186C154.448 76.3226 154.254 76.1426 153.967 75.9785C153.684 75.8145 153.267 75.6755 152.716 75.5615C152.306 75.4704 151.939 75.3678 151.615 75.2539C151.296 75.14 151.027 75.0033 150.809 74.8438C150.59 74.6842 150.424 74.4928 150.31 74.2695C150.196 74.0462 150.139 73.7819 150.139 73.4766C150.139 73.2031 150.198 72.9456 150.316 72.7041C150.439 72.458 150.613 72.2438 150.836 72.0615C151.064 71.8747 151.337 71.7288 151.656 71.624C151.98 71.5192 152.342 71.4668 152.743 71.4668C153.313 71.4668 153.8 71.5648 154.206 71.7607C154.616 71.9521 154.928 72.2142 155.143 72.5469C155.361 72.8796 155.471 73.2555 155.471 73.6748H154.657C154.657 73.4196 154.582 73.1781 154.432 72.9502C154.286 72.7223 154.069 72.5355 153.782 72.3896C153.5 72.2438 153.153 72.1709 152.743 72.1709C152.319 72.1709 151.975 72.2347 151.711 72.3623C151.447 72.4899 151.253 72.6517 151.13 72.8477C151.011 73.0436 150.952 73.2464 150.952 73.4561C150.952 73.6201 150.977 73.7705 151.027 73.9072C151.082 74.0394 151.178 74.1624 151.314 74.2764C151.456 74.3903 151.656 74.4974 151.916 74.5977C152.176 74.6979 152.513 74.7959 152.928 74.8916C153.525 75.0238 154.012 75.1855 154.391 75.377C154.773 75.5638 155.056 75.7962 155.238 76.0742C155.421 76.3477 155.512 76.6803 155.512 77.0723C155.512 77.3776 155.448 77.6579 155.32 77.9131C155.193 78.1637 155.008 78.3802 154.767 78.5625C154.53 78.7448 154.243 78.8861 153.905 78.9863C153.573 79.0866 153.199 79.1367 152.784 79.1367C152.16 79.1367 151.631 79.0342 151.198 78.8291C150.77 78.6195 150.444 78.346 150.221 78.0088C150.002 77.667 149.893 77.3047 149.893 76.9219H150.706C150.733 77.3047 150.854 77.6077 151.068 77.8311C151.283 78.0498 151.545 78.2048 151.854 78.2959C152.169 78.387 152.479 78.4326 152.784 78.4326C153.203 78.4326 153.554 78.3711 153.837 78.248C154.119 78.125 154.334 77.9632 154.479 77.7627C154.625 77.5622 154.698 77.3457 154.698 77.1133ZM156.913 75.418V75.1924C156.913 74.6546 156.991 74.1579 157.146 73.7021C157.3 73.2464 157.521 72.8522 157.809 72.5195C158.1 72.1868 158.449 71.9294 158.854 71.7471C159.26 71.5602 159.711 71.4668 160.208 71.4668C160.709 71.4668 161.163 71.5602 161.568 71.7471C161.974 71.9294 162.323 72.1868 162.614 72.5195C162.906 72.8522 163.129 73.2464 163.284 73.7021C163.439 74.1579 163.517 74.6546 163.517 75.1924V75.418C163.517 75.9557 163.439 76.4525 163.284 76.9082C163.129 77.3594 162.906 77.7513 162.614 78.084C162.327 78.4167 161.981 78.6764 161.575 78.8633C161.17 79.0456 160.718 79.1367 160.222 79.1367C159.72 79.1367 159.267 79.0456 158.861 78.8633C158.456 78.6764 158.107 78.4167 157.815 78.084C157.524 77.7513 157.3 77.3594 157.146 76.9082C156.991 76.4525 156.913 75.9557 156.913 75.418ZM157.727 75.1924V75.418C157.727 75.8236 157.781 76.2087 157.891 76.5732C158 76.9333 158.16 77.2546 158.369 77.5371C158.579 77.8151 158.839 78.0339 159.148 78.1934C159.458 78.3529 159.816 78.4326 160.222 78.4326C160.623 78.4326 160.976 78.3529 161.281 78.1934C161.591 78.0339 161.851 77.8151 162.061 77.5371C162.27 77.2546 162.427 76.9333 162.532 76.5732C162.642 76.2087 162.696 75.8236 162.696 75.418V75.1924C162.696 74.7913 162.642 74.4108 162.532 74.0508C162.427 73.6908 162.268 73.3695 162.054 73.0869C161.844 72.8044 161.584 72.5811 161.274 72.417C160.965 72.2529 160.609 72.1709 160.208 72.1709C159.807 72.1709 159.451 72.2529 159.142 72.417C158.836 72.5811 158.576 72.8044 158.362 73.0869C158.153 73.3695 157.993 73.6908 157.884 74.0508C157.779 74.4108 157.727 74.7913 157.727 75.1924ZM166.121 71.6035V79H165.308V71.6035H166.121ZM165.164 69.4639C165.164 69.3089 165.212 69.179 165.308 69.0742C165.408 68.9648 165.545 68.9102 165.718 68.9102C165.891 68.9102 166.028 68.9648 166.128 69.0742C166.233 69.179 166.285 69.3089 166.285 69.4639C166.285 69.6143 166.233 69.7441 166.128 69.8535C166.028 69.9583 165.891 70.0107 165.718 70.0107C165.545 70.0107 165.408 69.9583 165.308 69.8535C165.212 69.7441 165.164 69.6143 165.164 69.4639ZM168.678 71.6035L170.674 74.5908L172.677 71.6035H173.647L171.139 75.2266L173.75 79H172.793L170.681 75.876L168.575 79H167.618L170.229 75.2266L167.721 71.6035H168.678ZM175.992 73.1826V79H175.179V71.6035H175.958L175.992 73.1826ZM175.808 74.8438L175.445 74.6387C175.473 74.2012 175.562 73.791 175.712 73.4082C175.862 73.0254 176.065 72.6882 176.32 72.3965C176.58 72.1048 176.883 71.877 177.229 71.7129C177.58 71.5488 177.968 71.4668 178.392 71.4668C178.761 71.4668 179.091 71.5169 179.383 71.6172C179.674 71.7174 179.923 71.877 180.128 72.0957C180.333 72.3145 180.488 72.5947 180.593 72.9365C180.702 73.2783 180.757 73.6953 180.757 74.1875V79H179.937V74.1807C179.937 73.6702 179.866 73.2715 179.725 72.9844C179.583 72.6927 179.383 72.4854 179.123 72.3623C178.863 72.2393 178.556 72.1777 178.2 72.1777C177.808 72.1777 177.464 72.2643 177.168 72.4375C176.876 72.6061 176.63 72.8271 176.43 73.1006C176.234 73.3695 176.083 73.6589 175.979 73.9688C175.874 74.2741 175.817 74.5658 175.808 74.8438ZM187.374 77.6738V73.8594C187.374 73.5085 187.301 73.2054 187.155 72.9502C187.009 72.695 186.795 72.499 186.513 72.3623C186.23 72.2256 185.882 72.1572 185.467 72.1572C185.084 72.1572 184.742 72.2256 184.441 72.3623C184.145 72.4945 183.91 72.6745 183.737 72.9023C183.569 73.1257 183.484 73.374 183.484 73.6475L182.664 73.6406C182.664 73.3626 182.732 73.0938 182.869 72.834C183.006 72.5742 183.2 72.3418 183.45 72.1367C183.701 71.9316 183.999 71.7699 184.346 71.6514C184.697 71.5283 185.082 71.4668 185.501 71.4668C186.03 71.4668 186.494 71.5557 186.896 71.7334C187.301 71.9111 187.618 72.1777 187.846 72.5332C188.074 72.8887 188.188 73.3353 188.188 73.873V77.4482C188.188 77.7035 188.206 77.9678 188.242 78.2412C188.283 78.5146 188.34 78.7402 188.413 78.918V79H187.545C187.49 78.8359 187.447 78.6309 187.415 78.3848C187.388 78.1341 187.374 77.8971 187.374 77.6738ZM187.565 74.6934L187.579 75.3223H185.973C185.553 75.3223 185.177 75.361 184.845 75.4385C184.517 75.5114 184.239 75.6208 184.011 75.7666C183.783 75.9079 183.607 76.0788 183.484 76.2793C183.366 76.4798 183.307 76.7077 183.307 76.9629C183.307 77.2272 183.373 77.4688 183.505 77.6875C183.642 77.9062 183.833 78.0817 184.079 78.2139C184.33 78.3415 184.626 78.4053 184.968 78.4053C185.424 78.4053 185.825 78.321 186.171 78.1523C186.522 77.9837 186.811 77.7627 187.039 77.4893C187.267 77.2158 187.42 76.9173 187.497 76.5938L187.853 77.0654C187.793 77.2933 187.684 77.528 187.524 77.7695C187.369 78.0065 187.167 78.2298 186.916 78.4395C186.665 78.6445 186.369 78.8132 186.027 78.9453C185.69 79.0729 185.307 79.1367 184.879 79.1367C184.396 79.1367 183.974 79.0456 183.614 78.8633C183.259 78.681 182.981 78.4326 182.78 78.1182C182.584 77.7992 182.486 77.4391 182.486 77.0381C182.486 76.6735 182.564 76.3477 182.719 76.0605C182.874 75.7689 183.097 75.5228 183.389 75.3223C183.685 75.1172 184.04 74.9622 184.455 74.8574C184.874 74.748 185.344 74.6934 185.863 74.6934H187.565ZM189.931 75.418V75.1924C189.931 74.6546 190.008 74.1579 190.163 73.7021C190.318 73.2464 190.539 72.8522 190.826 72.5195C191.118 72.1868 191.466 71.9294 191.872 71.7471C192.278 71.5602 192.729 71.4668 193.226 71.4668C193.727 71.4668 194.18 71.5602 194.586 71.7471C194.992 71.9294 195.34 72.1868 195.632 72.5195C195.924 72.8522 196.147 73.2464 196.302 73.7021C196.457 74.1579 196.534 74.6546 196.534 75.1924V75.418C196.534 75.9557 196.457 76.4525 196.302 76.9082C196.147 77.3594 195.924 77.7513 195.632 78.084C195.345 78.4167 194.998 78.6764 194.593 78.8633C194.187 79.0456 193.736 79.1367 193.239 79.1367C192.738 79.1367 192.285 79.0456 191.879 78.8633C191.473 78.6764 191.125 78.4167 190.833 78.084C190.541 77.7513 190.318 77.3594 190.163 76.9082C190.008 76.4525 189.931 75.9557 189.931 75.418ZM190.744 75.1924V75.418C190.744 75.8236 190.799 76.2087 190.908 76.5732C191.018 76.9333 191.177 77.2546 191.387 77.5371C191.596 77.8151 191.856 78.0339 192.166 78.1934C192.476 78.3529 192.834 78.4326 193.239 78.4326C193.64 78.4326 193.993 78.3529 194.299 78.1934C194.609 78.0339 194.868 77.8151 195.078 77.5371C195.288 77.2546 195.445 76.9333 195.55 76.5732C195.659 76.2087 195.714 75.8236 195.714 75.418V75.1924C195.714 74.7913 195.659 74.4108 195.55 74.0508C195.445 73.6908 195.285 73.3695 195.071 73.0869C194.862 72.8044 194.602 72.5811 194.292 72.417C193.982 72.2529 193.627 72.1709 193.226 72.1709C192.825 72.1709 192.469 72.2529 192.159 72.417C191.854 72.5811 191.594 72.8044 191.38 73.0869C191.17 73.3695 191.011 73.6908 190.901 74.0508C190.797 74.4108 190.744 74.7913 190.744 75.1924ZM199.139 71.6035V79H198.325V71.6035H199.139ZM198.182 69.4639C198.182 69.3089 198.229 69.179 198.325 69.0742C198.425 68.9648 198.562 68.9102 198.735 68.9102C198.909 68.9102 199.045 68.9648 199.146 69.0742C199.25 69.179 199.303 69.3089 199.303 69.4639C199.303 69.6143 199.25 69.7441 199.146 69.8535C199.045 69.9583 198.909 70.0107 198.735 70.0107C198.562 70.0107 198.425 69.9583 198.325 69.8535C198.229 69.7441 198.182 69.6143 198.182 69.4639ZM205.804 77.1133C205.804 76.9128 205.754 76.7145 205.653 76.5186C205.553 76.3226 205.359 76.1426 205.072 75.9785C204.79 75.8145 204.373 75.6755 203.821 75.5615C203.411 75.4704 203.044 75.3678 202.721 75.2539C202.402 75.14 202.133 75.0033 201.914 74.8438C201.695 74.6842 201.529 74.4928 201.415 74.2695C201.301 74.0462 201.244 73.7819 201.244 73.4766C201.244 73.2031 201.303 72.9456 201.422 72.7041C201.545 72.458 201.718 72.2438 201.941 72.0615C202.169 71.8747 202.443 71.7288 202.762 71.624C203.085 71.5192 203.448 71.4668 203.849 71.4668C204.418 71.4668 204.906 71.5648 205.312 71.7607C205.722 71.9521 206.034 72.2142 206.248 72.5469C206.467 72.8796 206.576 73.2555 206.576 73.6748H205.763C205.763 73.4196 205.688 73.1781 205.537 72.9502C205.391 72.7223 205.175 72.5355 204.888 72.3896C204.605 72.2438 204.259 72.1709 203.849 72.1709C203.425 72.1709 203.081 72.2347 202.816 72.3623C202.552 72.4899 202.358 72.6517 202.235 72.8477C202.117 73.0436 202.058 73.2464 202.058 73.4561C202.058 73.6201 202.083 73.7705 202.133 73.9072C202.188 74.0394 202.283 74.1624 202.42 74.2764C202.561 74.3903 202.762 74.4974 203.021 74.5977C203.281 74.6979 203.618 74.7959 204.033 74.8916C204.63 75.0238 205.118 75.1855 205.496 75.377C205.879 75.5638 206.161 75.7962 206.344 76.0742C206.526 76.3477 206.617 76.6803 206.617 77.0723C206.617 77.3776 206.553 77.6579 206.426 77.9131C206.298 78.1637 206.114 78.3802 205.872 78.5625C205.635 78.7448 205.348 78.8861 205.011 78.9863C204.678 79.0866 204.304 79.1367 203.89 79.1367C203.265 79.1367 202.737 79.0342 202.304 78.8291C201.875 78.6195 201.549 78.346 201.326 78.0088C201.107 77.667 200.998 77.3047 200.998 76.9219H201.812C201.839 77.3047 201.96 77.6077 202.174 77.8311C202.388 78.0498 202.65 78.2048 202.96 78.2959C203.274 78.387 203.584 78.4326 203.89 78.4326C204.309 78.4326 204.66 78.3711 204.942 78.248C205.225 78.125 205.439 77.9632 205.585 77.7627C205.731 77.5622 205.804 77.3457 205.804 77.1133ZM209.283 73.1826V79H208.47V71.6035H209.249L209.283 73.1826ZM209.099 74.8438L208.736 74.6387C208.764 74.2012 208.853 73.791 209.003 73.4082C209.153 73.0254 209.356 72.6882 209.611 72.3965C209.871 72.1048 210.174 71.877 210.521 71.7129C210.871 71.5488 211.259 71.4668 211.683 71.4668C212.052 71.4668 212.382 71.5169 212.674 71.6172C212.965 71.7174 213.214 71.877 213.419 72.0957C213.624 72.3145 213.779 72.5947 213.884 72.9365C213.993 73.2783 214.048 73.6953 214.048 74.1875V79H213.228V74.1807C213.228 73.6702 213.157 73.2715 213.016 72.9844C212.874 72.6927 212.674 72.4854 212.414 72.3623C212.154 72.2393 211.847 72.1777 211.491 72.1777C211.099 72.1777 210.755 72.2643 210.459 72.4375C210.167 72.6061 209.921 72.8271 209.721 73.1006C209.525 73.3695 209.374 73.6589 209.27 73.9688C209.165 74.2741 209.108 74.5658 209.099 74.8438ZM216.488 71.6035L218.484 74.5908L220.487 71.6035H221.458L218.949 75.2266L221.561 79H220.604L218.491 75.876L216.386 79H215.429L218.04 75.2266L215.531 71.6035H216.488ZM222.401 75.418V75.1924C222.401 74.6546 222.479 74.1579 222.634 73.7021C222.789 73.2464 223.01 72.8522 223.297 72.5195C223.589 72.1868 223.937 71.9294 224.343 71.7471C224.748 71.5602 225.2 71.4668 225.696 71.4668C226.198 71.4668 226.651 71.5602 227.057 71.7471C227.462 71.9294 227.811 72.1868 228.103 72.5195C228.394 72.8522 228.618 73.2464 228.772 73.7021C228.927 74.1579 229.005 74.6546 229.005 75.1924V75.418C229.005 75.9557 228.927 76.4525 228.772 76.9082C228.618 77.3594 228.394 77.7513 228.103 78.084C227.815 78.4167 227.469 78.6764 227.063 78.8633C226.658 79.0456 226.207 79.1367 225.71 79.1367C225.209 79.1367 224.755 79.0456 224.35 78.8633C223.944 78.6764 223.595 78.4167 223.304 78.084C223.012 77.7513 222.789 77.3594 222.634 76.9082C222.479 76.4525 222.401 75.9557 222.401 75.418ZM223.215 75.1924V75.418C223.215 75.8236 223.27 76.2087 223.379 76.5732C223.488 76.9333 223.648 77.2546 223.857 77.5371C224.067 77.8151 224.327 78.0339 224.637 78.1934C224.947 78.3529 225.304 78.4326 225.71 78.4326C226.111 78.4326 226.464 78.3529 226.77 78.1934C227.079 78.0339 227.339 77.8151 227.549 77.5371C227.758 77.2546 227.916 76.9333 228.021 76.5732C228.13 76.2087 228.185 75.8236 228.185 75.418V75.1924C228.185 74.7913 228.13 74.4108 228.021 74.0508C227.916 73.6908 227.756 73.3695 227.542 73.0869C227.332 72.8044 227.073 72.5811 226.763 72.417C226.453 72.2529 226.097 72.1709 225.696 72.1709C225.295 72.1709 224.94 72.2529 224.63 72.417C224.325 72.5811 224.065 72.8044 223.851 73.0869C223.641 73.3695 223.481 73.6908 223.372 74.0508C223.267 74.4108 223.215 74.7913 223.215 75.1924ZM231.609 71.6035V79H230.796V71.6035H231.609ZM230.652 69.4639C230.652 69.3089 230.7 69.179 230.796 69.0742C230.896 68.9648 231.033 68.9102 231.206 68.9102C231.379 68.9102 231.516 68.9648 231.616 69.0742C231.721 69.179 231.773 69.3089 231.773 69.4639C231.773 69.6143 231.721 69.7441 231.616 69.8535C231.516 69.9583 231.379 70.0107 231.206 70.0107C231.033 70.0107 230.896 69.9583 230.796 69.8535C230.7 69.7441 230.652 69.6143 230.652 69.4639ZM238.343 77.6738V73.8594C238.343 73.5085 238.27 73.2054 238.124 72.9502C237.978 72.695 237.764 72.499 237.481 72.3623C237.199 72.2256 236.85 72.1572 236.436 72.1572C236.053 72.1572 235.711 72.2256 235.41 72.3623C235.114 72.4945 234.879 72.6745 234.706 72.9023C234.537 73.1257 234.453 73.374 234.453 73.6475L233.633 73.6406C233.633 73.3626 233.701 73.0938 233.838 72.834C233.975 72.5742 234.168 72.3418 234.419 72.1367C234.67 71.9316 234.968 71.7699 235.314 71.6514C235.665 71.5283 236.05 71.4668 236.47 71.4668C236.998 71.4668 237.463 71.5557 237.864 71.7334C238.27 71.9111 238.587 72.1777 238.814 72.5332C239.042 72.8887 239.156 73.3353 239.156 73.873V77.4482C239.156 77.7035 239.174 77.9678 239.211 78.2412C239.252 78.5146 239.309 78.7402 239.382 78.918V79H238.514C238.459 78.8359 238.416 78.6309 238.384 78.3848C238.356 78.1341 238.343 77.8971 238.343 77.6738ZM238.534 74.6934L238.548 75.3223H236.941C236.522 75.3223 236.146 75.361 235.813 75.4385C235.485 75.5114 235.207 75.6208 234.979 75.7666C234.752 75.9079 234.576 76.0788 234.453 76.2793C234.335 76.4798 234.275 76.7077 234.275 76.9629C234.275 77.2272 234.341 77.4688 234.474 77.6875C234.61 77.9062 234.802 78.0817 235.048 78.2139C235.299 78.3415 235.595 78.4053 235.937 78.4053C236.392 78.4053 236.793 78.321 237.14 78.1523C237.491 77.9837 237.78 77.7627 238.008 77.4893C238.236 77.2158 238.388 76.9173 238.466 76.5938L238.821 77.0654C238.762 77.2933 238.653 77.528 238.493 77.7695C238.338 78.0065 238.135 78.2298 237.885 78.4395C237.634 78.6445 237.338 78.8132 236.996 78.9453C236.659 79.0729 236.276 79.1367 235.848 79.1367C235.365 79.1367 234.943 79.0456 234.583 78.8633C234.228 78.681 233.95 78.4326 233.749 78.1182C233.553 77.7992 233.455 77.4391 233.455 77.0381C233.455 76.6735 233.533 76.3477 233.688 76.0605C233.842 75.7689 234.066 75.5228 234.357 75.3223C234.654 75.1172 235.009 74.9622 235.424 74.8574C235.843 74.748 236.312 74.6934 236.832 74.6934H238.534ZM242.164 73.1826V79H241.351V71.6035H242.13L242.164 73.1826ZM241.979 74.8438L241.617 74.6387C241.645 74.2012 241.733 73.791 241.884 73.4082C242.034 73.0254 242.237 72.6882 242.492 72.3965C242.752 72.1048 243.055 71.877 243.401 71.7129C243.752 71.5488 244.14 71.4668 244.563 71.4668C244.933 71.4668 245.263 71.5169 245.555 71.6172C245.846 71.7174 246.095 71.877 246.3 72.0957C246.505 72.3145 246.66 72.5947 246.765 72.9365C246.874 73.2783 246.929 73.6953 246.929 74.1875V79H246.108V74.1807C246.108 73.6702 246.038 73.2715 245.896 72.9844C245.755 72.6927 245.555 72.4854 245.295 72.3623C245.035 72.2393 244.728 72.1777 244.372 72.1777C243.98 72.1777 243.636 72.2643 243.34 72.4375C243.048 72.6061 242.802 72.8271 242.602 73.1006C242.406 73.3695 242.255 73.6589 242.15 73.9688C242.046 74.2741 241.989 74.5658 241.979 74.8438ZM249.369 71.6035L251.365 74.5908L253.368 71.6035H254.339L251.83 75.2266L254.441 79H253.484L251.372 75.876L249.267 79H248.31L250.921 75.2266L248.412 71.6035H249.369ZM255.282 75.418V75.1924C255.282 74.6546 255.36 74.1579 255.515 73.7021C255.67 73.2464 255.891 72.8522 256.178 72.5195C256.469 72.1868 256.818 71.9294 257.224 71.7471C257.629 71.5602 258.08 71.4668 258.577 71.4668C259.078 71.4668 259.532 71.5602 259.938 71.7471C260.343 71.9294 260.692 72.1868 260.983 72.5195C261.275 72.8522 261.498 73.2464 261.653 73.7021C261.808 74.1579 261.886 74.6546 261.886 75.1924V75.418C261.886 75.9557 261.808 76.4525 261.653 76.9082C261.498 77.3594 261.275 77.7513 260.983 78.084C260.696 78.4167 260.35 78.6764 259.944 78.8633C259.539 79.0456 259.088 79.1367 258.591 79.1367C258.09 79.1367 257.636 79.0456 257.23 78.8633C256.825 78.6764 256.476 78.4167 256.185 78.084C255.893 77.7513 255.67 77.3594 255.515 76.9082C255.36 76.4525 255.282 75.9557 255.282 75.418ZM256.096 75.1924V75.418C256.096 75.8236 256.15 76.2087 256.26 76.5732C256.369 76.9333 256.529 77.2546 256.738 77.5371C256.948 77.8151 257.208 78.0339 257.518 78.1934C257.827 78.3529 258.185 78.4326 258.591 78.4326C258.992 78.4326 259.345 78.3529 259.65 78.1934C259.96 78.0339 260.22 77.8151 260.43 77.5371C260.639 77.2546 260.797 76.9333 260.901 76.5732C261.011 76.2087 261.065 75.8236 261.065 75.418V75.1924C261.065 74.7913 261.011 74.4108 260.901 74.0508C260.797 73.6908 260.637 73.3695 260.423 73.0869C260.213 72.8044 259.953 72.5811 259.644 72.417C259.334 72.2529 258.978 72.1709 258.577 72.1709C258.176 72.1709 257.821 72.2529 257.511 72.417C257.205 72.5811 256.946 72.8044 256.731 73.0869C256.522 73.3695 256.362 73.6908 256.253 74.0508C256.148 74.4108 256.096 74.7913 256.096 75.1924ZM264.49 71.6035V79H263.677V71.6035H264.49ZM263.533 69.4639C263.533 69.3089 263.581 69.179 263.677 69.0742C263.777 68.9648 263.914 68.9102 264.087 68.9102C264.26 68.9102 264.397 68.9648 264.497 69.0742C264.602 69.179 264.654 69.3089 264.654 69.4639C264.654 69.6143 264.602 69.7441 264.497 69.8535C264.397 69.9583 264.26 70.0107 264.087 70.0107C263.914 70.0107 263.777 69.9583 263.677 69.8535C263.581 69.7441 263.533 69.6143 263.533 69.4639ZM271.224 77.6738V73.8594C271.224 73.5085 271.151 73.2054 271.005 72.9502C270.859 72.695 270.645 72.499 270.362 72.3623C270.08 72.2256 269.731 72.1572 269.316 72.1572C268.934 72.1572 268.592 72.2256 268.291 72.3623C267.995 72.4945 267.76 72.6745 267.587 72.9023C267.418 73.1257 267.334 73.374 267.334 73.6475L266.514 73.6406C266.514 73.3626 266.582 73.0938 266.719 72.834C266.855 72.5742 267.049 72.3418 267.3 72.1367C267.55 71.9316 267.849 71.7699 268.195 71.6514C268.546 71.5283 268.931 71.4668 269.351 71.4668C269.879 71.4668 270.344 71.5557 270.745 71.7334C271.151 71.9111 271.467 72.1777 271.695 72.5332C271.923 72.8887 272.037 73.3353 272.037 73.873V77.4482C272.037 77.7035 272.055 77.9678 272.092 78.2412C272.133 78.5146 272.19 78.7402 272.263 78.918V79H271.395C271.34 78.8359 271.297 78.6309 271.265 78.3848C271.237 78.1341 271.224 77.8971 271.224 77.6738ZM271.415 74.6934L271.429 75.3223H269.822C269.403 75.3223 269.027 75.361 268.694 75.4385C268.366 75.5114 268.088 75.6208 267.86 75.7666C267.632 75.9079 267.457 76.0788 267.334 76.2793C267.215 76.4798 267.156 76.7077 267.156 76.9629C267.156 77.2272 267.222 77.4688 267.354 77.6875C267.491 77.9062 267.683 78.0817 267.929 78.2139C268.179 78.3415 268.476 78.4053 268.817 78.4053C269.273 78.4053 269.674 78.321 270.021 78.1523C270.371 77.9837 270.661 77.7627 270.889 77.4893C271.117 77.2158 271.269 76.9173 271.347 76.5938L271.702 77.0654C271.643 77.2933 271.534 77.528 271.374 77.7695C271.219 78.0065 271.016 78.2298 270.766 78.4395C270.515 78.6445 270.219 78.8132 269.877 78.9453C269.54 79.0729 269.157 79.1367 268.729 79.1367C268.245 79.1367 267.824 79.0456 267.464 78.8633C267.108 78.681 266.83 78.4326 266.63 78.1182C266.434 77.7992 266.336 77.4391 266.336 77.0381C266.336 76.6735 266.413 76.3477 266.568 76.0605C266.723 75.7689 266.947 75.5228 267.238 75.3223C267.535 75.1172 267.89 74.9622 268.305 74.8574C268.724 74.748 269.193 74.6934 269.713 74.6934H271.415ZM278.661 77.1133C278.661 76.9128 278.611 76.7145 278.511 76.5186C278.41 76.3226 278.217 76.1426 277.93 75.9785C277.647 75.8145 277.23 75.6755 276.679 75.5615C276.269 75.4704 275.902 75.3678 275.578 75.2539C275.259 75.14 274.99 75.0033 274.771 74.8438C274.553 74.6842 274.386 74.4928 274.272 74.2695C274.159 74.0462 274.102 73.7819 274.102 73.4766C274.102 73.2031 274.161 72.9456 274.279 72.7041C274.402 72.458 274.576 72.2438 274.799 72.0615C275.027 71.8747 275.3 71.7288 275.619 71.624C275.943 71.5192 276.305 71.4668 276.706 71.4668C277.276 71.4668 277.763 71.5648 278.169 71.7607C278.579 71.9521 278.891 72.2142 279.105 72.5469C279.324 72.8796 279.434 73.2555 279.434 73.6748H278.62C278.62 73.4196 278.545 73.1781 278.395 72.9502C278.249 72.7223 278.032 72.5355 277.745 72.3896C277.463 72.2438 277.116 72.1709 276.706 72.1709C276.282 72.1709 275.938 72.2347 275.674 72.3623C275.41 72.4899 275.216 72.6517 275.093 72.8477C274.974 73.0436 274.915 73.2464 274.915 73.4561C274.915 73.6201 274.94 73.7705 274.99 73.9072C275.045 74.0394 275.141 74.1624 275.277 74.2764C275.419 74.3903 275.619 74.4974 275.879 74.5977C276.139 74.6979 276.476 74.7959 276.891 74.8916C277.488 75.0238 277.975 75.1855 278.354 75.377C278.736 75.5638 279.019 75.7962 279.201 76.0742C279.383 76.3477 279.475 76.6803 279.475 77.0723C279.475 77.3776 279.411 77.6579 279.283 77.9131C279.156 78.1637 278.971 78.3802 278.729 78.5625C278.493 78.7448 278.205 78.8861 277.868 78.9863C277.535 79.0866 277.162 79.1367 276.747 79.1367C276.123 79.1367 275.594 79.0342 275.161 78.8291C274.733 78.6195 274.407 78.346 274.184 78.0088C273.965 77.667 273.855 77.3047 273.855 76.9219H274.669C274.696 77.3047 274.817 77.6077 275.031 77.8311C275.245 78.0498 275.507 78.2048 275.817 78.2959C276.132 78.387 276.442 78.4326 276.747 78.4326C277.166 78.4326 277.517 78.3711 277.8 78.248C278.082 78.125 278.297 77.9632 278.442 77.7627C278.588 77.5622 278.661 77.3457 278.661 77.1133ZM282.141 73.1826V79H281.327V71.6035H282.106L282.141 73.1826ZM281.956 74.8438L281.594 74.6387C281.621 74.2012 281.71 73.791 281.86 73.4082C282.011 73.0254 282.214 72.6882 282.469 72.3965C282.729 72.1048 283.032 71.877 283.378 71.7129C283.729 71.5488 284.116 71.4668 284.54 71.4668C284.909 71.4668 285.24 71.5169 285.531 71.6172C285.823 71.7174 286.071 71.877 286.276 72.0957C286.481 72.3145 286.636 72.5947 286.741 72.9365C286.851 73.2783 286.905 73.6953 286.905 74.1875V79H286.085V74.1807C286.085 73.6702 286.014 73.2715 285.873 72.9844C285.732 72.6927 285.531 72.4854 285.271 72.3623C285.012 72.2393 284.704 72.1777 284.349 72.1777C283.957 72.1777 283.613 72.2643 283.316 72.4375C283.025 72.6061 282.779 72.8271 282.578 73.1006C282.382 73.3695 282.232 73.6589 282.127 73.9688C282.022 74.2741 281.965 74.5658 281.956 74.8438ZM124.395 87.6035L126.391 90.5908L128.394 87.6035H129.364L126.855 91.2266L129.467 95H128.51L126.397 91.876L124.292 95H123.335L125.946 91.2266L123.438 87.6035H124.395ZM130.308 91.418V91.1924C130.308 90.6546 130.385 90.1579 130.54 89.7021C130.695 89.2464 130.916 88.8522 131.203 88.5195C131.495 88.1868 131.843 87.9294 132.249 87.7471C132.655 87.5602 133.106 87.4668 133.603 87.4668C134.104 87.4668 134.557 87.5602 134.963 87.7471C135.368 87.9294 135.717 88.1868 136.009 88.5195C136.3 88.8522 136.524 89.2464 136.679 89.7021C136.834 90.1579 136.911 90.6546 136.911 91.1924V91.418C136.911 91.9557 136.834 92.4525 136.679 92.9082C136.524 93.3594 136.3 93.7513 136.009 94.084C135.722 94.4167 135.375 94.6764 134.97 94.8633C134.564 95.0456 134.113 95.1367 133.616 95.1367C133.115 95.1367 132.661 95.0456 132.256 94.8633C131.85 94.6764 131.502 94.4167 131.21 94.084C130.918 93.7513 130.695 93.3594 130.54 92.9082C130.385 92.4525 130.308 91.9557 130.308 91.418ZM131.121 91.1924V91.418C131.121 91.8236 131.176 92.2087 131.285 92.5732C131.395 92.9333 131.554 93.2546 131.764 93.5371C131.973 93.8151 132.233 94.0339 132.543 94.1934C132.853 94.3529 133.211 94.4326 133.616 94.4326C134.017 94.4326 134.37 94.3529 134.676 94.1934C134.986 94.0339 135.245 93.8151 135.455 93.5371C135.665 93.2546 135.822 92.9333 135.927 92.5732C136.036 92.2087 136.091 91.8236 136.091 91.418V91.1924C136.091 90.7913 136.036 90.4108 135.927 90.0508C135.822 89.6908 135.662 89.3695 135.448 89.0869C135.239 88.8044 134.979 88.5811 134.669 88.417C134.359 88.2529 134.004 88.1709 133.603 88.1709C133.201 88.1709 132.846 88.2529 132.536 88.417C132.231 88.5811 131.971 88.8044 131.757 89.0869C131.547 89.3695 131.388 89.6908 131.278 90.0508C131.174 90.4108 131.121 90.7913 131.121 91.1924ZM139.516 87.6035V95H138.702V87.6035H139.516ZM138.559 85.4639C138.559 85.3089 138.606 85.179 138.702 85.0742C138.802 84.9648 138.939 84.9102 139.112 84.9102C139.285 84.9102 139.422 84.9648 139.522 85.0742C139.627 85.179 139.68 85.3089 139.68 85.4639C139.68 85.6143 139.627 85.7441 139.522 85.8535C139.422 85.9583 139.285 86.0107 139.112 86.0107C138.939 86.0107 138.802 85.9583 138.702 85.8535C138.606 85.7441 138.559 85.6143 138.559 85.4639ZM146.249 93.6738V89.8594C146.249 89.5085 146.176 89.2054 146.03 88.9502C145.884 88.695 145.67 88.499 145.388 88.3623C145.105 88.2256 144.757 88.1572 144.342 88.1572C143.959 88.1572 143.617 88.2256 143.316 88.3623C143.02 88.4945 142.785 88.6745 142.612 88.9023C142.444 89.1257 142.359 89.374 142.359 89.6475L141.539 89.6406C141.539 89.3626 141.607 89.0938 141.744 88.834C141.881 88.5742 142.075 88.3418 142.325 88.1367C142.576 87.9316 142.874 87.7699 143.221 87.6514C143.572 87.5283 143.957 87.4668 144.376 87.4668C144.905 87.4668 145.369 87.5557 145.771 87.7334C146.176 87.9111 146.493 88.1777 146.721 88.5332C146.949 88.8887 147.062 89.3353 147.062 89.873V93.4482C147.062 93.7035 147.081 93.9678 147.117 94.2412C147.158 94.5146 147.215 94.7402 147.288 94.918V95H146.42C146.365 94.8359 146.322 94.6309 146.29 94.3848C146.263 94.1341 146.249 93.8971 146.249 93.6738ZM146.44 90.6934L146.454 91.3223H144.848C144.428 91.3223 144.052 91.361 143.72 91.4385C143.392 91.5114 143.114 91.6208 142.886 91.7666C142.658 91.9079 142.482 92.0788 142.359 92.2793C142.241 92.4798 142.182 92.7077 142.182 92.9629C142.182 93.2272 142.248 93.4688 142.38 93.6875C142.517 93.9062 142.708 94.0817 142.954 94.2139C143.205 94.3415 143.501 94.4053 143.843 94.4053C144.299 94.4053 144.7 94.321 145.046 94.1523C145.397 93.9837 145.686 93.7627 145.914 93.4893C146.142 93.2158 146.295 92.9173 146.372 92.5938L146.728 93.0654C146.668 93.2933 146.559 93.528 146.399 93.7695C146.244 94.0065 146.042 94.2298 145.791 94.4395C145.54 94.6445 145.244 94.8132 144.902 94.9453C144.565 95.0729 144.182 95.1367 143.754 95.1367C143.271 95.1367 142.849 95.0456 142.489 94.8633C142.134 94.681 141.856 94.4326 141.655 94.1182C141.459 93.7992 141.361 93.4391 141.361 93.0381C141.361 92.6735 141.439 92.3477 141.594 92.0605C141.749 91.7689 141.972 91.5228 142.264 91.3223C142.56 91.1172 142.915 90.9622 143.33 90.8574C143.749 90.748 144.219 90.6934 144.738 90.6934H146.44ZM149.578 87.6035L151.574 90.5908L153.577 87.6035H154.548L152.039 91.2266L154.65 95H153.693L151.581 91.876L149.476 95H148.519L151.13 91.2266L148.621 87.6035H149.578ZM156.893 89.1826V95H156.079V87.6035H156.858L156.893 89.1826ZM156.708 90.8438L156.346 90.6387C156.373 90.2012 156.462 89.791 156.612 89.4082C156.763 89.0254 156.965 88.6882 157.221 88.3965C157.48 88.1048 157.784 87.877 158.13 87.7129C158.481 87.5488 158.868 87.4668 159.292 87.4668C159.661 87.4668 159.992 87.5169 160.283 87.6172C160.575 87.7174 160.823 87.877 161.028 88.0957C161.233 88.3145 161.388 88.5947 161.493 88.9365C161.603 89.2783 161.657 89.6953 161.657 90.1875V95H160.837V90.1807C160.837 89.6702 160.766 89.2715 160.625 88.9844C160.484 88.6927 160.283 88.4854 160.023 88.3623C159.764 88.2393 159.456 88.1777 159.101 88.1777C158.709 88.1777 158.365 88.2643 158.068 88.4375C157.777 88.6061 157.531 88.8271 157.33 89.1006C157.134 89.3695 156.984 89.6589 156.879 89.9688C156.774 90.2741 156.717 90.5658 156.708 90.8438ZM163.325 91.418V91.1924C163.325 90.6546 163.403 90.1579 163.558 89.7021C163.713 89.2464 163.934 88.8522 164.221 88.5195C164.512 88.1868 164.861 87.9294 165.267 87.7471C165.672 87.5602 166.123 87.4668 166.62 87.4668C167.121 87.4668 167.575 87.5602 167.98 87.7471C168.386 87.9294 168.735 88.1868 169.026 88.5195C169.318 88.8522 169.541 89.2464 169.696 89.7021C169.851 90.1579 169.929 90.6546 169.929 91.1924V91.418C169.929 91.9557 169.851 92.4525 169.696 92.9082C169.541 93.3594 169.318 93.7513 169.026 94.084C168.739 94.4167 168.393 94.6764 167.987 94.8633C167.582 95.0456 167.131 95.1367 166.634 95.1367C166.132 95.1367 165.679 95.0456 165.273 94.8633C164.868 94.6764 164.519 94.4167 164.228 94.084C163.936 93.7513 163.713 93.3594 163.558 92.9082C163.403 92.4525 163.325 91.9557 163.325 91.418ZM164.139 91.1924V91.418C164.139 91.8236 164.193 92.2087 164.303 92.5732C164.412 92.9333 164.572 93.2546 164.781 93.5371C164.991 93.8151 165.251 94.0339 165.561 94.1934C165.87 94.3529 166.228 94.4326 166.634 94.4326C167.035 94.4326 167.388 94.3529 167.693 94.1934C168.003 94.0339 168.263 93.8151 168.473 93.5371C168.682 93.2546 168.84 92.9333 168.944 92.5732C169.054 92.2087 169.108 91.8236 169.108 91.418V91.1924C169.108 90.7913 169.054 90.4108 168.944 90.0508C168.84 89.6908 168.68 89.3695 168.466 89.0869C168.256 88.8044 167.996 88.5811 167.687 88.417C167.377 88.2529 167.021 88.1709 166.62 88.1709C166.219 88.1709 165.864 88.2529 165.554 88.417C165.248 88.5811 164.989 88.8044 164.774 89.0869C164.565 89.3695 164.405 89.6908 164.296 90.0508C164.191 90.4108 164.139 90.7913 164.139 91.1924ZM172.533 87.6035V95H171.72V87.6035H172.533ZM171.576 85.4639C171.576 85.3089 171.624 85.179 171.72 85.0742C171.82 84.9648 171.957 84.9102 172.13 84.9102C172.303 84.9102 172.44 84.9648 172.54 85.0742C172.645 85.179 172.697 85.3089 172.697 85.4639C172.697 85.6143 172.645 85.7441 172.54 85.8535C172.44 85.9583 172.303 86.0107 172.13 86.0107C171.957 86.0107 171.82 85.9583 171.72 85.8535C171.624 85.7441 171.576 85.6143 171.576 85.4639ZM179.267 93.6738V89.8594C179.267 89.5085 179.194 89.2054 179.048 88.9502C178.902 88.695 178.688 88.499 178.405 88.3623C178.123 88.2256 177.774 88.1572 177.359 88.1572C176.977 88.1572 176.635 88.2256 176.334 88.3623C176.038 88.4945 175.803 88.6745 175.63 88.9023C175.461 89.1257 175.377 89.374 175.377 89.6475L174.557 89.6406C174.557 89.3626 174.625 89.0938 174.762 88.834C174.898 88.5742 175.092 88.3418 175.343 88.1367C175.593 87.9316 175.892 87.7699 176.238 87.6514C176.589 87.5283 176.974 87.4668 177.394 87.4668C177.922 87.4668 178.387 87.5557 178.788 87.7334C179.194 87.9111 179.51 88.1777 179.738 88.5332C179.966 88.8887 180.08 89.3353 180.08 89.873V93.4482C180.08 93.7035 180.098 93.9678 180.135 94.2412C180.176 94.5146 180.233 94.7402 180.306 94.918V95H179.438C179.383 94.8359 179.34 94.6309 179.308 94.3848C179.28 94.1341 179.267 93.8971 179.267 93.6738ZM179.458 90.6934L179.472 91.3223H177.865C177.446 91.3223 177.07 91.361 176.737 91.4385C176.409 91.5114 176.131 91.6208 175.903 91.7666C175.675 91.9079 175.5 92.0788 175.377 92.2793C175.258 92.4798 175.199 92.7077 175.199 92.9629C175.199 93.2272 175.265 93.4688 175.397 93.6875C175.534 93.9062 175.726 94.0817 175.972 94.2139C176.222 94.3415 176.519 94.4053 176.86 94.4053C177.316 94.4053 177.717 94.321 178.063 94.1523C178.414 93.9837 178.704 93.7627 178.932 93.4893C179.16 93.2158 179.312 92.9173 179.39 92.5938L179.745 93.0654C179.686 93.2933 179.576 93.528 179.417 93.7695C179.262 94.0065 179.059 94.2298 178.809 94.4395C178.558 94.6445 178.262 94.8132 177.92 94.9453C177.583 95.0729 177.2 95.1367 176.771 95.1367C176.288 95.1367 175.867 95.0456 175.507 94.8633C175.151 94.681 174.873 94.4326 174.673 94.1182C174.477 93.7992 174.379 93.4391 174.379 93.0381C174.379 92.6735 174.456 92.3477 174.611 92.0605C174.766 91.7689 174.99 91.5228 175.281 91.3223C175.577 91.1172 175.933 90.9622 176.348 90.8574C176.767 90.748 177.236 90.6934 177.756 90.6934H179.458ZM186.704 93.1133C186.704 92.9128 186.654 92.7145 186.554 92.5186C186.453 92.3226 186.26 92.1426 185.973 91.9785C185.69 91.8145 185.273 91.6755 184.722 91.5615C184.312 91.4704 183.945 91.3678 183.621 91.2539C183.302 91.14 183.033 91.0033 182.814 90.8438C182.596 90.6842 182.429 90.4928 182.315 90.2695C182.201 90.0462 182.145 89.7819 182.145 89.4766C182.145 89.2031 182.204 88.9456 182.322 88.7041C182.445 88.458 182.618 88.2438 182.842 88.0615C183.07 87.8747 183.343 87.7288 183.662 87.624C183.986 87.5192 184.348 87.4668 184.749 87.4668C185.319 87.4668 185.806 87.5648 186.212 87.7607C186.622 87.9521 186.934 88.2142 187.148 88.5469C187.367 88.8796 187.477 89.2555 187.477 89.6748H186.663C186.663 89.4196 186.588 89.1781 186.438 88.9502C186.292 88.7223 186.075 88.5355 185.788 88.3896C185.506 88.2438 185.159 88.1709 184.749 88.1709C184.325 88.1709 183.981 88.2347 183.717 88.3623C183.452 88.4899 183.259 88.6517 183.136 88.8477C183.017 89.0436 182.958 89.2464 182.958 89.4561C182.958 89.6201 182.983 89.7705 183.033 89.9072C183.088 90.0394 183.184 90.1624 183.32 90.2764C183.462 90.3903 183.662 90.4974 183.922 90.5977C184.182 90.6979 184.519 90.7959 184.934 90.8916C185.531 91.0238 186.018 91.1855 186.396 91.377C186.779 91.5638 187.062 91.7962 187.244 92.0742C187.426 92.3477 187.518 92.6803 187.518 93.0723C187.518 93.3776 187.454 93.6579 187.326 93.9131C187.199 94.1637 187.014 94.3802 186.772 94.5625C186.535 94.7448 186.248 94.8861 185.911 94.9863C185.578 95.0866 185.205 95.1367 184.79 95.1367C184.166 95.1367 183.637 95.0342 183.204 94.8291C182.776 94.6195 182.45 94.346 182.227 94.0088C182.008 93.667 181.898 93.3047 181.898 92.9219H182.712C182.739 93.3047 182.86 93.6077 183.074 93.8311C183.288 94.0498 183.55 94.2048 183.86 94.2959C184.175 94.387 184.485 94.4326 184.79 94.4326C185.209 94.4326 185.56 94.3711 185.843 94.248C186.125 94.125 186.34 93.9632 186.485 93.7627C186.631 93.5622 186.704 93.3457 186.704 93.1133ZM190.184 89.1826V95H189.37V87.6035H190.149L190.184 89.1826ZM189.999 90.8438L189.637 90.6387C189.664 90.2012 189.753 89.791 189.903 89.4082C190.054 89.0254 190.257 88.6882 190.512 88.3965C190.771 88.1048 191.075 87.877 191.421 87.7129C191.772 87.5488 192.159 87.4668 192.583 87.4668C192.952 87.4668 193.283 87.5169 193.574 87.6172C193.866 87.7174 194.114 87.877 194.319 88.0957C194.524 88.3145 194.679 88.5947 194.784 88.9365C194.894 89.2783 194.948 89.6953 194.948 90.1875V95H194.128V90.1807C194.128 89.6702 194.057 89.2715 193.916 88.9844C193.775 88.6927 193.574 88.4854 193.314 88.3623C193.055 88.2393 192.747 88.1777 192.392 88.1777C192 88.1777 191.656 88.2643 191.359 88.4375C191.068 88.6061 190.822 88.8271 190.621 89.1006C190.425 89.3695 190.275 89.6589 190.17 89.9688C190.065 90.2741 190.008 90.5658 189.999 90.8438ZM197.389 87.6035L199.385 90.5908L201.388 87.6035H202.358L199.85 91.2266L202.461 95H201.504L199.392 91.876L197.286 95H196.329L198.94 91.2266L196.432 87.6035H197.389ZM208.388 93.6738V89.8594C208.388 89.5085 208.315 89.2054 208.169 88.9502C208.023 88.695 207.809 88.499 207.526 88.3623C207.244 88.2256 206.895 88.1572 206.48 88.1572C206.098 88.1572 205.756 88.2256 205.455 88.3623C205.159 88.4945 204.924 88.6745 204.751 88.9023C204.582 89.1257 204.498 89.374 204.498 89.6475L203.678 89.6406C203.678 89.3626 203.746 89.0938 203.883 88.834C204.02 88.5742 204.213 88.3418 204.464 88.1367C204.715 87.9316 205.013 87.7699 205.359 87.6514C205.71 87.5283 206.095 87.4668 206.515 87.4668C207.043 87.4668 207.508 87.5557 207.909 87.7334C208.315 87.9111 208.632 88.1777 208.859 88.5332C209.087 88.8887 209.201 89.3353 209.201 89.873V93.4482C209.201 93.7035 209.219 93.9678 209.256 94.2412C209.297 94.5146 209.354 94.7402 209.427 94.918V95H208.559C208.504 94.8359 208.461 94.6309 208.429 94.3848C208.401 94.1341 208.388 93.8971 208.388 93.6738ZM208.579 90.6934L208.593 91.3223H206.986C206.567 91.3223 206.191 91.361 205.858 91.4385C205.53 91.5114 205.252 91.6208 205.024 91.7666C204.797 91.9079 204.621 92.0788 204.498 92.2793C204.38 92.4798 204.32 92.7077 204.32 92.9629C204.32 93.2272 204.386 93.4688 204.519 93.6875C204.655 93.9062 204.847 94.0817 205.093 94.2139C205.343 94.3415 205.64 94.4053 205.981 94.4053C206.437 94.4053 206.838 94.321 207.185 94.1523C207.535 93.9837 207.825 93.7627 208.053 93.4893C208.281 93.2158 208.433 92.9173 208.511 92.5938L208.866 93.0654C208.807 93.2933 208.698 93.528 208.538 93.7695C208.383 94.0065 208.18 94.2298 207.93 94.4395C207.679 94.6445 207.383 94.8132 207.041 94.9453C206.704 95.0729 206.321 95.1367 205.893 95.1367C205.41 95.1367 204.988 95.0456 204.628 94.8633C204.272 94.681 203.994 94.4326 203.794 94.1182C203.598 93.7992 203.5 93.4391 203.5 93.0381C203.5 92.6735 203.577 92.3477 203.732 92.0605C203.887 91.7689 204.111 91.5228 204.402 91.3223C204.699 91.1172 205.054 90.9622 205.469 90.8574C205.888 90.748 206.357 90.6934 206.877 90.6934H208.579Z" fill="white"/>
<path d="M85.5 86.375C84.0082 86.375 82.5774 85.7824 81.5225 84.7275C80.4676 83.6726 79.875 82.2418 79.875 80.75C79.875 79.2582 80.4676 77.8274 81.5225 76.7725C82.5774 75.7176 84.0082 75.125 85.5 75.125C86.9918 75.125 88.4226 75.7176 89.4775 76.7725C90.5324 77.8274 91.125 79.2582 91.125 80.75C91.125 82.2418 90.5324 83.6726 89.4775 84.7275C88.4226 85.7824 86.9918 86.375 85.5 86.375ZM91.125 52.625L98.475 62H81.75V52.625M40.5 86.375C39.0082 86.375 37.5774 85.7824 36.5225 84.7275C35.4676 83.6726 34.875 82.2418 34.875 80.75C34.875 79.2582 35.4676 77.8274 36.5225 76.7725C37.5774 75.7176 39.0082 75.125 40.5 75.125C41.9918 75.125 43.4226 75.7176 44.4775 76.7725C45.5324 77.8274 46.125 79.2582 46.125 80.75C46.125 82.2418 45.5324 83.6726 44.4775 84.7275C43.4226 85.7824 41.9918 86.375 40.5 86.375ZM93 47H81.75V32H29.25C25.0875 32 21.75 35.3375 21.75 39.5V80.75H29.25C29.25 83.7337 30.4353 86.5952 32.545 88.705C34.6548 90.8147 37.5163 92 40.5 92C43.4837 92 46.3452 90.8147 48.455 88.705C50.5647 86.5952 51.75 83.7337 51.75 80.75H74.25C74.25 83.7337 75.4353 86.5952 77.545 88.705C79.6548 90.8147 82.5163 92 85.5 92C88.4837 92 91.3452 90.8147 93.455 88.705C95.5647 86.5952 96.75 83.7337 96.75 80.75H104.25V62L93 47Z" fill="white"/>
</svg>
