<svg width="169" height="130" viewBox="0 0 169 130" fill="none" xmlns="http://www.w3.org/2000/svg">
<rect width="169" height="130" rx="10" fill="#2A6D4C"/>
<path d="M42.1875 80.5703L39.0938 90H36.6016L40.8281 78.625H42.4141L42.1875 80.5703ZM44.7578 90L41.6562 80.5703L41.4062 78.625H43.0078L47.2578 90H44.7578ZM44.6172 85.7656V87.6016H38.6094V85.7656H44.6172ZM53.5234 81.5469H55.5625V89.7188C55.5625 90.4896 55.3906 91.1432 55.0469 91.6797C54.7083 92.2214 54.2344 92.6302 53.625 92.9062C53.0156 93.1875 52.3073 93.3281 51.5 93.3281C51.1458 93.3281 50.7708 93.2812 50.375 93.1875C49.9844 93.0938 49.6094 92.9479 49.25 92.75C48.8958 92.5521 48.599 92.3021 48.3594 92L49.3516 90.6719C49.612 90.974 49.9141 91.2083 50.2578 91.375C50.6016 91.5469 50.9818 91.6328 51.3984 91.6328C51.8047 91.6328 52.1484 91.5573 52.4297 91.4062C52.7109 91.2604 52.9271 91.0443 53.0781 90.7578C53.2292 90.4766 53.3047 90.1354 53.3047 89.7344V83.5L53.5234 81.5469ZM47.8359 85.875V85.7109C47.8359 85.0651 47.9141 84.4792 48.0703 83.9531C48.2318 83.4219 48.4583 82.9661 48.75 82.5859C49.0469 82.2057 49.4062 81.9115 49.8281 81.7031C50.25 81.4948 50.7266 81.3906 51.2578 81.3906C51.8203 81.3906 52.2917 81.4948 52.6719 81.7031C53.0521 81.9115 53.3646 82.2083 53.6094 82.5938C53.8542 82.974 54.0443 83.4245 54.1797 83.9453C54.3203 84.4609 54.4297 85.026 54.5078 85.6406V86C54.4297 86.5885 54.3125 87.1354 54.1562 87.6406C54 88.1458 53.7943 88.5885 53.5391 88.9688C53.2839 89.3438 52.9661 89.6354 52.5859 89.8438C52.2109 90.0521 51.763 90.1562 51.2422 90.1562C50.7214 90.1562 50.25 90.0495 49.8281 89.8359C49.4115 89.6224 49.0547 89.3229 48.7578 88.9375C48.4609 88.5521 48.2318 88.099 48.0703 87.5781C47.9141 87.0573 47.8359 86.4896 47.8359 85.875ZM50.0859 85.7109V85.875C50.0859 86.224 50.1198 86.5495 50.1875 86.8516C50.2552 87.1536 50.3594 87.4219 50.5 87.6562C50.6458 87.8854 50.8255 88.0651 51.0391 88.1953C51.2578 88.3203 51.5156 88.3828 51.8125 88.3828C52.224 88.3828 52.5599 88.2969 52.8203 88.125C53.0807 87.9479 53.276 87.7057 53.4062 87.3984C53.5365 87.0911 53.612 86.737 53.6328 86.3359V85.3125C53.6224 84.9844 53.5781 84.6901 53.5 84.4297C53.4219 84.1641 53.3125 83.9375 53.1719 83.75C53.0312 83.5625 52.849 83.4167 52.625 83.3125C52.401 83.2083 52.1354 83.1562 51.8281 83.1562C51.5312 83.1562 51.2734 83.224 51.0547 83.3594C50.8411 83.4896 50.6615 83.6693 50.5156 83.8984C50.375 84.1276 50.2682 84.3984 50.1953 84.7109C50.1224 85.0182 50.0859 85.3516 50.0859 85.7109ZM59.5625 83.3906V90H57.3125V81.5469H59.4297L59.5625 83.3906ZM62.1094 81.4922L62.0703 83.5781C61.9609 83.5625 61.8281 83.5495 61.6719 83.5391C61.5208 83.5234 61.3828 83.5156 61.2578 83.5156C60.9401 83.5156 60.6641 83.5573 60.4297 83.6406C60.2005 83.7188 60.0078 83.8359 59.8516 83.9922C59.7005 84.1484 59.5859 84.3385 59.5078 84.5625C59.4349 84.7865 59.3932 85.0417 59.3828 85.3281L58.9297 85.1875C58.9297 84.6406 58.9844 84.138 59.0938 83.6797C59.2031 83.2161 59.362 82.8125 59.5703 82.4688C59.7839 82.125 60.0443 81.8594 60.3516 81.6719C60.6589 81.4844 61.0104 81.3906 61.4062 81.3906C61.5312 81.3906 61.6589 81.401 61.7891 81.4219C61.9193 81.4375 62.026 81.4609 62.1094 81.4922ZM62.5781 85.8594V85.6953C62.5781 85.0755 62.6667 84.5052 62.8438 83.9844C63.0208 83.4583 63.2786 83.0026 63.6172 82.6172C63.9557 82.2318 64.3724 81.9323 64.8672 81.7188C65.362 81.5 65.9297 81.3906 66.5703 81.3906C67.2109 81.3906 67.7812 81.5 68.2812 81.7188C68.7812 81.9323 69.2005 82.2318 69.5391 82.6172C69.8828 83.0026 70.1432 83.4583 70.3203 83.9844C70.4974 84.5052 70.5859 85.0755 70.5859 85.6953V85.8594C70.5859 86.474 70.4974 87.0443 70.3203 87.5703C70.1432 88.0911 69.8828 88.5469 69.5391 88.9375C69.2005 89.3229 68.7839 89.6224 68.2891 89.8359C67.7943 90.0495 67.2266 90.1562 66.5859 90.1562C65.9453 90.1562 65.375 90.0495 64.875 89.8359C64.3802 89.6224 63.9609 89.3229 63.6172 88.9375C63.2786 88.5469 63.0208 88.0911 62.8438 87.5703C62.6667 87.0443 62.5781 86.474 62.5781 85.8594ZM64.8281 85.6953V85.8594C64.8281 86.2135 64.8594 86.5443 64.9219 86.8516C64.9844 87.1589 65.0833 87.4297 65.2188 87.6641C65.3594 87.8932 65.5417 88.0729 65.7656 88.2031C65.9896 88.3333 66.263 88.3984 66.5859 88.3984C66.8984 88.3984 67.1667 88.3333 67.3906 88.2031C67.6146 88.0729 67.7943 87.8932 67.9297 87.6641C68.0651 87.4297 68.1641 87.1589 68.2266 86.8516C68.2943 86.5443 68.3281 86.2135 68.3281 85.8594V85.6953C68.3281 85.3516 68.2943 85.0286 68.2266 84.7266C68.1641 84.4193 68.0625 84.1484 67.9219 83.9141C67.7865 83.6745 67.6068 83.487 67.3828 83.3516C67.1589 83.2161 66.888 83.1484 66.5703 83.1484C66.2526 83.1484 65.9818 83.2161 65.7578 83.3516C65.5391 83.487 65.3594 83.6745 65.2188 83.9141C65.0833 84.1484 64.9844 84.4193 64.9219 84.7266C64.8594 85.0286 64.8281 85.3516 64.8281 85.6953ZM75.8594 90.1562C75.2031 90.1562 74.6146 90.0521 74.0938 89.8438C73.5729 89.6302 73.1302 89.3359 72.7656 88.9609C72.4062 88.5859 72.1302 88.151 71.9375 87.6562C71.7448 87.1562 71.6484 86.625 71.6484 86.0625V85.75C71.6484 85.1094 71.7396 84.5234 71.9219 83.9922C72.1042 83.4609 72.3646 83 72.7031 82.6094C73.0469 82.2188 73.4635 81.9193 73.9531 81.7109C74.4427 81.4974 74.9948 81.3906 75.6094 81.3906C76.2083 81.3906 76.7396 81.4896 77.2031 81.6875C77.6667 81.8854 78.0547 82.1667 78.3672 82.5312C78.6849 82.8958 78.9245 83.3333 79.0859 83.8438C79.2474 84.349 79.3281 84.9115 79.3281 85.5312V86.4688H72.6094V84.9688H77.1172V84.7969C77.1172 84.4844 77.0599 84.2057 76.9453 83.9609C76.8359 83.7109 76.6693 83.513 76.4453 83.3672C76.2214 83.2214 75.9349 83.1484 75.5859 83.1484C75.2891 83.1484 75.0339 83.2135 74.8203 83.3438C74.6068 83.474 74.4323 83.6562 74.2969 83.8906C74.1667 84.125 74.0677 84.401 74 84.7188C73.9375 85.0312 73.9062 85.375 73.9062 85.75V86.0625C73.9062 86.401 73.9531 86.7135 74.0469 87C74.1458 87.2865 74.2839 87.5339 74.4609 87.7422C74.6432 87.9505 74.862 88.112 75.1172 88.2266C75.3776 88.3411 75.6719 88.3984 76 88.3984C76.4062 88.3984 76.7839 88.3203 77.1328 88.1641C77.487 88.0026 77.7917 87.7604 78.0469 87.4375L79.1406 88.625C78.9635 88.8802 78.7214 89.125 78.4141 89.3594C78.112 89.5938 77.7474 89.7865 77.3203 89.9375C76.8932 90.0833 76.4062 90.1562 75.8594 90.1562ZM84.1016 88.3984C84.3776 88.3984 84.6224 88.3464 84.8359 88.2422C85.0495 88.1328 85.2161 87.9818 85.3359 87.7891C85.4609 87.5911 85.526 87.3594 85.5312 87.0938H87.6484C87.6432 87.6875 87.4844 88.2161 87.1719 88.6797C86.8594 89.138 86.4401 89.5 85.9141 89.7656C85.388 90.026 84.7995 90.1562 84.1484 90.1562C83.4922 90.1562 82.9193 90.0469 82.4297 89.8281C81.9453 89.6094 81.5417 89.3073 81.2188 88.9219C80.8958 88.5312 80.6536 88.0781 80.4922 87.5625C80.3307 87.0417 80.25 86.4844 80.25 85.8906V85.6641C80.25 85.0651 80.3307 84.5078 80.4922 83.9922C80.6536 83.4714 80.8958 83.0182 81.2188 82.6328C81.5417 82.2422 81.9453 81.9375 82.4297 81.7188C82.9141 81.5 83.4818 81.3906 84.1328 81.3906C84.8255 81.3906 85.4323 81.5234 85.9531 81.7891C86.4792 82.0547 86.8906 82.4349 87.1875 82.9297C87.4896 83.4193 87.6432 84 87.6484 84.6719H85.5312C85.526 84.3906 85.4661 84.1354 85.3516 83.9062C85.2422 83.6771 85.0807 83.4948 84.8672 83.3594C84.6589 83.2188 84.401 83.1484 84.0938 83.1484C83.7656 83.1484 83.4974 83.2188 83.2891 83.3594C83.0807 83.4948 82.9193 83.6823 82.8047 83.9219C82.6901 84.1562 82.6094 84.4245 82.5625 84.7266C82.5208 85.0234 82.5 85.3359 82.5 85.6641V85.8906C82.5 86.2188 82.5208 86.5339 82.5625 86.8359C82.6042 87.138 82.6823 87.4062 82.7969 87.6406C82.9167 87.875 83.0807 88.0599 83.2891 88.1953C83.4974 88.3307 83.7682 88.3984 84.1016 88.3984ZM88.5938 85.8594V85.6953C88.5938 85.0755 88.6823 84.5052 88.8594 83.9844C89.0365 83.4583 89.2943 83.0026 89.6328 82.6172C89.9714 82.2318 90.388 81.9323 90.8828 81.7188C91.3776 81.5 91.9453 81.3906 92.5859 81.3906C93.2266 81.3906 93.7969 81.5 94.2969 81.7188C94.7969 81.9323 95.2161 82.2318 95.5547 82.6172C95.8984 83.0026 96.1589 83.4583 96.3359 83.9844C96.513 84.5052 96.6016 85.0755 96.6016 85.6953V85.8594C96.6016 86.474 96.513 87.0443 96.3359 87.5703C96.1589 88.0911 95.8984 88.5469 95.5547 88.9375C95.2161 89.3229 94.7995 89.6224 94.3047 89.8359C93.8099 90.0495 93.2422 90.1562 92.6016 90.1562C91.9609 90.1562 91.3906 90.0495 90.8906 89.8359C90.3958 89.6224 89.9766 89.3229 89.6328 88.9375C89.2943 88.5469 89.0365 88.0911 88.8594 87.5703C88.6823 87.0443 88.5938 86.474 88.5938 85.8594ZM90.8438 85.6953V85.8594C90.8438 86.2135 90.875 86.5443 90.9375 86.8516C91 87.1589 91.099 87.4297 91.2344 87.6641C91.375 87.8932 91.5573 88.0729 91.7812 88.2031C92.0052 88.3333 92.2786 88.3984 92.6016 88.3984C92.9141 88.3984 93.1823 88.3333 93.4062 88.2031C93.6302 88.0729 93.8099 87.8932 93.9453 87.6641C94.0807 87.4297 94.1797 87.1589 94.2422 86.8516C94.3099 86.5443 94.3438 86.2135 94.3438 85.8594V85.6953C94.3438 85.3516 94.3099 85.0286 94.2422 84.7266C94.1797 84.4193 94.0781 84.1484 93.9375 83.9141C93.8021 83.6745 93.6224 83.487 93.3984 83.3516C93.1745 83.2161 92.9036 83.1484 92.5859 83.1484C92.2682 83.1484 91.9974 83.2161 91.7734 83.3516C91.5547 83.487 91.375 83.6745 91.2344 83.9141C91.099 84.1484 91 84.4193 90.9375 84.7266C90.875 85.0286 90.8438 85.3516 90.8438 85.6953ZM100.359 78V90H98.1016V78H100.359ZM101.859 85.8594V85.6953C101.859 85.0755 101.948 84.5052 102.125 83.9844C102.302 83.4583 102.56 83.0026 102.898 82.6172C103.237 82.2318 103.654 81.9323 104.148 81.7188C104.643 81.5 105.211 81.3906 105.852 81.3906C106.492 81.3906 107.062 81.5 107.562 81.7188C108.062 81.9323 108.482 82.2318 108.82 82.6172C109.164 83.0026 109.424 83.4583 109.602 83.9844C109.779 84.5052 109.867 85.0755 109.867 85.6953V85.8594C109.867 86.474 109.779 87.0443 109.602 87.5703C109.424 88.0911 109.164 88.5469 108.82 88.9375C108.482 89.3229 108.065 89.6224 107.57 89.8359C107.076 90.0495 106.508 90.1562 105.867 90.1562C105.227 90.1562 104.656 90.0495 104.156 89.8359C103.661 89.6224 103.242 89.3229 102.898 88.9375C102.56 88.5469 102.302 88.0911 102.125 87.5703C101.948 87.0443 101.859 86.474 101.859 85.8594ZM104.109 85.6953V85.8594C104.109 86.2135 104.141 86.5443 104.203 86.8516C104.266 87.1589 104.365 87.4297 104.5 87.6641C104.641 87.8932 104.823 88.0729 105.047 88.2031C105.271 88.3333 105.544 88.3984 105.867 88.3984C106.18 88.3984 106.448 88.3333 106.672 88.2031C106.896 88.0729 107.076 87.8932 107.211 87.6641C107.346 87.4297 107.445 87.1589 107.508 86.8516C107.576 86.5443 107.609 86.2135 107.609 85.8594V85.6953C107.609 85.3516 107.576 85.0286 107.508 84.7266C107.445 84.4193 107.344 84.1484 107.203 83.9141C107.068 83.6745 106.888 83.487 106.664 83.3516C106.44 83.2161 106.169 83.1484 105.852 83.1484C105.534 83.1484 105.263 83.2161 105.039 83.3516C104.82 83.487 104.641 83.6745 104.5 83.9141C104.365 84.1484 104.266 84.4193 104.203 84.7266C104.141 85.0286 104.109 85.3516 104.109 85.6953ZM116.602 81.5469H118.641V89.7188C118.641 90.4896 118.469 91.1432 118.125 91.6797C117.786 92.2214 117.312 92.6302 116.703 92.9062C116.094 93.1875 115.385 93.3281 114.578 93.3281C114.224 93.3281 113.849 93.2812 113.453 93.1875C113.062 93.0938 112.688 92.9479 112.328 92.75C111.974 92.5521 111.677 92.3021 111.438 92L112.43 90.6719C112.69 90.974 112.992 91.2083 113.336 91.375C113.68 91.5469 114.06 91.6328 114.477 91.6328C114.883 91.6328 115.227 91.5573 115.508 91.4062C115.789 91.2604 116.005 91.0443 116.156 90.7578C116.307 90.4766 116.383 90.1354 116.383 89.7344V83.5L116.602 81.5469ZM110.914 85.875V85.7109C110.914 85.0651 110.992 84.4792 111.148 83.9531C111.31 83.4219 111.536 82.9661 111.828 82.5859C112.125 82.2057 112.484 81.9115 112.906 81.7031C113.328 81.4948 113.805 81.3906 114.336 81.3906C114.898 81.3906 115.37 81.4948 115.75 81.7031C116.13 81.9115 116.443 82.2083 116.688 82.5938C116.932 82.974 117.122 83.4245 117.258 83.9453C117.398 84.4609 117.508 85.026 117.586 85.6406V86C117.508 86.5885 117.391 87.1354 117.234 87.6406C117.078 88.1458 116.872 88.5885 116.617 88.9688C116.362 89.3438 116.044 89.6354 115.664 89.8438C115.289 90.0521 114.841 90.1562 114.32 90.1562C113.799 90.1562 113.328 90.0495 112.906 89.8359C112.49 89.6224 112.133 89.3229 111.836 88.9375C111.539 88.5521 111.31 88.099 111.148 87.5781C110.992 87.0573 110.914 86.4896 110.914 85.875ZM113.164 85.7109V85.875C113.164 86.224 113.198 86.5495 113.266 86.8516C113.333 87.1536 113.438 87.4219 113.578 87.6562C113.724 87.8854 113.904 88.0651 114.117 88.1953C114.336 88.3203 114.594 88.3828 114.891 88.3828C115.302 88.3828 115.638 88.2969 115.898 88.125C116.159 87.9479 116.354 87.7057 116.484 87.3984C116.615 87.0911 116.69 86.737 116.711 86.3359V85.3125C116.701 84.9844 116.656 84.6901 116.578 84.4297C116.5 84.1641 116.391 83.9375 116.25 83.75C116.109 83.5625 115.927 83.4167 115.703 83.3125C115.479 83.2083 115.214 83.1562 114.906 83.1562C114.609 83.1562 114.352 83.224 114.133 83.3594C113.919 83.4896 113.74 83.6693 113.594 83.8984C113.453 84.1276 113.346 84.3984 113.273 84.7109C113.201 85.0182 113.164 85.3516 113.164 85.7109ZM122.82 81.5469V90H120.562V81.5469H122.82ZM120.633 80.5234L122.164 78.1172H124.609L122.461 80.5234H120.633ZM129.328 88.0938V84.3281C129.328 84.0573 129.284 83.8255 129.195 83.6328C129.107 83.4349 128.969 83.2812 128.781 83.1719C128.599 83.0625 128.362 83.0078 128.07 83.0078C127.82 83.0078 127.604 83.0521 127.422 83.1406C127.24 83.224 127.099 83.3464 127 83.5078C126.901 83.6641 126.852 83.849 126.852 84.0625H124.602C124.602 83.7031 124.685 83.362 124.852 83.0391C125.018 82.7161 125.26 82.4323 125.578 82.1875C125.896 81.9375 126.273 81.7422 126.711 81.6016C127.154 81.4609 127.648 81.3906 128.195 81.3906C128.852 81.3906 129.435 81.5 129.945 81.7188C130.456 81.9375 130.857 82.2656 131.148 82.7031C131.445 83.1406 131.594 83.6875 131.594 84.3438V87.9609C131.594 88.4245 131.622 88.8047 131.68 89.1016C131.737 89.3932 131.82 89.6484 131.93 89.8672V90H129.656C129.547 89.7708 129.464 89.4844 129.406 89.1406C129.354 88.7917 129.328 88.4427 129.328 88.0938ZM129.625 84.8516L129.641 86.125H128.383C128.086 86.125 127.828 86.1589 127.609 86.2266C127.391 86.2943 127.211 86.3906 127.07 86.5156C126.93 86.6354 126.826 86.776 126.758 86.9375C126.695 87.099 126.664 87.276 126.664 87.4688C126.664 87.6615 126.708 87.8359 126.797 87.9922C126.885 88.1432 127.013 88.263 127.18 88.3516C127.346 88.4349 127.542 88.4766 127.766 88.4766C128.104 88.4766 128.398 88.4089 128.648 88.2734C128.898 88.138 129.091 87.9714 129.227 87.7734C129.367 87.5755 129.44 87.388 129.445 87.2109L130.039 88.1641C129.956 88.3776 129.841 88.599 129.695 88.8281C129.555 89.0573 129.375 89.2734 129.156 89.4766C128.938 89.6745 128.674 89.8385 128.367 89.9688C128.06 90.0938 127.695 90.1562 127.273 90.1562C126.737 90.1562 126.25 90.0495 125.812 89.8359C125.38 89.6172 125.036 89.3177 124.781 88.9375C124.531 88.5521 124.406 88.1146 124.406 87.625C124.406 87.1823 124.49 86.7891 124.656 86.4453C124.823 86.1016 125.068 85.8125 125.391 85.5781C125.719 85.3385 126.128 85.1589 126.617 85.0391C127.107 84.9141 127.674 84.8516 128.32 84.8516H129.625Z" fill="white"/>
<path d="M55 72V66.131C55 66.131 69.75 60.262 84.5 60.262C99.25 60.262 114 66.131 114 66.131V72H55ZM82.435 34.1449C78.895 22.7003 60.9 25.3414 60.9 25.3414C60.9 25.3414 61.49 48.2305 78.305 44.7091C77.125 36.199 72.7 33.8514 72.7 33.8514C80.96 33.8514 81.55 43.8287 81.55 43.8287V57.3275H87.45V45.0026C87.45 45.0026 87.45 33.558 96.3 30.6235C96.3 30.6235 90.4 39.427 90.4 45.296C111.05 47.3502 111.05 19.1789 111.05 19.1789C111.05 19.1789 84.795 16.2444 82.435 34.1449Z" fill="white"/>
</svg>
