<svg width="169" height="130" viewBox="0 0 169 130" fill="none" xmlns="http://www.w3.org/2000/svg">
<rect width="169" height="130" rx="10" fill="#2A6D4C"/>
<path d="M39.8359 80.5703L36.7422 90H34.25L38.4766 78.625H40.0625L39.8359 80.5703ZM42.4062 90L39.3047 80.5703L39.0547 78.625H40.6562L44.9062 90H42.4062ZM42.2656 85.7656V87.6016H36.2578V85.7656H42.2656ZM51.1719 81.5469H53.2109V89.7188C53.2109 90.4896 53.0391 91.1432 52.6953 91.6797C52.3568 92.2214 51.8828 92.6302 51.2734 92.9062C50.6641 93.1875 49.9557 93.3281 49.1484 93.3281C48.7943 93.3281 48.4193 93.2812 48.0234 93.1875C47.6328 93.0938 47.2578 92.9479 46.8984 92.75C46.5443 92.5521 46.2474 92.3021 46.0078 92L47 90.6719C47.2604 90.974 47.5625 91.2083 47.9062 91.375C48.25 91.5469 48.6302 91.6328 49.0469 91.6328C49.4531 91.6328 49.7969 91.5573 50.0781 91.4062C50.3594 91.2604 50.5755 91.0443 50.7266 90.7578C50.8776 90.4766 50.9531 90.1354 50.9531 89.7344V83.5L51.1719 81.5469ZM45.4844 85.875V85.7109C45.4844 85.0651 45.5625 84.4792 45.7188 83.9531C45.8802 83.4219 46.1068 82.9661 46.3984 82.5859C46.6953 82.2057 47.0547 81.9115 47.4766 81.7031C47.8984 81.4948 48.375 81.3906 48.9062 81.3906C49.4688 81.3906 49.9401 81.4948 50.3203 81.7031C50.7005 81.9115 51.013 82.2083 51.2578 82.5938C51.5026 82.974 51.6927 83.4245 51.8281 83.9453C51.9688 84.4609 52.0781 85.026 52.1562 85.6406V86C52.0781 86.5885 51.9609 87.1354 51.8047 87.6406C51.6484 88.1458 51.4427 88.5885 51.1875 88.9688C50.9323 89.3438 50.6146 89.6354 50.2344 89.8438C49.8594 90.0521 49.4115 90.1562 48.8906 90.1562C48.3698 90.1562 47.8984 90.0495 47.4766 89.8359C47.0599 89.6224 46.7031 89.3229 46.4062 88.9375C46.1094 88.5521 45.8802 88.099 45.7188 87.5781C45.5625 87.0573 45.4844 86.4896 45.4844 85.875ZM47.7344 85.7109V85.875C47.7344 86.224 47.7682 86.5495 47.8359 86.8516C47.9036 87.1536 48.0078 87.4219 48.1484 87.6562C48.2943 87.8854 48.474 88.0651 48.6875 88.1953C48.9062 88.3203 49.1641 88.3828 49.4609 88.3828C49.8724 88.3828 50.2083 88.2969 50.4688 88.125C50.7292 87.9479 50.9245 87.7057 51.0547 87.3984C51.1849 87.0911 51.2604 86.737 51.2812 86.3359V85.3125C51.2708 84.9844 51.2266 84.6901 51.1484 84.4297C51.0703 84.1641 50.9609 83.9375 50.8203 83.75C50.6797 83.5625 50.4974 83.4167 50.2734 83.3125C50.0495 83.2083 49.7839 83.1562 49.4766 83.1562C49.1797 83.1562 48.9219 83.224 48.7031 83.3594C48.4896 83.4896 48.3099 83.6693 48.1641 83.8984C48.0234 84.1276 47.9167 84.3984 47.8438 84.7109C47.7708 85.0182 47.7344 85.3516 47.7344 85.7109ZM57.2109 83.3906V90H54.9609V81.5469H57.0781L57.2109 83.3906ZM59.7578 81.4922L59.7188 83.5781C59.6094 83.5625 59.4766 83.5495 59.3203 83.5391C59.1693 83.5234 59.0312 83.5156 58.9062 83.5156C58.5885 83.5156 58.3125 83.5573 58.0781 83.6406C57.849 83.7188 57.6562 83.8359 57.5 83.9922C57.349 84.1484 57.2344 84.3385 57.1562 84.5625C57.0833 84.7865 57.0417 85.0417 57.0312 85.3281L56.5781 85.1875C56.5781 84.6406 56.6328 84.138 56.7422 83.6797C56.8516 83.2161 57.0104 82.8125 57.2188 82.4688C57.4323 82.125 57.6927 81.8594 58 81.6719C58.3073 81.4844 58.6589 81.3906 59.0547 81.3906C59.1797 81.3906 59.3073 81.401 59.4375 81.4219C59.5677 81.4375 59.6745 81.4609 59.7578 81.4922ZM60.2266 85.8594V85.6953C60.2266 85.0755 60.3151 84.5052 60.4922 83.9844C60.6693 83.4583 60.9271 83.0026 61.2656 82.6172C61.6042 82.2318 62.0208 81.9323 62.5156 81.7188C63.0104 81.5 63.5781 81.3906 64.2188 81.3906C64.8594 81.3906 65.4297 81.5 65.9297 81.7188C66.4297 81.9323 66.849 82.2318 67.1875 82.6172C67.5312 83.0026 67.7917 83.4583 67.9688 83.9844C68.1458 84.5052 68.2344 85.0755 68.2344 85.6953V85.8594C68.2344 86.474 68.1458 87.0443 67.9688 87.5703C67.7917 88.0911 67.5312 88.5469 67.1875 88.9375C66.849 89.3229 66.4323 89.6224 65.9375 89.8359C65.4427 90.0495 64.875 90.1562 64.2344 90.1562C63.5938 90.1562 63.0234 90.0495 62.5234 89.8359C62.0286 89.6224 61.6094 89.3229 61.2656 88.9375C60.9271 88.5469 60.6693 88.0911 60.4922 87.5703C60.3151 87.0443 60.2266 86.474 60.2266 85.8594ZM62.4766 85.6953V85.8594C62.4766 86.2135 62.5078 86.5443 62.5703 86.8516C62.6328 87.1589 62.7318 87.4297 62.8672 87.6641C63.0078 87.8932 63.1901 88.0729 63.4141 88.2031C63.638 88.3333 63.9115 88.3984 64.2344 88.3984C64.5469 88.3984 64.8151 88.3333 65.0391 88.2031C65.263 88.0729 65.4427 87.8932 65.5781 87.6641C65.7135 87.4297 65.8125 87.1589 65.875 86.8516C65.9427 86.5443 65.9766 86.2135 65.9766 85.8594V85.6953C65.9766 85.3516 65.9427 85.0286 65.875 84.7266C65.8125 84.4193 65.7109 84.1484 65.5703 83.9141C65.4349 83.6745 65.2552 83.487 65.0312 83.3516C64.8073 83.2161 64.5365 83.1484 64.2188 83.1484C63.901 83.1484 63.6302 83.2161 63.4062 83.3516C63.1875 83.487 63.0078 83.6745 62.8672 83.9141C62.7318 84.1484 62.6328 84.4193 62.5703 84.7266C62.5078 85.0286 62.4766 85.3516 62.4766 85.6953ZM74.6094 93.25V83.2734L74.8984 81.5469H76.875V93.25H74.6094ZM69.2656 85.8594V85.6953C69.2656 85.0495 69.3359 84.4635 69.4766 83.9375C69.6224 83.4062 69.8359 82.9531 70.1172 82.5781C70.3984 82.1979 70.7422 81.9062 71.1484 81.7031C71.5599 81.4948 72.0339 81.3906 72.5703 81.3906C73.0859 81.3906 73.5312 81.4948 73.9062 81.7031C74.2812 81.9115 74.5964 82.2057 74.8516 82.5859C75.112 82.9661 75.3203 83.4141 75.4766 83.9297C75.6328 84.4453 75.7526 85.0104 75.8359 85.625V85.9844C75.7578 86.5729 75.638 87.1198 75.4766 87.625C75.3203 88.1302 75.112 88.5729 74.8516 88.9531C74.5964 89.3333 74.2786 89.6302 73.8984 89.8438C73.5234 90.0521 73.0755 90.1562 72.5547 90.1562C72.0286 90.1562 71.5599 90.0495 71.1484 89.8359C70.7422 89.6172 70.3984 89.3151 70.1172 88.9297C69.8359 88.5443 69.6224 88.0911 69.4766 87.5703C69.3359 87.0443 69.2656 86.474 69.2656 85.8594ZM71.5156 85.6953V85.8594C71.5156 86.2083 71.5443 86.5365 71.6016 86.8438C71.6589 87.1458 71.75 87.4141 71.875 87.6484C72.0052 87.8828 72.1719 88.0677 72.375 88.2031C72.5781 88.3333 72.8281 88.3984 73.125 88.3984C73.5365 88.3984 73.8672 88.3099 74.1172 88.1328C74.3724 87.9505 74.5599 87.7031 74.6797 87.3906C74.8047 87.0781 74.8776 86.7214 74.8984 86.3203V85.2969C74.8828 84.9688 74.8385 84.6745 74.7656 84.4141C74.6979 84.1484 74.5938 83.9219 74.4531 83.7344C74.3177 83.5469 74.1406 83.4036 73.9219 83.3047C73.7083 83.2005 73.4479 83.1484 73.1406 83.1484C72.849 83.1484 72.599 83.2135 72.3906 83.3438C72.1823 83.474 72.013 83.6562 71.8828 83.8906C71.7578 84.1198 71.6641 84.388 71.6016 84.6953C71.5443 85.0026 71.5156 85.3359 71.5156 85.6953ZM83.6484 87.9766V81.5469H85.8984V90H83.7812L83.6484 87.9766ZM83.8984 86.2422L84.5625 86.2266C84.5625 86.7891 84.4974 87.3125 84.3672 87.7969C84.237 88.276 84.0417 88.6927 83.7812 89.0469C83.5208 89.3958 83.1927 89.6693 82.7969 89.8672C82.401 90.0599 81.9349 90.1562 81.3984 90.1562C80.987 90.1562 80.6068 90.099 80.2578 89.9844C79.9141 89.8646 79.6172 89.6797 79.3672 89.4297C79.1224 89.1745 78.9297 88.849 78.7891 88.4531C78.6536 88.0521 78.5859 87.5703 78.5859 87.0078V81.5469H80.8359V87.0234C80.8359 87.2734 80.8646 87.4844 80.9219 87.6562C80.9844 87.8281 81.0703 87.9688 81.1797 88.0781C81.2891 88.1875 81.4167 88.2656 81.5625 88.3125C81.7135 88.3594 81.8802 88.3828 82.0625 88.3828C82.526 88.3828 82.8906 88.2891 83.1562 88.1016C83.4271 87.9141 83.6172 87.6589 83.7266 87.3359C83.8411 87.0078 83.8984 86.6432 83.8984 86.2422ZM90.0469 81.5469V90H87.7891V81.5469H90.0469ZM87.8594 80.5234L89.3906 78.1172H91.8359L89.6875 80.5234H87.8594ZM94.2422 83.2969V90H91.9844V81.5469H94.1016L94.2422 83.2969ZM93.9297 85.4766H93.3047C93.3047 84.888 93.375 84.3464 93.5156 83.8516C93.6615 83.3516 93.8724 82.9193 94.1484 82.5547C94.4297 82.1849 94.776 81.8984 95.1875 81.6953C95.599 81.4922 96.0755 81.3906 96.6172 81.3906C96.9922 81.3906 97.3359 81.4479 97.6484 81.5625C97.9609 81.6719 98.2292 81.8464 98.4531 82.0859C98.6823 82.3203 98.8594 82.6276 98.9844 83.0078C99.1094 83.3828 99.1719 83.8333 99.1719 84.3594V90H96.9219V84.6094C96.9219 84.224 96.8698 83.9271 96.7656 83.7188C96.6615 83.5104 96.513 83.3646 96.3203 83.2812C96.1328 83.1979 95.9062 83.1562 95.6406 83.1562C95.349 83.1562 95.0938 83.2161 94.875 83.3359C94.6615 83.4557 94.4844 83.6224 94.3438 83.8359C94.2031 84.0443 94.099 84.2891 94.0312 84.5703C93.9635 84.8516 93.9297 85.1536 93.9297 85.4766ZM98.9609 85.2188L98.1562 85.3203C98.1562 84.7682 98.224 84.2552 98.3594 83.7812C98.5 83.3073 98.7057 82.8906 98.9766 82.5312C99.2526 82.1719 99.5938 81.8932 100 81.6953C100.406 81.4922 100.875 81.3906 101.406 81.3906C101.812 81.3906 102.182 81.4505 102.516 81.5703C102.849 81.6849 103.133 81.8698 103.367 82.125C103.607 82.375 103.789 82.7031 103.914 83.1094C104.044 83.5156 104.109 84.013 104.109 84.6016V90H101.852V84.6016C101.852 84.2109 101.799 83.9141 101.695 83.7109C101.596 83.5026 101.451 83.3594 101.258 83.2812C101.07 83.1979 100.846 83.1562 100.586 83.1562C100.315 83.1562 100.078 83.2109 99.875 83.3203C99.6719 83.4245 99.5026 83.5703 99.3672 83.7578C99.2318 83.9453 99.1302 84.1641 99.0625 84.4141C98.9948 84.6589 98.9609 84.9271 98.9609 85.2188ZM108.227 81.5469V90H105.969V81.5469H108.227ZM105.828 79.3438C105.828 79.0156 105.943 78.7448 106.172 78.5312C106.401 78.3177 106.708 78.2109 107.094 78.2109C107.474 78.2109 107.779 78.3177 108.008 78.5312C108.242 78.7448 108.359 79.0156 108.359 79.3438C108.359 79.6719 108.242 79.9427 108.008 80.1562C107.779 80.3698 107.474 80.4766 107.094 80.4766C106.708 80.4766 106.401 80.3698 106.172 80.1562C105.943 79.9427 105.828 79.6719 105.828 79.3438ZM113.578 88.3984C113.854 88.3984 114.099 88.3464 114.312 88.2422C114.526 88.1328 114.693 87.9818 114.812 87.7891C114.938 87.5911 115.003 87.3594 115.008 87.0938H117.125C117.12 87.6875 116.961 88.2161 116.648 88.6797C116.336 89.138 115.917 89.5 115.391 89.7656C114.865 90.026 114.276 90.1562 113.625 90.1562C112.969 90.1562 112.396 90.0469 111.906 89.8281C111.422 89.6094 111.018 89.3073 110.695 88.9219C110.372 88.5312 110.13 88.0781 109.969 87.5625C109.807 87.0417 109.727 86.4844 109.727 85.8906V85.6641C109.727 85.0651 109.807 84.5078 109.969 83.9922C110.13 83.4714 110.372 83.0182 110.695 82.6328C111.018 82.2422 111.422 81.9375 111.906 81.7188C112.391 81.5 112.958 81.3906 113.609 81.3906C114.302 81.3906 114.909 81.5234 115.43 81.7891C115.956 82.0547 116.367 82.4349 116.664 82.9297C116.966 83.4193 117.12 84 117.125 84.6719H115.008C115.003 84.3906 114.943 84.1354 114.828 83.9062C114.719 83.6771 114.557 83.4948 114.344 83.3594C114.135 83.2188 113.878 83.1484 113.57 83.1484C113.242 83.1484 112.974 83.2188 112.766 83.3594C112.557 83.4948 112.396 83.6823 112.281 83.9219C112.167 84.1562 112.086 84.4245 112.039 84.7266C111.997 85.0234 111.977 85.3359 111.977 85.6641V85.8906C111.977 86.2188 111.997 86.5339 112.039 86.8359C112.081 87.138 112.159 87.4062 112.273 87.6406C112.393 87.875 112.557 88.0599 112.766 88.1953C112.974 88.3307 113.245 88.3984 113.578 88.3984ZM118.07 85.8594V85.6953C118.07 85.0755 118.159 84.5052 118.336 83.9844C118.513 83.4583 118.771 83.0026 119.109 82.6172C119.448 82.2318 119.865 81.9323 120.359 81.7188C120.854 81.5 121.422 81.3906 122.062 81.3906C122.703 81.3906 123.273 81.5 123.773 81.7188C124.273 81.9323 124.693 82.2318 125.031 82.6172C125.375 83.0026 125.635 83.4583 125.812 83.9844C125.99 84.5052 126.078 85.0755 126.078 85.6953V85.8594C126.078 86.474 125.99 87.0443 125.812 87.5703C125.635 88.0911 125.375 88.5469 125.031 88.9375C124.693 89.3229 124.276 89.6224 123.781 89.8359C123.286 90.0495 122.719 90.1562 122.078 90.1562C121.438 90.1562 120.867 90.0495 120.367 89.8359C119.872 89.6224 119.453 89.3229 119.109 88.9375C118.771 88.5469 118.513 88.0911 118.336 87.5703C118.159 87.0443 118.07 86.474 118.07 85.8594ZM120.32 85.6953V85.8594C120.32 86.2135 120.352 86.5443 120.414 86.8516C120.477 87.1589 120.576 87.4297 120.711 87.6641C120.852 87.8932 121.034 88.0729 121.258 88.2031C121.482 88.3333 121.755 88.3984 122.078 88.3984C122.391 88.3984 122.659 88.3333 122.883 88.2031C123.107 88.0729 123.286 87.8932 123.422 87.6641C123.557 87.4297 123.656 87.1589 123.719 86.8516C123.786 86.5443 123.82 86.2135 123.82 85.8594V85.6953C123.82 85.3516 123.786 85.0286 123.719 84.7266C123.656 84.4193 123.555 84.1484 123.414 83.9141C123.279 83.6745 123.099 83.487 122.875 83.3516C122.651 83.2161 122.38 83.1484 122.062 83.1484C121.745 83.1484 121.474 83.2161 121.25 83.3516C121.031 83.487 120.852 83.6745 120.711 83.9141C120.576 84.1484 120.477 84.4193 120.414 84.7266C120.352 85.0286 120.32 85.3516 120.32 85.6953ZM132.031 87.6641C132.031 87.5026 131.984 87.3568 131.891 87.2266C131.797 87.0964 131.622 86.9766 131.367 86.8672C131.117 86.7526 130.755 86.6484 130.281 86.5547C129.854 86.4609 129.456 86.3438 129.086 86.2031C128.721 86.0573 128.404 85.8828 128.133 85.6797C127.867 85.4766 127.659 85.237 127.508 84.9609C127.357 84.6797 127.281 84.3594 127.281 84C127.281 83.6458 127.357 83.3125 127.508 83C127.664 82.6875 127.885 82.4115 128.172 82.1719C128.464 81.9271 128.818 81.737 129.234 81.6016C129.656 81.4609 130.13 81.3906 130.656 81.3906C131.391 81.3906 132.021 81.5078 132.547 81.7422C133.078 81.9766 133.484 82.2995 133.766 82.7109C134.052 83.1172 134.195 83.5807 134.195 84.1016H131.945C131.945 83.8828 131.898 83.6875 131.805 83.5156C131.716 83.3385 131.576 83.2005 131.383 83.1016C131.195 82.9974 130.951 82.9453 130.648 82.9453C130.398 82.9453 130.182 82.9896 130 83.0781C129.818 83.1615 129.677 83.276 129.578 83.4219C129.484 83.5625 129.438 83.7188 129.438 83.8906C129.438 84.0208 129.464 84.138 129.516 84.2422C129.573 84.3411 129.664 84.4323 129.789 84.5156C129.914 84.599 130.076 84.6771 130.273 84.75C130.477 84.8177 130.727 84.8802 131.023 84.9375C131.633 85.0625 132.177 85.2266 132.656 85.4297C133.135 85.6276 133.516 85.8984 133.797 86.2422C134.078 86.5807 134.219 87.026 134.219 87.5781C134.219 87.9531 134.135 88.2969 133.969 88.6094C133.802 88.9219 133.562 89.1953 133.25 89.4297C132.938 89.6589 132.562 89.8385 132.125 89.9688C131.693 90.0938 131.206 90.1562 130.664 90.1562C129.878 90.1562 129.211 90.0156 128.664 89.7344C128.122 89.4531 127.711 89.0964 127.43 88.6641C127.154 88.2266 127.016 87.7786 127.016 87.3203H129.148C129.159 87.6276 129.237 87.875 129.383 88.0625C129.534 88.25 129.724 88.3854 129.953 88.4688C130.188 88.5521 130.44 88.5938 130.711 88.5938C131.003 88.5938 131.245 88.5547 131.438 88.4766C131.63 88.3932 131.776 88.2839 131.875 88.1484C131.979 88.0078 132.031 87.8464 132.031 87.6641Z" fill="white"/>
<path d="M88.2617 31.3626L72.7237 51.8606C72.3826 52.3569 72.2452 52.9652 72.3398 53.5599C72.4343 54.1546 72.7536 54.6903 73.2317 55.0564L81.5918 61.3929C82.0764 61.7564 82.6829 61.9184 83.2842 61.8448C83.8855 61.7712 84.4351 61.4678 84.8177 60.9981C84.8619 60.9426 84.9088 60.8894 84.9585 60.8386L100.222 40.6998C100.256 40.6414 100.292 40.5848 100.331 40.5303C100.68 40.0355 100.824 39.4244 100.732 38.8256C100.64 38.2269 100.319 37.6872 99.8375 37.3202L91.4773 30.9837C90.9956 30.6209 90.3925 30.4578 89.7935 30.5284C89.1946 30.599 88.6459 30.8978 88.2617 31.3626ZM106.758 42.5836C106.293 42.2341 105.711 42.0802 105.134 42.1545C104.558 42.2289 104.033 42.5257 103.673 42.9816C103.644 43.0268 103.616 43.076 103.589 43.1105L88.1807 63.4403C88.1546 63.4748 88.1131 63.5176 88.0791 63.5552C87.7386 64.0257 87.5953 64.6105 87.6798 65.1851C87.7643 65.7597 88.0699 66.2785 88.5315 66.631L95.3735 71.8186C96.7525 72.8593 98.4876 73.3112 100.199 73.0756C101.91 72.8399 103.459 71.9358 104.505 70.5612L114.859 56.9007C115.899 55.5219 116.351 53.7873 116.115 52.0763C115.88 50.3654 114.976 48.8174 113.602 47.7709L106.758 42.5836ZM68.2306 22.2527L58.5509 35.0334C58.1627 37.4251 58.4351 39.8774 59.3387 42.1256C60.2424 44.3738 61.7429 46.3324 63.6783 47.7902L66.3107 49.789C66.7745 50.1433 67.3597 50.2997 67.9384 50.2238C68.5171 50.148 69.0423 49.8462 69.3992 49.3843L69.4498 49.3032L84.8884 28.9363C84.9163 28.8995 84.9541 28.8593 84.9898 28.8193C85.3314 28.3489 85.4754 27.7634 85.3908 27.1882C85.3062 26.613 84.9998 26.0937 84.5371 25.7416L81.9007 23.7433C79.9733 22.2748 77.6817 21.36 75.2729 21.0973C72.8641 20.8347 70.4292 21.2342 68.2306 22.2527ZM56.1593 31.3263L64.0182 20.9598L58.7757 16.9736L50.9045 27.3562L56.1593 31.3263Z" fill="white"/>
</svg>
