<svg width="169" height="130" viewBox="0 0 169 130" fill="none" xmlns="http://www.w3.org/2000/svg">
<rect x="0.25" y="0.25" width="168.5" height="129.5" rx="9.75" fill="white" stroke="#2A6D4C" stroke-width="0.5"/>
<path d="M59.2891 85.0078H56.3672L56.3516 83.3984H58.8047C59.237 83.3984 59.5911 83.3438 59.8672 83.2344C60.1432 83.1198 60.349 82.9557 60.4844 82.7422C60.625 82.5234 60.6953 82.2578 60.6953 81.9453C60.6953 81.5911 60.6276 81.3047 60.4922 81.0859C60.362 80.8672 60.1562 80.7083 59.875 80.6094C59.599 80.5104 59.2422 80.4609 58.8047 80.4609H57.1797V90H54.8359V78.625H58.8047C59.4661 78.625 60.0573 78.6875 60.5781 78.8125C61.1042 78.9375 61.5495 79.1276 61.9141 79.3828C62.2786 79.638 62.5573 79.9609 62.75 80.3516C62.9427 80.737 63.0391 81.1953 63.0391 81.7266C63.0391 82.1953 62.9323 82.6276 62.7188 83.0234C62.5104 83.4193 62.1797 83.7422 61.7266 83.9922C61.2786 84.2422 60.6927 84.3802 59.9688 84.4062L59.2891 85.0078ZM59.1875 90H55.7266L56.6406 88.1719H59.1875C59.599 88.1719 59.9349 88.1068 60.1953 87.9766C60.4557 87.8411 60.6484 87.6589 60.7734 87.4297C60.8984 87.2005 60.9609 86.9375 60.9609 86.6406C60.9609 86.3073 60.9036 86.0182 60.7891 85.7734C60.6797 85.5286 60.5026 85.3411 60.2578 85.2109C60.013 85.0755 59.6901 85.0078 59.2891 85.0078H57.0312L57.0469 83.3984H59.8594L60.3984 84.0312C61.0911 84.0208 61.6484 84.1432 62.0703 84.3984C62.4974 84.6484 62.8073 84.974 63 85.375C63.1979 85.776 63.2969 86.2057 63.2969 86.6641C63.2969 87.3932 63.138 88.0078 62.8203 88.5078C62.5026 89.0026 62.0365 89.375 61.4219 89.625C60.8125 89.875 60.0677 90 59.1875 90ZM69.4766 88.0938V84.3281C69.4766 84.0573 69.4323 83.8255 69.3438 83.6328C69.2552 83.4349 69.1172 83.2812 68.9297 83.1719C68.7474 83.0625 68.5104 83.0078 68.2188 83.0078C67.9688 83.0078 67.7526 83.0521 67.5703 83.1406C67.388 83.224 67.2474 83.3464 67.1484 83.5078C67.0495 83.6641 67 83.849 67 84.0625H64.75C64.75 83.7031 64.8333 83.362 65 83.0391C65.1667 82.7161 65.4089 82.4323 65.7266 82.1875C66.0443 81.9375 66.4219 81.7422 66.8594 81.6016C67.3021 81.4609 67.7969 81.3906 68.3438 81.3906C69 81.3906 69.5833 81.5 70.0938 81.7188C70.6042 81.9375 71.0052 82.2656 71.2969 82.7031C71.5938 83.1406 71.7422 83.6875 71.7422 84.3438V87.9609C71.7422 88.4245 71.7708 88.8047 71.8281 89.1016C71.8854 89.3932 71.9688 89.6484 72.0781 89.8672V90H69.8047C69.6953 89.7708 69.612 89.4844 69.5547 89.1406C69.5026 88.7917 69.4766 88.4427 69.4766 88.0938ZM69.7734 84.8516L69.7891 86.125H68.5312C68.2344 86.125 67.9766 86.1589 67.7578 86.2266C67.5391 86.2943 67.3594 86.3906 67.2188 86.5156C67.0781 86.6354 66.974 86.776 66.9062 86.9375C66.8438 87.099 66.8125 87.276 66.8125 87.4688C66.8125 87.6615 66.8568 87.8359 66.9453 87.9922C67.0339 88.1432 67.1615 88.263 67.3281 88.3516C67.4948 88.4349 67.6901 88.4766 67.9141 88.4766C68.2526 88.4766 68.5469 88.4089 68.7969 88.2734C69.0469 88.138 69.2396 87.9714 69.375 87.7734C69.5156 87.5755 69.5885 87.388 69.5938 87.2109L70.1875 88.1641C70.1042 88.3776 69.9896 88.599 69.8438 88.8281C69.7031 89.0573 69.5234 89.2734 69.3047 89.4766C69.0859 89.6745 68.8229 89.8385 68.5156 89.9688C68.2083 90.0938 67.8438 90.1562 67.4219 90.1562C66.8854 90.1562 66.3984 90.0495 65.9609 89.8359C65.5286 89.6172 65.1849 89.3177 64.9297 88.9375C64.6797 88.5521 64.5547 88.1146 64.5547 87.625C64.5547 87.1823 64.638 86.7891 64.8047 86.4453C64.9714 86.1016 65.2161 85.8125 65.5391 85.5781C65.8672 85.3385 66.276 85.1589 66.7656 85.0391C67.2552 84.9141 67.8229 84.8516 68.4688 84.8516H69.7734ZM75.7266 83.3906V90H73.4766V81.5469H75.5938L75.7266 83.3906ZM78.2734 81.4922L78.2344 83.5781C78.125 83.5625 77.9922 83.5495 77.8359 83.5391C77.6849 83.5234 77.5469 83.5156 77.4219 83.5156C77.1042 83.5156 76.8281 83.5573 76.5938 83.6406C76.3646 83.7188 76.1719 83.8359 76.0156 83.9922C75.8646 84.1484 75.75 84.3385 75.6719 84.5625C75.599 84.7865 75.5573 85.0417 75.5469 85.3281L75.0938 85.1875C75.0938 84.6406 75.1484 84.138 75.2578 83.6797C75.3672 83.2161 75.526 82.8125 75.7344 82.4688C75.9479 82.125 76.2083 81.8594 76.5156 81.6719C76.8229 81.4844 77.1745 81.3906 77.5703 81.3906C77.6953 81.3906 77.8229 81.401 77.9531 81.4219C78.0833 81.4375 78.1901 81.4609 78.2734 81.4922ZM81.5859 83.3906V90H79.3359V81.5469H81.4531L81.5859 83.3906ZM84.1328 81.4922L84.0938 83.5781C83.9844 83.5625 83.8516 83.5495 83.6953 83.5391C83.5443 83.5234 83.4062 83.5156 83.2812 83.5156C82.9635 83.5156 82.6875 83.5573 82.4531 83.6406C82.224 83.7188 82.0312 83.8359 81.875 83.9922C81.724 84.1484 81.6094 84.3385 81.5312 84.5625C81.4583 84.7865 81.4167 85.0417 81.4062 85.3281L80.9531 85.1875C80.9531 84.6406 81.0078 84.138 81.1172 83.6797C81.2266 83.2161 81.3854 82.8125 81.5938 82.4688C81.8073 82.125 82.0677 81.8594 82.375 81.6719C82.6823 81.4844 83.0339 81.3906 83.4297 81.3906C83.5547 81.3906 83.6823 81.401 83.8125 81.4219C83.9427 81.4375 84.0495 81.4609 84.1328 81.4922ZM88.9297 90.1562C88.2734 90.1562 87.6849 90.0521 87.1641 89.8438C86.6432 89.6302 86.2005 89.3359 85.8359 88.9609C85.4766 88.5859 85.2005 88.151 85.0078 87.6562C84.8151 87.1562 84.7188 86.625 84.7188 86.0625V85.75C84.7188 85.1094 84.8099 84.5234 84.9922 83.9922C85.1745 83.4609 85.4349 83 85.7734 82.6094C86.1172 82.2188 86.5339 81.9193 87.0234 81.7109C87.513 81.4974 88.0651 81.3906 88.6797 81.3906C89.2786 81.3906 89.8099 81.4896 90.2734 81.6875C90.737 81.8854 91.125 82.1667 91.4375 82.5312C91.7552 82.8958 91.9948 83.3333 92.1562 83.8438C92.3177 84.349 92.3984 84.9115 92.3984 85.5312V86.4688H85.6797V84.9688H90.1875V84.7969C90.1875 84.4844 90.1302 84.2057 90.0156 83.9609C89.9062 83.7109 89.7396 83.513 89.5156 83.3672C89.2917 83.2214 89.0052 83.1484 88.6562 83.1484C88.3594 83.1484 88.1042 83.2135 87.8906 83.3438C87.6771 83.474 87.5026 83.6562 87.3672 83.8906C87.237 84.125 87.138 84.401 87.0703 84.7188C87.0078 85.0312 86.9766 85.375 86.9766 85.75V86.0625C86.9766 86.401 87.0234 86.7135 87.1172 87C87.2161 87.2865 87.3542 87.5339 87.5312 87.7422C87.7135 87.9505 87.9323 88.112 88.1875 88.2266C88.4479 88.3411 88.7422 88.3984 89.0703 88.3984C89.4766 88.3984 89.8542 88.3203 90.2031 88.1641C90.5573 88.0026 90.862 87.7604 91.1172 87.4375L92.2109 88.625C92.0339 88.8802 91.7917 89.125 91.4844 89.3594C91.1823 89.5938 90.8177 89.7865 90.3906 89.9375C89.9635 90.0833 89.4766 90.1562 88.9297 90.1562ZM95.9297 83.3906V90H93.6797V81.5469H95.7969L95.9297 83.3906ZM98.4766 81.4922L98.4375 83.5781C98.3281 83.5625 98.1953 83.5495 98.0391 83.5391C97.888 83.5234 97.75 83.5156 97.625 83.5156C97.3073 83.5156 97.0312 83.5573 96.7969 83.6406C96.5677 83.7188 96.375 83.8359 96.2188 83.9922C96.0677 84.1484 95.9531 84.3385 95.875 84.5625C95.8021 84.7865 95.7604 85.0417 95.75 85.3281L95.2969 85.1875C95.2969 84.6406 95.3516 84.138 95.4609 83.6797C95.5703 83.2161 95.7292 82.8125 95.9375 82.4688C96.151 82.125 96.4115 81.8594 96.7188 81.6719C97.026 81.4844 97.3776 81.3906 97.7734 81.3906C97.8984 81.3906 98.026 81.401 98.1562 81.4219C98.2865 81.4375 98.3932 81.4609 98.4766 81.4922ZM103.836 88.0938V84.3281C103.836 84.0573 103.792 83.8255 103.703 83.6328C103.615 83.4349 103.477 83.2812 103.289 83.1719C103.107 83.0625 102.87 83.0078 102.578 83.0078C102.328 83.0078 102.112 83.0521 101.93 83.1406C101.747 83.224 101.607 83.3464 101.508 83.5078C101.409 83.6641 101.359 83.849 101.359 84.0625H99.1094C99.1094 83.7031 99.1927 83.362 99.3594 83.0391C99.526 82.7161 99.7682 82.4323 100.086 82.1875C100.404 81.9375 100.781 81.7422 101.219 81.6016C101.661 81.4609 102.156 81.3906 102.703 81.3906C103.359 81.3906 103.943 81.5 104.453 81.7188C104.964 81.9375 105.365 82.2656 105.656 82.7031C105.953 83.1406 106.102 83.6875 106.102 84.3438V87.9609C106.102 88.4245 106.13 88.8047 106.188 89.1016C106.245 89.3932 106.328 89.6484 106.438 89.8672V90H104.164C104.055 89.7708 103.971 89.4844 103.914 89.1406C103.862 88.7917 103.836 88.4427 103.836 88.0938ZM104.133 84.8516L104.148 86.125H102.891C102.594 86.125 102.336 86.1589 102.117 86.2266C101.898 86.2943 101.719 86.3906 101.578 86.5156C101.438 86.6354 101.333 86.776 101.266 86.9375C101.203 87.099 101.172 87.276 101.172 87.4688C101.172 87.6615 101.216 87.8359 101.305 87.9922C101.393 88.1432 101.521 88.263 101.688 88.3516C101.854 88.4349 102.049 88.4766 102.273 88.4766C102.612 88.4766 102.906 88.4089 103.156 88.2734C103.406 88.138 103.599 87.9714 103.734 87.7734C103.875 87.5755 103.948 87.388 103.953 87.2109L104.547 88.1641C104.464 88.3776 104.349 88.599 104.203 88.8281C104.062 89.0573 103.883 89.2734 103.664 89.4766C103.445 89.6745 103.182 89.8385 102.875 89.9688C102.568 90.0938 102.203 90.1562 101.781 90.1562C101.245 90.1562 100.758 90.0495 100.32 89.8359C99.888 89.6172 99.5443 89.3177 99.2891 88.9375C99.0391 88.5521 98.9141 88.1146 98.9141 87.625C98.9141 87.1823 98.9974 86.7891 99.1641 86.4453C99.3307 86.1016 99.5755 85.8125 99.8984 85.5781C100.227 85.3385 100.635 85.1589 101.125 85.0391C101.615 84.9141 102.182 84.8516 102.828 84.8516H104.133ZM112.406 87.6641C112.406 87.5026 112.359 87.3568 112.266 87.2266C112.172 87.0964 111.997 86.9766 111.742 86.8672C111.492 86.7526 111.13 86.6484 110.656 86.5547C110.229 86.4609 109.831 86.3438 109.461 86.2031C109.096 86.0573 108.779 85.8828 108.508 85.6797C108.242 85.4766 108.034 85.237 107.883 84.9609C107.732 84.6797 107.656 84.3594 107.656 84C107.656 83.6458 107.732 83.3125 107.883 83C108.039 82.6875 108.26 82.4115 108.547 82.1719C108.839 81.9271 109.193 81.737 109.609 81.6016C110.031 81.4609 110.505 81.3906 111.031 81.3906C111.766 81.3906 112.396 81.5078 112.922 81.7422C113.453 81.9766 113.859 82.2995 114.141 82.7109C114.427 83.1172 114.57 83.5807 114.57 84.1016H112.32C112.32 83.8828 112.273 83.6875 112.18 83.5156C112.091 83.3385 111.951 83.2005 111.758 83.1016C111.57 82.9974 111.326 82.9453 111.023 82.9453C110.773 82.9453 110.557 82.9896 110.375 83.0781C110.193 83.1615 110.052 83.276 109.953 83.4219C109.859 83.5625 109.812 83.7188 109.812 83.8906C109.812 84.0208 109.839 84.138 109.891 84.2422C109.948 84.3411 110.039 84.4323 110.164 84.5156C110.289 84.599 110.451 84.6771 110.648 84.75C110.852 84.8177 111.102 84.8802 111.398 84.9375C112.008 85.0625 112.552 85.2266 113.031 85.4297C113.51 85.6276 113.891 85.8984 114.172 86.2422C114.453 86.5807 114.594 87.026 114.594 87.5781C114.594 87.9531 114.51 88.2969 114.344 88.6094C114.177 88.9219 113.938 89.1953 113.625 89.4297C113.312 89.6589 112.938 89.8385 112.5 89.9688C112.068 90.0938 111.581 90.1562 111.039 90.1562C110.253 90.1562 109.586 90.0156 109.039 89.7344C108.497 89.4531 108.086 89.0964 107.805 88.6641C107.529 88.2266 107.391 87.7786 107.391 87.3203H109.523C109.534 87.6276 109.612 87.875 109.758 88.0625C109.909 88.25 110.099 88.3854 110.328 88.4688C110.562 88.5521 110.815 88.5938 111.086 88.5938C111.378 88.5938 111.62 88.5547 111.812 88.4766C112.005 88.3932 112.151 88.2839 112.25 88.1484C112.354 88.0078 112.406 87.8464 112.406 87.6641ZM55.1953 106.023C55.1953 105.82 55.1641 105.638 55.1016 105.477C55.0443 105.31 54.9349 105.159 54.7734 105.023C54.612 104.883 54.3854 104.745 54.0938 104.609C53.8021 104.474 53.4245 104.333 52.9609 104.188C52.4453 104.021 51.9557 103.833 51.4922 103.625C51.0339 103.417 50.6276 103.174 50.2734 102.898C49.9245 102.617 49.6484 102.292 49.4453 101.922C49.2474 101.552 49.1484 101.122 49.1484 100.633C49.1484 100.159 49.2526 99.7292 49.4609 99.3438C49.6693 98.9531 49.9609 98.6198 50.3359 98.3438C50.7109 98.0625 51.1536 97.8464 51.6641 97.6953C52.1797 97.5443 52.7448 97.4688 53.3594 97.4688C54.1979 97.4688 54.9297 97.6198 55.5547 97.9219C56.1797 98.224 56.6641 98.638 57.0078 99.1641C57.3568 99.6901 57.5312 100.292 57.5312 100.969H55.2031C55.2031 100.635 55.1328 100.344 54.9922 100.094C54.8568 99.8385 54.6484 99.638 54.3672 99.4922C54.0911 99.3464 53.7422 99.2734 53.3203 99.2734C52.9141 99.2734 52.5755 99.3359 52.3047 99.4609C52.0339 99.5807 51.8307 99.7448 51.6953 99.9531C51.5599 100.156 51.4922 100.385 51.4922 100.641C51.4922 100.833 51.5391 101.008 51.6328 101.164C51.7318 101.32 51.8776 101.466 52.0703 101.602C52.263 101.737 52.5 101.865 52.7812 101.984C53.0625 102.104 53.388 102.221 53.7578 102.336C54.3776 102.523 54.9219 102.734 55.3906 102.969C55.8646 103.203 56.2604 103.466 56.5781 103.758C56.8958 104.049 57.1354 104.38 57.2969 104.75C57.4583 105.12 57.5391 105.539 57.5391 106.008C57.5391 106.503 57.4427 106.945 57.25 107.336C57.0573 107.727 56.7786 108.057 56.4141 108.328C56.0495 108.599 55.6146 108.805 55.1094 108.945C54.6042 109.086 54.0391 109.156 53.4141 109.156C52.8516 109.156 52.2969 109.083 51.75 108.938C51.2031 108.786 50.7057 108.56 50.2578 108.258C49.8151 107.956 49.4609 107.57 49.1953 107.102C48.9297 106.633 48.7969 106.078 48.7969 105.438H51.1484C51.1484 105.792 51.2031 106.091 51.3125 106.336C51.4219 106.581 51.5755 106.779 51.7734 106.93C51.9766 107.081 52.2161 107.19 52.4922 107.258C52.7734 107.326 53.0807 107.359 53.4141 107.359C53.8203 107.359 54.1536 107.302 54.4141 107.188C54.6797 107.073 54.875 106.914 55 106.711C55.1302 106.508 55.1953 106.279 55.1953 106.023ZM63.5547 107.094V103.328C63.5547 103.057 63.5104 102.826 63.4219 102.633C63.3333 102.435 63.1953 102.281 63.0078 102.172C62.8255 102.062 62.5885 102.008 62.2969 102.008C62.0469 102.008 61.8307 102.052 61.6484 102.141C61.4661 102.224 61.3255 102.346 61.2266 102.508C61.1276 102.664 61.0781 102.849 61.0781 103.062H58.8281C58.8281 102.703 58.9115 102.362 59.0781 102.039C59.2448 101.716 59.487 101.432 59.8047 101.188C60.1224 100.938 60.5 100.742 60.9375 100.602C61.3802 100.461 61.875 100.391 62.4219 100.391C63.0781 100.391 63.6615 100.5 64.1719 100.719C64.6823 100.938 65.0833 101.266 65.375 101.703C65.6719 102.141 65.8203 102.688 65.8203 103.344V106.961C65.8203 107.424 65.849 107.805 65.9062 108.102C65.9635 108.393 66.0469 108.648 66.1562 108.867V109H63.8828C63.7734 108.771 63.6901 108.484 63.6328 108.141C63.5807 107.792 63.5547 107.443 63.5547 107.094ZM63.8516 103.852L63.8672 105.125H62.6094C62.3125 105.125 62.0547 105.159 61.8359 105.227C61.6172 105.294 61.4375 105.391 61.2969 105.516C61.1562 105.635 61.0521 105.776 60.9844 105.938C60.9219 106.099 60.8906 106.276 60.8906 106.469C60.8906 106.661 60.9349 106.836 61.0234 106.992C61.112 107.143 61.2396 107.263 61.4062 107.352C61.5729 107.435 61.7682 107.477 61.9922 107.477C62.3307 107.477 62.625 107.409 62.875 107.273C63.125 107.138 63.3177 106.971 63.4531 106.773C63.5938 106.576 63.6667 106.388 63.6719 106.211L64.2656 107.164C64.1823 107.378 64.0677 107.599 63.9219 107.828C63.7812 108.057 63.6016 108.273 63.3828 108.477C63.1641 108.674 62.901 108.839 62.5938 108.969C62.2865 109.094 61.9219 109.156 61.5 109.156C60.9635 109.156 60.4766 109.049 60.0391 108.836C59.6068 108.617 59.263 108.318 59.0078 107.938C58.7578 107.552 58.6328 107.115 58.6328 106.625C58.6328 106.182 58.7161 105.789 58.8828 105.445C59.0495 105.102 59.2943 104.812 59.6172 104.578C59.9453 104.339 60.3542 104.159 60.8438 104.039C61.3333 103.914 61.901 103.852 62.5469 103.852H63.8516ZM69.7578 102.352V109H67.5078V100.547H69.6172L69.7578 102.352ZM69.4297 104.477H68.8203C68.8203 103.852 68.901 103.289 69.0625 102.789C69.224 102.284 69.4505 101.854 69.7422 101.5C70.0339 101.141 70.3802 100.867 70.7812 100.68C71.1875 100.487 71.6406 100.391 72.1406 100.391C72.5365 100.391 72.8984 100.448 73.2266 100.562C73.5547 100.677 73.8359 100.859 74.0703 101.109C74.3099 101.359 74.4922 101.69 74.6172 102.102C74.7474 102.513 74.8125 103.016 74.8125 103.609V109H72.5469V103.602C72.5469 103.227 72.4948 102.935 72.3906 102.727C72.2865 102.518 72.1328 102.372 71.9297 102.289C71.7318 102.201 71.487 102.156 71.1953 102.156C70.8932 102.156 70.6302 102.216 70.4062 102.336C70.1875 102.456 70.0052 102.622 69.8594 102.836C69.7188 103.044 69.612 103.289 69.5391 103.57C69.4661 103.852 69.4297 104.154 69.4297 104.477ZM78.8984 100.547V109H76.6406V100.547H78.8984ZM76.5 98.3438C76.5 98.0156 76.6146 97.7448 76.8438 97.5312C77.0729 97.3177 77.3802 97.2109 77.7656 97.2109C78.1458 97.2109 78.4505 97.3177 78.6797 97.5312C78.9141 97.7448 79.0312 98.0156 79.0312 98.3438C79.0312 98.6719 78.9141 98.9427 78.6797 99.1562C78.4505 99.3698 78.1458 99.4766 77.7656 99.4766C77.3802 99.4766 77.0729 99.3698 76.8438 99.1562C76.6146 98.9427 76.5 98.6719 76.5 98.3438ZM84.8984 100.547V102.141H79.9766V100.547H84.8984ZM81.1953 98.4609H83.4453V106.453C83.4453 106.698 83.4766 106.885 83.5391 107.016C83.6068 107.146 83.7057 107.237 83.8359 107.289C83.9661 107.336 84.1302 107.359 84.3281 107.359C84.4688 107.359 84.5938 107.354 84.7031 107.344C84.8177 107.328 84.9141 107.312 84.9922 107.297L85 108.953C84.8073 109.016 84.599 109.065 84.375 109.102C84.151 109.138 83.9036 109.156 83.6328 109.156C83.138 109.156 82.7057 109.076 82.3359 108.914C81.9714 108.747 81.6901 108.482 81.4922 108.117C81.2943 107.753 81.1953 107.273 81.1953 106.68V98.4609ZM90.7422 107.094V103.328C90.7422 103.057 90.6979 102.826 90.6094 102.633C90.5208 102.435 90.3828 102.281 90.1953 102.172C90.013 102.062 89.776 102.008 89.4844 102.008C89.2344 102.008 89.0182 102.052 88.8359 102.141C88.6536 102.224 88.513 102.346 88.4141 102.508C88.3151 102.664 88.2656 102.849 88.2656 103.062H86.0156C86.0156 102.703 86.099 102.362 86.2656 102.039C86.4323 101.716 86.6745 101.432 86.9922 101.188C87.3099 100.938 87.6875 100.742 88.125 100.602C88.5677 100.461 89.0625 100.391 89.6094 100.391C90.2656 100.391 90.849 100.5 91.3594 100.719C91.8698 100.938 92.2708 101.266 92.5625 101.703C92.8594 102.141 93.0078 102.688 93.0078 103.344V106.961C93.0078 107.424 93.0365 107.805 93.0938 108.102C93.151 108.393 93.2344 108.648 93.3438 108.867V109H91.0703C90.9609 108.771 90.8776 108.484 90.8203 108.141C90.7682 107.792 90.7422 107.443 90.7422 107.094ZM91.0391 103.852L91.0547 105.125H89.7969C89.5 105.125 89.2422 105.159 89.0234 105.227C88.8047 105.294 88.625 105.391 88.4844 105.516C88.3438 105.635 88.2396 105.776 88.1719 105.938C88.1094 106.099 88.0781 106.276 88.0781 106.469C88.0781 106.661 88.1224 106.836 88.2109 106.992C88.2995 107.143 88.4271 107.263 88.5938 107.352C88.7604 107.435 88.9557 107.477 89.1797 107.477C89.5182 107.477 89.8125 107.409 90.0625 107.273C90.3125 107.138 90.5052 106.971 90.6406 106.773C90.7812 106.576 90.8542 106.388 90.8594 106.211L91.4531 107.164C91.3698 107.378 91.2552 107.599 91.1094 107.828C90.9688 108.057 90.7891 108.273 90.5703 108.477C90.3516 108.674 90.0885 108.839 89.7812 108.969C89.474 109.094 89.1094 109.156 88.6875 109.156C88.151 109.156 87.6641 109.049 87.2266 108.836C86.7943 108.617 86.4505 108.318 86.1953 107.938C85.9453 107.552 85.8203 107.115 85.8203 106.625C85.8203 106.182 85.9036 105.789 86.0703 105.445C86.237 105.102 86.4818 104.812 86.8047 104.578C87.1328 104.339 87.5417 104.159 88.0312 104.039C88.5208 103.914 89.0885 103.852 89.7344 103.852H91.0391ZM96.9922 102.391V109H94.7422V100.547H96.8594L96.9922 102.391ZM99.5391 100.492L99.5 102.578C99.3906 102.562 99.2578 102.549 99.1016 102.539C98.9505 102.523 98.8125 102.516 98.6875 102.516C98.3698 102.516 98.0938 102.557 97.8594 102.641C97.6302 102.719 97.4375 102.836 97.2812 102.992C97.1302 103.148 97.0156 103.339 96.9375 103.562C96.8646 103.786 96.8229 104.042 96.8125 104.328L96.3594 104.188C96.3594 103.641 96.4141 103.138 96.5234 102.68C96.6328 102.216 96.7917 101.812 97 101.469C97.2135 101.125 97.474 100.859 97.7812 100.672C98.0885 100.484 98.4401 100.391 98.8359 100.391C98.9609 100.391 99.0885 100.401 99.2188 100.422C99.349 100.438 99.4557 100.461 99.5391 100.492ZM102.977 100.547V109H100.719V100.547H102.977ZM100.578 98.3438C100.578 98.0156 100.693 97.7448 100.922 97.5312C101.151 97.3177 101.458 97.2109 101.844 97.2109C102.224 97.2109 102.529 97.3177 102.758 97.5312C102.992 97.7448 103.109 98.0156 103.109 98.3438C103.109 98.6719 102.992 98.9427 102.758 99.1562C102.529 99.3698 102.224 99.4766 101.844 99.4766C101.458 99.4766 101.151 99.3698 100.922 99.1562C100.693 98.9427 100.578 98.6719 100.578 98.3438ZM109.398 107.094V103.328C109.398 103.057 109.354 102.826 109.266 102.633C109.177 102.435 109.039 102.281 108.852 102.172C108.669 102.062 108.432 102.008 108.141 102.008C107.891 102.008 107.674 102.052 107.492 102.141C107.31 102.224 107.169 102.346 107.07 102.508C106.971 102.664 106.922 102.849 106.922 103.062H104.672C104.672 102.703 104.755 102.362 104.922 102.039C105.089 101.716 105.331 101.432 105.648 101.188C105.966 100.938 106.344 100.742 106.781 100.602C107.224 100.461 107.719 100.391 108.266 100.391C108.922 100.391 109.505 100.5 110.016 100.719C110.526 100.938 110.927 101.266 111.219 101.703C111.516 102.141 111.664 102.688 111.664 103.344V106.961C111.664 107.424 111.693 107.805 111.75 108.102C111.807 108.393 111.891 108.648 112 108.867V109H109.727C109.617 108.771 109.534 108.484 109.477 108.141C109.424 107.792 109.398 107.443 109.398 107.094ZM109.695 103.852L109.711 105.125H108.453C108.156 105.125 107.898 105.159 107.68 105.227C107.461 105.294 107.281 105.391 107.141 105.516C107 105.635 106.896 105.776 106.828 105.938C106.766 106.099 106.734 106.276 106.734 106.469C106.734 106.661 106.779 106.836 106.867 106.992C106.956 107.143 107.083 107.263 107.25 107.352C107.417 107.435 107.612 107.477 107.836 107.477C108.174 107.477 108.469 107.409 108.719 107.273C108.969 107.138 109.161 106.971 109.297 106.773C109.438 106.576 109.51 106.388 109.516 106.211L110.109 107.164C110.026 107.378 109.911 107.599 109.766 107.828C109.625 108.057 109.445 108.273 109.227 108.477C109.008 108.674 108.745 108.839 108.438 108.969C108.13 109.094 107.766 109.156 107.344 109.156C106.807 109.156 106.32 109.049 105.883 108.836C105.451 108.617 105.107 108.318 104.852 107.938C104.602 107.552 104.477 107.115 104.477 106.625C104.477 106.182 104.56 105.789 104.727 105.445C104.893 105.102 105.138 104.812 105.461 104.578C105.789 104.339 106.198 104.159 106.688 104.039C107.177 103.914 107.745 103.852 108.391 103.852H109.695ZM117.969 106.664C117.969 106.503 117.922 106.357 117.828 106.227C117.734 106.096 117.56 105.977 117.305 105.867C117.055 105.753 116.693 105.648 116.219 105.555C115.792 105.461 115.393 105.344 115.023 105.203C114.659 105.057 114.341 104.883 114.07 104.68C113.805 104.477 113.596 104.237 113.445 103.961C113.294 103.68 113.219 103.359 113.219 103C113.219 102.646 113.294 102.312 113.445 102C113.602 101.688 113.823 101.411 114.109 101.172C114.401 100.927 114.755 100.737 115.172 100.602C115.594 100.461 116.068 100.391 116.594 100.391C117.328 100.391 117.958 100.508 118.484 100.742C119.016 100.977 119.422 101.299 119.703 101.711C119.99 102.117 120.133 102.581 120.133 103.102H117.883C117.883 102.883 117.836 102.688 117.742 102.516C117.654 102.339 117.513 102.201 117.32 102.102C117.133 101.997 116.888 101.945 116.586 101.945C116.336 101.945 116.12 101.99 115.938 102.078C115.755 102.161 115.615 102.276 115.516 102.422C115.422 102.562 115.375 102.719 115.375 102.891C115.375 103.021 115.401 103.138 115.453 103.242C115.51 103.341 115.602 103.432 115.727 103.516C115.852 103.599 116.013 103.677 116.211 103.75C116.414 103.818 116.664 103.88 116.961 103.938C117.57 104.062 118.115 104.227 118.594 104.43C119.073 104.628 119.453 104.898 119.734 105.242C120.016 105.581 120.156 106.026 120.156 106.578C120.156 106.953 120.073 107.297 119.906 107.609C119.74 107.922 119.5 108.195 119.188 108.43C118.875 108.659 118.5 108.839 118.062 108.969C117.63 109.094 117.143 109.156 116.602 109.156C115.815 109.156 115.148 109.016 114.602 108.734C114.06 108.453 113.648 108.096 113.367 107.664C113.091 107.227 112.953 106.779 112.953 106.32H115.086C115.096 106.628 115.174 106.875 115.32 107.062C115.471 107.25 115.661 107.385 115.891 107.469C116.125 107.552 116.378 107.594 116.648 107.594C116.94 107.594 117.182 107.555 117.375 107.477C117.568 107.393 117.714 107.284 117.812 107.148C117.917 107.008 117.969 106.846 117.969 106.664Z" fill="#222121"/>
<path d="M110.237 18.8602C109.861 18.2082 109.359 17.6366 108.759 17.1785C108.16 16.7205 107.474 16.385 106.743 16.1916C106.013 15.9982 105.25 15.9506 104.501 16.0516C103.751 16.1526 103.029 16.4002 102.376 16.7801L73.1145 33.5634C72.2539 33.2785 71.3646 33.1075 70.4752 33.1075C68.1927 33.1075 66.0036 34.0082 64.3896 35.6113C62.7756 37.2144 61.8688 39.3887 61.8688 41.6559V67.3011C61.108 67.3011 60.3783 67.6013 59.8403 68.1357C59.3022 68.67 59 69.3948 59 70.1505V73H81.9505V70.1505C81.9505 69.3948 81.6482 68.67 81.1102 68.1357C80.5722 67.6013 79.8425 67.3011 79.0816 67.3011V43.3086L108.114 26.6393C110.868 25.0721 111.815 21.5957 110.237 18.8602ZM70.4752 45.9301C69.3339 45.9301 68.2394 45.4798 67.4324 44.6782C66.6254 43.8767 66.172 42.7895 66.172 41.6559C66.172 40.5223 66.6254 39.4352 67.4324 38.6336C68.2394 37.832 69.3339 37.3817 70.4752 37.3817C71.6165 37.3817 72.7111 37.832 73.5181 38.6336C74.3251 39.4352 74.7784 40.5223 74.7784 41.6559C74.7784 42.7895 74.3251 43.8767 73.5181 44.6782C72.7111 45.4798 71.6165 45.9301 70.4752 45.9301ZM83.098 37.7237L76.4997 34.8742L80.2292 32.7371L86.8274 35.5866L83.098 37.7237ZM93.0241 32.0247L86.4258 29.1753L90.1552 27.0382L96.7535 29.8876L93.0241 32.0247ZM102.979 26.3258L96.3806 23.4764L100.11 21.3393L106.68 24.1887L102.979 26.3258Z" fill="#2A6D4C"/>
</svg>
