<svg width="169" height="130" viewBox="0 0 169 130" fill="none" xmlns="http://www.w3.org/2000/svg">
<rect width="169" height="130" rx="10" fill="#2A6D4C"/>
<path d="M56.3516 83.0078H53.4297L53.4141 81.3984H55.8672C56.2995 81.3984 56.6536 81.3438 56.9297 81.2344C57.2057 81.1198 57.4115 80.9557 57.5469 80.7422C57.6875 80.5234 57.7578 80.2578 57.7578 79.9453C57.7578 79.5911 57.6901 79.3047 57.5547 79.0859C57.4245 78.8672 57.2188 78.7083 56.9375 78.6094C56.6615 78.5104 56.3047 78.4609 55.8672 78.4609H54.2422V88H51.8984V76.625H55.8672C56.5286 76.625 57.1198 76.6875 57.6406 76.8125C58.1667 76.9375 58.612 77.1276 58.9766 77.3828C59.3411 77.638 59.6198 77.9609 59.8125 78.3516C60.0052 78.737 60.1016 79.1953 60.1016 79.7266C60.1016 80.1953 59.9948 80.6276 59.7812 81.0234C59.5729 81.4193 59.2422 81.7422 58.7891 81.9922C58.3411 82.2422 57.7552 82.3802 57.0312 82.4062L56.3516 83.0078ZM56.25 88H52.7891L53.7031 86.1719H56.25C56.6615 86.1719 56.9974 86.1068 57.2578 85.9766C57.5182 85.8411 57.7109 85.6589 57.8359 85.4297C57.9609 85.2005 58.0234 84.9375 58.0234 84.6406C58.0234 84.3073 57.9661 84.0182 57.8516 83.7734C57.7422 83.5286 57.5651 83.3411 57.3203 83.2109C57.0755 83.0755 56.7526 83.0078 56.3516 83.0078H54.0938L54.1094 81.3984H56.9219L57.4609 82.0312C58.1536 82.0208 58.7109 82.1432 59.1328 82.3984C59.5599 82.6484 59.8698 82.974 60.0625 83.375C60.2604 83.776 60.3594 84.2057 60.3594 84.6641C60.3594 85.3932 60.2005 86.0078 59.8828 86.5078C59.5651 87.0026 59.099 87.375 58.4844 87.625C57.875 87.875 57.1302 88 56.25 88ZM64.3516 79.5469V88H62.0938V79.5469H64.3516ZM61.9531 77.3438C61.9531 77.0156 62.0677 76.7448 62.2969 76.5312C62.526 76.3177 62.8333 76.2109 63.2188 76.2109C63.599 76.2109 63.9036 76.3177 64.1328 76.5312C64.3672 76.7448 64.4844 77.0156 64.4844 77.3438C64.4844 77.6719 64.3672 77.9427 64.1328 78.1562C63.9036 78.3698 63.599 78.4766 63.2188 78.4766C62.8333 78.4766 62.526 78.3698 62.2969 78.1562C62.0677 77.9427 61.9531 77.6719 61.9531 77.3438ZM65.8516 83.8594V83.6953C65.8516 83.0755 65.9401 82.5052 66.1172 81.9844C66.2943 81.4583 66.5521 81.0026 66.8906 80.6172C67.2292 80.2318 67.6458 79.9323 68.1406 79.7188C68.6354 79.5 69.2031 79.3906 69.8438 79.3906C70.4844 79.3906 71.0547 79.5 71.5547 79.7188C72.0547 79.9323 72.474 80.2318 72.8125 80.6172C73.1562 81.0026 73.4167 81.4583 73.5938 81.9844C73.7708 82.5052 73.8594 83.0755 73.8594 83.6953V83.8594C73.8594 84.474 73.7708 85.0443 73.5938 85.5703C73.4167 86.0911 73.1562 86.5469 72.8125 86.9375C72.474 87.3229 72.0573 87.6224 71.5625 87.8359C71.0677 88.0495 70.5 88.1562 69.8594 88.1562C69.2188 88.1562 68.6484 88.0495 68.1484 87.8359C67.6536 87.6224 67.2344 87.3229 66.8906 86.9375C66.5521 86.5469 66.2943 86.0911 66.1172 85.5703C65.9401 85.0443 65.8516 84.474 65.8516 83.8594ZM68.1016 83.6953V83.8594C68.1016 84.2135 68.1328 84.5443 68.1953 84.8516C68.2578 85.1589 68.3568 85.4297 68.4922 85.6641C68.6328 85.8932 68.8151 86.0729 69.0391 86.2031C69.263 86.3333 69.5365 86.3984 69.8594 86.3984C70.1719 86.3984 70.4401 86.3333 70.6641 86.2031C70.888 86.0729 71.0677 85.8932 71.2031 85.6641C71.3385 85.4297 71.4375 85.1589 71.5 84.8516C71.5677 84.5443 71.6016 84.2135 71.6016 83.8594V83.6953C71.6016 83.3516 71.5677 83.0286 71.5 82.7266C71.4375 82.4193 71.3359 82.1484 71.1953 81.9141C71.0599 81.6745 70.8802 81.487 70.6562 81.3516C70.4323 81.2161 70.1615 81.1484 69.8438 81.1484C69.526 81.1484 69.2552 81.2161 69.0312 81.3516C68.8125 81.487 68.6328 81.6745 68.4922 81.9141C68.3568 82.1484 68.2578 82.4193 68.1953 82.7266C68.1328 83.0286 68.1016 83.3516 68.1016 83.6953ZM77.4922 81.1719V91.25H75.2422V79.5469H77.3281L77.4922 81.1719ZM82.8438 83.6797V83.8438C82.8438 84.4583 82.7708 85.0286 82.625 85.5547C82.4844 86.0807 82.276 86.5391 82 86.9297C81.724 87.3151 81.3802 87.6172 80.9688 87.8359C80.5625 88.0495 80.0938 88.1562 79.5625 88.1562C79.0469 88.1562 78.599 88.0521 78.2188 87.8438C77.8385 87.6354 77.5182 87.3438 77.2578 86.9688C77.0026 86.5885 76.7969 86.1484 76.6406 85.6484C76.4844 85.1484 76.3646 84.612 76.2812 84.0391V83.6094C76.3646 82.9948 76.4844 82.4323 76.6406 81.9219C76.7969 81.4062 77.0026 80.9609 77.2578 80.5859C77.5182 80.2057 77.8359 79.9115 78.2109 79.7031C78.5911 79.4948 79.0365 79.3906 79.5469 79.3906C80.0833 79.3906 80.5547 79.4922 80.9609 79.6953C81.3724 79.8984 81.7161 80.1901 81.9922 80.5703C82.2734 80.9505 82.4844 81.4036 82.625 81.9297C82.7708 82.4557 82.8438 83.0391 82.8438 83.6797ZM80.5859 83.8438V83.6797C80.5859 83.3203 80.5547 82.9896 80.4922 82.6875C80.4349 82.3802 80.3411 82.112 80.2109 81.8828C80.0859 81.6536 79.9193 81.4766 79.7109 81.3516C79.5078 81.2214 79.2604 81.1562 78.9688 81.1562C78.6615 81.1562 78.3984 81.2057 78.1797 81.3047C77.9661 81.4036 77.7917 81.5469 77.6562 81.7344C77.5208 81.9219 77.4193 82.1458 77.3516 82.4062C77.2839 82.6667 77.2422 82.9609 77.2266 83.2891V84.375C77.2526 84.7604 77.3255 85.1068 77.4453 85.4141C77.5651 85.7161 77.75 85.9557 78 86.1328C78.25 86.3099 78.5781 86.3984 78.9844 86.3984C79.2812 86.3984 79.5312 86.3333 79.7344 86.2031C79.9375 86.0677 80.1016 85.8828 80.2266 85.6484C80.3568 85.4141 80.4479 85.1432 80.5 84.8359C80.5573 84.5286 80.5859 84.1979 80.5859 83.8438ZM86.6172 76V88H84.3594V76H86.6172ZM93.0391 86.0938V82.3281C93.0391 82.0573 92.9948 81.8255 92.9062 81.6328C92.8177 81.4349 92.6797 81.2812 92.4922 81.1719C92.3099 81.0625 92.0729 81.0078 91.7812 81.0078C91.5312 81.0078 91.3151 81.0521 91.1328 81.1406C90.9505 81.224 90.8099 81.3464 90.7109 81.5078C90.612 81.6641 90.5625 81.849 90.5625 82.0625H88.3125C88.3125 81.7031 88.3958 81.362 88.5625 81.0391C88.7292 80.7161 88.9714 80.4323 89.2891 80.1875C89.6068 79.9375 89.9844 79.7422 90.4219 79.6016C90.8646 79.4609 91.3594 79.3906 91.9062 79.3906C92.5625 79.3906 93.1458 79.5 93.6562 79.7188C94.1667 79.9375 94.5677 80.2656 94.8594 80.7031C95.1562 81.1406 95.3047 81.6875 95.3047 82.3438V85.9609C95.3047 86.4245 95.3333 86.8047 95.3906 87.1016C95.4479 87.3932 95.5312 87.6484 95.6406 87.8672V88H93.3672C93.2578 87.7708 93.1745 87.4844 93.1172 87.1406C93.0651 86.7917 93.0391 86.4427 93.0391 86.0938ZM93.3359 82.8516L93.3516 84.125H92.0938C91.7969 84.125 91.5391 84.1589 91.3203 84.2266C91.1016 84.2943 90.9219 84.3906 90.7812 84.5156C90.6406 84.6354 90.5365 84.776 90.4688 84.9375C90.4062 85.099 90.375 85.276 90.375 85.4688C90.375 85.6615 90.4193 85.8359 90.5078 85.9922C90.5964 86.1432 90.724 86.263 90.8906 86.3516C91.0573 86.4349 91.2526 86.4766 91.4766 86.4766C91.8151 86.4766 92.1094 86.4089 92.3594 86.2734C92.6094 86.138 92.8021 85.9714 92.9375 85.7734C93.0781 85.5755 93.151 85.388 93.1562 85.2109L93.75 86.1641C93.6667 86.3776 93.5521 86.599 93.4062 86.8281C93.2656 87.0573 93.0859 87.2734 92.8672 87.4766C92.6484 87.6745 92.3854 87.8385 92.0781 87.9688C91.7708 88.0938 91.4062 88.1562 90.9844 88.1562C90.4479 88.1562 89.9609 88.0495 89.5234 87.8359C89.0911 87.6172 88.7474 87.3177 88.4922 86.9375C88.2422 86.5521 88.1172 86.1146 88.1172 85.625C88.1172 85.1823 88.2005 84.7891 88.3672 84.4453C88.5339 84.1016 88.7786 83.8125 89.1016 83.5781C89.4297 83.3385 89.8385 83.1589 90.3281 83.0391C90.8177 82.9141 91.3854 82.8516 92.0312 82.8516H93.3359ZM99.2422 81.3516V88H96.9922V79.5469H99.1016L99.2422 81.3516ZM98.9141 83.4766H98.3047C98.3047 82.8516 98.3854 82.2891 98.5469 81.7891C98.7083 81.2839 98.9349 80.8542 99.2266 80.5C99.5182 80.1406 99.8646 79.8672 100.266 79.6797C100.672 79.487 101.125 79.3906 101.625 79.3906C102.021 79.3906 102.383 79.4479 102.711 79.5625C103.039 79.6771 103.32 79.8594 103.555 80.1094C103.794 80.3594 103.977 80.6901 104.102 81.1016C104.232 81.513 104.297 82.0156 104.297 82.6094V88H102.031V82.6016C102.031 82.2266 101.979 81.9349 101.875 81.7266C101.771 81.5182 101.617 81.3724 101.414 81.2891C101.216 81.2005 100.971 81.1562 100.68 81.1562C100.378 81.1562 100.115 81.2161 99.8906 81.3359C99.6719 81.4557 99.4896 81.6224 99.3438 81.8359C99.2031 82.0443 99.0964 82.2891 99.0234 82.5703C98.9505 82.8516 98.9141 83.1536 98.9141 83.4766ZM110.148 79.5469V81.1406H105.227V79.5469H110.148ZM106.445 77.4609H108.695V85.4531C108.695 85.6979 108.727 85.8854 108.789 86.0156C108.857 86.1458 108.956 86.237 109.086 86.2891C109.216 86.3359 109.38 86.3594 109.578 86.3594C109.719 86.3594 109.844 86.3542 109.953 86.3438C110.068 86.3281 110.164 86.3125 110.242 86.2969L110.25 87.9531C110.057 88.0156 109.849 88.0651 109.625 88.1016C109.401 88.138 109.154 88.1562 108.883 88.1562C108.388 88.1562 107.956 88.0755 107.586 87.9141C107.221 87.7474 106.94 87.4818 106.742 87.1172C106.544 86.7526 106.445 86.2734 106.445 85.6797V77.4609ZM115.992 86.0938V82.3281C115.992 82.0573 115.948 81.8255 115.859 81.6328C115.771 81.4349 115.633 81.2812 115.445 81.1719C115.263 81.0625 115.026 81.0078 114.734 81.0078C114.484 81.0078 114.268 81.0521 114.086 81.1406C113.904 81.224 113.763 81.3464 113.664 81.5078C113.565 81.6641 113.516 81.849 113.516 82.0625H111.266C111.266 81.7031 111.349 81.362 111.516 81.0391C111.682 80.7161 111.924 80.4323 112.242 80.1875C112.56 79.9375 112.938 79.7422 113.375 79.6016C113.818 79.4609 114.312 79.3906 114.859 79.3906C115.516 79.3906 116.099 79.5 116.609 79.7188C117.12 79.9375 117.521 80.2656 117.812 80.7031C118.109 81.1406 118.258 81.6875 118.258 82.3438V85.9609C118.258 86.4245 118.286 86.8047 118.344 87.1016C118.401 87.3932 118.484 87.6484 118.594 87.8672V88H116.32C116.211 87.7708 116.128 87.4844 116.07 87.1406C116.018 86.7917 115.992 86.4427 115.992 86.0938ZM116.289 82.8516L116.305 84.125H115.047C114.75 84.125 114.492 84.1589 114.273 84.2266C114.055 84.2943 113.875 84.3906 113.734 84.5156C113.594 84.6354 113.49 84.776 113.422 84.9375C113.359 85.099 113.328 85.276 113.328 85.4688C113.328 85.6615 113.372 85.8359 113.461 85.9922C113.549 86.1432 113.677 86.263 113.844 86.3516C114.01 86.4349 114.206 86.4766 114.43 86.4766C114.768 86.4766 115.062 86.4089 115.312 86.2734C115.562 86.138 115.755 85.9714 115.891 85.7734C116.031 85.5755 116.104 85.388 116.109 85.2109L116.703 86.1641C116.62 86.3776 116.505 86.599 116.359 86.8281C116.219 87.0573 116.039 87.2734 115.82 87.4766C115.602 87.6745 115.339 87.8385 115.031 87.9688C114.724 88.0938 114.359 88.1562 113.938 88.1562C113.401 88.1562 112.914 88.0495 112.477 87.8359C112.044 87.6172 111.701 87.3177 111.445 86.9375C111.195 86.5521 111.07 86.1146 111.07 85.625C111.07 85.1823 111.154 84.7891 111.32 84.4453C111.487 84.1016 111.732 83.8125 112.055 83.5781C112.383 83.3385 112.792 83.1589 113.281 83.0391C113.771 82.9141 114.339 82.8516 114.984 82.8516H116.289ZM51.2266 104.023C51.2266 103.82 51.1953 103.638 51.1328 103.477C51.0755 103.31 50.9661 103.159 50.8047 103.023C50.6432 102.883 50.4167 102.745 50.125 102.609C49.8333 102.474 49.4557 102.333 48.9922 102.188C48.4766 102.021 47.987 101.833 47.5234 101.625C47.0651 101.417 46.6589 101.174 46.3047 100.898C45.9557 100.617 45.6797 100.292 45.4766 99.9219C45.2786 99.5521 45.1797 99.1224 45.1797 98.6328C45.1797 98.1589 45.2839 97.7292 45.4922 97.3438C45.7005 96.9531 45.9922 96.6198 46.3672 96.3438C46.7422 96.0625 47.1849 95.8464 47.6953 95.6953C48.2109 95.5443 48.776 95.4688 49.3906 95.4688C50.2292 95.4688 50.9609 95.6198 51.5859 95.9219C52.2109 96.224 52.6953 96.638 53.0391 97.1641C53.388 97.6901 53.5625 98.2917 53.5625 98.9688H51.2344C51.2344 98.6354 51.1641 98.3438 51.0234 98.0938C50.888 97.8385 50.6797 97.638 50.3984 97.4922C50.1224 97.3464 49.7734 97.2734 49.3516 97.2734C48.9453 97.2734 48.6068 97.3359 48.3359 97.4609C48.0651 97.5807 47.862 97.7448 47.7266 97.9531C47.5911 98.1562 47.5234 98.3854 47.5234 98.6406C47.5234 98.8333 47.5703 99.0078 47.6641 99.1641C47.763 99.3203 47.9089 99.4661 48.1016 99.6016C48.2943 99.737 48.5312 99.8646 48.8125 99.9844C49.0938 100.104 49.4193 100.221 49.7891 100.336C50.4089 100.523 50.9531 100.734 51.4219 100.969C51.8958 101.203 52.2917 101.466 52.6094 101.758C52.9271 102.049 53.1667 102.38 53.3281 102.75C53.4896 103.12 53.5703 103.539 53.5703 104.008C53.5703 104.503 53.474 104.945 53.2812 105.336C53.0885 105.727 52.8099 106.057 52.4453 106.328C52.0807 106.599 51.6458 106.805 51.1406 106.945C50.6354 107.086 50.0703 107.156 49.4453 107.156C48.8828 107.156 48.3281 107.083 47.7812 106.938C47.2344 106.786 46.737 106.56 46.2891 106.258C45.8464 105.956 45.4922 105.57 45.2266 105.102C44.9609 104.633 44.8281 104.078 44.8281 103.438H47.1797C47.1797 103.792 47.2344 104.091 47.3438 104.336C47.4531 104.581 47.6068 104.779 47.8047 104.93C48.0078 105.081 48.2474 105.19 48.5234 105.258C48.8047 105.326 49.112 105.359 49.4453 105.359C49.8516 105.359 50.1849 105.302 50.4453 105.188C50.7109 105.073 50.9062 104.914 51.0312 104.711C51.1615 104.508 51.2266 104.279 51.2266 104.023ZM59.5859 105.094V101.328C59.5859 101.057 59.5417 100.826 59.4531 100.633C59.3646 100.435 59.2266 100.281 59.0391 100.172C58.8568 100.062 58.6198 100.008 58.3281 100.008C58.0781 100.008 57.862 100.052 57.6797 100.141C57.4974 100.224 57.3568 100.346 57.2578 100.508C57.1589 100.664 57.1094 100.849 57.1094 101.062H54.8594C54.8594 100.703 54.9427 100.362 55.1094 100.039C55.276 99.7161 55.5182 99.4323 55.8359 99.1875C56.1536 98.9375 56.5312 98.7422 56.9688 98.6016C57.4115 98.4609 57.9062 98.3906 58.4531 98.3906C59.1094 98.3906 59.6927 98.5 60.2031 98.7188C60.7135 98.9375 61.1146 99.2656 61.4062 99.7031C61.7031 100.141 61.8516 100.688 61.8516 101.344V104.961C61.8516 105.424 61.8802 105.805 61.9375 106.102C61.9948 106.393 62.0781 106.648 62.1875 106.867V107H59.9141C59.8047 106.771 59.7214 106.484 59.6641 106.141C59.612 105.792 59.5859 105.443 59.5859 105.094ZM59.8828 101.852L59.8984 103.125H58.6406C58.3438 103.125 58.0859 103.159 57.8672 103.227C57.6484 103.294 57.4688 103.391 57.3281 103.516C57.1875 103.635 57.0833 103.776 57.0156 103.938C56.9531 104.099 56.9219 104.276 56.9219 104.469C56.9219 104.661 56.9661 104.836 57.0547 104.992C57.1432 105.143 57.2708 105.263 57.4375 105.352C57.6042 105.435 57.7995 105.477 58.0234 105.477C58.362 105.477 58.6562 105.409 58.9062 105.273C59.1562 105.138 59.349 104.971 59.4844 104.773C59.625 104.576 59.6979 104.388 59.7031 104.211L60.2969 105.164C60.2135 105.378 60.099 105.599 59.9531 105.828C59.8125 106.057 59.6328 106.273 59.4141 106.477C59.1953 106.674 58.9323 106.839 58.625 106.969C58.3177 107.094 57.9531 107.156 57.5312 107.156C56.9948 107.156 56.5078 107.049 56.0703 106.836C55.638 106.617 55.2943 106.318 55.0391 105.938C54.7891 105.552 54.6641 105.115 54.6641 104.625C54.6641 104.182 54.7474 103.789 54.9141 103.445C55.0807 103.102 55.3255 102.812 55.6484 102.578C55.9766 102.339 56.3854 102.159 56.875 102.039C57.3646 101.914 57.9323 101.852 58.5781 101.852H59.8828ZM65.7891 100.352V107H63.5391V98.5469H65.6484L65.7891 100.352ZM65.4609 102.477H64.8516C64.8516 101.852 64.9323 101.289 65.0938 100.789C65.2552 100.284 65.4818 99.8542 65.7734 99.5C66.0651 99.1406 66.4115 98.8672 66.8125 98.6797C67.2188 98.487 67.6719 98.3906 68.1719 98.3906C68.5677 98.3906 68.9297 98.4479 69.2578 98.5625C69.5859 98.6771 69.8672 98.8594 70.1016 99.1094C70.3411 99.3594 70.5234 99.6901 70.6484 100.102C70.7786 100.513 70.8438 101.016 70.8438 101.609V107H68.5781V101.602C68.5781 101.227 68.526 100.935 68.4219 100.727C68.3177 100.518 68.1641 100.372 67.9609 100.289C67.763 100.201 67.5182 100.156 67.2266 100.156C66.9245 100.156 66.6615 100.216 66.4375 100.336C66.2188 100.456 66.0365 100.622 65.8906 100.836C65.75 101.044 65.6432 101.289 65.5703 101.57C65.4974 101.852 65.4609 102.154 65.4609 102.477ZM76.6953 98.5469V100.141H71.7734V98.5469H76.6953ZM72.9922 96.4609H75.2422V104.453C75.2422 104.698 75.2734 104.885 75.3359 105.016C75.4036 105.146 75.5026 105.237 75.6328 105.289C75.763 105.336 75.9271 105.359 76.125 105.359C76.2656 105.359 76.3906 105.354 76.5 105.344C76.6146 105.328 76.7109 105.312 76.7891 105.297L76.7969 106.953C76.6042 107.016 76.3958 107.065 76.1719 107.102C75.9479 107.138 75.7005 107.156 75.4297 107.156C74.9349 107.156 74.5026 107.076 74.1328 106.914C73.7682 106.747 73.487 106.482 73.2891 106.117C73.0911 105.753 72.9922 105.273 72.9922 104.68V96.4609ZM82.5391 105.094V101.328C82.5391 101.057 82.4948 100.826 82.4062 100.633C82.3177 100.435 82.1797 100.281 81.9922 100.172C81.8099 100.062 81.5729 100.008 81.2812 100.008C81.0312 100.008 80.8151 100.052 80.6328 100.141C80.4505 100.224 80.3099 100.346 80.2109 100.508C80.112 100.664 80.0625 100.849 80.0625 101.062H77.8125C77.8125 100.703 77.8958 100.362 78.0625 100.039C78.2292 99.7161 78.4714 99.4323 78.7891 99.1875C79.1068 98.9375 79.4844 98.7422 79.9219 98.6016C80.3646 98.4609 80.8594 98.3906 81.4062 98.3906C82.0625 98.3906 82.6458 98.5 83.1562 98.7188C83.6667 98.9375 84.0677 99.2656 84.3594 99.7031C84.6562 100.141 84.8047 100.688 84.8047 101.344V104.961C84.8047 105.424 84.8333 105.805 84.8906 106.102C84.9479 106.393 85.0312 106.648 85.1406 106.867V107H82.8672C82.7578 106.771 82.6745 106.484 82.6172 106.141C82.5651 105.792 82.5391 105.443 82.5391 105.094ZM82.8359 101.852L82.8516 103.125H81.5938C81.2969 103.125 81.0391 103.159 80.8203 103.227C80.6016 103.294 80.4219 103.391 80.2812 103.516C80.1406 103.635 80.0365 103.776 79.9688 103.938C79.9062 104.099 79.875 104.276 79.875 104.469C79.875 104.661 79.9193 104.836 80.0078 104.992C80.0964 105.143 80.224 105.263 80.3906 105.352C80.5573 105.435 80.7526 105.477 80.9766 105.477C81.3151 105.477 81.6094 105.409 81.8594 105.273C82.1094 105.138 82.3021 104.971 82.4375 104.773C82.5781 104.576 82.651 104.388 82.6562 104.211L83.25 105.164C83.1667 105.378 83.0521 105.599 82.9062 105.828C82.7656 106.057 82.5859 106.273 82.3672 106.477C82.1484 106.674 81.8854 106.839 81.5781 106.969C81.2708 107.094 80.9062 107.156 80.4844 107.156C79.9479 107.156 79.4609 107.049 79.0234 106.836C78.5911 106.617 78.2474 106.318 77.9922 105.938C77.7422 105.552 77.6172 105.115 77.6172 104.625C77.6172 104.182 77.7005 103.789 77.8672 103.445C78.0339 103.102 78.2786 102.812 78.6016 102.578C78.9297 102.339 79.3385 102.159 79.8281 102.039C80.3177 101.914 80.8854 101.852 81.5312 101.852H82.8359ZM90.6641 95.625H94.9062C95.776 95.625 96.5234 95.7552 97.1484 96.0156C97.7786 96.276 98.263 96.6615 98.6016 97.1719C98.9401 97.6823 99.1094 98.3099 99.1094 99.0547C99.1094 99.6641 99.0052 100.188 98.7969 100.625C98.5938 101.057 98.3047 101.419 97.9297 101.711C97.5599 101.997 97.125 102.227 96.625 102.398L95.8828 102.789H92.1953L92.1797 100.961H94.9219C95.3333 100.961 95.6745 100.888 95.9453 100.742C96.2161 100.596 96.4193 100.393 96.5547 100.133C96.6953 99.8724 96.7656 99.5703 96.7656 99.2266C96.7656 98.862 96.6979 98.5469 96.5625 98.2812C96.4271 98.0156 96.2214 97.8125 95.9453 97.6719C95.6693 97.5312 95.3229 97.4609 94.9062 97.4609H93.0078V107H90.6641V95.625ZM97.0234 107L94.4297 101.93L96.9062 101.914L99.5312 106.891V107H97.0234ZM100.414 102.859V102.695C100.414 102.076 100.503 101.505 100.68 100.984C100.857 100.458 101.115 100.003 101.453 99.6172C101.792 99.2318 102.208 98.9323 102.703 98.7188C103.198 98.5 103.766 98.3906 104.406 98.3906C105.047 98.3906 105.617 98.5 106.117 98.7188C106.617 98.9323 107.036 99.2318 107.375 99.6172C107.719 100.003 107.979 100.458 108.156 100.984C108.333 101.505 108.422 102.076 108.422 102.695V102.859C108.422 103.474 108.333 104.044 108.156 104.57C107.979 105.091 107.719 105.547 107.375 105.938C107.036 106.323 106.62 106.622 106.125 106.836C105.63 107.049 105.062 107.156 104.422 107.156C103.781 107.156 103.211 107.049 102.711 106.836C102.216 106.622 101.797 106.323 101.453 105.938C101.115 105.547 100.857 105.091 100.68 104.57C100.503 104.044 100.414 103.474 100.414 102.859ZM102.664 102.695V102.859C102.664 103.214 102.695 103.544 102.758 103.852C102.82 104.159 102.919 104.43 103.055 104.664C103.195 104.893 103.378 105.073 103.602 105.203C103.826 105.333 104.099 105.398 104.422 105.398C104.734 105.398 105.003 105.333 105.227 105.203C105.451 105.073 105.63 104.893 105.766 104.664C105.901 104.43 106 104.159 106.062 103.852C106.13 103.544 106.164 103.214 106.164 102.859V102.695C106.164 102.352 106.13 102.029 106.062 101.727C106 101.419 105.898 101.148 105.758 100.914C105.622 100.674 105.443 100.487 105.219 100.352C104.995 100.216 104.724 100.148 104.406 100.148C104.089 100.148 103.818 100.216 103.594 100.352C103.375 100.487 103.195 100.674 103.055 100.914C102.919 101.148 102.82 101.419 102.758 101.727C102.695 102.029 102.664 102.352 102.664 102.695ZM114.375 104.664C114.375 104.503 114.328 104.357 114.234 104.227C114.141 104.096 113.966 103.977 113.711 103.867C113.461 103.753 113.099 103.648 112.625 103.555C112.198 103.461 111.799 103.344 111.43 103.203C111.065 103.057 110.747 102.883 110.477 102.68C110.211 102.477 110.003 102.237 109.852 101.961C109.701 101.68 109.625 101.359 109.625 101C109.625 100.646 109.701 100.312 109.852 100C110.008 99.6875 110.229 99.4115 110.516 99.1719C110.807 98.9271 111.161 98.737 111.578 98.6016C112 98.4609 112.474 98.3906 113 98.3906C113.734 98.3906 114.365 98.5078 114.891 98.7422C115.422 98.9766 115.828 99.2995 116.109 99.7109C116.396 100.117 116.539 100.581 116.539 101.102H114.289C114.289 100.883 114.242 100.688 114.148 100.516C114.06 100.339 113.919 100.201 113.727 100.102C113.539 99.9974 113.294 99.9453 112.992 99.9453C112.742 99.9453 112.526 99.9896 112.344 100.078C112.161 100.161 112.021 100.276 111.922 100.422C111.828 100.562 111.781 100.719 111.781 100.891C111.781 101.021 111.807 101.138 111.859 101.242C111.917 101.341 112.008 101.432 112.133 101.516C112.258 101.599 112.419 101.677 112.617 101.75C112.82 101.818 113.07 101.88 113.367 101.938C113.977 102.062 114.521 102.227 115 102.43C115.479 102.628 115.859 102.898 116.141 103.242C116.422 103.581 116.562 104.026 116.562 104.578C116.562 104.953 116.479 105.297 116.312 105.609C116.146 105.922 115.906 106.195 115.594 106.43C115.281 106.659 114.906 106.839 114.469 106.969C114.036 107.094 113.549 107.156 113.008 107.156C112.221 107.156 111.555 107.016 111.008 106.734C110.466 106.453 110.055 106.096 109.773 105.664C109.497 105.227 109.359 104.779 109.359 104.32H111.492C111.503 104.628 111.581 104.875 111.727 105.062C111.878 105.25 112.068 105.385 112.297 105.469C112.531 105.552 112.784 105.594 113.055 105.594C113.346 105.594 113.589 105.555 113.781 105.477C113.974 105.393 114.12 105.284 114.219 105.148C114.323 105.008 114.375 104.846 114.375 104.664ZM122.586 105.094V101.328C122.586 101.057 122.542 100.826 122.453 100.633C122.365 100.435 122.227 100.281 122.039 100.172C121.857 100.062 121.62 100.008 121.328 100.008C121.078 100.008 120.862 100.052 120.68 100.141C120.497 100.224 120.357 100.346 120.258 100.508C120.159 100.664 120.109 100.849 120.109 101.062H117.859C117.859 100.703 117.943 100.362 118.109 100.039C118.276 99.7161 118.518 99.4323 118.836 99.1875C119.154 98.9375 119.531 98.7422 119.969 98.6016C120.411 98.4609 120.906 98.3906 121.453 98.3906C122.109 98.3906 122.693 98.5 123.203 98.7188C123.714 98.9375 124.115 99.2656 124.406 99.7031C124.703 100.141 124.852 100.688 124.852 101.344V104.961C124.852 105.424 124.88 105.805 124.938 106.102C124.995 106.393 125.078 106.648 125.188 106.867V107H122.914C122.805 106.771 122.721 106.484 122.664 106.141C122.612 105.792 122.586 105.443 122.586 105.094ZM122.883 101.852L122.898 103.125H121.641C121.344 103.125 121.086 103.159 120.867 103.227C120.648 103.294 120.469 103.391 120.328 103.516C120.188 103.635 120.083 103.776 120.016 103.938C119.953 104.099 119.922 104.276 119.922 104.469C119.922 104.661 119.966 104.836 120.055 104.992C120.143 105.143 120.271 105.263 120.438 105.352C120.604 105.435 120.799 105.477 121.023 105.477C121.362 105.477 121.656 105.409 121.906 105.273C122.156 105.138 122.349 104.971 122.484 104.773C122.625 104.576 122.698 104.388 122.703 104.211L123.297 105.164C123.214 105.378 123.099 105.599 122.953 105.828C122.812 106.057 122.633 106.273 122.414 106.477C122.195 106.674 121.932 106.839 121.625 106.969C121.318 107.094 120.953 107.156 120.531 107.156C119.995 107.156 119.508 107.049 119.07 106.836C118.638 106.617 118.294 106.318 118.039 105.938C117.789 105.552 117.664 105.115 117.664 104.625C117.664 104.182 117.747 103.789 117.914 103.445C118.081 103.102 118.326 102.812 118.648 102.578C118.977 102.339 119.385 102.159 119.875 102.039C120.365 101.914 120.932 101.852 121.578 101.852H122.883Z" fill="white"/>
<path d="M61.2039 72C59.7732 72 58.5488 71.4854 57.5306 70.4563C56.5102 69.4293 56 68.1943 56 66.7513V41.8502C56 40.7842 56.2771 39.807 56.8313 38.9187C57.3834 38.0304 58.1535 37.3782 59.1417 36.9622L68.4668 33.0135C69.3346 32.6625 70.1595 32.7275 70.9414 33.2085C71.7212 33.6917 72.1111 34.4143 72.1111 35.3762V37.8137L84.6584 32.7243C85.5263 32.3754 86.3372 32.4643 87.0912 32.9908C87.8452 33.5194 88.2222 34.2453 88.2222 35.1682V39.5004H114V66.7513C114 68.1943 113.49 69.4293 112.469 70.4563C111.451 71.4854 110.227 72 108.796 72H61.2039ZM82.5221 60.7487H87.4779V50.7518H82.5221V60.7487ZM69.6332 60.7487H74.589V50.7518H69.6332V60.7487ZM95.411 60.7487H100.367V50.7518H95.411V60.7487ZM113.604 36.6242H104.34L106.985 17.5957C107.05 17.1147 107.26 16.7291 107.617 16.4387C107.971 16.1462 108.38 16 108.844 16H109.756C110.147 16 110.487 16.1343 110.775 16.403C111.062 16.6717 111.233 17.0064 111.287 17.4072L113.604 36.6242Z" fill="white"/>
</svg>
