<svg width="169" height="130" viewBox="0 0 169 130" fill="none" xmlns="http://www.w3.org/2000/svg">
<rect x="0.25" y="0.25" width="168.5" height="129.5" rx="9.75" fill="white" stroke="#2A6D4C" stroke-width="0.5"/>
<path d="M62.6641 88.1719V90H56.9375V88.1719H62.6641ZM57.6953 78.625V90H55.3516V78.625H57.6953ZM63.5078 85.8594V85.6953C63.5078 85.0755 63.5964 84.5052 63.7734 83.9844C63.9505 83.4583 64.2083 83.0026 64.5469 82.6172C64.8854 82.2318 65.3021 81.9323 65.7969 81.7188C66.2917 81.5 66.8594 81.3906 67.5 81.3906C68.1406 81.3906 68.7109 81.5 69.2109 81.7188C69.7109 81.9323 70.1302 82.2318 70.4688 82.6172C70.8125 83.0026 71.0729 83.4583 71.25 83.9844C71.4271 84.5052 71.5156 85.0755 71.5156 85.6953V85.8594C71.5156 86.474 71.4271 87.0443 71.25 87.5703C71.0729 88.0911 70.8125 88.5469 70.4688 88.9375C70.1302 89.3229 69.7135 89.6224 69.2188 89.8359C68.724 90.0495 68.1562 90.1562 67.5156 90.1562C66.875 90.1562 66.3047 90.0495 65.8047 89.8359C65.3099 89.6224 64.8906 89.3229 64.5469 88.9375C64.2083 88.5469 63.9505 88.0911 63.7734 87.5703C63.5964 87.0443 63.5078 86.474 63.5078 85.8594ZM65.7578 85.6953V85.8594C65.7578 86.2135 65.7891 86.5443 65.8516 86.8516C65.9141 87.1589 66.013 87.4297 66.1484 87.6641C66.2891 87.8932 66.4714 88.0729 66.6953 88.2031C66.9193 88.3333 67.1927 88.3984 67.5156 88.3984C67.8281 88.3984 68.0964 88.3333 68.3203 88.2031C68.5443 88.0729 68.724 87.8932 68.8594 87.6641C68.9948 87.4297 69.0938 87.1589 69.1562 86.8516C69.224 86.5443 69.2578 86.2135 69.2578 85.8594V85.6953C69.2578 85.3516 69.224 85.0286 69.1562 84.7266C69.0938 84.4193 68.9922 84.1484 68.8516 83.9141C68.7161 83.6745 68.5365 83.487 68.3125 83.3516C68.0885 83.2161 67.8177 83.1484 67.5 83.1484C67.1823 83.1484 66.9115 83.2161 66.6875 83.3516C66.4688 83.487 66.2891 83.6745 66.1484 83.9141C66.013 84.1484 65.9141 84.4193 65.8516 84.7266C65.7891 85.0286 65.7578 85.3516 65.7578 85.6953ZM72.8984 78H75.1484V88.0625L74.9219 90H72.8984V78ZM80.5 85.6875V85.8516C80.5 86.4818 80.4323 87.0599 80.2969 87.5859C80.1667 88.112 79.9635 88.5677 79.6875 88.9531C79.4115 89.3333 79.0677 89.6302 78.6562 89.8438C78.25 90.0521 77.7708 90.1562 77.2188 90.1562C76.7031 90.1562 76.2552 90.0521 75.875 89.8438C75.5 89.6354 75.1849 89.3411 74.9297 88.9609C74.6745 88.5807 74.4688 88.1354 74.3125 87.625C74.1562 87.1146 74.0391 86.5573 73.9609 85.9531V85.5938C74.0391 84.9896 74.1562 84.4323 74.3125 83.9219C74.4688 83.4115 74.6745 82.9661 74.9297 82.5859C75.1849 82.2057 75.5 81.9115 75.875 81.7031C76.25 81.4948 76.6927 81.3906 77.2031 81.3906C77.7604 81.3906 78.2448 81.4974 78.6562 81.7109C79.0729 81.9193 79.4167 82.2161 79.6875 82.6016C79.9635 82.9818 80.1667 83.4349 80.2969 83.9609C80.4323 84.4818 80.5 85.0573 80.5 85.6875ZM78.25 85.8516V85.6875C78.25 85.3438 78.224 85.0208 78.1719 84.7188C78.125 84.4115 78.0417 84.1432 77.9219 83.9141C77.8021 83.6797 77.638 83.4948 77.4297 83.3594C77.2266 83.224 76.9635 83.1562 76.6406 83.1562C76.3333 83.1562 76.0729 83.2083 75.8594 83.3125C75.6458 83.4167 75.4688 83.5625 75.3281 83.75C75.1927 83.9375 75.0911 84.1615 75.0234 84.4219C74.9557 84.6771 74.9141 84.9583 74.8984 85.2656V86.2891C74.9141 86.7005 74.9818 87.0651 75.1016 87.3828C75.2266 87.6953 75.4141 87.9427 75.6641 88.125C75.9193 88.3021 76.25 88.3906 76.6562 88.3906C76.974 88.3906 77.237 88.3281 77.4453 88.2031C77.6536 88.0781 77.8151 87.901 77.9297 87.6719C78.0495 87.4427 78.1328 87.1745 78.1797 86.8672C78.2266 86.5547 78.25 86.2161 78.25 85.8516ZM85.7891 90.1562C85.1328 90.1562 84.5443 90.0521 84.0234 89.8438C83.5026 89.6302 83.0599 89.3359 82.6953 88.9609C82.3359 88.5859 82.0599 88.151 81.8672 87.6562C81.6745 87.1562 81.5781 86.625 81.5781 86.0625V85.75C81.5781 85.1094 81.6693 84.5234 81.8516 83.9922C82.0339 83.4609 82.2943 83 82.6328 82.6094C82.9766 82.2188 83.3932 81.9193 83.8828 81.7109C84.3724 81.4974 84.9245 81.3906 85.5391 81.3906C86.138 81.3906 86.6693 81.4896 87.1328 81.6875C87.5964 81.8854 87.9844 82.1667 88.2969 82.5312C88.6146 82.8958 88.8542 83.3333 89.0156 83.8438C89.1771 84.349 89.2578 84.9115 89.2578 85.5312V86.4688H82.5391V84.9688H87.0469V84.7969C87.0469 84.4844 86.9896 84.2057 86.875 83.9609C86.7656 83.7109 86.599 83.513 86.375 83.3672C86.151 83.2214 85.8646 83.1484 85.5156 83.1484C85.2188 83.1484 84.9635 83.2135 84.75 83.3438C84.5365 83.474 84.362 83.6562 84.2266 83.8906C84.0964 84.125 83.9974 84.401 83.9297 84.7188C83.8672 85.0312 83.8359 85.375 83.8359 85.75V86.0625C83.8359 86.401 83.8828 86.7135 83.9766 87C84.0755 87.2865 84.2135 87.5339 84.3906 87.7422C84.5729 87.9505 84.7917 88.112 85.0469 88.2266C85.3073 88.3411 85.6016 88.3984 85.9297 88.3984C86.3359 88.3984 86.7135 88.3203 87.0625 88.1641C87.4167 88.0026 87.7214 87.7604 87.9766 87.4375L89.0703 88.625C88.8932 88.8802 88.651 89.125 88.3438 89.3594C88.0417 89.5938 87.6771 89.7865 87.25 89.9375C86.8229 90.0833 86.3359 90.1562 85.7891 90.1562ZM95.1094 87.6641C95.1094 87.5026 95.0625 87.3568 94.9688 87.2266C94.875 87.0964 94.7005 86.9766 94.4453 86.8672C94.1953 86.7526 93.8333 86.6484 93.3594 86.5547C92.9323 86.4609 92.5339 86.3438 92.1641 86.2031C91.7995 86.0573 91.4818 85.8828 91.2109 85.6797C90.9453 85.4766 90.737 85.237 90.5859 84.9609C90.4349 84.6797 90.3594 84.3594 90.3594 84C90.3594 83.6458 90.4349 83.3125 90.5859 83C90.7422 82.6875 90.9635 82.4115 91.25 82.1719C91.5417 81.9271 91.8958 81.737 92.3125 81.6016C92.7344 81.4609 93.2083 81.3906 93.7344 81.3906C94.4688 81.3906 95.099 81.5078 95.625 81.7422C96.1562 81.9766 96.5625 82.2995 96.8438 82.7109C97.1302 83.1172 97.2734 83.5807 97.2734 84.1016H95.0234C95.0234 83.8828 94.9766 83.6875 94.8828 83.5156C94.7943 83.3385 94.6536 83.2005 94.4609 83.1016C94.2734 82.9974 94.0286 82.9453 93.7266 82.9453C93.4766 82.9453 93.2604 82.9896 93.0781 83.0781C92.8958 83.1615 92.7552 83.276 92.6562 83.4219C92.5625 83.5625 92.5156 83.7188 92.5156 83.8906C92.5156 84.0208 92.5417 84.138 92.5938 84.2422C92.651 84.3411 92.7422 84.4323 92.8672 84.5156C92.9922 84.599 93.1536 84.6771 93.3516 84.75C93.5547 84.8177 93.8047 84.8802 94.1016 84.9375C94.7109 85.0625 95.2552 85.2266 95.7344 85.4297C96.2135 85.6276 96.5938 85.8984 96.875 86.2422C97.1562 86.5807 97.2969 87.026 97.2969 87.5781C97.2969 87.9531 97.2135 88.2969 97.0469 88.6094C96.8802 88.9219 96.6406 89.1953 96.3281 89.4297C96.0156 89.6589 95.6406 89.8385 95.2031 89.9688C94.7708 90.0938 94.2839 90.1562 93.7422 90.1562C92.9557 90.1562 92.2891 90.0156 91.7422 89.7344C91.2005 89.4531 90.7891 89.0964 90.5078 88.6641C90.2318 88.2266 90.0938 87.7786 90.0938 87.3203H92.2266C92.237 87.6276 92.3151 87.875 92.4609 88.0625C92.612 88.25 92.8021 88.3854 93.0312 88.4688C93.2656 88.5521 93.5182 88.5938 93.7891 88.5938C94.0807 88.5938 94.3229 88.5547 94.5156 88.4766C94.7083 88.3932 94.8542 88.2839 94.9531 88.1484C95.0573 88.0078 95.1094 87.8464 95.1094 87.6641ZM101.133 81.5469V90H98.875V81.5469H101.133ZM98.7344 79.3438C98.7344 79.0156 98.849 78.7448 99.0781 78.5312C99.3073 78.3177 99.6146 78.2109 100 78.2109C100.38 78.2109 100.685 78.3177 100.914 78.5312C101.148 78.7448 101.266 79.0156 101.266 79.3438C101.266 79.6719 101.148 79.9427 100.914 80.1562C100.685 80.3698 100.38 80.4766 100 80.4766C99.6146 80.4766 99.3073 80.3698 99.0781 80.1562C98.849 79.9427 98.7344 79.6719 98.7344 79.3438ZM107.555 88.0938V84.3281C107.555 84.0573 107.51 83.8255 107.422 83.6328C107.333 83.4349 107.195 83.2812 107.008 83.1719C106.826 83.0625 106.589 83.0078 106.297 83.0078C106.047 83.0078 105.831 83.0521 105.648 83.1406C105.466 83.224 105.326 83.3464 105.227 83.5078C105.128 83.6641 105.078 83.849 105.078 84.0625H102.828C102.828 83.7031 102.911 83.362 103.078 83.0391C103.245 82.7161 103.487 82.4323 103.805 82.1875C104.122 81.9375 104.5 81.7422 104.938 81.6016C105.38 81.4609 105.875 81.3906 106.422 81.3906C107.078 81.3906 107.661 81.5 108.172 81.7188C108.682 81.9375 109.083 82.2656 109.375 82.7031C109.672 83.1406 109.82 83.6875 109.82 84.3438V87.9609C109.82 88.4245 109.849 88.8047 109.906 89.1016C109.964 89.3932 110.047 89.6484 110.156 89.8672V90H107.883C107.773 89.7708 107.69 89.4844 107.633 89.1406C107.581 88.7917 107.555 88.4427 107.555 88.0938ZM107.852 84.8516L107.867 86.125H106.609C106.312 86.125 106.055 86.1589 105.836 86.2266C105.617 86.2943 105.438 86.3906 105.297 86.5156C105.156 86.6354 105.052 86.776 104.984 86.9375C104.922 87.099 104.891 87.276 104.891 87.4688C104.891 87.6615 104.935 87.8359 105.023 87.9922C105.112 88.1432 105.24 88.263 105.406 88.3516C105.573 88.4349 105.768 88.4766 105.992 88.4766C106.331 88.4766 106.625 88.4089 106.875 88.2734C107.125 88.138 107.318 87.9714 107.453 87.7734C107.594 87.5755 107.667 87.388 107.672 87.2109L108.266 88.1641C108.182 88.3776 108.068 88.599 107.922 88.8281C107.781 89.0573 107.602 89.2734 107.383 89.4766C107.164 89.6745 106.901 89.8385 106.594 89.9688C106.286 90.0938 105.922 90.1562 105.5 90.1562C104.964 90.1562 104.477 90.0495 104.039 89.8359C103.607 89.6172 103.263 89.3177 103.008 88.9375C102.758 88.5521 102.633 88.1146 102.633 87.625C102.633 87.1823 102.716 86.7891 102.883 86.4453C103.049 86.1016 103.294 85.8125 103.617 85.5781C103.945 85.3385 104.354 85.1589 104.844 85.0391C105.333 84.9141 105.901 84.8516 106.547 84.8516H107.852ZM57.8047 97H60.0547V107.062L59.8281 109H57.8047V97ZM65.4062 104.688V104.852C65.4062 105.482 65.3385 106.06 65.2031 106.586C65.0729 107.112 64.8698 107.568 64.5938 107.953C64.3177 108.333 63.974 108.63 63.5625 108.844C63.1562 109.052 62.6771 109.156 62.125 109.156C61.6094 109.156 61.1615 109.052 60.7812 108.844C60.4062 108.635 60.0911 108.341 59.8359 107.961C59.5807 107.581 59.375 107.135 59.2188 106.625C59.0625 106.115 58.9453 105.557 58.8672 104.953V104.594C58.9453 103.99 59.0625 103.432 59.2188 102.922C59.375 102.411 59.5807 101.966 59.8359 101.586C60.0911 101.206 60.4062 100.911 60.7812 100.703C61.1562 100.495 61.599 100.391 62.1094 100.391C62.6667 100.391 63.151 100.497 63.5625 100.711C63.9792 100.919 64.3229 101.216 64.5938 101.602C64.8698 101.982 65.0729 102.435 65.2031 102.961C65.3385 103.482 65.4062 104.057 65.4062 104.688ZM63.1562 104.852V104.688C63.1562 104.344 63.1302 104.021 63.0781 103.719C63.0312 103.411 62.9479 103.143 62.8281 102.914C62.7083 102.68 62.5443 102.495 62.3359 102.359C62.1328 102.224 61.8698 102.156 61.5469 102.156C61.2396 102.156 60.9792 102.208 60.7656 102.312C60.5521 102.417 60.375 102.562 60.2344 102.75C60.099 102.938 59.9974 103.161 59.9297 103.422C59.862 103.677 59.8203 103.958 59.8047 104.266V105.289C59.8203 105.701 59.888 106.065 60.0078 106.383C60.1328 106.695 60.3203 106.943 60.5703 107.125C60.8255 107.302 61.1562 107.391 61.5625 107.391C61.8802 107.391 62.1432 107.328 62.3516 107.203C62.5599 107.078 62.7214 106.901 62.8359 106.672C62.9557 106.443 63.0391 106.174 63.0859 105.867C63.1328 105.555 63.1562 105.216 63.1562 104.852ZM66.4453 104.859V104.695C66.4453 104.076 66.5339 103.505 66.7109 102.984C66.888 102.458 67.1458 102.003 67.4844 101.617C67.8229 101.232 68.2396 100.932 68.7344 100.719C69.2292 100.5 69.7969 100.391 70.4375 100.391C71.0781 100.391 71.6484 100.5 72.1484 100.719C72.6484 100.932 73.0677 101.232 73.4062 101.617C73.75 102.003 74.0104 102.458 74.1875 102.984C74.3646 103.505 74.4531 104.076 74.4531 104.695V104.859C74.4531 105.474 74.3646 106.044 74.1875 106.57C74.0104 107.091 73.75 107.547 73.4062 107.938C73.0677 108.323 72.651 108.622 72.1562 108.836C71.6615 109.049 71.0938 109.156 70.4531 109.156C69.8125 109.156 69.2422 109.049 68.7422 108.836C68.2474 108.622 67.8281 108.323 67.4844 107.938C67.1458 107.547 66.888 107.091 66.7109 106.57C66.5339 106.044 66.4453 105.474 66.4453 104.859ZM68.6953 104.695V104.859C68.6953 105.214 68.7266 105.544 68.7891 105.852C68.8516 106.159 68.9505 106.43 69.0859 106.664C69.2266 106.893 69.4089 107.073 69.6328 107.203C69.8568 107.333 70.1302 107.398 70.4531 107.398C70.7656 107.398 71.0339 107.333 71.2578 107.203C71.4818 107.073 71.6615 106.893 71.7969 106.664C71.9323 106.43 72.0312 106.159 72.0938 105.852C72.1615 105.544 72.1953 105.214 72.1953 104.859V104.695C72.1953 104.352 72.1615 104.029 72.0938 103.727C72.0312 103.419 71.9297 103.148 71.7891 102.914C71.6536 102.674 71.474 102.487 71.25 102.352C71.026 102.216 70.7552 102.148 70.4375 102.148C70.1198 102.148 69.849 102.216 69.625 102.352C69.4062 102.487 69.2266 102.674 69.0859 102.914C68.9505 103.148 68.8516 103.419 68.7891 103.727C68.7266 104.029 68.6953 104.352 68.6953 104.695ZM79.9766 100.547V102.141H75.0547V100.547H79.9766ZM76.2734 98.4609H78.5234V106.453C78.5234 106.698 78.5547 106.885 78.6172 107.016C78.6849 107.146 78.7839 107.237 78.9141 107.289C79.0443 107.336 79.2083 107.359 79.4062 107.359C79.5469 107.359 79.6719 107.354 79.7812 107.344C79.8958 107.328 79.9922 107.312 80.0703 107.297L80.0781 108.953C79.8854 109.016 79.6771 109.065 79.4531 109.102C79.2292 109.138 78.9818 109.156 78.7109 109.156C78.2161 109.156 77.7839 109.076 77.4141 108.914C77.0495 108.747 76.7682 108.482 76.5703 108.117C76.3724 107.753 76.2734 107.273 76.2734 106.68V98.4609ZM83.5078 102.391V109H81.2578V100.547H83.375L83.5078 102.391ZM86.0547 100.492L86.0156 102.578C85.9062 102.562 85.7734 102.549 85.6172 102.539C85.4661 102.523 85.3281 102.516 85.2031 102.516C84.8854 102.516 84.6094 102.557 84.375 102.641C84.1458 102.719 83.9531 102.836 83.7969 102.992C83.6458 103.148 83.5312 103.339 83.4531 103.562C83.3802 103.786 83.3385 104.042 83.3281 104.328L82.875 104.188C82.875 103.641 82.9297 103.138 83.0391 102.68C83.1484 102.216 83.3073 101.812 83.5156 101.469C83.7292 101.125 83.9896 100.859 84.2969 100.672C84.6042 100.484 84.9557 100.391 85.3516 100.391C85.4766 100.391 85.6042 100.401 85.7344 100.422C85.8646 100.438 85.9714 100.461 86.0547 100.492ZM91.4141 107.094V103.328C91.4141 103.057 91.3698 102.826 91.2812 102.633C91.1927 102.435 91.0547 102.281 90.8672 102.172C90.6849 102.062 90.4479 102.008 90.1562 102.008C89.9062 102.008 89.6901 102.052 89.5078 102.141C89.3255 102.224 89.1849 102.346 89.0859 102.508C88.987 102.664 88.9375 102.849 88.9375 103.062H86.6875C86.6875 102.703 86.7708 102.362 86.9375 102.039C87.1042 101.716 87.3464 101.432 87.6641 101.188C87.9818 100.938 88.3594 100.742 88.7969 100.602C89.2396 100.461 89.7344 100.391 90.2812 100.391C90.9375 100.391 91.5208 100.5 92.0312 100.719C92.5417 100.938 92.9427 101.266 93.2344 101.703C93.5312 102.141 93.6797 102.688 93.6797 103.344V106.961C93.6797 107.424 93.7083 107.805 93.7656 108.102C93.8229 108.393 93.9062 108.648 94.0156 108.867V109H91.7422C91.6328 108.771 91.5495 108.484 91.4922 108.141C91.4401 107.792 91.4141 107.443 91.4141 107.094ZM91.7109 103.852L91.7266 105.125H90.4688C90.1719 105.125 89.9141 105.159 89.6953 105.227C89.4766 105.294 89.2969 105.391 89.1562 105.516C89.0156 105.635 88.9115 105.776 88.8438 105.938C88.7812 106.099 88.75 106.276 88.75 106.469C88.75 106.661 88.7943 106.836 88.8828 106.992C88.9714 107.143 89.099 107.263 89.2656 107.352C89.4323 107.435 89.6276 107.477 89.8516 107.477C90.1901 107.477 90.4844 107.409 90.7344 107.273C90.9844 107.138 91.1771 106.971 91.3125 106.773C91.4531 106.576 91.526 106.388 91.5312 106.211L92.125 107.164C92.0417 107.378 91.9271 107.599 91.7812 107.828C91.6406 108.057 91.4609 108.273 91.2422 108.477C91.0234 108.674 90.7604 108.839 90.4531 108.969C90.1458 109.094 89.7812 109.156 89.3594 109.156C88.8229 109.156 88.3359 109.049 87.8984 108.836C87.4661 108.617 87.1224 108.318 86.8672 107.938C86.6172 107.552 86.4922 107.115 86.4922 106.625C86.4922 106.182 86.5755 105.789 86.7422 105.445C86.9089 105.102 87.1536 104.812 87.4766 104.578C87.8047 104.339 88.2135 104.159 88.7031 104.039C89.1927 103.914 89.7604 103.852 90.4062 103.852H91.7109ZM97.6172 102.352V109H95.3672V100.547H97.4766L97.6172 102.352ZM97.2891 104.477H96.6797C96.6797 103.852 96.7604 103.289 96.9219 102.789C97.0833 102.284 97.3099 101.854 97.6016 101.5C97.8932 101.141 98.2396 100.867 98.6406 100.68C99.0469 100.487 99.5 100.391 100 100.391C100.396 100.391 100.758 100.448 101.086 100.562C101.414 100.677 101.695 100.859 101.93 101.109C102.169 101.359 102.352 101.69 102.477 102.102C102.607 102.513 102.672 103.016 102.672 103.609V109H100.406V103.602C100.406 103.227 100.354 102.935 100.25 102.727C100.146 102.518 99.9922 102.372 99.7891 102.289C99.5911 102.201 99.3464 102.156 99.0547 102.156C98.7526 102.156 98.4896 102.216 98.2656 102.336C98.0469 102.456 97.8646 102.622 97.7188 102.836C97.5781 103.044 97.4714 103.289 97.3984 103.57C97.3255 103.852 97.2891 104.154 97.2891 104.477ZM108.945 107.094V103.328C108.945 103.057 108.901 102.826 108.812 102.633C108.724 102.435 108.586 102.281 108.398 102.172C108.216 102.062 107.979 102.008 107.688 102.008C107.438 102.008 107.221 102.052 107.039 102.141C106.857 102.224 106.716 102.346 106.617 102.508C106.518 102.664 106.469 102.849 106.469 103.062H104.219C104.219 102.703 104.302 102.362 104.469 102.039C104.635 101.716 104.878 101.432 105.195 101.188C105.513 100.938 105.891 100.742 106.328 100.602C106.771 100.461 107.266 100.391 107.812 100.391C108.469 100.391 109.052 100.5 109.562 100.719C110.073 100.938 110.474 101.266 110.766 101.703C111.062 102.141 111.211 102.688 111.211 103.344V106.961C111.211 107.424 111.24 107.805 111.297 108.102C111.354 108.393 111.438 108.648 111.547 108.867V109H109.273C109.164 108.771 109.081 108.484 109.023 108.141C108.971 107.792 108.945 107.443 108.945 107.094ZM109.242 103.852L109.258 105.125H108C107.703 105.125 107.445 105.159 107.227 105.227C107.008 105.294 106.828 105.391 106.688 105.516C106.547 105.635 106.443 105.776 106.375 105.938C106.312 106.099 106.281 106.276 106.281 106.469C106.281 106.661 106.326 106.836 106.414 106.992C106.503 107.143 106.63 107.263 106.797 107.352C106.964 107.435 107.159 107.477 107.383 107.477C107.721 107.477 108.016 107.409 108.266 107.273C108.516 107.138 108.708 106.971 108.844 106.773C108.984 106.576 109.057 106.388 109.062 106.211L109.656 107.164C109.573 107.378 109.458 107.599 109.312 107.828C109.172 108.057 108.992 108.273 108.773 108.477C108.555 108.674 108.292 108.839 107.984 108.969C107.677 109.094 107.312 109.156 106.891 109.156C106.354 109.156 105.867 109.049 105.43 108.836C104.997 108.617 104.654 108.318 104.398 107.938C104.148 107.552 104.023 107.115 104.023 106.625C104.023 106.182 104.107 105.789 104.273 105.445C104.44 105.102 104.685 104.812 105.008 104.578C105.336 104.339 105.745 104.159 106.234 104.039C106.724 103.914 107.292 103.852 107.938 103.852H109.242Z" fill="#222121"/>
<path d="M89.8751 46.7835C88.6366 49.7486 85.1974 51.1613 82.2323 49.9228C79.2672 48.6844 77.8546 45.2451 79.093 42.2801C80.3315 39.315 83.7707 37.9023 86.7358 39.1408C89.7009 40.3792 91.1135 43.8185 89.8751 46.7835ZM73.2582 33.5114C70.2931 32.2729 66.8539 33.6856 65.6154 36.6507C64.377 39.6158 65.7896 43.055 68.7547 44.2935C71.7198 45.5319 75.159 44.1193 76.3975 41.1542C77.636 38.1891 76.2233 34.7499 73.2582 33.5114ZM100.213 44.7701C97.2483 43.5317 93.8091 44.9443 92.5706 47.9094C91.3321 50.8745 92.7448 54.3137 95.7099 55.5522C98.675 56.7906 102.114 55.378 103.353 52.4129C104.591 49.4478 103.178 46.0086 100.213 44.7701ZM97.9781 31.1734C95.013 29.9349 91.5737 31.3476 90.3353 34.3127C89.0968 37.2777 90.5095 40.717 93.4746 41.9554C96.4397 43.1939 99.8789 41.7812 101.117 38.8161C102.356 35.8511 100.943 32.4118 97.9781 31.1734ZM84.5005 25.544C81.5354 24.3056 78.0962 25.7182 76.8577 28.6833C75.6192 31.6484 77.0319 35.0876 79.997 36.3261C82.9621 37.5645 86.4013 36.1519 87.6398 33.1868C88.8782 30.2217 87.4655 26.7825 84.5005 25.544ZM88.9711 52.7375C86.006 51.4991 82.5668 52.9117 81.3283 55.8768C80.0899 58.8419 81.5025 62.2811 84.4676 63.5196C87.4327 64.758 90.8719 63.3454 92.1104 60.3803C93.3489 57.4152 91.9362 53.976 88.9711 52.7375ZM75.4935 47.1082C72.5284 45.8697 69.0892 47.2824 67.8507 50.2475C66.6123 53.2125 68.025 56.6518 70.99 57.8902C73.9551 59.1287 77.3943 57.716 78.6328 54.7509C79.8713 51.7859 78.4586 48.3466 75.4935 47.1082ZM77.7288 60.7049C74.7637 59.4665 71.3245 60.8791 70.086 63.8442C68.8476 66.8093 70.2603 70.2485 73.2253 71.487C76.1904 72.7254 79.6297 71.3128 80.8681 68.3477C82.1066 65.3826 80.6939 61.9434 77.7288 60.7049ZM101.987 20.8178L101.181 16.6825C94.1254 16.9011 89.5332 26.3798 89.0829 27.458L93.1261 29.1468C94.2964 27.103 97.9197 20.7019 101.987 20.8178Z" fill="#2A6D4C"/>
</svg>
