<svg width="169" height="130" viewBox="0 0 169 130" fill="none" xmlns="http://www.w3.org/2000/svg">
<rect width="169" height="130" rx="10" fill="#2A6D4C"/>
<path d="M59.1172 86.2266H61.4531C61.4062 86.9922 61.1953 87.6719 60.8203 88.2656C60.4505 88.8594 59.9323 89.3229 59.2656 89.6562C58.6042 89.9896 57.8073 90.1562 56.875 90.1562C56.1458 90.1562 55.4922 90.0312 54.9141 89.7812C54.3359 89.526 53.8411 89.1615 53.4297 88.6875C53.0234 88.2135 52.7135 87.6406 52.5 86.9688C52.2865 86.2969 52.1797 85.5443 52.1797 84.7109V83.9219C52.1797 83.0885 52.2891 82.3359 52.5078 81.6641C52.7318 80.987 53.0495 80.4115 53.4609 79.9375C53.8776 79.4635 54.375 79.099 54.9531 78.8438C55.5312 78.5885 56.1771 78.4609 56.8906 78.4609C57.8385 78.4609 58.638 78.6328 59.2891 78.9766C59.9453 79.3203 60.4531 79.7943 60.8125 80.3984C61.1771 81.0026 61.3958 81.6901 61.4688 82.4609H59.125C59.099 82.0026 59.0078 81.6146 58.8516 81.2969C58.6953 80.974 58.4583 80.7318 58.1406 80.5703C57.8281 80.4036 57.4115 80.3203 56.8906 80.3203C56.5 80.3203 56.1589 80.3932 55.8672 80.5391C55.5755 80.6849 55.3307 80.9062 55.1328 81.2031C54.9349 81.5 54.7865 81.875 54.6875 82.3281C54.5938 82.776 54.5469 83.3021 54.5469 83.9062V84.7109C54.5469 85.2995 54.5911 85.8177 54.6797 86.2656C54.7682 86.7083 54.9036 87.0833 55.0859 87.3906C55.2734 87.6927 55.513 87.9219 55.8047 88.0781C56.1016 88.2292 56.4583 88.3047 56.875 88.3047C57.3646 88.3047 57.7682 88.2266 58.0859 88.0703C58.4036 87.9141 58.6458 87.6823 58.8125 87.375C58.9844 87.0677 59.0859 86.6849 59.1172 86.2266ZM67.4141 88.0938V84.3281C67.4141 84.0573 67.3698 83.8255 67.2812 83.6328C67.1927 83.4349 67.0547 83.2812 66.8672 83.1719C66.6849 83.0625 66.4479 83.0078 66.1562 83.0078C65.9062 83.0078 65.6901 83.0521 65.5078 83.1406C65.3255 83.224 65.1849 83.3464 65.0859 83.5078C64.987 83.6641 64.9375 83.849 64.9375 84.0625H62.6875C62.6875 83.7031 62.7708 83.362 62.9375 83.0391C63.1042 82.7161 63.3464 82.4323 63.6641 82.1875C63.9818 81.9375 64.3594 81.7422 64.7969 81.6016C65.2396 81.4609 65.7344 81.3906 66.2812 81.3906C66.9375 81.3906 67.5208 81.5 68.0312 81.7188C68.5417 81.9375 68.9427 82.2656 69.2344 82.7031C69.5312 83.1406 69.6797 83.6875 69.6797 84.3438V87.9609C69.6797 88.4245 69.7083 88.8047 69.7656 89.1016C69.8229 89.3932 69.9062 89.6484 70.0156 89.8672V90H67.7422C67.6328 89.7708 67.5495 89.4844 67.4922 89.1406C67.4401 88.7917 67.4141 88.4427 67.4141 88.0938ZM67.7109 84.8516L67.7266 86.125H66.4688C66.1719 86.125 65.9141 86.1589 65.6953 86.2266C65.4766 86.2943 65.2969 86.3906 65.1562 86.5156C65.0156 86.6354 64.9115 86.776 64.8438 86.9375C64.7812 87.099 64.75 87.276 64.75 87.4688C64.75 87.6615 64.7943 87.8359 64.8828 87.9922C64.9714 88.1432 65.099 88.263 65.2656 88.3516C65.4323 88.4349 65.6276 88.4766 65.8516 88.4766C66.1901 88.4766 66.4844 88.4089 66.7344 88.2734C66.9844 88.138 67.1771 87.9714 67.3125 87.7734C67.4531 87.5755 67.526 87.388 67.5312 87.2109L68.125 88.1641C68.0417 88.3776 67.9271 88.599 67.7812 88.8281C67.6406 89.0573 67.4609 89.2734 67.2422 89.4766C67.0234 89.6745 66.7604 89.8385 66.4531 89.9688C66.1458 90.0938 65.7812 90.1562 65.3594 90.1562C64.8229 90.1562 64.3359 90.0495 63.8984 89.8359C63.4661 89.6172 63.1224 89.3177 62.8672 88.9375C62.6172 88.5521 62.4922 88.1146 62.4922 87.625C62.4922 87.1823 62.5755 86.7891 62.7422 86.4453C62.9089 86.1016 63.1536 85.8125 63.4766 85.5781C63.8047 85.3385 64.2135 85.1589 64.7031 85.0391C65.1927 84.9141 65.7604 84.8516 66.4062 84.8516H67.7109ZM73.6172 83.3516V90H71.3672V81.5469H73.4766L73.6172 83.3516ZM73.2891 85.4766H72.6797C72.6797 84.8516 72.7604 84.2891 72.9219 83.7891C73.0833 83.2839 73.3099 82.8542 73.6016 82.5C73.8932 82.1406 74.2396 81.8672 74.6406 81.6797C75.0469 81.487 75.5 81.3906 76 81.3906C76.3958 81.3906 76.7578 81.4479 77.0859 81.5625C77.4141 81.6771 77.6953 81.8594 77.9297 82.1094C78.1693 82.3594 78.3516 82.6901 78.4766 83.1016C78.6068 83.513 78.6719 84.0156 78.6719 84.6094V90H76.4062V84.6016C76.4062 84.2266 76.3542 83.9349 76.25 83.7266C76.1458 83.5182 75.9922 83.3724 75.7891 83.2891C75.5911 83.2005 75.3464 83.1562 75.0547 83.1562C74.7526 83.1562 74.4896 83.2161 74.2656 83.3359C74.0469 83.4557 73.8646 83.6224 73.7188 83.8359C73.5781 84.0443 73.4714 84.2891 73.3984 84.5703C73.3255 84.8516 73.2891 85.1536 73.2891 85.4766ZM82.5859 83.3516V90H80.3359V81.5469H82.4453L82.5859 83.3516ZM82.2578 85.4766H81.6484C81.6484 84.8516 81.7292 84.2891 81.8906 83.7891C82.0521 83.2839 82.2786 82.8542 82.5703 82.5C82.862 82.1406 83.2083 81.8672 83.6094 81.6797C84.0156 81.487 84.4688 81.3906 84.9688 81.3906C85.3646 81.3906 85.7266 81.4479 86.0547 81.5625C86.3828 81.6771 86.6641 81.8594 86.8984 82.1094C87.138 82.3594 87.3203 82.6901 87.4453 83.1016C87.5755 83.513 87.6406 84.0156 87.6406 84.6094V90H85.375V84.6016C85.375 84.2266 85.3229 83.9349 85.2188 83.7266C85.1146 83.5182 84.9609 83.3724 84.7578 83.2891C84.5599 83.2005 84.3151 83.1562 84.0234 83.1562C83.7214 83.1562 83.4583 83.2161 83.2344 83.3359C83.0156 83.4557 82.8333 83.6224 82.6875 83.8359C82.5469 84.0443 82.4401 84.2891 82.3672 84.5703C82.2943 84.8516 82.2578 85.1536 82.2578 85.4766ZM93.9141 88.0938V84.3281C93.9141 84.0573 93.8698 83.8255 93.7812 83.6328C93.6927 83.4349 93.5547 83.2812 93.3672 83.1719C93.1849 83.0625 92.9479 83.0078 92.6562 83.0078C92.4062 83.0078 92.1901 83.0521 92.0078 83.1406C91.8255 83.224 91.6849 83.3464 91.5859 83.5078C91.487 83.6641 91.4375 83.849 91.4375 84.0625H89.1875C89.1875 83.7031 89.2708 83.362 89.4375 83.0391C89.6042 82.7161 89.8464 82.4323 90.1641 82.1875C90.4818 81.9375 90.8594 81.7422 91.2969 81.6016C91.7396 81.4609 92.2344 81.3906 92.7812 81.3906C93.4375 81.3906 94.0208 81.5 94.5312 81.7188C95.0417 81.9375 95.4427 82.2656 95.7344 82.7031C96.0312 83.1406 96.1797 83.6875 96.1797 84.3438V87.9609C96.1797 88.4245 96.2083 88.8047 96.2656 89.1016C96.3229 89.3932 96.4062 89.6484 96.5156 89.8672V90H94.2422C94.1328 89.7708 94.0495 89.4844 93.9922 89.1406C93.9401 88.7917 93.9141 88.4427 93.9141 88.0938ZM94.2109 84.8516L94.2266 86.125H92.9688C92.6719 86.125 92.4141 86.1589 92.1953 86.2266C91.9766 86.2943 91.7969 86.3906 91.6562 86.5156C91.5156 86.6354 91.4115 86.776 91.3438 86.9375C91.2812 87.099 91.25 87.276 91.25 87.4688C91.25 87.6615 91.2943 87.8359 91.3828 87.9922C91.4714 88.1432 91.599 88.263 91.7656 88.3516C91.9323 88.4349 92.1276 88.4766 92.3516 88.4766C92.6901 88.4766 92.9844 88.4089 93.2344 88.2734C93.4844 88.138 93.6771 87.9714 93.8125 87.7734C93.9531 87.5755 94.026 87.388 94.0312 87.2109L94.625 88.1641C94.5417 88.3776 94.4271 88.599 94.2812 88.8281C94.1406 89.0573 93.9609 89.2734 93.7422 89.4766C93.5234 89.6745 93.2604 89.8385 92.9531 89.9688C92.6458 90.0938 92.2812 90.1562 91.8594 90.1562C91.3229 90.1562 90.8359 90.0495 90.3984 89.8359C89.9661 89.6172 89.6224 89.3177 89.3672 88.9375C89.1172 88.5521 88.9922 88.1146 88.9922 87.625C88.9922 87.1823 89.0755 86.7891 89.2422 86.4453C89.4089 86.1016 89.6536 85.8125 89.9766 85.5781C90.3047 85.3385 90.7135 85.1589 91.2031 85.0391C91.6927 84.9141 92.2604 84.8516 92.9062 84.8516H94.2109ZM97.9141 78H100.164V88.0625L99.9375 90H97.9141V78ZM105.516 85.6875V85.8516C105.516 86.4818 105.448 87.0599 105.312 87.5859C105.182 88.112 104.979 88.5677 104.703 88.9531C104.427 89.3333 104.083 89.6302 103.672 89.8438C103.266 90.0521 102.786 90.1562 102.234 90.1562C101.719 90.1562 101.271 90.0521 100.891 89.8438C100.516 89.6354 100.201 89.3411 99.9453 88.9609C99.6901 88.5807 99.4844 88.1354 99.3281 87.625C99.1719 87.1146 99.0547 86.5573 98.9766 85.9531V85.5938C99.0547 84.9896 99.1719 84.4323 99.3281 83.9219C99.4844 83.4115 99.6901 82.9661 99.9453 82.5859C100.201 82.2057 100.516 81.9115 100.891 81.7031C101.266 81.4948 101.708 81.3906 102.219 81.3906C102.776 81.3906 103.26 81.4974 103.672 81.7109C104.089 81.9193 104.432 82.2161 104.703 82.6016C104.979 82.9818 105.182 83.4349 105.312 83.9609C105.448 84.4818 105.516 85.0573 105.516 85.6875ZM103.266 85.8516V85.6875C103.266 85.3438 103.24 85.0208 103.188 84.7188C103.141 84.4115 103.057 84.1432 102.938 83.9141C102.818 83.6797 102.654 83.4948 102.445 83.3594C102.242 83.224 101.979 83.1562 101.656 83.1562C101.349 83.1562 101.089 83.2083 100.875 83.3125C100.661 83.4167 100.484 83.5625 100.344 83.75C100.208 83.9375 100.107 84.1615 100.039 84.4219C99.9714 84.6771 99.9297 84.9583 99.9141 85.2656V86.2891C99.9297 86.7005 99.9974 87.0651 100.117 87.3828C100.242 87.6953 100.43 87.9427 100.68 88.125C100.935 88.3021 101.266 88.3906 101.672 88.3906C101.99 88.3906 102.253 88.3281 102.461 88.2031C102.669 88.0781 102.831 87.901 102.945 87.6719C103.065 87.4427 103.148 87.1745 103.195 86.8672C103.242 86.5547 103.266 86.2161 103.266 85.8516ZM109.289 81.5469V90H107.031V81.5469H109.289ZM106.891 79.3438C106.891 79.0156 107.005 78.7448 107.234 78.5312C107.464 78.3177 107.771 78.2109 108.156 78.2109C108.536 78.2109 108.841 78.3177 109.07 78.5312C109.305 78.7448 109.422 79.0156 109.422 79.3438C109.422 79.6719 109.305 79.9427 109.07 80.1562C108.841 80.3698 108.536 80.4766 108.156 80.4766C107.771 80.4766 107.464 80.3698 107.234 80.1562C107.005 79.9427 106.891 79.6719 106.891 79.3438ZM115.719 87.6641C115.719 87.5026 115.672 87.3568 115.578 87.2266C115.484 87.0964 115.31 86.9766 115.055 86.8672C114.805 86.7526 114.443 86.6484 113.969 86.5547C113.542 86.4609 113.143 86.3438 112.773 86.2031C112.409 86.0573 112.091 85.8828 111.82 85.6797C111.555 85.4766 111.346 85.237 111.195 84.9609C111.044 84.6797 110.969 84.3594 110.969 84C110.969 83.6458 111.044 83.3125 111.195 83C111.352 82.6875 111.573 82.4115 111.859 82.1719C112.151 81.9271 112.505 81.737 112.922 81.6016C113.344 81.4609 113.818 81.3906 114.344 81.3906C115.078 81.3906 115.708 81.5078 116.234 81.7422C116.766 81.9766 117.172 82.2995 117.453 82.7109C117.74 83.1172 117.883 83.5807 117.883 84.1016H115.633C115.633 83.8828 115.586 83.6875 115.492 83.5156C115.404 83.3385 115.263 83.2005 115.07 83.1016C114.883 82.9974 114.638 82.9453 114.336 82.9453C114.086 82.9453 113.87 82.9896 113.688 83.0781C113.505 83.1615 113.365 83.276 113.266 83.4219C113.172 83.5625 113.125 83.7188 113.125 83.8906C113.125 84.0208 113.151 84.138 113.203 84.2422C113.26 84.3411 113.352 84.4323 113.477 84.5156C113.602 84.599 113.763 84.6771 113.961 84.75C114.164 84.8177 114.414 84.8802 114.711 84.9375C115.32 85.0625 115.865 85.2266 116.344 85.4297C116.823 85.6276 117.203 85.8984 117.484 86.2422C117.766 86.5807 117.906 87.026 117.906 87.5781C117.906 87.9531 117.823 88.2969 117.656 88.6094C117.49 88.9219 117.25 89.1953 116.938 89.4297C116.625 89.6589 116.25 89.8385 115.812 89.9688C115.38 90.0938 114.893 90.1562 114.352 90.1562C113.565 90.1562 112.898 90.0156 112.352 89.7344C111.81 89.4531 111.398 89.0964 111.117 88.6641C110.841 88.2266 110.703 87.7786 110.703 87.3203H112.836C112.846 87.6276 112.924 87.875 113.07 88.0625C113.221 88.25 113.411 88.3854 113.641 88.4688C113.875 88.5521 114.128 88.5938 114.398 88.5938C114.69 88.5938 114.932 88.5547 115.125 88.4766C115.318 88.3932 115.464 88.2839 115.562 88.1484C115.667 88.0078 115.719 87.8464 115.719 87.6641Z" fill="white"/>
<path d="M54.7852 95.8906V103H54.3896V95.8906H54.7852ZM58.3008 99.2012V99.5723H54.5898V99.2012H58.3008ZM58.7939 95.8906V96.252H54.5898V95.8906H58.7939ZM60.3906 97.7168V103H60V97.7168H60.3906ZM59.8779 96.1152C59.8779 96.0273 59.9072 95.9525 59.9658 95.8906C60.0277 95.8255 60.1058 95.793 60.2002 95.793C60.2913 95.793 60.3678 95.8255 60.4297 95.8906C60.4915 95.9525 60.5225 96.0273 60.5225 96.1152C60.5225 96.2031 60.4915 96.278 60.4297 96.3398C60.3678 96.3984 60.2913 96.4277 60.2002 96.4277C60.1058 96.4277 60.0277 96.3984 59.9658 96.3398C59.9072 96.278 59.8779 96.2031 59.8779 96.1152ZM65.2979 101.687C65.2979 101.53 65.2555 101.376 65.1709 101.223C65.0895 101.07 64.9382 100.926 64.7168 100.793C64.4987 100.66 64.1813 100.547 63.7646 100.456C63.4684 100.391 63.2064 100.319 62.9785 100.241C62.7539 100.163 62.5651 100.069 62.4121 99.958C62.2591 99.8441 62.1436 99.709 62.0654 99.5527C61.9906 99.3965 61.9531 99.2093 61.9531 98.9912C61.9531 98.8024 61.9938 98.625 62.0752 98.459C62.1566 98.293 62.2754 98.1481 62.4316 98.0244C62.5911 97.8975 62.7816 97.7982 63.0029 97.7266C63.2243 97.6549 63.4749 97.6191 63.7549 97.6191C64.1553 97.6191 64.4971 97.6859 64.7803 97.8193C65.0667 97.9495 65.2865 98.1302 65.4395 98.3613C65.5924 98.5892 65.6689 98.8545 65.6689 99.1572H65.2783C65.2783 98.9521 65.2197 98.7601 65.1025 98.5811C64.9854 98.402 64.8128 98.2572 64.585 98.1465C64.3604 98.0326 64.0837 97.9756 63.7549 97.9756C63.4229 97.9756 63.1527 98.026 62.9443 98.127C62.736 98.2279 62.583 98.3564 62.4854 98.5127C62.391 98.6657 62.3438 98.8219 62.3438 98.9814C62.3438 99.1084 62.3617 99.2272 62.3975 99.3379C62.4365 99.4453 62.5098 99.5446 62.6172 99.6357C62.7246 99.7269 62.8792 99.8148 63.0811 99.8994C63.2829 99.9808 63.5449 100.057 63.8672 100.129C64.2904 100.223 64.6354 100.339 64.9023 100.476C65.1693 100.609 65.3662 100.773 65.4932 100.969C65.6201 101.161 65.6836 101.397 65.6836 101.677C65.6836 101.885 65.6396 102.077 65.5518 102.253C65.4639 102.425 65.3369 102.575 65.1709 102.702C65.0081 102.829 64.8096 102.927 64.5752 102.995C64.3408 103.063 64.0804 103.098 63.7939 103.098C63.361 103.098 62.9932 103.029 62.6904 102.893C62.391 102.753 62.1631 102.569 62.0068 102.341C61.8538 102.113 61.7773 101.867 61.7773 101.604H62.168C62.1908 101.893 62.2852 102.121 62.4512 102.287C62.6204 102.453 62.8255 102.57 63.0664 102.639C63.3105 102.707 63.5531 102.741 63.7939 102.741C64.1227 102.741 64.3978 102.691 64.6191 102.59C64.8438 102.486 65.013 102.354 65.127 102.194C65.2409 102.032 65.2979 101.862 65.2979 101.687ZM68.9404 102.741C69.2041 102.741 69.4531 102.692 69.6875 102.595C69.9251 102.497 70.1221 102.349 70.2783 102.15C70.4378 101.949 70.5273 101.693 70.5469 101.384H70.9277C70.9115 101.735 70.8105 102.04 70.625 102.297C70.4395 102.551 70.2002 102.748 69.9072 102.888C69.6143 103.028 69.292 103.098 68.9404 103.098C68.5889 103.098 68.2747 103.033 67.998 102.902C67.7246 102.772 67.4951 102.588 67.3096 102.351C67.124 102.113 66.9824 101.835 66.8848 101.516C66.7904 101.193 66.7432 100.842 66.7432 100.461V100.256C66.7432 99.875 66.7904 99.5251 66.8848 99.2061C66.9824 98.8838 67.124 98.6038 67.3096 98.3662C67.4951 98.1286 67.723 97.9447 67.9932 97.8145C68.2666 97.6842 68.5791 97.6191 68.9307 97.6191C69.2855 97.6191 69.611 97.6924 69.9072 97.8389C70.2035 97.9821 70.4427 98.1921 70.625 98.4688C70.8105 98.7422 70.9115 99.0775 70.9277 99.4746H70.5469C70.5306 99.1491 70.4476 98.8757 70.2979 98.6543C70.1481 98.4329 69.9528 98.2653 69.7119 98.1514C69.471 98.0342 69.2106 97.9756 68.9307 97.9756C68.6182 97.9756 68.348 98.0358 68.1201 98.1562C67.8923 98.2767 67.7051 98.4427 67.5586 98.6543C67.4121 98.8626 67.3047 99.1051 67.2363 99.3818C67.168 99.6553 67.1338 99.9466 67.1338 100.256V100.461C67.1338 100.773 67.168 101.068 67.2363 101.345C67.3047 101.618 67.4121 101.859 67.5586 102.067C67.7051 102.276 67.8923 102.44 68.1201 102.561C68.3512 102.681 68.6247 102.741 68.9404 102.741ZM75.4688 102.028V99.2988C75.4688 99.0221 75.4102 98.7845 75.293 98.5859C75.1758 98.3874 75.0049 98.236 74.7803 98.1318C74.5557 98.0244 74.2806 97.9707 73.9551 97.9707C73.6523 97.9707 73.3805 98.0244 73.1396 98.1318C72.902 98.236 72.7148 98.3792 72.5781 98.5615C72.4414 98.7438 72.373 98.9473 72.373 99.1719L71.9824 99.167C71.9824 98.9652 72.0296 98.7715 72.124 98.5859C72.2217 98.4004 72.3584 98.236 72.5342 98.0928C72.7132 97.9463 72.9232 97.8307 73.1641 97.7461C73.4082 97.6615 73.6751 97.6191 73.9648 97.6191C74.3359 97.6191 74.6631 97.6826 74.9463 97.8096C75.2327 97.9333 75.4557 98.1204 75.6152 98.3711C75.7747 98.6217 75.8545 98.9342 75.8545 99.3086V101.916C75.8545 102.105 75.8675 102.295 75.8936 102.487C75.9196 102.679 75.9554 102.834 76.001 102.951V103H75.5762C75.5404 102.876 75.5127 102.725 75.4932 102.546C75.4769 102.367 75.4688 102.194 75.4688 102.028ZM75.5957 100.002L75.6055 100.339H74.3164C73.9909 100.339 73.6995 100.37 73.4424 100.432C73.1852 100.493 72.9671 100.581 72.7881 100.695C72.609 100.809 72.4723 100.944 72.3779 101.101C72.2835 101.257 72.2363 101.433 72.2363 101.628C72.2363 101.83 72.29 102.015 72.3975 102.185C72.5049 102.354 72.6562 102.489 72.8516 102.59C73.0469 102.688 73.2731 102.736 73.5303 102.736C73.8818 102.736 74.1927 102.676 74.4629 102.556C74.7363 102.432 74.9658 102.266 75.1514 102.058C75.3369 101.846 75.472 101.602 75.5566 101.325L75.7275 101.608C75.6722 101.781 75.5859 101.955 75.4688 102.131C75.3516 102.307 75.2002 102.468 75.0146 102.614C74.8291 102.757 74.611 102.875 74.3604 102.966C74.1097 103.054 73.8249 103.098 73.5059 103.098C73.1706 103.098 72.8776 103.036 72.627 102.912C72.3796 102.785 72.1875 102.613 72.0508 102.395C71.9141 102.173 71.8457 101.921 71.8457 101.638C71.8457 101.394 71.901 101.171 72.0117 100.969C72.1224 100.767 72.2819 100.594 72.4902 100.451C72.7018 100.305 72.9574 100.194 73.2568 100.119C73.5596 100.041 73.8997 100.002 74.2773 100.002H75.5957ZM77.959 95.5V103H77.5684V95.5H77.959ZM80.0977 97.7168V103H79.707V97.7168H80.0977ZM79.585 96.1152C79.585 96.0273 79.6143 95.9525 79.6729 95.8906C79.7347 95.8255 79.8128 95.793 79.9072 95.793C79.9984 95.793 80.0749 95.8255 80.1367 95.8906C80.1986 95.9525 80.2295 96.0273 80.2295 96.1152C80.2295 96.2031 80.1986 96.278 80.1367 96.3398C80.0749 96.3984 79.9984 96.4277 79.9072 96.4277C79.8128 96.4277 79.7347 96.3984 79.6729 96.3398C79.6143 96.278 79.585 96.2031 79.585 96.1152ZM85.5273 102.644V103H81.5234V102.644H85.5273ZM85.2686 98.0293L81.6406 103H81.3965V102.697L85.0293 97.7168H85.2686V98.0293ZM85.0928 97.7168V98.0781H81.5283V97.7168H85.0928ZM89.873 102.028V99.2988C89.873 99.0221 89.8145 98.7845 89.6973 98.5859C89.5801 98.3874 89.4092 98.236 89.1846 98.1318C88.96 98.0244 88.6849 97.9707 88.3594 97.9707C88.0566 97.9707 87.7848 98.0244 87.5439 98.1318C87.3063 98.236 87.1191 98.3792 86.9824 98.5615C86.8457 98.7438 86.7773 98.9473 86.7773 99.1719L86.3867 99.167C86.3867 98.9652 86.4339 98.7715 86.5283 98.5859C86.626 98.4004 86.7627 98.236 86.9385 98.0928C87.1175 97.9463 87.3275 97.8307 87.5684 97.7461C87.8125 97.6615 88.0794 97.6191 88.3691 97.6191C88.7402 97.6191 89.0674 97.6826 89.3506 97.8096C89.637 97.9333 89.86 98.1204 90.0195 98.3711C90.179 98.6217 90.2588 98.9342 90.2588 99.3086V101.916C90.2588 102.105 90.2718 102.295 90.2979 102.487C90.3239 102.679 90.3597 102.834 90.4053 102.951V103H89.9805C89.9447 102.876 89.917 102.725 89.8975 102.546C89.8812 102.367 89.873 102.194 89.873 102.028ZM90 100.002L90.0098 100.339H88.7207C88.3952 100.339 88.1038 100.37 87.8467 100.432C87.5895 100.493 87.3714 100.581 87.1924 100.695C87.0133 100.809 86.8766 100.944 86.7822 101.101C86.6878 101.257 86.6406 101.433 86.6406 101.628C86.6406 101.83 86.6943 102.015 86.8018 102.185C86.9092 102.354 87.0605 102.489 87.2559 102.59C87.4512 102.688 87.6774 102.736 87.9346 102.736C88.2861 102.736 88.597 102.676 88.8672 102.556C89.1406 102.432 89.3701 102.266 89.5557 102.058C89.7412 101.846 89.8763 101.602 89.9609 101.325L90.1318 101.608C90.0765 101.781 89.9902 101.955 89.873 102.131C89.7559 102.307 89.6045 102.468 89.4189 102.614C89.2334 102.757 89.0153 102.875 88.7646 102.966C88.514 103.054 88.2292 103.098 87.9102 103.098C87.5749 103.098 87.2819 103.036 87.0312 102.912C86.7839 102.785 86.5918 102.613 86.4551 102.395C86.3184 102.173 86.25 101.921 86.25 101.638C86.25 101.394 86.3053 101.171 86.416 100.969C86.5267 100.767 86.6862 100.594 86.8945 100.451C87.1061 100.305 87.3617 100.194 87.6611 100.119C87.9639 100.041 88.304 100.002 88.6816 100.002H90ZM93.7646 102.741C94.0283 102.741 94.2773 102.692 94.5117 102.595C94.7493 102.497 94.9463 102.349 95.1025 102.15C95.262 101.949 95.3516 101.693 95.3711 101.384H95.752C95.7357 101.735 95.6348 102.04 95.4492 102.297C95.2637 102.551 95.0244 102.748 94.7314 102.888C94.4385 103.028 94.1162 103.098 93.7646 103.098C93.4131 103.098 93.099 103.033 92.8223 102.902C92.5488 102.772 92.3193 102.588 92.1338 102.351C91.9482 102.113 91.8066 101.835 91.709 101.516C91.6146 101.193 91.5674 100.842 91.5674 100.461V100.256C91.5674 99.875 91.6146 99.5251 91.709 99.2061C91.8066 98.8838 91.9482 98.6038 92.1338 98.3662C92.3193 98.1286 92.5472 97.9447 92.8174 97.8145C93.0908 97.6842 93.4033 97.6191 93.7549 97.6191C94.1097 97.6191 94.4352 97.6924 94.7314 97.8389C95.0277 97.9821 95.2669 98.1921 95.4492 98.4688C95.6348 98.7422 95.7357 99.0775 95.752 99.4746H95.3711C95.3548 99.1491 95.2718 98.8757 95.1221 98.6543C94.9723 98.4329 94.777 98.2653 94.5361 98.1514C94.2952 98.0342 94.0348 97.9756 93.7549 97.9756C93.4424 97.9756 93.1722 98.0358 92.9443 98.1562C92.7165 98.2767 92.5293 98.4427 92.3828 98.6543C92.2363 98.8626 92.1289 99.1051 92.0605 99.3818C91.9922 99.6553 91.958 99.9466 91.958 100.256V100.461C91.958 100.773 91.9922 101.068 92.0605 101.345C92.1289 101.618 92.2363 101.859 92.3828 102.067C92.5293 102.276 92.7165 102.44 92.9443 102.561C93.1755 102.681 93.4489 102.741 93.7646 102.741ZM97.4707 97.7168V103H97.0801V97.7168H97.4707ZM96.958 96.1152C96.958 96.0273 96.9873 95.9525 97.0459 95.8906C97.1077 95.8255 97.1859 95.793 97.2803 95.793C97.3714 95.793 97.4479 95.8255 97.5098 95.8906C97.5716 95.9525 97.6025 96.0273 97.6025 96.1152C97.6025 96.2031 97.5716 96.278 97.5098 96.3398C97.4479 96.3984 97.3714 96.4277 97.2803 96.4277C97.1859 96.4277 97.1077 96.3984 97.0459 96.3398C96.9873 96.278 96.958 96.2031 96.958 96.1152ZM98.7842 100.451V100.266C98.7842 99.8783 98.8395 99.5234 98.9502 99.2012C99.0641 98.8789 99.2236 98.6006 99.4287 98.3662C99.6338 98.1286 99.8779 97.9447 100.161 97.8145C100.448 97.6842 100.765 97.6191 101.113 97.6191C101.462 97.6191 101.779 97.6842 102.065 97.8145C102.352 97.9447 102.598 98.1286 102.803 98.3662C103.011 98.6006 103.171 98.8789 103.281 99.2012C103.392 99.5234 103.447 99.8783 103.447 100.266V100.451C103.447 100.839 103.392 101.193 103.281 101.516C103.171 101.838 103.013 102.118 102.808 102.355C102.603 102.59 102.357 102.772 102.07 102.902C101.787 103.033 101.471 103.098 101.123 103.098C100.771 103.098 100.452 103.033 100.166 102.902C99.8828 102.772 99.637 102.59 99.4287 102.355C99.2236 102.118 99.0641 101.838 98.9502 101.516C98.8395 101.193 98.7842 100.839 98.7842 100.451ZM99.1748 100.266V100.451C99.1748 100.757 99.2171 101.049 99.3018 101.325C99.3896 101.599 99.5166 101.843 99.6826 102.058C99.8486 102.269 100.052 102.437 100.293 102.561C100.534 102.681 100.811 102.741 101.123 102.741C101.429 102.741 101.702 102.681 101.943 102.561C102.184 102.437 102.386 102.269 102.549 102.058C102.715 101.843 102.84 101.599 102.925 101.325C103.013 101.049 103.057 100.757 103.057 100.451V100.266C103.057 99.9661 103.013 99.6797 102.925 99.4062C102.84 99.1328 102.715 98.8887 102.549 98.6738C102.383 98.459 102.179 98.2897 101.938 98.166C101.698 98.0391 101.423 97.9756 101.113 97.9756C100.804 97.9756 100.529 98.0391 100.288 98.166C100.05 98.2897 99.847 98.459 99.6777 98.6738C99.5117 98.8887 99.3864 99.1328 99.3018 99.4062C99.2171 99.6797 99.1748 99.9661 99.1748 100.266ZM100.864 96.833L101.792 95.5098H102.266L101.245 96.833H100.864ZM105.088 98.8447V103H104.702V97.7168H105.083L105.088 98.8447ZM105.015 99.9531L104.824 99.7285C104.854 99.4486 104.922 99.1816 105.029 98.9277C105.14 98.6738 105.285 98.4492 105.464 98.2539C105.646 98.0586 105.858 97.904 106.099 97.79C106.343 97.6761 106.611 97.6191 106.904 97.6191C107.168 97.6191 107.404 97.6566 107.612 97.7314C107.821 97.8031 107.996 97.917 108.14 98.0732C108.286 98.2295 108.397 98.4313 108.472 98.6787C108.547 98.9229 108.584 99.2207 108.584 99.5723V103H108.198V99.5723C108.198 99.1556 108.141 98.8333 108.027 98.6055C107.913 98.3743 107.754 98.2116 107.549 98.1172C107.347 98.0228 107.111 97.9756 106.841 97.9756C106.528 97.9756 106.258 98.0456 106.03 98.1855C105.806 98.3223 105.62 98.4964 105.474 98.708C105.327 98.9163 105.215 99.1328 105.137 99.3574C105.062 99.582 105.021 99.7806 105.015 99.9531ZM114.219 102.482L115.977 97.7168H116.401L114.097 103.864C114.054 103.981 114.001 104.112 113.936 104.255C113.87 104.401 113.786 104.541 113.682 104.675C113.577 104.808 113.442 104.917 113.276 105.002C113.114 105.09 112.912 105.134 112.671 105.134C112.616 105.134 112.542 105.127 112.451 105.114C112.363 105.104 112.298 105.091 112.256 105.075L112.251 104.733C112.297 104.743 112.357 104.751 112.432 104.758C112.507 104.768 112.559 104.772 112.588 104.772C112.803 104.772 112.982 104.73 113.125 104.646C113.271 104.564 113.394 104.447 113.491 104.294C113.589 104.144 113.675 103.967 113.75 103.762L114.219 102.482ZM112.407 97.7168L114.282 102.517L114.395 102.917L114.097 103.103L111.982 97.7168H112.407ZM72.5293 114.741C72.793 114.741 73.042 114.692 73.2764 114.595C73.514 114.497 73.7109 114.349 73.8672 114.15C74.0267 113.949 74.1162 113.693 74.1357 113.384H74.5166C74.5003 113.735 74.3994 114.04 74.2139 114.297C74.0283 114.551 73.7891 114.748 73.4961 114.888C73.2031 115.028 72.8809 115.098 72.5293 115.098C72.1777 115.098 71.8636 115.033 71.5869 114.902C71.3135 114.772 71.084 114.588 70.8984 114.351C70.7129 114.113 70.5713 113.835 70.4736 113.516C70.3792 113.193 70.332 112.842 70.332 112.461V112.256C70.332 111.875 70.3792 111.525 70.4736 111.206C70.5713 110.884 70.7129 110.604 70.8984 110.366C71.084 110.129 71.3118 109.945 71.582 109.814C71.8555 109.684 72.168 109.619 72.5195 109.619C72.8743 109.619 73.1999 109.692 73.4961 109.839C73.7923 109.982 74.0316 110.192 74.2139 110.469C74.3994 110.742 74.5003 111.077 74.5166 111.475H74.1357C74.1195 111.149 74.0365 110.876 73.8867 110.654C73.737 110.433 73.5417 110.265 73.3008 110.151C73.0599 110.034 72.7995 109.976 72.5195 109.976C72.207 109.976 71.9368 110.036 71.709 110.156C71.4811 110.277 71.2939 110.443 71.1475 110.654C71.001 110.863 70.8936 111.105 70.8252 111.382C70.7568 111.655 70.7227 111.947 70.7227 112.256V112.461C70.7227 112.773 70.7568 113.068 70.8252 113.345C70.8936 113.618 71.001 113.859 71.1475 114.067C71.2939 114.276 71.4811 114.44 71.709 114.561C71.9401 114.681 72.2135 114.741 72.5293 114.741ZM75.4102 112.451V112.266C75.4102 111.878 75.4655 111.523 75.5762 111.201C75.6901 110.879 75.8496 110.601 76.0547 110.366C76.2598 110.129 76.5039 109.945 76.7871 109.814C77.0736 109.684 77.391 109.619 77.7393 109.619C78.0876 109.619 78.4049 109.684 78.6914 109.814C78.9779 109.945 79.2236 110.129 79.4287 110.366C79.637 110.601 79.7965 110.879 79.9072 111.201C80.0179 111.523 80.0732 111.878 80.0732 112.266V112.451C80.0732 112.839 80.0179 113.193 79.9072 113.516C79.7965 113.838 79.6387 114.118 79.4336 114.355C79.2285 114.59 78.9827 114.772 78.6963 114.902C78.4131 115.033 78.0973 115.098 77.749 115.098C77.3975 115.098 77.0785 115.033 76.792 114.902C76.5088 114.772 76.263 114.59 76.0547 114.355C75.8496 114.118 75.6901 113.838 75.5762 113.516C75.4655 113.193 75.4102 112.839 75.4102 112.451ZM75.8008 112.266V112.451C75.8008 112.757 75.8431 113.049 75.9277 113.325C76.0156 113.599 76.1426 113.843 76.3086 114.058C76.4746 114.269 76.6781 114.437 76.9189 114.561C77.1598 114.681 77.4365 114.741 77.749 114.741C78.055 114.741 78.3285 114.681 78.5693 114.561C78.8102 114.437 79.012 114.269 79.1748 114.058C79.3408 113.843 79.4661 113.599 79.5508 113.325C79.6387 113.049 79.6826 112.757 79.6826 112.451V112.266C79.6826 111.966 79.6387 111.68 79.5508 111.406C79.4661 111.133 79.3408 110.889 79.1748 110.674C79.0088 110.459 78.8053 110.29 78.5645 110.166C78.3236 110.039 78.0485 109.976 77.7393 109.976C77.43 109.976 77.1549 110.039 76.9141 110.166C76.6764 110.29 76.473 110.459 76.3037 110.674C76.1377 110.889 76.0124 111.133 75.9277 111.406C75.8431 111.68 75.8008 111.966 75.8008 112.266ZM81.7139 110.845V115H81.3281V109.717H81.709L81.7139 110.845ZM81.6406 111.953L81.4502 111.729C81.4795 111.449 81.5479 111.182 81.6553 110.928C81.766 110.674 81.9108 110.449 82.0898 110.254C82.2721 110.059 82.4837 109.904 82.7246 109.79C82.9688 109.676 83.2373 109.619 83.5303 109.619C83.7939 109.619 84.0299 109.657 84.2383 109.731C84.4466 109.803 84.6224 109.917 84.7656 110.073C84.9121 110.229 85.0228 110.431 85.0977 110.679C85.1725 110.923 85.21 111.221 85.21 111.572V115H84.8242V111.572C84.8242 111.156 84.7673 110.833 84.6533 110.605C84.5394 110.374 84.3799 110.212 84.1748 110.117C83.973 110.023 83.737 109.976 83.4668 109.976C83.1543 109.976 82.8841 110.046 82.6562 110.186C82.4316 110.322 82.2461 110.496 82.0996 110.708C81.9531 110.916 81.8408 111.133 81.7627 111.357C81.6878 111.582 81.6471 111.781 81.6406 111.953ZM88.6914 109.717V110.068H86.1621V109.717H88.6914ZM87.1387 108.32H87.5293V113.726C87.5293 114.009 87.5635 114.224 87.6318 114.37C87.7035 114.513 87.7962 114.611 87.9102 114.663C88.0273 114.712 88.1527 114.736 88.2861 114.736C88.3805 114.736 88.4668 114.731 88.5449 114.722C88.6263 114.712 88.7077 114.701 88.7891 114.688L88.8232 115.029C88.7516 115.052 88.6589 115.068 88.5449 115.078C88.431 115.091 88.3301 115.098 88.2422 115.098C88.0208 115.098 87.8271 115.057 87.6611 114.976C87.4951 114.894 87.3665 114.754 87.2754 114.556C87.1842 114.354 87.1387 114.077 87.1387 113.726V108.32ZM90.3857 110.615V115H90V109.717H90.3809L90.3857 110.615ZM92.3975 109.678L92.373 110.029C92.3145 110.02 92.2559 110.011 92.1973 110.005C92.1387 109.998 92.0768 109.995 92.0117 109.995C91.7318 109.995 91.486 110.05 91.2744 110.161C91.0661 110.272 90.8903 110.423 90.7471 110.615C90.6071 110.807 90.5013 111.03 90.4297 111.284C90.3581 111.538 90.3206 111.81 90.3174 112.1L90.127 112.139C90.127 111.777 90.1644 111.444 90.2393 111.138C90.3174 110.832 90.4346 110.565 90.5908 110.337C90.7471 110.109 90.944 109.933 91.1816 109.81C91.4193 109.683 91.6992 109.619 92.0215 109.619C92.0996 109.619 92.1712 109.626 92.2363 109.639C92.3014 109.648 92.3551 109.661 92.3975 109.678ZM92.8906 112.451V112.266C92.8906 111.878 92.946 111.523 93.0566 111.201C93.1706 110.879 93.3301 110.601 93.5352 110.366C93.7402 110.129 93.9844 109.945 94.2676 109.814C94.554 109.684 94.8714 109.619 95.2197 109.619C95.568 109.619 95.8854 109.684 96.1719 109.814C96.4583 109.945 96.7041 110.129 96.9092 110.366C97.1175 110.601 97.277 110.879 97.3877 111.201C97.4984 111.523 97.5537 111.878 97.5537 112.266V112.451C97.5537 112.839 97.4984 113.193 97.3877 113.516C97.277 113.838 97.1191 114.118 96.9141 114.355C96.709 114.59 96.4632 114.772 96.1768 114.902C95.8936 115.033 95.5778 115.098 95.2295 115.098C94.8779 115.098 94.5589 115.033 94.2725 114.902C93.9893 114.772 93.7435 114.59 93.5352 114.355C93.3301 114.118 93.1706 113.838 93.0566 113.516C92.946 113.193 92.8906 112.839 92.8906 112.451ZM93.2812 112.266V112.451C93.2812 112.757 93.3236 113.049 93.4082 113.325C93.4961 113.599 93.623 113.843 93.7891 114.058C93.9551 114.269 94.1585 114.437 94.3994 114.561C94.6403 114.681 94.917 114.741 95.2295 114.741C95.5355 114.741 95.8089 114.681 96.0498 114.561C96.2907 114.437 96.4925 114.269 96.6553 114.058C96.8213 113.843 96.9466 113.599 97.0312 113.325C97.1191 113.049 97.1631 112.757 97.1631 112.451V112.266C97.1631 111.966 97.1191 111.68 97.0312 111.406C96.9466 111.133 96.8213 110.889 96.6553 110.674C96.4893 110.459 96.2858 110.29 96.0449 110.166C95.804 110.039 95.529 109.976 95.2197 109.976C94.9105 109.976 94.6354 110.039 94.3945 110.166C94.1569 110.29 93.9535 110.459 93.7842 110.674C93.6182 110.889 93.4928 111.133 93.4082 111.406C93.3236 111.68 93.2812 111.966 93.2812 112.266ZM99.2627 107.5V115H98.8721V107.5H99.2627Z" fill="white"/>
<path d="M82.3636 72V57.12C80.2727 59.616 76.0909 62.688 67.8527 64.992C67.8527 64.992 69.9436 59.52 75.84 55.84C70.4036 56.736 62.2073 56.608 51 52.8C51 52.8 61.3291 48.288 73.08 49.504C66.4309 46.4 58.1091 40.256 51.7109 27.552C51.7109 27.552 70.5291 31.488 79.8964 43.648C71.4073 27.968 84.4545 8 84.4545 8C94.6164 25.504 92.4418 37.12 89.1382 43.52C98.5473 31.456 117.198 27.552 117.198 27.552C110.8 40.256 102.478 46.4 95.8291 49.504C107.58 48.288 117.909 52.8 117.909 52.8C106.702 56.608 98.5055 56.736 93.0691 55.84C98.9655 59.52 101.056 64.992 101.056 64.992C92.8182 62.688 88.6364 59.616 86.5455 57.12V72H82.3636Z" fill="white"/>
<path d="M103.063 45.6146L103.063 45.6146L103.059 45.6168L101.866 46.3265C101.866 46.3266 101.866 46.3267 101.865 46.3267C100.097 47.3774 97.9031 47.5974 95.4978 47.8196L95.4977 47.8196C94.9652 47.8688 94.4252 47.9191 93.8931 47.98L93.0191 48.0799L93.0069 48.9595L94.0068 48.9735L93.0069 48.9596L93.0069 48.9596L93.0069 48.9598L93.0069 48.9605L93.0068 48.963L93.0067 48.9727L93.0062 49.0091L93.0047 49.1419C93.0035 49.2538 93.002 49.4084 93.0011 49.579C92.9992 49.9143 92.999 50.3309 93.0072 50.6023C93.0072 50.6024 93.0072 50.6025 93.0073 50.6026C93.0073 50.6026 93.0073 50.6027 93.0073 50.6028L93.1344 54.8405L94.134 54.8105L93.1344 54.8405C93.2526 58.7775 95.0528 62.4919 98.1111 65.1785L98.1113 65.1787C99.6777 66.5539 101.398 67.6933 103.341 68.5915L103.343 68.5924C103.976 68.8836 104.671 69.022 105.369 68.9972C106.067 68.9723 106.75 68.7847 107.361 68.4488L107.364 68.4471C109.051 67.5114 110.506 66.3919 111.888 65.1787L111.888 65.1785C114.946 62.4919 116.746 58.7776 116.865 54.8407L116.865 54.8405L116.993 50.5887L116.993 50.5883C117.001 50.3212 117.001 49.9085 116.999 49.5755C116.998 49.4063 116.997 49.2528 116.996 49.1417L116.994 49.0097L116.994 48.9736L116.994 48.964L116.994 48.9615L116.994 48.9609L116.994 48.9607V48.9606L115.994 48.9735L116.994 48.9606L116.983 48.1196L116.153 47.9861C115.505 47.8821 114.855 47.8061 114.229 47.733L114.177 47.7269L114.176 47.7269C112.139 47.4894 110.368 47.2692 108.834 46.3575L107.589 45.6168L107.589 45.6168L107.586 45.6146C106.902 45.2118 106.12 45 105.324 45C104.529 45 103.747 45.2118 103.063 45.6146ZM103.771 56.5139H104.771V55.5139V52.3518H105.217V55.5139V56.5139H106.217H109.497V56.8922H106.217H105.217V57.8922V61.0543H104.771V57.8922V56.8922H103.771H100.491V56.5139H103.771Z" fill="white" stroke="#2A6D4C" stroke-width="2"/>
</svg>
