<svg width="169" height="130" viewBox="0 0 169 130" fill="none" xmlns="http://www.w3.org/2000/svg">
<rect width="169" height="130" rx="10" fill="#2A6D4C"/>
<path d="M33.7578 76.625V88H31.4219V76.625H33.7578ZM38.0156 81.3516V88H35.7656V79.5469H37.875L38.0156 81.3516ZM37.6875 83.4766H37.0781C37.0781 82.8516 37.1589 82.2891 37.3203 81.7891C37.4818 81.2839 37.7083 80.8542 38 80.5C38.2917 80.1406 38.638 79.8672 39.0391 79.6797C39.4453 79.487 39.8984 79.3906 40.3984 79.3906C40.7943 79.3906 41.1562 79.4479 41.4844 79.5625C41.8125 79.6771 42.0938 79.8594 42.3281 80.1094C42.5677 80.3594 42.75 80.6901 42.875 81.1016C43.0052 81.513 43.0703 82.0156 43.0703 82.6094V88H40.8047V82.6016C40.8047 82.2266 40.7526 81.9349 40.6484 81.7266C40.5443 81.5182 40.3906 81.3724 40.1875 81.2891C39.9896 81.2005 39.7448 81.1562 39.4531 81.1562C39.151 81.1562 38.888 81.2161 38.6641 81.3359C38.4453 81.4557 38.263 81.6224 38.1172 81.8359C37.9766 82.0443 37.8698 82.2891 37.7969 82.5703C37.724 82.8516 37.6875 83.1536 37.6875 83.4766ZM47.6562 86.3594L49.5312 79.5469H51.8828L49.0312 88H47.6094L47.6562 86.3594ZM46.3672 79.5469L48.25 86.3672L48.2891 88H46.8594L44.0078 79.5469H46.3672ZM56.6719 88.1562C56.0156 88.1562 55.4271 88.0521 54.9062 87.8438C54.3854 87.6302 53.9427 87.3359 53.5781 86.9609C53.2188 86.5859 52.9427 86.151 52.75 85.6562C52.5573 85.1562 52.4609 84.625 52.4609 84.0625V83.75C52.4609 83.1094 52.5521 82.5234 52.7344 81.9922C52.9167 81.4609 53.1771 81 53.5156 80.6094C53.8594 80.2188 54.276 79.9193 54.7656 79.7109C55.2552 79.4974 55.8073 79.3906 56.4219 79.3906C57.0208 79.3906 57.5521 79.4896 58.0156 79.6875C58.4792 79.8854 58.8672 80.1667 59.1797 80.5312C59.4974 80.8958 59.737 81.3333 59.8984 81.8438C60.0599 82.349 60.1406 82.9115 60.1406 83.5312V84.4688H53.4219V82.9688H57.9297V82.7969C57.9297 82.4844 57.8724 82.2057 57.7578 81.9609C57.6484 81.7109 57.4818 81.513 57.2578 81.3672C57.0339 81.2214 56.7474 81.1484 56.3984 81.1484C56.1016 81.1484 55.8464 81.2135 55.6328 81.3438C55.4193 81.474 55.2448 81.6562 55.1094 81.8906C54.9792 82.125 54.8802 82.401 54.8125 82.7188C54.75 83.0312 54.7188 83.375 54.7188 83.75V84.0625C54.7188 84.401 54.7656 84.7135 54.8594 85C54.9583 85.2865 55.0964 85.5339 55.2734 85.7422C55.4557 85.9505 55.6745 86.112 55.9297 86.2266C56.1901 86.3411 56.4844 86.3984 56.8125 86.3984C57.2188 86.3984 57.5964 86.3203 57.9453 86.1641C58.2995 86.0026 58.6042 85.7604 58.8594 85.4375L59.9531 86.625C59.776 86.8802 59.5339 87.125 59.2266 87.3594C58.9245 87.5938 58.5599 87.7865 58.1328 87.9375C57.7057 88.0833 57.2188 88.1562 56.6719 88.1562ZM65.9922 85.6641C65.9922 85.5026 65.9453 85.3568 65.8516 85.2266C65.7578 85.0964 65.5833 84.9766 65.3281 84.8672C65.0781 84.7526 64.7161 84.6484 64.2422 84.5547C63.8151 84.4609 63.4167 84.3438 63.0469 84.2031C62.6823 84.0573 62.3646 83.8828 62.0938 83.6797C61.8281 83.4766 61.6198 83.237 61.4688 82.9609C61.3177 82.6797 61.2422 82.3594 61.2422 82C61.2422 81.6458 61.3177 81.3125 61.4688 81C61.625 80.6875 61.8464 80.4115 62.1328 80.1719C62.4245 79.9271 62.7786 79.737 63.1953 79.6016C63.6172 79.4609 64.0911 79.3906 64.6172 79.3906C65.3516 79.3906 65.9818 79.5078 66.5078 79.7422C67.0391 79.9766 67.4453 80.2995 67.7266 80.7109C68.013 81.1172 68.1562 81.5807 68.1562 82.1016H65.9062C65.9062 81.8828 65.8594 81.6875 65.7656 81.5156C65.6771 81.3385 65.5365 81.2005 65.3438 81.1016C65.1562 80.9974 64.9115 80.9453 64.6094 80.9453C64.3594 80.9453 64.1432 80.9896 63.9609 81.0781C63.7786 81.1615 63.638 81.276 63.5391 81.4219C63.4453 81.5625 63.3984 81.7188 63.3984 81.8906C63.3984 82.0208 63.4245 82.138 63.4766 82.2422C63.5339 82.3411 63.625 82.4323 63.75 82.5156C63.875 82.599 64.0365 82.6771 64.2344 82.75C64.4375 82.8177 64.6875 82.8802 64.9844 82.9375C65.5938 83.0625 66.138 83.2266 66.6172 83.4297C67.0964 83.6276 67.4766 83.8984 67.7578 84.2422C68.0391 84.5807 68.1797 85.026 68.1797 85.5781C68.1797 85.9531 68.0964 86.2969 67.9297 86.6094C67.763 86.9219 67.5234 87.1953 67.2109 87.4297C66.8984 87.6589 66.5234 87.8385 66.0859 87.9688C65.6536 88.0938 65.1667 88.1562 64.625 88.1562C63.8385 88.1562 63.1719 88.0156 62.625 87.7344C62.0833 87.4531 61.6719 87.0964 61.3906 86.6641C61.1146 86.2266 60.9766 85.7786 60.9766 85.3203H63.1094C63.1198 85.6276 63.1979 85.875 63.3438 86.0625C63.4948 86.25 63.6849 86.3854 63.9141 86.4688C64.1484 86.5521 64.401 86.5938 64.6719 86.5938C64.9635 86.5938 65.2057 86.5547 65.3984 86.4766C65.5911 86.3932 65.737 86.2839 65.8359 86.1484C65.9401 86.0078 65.9922 85.8464 65.9922 85.6641ZM73.7812 79.5469V81.1406H68.8594V79.5469H73.7812ZM70.0781 77.4609H72.3281V85.4531C72.3281 85.6979 72.3594 85.8854 72.4219 86.0156C72.4896 86.1458 72.5885 86.237 72.7188 86.2891C72.849 86.3359 73.013 86.3594 73.2109 86.3594C73.3516 86.3594 73.4766 86.3542 73.5859 86.3438C73.7005 86.3281 73.7969 86.3125 73.875 86.2969L73.8828 87.9531C73.6901 88.0156 73.4818 88.0651 73.2578 88.1016C73.0339 88.138 72.7865 88.1562 72.5156 88.1562C72.0208 88.1562 71.5885 88.0755 71.2188 87.9141C70.8542 87.7474 70.5729 87.4818 70.375 87.1172C70.1771 86.7526 70.0781 86.2734 70.0781 85.6797V77.4609ZM77.4375 79.5469V88H75.1797V79.5469H77.4375ZM75.0391 77.3438C75.0391 77.0156 75.1536 76.7448 75.3828 76.5312C75.612 76.3177 75.9193 76.2109 76.3047 76.2109C76.6849 76.2109 76.9896 76.3177 77.2188 76.5312C77.4531 76.7448 77.5703 77.0156 77.5703 77.3438C77.5703 77.6719 77.4531 77.9427 77.2188 78.1562C76.9896 78.3698 76.6849 78.4766 76.3047 78.4766C75.9193 78.4766 75.612 78.3698 75.3828 78.1562C75.1536 77.9427 75.0391 77.6719 75.0391 77.3438ZM84.6484 79.5469H86.6875V87.7188C86.6875 88.4896 86.5156 89.1432 86.1719 89.6797C85.8333 90.2214 85.3594 90.6302 84.75 90.9062C84.1406 91.1875 83.4323 91.3281 82.625 91.3281C82.2708 91.3281 81.8958 91.2812 81.5 91.1875C81.1094 91.0938 80.7344 90.9479 80.375 90.75C80.0208 90.5521 79.724 90.3021 79.4844 90L80.4766 88.6719C80.737 88.974 81.0391 89.2083 81.3828 89.375C81.7266 89.5469 82.1068 89.6328 82.5234 89.6328C82.9297 89.6328 83.2734 89.5573 83.5547 89.4062C83.8359 89.2604 84.0521 89.0443 84.2031 88.7578C84.3542 88.4766 84.4297 88.1354 84.4297 87.7344V81.5L84.6484 79.5469ZM78.9609 83.875V83.7109C78.9609 83.0651 79.0391 82.4792 79.1953 81.9531C79.3568 81.4219 79.5833 80.9661 79.875 80.5859C80.1719 80.2057 80.5312 79.9115 80.9531 79.7031C81.375 79.4948 81.8516 79.3906 82.3828 79.3906C82.9453 79.3906 83.4167 79.4948 83.7969 79.7031C84.1771 79.9115 84.4896 80.2083 84.7344 80.5938C84.9792 80.974 85.1693 81.4245 85.3047 81.9453C85.4453 82.4609 85.5547 83.026 85.6328 83.6406V84C85.5547 84.5885 85.4375 85.1354 85.2812 85.6406C85.125 86.1458 84.9193 86.5885 84.6641 86.9688C84.4089 87.3438 84.0911 87.6354 83.7109 87.8438C83.3359 88.0521 82.888 88.1562 82.3672 88.1562C81.8464 88.1562 81.375 88.0495 80.9531 87.8359C80.5365 87.6224 80.1797 87.3229 79.8828 86.9375C79.5859 86.5521 79.3568 86.099 79.1953 85.5781C79.0391 85.0573 78.9609 84.4896 78.9609 83.875ZM81.2109 83.7109V83.875C81.2109 84.224 81.2448 84.5495 81.3125 84.8516C81.3802 85.1536 81.4844 85.4219 81.625 85.6562C81.7708 85.8854 81.9505 86.0651 82.1641 86.1953C82.3828 86.3203 82.6406 86.3828 82.9375 86.3828C83.349 86.3828 83.6849 86.2969 83.9453 86.125C84.2057 85.9479 84.401 85.7057 84.5312 85.3984C84.6615 85.0911 84.737 84.737 84.7578 84.3359V83.3125C84.7474 82.9844 84.7031 82.6901 84.625 82.4297C84.5469 82.1641 84.4375 81.9375 84.2969 81.75C84.1562 81.5625 83.974 81.4167 83.75 81.3125C83.526 81.2083 83.2604 81.1562 82.9531 81.1562C82.6562 81.1562 82.3984 81.224 82.1797 81.3594C81.9661 81.4896 81.7865 81.6693 81.6406 81.8984C81.5 82.1276 81.3932 82.3984 81.3203 82.7109C81.2474 83.0182 81.2109 83.3516 81.2109 83.7109ZM93 86.0938V82.3281C93 82.0573 92.9557 81.8255 92.8672 81.6328C92.7786 81.4349 92.6406 81.2812 92.4531 81.1719C92.2708 81.0625 92.0339 81.0078 91.7422 81.0078C91.4922 81.0078 91.276 81.0521 91.0938 81.1406C90.9115 81.224 90.7708 81.3464 90.6719 81.5078C90.5729 81.6641 90.5234 81.849 90.5234 82.0625H88.2734C88.2734 81.7031 88.3568 81.362 88.5234 81.0391C88.6901 80.7161 88.9323 80.4323 89.25 80.1875C89.5677 79.9375 89.9453 79.7422 90.3828 79.6016C90.8255 79.4609 91.3203 79.3906 91.8672 79.3906C92.5234 79.3906 93.1068 79.5 93.6172 79.7188C94.1276 79.9375 94.5286 80.2656 94.8203 80.7031C95.1172 81.1406 95.2656 81.6875 95.2656 82.3438V85.9609C95.2656 86.4245 95.2943 86.8047 95.3516 87.1016C95.4089 87.3932 95.4922 87.6484 95.6016 87.8672V88H93.3281C93.2188 87.7708 93.1354 87.4844 93.0781 87.1406C93.026 86.7917 93 86.4427 93 86.0938ZM93.2969 82.8516L93.3125 84.125H92.0547C91.7578 84.125 91.5 84.1589 91.2812 84.2266C91.0625 84.2943 90.8828 84.3906 90.7422 84.5156C90.6016 84.6354 90.4974 84.776 90.4297 84.9375C90.3672 85.099 90.3359 85.276 90.3359 85.4688C90.3359 85.6615 90.3802 85.8359 90.4688 85.9922C90.5573 86.1432 90.6849 86.263 90.8516 86.3516C91.0182 86.4349 91.2135 86.4766 91.4375 86.4766C91.776 86.4766 92.0703 86.4089 92.3203 86.2734C92.5703 86.138 92.763 85.9714 92.8984 85.7734C93.0391 85.5755 93.112 85.388 93.1172 85.2109L93.7109 86.1641C93.6276 86.3776 93.513 86.599 93.3672 86.8281C93.2266 87.0573 93.0469 87.2734 92.8281 87.4766C92.6094 87.6745 92.3464 87.8385 92.0391 87.9688C91.7318 88.0938 91.3672 88.1562 90.9453 88.1562C90.4089 88.1562 89.9219 88.0495 89.4844 87.8359C89.0521 87.6172 88.7083 87.3177 88.4531 86.9375C88.2031 86.5521 88.0781 86.1146 88.0781 85.625C88.0781 85.1823 88.1615 84.7891 88.3281 84.4453C88.4948 84.1016 88.7396 83.8125 89.0625 83.5781C89.3906 83.3385 89.7995 83.1589 90.2891 83.0391C90.7786 82.9141 91.3464 82.8516 91.9922 82.8516H93.2969ZM100.492 86.3984C100.768 86.3984 101.013 86.3464 101.227 86.2422C101.44 86.1328 101.607 85.9818 101.727 85.7891C101.852 85.5911 101.917 85.3594 101.922 85.0938H104.039C104.034 85.6875 103.875 86.2161 103.562 86.6797C103.25 87.138 102.831 87.5 102.305 87.7656C101.779 88.026 101.19 88.1562 100.539 88.1562C99.8828 88.1562 99.3099 88.0469 98.8203 87.8281C98.3359 87.6094 97.9323 87.3073 97.6094 86.9219C97.2865 86.5312 97.0443 86.0781 96.8828 85.5625C96.7214 85.0417 96.6406 84.4844 96.6406 83.8906V83.6641C96.6406 83.0651 96.7214 82.5078 96.8828 81.9922C97.0443 81.4714 97.2865 81.0182 97.6094 80.6328C97.9323 80.2422 98.3359 79.9375 98.8203 79.7188C99.3047 79.5 99.8724 79.3906 100.523 79.3906C101.216 79.3906 101.823 79.5234 102.344 79.7891C102.87 80.0547 103.281 80.4349 103.578 80.9297C103.88 81.4193 104.034 82 104.039 82.6719H101.922C101.917 82.3906 101.857 82.1354 101.742 81.9062C101.633 81.6771 101.471 81.4948 101.258 81.3594C101.049 81.2188 100.792 81.1484 100.484 81.1484C100.156 81.1484 99.888 81.2188 99.6797 81.3594C99.4714 81.4948 99.3099 81.6823 99.1953 81.9219C99.0807 82.1562 99 82.4245 98.9531 82.7266C98.9115 83.0234 98.8906 83.3359 98.8906 83.6641V83.8906C98.8906 84.2188 98.9115 84.5339 98.9531 84.8359C98.9948 85.138 99.0729 85.4062 99.1875 85.6406C99.3073 85.875 99.4714 86.0599 99.6797 86.1953C99.888 86.3307 100.159 86.3984 100.492 86.3984ZM107.719 79.5469V88H105.461V79.5469H107.719ZM105.32 77.3438C105.32 77.0156 105.435 76.7448 105.664 76.5312C105.893 76.3177 106.201 76.2109 106.586 76.2109C106.966 76.2109 107.271 76.3177 107.5 76.5312C107.734 76.7448 107.852 77.0156 107.852 77.3438C107.852 77.6719 107.734 77.9427 107.5 78.1562C107.271 78.3698 106.966 78.4766 106.586 78.4766C106.201 78.4766 105.893 78.3698 105.664 78.1562C105.435 77.9427 105.32 77.6719 105.32 77.3438ZM109.219 83.8594V83.6953C109.219 83.0755 109.307 82.5052 109.484 81.9844C109.661 81.4583 109.919 81.0026 110.258 80.6172C110.596 80.2318 111.013 79.9323 111.508 79.7188C112.003 79.5 112.57 79.3906 113.211 79.3906C113.852 79.3906 114.422 79.5 114.922 79.7188C115.422 79.9323 115.841 80.2318 116.18 80.6172C116.523 81.0026 116.784 81.4583 116.961 81.9844C117.138 82.5052 117.227 83.0755 117.227 83.6953V83.8594C117.227 84.474 117.138 85.0443 116.961 85.5703C116.784 86.0911 116.523 86.5469 116.18 86.9375C115.841 87.3229 115.424 87.6224 114.93 87.8359C114.435 88.0495 113.867 88.1562 113.227 88.1562C112.586 88.1562 112.016 88.0495 111.516 87.8359C111.021 87.6224 110.602 87.3229 110.258 86.9375C109.919 86.5469 109.661 86.0911 109.484 85.5703C109.307 85.0443 109.219 84.474 109.219 83.8594ZM111.469 83.6953V83.8594C111.469 84.2135 111.5 84.5443 111.562 84.8516C111.625 85.1589 111.724 85.4297 111.859 85.6641C112 85.8932 112.182 86.0729 112.406 86.2031C112.63 86.3333 112.904 86.3984 113.227 86.3984C113.539 86.3984 113.807 86.3333 114.031 86.2031C114.255 86.0729 114.435 85.8932 114.57 85.6641C114.706 85.4297 114.805 85.1589 114.867 84.8516C114.935 84.5443 114.969 84.2135 114.969 83.8594V83.6953C114.969 83.3516 114.935 83.0286 114.867 82.7266C114.805 82.4193 114.703 82.1484 114.562 81.9141C114.427 81.6745 114.247 81.487 114.023 81.3516C113.799 81.2161 113.529 81.1484 113.211 81.1484C112.893 81.1484 112.622 81.2161 112.398 81.3516C112.18 81.487 112 81.6745 111.859 81.9141C111.724 82.1484 111.625 82.4193 111.562 82.7266C111.5 83.0286 111.469 83.3516 111.469 83.6953ZM112.133 78.4062L113.664 76H116.109L113.961 78.4062H112.133ZM120.812 81.3516V88H118.562V79.5469H120.672L120.812 81.3516ZM120.484 83.4766H119.875C119.875 82.8516 119.956 82.2891 120.117 81.7891C120.279 81.2839 120.505 80.8542 120.797 80.5C121.089 80.1406 121.435 79.8672 121.836 79.6797C122.242 79.487 122.695 79.3906 123.195 79.3906C123.591 79.3906 123.953 79.4479 124.281 79.5625C124.609 79.6771 124.891 79.8594 125.125 80.1094C125.365 80.3594 125.547 80.6901 125.672 81.1016C125.802 81.513 125.867 82.0156 125.867 82.6094V88H123.602V82.6016C123.602 82.2266 123.549 81.9349 123.445 81.7266C123.341 81.5182 123.188 81.3724 122.984 81.2891C122.786 81.2005 122.542 81.1562 122.25 81.1562C121.948 81.1562 121.685 81.2161 121.461 81.3359C121.242 81.4557 121.06 81.6224 120.914 81.8359C120.773 82.0443 120.667 82.2891 120.594 82.5703C120.521 82.8516 120.484 83.1536 120.484 83.4766ZM134.07 87.0469L136.312 79.5469H138.727L135.328 89.2734C135.255 89.487 135.156 89.7161 135.031 89.9609C134.911 90.2057 134.747 90.4375 134.539 90.6562C134.336 90.8802 134.078 91.0625 133.766 91.2031C133.458 91.3438 133.081 91.4141 132.633 91.4141C132.419 91.4141 132.245 91.401 132.109 91.375C131.974 91.349 131.812 91.3125 131.625 91.2656V89.6172C131.682 89.6172 131.742 89.6172 131.805 89.6172C131.867 89.6224 131.927 89.625 131.984 89.625C132.281 89.625 132.523 89.5911 132.711 89.5234C132.898 89.4557 133.049 89.3516 133.164 89.2109C133.279 89.0755 133.37 88.8984 133.438 88.6797L134.07 87.0469ZM133.133 79.5469L134.969 85.6719L135.289 88.0547L133.758 88.2188L130.719 79.5469H133.133ZM52.0859 107H49.6094L49.625 105.172H52.0859C52.7005 105.172 53.2188 105.034 53.6406 104.758C54.0625 104.477 54.3802 104.068 54.5938 103.531C54.8125 102.995 54.9219 102.346 54.9219 101.586V101.031C54.9219 100.448 54.8594 99.9349 54.7344 99.4922C54.6146 99.0495 54.4349 98.6771 54.1953 98.375C53.9557 98.0729 53.6615 97.8464 53.3125 97.6953C52.9635 97.5391 52.5625 97.4609 52.1094 97.4609H49.5625V95.625H52.1094C52.8698 95.625 53.5651 95.7552 54.1953 96.0156C54.8307 96.2708 55.3802 96.638 55.8438 97.1172C56.3073 97.5964 56.6641 98.1693 56.9141 98.8359C57.1693 99.4974 57.2969 100.234 57.2969 101.047V101.586C57.2969 102.393 57.1693 103.13 56.9141 103.797C56.6641 104.464 56.3073 105.036 55.8438 105.516C55.3854 105.99 54.8359 106.357 54.1953 106.617C53.5599 106.872 52.8568 107 52.0859 107ZM50.9375 95.625V107H48.5938V95.625H50.9375ZM62.75 107.156C62.0938 107.156 61.5052 107.052 60.9844 106.844C60.4635 106.63 60.0208 106.336 59.6562 105.961C59.2969 105.586 59.0208 105.151 58.8281 104.656C58.6354 104.156 58.5391 103.625 58.5391 103.062V102.75C58.5391 102.109 58.6302 101.523 58.8125 100.992C58.9948 100.461 59.2552 100 59.5938 99.6094C59.9375 99.2188 60.3542 98.9193 60.8438 98.7109C61.3333 98.4974 61.8854 98.3906 62.5 98.3906C63.099 98.3906 63.6302 98.4896 64.0938 98.6875C64.5573 98.8854 64.9453 99.1667 65.2578 99.5312C65.5755 99.8958 65.8151 100.333 65.9766 100.844C66.138 101.349 66.2188 101.911 66.2188 102.531V103.469H59.5V101.969H64.0078V101.797C64.0078 101.484 63.9505 101.206 63.8359 100.961C63.7266 100.711 63.5599 100.513 63.3359 100.367C63.112 100.221 62.8255 100.148 62.4766 100.148C62.1797 100.148 61.9245 100.214 61.7109 100.344C61.4974 100.474 61.3229 100.656 61.1875 100.891C61.0573 101.125 60.9583 101.401 60.8906 101.719C60.8281 102.031 60.7969 102.375 60.7969 102.75V103.062C60.7969 103.401 60.8438 103.714 60.9375 104C61.0365 104.286 61.1745 104.534 61.3516 104.742C61.5339 104.951 61.7526 105.112 62.0078 105.227C62.2682 105.341 62.5625 105.398 62.8906 105.398C63.2969 105.398 63.6745 105.32 64.0234 105.164C64.3776 105.003 64.6823 104.76 64.9375 104.438L66.0312 105.625C65.8542 105.88 65.612 106.125 65.3047 106.359C65.0026 106.594 64.638 106.786 64.2109 106.938C63.7839 107.083 63.2969 107.156 62.75 107.156ZM72.0703 104.664C72.0703 104.503 72.0234 104.357 71.9297 104.227C71.8359 104.096 71.6615 103.977 71.4062 103.867C71.1562 103.753 70.7943 103.648 70.3203 103.555C69.8932 103.461 69.4948 103.344 69.125 103.203C68.7604 103.057 68.4427 102.883 68.1719 102.68C67.9062 102.477 67.6979 102.237 67.5469 101.961C67.3958 101.68 67.3203 101.359 67.3203 101C67.3203 100.646 67.3958 100.312 67.5469 100C67.7031 99.6875 67.9245 99.4115 68.2109 99.1719C68.5026 98.9271 68.8568 98.737 69.2734 98.6016C69.6953 98.4609 70.1693 98.3906 70.6953 98.3906C71.4297 98.3906 72.0599 98.5078 72.5859 98.7422C73.1172 98.9766 73.5234 99.2995 73.8047 99.7109C74.0911 100.117 74.2344 100.581 74.2344 101.102H71.9844C71.9844 100.883 71.9375 100.688 71.8438 100.516C71.7552 100.339 71.6146 100.201 71.4219 100.102C71.2344 99.9974 70.9896 99.9453 70.6875 99.9453C70.4375 99.9453 70.2214 99.9896 70.0391 100.078C69.8568 100.161 69.7161 100.276 69.6172 100.422C69.5234 100.562 69.4766 100.719 69.4766 100.891C69.4766 101.021 69.5026 101.138 69.5547 101.242C69.612 101.341 69.7031 101.432 69.8281 101.516C69.9531 101.599 70.1146 101.677 70.3125 101.75C70.5156 101.818 70.7656 101.88 71.0625 101.938C71.6719 102.062 72.2161 102.227 72.6953 102.43C73.1745 102.628 73.5547 102.898 73.8359 103.242C74.1172 103.581 74.2578 104.026 74.2578 104.578C74.2578 104.953 74.1745 105.297 74.0078 105.609C73.8411 105.922 73.6016 106.195 73.2891 106.43C72.9766 106.659 72.6016 106.839 72.1641 106.969C71.7318 107.094 71.2448 107.156 70.7031 107.156C69.9167 107.156 69.25 107.016 68.7031 106.734C68.1615 106.453 67.75 106.096 67.4688 105.664C67.1927 105.227 67.0547 104.779 67.0547 104.32H69.1875C69.1979 104.628 69.276 104.875 69.4219 105.062C69.5729 105.25 69.763 105.385 69.9922 105.469C70.2266 105.552 70.4792 105.594 70.75 105.594C71.0417 105.594 71.2839 105.555 71.4766 105.477C71.6693 105.393 71.8151 105.284 71.9141 105.148C72.0182 105.008 72.0703 104.846 72.0703 104.664ZM80.2812 105.094V101.328C80.2812 101.057 80.237 100.826 80.1484 100.633C80.0599 100.435 79.9219 100.281 79.7344 100.172C79.5521 100.062 79.3151 100.008 79.0234 100.008C78.7734 100.008 78.5573 100.052 78.375 100.141C78.1927 100.224 78.0521 100.346 77.9531 100.508C77.8542 100.664 77.8047 100.849 77.8047 101.062H75.5547C75.5547 100.703 75.638 100.362 75.8047 100.039C75.9714 99.7161 76.2135 99.4323 76.5312 99.1875C76.849 98.9375 77.2266 98.7422 77.6641 98.6016C78.1068 98.4609 78.6016 98.3906 79.1484 98.3906C79.8047 98.3906 80.388 98.5 80.8984 98.7188C81.4089 98.9375 81.8099 99.2656 82.1016 99.7031C82.3984 100.141 82.5469 100.688 82.5469 101.344V104.961C82.5469 105.424 82.5755 105.805 82.6328 106.102C82.6901 106.393 82.7734 106.648 82.8828 106.867V107H80.6094C80.5 106.771 80.4167 106.484 80.3594 106.141C80.3073 105.792 80.2812 105.443 80.2812 105.094ZM80.5781 101.852L80.5938 103.125H79.3359C79.0391 103.125 78.7812 103.159 78.5625 103.227C78.3438 103.294 78.1641 103.391 78.0234 103.516C77.8828 103.635 77.7786 103.776 77.7109 103.938C77.6484 104.099 77.6172 104.276 77.6172 104.469C77.6172 104.661 77.6615 104.836 77.75 104.992C77.8385 105.143 77.9661 105.263 78.1328 105.352C78.2995 105.435 78.4948 105.477 78.7188 105.477C79.0573 105.477 79.3516 105.409 79.6016 105.273C79.8516 105.138 80.0443 104.971 80.1797 104.773C80.3203 104.576 80.3932 104.388 80.3984 104.211L80.9922 105.164C80.9089 105.378 80.7943 105.599 80.6484 105.828C80.5078 106.057 80.3281 106.273 80.1094 106.477C79.8906 106.674 79.6276 106.839 79.3203 106.969C79.013 107.094 78.6484 107.156 78.2266 107.156C77.6901 107.156 77.2031 107.049 76.7656 106.836C76.3333 106.617 75.9896 106.318 75.7344 105.938C75.4844 105.552 75.3594 105.115 75.3594 104.625C75.3594 104.182 75.4427 103.789 75.6094 103.445C75.776 103.102 76.0208 102.812 76.3438 102.578C76.6719 102.339 77.0807 102.159 77.5703 102.039C78.0599 101.914 78.6276 101.852 79.2734 101.852H80.5781ZM86.5312 100.391V107H84.2812V98.5469H86.3984L86.5312 100.391ZM89.0781 98.4922L89.0391 100.578C88.9297 100.562 88.7969 100.549 88.6406 100.539C88.4896 100.523 88.3516 100.516 88.2266 100.516C87.9089 100.516 87.6328 100.557 87.3984 100.641C87.1693 100.719 86.9766 100.836 86.8203 100.992C86.6693 101.148 86.5547 101.339 86.4766 101.562C86.4036 101.786 86.362 102.042 86.3516 102.328L85.8984 102.188C85.8984 101.641 85.9531 101.138 86.0625 100.68C86.1719 100.216 86.3307 99.8125 86.5391 99.4688C86.7526 99.125 87.013 98.8594 87.3203 98.6719C87.6276 98.4844 87.9792 98.3906 88.375 98.3906C88.5 98.3906 88.6276 98.401 88.7578 98.4219C88.888 98.4375 88.9948 98.4609 89.0781 98.4922ZM92.3906 100.391V107H90.1406V98.5469H92.2578L92.3906 100.391ZM94.9375 98.4922L94.8984 100.578C94.7891 100.562 94.6562 100.549 94.5 100.539C94.349 100.523 94.2109 100.516 94.0859 100.516C93.7682 100.516 93.4922 100.557 93.2578 100.641C93.0286 100.719 92.8359 100.836 92.6797 100.992C92.5286 101.148 92.4141 101.339 92.3359 101.562C92.263 101.786 92.2214 102.042 92.2109 102.328L91.7578 102.188C91.7578 101.641 91.8125 101.138 91.9219 100.68C92.0312 100.216 92.1901 99.8125 92.3984 99.4688C92.612 99.125 92.8724 98.8594 93.1797 98.6719C93.487 98.4844 93.8385 98.3906 94.2344 98.3906C94.3594 98.3906 94.487 98.401 94.6172 98.4219C94.7474 98.4375 94.8542 98.4609 94.9375 98.4922ZM95.4062 102.859V102.695C95.4062 102.076 95.4948 101.505 95.6719 100.984C95.849 100.458 96.1068 100.003 96.4453 99.6172C96.7839 99.2318 97.2005 98.9323 97.6953 98.7188C98.1901 98.5 98.7578 98.3906 99.3984 98.3906C100.039 98.3906 100.609 98.5 101.109 98.7188C101.609 98.9323 102.029 99.2318 102.367 99.6172C102.711 100.003 102.971 100.458 103.148 100.984C103.326 101.505 103.414 102.076 103.414 102.695V102.859C103.414 103.474 103.326 104.044 103.148 104.57C102.971 105.091 102.711 105.547 102.367 105.938C102.029 106.323 101.612 106.622 101.117 106.836C100.622 107.049 100.055 107.156 99.4141 107.156C98.7734 107.156 98.2031 107.049 97.7031 106.836C97.2083 106.622 96.7891 106.323 96.4453 105.938C96.1068 105.547 95.849 105.091 95.6719 104.57C95.4948 104.044 95.4062 103.474 95.4062 102.859ZM97.6562 102.695V102.859C97.6562 103.214 97.6875 103.544 97.75 103.852C97.8125 104.159 97.9115 104.43 98.0469 104.664C98.1875 104.893 98.3698 105.073 98.5938 105.203C98.8177 105.333 99.0911 105.398 99.4141 105.398C99.7266 105.398 99.9948 105.333 100.219 105.203C100.443 105.073 100.622 104.893 100.758 104.664C100.893 104.43 100.992 104.159 101.055 103.852C101.122 103.544 101.156 103.214 101.156 102.859V102.695C101.156 102.352 101.122 102.029 101.055 101.727C100.992 101.419 100.891 101.148 100.75 100.914C100.615 100.674 100.435 100.487 100.211 100.352C99.987 100.216 99.7161 100.148 99.3984 100.148C99.0807 100.148 98.8099 100.216 98.5859 100.352C98.3672 100.487 98.1875 100.674 98.0469 100.914C97.9115 101.148 97.8125 101.419 97.75 101.727C97.6875 102.029 97.6562 102.352 97.6562 102.695ZM107.172 95V107H104.914V95H107.172ZM111.406 95V107H109.148V95H111.406ZM112.906 102.859V102.695C112.906 102.076 112.995 101.505 113.172 100.984C113.349 100.458 113.607 100.003 113.945 99.6172C114.284 99.2318 114.701 98.9323 115.195 98.7188C115.69 98.5 116.258 98.3906 116.898 98.3906C117.539 98.3906 118.109 98.5 118.609 98.7188C119.109 98.9323 119.529 99.2318 119.867 99.6172C120.211 100.003 120.471 100.458 120.648 100.984C120.826 101.505 120.914 102.076 120.914 102.695V102.859C120.914 103.474 120.826 104.044 120.648 104.57C120.471 105.091 120.211 105.547 119.867 105.938C119.529 106.323 119.112 106.622 118.617 106.836C118.122 107.049 117.555 107.156 116.914 107.156C116.273 107.156 115.703 107.049 115.203 106.836C114.708 106.622 114.289 106.323 113.945 105.938C113.607 105.547 113.349 105.091 113.172 104.57C112.995 104.044 112.906 103.474 112.906 102.859ZM115.156 102.695V102.859C115.156 103.214 115.188 103.544 115.25 103.852C115.312 104.159 115.411 104.43 115.547 104.664C115.688 104.893 115.87 105.073 116.094 105.203C116.318 105.333 116.591 105.398 116.914 105.398C117.227 105.398 117.495 105.333 117.719 105.203C117.943 105.073 118.122 104.893 118.258 104.664C118.393 104.43 118.492 104.159 118.555 103.852C118.622 103.544 118.656 103.214 118.656 102.859V102.695C118.656 102.352 118.622 102.029 118.555 101.727C118.492 101.419 118.391 101.148 118.25 100.914C118.115 100.674 117.935 100.487 117.711 100.352C117.487 100.216 117.216 100.148 116.898 100.148C116.581 100.148 116.31 100.216 116.086 100.352C115.867 100.487 115.688 100.674 115.547 100.914C115.411 101.148 115.312 101.419 115.25 101.727C115.188 102.029 115.156 102.352 115.156 102.695Z" fill="white"/>
<path d="M61.747 27.2814C61.747 24.8198 62.7249 22.459 64.4656 20.7185C66.2063 18.9779 68.5672 18 71.0289 18H99.7182C102.18 18 104.541 18.9779 106.281 20.7185C108.022 22.459 109 24.8198 109 27.2814V55.9693C109 58.4309 108.022 60.7916 106.281 62.5322C104.541 64.2728 102.18 65.2507 99.7182 65.2507H85.7819L80.5166 59.9856C81.2502 58.4553 81.7203 56.8122 81.9072 55.1255H97.1868C97.6343 55.1255 98.0636 54.9477 98.3801 54.6313C98.6966 54.3148 98.8744 53.8856 98.8744 53.438C98.8744 52.9904 98.6966 52.5612 98.3801 52.2447C98.0636 51.9283 97.6343 51.7505 97.1868 51.7505H81.9072C81.6538 49.477 80.8901 47.2901 79.6731 45.353C78.4561 43.416 76.8172 41.7789 74.8789 40.564C72.9405 39.349 70.7527 38.5876 68.4788 38.3366C66.205 38.0856 63.9038 38.3514 61.747 39.1143V27.2814ZM74.4041 34.8752C75.0755 34.8752 75.7193 34.6085 76.1941 34.1338C76.6688 33.6591 76.9355 33.0153 76.9355 32.3439C76.9355 31.6726 76.6688 31.0288 76.1941 30.5541C75.7193 30.0794 75.0755 29.8127 74.4041 29.8127C73.7327 29.8127 73.0888 30.0794 72.6141 30.5541C72.1394 31.0288 71.8727 31.6726 71.8727 32.3439C71.8727 33.0153 72.1394 33.6591 72.6141 34.1338C73.0888 34.6085 73.7327 34.8752 74.4041 34.8752ZM81.9983 33.1877C81.9983 33.6353 82.1761 34.0645 82.4926 34.381C82.8091 34.6974 83.2383 34.8752 83.6859 34.8752H97.1868C97.6343 34.8752 98.0636 34.6974 98.3801 34.381C98.6966 34.0645 98.8744 33.6353 98.8744 33.1877C98.8744 32.7402 98.6966 32.3109 98.3801 31.9945C98.0636 31.678 97.6343 31.5002 97.1868 31.5002H83.6859C83.2383 31.5002 82.8091 31.678 82.4926 31.9945C82.1761 32.3109 81.9983 32.7402 81.9983 33.1877ZM83.6859 41.6253C83.2383 41.6253 82.8091 41.8031 82.4926 42.1196C82.1761 42.4361 81.9983 42.8653 81.9983 43.3129C81.9983 43.7604 82.1761 44.1896 82.4926 44.5061C82.8091 44.8226 83.2383 45.0004 83.6859 45.0004H97.1868C97.6343 45.0004 98.0636 44.8226 98.3801 44.5061C98.6966 44.1896 98.8744 43.7604 98.8744 43.3129C98.8744 42.8653 98.6966 42.4361 98.3801 42.1196C98.0636 41.8031 97.6343 41.6253 97.1868 41.6253H83.6859ZM66.8099 65.2507C69.4628 65.2507 71.9132 64.3731 73.8843 62.8982L82.4911 71.5046C82.6478 71.6615 82.8338 71.786 83.0386 71.871C83.2434 71.956 83.463 71.9998 83.6847 72C83.9065 72.0002 84.1261 71.9566 84.331 71.8719C84.5359 71.7872 84.7221 71.663 84.8791 71.5063C85.036 71.3496 85.1605 71.1636 85.2455 70.9588C85.3305 70.754 85.3743 70.5345 85.3745 70.3127C85.3746 70.091 85.3311 69.8714 85.2464 69.6665C85.1617 69.4616 85.0374 69.2754 84.8807 69.1185L76.274 60.5121C77.8671 58.3817 78.6945 55.7759 78.6221 53.1167C78.5498 50.4576 77.5819 47.9006 75.8753 45.86C74.1687 43.8194 71.8232 42.4145 69.2187 41.8728C66.6141 41.3311 63.9029 41.6844 61.5242 42.8754C59.1454 44.0665 57.2383 46.0255 56.1117 48.4353C54.985 50.8451 54.7048 53.5647 55.3164 56.1536C55.928 58.7425 57.3956 61.0492 59.4815 62.7002C61.5674 64.3513 64.1496 65.2499 66.8099 65.2507ZM66.8099 61.8756C64.572 61.8756 62.4257 60.9866 60.8433 59.4043C59.2608 57.8219 58.3718 55.6758 58.3718 53.438C58.3718 51.2002 59.2608 49.0541 60.8433 47.4717C62.4257 45.8893 64.572 45.0004 66.8099 45.0004C69.0478 45.0004 71.194 45.8893 72.7764 47.4717C74.3589 49.0541 75.2479 51.2002 75.2479 53.438C75.2479 55.6758 74.3589 57.8219 72.7764 59.4043C71.194 60.9866 69.0478 61.8756 66.8099 61.8756Z" fill="white"/>
</svg>
