<svg width="169" height="130" viewBox="0 0 169 130" fill="none" xmlns="http://www.w3.org/2000/svg">
<rect x="0.25" y="0.25" width="168.5" height="129.5" rx="9.75" fill="white" stroke="#2A6D4C" stroke-width="0.5"/>
<path d="M55.375 82.0547V86.5625C55.1979 86.776 54.9245 87.0078 54.5547 87.2578C54.1849 87.5026 53.7083 87.7135 53.125 87.8906C52.5417 88.0677 51.8359 88.1562 51.0078 88.1562C50.2734 88.1562 49.6042 88.0365 49 87.7969C48.3958 87.5521 47.875 87.1953 47.4375 86.7266C47.0052 86.2578 46.6719 85.6849 46.4375 85.0078C46.2031 84.3255 46.0859 83.5469 46.0859 82.6719V81.9609C46.0859 81.0859 46.1979 80.3073 46.4219 79.625C46.651 78.9427 46.9766 78.3672 47.3984 77.8984C47.8203 77.4297 48.3229 77.0729 48.9062 76.8281C49.4896 76.5833 50.138 76.4609 50.8516 76.4609C51.8411 76.4609 52.6536 76.6224 53.2891 76.9453C53.9245 77.263 54.4089 77.7057 54.7422 78.2734C55.0807 78.8359 55.2891 79.4818 55.3672 80.2109H53.0938C53.0365 79.8255 52.9271 79.4896 52.7656 79.2031C52.6042 78.9167 52.3724 78.6927 52.0703 78.5312C51.7734 78.3698 51.388 78.2891 50.9141 78.2891C50.5234 78.2891 50.1745 78.3698 49.8672 78.5312C49.5651 78.6875 49.3099 78.9193 49.1016 79.2266C48.8932 79.5339 48.7344 79.9141 48.625 80.3672C48.5156 80.8203 48.4609 81.3464 48.4609 81.9453V82.6719C48.4609 83.2656 48.5182 83.7917 48.6328 84.25C48.7474 84.7031 48.9167 85.0859 49.1406 85.3984C49.3698 85.7057 49.651 85.9375 49.9844 86.0938C50.3177 86.25 50.7057 86.3281 51.1484 86.3281C51.5182 86.3281 51.8255 86.2969 52.0703 86.2344C52.3203 86.1719 52.5208 86.0964 52.6719 86.0078C52.8281 85.9141 52.9479 85.8255 53.0312 85.7422V83.7266H50.8906V82.0547H55.375ZM59.375 81.3906V88H57.125V79.5469H59.2422L59.375 81.3906ZM61.9219 79.4922L61.8828 81.5781C61.7734 81.5625 61.6406 81.5495 61.4844 81.5391C61.3333 81.5234 61.1953 81.5156 61.0703 81.5156C60.7526 81.5156 60.4766 81.5573 60.2422 81.6406C60.013 81.7188 59.8203 81.8359 59.6641 81.9922C59.513 82.1484 59.3984 82.3385 59.3203 82.5625C59.2474 82.7865 59.2057 83.0417 59.1953 83.3281L58.7422 83.1875C58.7422 82.6406 58.7969 82.138 58.9062 81.6797C59.0156 81.2161 59.1745 80.8125 59.3828 80.4688C59.5964 80.125 59.8568 79.8594 60.1641 79.6719C60.4714 79.4844 60.8229 79.3906 61.2188 79.3906C61.3438 79.3906 61.4714 79.401 61.6016 79.4219C61.7318 79.4375 61.8385 79.4609 61.9219 79.4922ZM67.2812 86.0938V82.3281C67.2812 82.0573 67.237 81.8255 67.1484 81.6328C67.0599 81.4349 66.9219 81.2812 66.7344 81.1719C66.5521 81.0625 66.3151 81.0078 66.0234 81.0078C65.7734 81.0078 65.5573 81.0521 65.375 81.1406C65.1927 81.224 65.0521 81.3464 64.9531 81.5078C64.8542 81.6641 64.8047 81.849 64.8047 82.0625H62.5547C62.5547 81.7031 62.638 81.362 62.8047 81.0391C62.9714 80.7161 63.2135 80.4323 63.5312 80.1875C63.849 79.9375 64.2266 79.7422 64.6641 79.6016C65.1068 79.4609 65.6016 79.3906 66.1484 79.3906C66.8047 79.3906 67.388 79.5 67.8984 79.7188C68.4089 79.9375 68.8099 80.2656 69.1016 80.7031C69.3984 81.1406 69.5469 81.6875 69.5469 82.3438V85.9609C69.5469 86.4245 69.5755 86.8047 69.6328 87.1016C69.6901 87.3932 69.7734 87.6484 69.8828 87.8672V88H67.6094C67.5 87.7708 67.4167 87.4844 67.3594 87.1406C67.3073 86.7917 67.2812 86.4427 67.2812 86.0938ZM67.5781 82.8516L67.5938 84.125H66.3359C66.0391 84.125 65.7812 84.1589 65.5625 84.2266C65.3438 84.2943 65.1641 84.3906 65.0234 84.5156C64.8828 84.6354 64.7786 84.776 64.7109 84.9375C64.6484 85.099 64.6172 85.276 64.6172 85.4688C64.6172 85.6615 64.6615 85.8359 64.75 85.9922C64.8385 86.1432 64.9661 86.263 65.1328 86.3516C65.2995 86.4349 65.4948 86.4766 65.7188 86.4766C66.0573 86.4766 66.3516 86.4089 66.6016 86.2734C66.8516 86.138 67.0443 85.9714 67.1797 85.7734C67.3203 85.5755 67.3932 85.388 67.3984 85.2109L67.9922 86.1641C67.9089 86.3776 67.7943 86.599 67.6484 86.8281C67.5078 87.0573 67.3281 87.2734 67.1094 87.4766C66.8906 87.6745 66.6276 87.8385 66.3203 87.9688C66.013 88.0938 65.6484 88.1562 65.2266 88.1562C64.6901 88.1562 64.2031 88.0495 63.7656 87.8359C63.3333 87.6172 62.9896 87.3177 62.7344 86.9375C62.4844 86.5521 62.3594 86.1146 62.3594 85.625C62.3594 85.1823 62.4427 84.7891 62.6094 84.4453C62.776 84.1016 63.0208 83.8125 63.3438 83.5781C63.6719 83.3385 64.0807 83.1589 64.5703 83.0391C65.0599 82.9141 65.6276 82.8516 66.2734 82.8516H67.5781ZM74.1484 88H71.8828V78.7969C71.8828 78.1562 72.0078 77.6172 72.2578 77.1797C72.513 76.737 72.8698 76.4036 73.3281 76.1797C73.7917 75.9505 74.3411 75.8359 74.9766 75.8359C75.1849 75.8359 75.3854 75.8516 75.5781 75.8828C75.7708 75.9089 75.9583 75.9427 76.1406 75.9844L76.1172 77.6797C76.0182 77.6536 75.9141 77.6354 75.8047 77.625C75.6953 77.6146 75.5677 77.6094 75.4219 77.6094C75.151 77.6094 74.9193 77.6562 74.7266 77.75C74.5391 77.8385 74.3958 77.9714 74.2969 78.1484C74.1979 78.3255 74.1484 78.5417 74.1484 78.7969V88ZM75.8359 79.5469V81.1406H70.625V79.5469H75.8359ZM76.6562 83.8594V83.6953C76.6562 83.0755 76.7448 82.5052 76.9219 81.9844C77.099 81.4583 77.3568 81.0026 77.6953 80.6172C78.0339 80.2318 78.4505 79.9323 78.9453 79.7188C79.4401 79.5 80.0078 79.3906 80.6484 79.3906C81.2891 79.3906 81.8594 79.5 82.3594 79.7188C82.8594 79.9323 83.2786 80.2318 83.6172 80.6172C83.9609 81.0026 84.2214 81.4583 84.3984 81.9844C84.5755 82.5052 84.6641 83.0755 84.6641 83.6953V83.8594C84.6641 84.474 84.5755 85.0443 84.3984 85.5703C84.2214 86.0911 83.9609 86.5469 83.6172 86.9375C83.2786 87.3229 82.862 87.6224 82.3672 87.8359C81.8724 88.0495 81.3047 88.1562 80.6641 88.1562C80.0234 88.1562 79.4531 88.0495 78.9531 87.8359C78.4583 87.6224 78.0391 87.3229 77.6953 86.9375C77.3568 86.5469 77.099 86.0911 76.9219 85.5703C76.7448 85.0443 76.6562 84.474 76.6562 83.8594ZM78.9062 83.6953V83.8594C78.9062 84.2135 78.9375 84.5443 79 84.8516C79.0625 85.1589 79.1615 85.4297 79.2969 85.6641C79.4375 85.8932 79.6198 86.0729 79.8438 86.2031C80.0677 86.3333 80.3411 86.3984 80.6641 86.3984C80.9766 86.3984 81.2448 86.3333 81.4688 86.2031C81.6927 86.0729 81.8724 85.8932 82.0078 85.6641C82.1432 85.4297 82.2422 85.1589 82.3047 84.8516C82.3724 84.5443 82.4062 84.2135 82.4062 83.8594V83.6953C82.4062 83.3516 82.3724 83.0286 82.3047 82.7266C82.2422 82.4193 82.1406 82.1484 82 81.9141C81.8646 81.6745 81.6849 81.487 81.4609 81.3516C81.237 81.2161 80.9661 81.1484 80.6484 81.1484C80.3307 81.1484 80.0599 81.2161 79.8359 81.3516C79.6172 81.487 79.4375 81.6745 79.2969 81.9141C79.1615 82.1484 79.0625 82.4193 79 82.7266C78.9375 83.0286 78.9062 83.3516 78.9062 83.6953ZM88.4219 76V88H86.1641V76H88.4219ZM92.6562 79.5469V88H90.3984V79.5469H92.6562ZM90.2578 77.3438C90.2578 77.0156 90.3724 76.7448 90.6016 76.5312C90.8307 76.3177 91.138 76.2109 91.5234 76.2109C91.9036 76.2109 92.2083 76.3177 92.4375 76.5312C92.6719 76.7448 92.7891 77.0156 92.7891 77.3438C92.7891 77.6719 92.6719 77.9427 92.4375 78.1562C92.2083 78.3698 91.9036 78.4766 91.5234 78.4766C91.138 78.4766 90.8307 78.3698 90.6016 78.1562C90.3724 77.9427 90.2578 77.6719 90.2578 77.3438ZM98.6562 79.5469V81.1406H93.7344V79.5469H98.6562ZM94.9531 77.4609H97.2031V85.4531C97.2031 85.6979 97.2344 85.8854 97.2969 86.0156C97.3646 86.1458 97.4635 86.237 97.5938 86.2891C97.724 86.3359 97.888 86.3594 98.0859 86.3594C98.2266 86.3594 98.3516 86.3542 98.4609 86.3438C98.5755 86.3281 98.6719 86.3125 98.75 86.2969L98.7578 87.9531C98.5651 88.0156 98.3568 88.0651 98.1328 88.1016C97.9089 88.138 97.6615 88.1562 97.3906 88.1562C96.8958 88.1562 96.4635 88.0755 96.0938 87.9141C95.7292 87.7474 95.4479 87.4818 95.25 87.1172C95.0521 86.7526 94.9531 86.2734 94.9531 85.6797V77.4609ZM104.5 86.0938V82.3281C104.5 82.0573 104.456 81.8255 104.367 81.6328C104.279 81.4349 104.141 81.2812 103.953 81.1719C103.771 81.0625 103.534 81.0078 103.242 81.0078C102.992 81.0078 102.776 81.0521 102.594 81.1406C102.411 81.224 102.271 81.3464 102.172 81.5078C102.073 81.6641 102.023 81.849 102.023 82.0625H99.7734C99.7734 81.7031 99.8568 81.362 100.023 81.0391C100.19 80.7161 100.432 80.4323 100.75 80.1875C101.068 79.9375 101.445 79.7422 101.883 79.6016C102.326 79.4609 102.82 79.3906 103.367 79.3906C104.023 79.3906 104.607 79.5 105.117 79.7188C105.628 79.9375 106.029 80.2656 106.32 80.7031C106.617 81.1406 106.766 81.6875 106.766 82.3438V85.9609C106.766 86.4245 106.794 86.8047 106.852 87.1016C106.909 87.3932 106.992 87.6484 107.102 87.8672V88H104.828C104.719 87.7708 104.635 87.4844 104.578 87.1406C104.526 86.7917 104.5 86.4427 104.5 86.0938ZM104.797 82.8516L104.812 84.125H103.555C103.258 84.125 103 84.1589 102.781 84.2266C102.562 84.2943 102.383 84.3906 102.242 84.5156C102.102 84.6354 101.997 84.776 101.93 84.9375C101.867 85.099 101.836 85.276 101.836 85.4688C101.836 85.6615 101.88 85.8359 101.969 85.9922C102.057 86.1432 102.185 86.263 102.352 86.3516C102.518 86.4349 102.714 86.4766 102.938 86.4766C103.276 86.4766 103.57 86.4089 103.82 86.2734C104.07 86.138 104.263 85.9714 104.398 85.7734C104.539 85.5755 104.612 85.388 104.617 85.2109L105.211 86.1641C105.128 86.3776 105.013 86.599 104.867 86.8281C104.727 87.0573 104.547 87.2734 104.328 87.4766C104.109 87.6745 103.846 87.8385 103.539 87.9688C103.232 88.0938 102.867 88.1562 102.445 88.1562C101.909 88.1562 101.422 88.0495 100.984 87.8359C100.552 87.6172 100.208 87.3177 99.9531 86.9375C99.7031 86.5521 99.5781 86.1146 99.5781 85.625C99.5781 85.1823 99.6615 84.7891 99.8281 84.4453C99.9948 84.1016 100.24 83.8125 100.562 83.5781C100.891 83.3385 101.299 83.1589 101.789 83.0391C102.279 82.9141 102.846 82.8516 103.492 82.8516H104.797ZM114.992 87.0469L117.234 79.5469H119.648L116.25 89.2734C116.177 89.487 116.078 89.7161 115.953 89.9609C115.833 90.2057 115.669 90.4375 115.461 90.6562C115.258 90.8802 115 91.0625 114.688 91.2031C114.38 91.3438 114.003 91.4141 113.555 91.4141C113.341 91.4141 113.167 91.401 113.031 91.375C112.896 91.349 112.734 91.3125 112.547 91.2656V89.6172C112.604 89.6172 112.664 89.6172 112.727 89.6172C112.789 89.6224 112.849 89.625 112.906 89.625C113.203 89.625 113.445 89.5911 113.633 89.5234C113.82 89.4557 113.971 89.3516 114.086 89.2109C114.201 89.0755 114.292 88.8984 114.359 88.6797L114.992 87.0469ZM114.055 79.5469L115.891 85.6719L116.211 88.0547L114.68 88.2188L111.641 79.5469H114.055ZM49.3047 103.227H51.6406C51.5938 103.992 51.3828 104.672 51.0078 105.266C50.638 105.859 50.1198 106.323 49.4531 106.656C48.7917 106.99 47.9948 107.156 47.0625 107.156C46.3333 107.156 45.6797 107.031 45.1016 106.781C44.5234 106.526 44.0286 106.161 43.6172 105.688C43.2109 105.214 42.901 104.641 42.6875 103.969C42.474 103.297 42.3672 102.544 42.3672 101.711V100.922C42.3672 100.089 42.4766 99.3359 42.6953 98.6641C42.9193 97.987 43.237 97.4115 43.6484 96.9375C44.0651 96.4635 44.5625 96.099 45.1406 95.8438C45.7188 95.5885 46.3646 95.4609 47.0781 95.4609C48.026 95.4609 48.8255 95.6328 49.4766 95.9766C50.1328 96.3203 50.6406 96.7943 51 97.3984C51.3646 98.0026 51.5833 98.6901 51.6562 99.4609H49.3125C49.2865 99.0026 49.1953 98.6146 49.0391 98.2969C48.8828 97.974 48.6458 97.7318 48.3281 97.5703C48.0156 97.4036 47.599 97.3203 47.0781 97.3203C46.6875 97.3203 46.3464 97.3932 46.0547 97.5391C45.763 97.6849 45.5182 97.9062 45.3203 98.2031C45.1224 98.5 44.974 98.875 44.875 99.3281C44.7812 99.776 44.7344 100.302 44.7344 100.906V101.711C44.7344 102.299 44.7786 102.818 44.8672 103.266C44.9557 103.708 45.0911 104.083 45.2734 104.391C45.4609 104.693 45.7005 104.922 45.9922 105.078C46.2891 105.229 46.6458 105.305 47.0625 105.305C47.5521 105.305 47.9557 105.227 48.2734 105.07C48.5911 104.914 48.8333 104.682 49 104.375C49.1719 104.068 49.2734 103.685 49.3047 103.227ZM57.6016 105.094V101.328C57.6016 101.057 57.5573 100.826 57.4688 100.633C57.3802 100.435 57.2422 100.281 57.0547 100.172C56.8724 100.062 56.6354 100.008 56.3438 100.008C56.0938 100.008 55.8776 100.052 55.6953 100.141C55.513 100.224 55.3724 100.346 55.2734 100.508C55.1745 100.664 55.125 100.849 55.125 101.062H52.875C52.875 100.703 52.9583 100.362 53.125 100.039C53.2917 99.7161 53.5339 99.4323 53.8516 99.1875C54.1693 98.9375 54.5469 98.7422 54.9844 98.6016C55.4271 98.4609 55.9219 98.3906 56.4688 98.3906C57.125 98.3906 57.7083 98.5 58.2188 98.7188C58.7292 98.9375 59.1302 99.2656 59.4219 99.7031C59.7188 100.141 59.8672 100.688 59.8672 101.344V104.961C59.8672 105.424 59.8958 105.805 59.9531 106.102C60.0104 106.393 60.0938 106.648 60.2031 106.867V107H57.9297C57.8203 106.771 57.737 106.484 57.6797 106.141C57.6276 105.792 57.6016 105.443 57.6016 105.094ZM57.8984 101.852L57.9141 103.125H56.6562C56.3594 103.125 56.1016 103.159 55.8828 103.227C55.6641 103.294 55.4844 103.391 55.3438 103.516C55.2031 103.635 55.099 103.776 55.0312 103.938C54.9688 104.099 54.9375 104.276 54.9375 104.469C54.9375 104.661 54.9818 104.836 55.0703 104.992C55.1589 105.143 55.2865 105.263 55.4531 105.352C55.6198 105.435 55.8151 105.477 56.0391 105.477C56.3776 105.477 56.6719 105.409 56.9219 105.273C57.1719 105.138 57.3646 104.971 57.5 104.773C57.6406 104.576 57.7135 104.388 57.7188 104.211L58.3125 105.164C58.2292 105.378 58.1146 105.599 57.9688 105.828C57.8281 106.057 57.6484 106.273 57.4297 106.477C57.2109 106.674 56.9479 106.839 56.6406 106.969C56.3333 107.094 55.9688 107.156 55.5469 107.156C55.0104 107.156 54.5234 107.049 54.0859 106.836C53.6536 106.617 53.3099 106.318 53.0547 105.938C52.8047 105.552 52.6797 105.115 52.6797 104.625C52.6797 104.182 52.763 103.789 52.9297 103.445C53.0964 103.102 53.3411 102.812 53.6641 102.578C53.9922 102.339 54.401 102.159 54.8906 102.039C55.3802 101.914 55.9479 101.852 56.5938 101.852H57.8984ZM63.8516 100.391V107H61.6016V98.5469H63.7188L63.8516 100.391ZM66.3984 98.4922L66.3594 100.578C66.25 100.562 66.1172 100.549 65.9609 100.539C65.8099 100.523 65.6719 100.516 65.5469 100.516C65.2292 100.516 64.9531 100.557 64.7188 100.641C64.4896 100.719 64.2969 100.836 64.1406 100.992C63.9896 101.148 63.875 101.339 63.7969 101.562C63.724 101.786 63.6823 102.042 63.6719 102.328L63.2188 102.188C63.2188 101.641 63.2734 101.138 63.3828 100.68C63.4922 100.216 63.651 99.8125 63.8594 99.4688C64.0729 99.125 64.3333 98.8594 64.6406 98.6719C64.9479 98.4844 65.2995 98.3906 65.6953 98.3906C65.8203 98.3906 65.9479 98.401 66.0781 98.4219C66.2083 98.4375 66.3151 98.4609 66.3984 98.4922ZM69.7109 100.172V110.25H67.4609V98.5469H69.5469L69.7109 100.172ZM75.0625 102.68V102.844C75.0625 103.458 74.9896 104.029 74.8438 104.555C74.7031 105.081 74.4948 105.539 74.2188 105.93C73.9427 106.315 73.599 106.617 73.1875 106.836C72.7812 107.049 72.3125 107.156 71.7812 107.156C71.2656 107.156 70.8177 107.052 70.4375 106.844C70.0573 106.635 69.737 106.344 69.4766 105.969C69.2214 105.589 69.0156 105.148 68.8594 104.648C68.7031 104.148 68.5833 103.612 68.5 103.039V102.609C68.5833 101.995 68.7031 101.432 68.8594 100.922C69.0156 100.406 69.2214 99.9609 69.4766 99.5859C69.737 99.2057 70.0547 98.9115 70.4297 98.7031C70.8099 98.4948 71.2552 98.3906 71.7656 98.3906C72.3021 98.3906 72.7734 98.4922 73.1797 98.6953C73.5911 98.8984 73.9349 99.1901 74.2109 99.5703C74.4922 99.9505 74.7031 100.404 74.8438 100.93C74.9896 101.456 75.0625 102.039 75.0625 102.68ZM72.8047 102.844V102.68C72.8047 102.32 72.7734 101.99 72.7109 101.688C72.6536 101.38 72.5599 101.112 72.4297 100.883C72.3047 100.654 72.138 100.477 71.9297 100.352C71.7266 100.221 71.4792 100.156 71.1875 100.156C70.8802 100.156 70.6172 100.206 70.3984 100.305C70.1849 100.404 70.0104 100.547 69.875 100.734C69.7396 100.922 69.638 101.146 69.5703 101.406C69.5026 101.667 69.4609 101.961 69.4453 102.289V103.375C69.4714 103.76 69.5443 104.107 69.6641 104.414C69.7839 104.716 69.9688 104.956 70.2188 105.133C70.4688 105.31 70.7969 105.398 71.2031 105.398C71.5 105.398 71.75 105.333 71.9531 105.203C72.1562 105.068 72.3203 104.883 72.4453 104.648C72.5755 104.414 72.6667 104.143 72.7188 103.836C72.776 103.529 72.8047 103.198 72.8047 102.844ZM76.1016 102.859V102.695C76.1016 102.076 76.1901 101.505 76.3672 100.984C76.5443 100.458 76.8021 100.003 77.1406 99.6172C77.4792 99.2318 77.8958 98.9323 78.3906 98.7188C78.8854 98.5 79.4531 98.3906 80.0938 98.3906C80.7344 98.3906 81.3047 98.5 81.8047 98.7188C82.3047 98.9323 82.724 99.2318 83.0625 99.6172C83.4062 100.003 83.6667 100.458 83.8438 100.984C84.0208 101.505 84.1094 102.076 84.1094 102.695V102.859C84.1094 103.474 84.0208 104.044 83.8438 104.57C83.6667 105.091 83.4062 105.547 83.0625 105.938C82.724 106.323 82.3073 106.622 81.8125 106.836C81.3177 107.049 80.75 107.156 80.1094 107.156C79.4688 107.156 78.8984 107.049 78.3984 106.836C77.9036 106.622 77.4844 106.323 77.1406 105.938C76.8021 105.547 76.5443 105.091 76.3672 104.57C76.1901 104.044 76.1016 103.474 76.1016 102.859ZM78.3516 102.695V102.859C78.3516 103.214 78.3828 103.544 78.4453 103.852C78.5078 104.159 78.6068 104.43 78.7422 104.664C78.8828 104.893 79.0651 105.073 79.2891 105.203C79.513 105.333 79.7865 105.398 80.1094 105.398C80.4219 105.398 80.6901 105.333 80.9141 105.203C81.138 105.073 81.3177 104.893 81.4531 104.664C81.5885 104.43 81.6875 104.159 81.75 103.852C81.8177 103.544 81.8516 103.214 81.8516 102.859V102.695C81.8516 102.352 81.8177 102.029 81.75 101.727C81.6875 101.419 81.5859 101.148 81.4453 100.914C81.3099 100.674 81.1302 100.487 80.9062 100.352C80.6823 100.216 80.4115 100.148 80.0938 100.148C79.776 100.148 79.5052 100.216 79.2812 100.352C79.0625 100.487 78.8828 100.674 78.7422 100.914C78.6068 101.148 78.5078 101.419 78.4453 101.727C78.3828 102.029 78.3516 102.352 78.3516 102.695ZM88.9844 105.398C89.2604 105.398 89.5052 105.346 89.7188 105.242C89.9323 105.133 90.099 104.982 90.2188 104.789C90.3438 104.591 90.4089 104.359 90.4141 104.094H92.5312C92.526 104.688 92.3672 105.216 92.0547 105.68C91.7422 106.138 91.3229 106.5 90.7969 106.766C90.2708 107.026 89.6823 107.156 89.0312 107.156C88.375 107.156 87.8021 107.047 87.3125 106.828C86.8281 106.609 86.4245 106.307 86.1016 105.922C85.7786 105.531 85.5365 105.078 85.375 104.562C85.2135 104.042 85.1328 103.484 85.1328 102.891V102.664C85.1328 102.065 85.2135 101.508 85.375 100.992C85.5365 100.471 85.7786 100.018 86.1016 99.6328C86.4245 99.2422 86.8281 98.9375 87.3125 98.7188C87.7969 98.5 88.3646 98.3906 89.0156 98.3906C89.7083 98.3906 90.3151 98.5234 90.8359 98.7891C91.362 99.0547 91.7734 99.4349 92.0703 99.9297C92.3724 100.419 92.526 101 92.5312 101.672H90.4141C90.4089 101.391 90.349 101.135 90.2344 100.906C90.125 100.677 89.9635 100.495 89.75 100.359C89.5417 100.219 89.2839 100.148 88.9766 100.148C88.6484 100.148 88.3802 100.219 88.1719 100.359C87.9635 100.495 87.8021 100.682 87.6875 100.922C87.5729 101.156 87.4922 101.424 87.4453 101.727C87.4036 102.023 87.3828 102.336 87.3828 102.664V102.891C87.3828 103.219 87.4036 103.534 87.4453 103.836C87.487 104.138 87.5651 104.406 87.6797 104.641C87.7995 104.875 87.9635 105.06 88.1719 105.195C88.3802 105.331 88.651 105.398 88.9844 105.398ZM98.3984 105.094V101.328C98.3984 101.057 98.3542 100.826 98.2656 100.633C98.1771 100.435 98.0391 100.281 97.8516 100.172C97.6693 100.062 97.4323 100.008 97.1406 100.008C96.8906 100.008 96.6745 100.052 96.4922 100.141C96.3099 100.224 96.1693 100.346 96.0703 100.508C95.9714 100.664 95.9219 100.849 95.9219 101.062H93.6719C93.6719 100.703 93.7552 100.362 93.9219 100.039C94.0885 99.7161 94.3307 99.4323 94.6484 99.1875C94.9661 98.9375 95.3438 98.7422 95.7812 98.6016C96.224 98.4609 96.7188 98.3906 97.2656 98.3906C97.9219 98.3906 98.5052 98.5 99.0156 98.7188C99.526 98.9375 99.9271 99.2656 100.219 99.7031C100.516 100.141 100.664 100.688 100.664 101.344V104.961C100.664 105.424 100.693 105.805 100.75 106.102C100.807 106.393 100.891 106.648 101 106.867V107H98.7266C98.6172 106.771 98.5339 106.484 98.4766 106.141C98.4245 105.792 98.3984 105.443 98.3984 105.094ZM98.6953 101.852L98.7109 103.125H97.4531C97.1562 103.125 96.8984 103.159 96.6797 103.227C96.4609 103.294 96.2812 103.391 96.1406 103.516C96 103.635 95.8958 103.776 95.8281 103.938C95.7656 104.099 95.7344 104.276 95.7344 104.469C95.7344 104.661 95.7786 104.836 95.8672 104.992C95.9557 105.143 96.0833 105.263 96.25 105.352C96.4167 105.435 96.612 105.477 96.8359 105.477C97.1745 105.477 97.4688 105.409 97.7188 105.273C97.9688 105.138 98.1615 104.971 98.2969 104.773C98.4375 104.576 98.5104 104.388 98.5156 104.211L99.1094 105.164C99.026 105.378 98.9115 105.599 98.7656 105.828C98.625 106.057 98.4453 106.273 98.2266 106.477C98.0078 106.674 97.7448 106.839 97.4375 106.969C97.1302 107.094 96.7656 107.156 96.3438 107.156C95.8073 107.156 95.3203 107.049 94.8828 106.836C94.4505 106.617 94.1068 106.318 93.8516 105.938C93.6016 105.552 93.4766 105.115 93.4766 104.625C93.4766 104.182 93.5599 103.789 93.7266 103.445C93.8932 103.102 94.138 102.812 94.4609 102.578C94.7891 102.339 95.1979 102.159 95.6875 102.039C96.1771 101.914 96.7448 101.852 97.3906 101.852H98.6953ZM104.648 100.172V110.25H102.398V98.5469H104.484L104.648 100.172ZM110 102.68V102.844C110 103.458 109.927 104.029 109.781 104.555C109.641 105.081 109.432 105.539 109.156 105.93C108.88 106.315 108.536 106.617 108.125 106.836C107.719 107.049 107.25 107.156 106.719 107.156C106.203 107.156 105.755 107.052 105.375 106.844C104.995 106.635 104.674 106.344 104.414 105.969C104.159 105.589 103.953 105.148 103.797 104.648C103.641 104.148 103.521 103.612 103.438 103.039V102.609C103.521 101.995 103.641 101.432 103.797 100.922C103.953 100.406 104.159 99.9609 104.414 99.5859C104.674 99.2057 104.992 98.9115 105.367 98.7031C105.747 98.4948 106.193 98.3906 106.703 98.3906C107.24 98.3906 107.711 98.4922 108.117 98.6953C108.529 98.8984 108.872 99.1901 109.148 99.5703C109.43 99.9505 109.641 100.404 109.781 100.93C109.927 101.456 110 102.039 110 102.68ZM107.742 102.844V102.68C107.742 102.32 107.711 101.99 107.648 101.688C107.591 101.38 107.497 101.112 107.367 100.883C107.242 100.654 107.076 100.477 106.867 100.352C106.664 100.221 106.417 100.156 106.125 100.156C105.818 100.156 105.555 100.206 105.336 100.305C105.122 100.404 104.948 100.547 104.812 100.734C104.677 100.922 104.576 101.146 104.508 101.406C104.44 101.667 104.398 101.961 104.383 102.289V103.375C104.409 103.76 104.482 104.107 104.602 104.414C104.721 104.716 104.906 104.956 105.156 105.133C105.406 105.31 105.734 105.398 106.141 105.398C106.438 105.398 106.688 105.333 106.891 105.203C107.094 105.068 107.258 104.883 107.383 104.648C107.513 104.414 107.604 104.143 107.656 103.836C107.714 103.529 107.742 103.198 107.742 102.844ZM115.969 104.664C115.969 104.503 115.922 104.357 115.828 104.227C115.734 104.096 115.56 103.977 115.305 103.867C115.055 103.753 114.693 103.648 114.219 103.555C113.792 103.461 113.393 103.344 113.023 103.203C112.659 103.057 112.341 102.883 112.07 102.68C111.805 102.477 111.596 102.237 111.445 101.961C111.294 101.68 111.219 101.359 111.219 101C111.219 100.646 111.294 100.312 111.445 100C111.602 99.6875 111.823 99.4115 112.109 99.1719C112.401 98.9271 112.755 98.737 113.172 98.6016C113.594 98.4609 114.068 98.3906 114.594 98.3906C115.328 98.3906 115.958 98.5078 116.484 98.7422C117.016 98.9766 117.422 99.2995 117.703 99.7109C117.99 100.117 118.133 100.581 118.133 101.102H115.883C115.883 100.883 115.836 100.688 115.742 100.516C115.654 100.339 115.513 100.201 115.32 100.102C115.133 99.9974 114.888 99.9453 114.586 99.9453C114.336 99.9453 114.12 99.9896 113.938 100.078C113.755 100.161 113.615 100.276 113.516 100.422C113.422 100.562 113.375 100.719 113.375 100.891C113.375 101.021 113.401 101.138 113.453 101.242C113.51 101.341 113.602 101.432 113.727 101.516C113.852 101.599 114.013 101.677 114.211 101.75C114.414 101.818 114.664 101.88 114.961 101.938C115.57 102.062 116.115 102.227 116.594 102.43C117.073 102.628 117.453 102.898 117.734 103.242C118.016 103.581 118.156 104.026 118.156 104.578C118.156 104.953 118.073 105.297 117.906 105.609C117.74 105.922 117.5 106.195 117.188 106.43C116.875 106.659 116.5 106.839 116.062 106.969C115.63 107.094 115.143 107.156 114.602 107.156C113.815 107.156 113.148 107.016 112.602 106.734C112.06 106.453 111.648 106.096 111.367 105.664C111.091 105.227 110.953 104.779 110.953 104.32H113.086C113.096 104.628 113.174 104.875 113.32 105.062C113.471 105.25 113.661 105.385 113.891 105.469C114.125 105.552 114.378 105.594 114.648 105.594C114.94 105.594 115.182 105.555 115.375 105.477C115.568 105.393 115.714 105.284 115.812 105.148C115.917 105.008 115.969 104.846 115.969 104.664ZM124.18 105.094V101.328C124.18 101.057 124.135 100.826 124.047 100.633C123.958 100.435 123.82 100.281 123.633 100.172C123.451 100.062 123.214 100.008 122.922 100.008C122.672 100.008 122.456 100.052 122.273 100.141C122.091 100.224 121.951 100.346 121.852 100.508C121.753 100.664 121.703 100.849 121.703 101.062H119.453C119.453 100.703 119.536 100.362 119.703 100.039C119.87 99.7161 120.112 99.4323 120.43 99.1875C120.747 98.9375 121.125 98.7422 121.562 98.6016C122.005 98.4609 122.5 98.3906 123.047 98.3906C123.703 98.3906 124.286 98.5 124.797 98.7188C125.307 98.9375 125.708 99.2656 126 99.7031C126.297 100.141 126.445 100.688 126.445 101.344V104.961C126.445 105.424 126.474 105.805 126.531 106.102C126.589 106.393 126.672 106.648 126.781 106.867V107H124.508C124.398 106.771 124.315 106.484 124.258 106.141C124.206 105.792 124.18 105.443 124.18 105.094ZM124.477 101.852L124.492 103.125H123.234C122.938 103.125 122.68 103.159 122.461 103.227C122.242 103.294 122.062 103.391 121.922 103.516C121.781 103.635 121.677 103.776 121.609 103.938C121.547 104.099 121.516 104.276 121.516 104.469C121.516 104.661 121.56 104.836 121.648 104.992C121.737 105.143 121.865 105.263 122.031 105.352C122.198 105.435 122.393 105.477 122.617 105.477C122.956 105.477 123.25 105.409 123.5 105.273C123.75 105.138 123.943 104.971 124.078 104.773C124.219 104.576 124.292 104.388 124.297 104.211L124.891 105.164C124.807 105.378 124.693 105.599 124.547 105.828C124.406 106.057 124.227 106.273 124.008 106.477C123.789 106.674 123.526 106.839 123.219 106.969C122.911 107.094 122.547 107.156 122.125 107.156C121.589 107.156 121.102 107.049 120.664 106.836C120.232 106.617 119.888 106.318 119.633 105.938C119.383 105.552 119.258 105.115 119.258 104.625C119.258 104.182 119.341 103.789 119.508 103.445C119.674 103.102 119.919 102.812 120.242 102.578C120.57 102.339 120.979 102.159 121.469 102.039C121.958 101.914 122.526 101.852 123.172 101.852H124.477Z" fill="#222121"/>
<path d="M85.1669 16.002C83.2621 16.0364 80.4525 16.6182 79.4886 18.9235C81.5228 22.3972 82.7691 25.5881 83.239 29.1433C81.0457 27.7843 78.6839 26.8286 76.242 26.3443C74.8619 26.0707 73.5195 25.9268 72.2773 25.9695C63.4136 26.2739 55.8564 33.8873 56.0021 44.8391C56.1692 57.4189 65.5632 69.5085 76.4483 71.6677C77.8292 71.9418 79.526 72.0852 81.0443 71.9462C82.5626 71.8072 83.8601 71.3665 84.5617 70.7024L85.2832 70.0196L86.0535 70.6468C86.7243 71.1921 88.1026 71.6287 89.6574 71.7718C91.2123 71.9147 92.9334 71.7991 94.2719 71.5081C105.082 69.1586 113.165 56.9846 112.997 44.349C112.914 38.0553 110.61 32.9329 107.045 29.6853C104.371 27.2497 100.992 25.84 97.188 25.7837C95.9201 25.7649 94.6062 25.8981 93.2534 26.1921C91.1136 26.6572 89.0429 27.4879 87.1058 28.6348C87.2328 24.472 86.8752 20.6543 85.9221 16.0166C85.6705 16.0018 85.4185 15.9969 85.1665 16.0019L85.1669 16.002ZM84.855 34.671C86.1555 36.1333 86.601 37.4127 86.5048 38.6209C86.4114 39.7913 85.7276 41.0431 84.4566 42.3555C81.674 39.9813 82.3206 36.1521 84.8551 34.671H84.855ZM92.9192 39.0034C93.325 39.001 93.7473 39.0483 94.1819 39.1443C93.8722 40.9353 93.2632 42.2226 92.3668 42.994C91.4417 43.7905 90.1342 44.2019 88.1693 44.041C87.9043 41.5475 89.894 39.1227 92.7464 39.0071C92.8036 39.0047 92.8612 39.0035 92.9191 39.0035L92.9192 39.0034ZM75.9865 39.3039C78.3903 39.2457 80.4242 40.9546 80.7589 43.1536C78.8992 43.795 77.531 43.7214 76.4337 43.1797C75.3704 42.6546 74.4523 41.5588 73.698 39.9017C74.3888 39.5519 75.0835 39.3631 75.7535 39.3152C75.8317 39.3095 75.909 39.3057 75.9866 39.3039H75.9865ZM75.1033 46.1272C76.7965 46.1236 78.3946 47.0108 79.1919 48.4734C77.6592 49.6993 76.3446 50.0911 75.1258 49.9471C73.9458 49.8075 72.7079 49.0831 71.432 47.7752C72.5099 46.6375 73.8314 46.1296 75.1032 46.127L75.1033 46.1272ZM91.9649 46.5615C92.0556 46.5612 92.1479 46.5639 92.2391 46.5686C93.7045 46.6482 95.185 47.3976 96.1737 48.9336C94.6739 49.9846 93.3234 50.472 92.1376 50.3924C90.9135 50.3104 89.6962 49.6867 88.4211 48.2022C89.2873 47.1457 90.6025 46.5648 91.9649 46.5616V46.5615ZM78.1661 52.9094C78.689 52.9173 79.2111 53.0202 79.7105 53.2138C79.3431 55.1276 78.5963 56.2615 77.5722 56.9297C76.581 57.5767 75.1619 57.8139 73.3334 57.6313C73.4792 54.7598 75.6715 52.9951 77.9407 52.9128C78.0152 52.9104 78.0913 52.9081 78.1661 52.9092V52.9094ZM88.6241 52.9279C90.8945 52.9582 93.1311 54.671 93.344 57.5386C91.5186 57.7636 90.0931 57.5617 89.0862 56.9372C88.0473 56.2929 87.2741 55.1729 86.8616 53.2694C87.419 53.0367 88.0191 52.9205 88.6242 52.9279H88.6241ZM83.3367 54.8844C85.8719 56.3658 86.5164 60.1947 83.7313 62.5688C82.461 61.2565 81.7765 60.0041 81.6835 58.834C81.587 57.6258 82.0363 56.3464 83.3369 54.8841L83.3367 54.8844Z" fill="#2A6D4C"/>
</svg>
