<svg width="169" height="130" viewBox="0 0 169 130" fill="none" xmlns="http://www.w3.org/2000/svg">
<rect x="0.25" y="0.25" width="168.5" height="129.5" rx="9.75" fill="white" stroke="#2A6D4C" stroke-width="0.5"/>
<path d="M51.4375 86.1719V88H45.7109V86.1719H51.4375ZM46.4688 76.625V88H44.125V76.625H46.4688ZM57.2031 86.0938V82.3281C57.2031 82.0573 57.1589 81.8255 57.0703 81.6328C56.9818 81.4349 56.8438 81.2812 56.6562 81.1719C56.474 81.0625 56.237 81.0078 55.9453 81.0078C55.6953 81.0078 55.4792 81.0521 55.2969 81.1406C55.1146 81.224 54.974 81.3464 54.875 81.5078C54.776 81.6641 54.7266 81.849 54.7266 82.0625H52.4766C52.4766 81.7031 52.5599 81.362 52.7266 81.0391C52.8932 80.7161 53.1354 80.4323 53.4531 80.1875C53.7708 79.9375 54.1484 79.7422 54.5859 79.6016C55.0286 79.4609 55.5234 79.3906 56.0703 79.3906C56.7266 79.3906 57.3099 79.5 57.8203 79.7188C58.3307 79.9375 58.7318 80.2656 59.0234 80.7031C59.3203 81.1406 59.4688 81.6875 59.4688 82.3438V85.9609C59.4688 86.4245 59.4974 86.8047 59.5547 87.1016C59.612 87.3932 59.6953 87.6484 59.8047 87.8672V88H57.5312C57.4219 87.7708 57.3385 87.4844 57.2812 87.1406C57.2292 86.7917 57.2031 86.4427 57.2031 86.0938ZM57.5 82.8516L57.5156 84.125H56.2578C55.9609 84.125 55.7031 84.1589 55.4844 84.2266C55.2656 84.2943 55.0859 84.3906 54.9453 84.5156C54.8047 84.6354 54.7005 84.776 54.6328 84.9375C54.5703 85.099 54.5391 85.276 54.5391 85.4688C54.5391 85.6615 54.5833 85.8359 54.6719 85.9922C54.7604 86.1432 54.888 86.263 55.0547 86.3516C55.2214 86.4349 55.4167 86.4766 55.6406 86.4766C55.9792 86.4766 56.2734 86.4089 56.5234 86.2734C56.7734 86.138 56.9661 85.9714 57.1016 85.7734C57.2422 85.5755 57.3151 85.388 57.3203 85.2109L57.9141 86.1641C57.8307 86.3776 57.7161 86.599 57.5703 86.8281C57.4297 87.0573 57.25 87.2734 57.0312 87.4766C56.8125 87.6745 56.5495 87.8385 56.2422 87.9688C55.9349 88.0938 55.5703 88.1562 55.1484 88.1562C54.612 88.1562 54.125 88.0495 53.6875 87.8359C53.2552 87.6172 52.9115 87.3177 52.6562 86.9375C52.4062 86.5521 52.2812 86.1146 52.2812 85.625C52.2812 85.1823 52.3646 84.7891 52.5312 84.4453C52.6979 84.1016 52.9427 83.8125 53.2656 83.5781C53.5938 83.3385 54.0026 83.1589 54.4922 83.0391C54.9818 82.9141 55.5495 82.8516 56.1953 82.8516H57.5ZM61.2031 76H63.4531V86.0625L63.2266 88H61.2031V76ZM68.8047 83.6875V83.8516C68.8047 84.4818 68.737 85.0599 68.6016 85.5859C68.4714 86.112 68.2682 86.5677 67.9922 86.9531C67.7161 87.3333 67.3724 87.6302 66.9609 87.8438C66.5547 88.0521 66.0755 88.1562 65.5234 88.1562C65.0078 88.1562 64.5599 88.0521 64.1797 87.8438C63.8047 87.6354 63.4896 87.3411 63.2344 86.9609C62.9792 86.5807 62.7734 86.1354 62.6172 85.625C62.4609 85.1146 62.3438 84.5573 62.2656 83.9531V83.5938C62.3438 82.9896 62.4609 82.4323 62.6172 81.9219C62.7734 81.4115 62.9792 80.9661 63.2344 80.5859C63.4896 80.2057 63.8047 79.9115 64.1797 79.7031C64.5547 79.4948 64.9974 79.3906 65.5078 79.3906C66.0651 79.3906 66.5495 79.4974 66.9609 79.7109C67.3776 79.9193 67.7214 80.2161 67.9922 80.6016C68.2682 80.9818 68.4714 81.4349 68.6016 81.9609C68.737 82.4818 68.8047 83.0573 68.8047 83.6875ZM66.5547 83.8516V83.6875C66.5547 83.3438 66.5286 83.0208 66.4766 82.7188C66.4297 82.4115 66.3464 82.1432 66.2266 81.9141C66.1068 81.6797 65.9427 81.4948 65.7344 81.3594C65.5312 81.224 65.2682 81.1562 64.9453 81.1562C64.638 81.1562 64.3776 81.2083 64.1641 81.3125C63.9505 81.4167 63.7734 81.5625 63.6328 81.75C63.4974 81.9375 63.3958 82.1615 63.3281 82.4219C63.2604 82.6771 63.2188 82.9583 63.2031 83.2656V84.2891C63.2188 84.7005 63.2865 85.0651 63.4062 85.3828C63.5312 85.6953 63.7188 85.9427 63.9688 86.125C64.224 86.3021 64.5547 86.3906 64.9609 86.3906C65.2786 86.3906 65.5417 86.3281 65.75 86.2031C65.9583 86.0781 66.1198 85.901 66.2344 85.6719C66.3542 85.4427 66.4375 85.1745 66.4844 84.8672C66.5312 84.5547 66.5547 84.2161 66.5547 83.8516ZM69.8438 83.8594V83.6953C69.8438 83.0755 69.9323 82.5052 70.1094 81.9844C70.2865 81.4583 70.5443 81.0026 70.8828 80.6172C71.2214 80.2318 71.638 79.9323 72.1328 79.7188C72.6276 79.5 73.1953 79.3906 73.8359 79.3906C74.4766 79.3906 75.0469 79.5 75.5469 79.7188C76.0469 79.9323 76.4661 80.2318 76.8047 80.6172C77.1484 81.0026 77.4089 81.4583 77.5859 81.9844C77.763 82.5052 77.8516 83.0755 77.8516 83.6953V83.8594C77.8516 84.474 77.763 85.0443 77.5859 85.5703C77.4089 86.0911 77.1484 86.5469 76.8047 86.9375C76.4661 87.3229 76.0495 87.6224 75.5547 87.8359C75.0599 88.0495 74.4922 88.1562 73.8516 88.1562C73.2109 88.1562 72.6406 88.0495 72.1406 87.8359C71.6458 87.6224 71.2266 87.3229 70.8828 86.9375C70.5443 86.5469 70.2865 86.0911 70.1094 85.5703C69.9323 85.0443 69.8438 84.474 69.8438 83.8594ZM72.0938 83.6953V83.8594C72.0938 84.2135 72.125 84.5443 72.1875 84.8516C72.25 85.1589 72.349 85.4297 72.4844 85.6641C72.625 85.8932 72.8073 86.0729 73.0312 86.2031C73.2552 86.3333 73.5286 86.3984 73.8516 86.3984C74.1641 86.3984 74.4323 86.3333 74.6562 86.2031C74.8802 86.0729 75.0599 85.8932 75.1953 85.6641C75.3307 85.4297 75.4297 85.1589 75.4922 84.8516C75.5599 84.5443 75.5938 84.2135 75.5938 83.8594V83.6953C75.5938 83.3516 75.5599 83.0286 75.4922 82.7266C75.4297 82.4193 75.3281 82.1484 75.1875 81.9141C75.0521 81.6745 74.8724 81.487 74.6484 81.3516C74.4245 81.2161 74.1536 81.1484 73.8359 81.1484C73.5182 81.1484 73.2474 81.2161 73.0234 81.3516C72.8047 81.487 72.625 81.6745 72.4844 81.9141C72.349 82.1484 72.25 82.4193 72.1875 82.7266C72.125 83.0286 72.0938 83.3516 72.0938 83.6953ZM81.4844 81.3906V88H79.2344V79.5469H81.3516L81.4844 81.3906ZM84.0312 79.4922L83.9922 81.5781C83.8828 81.5625 83.75 81.5495 83.5938 81.5391C83.4427 81.5234 83.3047 81.5156 83.1797 81.5156C82.862 81.5156 82.5859 81.5573 82.3516 81.6406C82.1224 81.7188 81.9297 81.8359 81.7734 81.9922C81.6224 82.1484 81.5078 82.3385 81.4297 82.5625C81.3568 82.7865 81.3151 83.0417 81.3047 83.3281L80.8516 83.1875C80.8516 82.6406 80.9062 82.138 81.0156 81.6797C81.125 81.2161 81.2839 80.8125 81.4922 80.4688C81.7057 80.125 81.9661 79.8594 82.2734 79.6719C82.5807 79.4844 82.9323 79.3906 83.3281 79.3906C83.4531 79.3906 83.5807 79.401 83.7109 79.4219C83.8411 79.4375 83.9479 79.4609 84.0312 79.4922ZM89.3906 86.0938V82.3281C89.3906 82.0573 89.3464 81.8255 89.2578 81.6328C89.1693 81.4349 89.0312 81.2812 88.8438 81.1719C88.6615 81.0625 88.4245 81.0078 88.1328 81.0078C87.8828 81.0078 87.6667 81.0521 87.4844 81.1406C87.3021 81.224 87.1615 81.3464 87.0625 81.5078C86.9635 81.6641 86.9141 81.849 86.9141 82.0625H84.6641C84.6641 81.7031 84.7474 81.362 84.9141 81.0391C85.0807 80.7161 85.3229 80.4323 85.6406 80.1875C85.9583 79.9375 86.3359 79.7422 86.7734 79.6016C87.2161 79.4609 87.7109 79.3906 88.2578 79.3906C88.9141 79.3906 89.4974 79.5 90.0078 79.7188C90.5182 79.9375 90.9193 80.2656 91.2109 80.7031C91.5078 81.1406 91.6562 81.6875 91.6562 82.3438V85.9609C91.6562 86.4245 91.6849 86.8047 91.7422 87.1016C91.7995 87.3932 91.8828 87.6484 91.9922 87.8672V88H89.7188C89.6094 87.7708 89.526 87.4844 89.4688 87.1406C89.4167 86.7917 89.3906 86.4427 89.3906 86.0938ZM89.6875 82.8516L89.7031 84.125H88.4453C88.1484 84.125 87.8906 84.1589 87.6719 84.2266C87.4531 84.2943 87.2734 84.3906 87.1328 84.5156C86.9922 84.6354 86.888 84.776 86.8203 84.9375C86.7578 85.099 86.7266 85.276 86.7266 85.4688C86.7266 85.6615 86.7708 85.8359 86.8594 85.9922C86.9479 86.1432 87.0755 86.263 87.2422 86.3516C87.4089 86.4349 87.6042 86.4766 87.8281 86.4766C88.1667 86.4766 88.4609 86.4089 88.7109 86.2734C88.9609 86.138 89.1536 85.9714 89.2891 85.7734C89.4297 85.5755 89.5026 85.388 89.5078 85.2109L90.1016 86.1641C90.0182 86.3776 89.9036 86.599 89.7578 86.8281C89.6172 87.0573 89.4375 87.2734 89.2188 87.4766C89 87.6745 88.737 87.8385 88.4297 87.9688C88.1224 88.0938 87.7578 88.1562 87.3359 88.1562C86.7995 88.1562 86.3125 88.0495 85.875 87.8359C85.4427 87.6172 85.099 87.3177 84.8438 86.9375C84.5938 86.5521 84.4688 86.1146 84.4688 85.625C84.4688 85.1823 84.5521 84.7891 84.7188 84.4453C84.8854 84.1016 85.1302 83.8125 85.4531 83.5781C85.7812 83.3385 86.1901 83.1589 86.6797 83.0391C87.1693 82.9141 87.737 82.8516 88.3828 82.8516H89.6875ZM97.5312 79.5469V81.1406H92.6094V79.5469H97.5312ZM93.8281 77.4609H96.0781V85.4531C96.0781 85.6979 96.1094 85.8854 96.1719 86.0156C96.2396 86.1458 96.3385 86.237 96.4688 86.2891C96.599 86.3359 96.763 86.3594 96.9609 86.3594C97.1016 86.3594 97.2266 86.3542 97.3359 86.3438C97.4505 86.3281 97.5469 86.3125 97.625 86.2969L97.6328 87.9531C97.4401 88.0156 97.2318 88.0651 97.0078 88.1016C96.7839 88.138 96.5365 88.1562 96.2656 88.1562C95.7708 88.1562 95.3385 88.0755 94.9688 87.9141C94.6042 87.7474 94.3229 87.4818 94.125 87.1172C93.9271 86.7526 93.8281 86.2734 93.8281 85.6797V77.4609ZM98.25 83.8594V83.6953C98.25 83.0755 98.3385 82.5052 98.5156 81.9844C98.6927 81.4583 98.9505 81.0026 99.2891 80.6172C99.6276 80.2318 100.044 79.9323 100.539 79.7188C101.034 79.5 101.602 79.3906 102.242 79.3906C102.883 79.3906 103.453 79.5 103.953 79.7188C104.453 79.9323 104.872 80.2318 105.211 80.6172C105.555 81.0026 105.815 81.4583 105.992 81.9844C106.169 82.5052 106.258 83.0755 106.258 83.6953V83.8594C106.258 84.474 106.169 85.0443 105.992 85.5703C105.815 86.0911 105.555 86.5469 105.211 86.9375C104.872 87.3229 104.456 87.6224 103.961 87.8359C103.466 88.0495 102.898 88.1562 102.258 88.1562C101.617 88.1562 101.047 88.0495 100.547 87.8359C100.052 87.6224 99.6328 87.3229 99.2891 86.9375C98.9505 86.5469 98.6927 86.0911 98.5156 85.5703C98.3385 85.0443 98.25 84.474 98.25 83.8594ZM100.5 83.6953V83.8594C100.5 84.2135 100.531 84.5443 100.594 84.8516C100.656 85.1589 100.755 85.4297 100.891 85.6641C101.031 85.8932 101.214 86.0729 101.438 86.2031C101.661 86.3333 101.935 86.3984 102.258 86.3984C102.57 86.3984 102.839 86.3333 103.062 86.2031C103.286 86.0729 103.466 85.8932 103.602 85.6641C103.737 85.4297 103.836 85.1589 103.898 84.8516C103.966 84.5443 104 84.2135 104 83.8594V83.6953C104 83.3516 103.966 83.0286 103.898 82.7266C103.836 82.4193 103.734 82.1484 103.594 81.9141C103.458 81.6745 103.279 81.487 103.055 81.3516C102.831 81.2161 102.56 81.1484 102.242 81.1484C101.924 81.1484 101.654 81.2161 101.43 81.3516C101.211 81.487 101.031 81.6745 100.891 81.9141C100.755 82.1484 100.656 82.4193 100.594 82.7266C100.531 83.0286 100.5 83.3516 100.5 83.6953ZM109.891 81.3906V88H107.641V79.5469H109.758L109.891 81.3906ZM112.438 79.4922L112.398 81.5781C112.289 81.5625 112.156 81.5495 112 81.5391C111.849 81.5234 111.711 81.5156 111.586 81.5156C111.268 81.5156 110.992 81.5573 110.758 81.6406C110.529 81.7188 110.336 81.8359 110.18 81.9922C110.029 82.1484 109.914 82.3385 109.836 82.5625C109.763 82.7865 109.721 83.0417 109.711 83.3281L109.258 83.1875C109.258 82.6406 109.312 82.138 109.422 81.6797C109.531 81.2161 109.69 80.8125 109.898 80.4688C110.112 80.125 110.372 79.8594 110.68 79.6719C110.987 79.4844 111.339 79.3906 111.734 79.3906C111.859 79.3906 111.987 79.401 112.117 79.4219C112.247 79.4375 112.354 79.4609 112.438 79.4922ZM115.875 79.5469V88H113.617V79.5469H115.875ZM113.477 77.3438C113.477 77.0156 113.591 76.7448 113.82 76.5312C114.049 76.3177 114.357 76.2109 114.742 76.2109C115.122 76.2109 115.427 76.3177 115.656 76.5312C115.891 76.7448 116.008 77.0156 116.008 77.3438C116.008 77.6719 115.891 77.9427 115.656 78.1562C115.427 78.3698 115.122 78.4766 114.742 78.4766C114.357 78.4766 114.049 78.3698 113.82 78.1562C113.591 77.9427 113.477 77.6719 113.477 77.3438ZM117.375 83.8594V83.6953C117.375 83.0755 117.464 82.5052 117.641 81.9844C117.818 81.4583 118.076 81.0026 118.414 80.6172C118.753 80.2318 119.169 79.9323 119.664 79.7188C120.159 79.5 120.727 79.3906 121.367 79.3906C122.008 79.3906 122.578 79.5 123.078 79.7188C123.578 79.9323 123.997 80.2318 124.336 80.6172C124.68 81.0026 124.94 81.4583 125.117 81.9844C125.294 82.5052 125.383 83.0755 125.383 83.6953V83.8594C125.383 84.474 125.294 85.0443 125.117 85.5703C124.94 86.0911 124.68 86.5469 124.336 86.9375C123.997 87.3229 123.581 87.6224 123.086 87.8359C122.591 88.0495 122.023 88.1562 121.383 88.1562C120.742 88.1562 120.172 88.0495 119.672 87.8359C119.177 87.6224 118.758 87.3229 118.414 86.9375C118.076 86.5469 117.818 86.0911 117.641 85.5703C117.464 85.0443 117.375 84.474 117.375 83.8594ZM119.625 83.6953V83.8594C119.625 84.2135 119.656 84.5443 119.719 84.8516C119.781 85.1589 119.88 85.4297 120.016 85.6641C120.156 85.8932 120.339 86.0729 120.562 86.2031C120.786 86.3333 121.06 86.3984 121.383 86.3984C121.695 86.3984 121.964 86.3333 122.188 86.2031C122.411 86.0729 122.591 85.8932 122.727 85.6641C122.862 85.4297 122.961 85.1589 123.023 84.8516C123.091 84.5443 123.125 84.2135 123.125 83.8594V83.6953C123.125 83.3516 123.091 83.0286 123.023 82.7266C122.961 82.4193 122.859 82.1484 122.719 81.9141C122.583 81.6745 122.404 81.487 122.18 81.3516C121.956 81.2161 121.685 81.1484 121.367 81.1484C121.049 81.1484 120.779 81.2161 120.555 81.3516C120.336 81.487 120.156 81.6745 120.016 81.9141C119.88 82.1484 119.781 82.4193 119.719 82.7266C119.656 83.0286 119.625 83.3516 119.625 83.6953ZM66.1641 103.227H68.5C68.4531 103.992 68.2422 104.672 67.8672 105.266C67.4974 105.859 66.9792 106.323 66.3125 106.656C65.651 106.99 64.8542 107.156 63.9219 107.156C63.1927 107.156 62.5391 107.031 61.9609 106.781C61.3828 106.526 60.888 106.161 60.4766 105.688C60.0703 105.214 59.7604 104.641 59.5469 103.969C59.3333 103.297 59.2266 102.544 59.2266 101.711V100.922C59.2266 100.089 59.3359 99.3359 59.5547 98.6641C59.7786 97.987 60.0964 97.4115 60.5078 96.9375C60.9245 96.4635 61.4219 96.099 62 95.8438C62.5781 95.5885 63.224 95.4609 63.9375 95.4609C64.8854 95.4609 65.6849 95.6328 66.3359 95.9766C66.9922 96.3203 67.5 96.7943 67.8594 97.3984C68.224 98.0026 68.4427 98.6901 68.5156 99.4609H66.1719C66.1458 99.0026 66.0547 98.6146 65.8984 98.2969C65.7422 97.974 65.5052 97.7318 65.1875 97.5703C64.875 97.4036 64.4583 97.3203 63.9375 97.3203C63.5469 97.3203 63.2057 97.3932 62.9141 97.5391C62.6224 97.6849 62.3776 97.9062 62.1797 98.2031C61.9818 98.5 61.8333 98.875 61.7344 99.3281C61.6406 99.776 61.5938 100.302 61.5938 100.906V101.711C61.5938 102.299 61.638 102.818 61.7266 103.266C61.8151 103.708 61.9505 104.083 62.1328 104.391C62.3203 104.693 62.5599 104.922 62.8516 105.078C63.1484 105.229 63.5052 105.305 63.9219 105.305C64.4115 105.305 64.8151 105.227 65.1328 105.07C65.4505 104.914 65.6927 104.682 65.8594 104.375C66.0312 104.068 66.1328 103.685 66.1641 103.227ZM73.7891 107.156C73.1328 107.156 72.5443 107.052 72.0234 106.844C71.5026 106.63 71.0599 106.336 70.6953 105.961C70.3359 105.586 70.0599 105.151 69.8672 104.656C69.6745 104.156 69.5781 103.625 69.5781 103.062V102.75C69.5781 102.109 69.6693 101.523 69.8516 100.992C70.0339 100.461 70.2943 100 70.6328 99.6094C70.9766 99.2188 71.3932 98.9193 71.8828 98.7109C72.3724 98.4974 72.9245 98.3906 73.5391 98.3906C74.138 98.3906 74.6693 98.4896 75.1328 98.6875C75.5964 98.8854 75.9844 99.1667 76.2969 99.5312C76.6146 99.8958 76.8542 100.333 77.0156 100.844C77.1771 101.349 77.2578 101.911 77.2578 102.531V103.469H70.5391V101.969H75.0469V101.797C75.0469 101.484 74.9896 101.206 74.875 100.961C74.7656 100.711 74.599 100.513 74.375 100.367C74.151 100.221 73.8646 100.148 73.5156 100.148C73.2188 100.148 72.9635 100.214 72.75 100.344C72.5365 100.474 72.362 100.656 72.2266 100.891C72.0964 101.125 71.9974 101.401 71.9297 101.719C71.8672 102.031 71.8359 102.375 71.8359 102.75V103.062C71.8359 103.401 71.8828 103.714 71.9766 104C72.0755 104.286 72.2135 104.534 72.3906 104.742C72.5729 104.951 72.7917 105.112 73.0469 105.227C73.3073 105.341 73.6016 105.398 73.9297 105.398C74.3359 105.398 74.7135 105.32 75.0625 105.164C75.4167 105.003 75.7214 104.76 75.9766 104.438L77.0703 105.625C76.8932 105.88 76.651 106.125 76.3438 106.359C76.0417 106.594 75.6771 106.786 75.25 106.938C74.8229 107.083 74.3359 107.156 73.7891 107.156ZM80.7422 100.352V107H78.4922V98.5469H80.6016L80.7422 100.352ZM80.4141 102.477H79.8047C79.8047 101.852 79.8854 101.289 80.0469 100.789C80.2083 100.284 80.4349 99.8542 80.7266 99.5C81.0182 99.1406 81.3646 98.8672 81.7656 98.6797C82.1719 98.487 82.625 98.3906 83.125 98.3906C83.5208 98.3906 83.8828 98.4479 84.2109 98.5625C84.5391 98.6771 84.8203 98.8594 85.0547 99.1094C85.2943 99.3594 85.4766 99.6901 85.6016 100.102C85.7318 100.513 85.7969 101.016 85.7969 101.609V107H83.5312V101.602C83.5312 101.227 83.4792 100.935 83.375 100.727C83.2708 100.518 83.1172 100.372 82.9141 100.289C82.7161 100.201 82.4714 100.156 82.1797 100.156C81.8776 100.156 81.6146 100.216 81.3906 100.336C81.1719 100.456 80.9896 100.622 80.8438 100.836C80.7031 101.044 80.5964 101.289 80.5234 101.57C80.4505 101.852 80.4141 102.154 80.4141 102.477ZM91.6484 98.5469V100.141H86.7266V98.5469H91.6484ZM87.9453 96.4609H90.1953V104.453C90.1953 104.698 90.2266 104.885 90.2891 105.016C90.3568 105.146 90.4557 105.237 90.5859 105.289C90.7161 105.336 90.8802 105.359 91.0781 105.359C91.2188 105.359 91.3438 105.354 91.4531 105.344C91.5677 105.328 91.6641 105.312 91.7422 105.297L91.75 106.953C91.5573 107.016 91.349 107.065 91.125 107.102C90.901 107.138 90.6536 107.156 90.3828 107.156C89.888 107.156 89.4557 107.076 89.0859 106.914C88.7214 106.747 88.4401 106.482 88.2422 106.117C88.0443 105.753 87.9453 105.273 87.9453 104.68V96.4609ZM95.1797 100.391V107H92.9297V98.5469H95.0469L95.1797 100.391ZM97.7266 98.4922L97.6875 100.578C97.5781 100.562 97.4453 100.549 97.2891 100.539C97.138 100.523 97 100.516 96.875 100.516C96.5573 100.516 96.2812 100.557 96.0469 100.641C95.8177 100.719 95.625 100.836 95.4688 100.992C95.3177 101.148 95.2031 101.339 95.125 101.562C95.0521 101.786 95.0104 102.042 95 102.328L94.5469 102.188C94.5469 101.641 94.6016 101.138 94.7109 100.68C94.8203 100.216 94.9792 99.8125 95.1875 99.4688C95.401 99.125 95.6615 98.8594 95.9688 98.6719C96.276 98.4844 96.6276 98.3906 97.0234 98.3906C97.1484 98.3906 97.276 98.401 97.4062 98.4219C97.5365 98.4375 97.6432 98.4609 97.7266 98.4922ZM103.086 105.094V101.328C103.086 101.057 103.042 100.826 102.953 100.633C102.865 100.435 102.727 100.281 102.539 100.172C102.357 100.062 102.12 100.008 101.828 100.008C101.578 100.008 101.362 100.052 101.18 100.141C100.997 100.224 100.857 100.346 100.758 100.508C100.659 100.664 100.609 100.849 100.609 101.062H98.3594C98.3594 100.703 98.4427 100.362 98.6094 100.039C98.776 99.7161 99.0182 99.4323 99.3359 99.1875C99.6536 98.9375 100.031 98.7422 100.469 98.6016C100.911 98.4609 101.406 98.3906 101.953 98.3906C102.609 98.3906 103.193 98.5 103.703 98.7188C104.214 98.9375 104.615 99.2656 104.906 99.7031C105.203 100.141 105.352 100.688 105.352 101.344V104.961C105.352 105.424 105.38 105.805 105.438 106.102C105.495 106.393 105.578 106.648 105.688 106.867V107H103.414C103.305 106.771 103.221 106.484 103.164 106.141C103.112 105.792 103.086 105.443 103.086 105.094ZM103.383 101.852L103.398 103.125H102.141C101.844 103.125 101.586 103.159 101.367 103.227C101.148 103.294 100.969 103.391 100.828 103.516C100.688 103.635 100.583 103.776 100.516 103.938C100.453 104.099 100.422 104.276 100.422 104.469C100.422 104.661 100.466 104.836 100.555 104.992C100.643 105.143 100.771 105.263 100.938 105.352C101.104 105.435 101.299 105.477 101.523 105.477C101.862 105.477 102.156 105.409 102.406 105.273C102.656 105.138 102.849 104.971 102.984 104.773C103.125 104.576 103.198 104.388 103.203 104.211L103.797 105.164C103.714 105.378 103.599 105.599 103.453 105.828C103.312 106.057 103.133 106.273 102.914 106.477C102.695 106.674 102.432 106.839 102.125 106.969C101.818 107.094 101.453 107.156 101.031 107.156C100.495 107.156 100.008 107.049 99.5703 106.836C99.138 106.617 98.7943 106.318 98.5391 105.938C98.2891 105.552 98.1641 105.115 98.1641 104.625C98.1641 104.182 98.2474 103.789 98.4141 103.445C98.5807 103.102 98.8255 102.812 99.1484 102.578C99.4766 102.339 99.8854 102.159 100.375 102.039C100.865 101.914 101.432 101.852 102.078 101.852H103.383ZM109.461 95V107H107.203V95H109.461Z" fill="#222121"/>
<path fill-rule="evenodd" clip-rule="evenodd" d="M94.9336 18.6677C95.9369 17.6596 97.2795 17.0664 98.6966 17.0053C100.114 16.9441 101.502 17.4193 102.587 18.3372L102.947 18.6677L104.951 20.685C105.953 21.6932 106.543 23.0425 106.604 24.4667C106.666 25.8908 106.194 27.2864 105.282 28.378L104.954 28.7427L102.947 30.7571C102.775 30.9302 102.591 31.092 102.398 31.2415C102.645 32.1352 102.673 33.0764 102.477 33.9831C102.28 34.8898 101.867 35.7346 101.273 36.4442L100.944 36.8004L98.1385 39.6211C100.09 41.3574 101.651 43.491 102.72 45.8803C103.788 48.2696 104.339 50.8601 104.336 53.4799C104.336 58.164 102.607 62.4408 99.7565 65.7032L99.2068 66.3015H107.169C107.892 66.3023 108.586 66.5804 109.112 67.0789C109.637 67.5774 109.953 68.2588 109.995 68.9838C110.037 69.7087 109.803 70.4226 109.339 70.9795C108.876 71.5364 108.218 71.8943 107.501 71.9801L107.169 72H61.8305C61.1083 71.9992 60.4136 71.7211 59.8884 71.2226C59.3632 70.7241 59.0472 70.0427 59.0049 69.3177C58.9625 68.5928 59.1971 67.8789 59.6607 67.322C60.1243 66.7651 60.7818 66.4072 61.499 66.3214L61.8305 66.3015H85.9168C88.4751 66.3018 90.9743 65.5284 93.0897 64.0818C95.2051 62.6351 96.8388 60.5821 97.7785 58.1896C98.7183 55.7971 98.9206 53.1757 98.3591 50.6661C97.7977 48.1565 96.4985 45.8747 94.6304 44.1172L94.1204 43.6614L84.9137 52.9214C83.9106 53.9287 82.5685 54.5214 81.1522 54.5826C79.7358 54.6438 78.3481 54.169 77.2628 53.2519L76.9001 52.9186L70.8898 46.8753C69.8868 45.8669 69.2964 44.5171 69.235 43.0923C69.1736 41.6674 69.6458 40.2713 70.5583 39.1795L70.8898 38.8176L86.92 22.6994C87.6297 21.9855 88.5153 21.474 89.4862 21.2172C90.4571 20.9604 91.4784 20.9675 92.4456 21.2378L92.678 20.9528L92.9302 20.685L94.9336 18.6677ZM68.8864 48.8926L74.8938 54.9358C75.1646 55.1985 75.3807 55.5127 75.5295 55.8602C75.6782 56.2078 75.7567 56.5816 75.7602 56.9599C75.7637 57.3382 75.6923 57.7134 75.5501 58.0637C75.4078 58.414 75.1976 58.7322 74.9318 58.9999C74.6659 59.2677 74.3497 59.4794 74.0015 59.6229C73.6534 59.7665 73.2803 59.8388 72.904 59.8358C72.5278 59.8328 72.1559 59.7545 71.8101 59.6054C71.4643 59.4563 71.1514 59.2395 70.8898 58.9675L64.8768 52.9214C64.6137 52.6567 64.405 52.3425 64.2627 51.9967C64.1204 51.6508 64.0472 51.2802 64.0473 50.906C64.0475 50.5317 64.1209 50.1612 64.2635 49.8155C64.406 49.4698 64.6149 49.1557 64.8782 48.8912C65.1414 48.6266 65.454 48.4168 65.7979 48.2737C66.1418 48.1306 66.5104 48.057 66.8826 48.0572C67.2548 48.0573 67.6233 48.1311 67.9671 48.2745C68.3109 48.4178 68.6233 48.6279 68.8864 48.8926ZM98.9404 22.7023L96.937 24.7167L98.9404 26.7311L100.944 24.7167L98.9404 22.7023Z" fill="#2A6D4C"/>
</svg>
