<svg width="169" height="130" viewBox="0 0 169 130" fill="none" xmlns="http://www.w3.org/2000/svg">
<rect width="169" height="130" rx="10" fill="#2A6D4C"/>
<path d="M45.5781 78.625H47.5625L50.4844 86.9766L53.4062 78.625H55.3906L51.2812 90H49.6875L45.5781 78.625ZM44.5078 78.625H46.4844L46.8438 86.7656V90H44.5078V78.625ZM54.4844 78.625H56.4688V90H54.125V86.7656L54.4844 78.625ZM58.0234 85.8594V85.6953C58.0234 85.0755 58.112 84.5052 58.2891 83.9844C58.4661 83.4583 58.724 83.0026 59.0625 82.6172C59.401 82.2318 59.8177 81.9323 60.3125 81.7188C60.8073 81.5 61.375 81.3906 62.0156 81.3906C62.6562 81.3906 63.2266 81.5 63.7266 81.7188C64.2266 81.9323 64.6458 82.2318 64.9844 82.6172C65.3281 83.0026 65.5885 83.4583 65.7656 83.9844C65.9427 84.5052 66.0312 85.0755 66.0312 85.6953V85.8594C66.0312 86.474 65.9427 87.0443 65.7656 87.5703C65.5885 88.0911 65.3281 88.5469 64.9844 88.9375C64.6458 89.3229 64.2292 89.6224 63.7344 89.8359C63.2396 90.0495 62.6719 90.1562 62.0312 90.1562C61.3906 90.1562 60.8203 90.0495 60.3203 89.8359C59.8255 89.6224 59.4062 89.3229 59.0625 88.9375C58.724 88.5469 58.4661 88.0911 58.2891 87.5703C58.112 87.0443 58.0234 86.474 58.0234 85.8594ZM60.2734 85.6953V85.8594C60.2734 86.2135 60.3047 86.5443 60.3672 86.8516C60.4297 87.1589 60.5286 87.4297 60.6641 87.6641C60.8047 87.8932 60.987 88.0729 61.2109 88.2031C61.4349 88.3333 61.7083 88.3984 62.0312 88.3984C62.3438 88.3984 62.612 88.3333 62.8359 88.2031C63.0599 88.0729 63.2396 87.8932 63.375 87.6641C63.5104 87.4297 63.6094 87.1589 63.6719 86.8516C63.7396 86.5443 63.7734 86.2135 63.7734 85.8594V85.6953C63.7734 85.3516 63.7396 85.0286 63.6719 84.7266C63.6094 84.4193 63.5078 84.1484 63.3672 83.9141C63.2318 83.6745 63.0521 83.487 62.8281 83.3516C62.6042 83.2161 62.3333 83.1484 62.0156 83.1484C61.6979 83.1484 61.4271 83.2161 61.2031 83.3516C60.9844 83.487 60.8047 83.6745 60.6641 83.9141C60.5286 84.1484 60.4297 84.4193 60.3672 84.7266C60.3047 85.0286 60.2734 85.3516 60.2734 85.6953ZM71.9844 87.6641C71.9844 87.5026 71.9375 87.3568 71.8438 87.2266C71.75 87.0964 71.5755 86.9766 71.3203 86.8672C71.0703 86.7526 70.7083 86.6484 70.2344 86.5547C69.8073 86.4609 69.4089 86.3438 69.0391 86.2031C68.6745 86.0573 68.3568 85.8828 68.0859 85.6797C67.8203 85.4766 67.612 85.237 67.4609 84.9609C67.3099 84.6797 67.2344 84.3594 67.2344 84C67.2344 83.6458 67.3099 83.3125 67.4609 83C67.6172 82.6875 67.8385 82.4115 68.125 82.1719C68.4167 81.9271 68.7708 81.737 69.1875 81.6016C69.6094 81.4609 70.0833 81.3906 70.6094 81.3906C71.3438 81.3906 71.974 81.5078 72.5 81.7422C73.0312 81.9766 73.4375 82.2995 73.7188 82.7109C74.0052 83.1172 74.1484 83.5807 74.1484 84.1016H71.8984C71.8984 83.8828 71.8516 83.6875 71.7578 83.5156C71.6693 83.3385 71.5286 83.2005 71.3359 83.1016C71.1484 82.9974 70.9036 82.9453 70.6016 82.9453C70.3516 82.9453 70.1354 82.9896 69.9531 83.0781C69.7708 83.1615 69.6302 83.276 69.5312 83.4219C69.4375 83.5625 69.3906 83.7188 69.3906 83.8906C69.3906 84.0208 69.4167 84.138 69.4688 84.2422C69.526 84.3411 69.6172 84.4323 69.7422 84.5156C69.8672 84.599 70.0286 84.6771 70.2266 84.75C70.4297 84.8177 70.6797 84.8802 70.9766 84.9375C71.5859 85.0625 72.1302 85.2266 72.6094 85.4297C73.0885 85.6276 73.4688 85.8984 73.75 86.2422C74.0312 86.5807 74.1719 87.026 74.1719 87.5781C74.1719 87.9531 74.0885 88.2969 73.9219 88.6094C73.7552 88.9219 73.5156 89.1953 73.2031 89.4297C72.8906 89.6589 72.5156 89.8385 72.0781 89.9688C71.6458 90.0938 71.1589 90.1562 70.6172 90.1562C69.8307 90.1562 69.1641 90.0156 68.6172 89.7344C68.0755 89.4531 67.6641 89.0964 67.3828 88.6641C67.1068 88.2266 66.9688 87.7786 66.9688 87.3203H69.1016C69.112 87.6276 69.1901 87.875 69.3359 88.0625C69.487 88.25 69.6771 88.3854 69.9062 88.4688C70.1406 88.5521 70.3932 88.5938 70.6641 88.5938C70.9557 88.5938 71.1979 88.5547 71.3906 88.4766C71.5833 88.3932 71.7292 88.2839 71.8281 88.1484C71.9323 88.0078 71.9844 87.8464 71.9844 87.6641ZM79.125 88.3984C79.401 88.3984 79.6458 88.3464 79.8594 88.2422C80.0729 88.1328 80.2396 87.9818 80.3594 87.7891C80.4844 87.5911 80.5495 87.3594 80.5547 87.0938H82.6719C82.6667 87.6875 82.5078 88.2161 82.1953 88.6797C81.8828 89.138 81.4635 89.5 80.9375 89.7656C80.4115 90.026 79.8229 90.1562 79.1719 90.1562C78.5156 90.1562 77.9427 90.0469 77.4531 89.8281C76.9688 89.6094 76.5651 89.3073 76.2422 88.9219C75.9193 88.5312 75.6771 88.0781 75.5156 87.5625C75.3542 87.0417 75.2734 86.4844 75.2734 85.8906V85.6641C75.2734 85.0651 75.3542 84.5078 75.5156 83.9922C75.6771 83.4714 75.9193 83.0182 76.2422 82.6328C76.5651 82.2422 76.9688 81.9375 77.4531 81.7188C77.9375 81.5 78.5052 81.3906 79.1562 81.3906C79.849 81.3906 80.4557 81.5234 80.9766 81.7891C81.5026 82.0547 81.9141 82.4349 82.2109 82.9297C82.513 83.4193 82.6667 84 82.6719 84.6719H80.5547C80.5495 84.3906 80.4896 84.1354 80.375 83.9062C80.2656 83.6771 80.1042 83.4948 79.8906 83.3594C79.6823 83.2188 79.4245 83.1484 79.1172 83.1484C78.7891 83.1484 78.5208 83.2188 78.3125 83.3594C78.1042 83.4948 77.9427 83.6823 77.8281 83.9219C77.7135 84.1562 77.6328 84.4245 77.5859 84.7266C77.5443 85.0234 77.5234 85.3359 77.5234 85.6641V85.8906C77.5234 86.2188 77.5443 86.5339 77.5859 86.8359C77.6276 87.138 77.7057 87.4062 77.8203 87.6406C77.9401 87.875 78.1042 88.0599 78.3125 88.1953C78.5208 88.3307 78.7917 88.3984 79.125 88.3984ZM88.5391 88.0938V84.3281C88.5391 84.0573 88.4948 83.8255 88.4062 83.6328C88.3177 83.4349 88.1797 83.2812 87.9922 83.1719C87.8099 83.0625 87.5729 83.0078 87.2812 83.0078C87.0312 83.0078 86.8151 83.0521 86.6328 83.1406C86.4505 83.224 86.3099 83.3464 86.2109 83.5078C86.112 83.6641 86.0625 83.849 86.0625 84.0625H83.8125C83.8125 83.7031 83.8958 83.362 84.0625 83.0391C84.2292 82.7161 84.4714 82.4323 84.7891 82.1875C85.1068 81.9375 85.4844 81.7422 85.9219 81.6016C86.3646 81.4609 86.8594 81.3906 87.4062 81.3906C88.0625 81.3906 88.6458 81.5 89.1562 81.7188C89.6667 81.9375 90.0677 82.2656 90.3594 82.7031C90.6562 83.1406 90.8047 83.6875 90.8047 84.3438V87.9609C90.8047 88.4245 90.8333 88.8047 90.8906 89.1016C90.9479 89.3932 91.0312 89.6484 91.1406 89.8672V90H88.8672C88.7578 89.7708 88.6745 89.4844 88.6172 89.1406C88.5651 88.7917 88.5391 88.4427 88.5391 88.0938ZM88.8359 84.8516L88.8516 86.125H87.5938C87.2969 86.125 87.0391 86.1589 86.8203 86.2266C86.6016 86.2943 86.4219 86.3906 86.2812 86.5156C86.1406 86.6354 86.0365 86.776 85.9688 86.9375C85.9062 87.099 85.875 87.276 85.875 87.4688C85.875 87.6615 85.9193 87.8359 86.0078 87.9922C86.0964 88.1432 86.224 88.263 86.3906 88.3516C86.5573 88.4349 86.7526 88.4766 86.9766 88.4766C87.3151 88.4766 87.6094 88.4089 87.8594 88.2734C88.1094 88.138 88.3021 87.9714 88.4375 87.7734C88.5781 87.5755 88.651 87.388 88.6562 87.2109L89.25 88.1641C89.1667 88.3776 89.0521 88.599 88.9062 88.8281C88.7656 89.0573 88.5859 89.2734 88.3672 89.4766C88.1484 89.6745 87.8854 89.8385 87.5781 89.9688C87.2708 90.0938 86.9062 90.1562 86.4844 90.1562C85.9479 90.1562 85.4609 90.0495 85.0234 89.8359C84.5911 89.6172 84.2474 89.3177 83.9922 88.9375C83.7422 88.5521 83.6172 88.1146 83.6172 87.625C83.6172 87.1823 83.7005 86.7891 83.8672 86.4453C84.0339 86.1016 84.2786 85.8125 84.6016 85.5781C84.9297 85.3385 85.3385 85.1589 85.8281 85.0391C86.3177 84.9141 86.8854 84.8516 87.5312 84.8516H88.8359ZM101.516 88.1562V78H103.781V90H101.742L101.516 88.1562ZM96.1719 85.875V85.7109C96.1719 85.0651 96.2448 84.4792 96.3906 83.9531C96.5365 83.4219 96.75 82.9661 97.0312 82.5859C97.3125 82.2057 97.6589 81.9115 98.0703 81.7031C98.4818 81.4948 98.9505 81.3906 99.4766 81.3906C99.9714 81.3906 100.404 81.4948 100.773 81.7031C101.148 81.9115 101.466 82.2083 101.727 82.5938C101.992 82.974 102.206 83.4245 102.367 83.9453C102.529 84.4609 102.646 85.026 102.719 85.6406V86C102.646 86.5885 102.529 87.1354 102.367 87.6406C102.206 88.1458 101.992 88.5885 101.727 88.9688C101.466 89.3438 101.148 89.6354 100.773 89.8438C100.398 90.0521 99.9609 90.1562 99.4609 90.1562C98.9349 90.1562 98.4661 90.0495 98.0547 89.8359C97.6484 89.6224 97.3047 89.3229 97.0234 88.9375C96.7474 88.5521 96.5365 88.099 96.3906 87.5781C96.2448 87.0573 96.1719 86.4896 96.1719 85.875ZM98.4219 85.7109V85.875C98.4219 86.224 98.4479 86.5495 98.5 86.8516C98.5573 87.1536 98.6484 87.4219 98.7734 87.6562C98.9036 87.8854 99.0703 88.0651 99.2734 88.1953C99.4818 88.3203 99.7344 88.3828 100.031 88.3828C100.417 88.3828 100.734 88.2969 100.984 88.125C101.234 87.9479 101.424 87.7057 101.555 87.3984C101.69 87.0911 101.768 86.737 101.789 86.3359V85.3125C101.773 84.9844 101.727 84.6901 101.648 84.4297C101.576 84.1641 101.466 83.9375 101.32 83.75C101.18 83.5625 101.003 83.4167 100.789 83.3125C100.581 83.2083 100.333 83.1562 100.047 83.1562C99.7552 83.1562 99.5052 83.224 99.2969 83.3594C99.0885 83.4896 98.9193 83.6693 98.7891 83.8984C98.6641 84.1276 98.5703 84.3984 98.5078 84.7109C98.4505 85.0182 98.4219 85.3516 98.4219 85.7109ZM109.43 90.1562C108.773 90.1562 108.185 90.0521 107.664 89.8438C107.143 89.6302 106.701 89.3359 106.336 88.9609C105.977 88.5859 105.701 88.151 105.508 87.6562C105.315 87.1562 105.219 86.625 105.219 86.0625V85.75C105.219 85.1094 105.31 84.5234 105.492 83.9922C105.674 83.4609 105.935 83 106.273 82.6094C106.617 82.2188 107.034 81.9193 107.523 81.7109C108.013 81.4974 108.565 81.3906 109.18 81.3906C109.779 81.3906 110.31 81.4896 110.773 81.6875C111.237 81.8854 111.625 82.1667 111.938 82.5312C112.255 82.8958 112.495 83.3333 112.656 83.8438C112.818 84.349 112.898 84.9115 112.898 85.5312V86.4688H106.18V84.9688H110.688V84.7969C110.688 84.4844 110.63 84.2057 110.516 83.9609C110.406 83.7109 110.24 83.513 110.016 83.3672C109.792 83.2214 109.505 83.1484 109.156 83.1484C108.859 83.1484 108.604 83.2135 108.391 83.3438C108.177 83.474 108.003 83.6562 107.867 83.8906C107.737 84.125 107.638 84.401 107.57 84.7188C107.508 85.0312 107.477 85.375 107.477 85.75V86.0625C107.477 86.401 107.523 86.7135 107.617 87C107.716 87.2865 107.854 87.5339 108.031 87.7422C108.214 87.9505 108.432 88.112 108.688 88.2266C108.948 88.3411 109.242 88.3984 109.57 88.3984C109.977 88.3984 110.354 88.3203 110.703 88.1641C111.057 88.0026 111.362 87.7604 111.617 87.4375L112.711 88.625C112.534 88.8802 112.292 89.125 111.984 89.3594C111.682 89.5938 111.318 89.7865 110.891 89.9375C110.464 90.0833 109.977 90.1562 109.43 90.1562ZM116.555 78V90H114.297V78H116.555ZM38.2734 97.625H40.2578L43.1797 105.977L46.1016 97.625H48.0859L43.9766 109H42.3828L38.2734 97.625ZM37.2031 97.625H39.1797L39.5391 105.766V109H37.2031V97.625ZM47.1797 97.625H49.1641V109H46.8203V105.766L47.1797 97.625ZM54.9688 109.156C54.3125 109.156 53.724 109.052 53.2031 108.844C52.6823 108.63 52.2396 108.336 51.875 107.961C51.5156 107.586 51.2396 107.151 51.0469 106.656C50.8542 106.156 50.7578 105.625 50.7578 105.062V104.75C50.7578 104.109 50.849 103.523 51.0312 102.992C51.2135 102.461 51.474 102 51.8125 101.609C52.1562 101.219 52.5729 100.919 53.0625 100.711C53.5521 100.497 54.1042 100.391 54.7188 100.391C55.3177 100.391 55.849 100.49 56.3125 100.688C56.776 100.885 57.1641 101.167 57.4766 101.531C57.7943 101.896 58.0339 102.333 58.1953 102.844C58.3568 103.349 58.4375 103.911 58.4375 104.531V105.469H51.7188V103.969H56.2266V103.797C56.2266 103.484 56.1693 103.206 56.0547 102.961C55.9453 102.711 55.7786 102.513 55.5547 102.367C55.3307 102.221 55.0443 102.148 54.6953 102.148C54.3984 102.148 54.1432 102.214 53.9297 102.344C53.7161 102.474 53.5417 102.656 53.4062 102.891C53.276 103.125 53.1771 103.401 53.1094 103.719C53.0469 104.031 53.0156 104.375 53.0156 104.75V105.062C53.0156 105.401 53.0625 105.714 53.1562 106C53.2552 106.286 53.3932 106.534 53.5703 106.742C53.7526 106.951 53.9714 107.112 54.2266 107.227C54.487 107.341 54.7812 107.398 55.1094 107.398C55.5156 107.398 55.8932 107.32 56.2422 107.164C56.5964 107.003 56.901 106.76 57.1562 106.438L58.25 107.625C58.0729 107.88 57.8307 108.125 57.5234 108.359C57.2214 108.594 56.8568 108.786 56.4297 108.938C56.0026 109.083 55.5156 109.156 54.9688 109.156ZM64.7109 107.156V97H66.9766V109H64.9375L64.7109 107.156ZM59.3672 104.875V104.711C59.3672 104.065 59.4401 103.479 59.5859 102.953C59.7318 102.422 59.9453 101.966 60.2266 101.586C60.5078 101.206 60.8542 100.911 61.2656 100.703C61.6771 100.495 62.1458 100.391 62.6719 100.391C63.1667 100.391 63.599 100.495 63.9688 100.703C64.3438 100.911 64.6615 101.208 64.9219 101.594C65.1875 101.974 65.401 102.424 65.5625 102.945C65.724 103.461 65.8411 104.026 65.9141 104.641V105C65.8411 105.589 65.724 106.135 65.5625 106.641C65.401 107.146 65.1875 107.589 64.9219 107.969C64.6615 108.344 64.3438 108.635 63.9688 108.844C63.5938 109.052 63.1562 109.156 62.6562 109.156C62.1302 109.156 61.6615 109.049 61.25 108.836C60.8438 108.622 60.5 108.323 60.2188 107.938C59.9427 107.552 59.7318 107.099 59.5859 106.578C59.4401 106.057 59.3672 105.49 59.3672 104.875ZM61.6172 104.711V104.875C61.6172 105.224 61.6432 105.549 61.6953 105.852C61.7526 106.154 61.8438 106.422 61.9688 106.656C62.099 106.885 62.2656 107.065 62.4688 107.195C62.6771 107.32 62.9297 107.383 63.2266 107.383C63.612 107.383 63.9297 107.297 64.1797 107.125C64.4297 106.948 64.6198 106.706 64.75 106.398C64.8854 106.091 64.9635 105.737 64.9844 105.336V104.312C64.9688 103.984 64.9219 103.69 64.8438 103.43C64.7708 103.164 64.6615 102.938 64.5156 102.75C64.375 102.562 64.1979 102.417 63.9844 102.312C63.776 102.208 63.5286 102.156 63.2422 102.156C62.9505 102.156 62.7005 102.224 62.4922 102.359C62.2839 102.49 62.1146 102.669 61.9844 102.898C61.8594 103.128 61.7656 103.398 61.7031 103.711C61.6458 104.018 61.6172 104.352 61.6172 104.711ZM71.1094 100.547V109H68.8516V100.547H71.1094ZM68.7109 98.3438C68.7109 98.0156 68.8255 97.7448 69.0547 97.5312C69.2839 97.3177 69.5911 97.2109 69.9766 97.2109C70.3568 97.2109 70.6615 97.3177 70.8906 97.5312C71.125 97.7448 71.2422 98.0156 71.2422 98.3438C71.2422 98.6719 71.125 98.9427 70.8906 99.1562C70.6615 99.3698 70.3568 99.4766 69.9766 99.4766C69.5911 99.4766 69.2839 99.3698 69.0547 99.1562C68.8255 98.9427 68.7109 98.6719 68.7109 98.3438ZM77.1094 100.547V102.141H72.1875V100.547H77.1094ZM73.4062 98.4609H75.6562V106.453C75.6562 106.698 75.6875 106.885 75.75 107.016C75.8177 107.146 75.9167 107.237 76.0469 107.289C76.1771 107.336 76.3411 107.359 76.5391 107.359C76.6797 107.359 76.8047 107.354 76.9141 107.344C77.0286 107.328 77.125 107.312 77.2031 107.297L77.2109 108.953C77.0182 109.016 76.8099 109.065 76.5859 109.102C76.362 109.138 76.1146 109.156 75.8438 109.156C75.349 109.156 74.9167 109.076 74.5469 108.914C74.1823 108.747 73.901 108.482 73.7031 108.117C73.5052 107.753 73.4062 107.273 73.4062 106.68V98.4609ZM82.2812 109.156C81.625 109.156 81.0365 109.052 80.5156 108.844C79.9948 108.63 79.5521 108.336 79.1875 107.961C78.8281 107.586 78.5521 107.151 78.3594 106.656C78.1667 106.156 78.0703 105.625 78.0703 105.062V104.75C78.0703 104.109 78.1615 103.523 78.3438 102.992C78.526 102.461 78.7865 102 79.125 101.609C79.4688 101.219 79.8854 100.919 80.375 100.711C80.8646 100.497 81.4167 100.391 82.0312 100.391C82.6302 100.391 83.1615 100.49 83.625 100.688C84.0885 100.885 84.4766 101.167 84.7891 101.531C85.1068 101.896 85.3464 102.333 85.5078 102.844C85.6693 103.349 85.75 103.911 85.75 104.531V105.469H79.0312V103.969H83.5391V103.797C83.5391 103.484 83.4818 103.206 83.3672 102.961C83.2578 102.711 83.0911 102.513 82.8672 102.367C82.6432 102.221 82.3568 102.148 82.0078 102.148C81.7109 102.148 81.4557 102.214 81.2422 102.344C81.0286 102.474 80.8542 102.656 80.7188 102.891C80.5885 103.125 80.4896 103.401 80.4219 103.719C80.3594 104.031 80.3281 104.375 80.3281 104.75V105.062C80.3281 105.401 80.375 105.714 80.4688 106C80.5677 106.286 80.7057 106.534 80.8828 106.742C81.0651 106.951 81.2839 107.112 81.5391 107.227C81.7995 107.341 82.0938 107.398 82.4219 107.398C82.8281 107.398 83.2057 107.32 83.5547 107.164C83.9089 107.003 84.2135 106.76 84.4688 106.438L85.5625 107.625C85.3854 107.88 85.1432 108.125 84.8359 108.359C84.5339 108.594 84.1693 108.786 83.7422 108.938C83.3151 109.083 82.8281 109.156 82.2812 109.156ZM89.2812 102.391V109H87.0312V100.547H89.1484L89.2812 102.391ZM91.8281 100.492L91.7891 102.578C91.6797 102.562 91.5469 102.549 91.3906 102.539C91.2396 102.523 91.1016 102.516 90.9766 102.516C90.6589 102.516 90.3828 102.557 90.1484 102.641C89.9193 102.719 89.7266 102.836 89.5703 102.992C89.4193 103.148 89.3047 103.339 89.2266 103.562C89.1536 103.786 89.112 104.042 89.1016 104.328L88.6484 104.188C88.6484 103.641 88.7031 103.138 88.8125 102.68C88.9219 102.216 89.0807 101.812 89.2891 101.469C89.5026 101.125 89.763 100.859 90.0703 100.672C90.3776 100.484 90.7292 100.391 91.125 100.391C91.25 100.391 91.3776 100.401 91.5078 100.422C91.638 100.438 91.7448 100.461 91.8281 100.492ZM95.1406 102.391V109H92.8906V100.547H95.0078L95.1406 102.391ZM97.6875 100.492L97.6484 102.578C97.5391 102.562 97.4062 102.549 97.25 102.539C97.099 102.523 96.9609 102.516 96.8359 102.516C96.5182 102.516 96.2422 102.557 96.0078 102.641C95.7786 102.719 95.5859 102.836 95.4297 102.992C95.2786 103.148 95.1641 103.339 95.0859 103.562C95.013 103.786 94.9714 104.042 94.9609 104.328L94.5078 104.188C94.5078 103.641 94.5625 103.138 94.6719 102.68C94.7812 102.216 94.9401 101.812 95.1484 101.469C95.362 101.125 95.6224 100.859 95.9297 100.672C96.237 100.484 96.5885 100.391 96.9844 100.391C97.1094 100.391 97.237 100.401 97.3672 100.422C97.4974 100.438 97.6042 100.461 97.6875 100.492ZM103.047 107.094V103.328C103.047 103.057 103.003 102.826 102.914 102.633C102.826 102.435 102.688 102.281 102.5 102.172C102.318 102.062 102.081 102.008 101.789 102.008C101.539 102.008 101.323 102.052 101.141 102.141C100.958 102.224 100.818 102.346 100.719 102.508C100.62 102.664 100.57 102.849 100.57 103.062H98.3203C98.3203 102.703 98.4036 102.362 98.5703 102.039C98.737 101.716 98.9792 101.432 99.2969 101.188C99.6146 100.938 99.9922 100.742 100.43 100.602C100.872 100.461 101.367 100.391 101.914 100.391C102.57 100.391 103.154 100.5 103.664 100.719C104.174 100.938 104.576 101.266 104.867 101.703C105.164 102.141 105.312 102.688 105.312 103.344V106.961C105.312 107.424 105.341 107.805 105.398 108.102C105.456 108.393 105.539 108.648 105.648 108.867V109H103.375C103.266 108.771 103.182 108.484 103.125 108.141C103.073 107.792 103.047 107.443 103.047 107.094ZM103.344 103.852L103.359 105.125H102.102C101.805 105.125 101.547 105.159 101.328 105.227C101.109 105.294 100.93 105.391 100.789 105.516C100.648 105.635 100.544 105.776 100.477 105.938C100.414 106.099 100.383 106.276 100.383 106.469C100.383 106.661 100.427 106.836 100.516 106.992C100.604 107.143 100.732 107.263 100.898 107.352C101.065 107.435 101.26 107.477 101.484 107.477C101.823 107.477 102.117 107.409 102.367 107.273C102.617 107.138 102.81 106.971 102.945 106.773C103.086 106.576 103.159 106.388 103.164 106.211L103.758 107.164C103.674 107.378 103.56 107.599 103.414 107.828C103.273 108.057 103.094 108.273 102.875 108.477C102.656 108.674 102.393 108.839 102.086 108.969C101.779 109.094 101.414 109.156 100.992 109.156C100.456 109.156 99.9688 109.049 99.5312 108.836C99.099 108.617 98.7552 108.318 98.5 107.938C98.25 107.552 98.125 107.115 98.125 106.625C98.125 106.182 98.2083 105.789 98.375 105.445C98.5417 105.102 98.7865 104.812 99.1094 104.578C99.4375 104.339 99.8464 104.159 100.336 104.039C100.826 103.914 101.393 103.852 102.039 103.852H103.344ZM100.836 99.4062L102.367 97H104.812L102.664 99.4062H100.836ZM109.25 102.352V109H107V100.547H109.109L109.25 102.352ZM108.922 104.477H108.312C108.312 103.852 108.393 103.289 108.555 102.789C108.716 102.284 108.943 101.854 109.234 101.5C109.526 101.141 109.872 100.867 110.273 100.68C110.68 100.487 111.133 100.391 111.633 100.391C112.029 100.391 112.391 100.448 112.719 100.562C113.047 100.677 113.328 100.859 113.562 101.109C113.802 101.359 113.984 101.69 114.109 102.102C114.24 102.513 114.305 103.016 114.305 103.609V109H112.039V103.602C112.039 103.227 111.987 102.935 111.883 102.727C111.779 102.518 111.625 102.372 111.422 102.289C111.224 102.201 110.979 102.156 110.688 102.156C110.385 102.156 110.122 102.216 109.898 102.336C109.68 102.456 109.497 102.622 109.352 102.836C109.211 103.044 109.104 103.289 109.031 103.57C108.958 103.852 108.922 104.154 108.922 104.477ZM119.906 109.156C119.25 109.156 118.661 109.052 118.141 108.844C117.62 108.63 117.177 108.336 116.812 107.961C116.453 107.586 116.177 107.151 115.984 106.656C115.792 106.156 115.695 105.625 115.695 105.062V104.75C115.695 104.109 115.786 103.523 115.969 102.992C116.151 102.461 116.411 102 116.75 101.609C117.094 101.219 117.51 100.919 118 100.711C118.49 100.497 119.042 100.391 119.656 100.391C120.255 100.391 120.786 100.49 121.25 100.688C121.714 100.885 122.102 101.167 122.414 101.531C122.732 101.896 122.971 102.333 123.133 102.844C123.294 103.349 123.375 103.911 123.375 104.531V105.469H116.656V103.969H121.164V103.797C121.164 103.484 121.107 103.206 120.992 102.961C120.883 102.711 120.716 102.513 120.492 102.367C120.268 102.221 119.982 102.148 119.633 102.148C119.336 102.148 119.081 102.214 118.867 102.344C118.654 102.474 118.479 102.656 118.344 102.891C118.214 103.125 118.115 103.401 118.047 103.719C117.984 104.031 117.953 104.375 117.953 104.75V105.062C117.953 105.401 118 105.714 118.094 106C118.193 106.286 118.331 106.534 118.508 106.742C118.69 106.951 118.909 107.112 119.164 107.227C119.424 107.341 119.719 107.398 120.047 107.398C120.453 107.398 120.831 107.32 121.18 107.164C121.534 107.003 121.839 106.76 122.094 106.438L123.188 107.625C123.01 107.88 122.768 108.125 122.461 108.359C122.159 108.594 121.794 108.786 121.367 108.938C120.94 109.083 120.453 109.156 119.906 109.156ZM124.297 104.859V104.695C124.297 104.076 124.385 103.505 124.562 102.984C124.74 102.458 124.997 102.003 125.336 101.617C125.674 101.232 126.091 100.932 126.586 100.719C127.081 100.5 127.648 100.391 128.289 100.391C128.93 100.391 129.5 100.5 130 100.719C130.5 100.932 130.919 101.232 131.258 101.617C131.602 102.003 131.862 102.458 132.039 102.984C132.216 103.505 132.305 104.076 132.305 104.695V104.859C132.305 105.474 132.216 106.044 132.039 106.57C131.862 107.091 131.602 107.547 131.258 107.938C130.919 108.323 130.503 108.622 130.008 108.836C129.513 109.049 128.945 109.156 128.305 109.156C127.664 109.156 127.094 109.049 126.594 108.836C126.099 108.622 125.68 108.323 125.336 107.938C124.997 107.547 124.74 107.091 124.562 106.57C124.385 106.044 124.297 105.474 124.297 104.859ZM126.547 104.695V104.859C126.547 105.214 126.578 105.544 126.641 105.852C126.703 106.159 126.802 106.43 126.938 106.664C127.078 106.893 127.26 107.073 127.484 107.203C127.708 107.333 127.982 107.398 128.305 107.398C128.617 107.398 128.885 107.333 129.109 107.203C129.333 107.073 129.513 106.893 129.648 106.664C129.784 106.43 129.883 106.159 129.945 105.852C130.013 105.544 130.047 105.214 130.047 104.859V104.695C130.047 104.352 130.013 104.029 129.945 103.727C129.883 103.419 129.781 103.148 129.641 102.914C129.505 102.674 129.326 102.487 129.102 102.352C128.878 102.216 128.607 102.148 128.289 102.148C127.971 102.148 127.701 102.216 127.477 102.352C127.258 102.487 127.078 102.674 126.938 102.914C126.802 103.148 126.703 103.419 126.641 103.727C126.578 104.029 126.547 104.352 126.547 104.695Z" fill="white"/>
<path d="M105.692 33.8865C104.115 29.1206 100.961 25.9433 96.2294 23.9574V18H92.2867V23.5603H90.7097C86.3728 23.5603 82.8244 25.1489 79.6703 28.3262L78.0932 29.9149L72.5735 27.9291C71.3907 27.5319 70.2079 27.1348 68.6308 27.1348C66.2652 27.1348 63.8996 27.9291 61.9283 29.5177C59.5627 31.1064 58.3799 33.0922 57.5914 35.078C56.8029 37.8582 56.8029 40.2411 57.5914 43.0213C58.7742 45.8014 59.957 47.7872 61.9283 48.9787C60.3513 54.9362 61.5341 60.0993 65.871 64.4681C69.0251 67.6454 72.5735 69.234 76.9104 69.234C78.8817 69.234 80.0645 69.234 81.2473 68.8369C83.6129 72.0142 86.767 74 90.7097 74C91.8925 74 93.4695 74 94.6523 73.6028C97.0179 72.8085 98.595 71.2199 100.172 69.234C101.749 66.8511 102.538 64.8652 102.538 62.4823C102.538 60.8936 102.538 59.7021 102.143 58.5106L100.172 52.156L102.538 50.5674C105.692 47.3901 107.269 43.0213 106.875 38.2553H112V33.8865H105.692ZM67.448 43.0213C65.0824 41.8298 64.2939 40.2411 65.0824 37.8582C65.871 35.4752 67.448 34.6808 69.8136 35.4752L82.4301 40.2411C76.1219 43.4184 71.3907 44.2128 67.448 43.0213ZM92.2867 65.2624C89.9211 66.0567 88.3441 65.2624 87.1613 62.8794C85.9785 58.9078 86.767 54.1418 89.9211 47.7872L94.6523 60.0993C95.4409 62.8794 94.6523 64.4681 92.2867 65.2624ZM97.0179 44.2128L94.6523 37.8582V37.461L93.4695 36.2695H93.0753L86.767 33.8865C88.3441 32.695 89.9211 31.9007 91.8925 31.9007C93.8638 31.9007 95.8351 32.695 97.4122 34.2837C98.9893 35.8723 99.7778 37.461 99.7778 39.4468C98.9892 40.6383 98.2007 42.6241 97.0179 44.2128Z" fill="white"/>
</svg>
