<svg width="169" height="130" viewBox="0 0 169 130" fill="none" xmlns="http://www.w3.org/2000/svg">
<rect width="169" height="130" rx="10" fill="#2A6D4C"/>
<path d="M52.5 85.0234C52.5 84.8203 52.4688 84.638 52.4062 84.4766C52.349 84.3099 52.2396 84.1589 52.0781 84.0234C51.9167 83.8828 51.6901 83.7448 51.3984 83.6094C51.1068 83.474 50.7292 83.3333 50.2656 83.1875C49.75 83.0208 49.2604 82.8333 48.7969 82.625C48.3385 82.4167 47.9323 82.1745 47.5781 81.8984C47.2292 81.6172 46.9531 81.2917 46.75 80.9219C46.5521 80.5521 46.4531 80.1224 46.4531 79.6328C46.4531 79.1589 46.5573 78.7292 46.7656 78.3438C46.974 77.9531 47.2656 77.6198 47.6406 77.3438C48.0156 77.0625 48.4583 76.8464 48.9688 76.6953C49.4844 76.5443 50.0495 76.4688 50.6641 76.4688C51.5026 76.4688 52.2344 76.6198 52.8594 76.9219C53.4844 77.224 53.9688 77.638 54.3125 78.1641C54.6615 78.6901 54.8359 79.2917 54.8359 79.9688H52.5078C52.5078 79.6354 52.4375 79.3438 52.2969 79.0938C52.1615 78.8385 51.9531 78.638 51.6719 78.4922C51.3958 78.3464 51.0469 78.2734 50.625 78.2734C50.2188 78.2734 49.8802 78.3359 49.6094 78.4609C49.3385 78.5807 49.1354 78.7448 49 78.9531C48.8646 79.1562 48.7969 79.3854 48.7969 79.6406C48.7969 79.8333 48.8438 80.0078 48.9375 80.1641C49.0365 80.3203 49.1823 80.4661 49.375 80.6016C49.5677 80.737 49.8047 80.8646 50.0859 80.9844C50.3672 81.1042 50.6927 81.2214 51.0625 81.3359C51.6823 81.5234 52.2266 81.7344 52.6953 81.9688C53.1693 82.2031 53.5651 82.4661 53.8828 82.7578C54.2005 83.0495 54.4401 83.3802 54.6016 83.75C54.763 84.1198 54.8438 84.5391 54.8438 85.0078C54.8438 85.5026 54.7474 85.9453 54.5547 86.3359C54.362 86.7266 54.0833 87.0573 53.7188 87.3281C53.3542 87.599 52.9193 87.8047 52.4141 87.9453C51.9089 88.0859 51.3438 88.1562 50.7188 88.1562C50.1562 88.1562 49.6016 88.0833 49.0547 87.9375C48.5078 87.7865 48.0104 87.5599 47.5625 87.2578C47.1198 86.9557 46.7656 86.5703 46.5 86.1016C46.2344 85.6328 46.1016 85.0781 46.1016 84.4375H48.4531C48.4531 84.7917 48.5078 85.0911 48.6172 85.3359C48.7266 85.5807 48.8802 85.7786 49.0781 85.9297C49.2812 86.0807 49.5208 86.1901 49.7969 86.2578C50.0781 86.3255 50.3854 86.3594 50.7188 86.3594C51.125 86.3594 51.4583 86.3021 51.7188 86.1875C51.9844 86.0729 52.1797 85.9141 52.3047 85.7109C52.4349 85.5078 52.5 85.2786 52.5 85.0234ZM60.1875 88.1562C59.5312 88.1562 58.9427 88.0521 58.4219 87.8438C57.901 87.6302 57.4583 87.3359 57.0938 86.9609C56.7344 86.5859 56.4583 86.151 56.2656 85.6562C56.0729 85.1562 55.9766 84.625 55.9766 84.0625V83.75C55.9766 83.1094 56.0677 82.5234 56.25 81.9922C56.4323 81.4609 56.6927 81 57.0312 80.6094C57.375 80.2188 57.7917 79.9193 58.2812 79.7109C58.7708 79.4974 59.3229 79.3906 59.9375 79.3906C60.5365 79.3906 61.0677 79.4896 61.5312 79.6875C61.9948 79.8854 62.3828 80.1667 62.6953 80.5312C63.013 80.8958 63.2526 81.3333 63.4141 81.8438C63.5755 82.349 63.6562 82.9115 63.6562 83.5312V84.4688H56.9375V82.9688H61.4453V82.7969C61.4453 82.4844 61.388 82.2057 61.2734 81.9609C61.1641 81.7109 60.9974 81.513 60.7734 81.3672C60.5495 81.2214 60.263 81.1484 59.9141 81.1484C59.6172 81.1484 59.362 81.2135 59.1484 81.3438C58.9349 81.474 58.7604 81.6562 58.625 81.8906C58.4948 82.125 58.3958 82.401 58.3281 82.7188C58.2656 83.0312 58.2344 83.375 58.2344 83.75V84.0625C58.2344 84.401 58.2812 84.7135 58.375 85C58.474 85.2865 58.612 85.5339 58.7891 85.7422C58.9714 85.9505 59.1901 86.112 59.4453 86.2266C59.7057 86.3411 60 86.3984 60.3281 86.3984C60.7344 86.3984 61.112 86.3203 61.4609 86.1641C61.8151 86.0026 62.1198 85.7604 62.375 85.4375L63.4688 86.625C63.2917 86.8802 63.0495 87.125 62.7422 87.3594C62.4401 87.5938 62.0755 87.7865 61.6484 87.9375C61.2214 88.0833 60.7344 88.1562 60.1875 88.1562ZM67.1875 81.2969V88H64.9297V79.5469H67.0469L67.1875 81.2969ZM66.875 83.4766H66.25C66.25 82.888 66.3203 82.3464 66.4609 81.8516C66.6068 81.3516 66.8177 80.9193 67.0938 80.5547C67.375 80.1849 67.7214 79.8984 68.1328 79.6953C68.5443 79.4922 69.0208 79.3906 69.5625 79.3906C69.9375 79.3906 70.2812 79.4479 70.5938 79.5625C70.9062 79.6719 71.1745 79.8464 71.3984 80.0859C71.6276 80.3203 71.8047 80.6276 71.9297 81.0078C72.0547 81.3828 72.1172 81.8333 72.1172 82.3594V88H69.8672V82.6094C69.8672 82.224 69.8151 81.9271 69.7109 81.7188C69.6068 81.5104 69.4583 81.3646 69.2656 81.2812C69.0781 81.1979 68.8516 81.1562 68.5859 81.1562C68.2943 81.1562 68.0391 81.2161 67.8203 81.3359C67.6068 81.4557 67.4297 81.6224 67.2891 81.8359C67.1484 82.0443 67.0443 82.2891 66.9766 82.5703C66.9089 82.8516 66.875 83.1536 66.875 83.4766ZM71.9062 83.2188L71.1016 83.3203C71.1016 82.7682 71.1693 82.2552 71.3047 81.7812C71.4453 81.3073 71.651 80.8906 71.9219 80.5312C72.1979 80.1719 72.5391 79.8932 72.9453 79.6953C73.3516 79.4922 73.8203 79.3906 74.3516 79.3906C74.7578 79.3906 75.1276 79.4505 75.4609 79.5703C75.7943 79.6849 76.0781 79.8698 76.3125 80.125C76.5521 80.375 76.7344 80.7031 76.8594 81.1094C76.9896 81.5156 77.0547 82.013 77.0547 82.6016V88H74.7969V82.6016C74.7969 82.2109 74.7448 81.9141 74.6406 81.7109C74.5417 81.5026 74.3958 81.3594 74.2031 81.2812C74.0156 81.1979 73.7917 81.1562 73.5312 81.1562C73.2604 81.1562 73.0234 81.2109 72.8203 81.3203C72.6172 81.4245 72.4479 81.5703 72.3125 81.7578C72.1771 81.9453 72.0755 82.1641 72.0078 82.4141C71.9401 82.6589 71.9062 82.9271 71.9062 83.2188ZM81.1719 79.5469V88H78.9141V79.5469H81.1719ZM78.7734 77.3438C78.7734 77.0156 78.888 76.7448 79.1172 76.5312C79.3464 76.3177 79.6536 76.2109 80.0391 76.2109C80.4193 76.2109 80.724 76.3177 80.9531 76.5312C81.1875 76.7448 81.3047 77.0156 81.3047 77.3438C81.3047 77.6719 81.1875 77.9427 80.9531 78.1562C80.724 78.3698 80.4193 78.4766 80.0391 78.4766C79.6536 78.4766 79.3464 78.3698 79.1172 78.1562C78.888 77.9427 78.7734 77.6719 78.7734 77.3438ZM85.4062 76V88H83.1484V76H85.4062ZM89.6406 76V88H87.3828V76H89.6406ZM96.0625 86.0938V82.3281C96.0625 82.0573 96.0182 81.8255 95.9297 81.6328C95.8411 81.4349 95.7031 81.2812 95.5156 81.1719C95.3333 81.0625 95.0964 81.0078 94.8047 81.0078C94.5547 81.0078 94.3385 81.0521 94.1562 81.1406C93.974 81.224 93.8333 81.3464 93.7344 81.5078C93.6354 81.6641 93.5859 81.849 93.5859 82.0625H91.3359C91.3359 81.7031 91.4193 81.362 91.5859 81.0391C91.7526 80.7161 91.9948 80.4323 92.3125 80.1875C92.6302 79.9375 93.0078 79.7422 93.4453 79.6016C93.888 79.4609 94.3828 79.3906 94.9297 79.3906C95.5859 79.3906 96.1693 79.5 96.6797 79.7188C97.1901 79.9375 97.5911 80.2656 97.8828 80.7031C98.1797 81.1406 98.3281 81.6875 98.3281 82.3438V85.9609C98.3281 86.4245 98.3568 86.8047 98.4141 87.1016C98.4714 87.3932 98.5547 87.6484 98.6641 87.8672V88H96.3906C96.2812 87.7708 96.1979 87.4844 96.1406 87.1406C96.0885 86.7917 96.0625 86.4427 96.0625 86.0938ZM96.3594 82.8516L96.375 84.125H95.1172C94.8203 84.125 94.5625 84.1589 94.3438 84.2266C94.125 84.2943 93.9453 84.3906 93.8047 84.5156C93.6641 84.6354 93.5599 84.776 93.4922 84.9375C93.4297 85.099 93.3984 85.276 93.3984 85.4688C93.3984 85.6615 93.4427 85.8359 93.5312 85.9922C93.6198 86.1432 93.7474 86.263 93.9141 86.3516C94.0807 86.4349 94.276 86.4766 94.5 86.4766C94.8385 86.4766 95.1328 86.4089 95.3828 86.2734C95.6328 86.138 95.8255 85.9714 95.9609 85.7734C96.1016 85.5755 96.1745 85.388 96.1797 85.2109L96.7734 86.1641C96.6901 86.3776 96.5755 86.599 96.4297 86.8281C96.2891 87.0573 96.1094 87.2734 95.8906 87.4766C95.6719 87.6745 95.4089 87.8385 95.1016 87.9688C94.7943 88.0938 94.4297 88.1562 94.0078 88.1562C93.4714 88.1562 92.9844 88.0495 92.5469 87.8359C92.1146 87.6172 91.7708 87.3177 91.5156 86.9375C91.2656 86.5521 91.1406 86.1146 91.1406 85.625C91.1406 85.1823 91.224 84.7891 91.3906 84.4453C91.5573 84.1016 91.8021 83.8125 92.125 83.5781C92.4531 83.3385 92.862 83.1589 93.3516 83.0391C93.8411 82.9141 94.4089 82.8516 95.0547 82.8516H96.3594ZM104.633 85.6641C104.633 85.5026 104.586 85.3568 104.492 85.2266C104.398 85.0964 104.224 84.9766 103.969 84.8672C103.719 84.7526 103.357 84.6484 102.883 84.5547C102.456 84.4609 102.057 84.3438 101.688 84.2031C101.323 84.0573 101.005 83.8828 100.734 83.6797C100.469 83.4766 100.26 83.237 100.109 82.9609C99.9583 82.6797 99.8828 82.3594 99.8828 82C99.8828 81.6458 99.9583 81.3125 100.109 81C100.266 80.6875 100.487 80.4115 100.773 80.1719C101.065 79.9271 101.419 79.737 101.836 79.6016C102.258 79.4609 102.732 79.3906 103.258 79.3906C103.992 79.3906 104.622 79.5078 105.148 79.7422C105.68 79.9766 106.086 80.2995 106.367 80.7109C106.654 81.1172 106.797 81.5807 106.797 82.1016H104.547C104.547 81.8828 104.5 81.6875 104.406 81.5156C104.318 81.3385 104.177 81.2005 103.984 81.1016C103.797 80.9974 103.552 80.9453 103.25 80.9453C103 80.9453 102.784 80.9896 102.602 81.0781C102.419 81.1615 102.279 81.276 102.18 81.4219C102.086 81.5625 102.039 81.7188 102.039 81.8906C102.039 82.0208 102.065 82.138 102.117 82.2422C102.174 82.3411 102.266 82.4323 102.391 82.5156C102.516 82.599 102.677 82.6771 102.875 82.75C103.078 82.8177 103.328 82.8802 103.625 82.9375C104.234 83.0625 104.779 83.2266 105.258 83.4297C105.737 83.6276 106.117 83.8984 106.398 84.2422C106.68 84.5807 106.82 85.026 106.82 85.5781C106.82 85.9531 106.737 86.2969 106.57 86.6094C106.404 86.9219 106.164 87.1953 105.852 87.4297C105.539 87.6589 105.164 87.8385 104.727 87.9688C104.294 88.0938 103.807 88.1562 103.266 88.1562C102.479 88.1562 101.812 88.0156 101.266 87.7344C100.724 87.4531 100.312 87.0964 100.031 86.6641C99.7552 86.2266 99.6172 85.7786 99.6172 85.3203H101.75C101.76 85.6276 101.839 85.875 101.984 86.0625C102.135 86.25 102.326 86.3854 102.555 86.4688C102.789 86.5521 103.042 86.5938 103.312 86.5938C103.604 86.5938 103.846 86.5547 104.039 86.4766C104.232 86.3932 104.378 86.2839 104.477 86.1484C104.581 86.0078 104.633 85.8464 104.633 85.6641ZM114.773 87.0469L117.016 79.5469H119.43L116.031 89.2734C115.958 89.487 115.859 89.7161 115.734 89.9609C115.615 90.2057 115.451 90.4375 115.242 90.6562C115.039 90.8802 114.781 91.0625 114.469 91.2031C114.161 91.3438 113.784 91.4141 113.336 91.4141C113.122 91.4141 112.948 91.401 112.812 91.375C112.677 91.349 112.516 91.3125 112.328 91.2656V89.6172C112.385 89.6172 112.445 89.6172 112.508 89.6172C112.57 89.6224 112.63 89.625 112.688 89.625C112.984 89.625 113.227 89.5911 113.414 89.5234C113.602 89.4557 113.753 89.3516 113.867 89.2109C113.982 89.0755 114.073 88.8984 114.141 88.6797L114.773 87.0469ZM113.836 79.5469L115.672 85.6719L115.992 88.0547L114.461 88.2188L111.422 79.5469H113.836ZM62.5156 104.625L65.1953 95.625H67.8047L63.8438 107H62.125L62.5156 104.625ZM60.0469 95.625L62.7188 104.625L63.125 107H61.3906L57.4531 95.625H60.0469ZM71.1016 98.5469V107H68.8438V98.5469H71.1016ZM68.7031 96.3438C68.7031 96.0156 68.8177 95.7448 69.0469 95.5312C69.276 95.3177 69.5833 95.2109 69.9688 95.2109C70.349 95.2109 70.6536 95.3177 70.8828 95.5312C71.1172 95.7448 71.2344 96.0156 71.2344 96.3438C71.2344 96.6719 71.1172 96.9427 70.8828 97.1562C70.6536 97.3698 70.349 97.4766 69.9688 97.4766C69.5833 97.4766 69.276 97.3698 69.0469 97.1562C68.8177 96.9427 68.7031 96.6719 68.7031 96.3438ZM75.8359 105.359L77.7109 98.5469H80.0625L77.2109 107H75.7891L75.8359 105.359ZM74.5469 98.5469L76.4297 105.367L76.4688 107H75.0391L72.1875 98.5469H74.5469ZM84.8516 107.156C84.1953 107.156 83.6068 107.052 83.0859 106.844C82.5651 106.63 82.1224 106.336 81.7578 105.961C81.3984 105.586 81.1224 105.151 80.9297 104.656C80.737 104.156 80.6406 103.625 80.6406 103.062V102.75C80.6406 102.109 80.7318 101.523 80.9141 100.992C81.0964 100.461 81.3568 100 81.6953 99.6094C82.0391 99.2188 82.4557 98.9193 82.9453 98.7109C83.4349 98.4974 83.987 98.3906 84.6016 98.3906C85.2005 98.3906 85.7318 98.4896 86.1953 98.6875C86.6589 98.8854 87.0469 99.1667 87.3594 99.5312C87.6771 99.8958 87.9167 100.333 88.0781 100.844C88.2396 101.349 88.3203 101.911 88.3203 102.531V103.469H81.6016V101.969H86.1094V101.797C86.1094 101.484 86.0521 101.206 85.9375 100.961C85.8281 100.711 85.6615 100.513 85.4375 100.367C85.2135 100.221 84.9271 100.148 84.5781 100.148C84.2812 100.148 84.026 100.214 83.8125 100.344C83.599 100.474 83.4245 100.656 83.2891 100.891C83.1589 101.125 83.0599 101.401 82.9922 101.719C82.9297 102.031 82.8984 102.375 82.8984 102.75V103.062C82.8984 103.401 82.9453 103.714 83.0391 104C83.138 104.286 83.276 104.534 83.4531 104.742C83.6354 104.951 83.8542 105.112 84.1094 105.227C84.3698 105.341 84.6641 105.398 84.9922 105.398C85.3984 105.398 85.776 105.32 86.125 105.164C86.4792 105.003 86.7839 104.76 87.0391 104.438L88.1328 105.625C87.9557 105.88 87.7135 106.125 87.4062 106.359C87.1042 106.594 86.7396 106.786 86.3125 106.938C85.8854 107.083 85.3984 107.156 84.8516 107.156ZM91.8516 100.391V107H89.6016V98.5469H91.7188L91.8516 100.391ZM94.3984 98.4922L94.3594 100.578C94.25 100.562 94.1172 100.549 93.9609 100.539C93.8099 100.523 93.6719 100.516 93.5469 100.516C93.2292 100.516 92.9531 100.557 92.7188 100.641C92.4896 100.719 92.2969 100.836 92.1406 100.992C91.9896 101.148 91.875 101.339 91.7969 101.562C91.724 101.786 91.6823 102.042 91.6719 102.328L91.2188 102.188C91.2188 101.641 91.2734 101.138 91.3828 100.68C91.4922 100.216 91.651 99.8125 91.8594 99.4688C92.0729 99.125 92.3333 98.8594 92.6406 98.6719C92.9479 98.4844 93.2995 98.3906 93.6953 98.3906C93.8203 98.3906 93.9479 98.401 94.0781 98.4219C94.2083 98.4375 94.3151 98.4609 94.3984 98.4922ZM94.8672 102.859V102.695C94.8672 102.076 94.9557 101.505 95.1328 100.984C95.3099 100.458 95.5677 100.003 95.9062 99.6172C96.2448 99.2318 96.6615 98.9323 97.1562 98.7188C97.651 98.5 98.2188 98.3906 98.8594 98.3906C99.5 98.3906 100.07 98.5 100.57 98.7188C101.07 98.9323 101.49 99.2318 101.828 99.6172C102.172 100.003 102.432 100.458 102.609 100.984C102.786 101.505 102.875 102.076 102.875 102.695V102.859C102.875 103.474 102.786 104.044 102.609 104.57C102.432 105.091 102.172 105.547 101.828 105.938C101.49 106.323 101.073 106.622 100.578 106.836C100.083 107.049 99.5156 107.156 98.875 107.156C98.2344 107.156 97.6641 107.049 97.1641 106.836C96.6693 106.622 96.25 106.323 95.9062 105.938C95.5677 105.547 95.3099 105.091 95.1328 104.57C94.9557 104.044 94.8672 103.474 94.8672 102.859ZM97.1172 102.695V102.859C97.1172 103.214 97.1484 103.544 97.2109 103.852C97.2734 104.159 97.3724 104.43 97.5078 104.664C97.6484 104.893 97.8307 105.073 98.0547 105.203C98.2786 105.333 98.5521 105.398 98.875 105.398C99.1875 105.398 99.4557 105.333 99.6797 105.203C99.9036 105.073 100.083 104.893 100.219 104.664C100.354 104.43 100.453 104.159 100.516 103.852C100.583 103.544 100.617 103.214 100.617 102.859V102.695C100.617 102.352 100.583 102.029 100.516 101.727C100.453 101.419 100.352 101.148 100.211 100.914C100.076 100.674 99.8958 100.487 99.6719 100.352C99.4479 100.216 99.1771 100.148 98.8594 100.148C98.5417 100.148 98.2708 100.216 98.0469 100.352C97.8281 100.487 97.6484 100.674 97.5078 100.914C97.3724 101.148 97.2734 101.419 97.2109 101.727C97.1484 102.029 97.1172 102.352 97.1172 102.695ZM108.828 104.664C108.828 104.503 108.781 104.357 108.688 104.227C108.594 104.096 108.419 103.977 108.164 103.867C107.914 103.753 107.552 103.648 107.078 103.555C106.651 103.461 106.253 103.344 105.883 103.203C105.518 103.057 105.201 102.883 104.93 102.68C104.664 102.477 104.456 102.237 104.305 101.961C104.154 101.68 104.078 101.359 104.078 101C104.078 100.646 104.154 100.312 104.305 100C104.461 99.6875 104.682 99.4115 104.969 99.1719C105.26 98.9271 105.615 98.737 106.031 98.6016C106.453 98.4609 106.927 98.3906 107.453 98.3906C108.188 98.3906 108.818 98.5078 109.344 98.7422C109.875 98.9766 110.281 99.2995 110.562 99.7109C110.849 100.117 110.992 100.581 110.992 101.102H108.742C108.742 100.883 108.695 100.688 108.602 100.516C108.513 100.339 108.372 100.201 108.18 100.102C107.992 99.9974 107.747 99.9453 107.445 99.9453C107.195 99.9453 106.979 99.9896 106.797 100.078C106.615 100.161 106.474 100.276 106.375 100.422C106.281 100.562 106.234 100.719 106.234 100.891C106.234 101.021 106.26 101.138 106.312 101.242C106.37 101.341 106.461 101.432 106.586 101.516C106.711 101.599 106.872 101.677 107.07 101.75C107.273 101.818 107.523 101.88 107.82 101.938C108.43 102.062 108.974 102.227 109.453 102.43C109.932 102.628 110.312 102.898 110.594 103.242C110.875 103.581 111.016 104.026 111.016 104.578C111.016 104.953 110.932 105.297 110.766 105.609C110.599 105.922 110.359 106.195 110.047 106.43C109.734 106.659 109.359 106.839 108.922 106.969C108.49 107.094 108.003 107.156 107.461 107.156C106.674 107.156 106.008 107.016 105.461 106.734C104.919 106.453 104.508 106.096 104.227 105.664C103.951 105.227 103.812 104.779 103.812 104.32H105.945C105.956 104.628 106.034 104.875 106.18 105.062C106.331 105.25 106.521 105.385 106.75 105.469C106.984 105.552 107.237 105.594 107.508 105.594C107.799 105.594 108.042 105.555 108.234 105.477C108.427 105.393 108.573 105.284 108.672 105.148C108.776 105.008 108.828 104.846 108.828 104.664Z" fill="white"/>
<path d="M110.11 18.9C110.11 18.9 105.902 18 99.5897 18C83.0585 18 52.701 24.3 57.5101 71.4C60.8164 71.7 64.1227 72 67.1283 72C120.93 72 110.11 18.9 110.11 18.9ZM68.9317 60C68.9317 60 68.9317 30 98.9886 30C98.9886 30 80.9545 36 68.9317 60Z" fill="white"/>
</svg>
