<svg width="169" height="130" viewBox="0 0 169 130" fill="none" xmlns="http://www.w3.org/2000/svg">
<rect x="0.25" y="0.25" width="168.5" height="129.5" rx="9.75" fill="white" stroke="#2A6D4C" stroke-width="0.5"/>
<path d="M74.875 89.0234C74.875 88.8203 74.8438 88.638 74.7812 88.4766C74.724 88.3099 74.6146 88.1589 74.4531 88.0234C74.2917 87.8828 74.0651 87.7448 73.7734 87.6094C73.4818 87.474 73.1042 87.3333 72.6406 87.1875C72.125 87.0208 71.6354 86.8333 71.1719 86.625C70.7135 86.4167 70.3073 86.1745 69.9531 85.8984C69.6042 85.6172 69.3281 85.2917 69.125 84.9219C68.9271 84.5521 68.8281 84.1224 68.8281 83.6328C68.8281 83.1589 68.9323 82.7292 69.1406 82.3438C69.349 81.9531 69.6406 81.6198 70.0156 81.3438C70.3906 81.0625 70.8333 80.8464 71.3438 80.6953C71.8594 80.5443 72.4245 80.4688 73.0391 80.4688C73.8776 80.4688 74.6094 80.6198 75.2344 80.9219C75.8594 81.224 76.3438 81.638 76.6875 82.1641C77.0365 82.6901 77.2109 83.2917 77.2109 83.9688H74.8828C74.8828 83.6354 74.8125 83.3438 74.6719 83.0938C74.5365 82.8385 74.3281 82.638 74.0469 82.4922C73.7708 82.3464 73.4219 82.2734 73 82.2734C72.5938 82.2734 72.2552 82.3359 71.9844 82.4609C71.7135 82.5807 71.5104 82.7448 71.375 82.9531C71.2396 83.1562 71.1719 83.3854 71.1719 83.6406C71.1719 83.8333 71.2188 84.0078 71.3125 84.1641C71.4115 84.3203 71.5573 84.4661 71.75 84.6016C71.9427 84.737 72.1797 84.8646 72.4609 84.9844C72.7422 85.1042 73.0677 85.2214 73.4375 85.3359C74.0573 85.5234 74.6016 85.7344 75.0703 85.9688C75.5443 86.2031 75.9401 86.4661 76.2578 86.7578C76.5755 87.0495 76.8151 87.3802 76.9766 87.75C77.138 88.1198 77.2188 88.5391 77.2188 89.0078C77.2188 89.5026 77.1224 89.9453 76.9297 90.3359C76.737 90.7266 76.4583 91.0573 76.0938 91.3281C75.7292 91.599 75.2943 91.8047 74.7891 91.9453C74.2839 92.0859 73.7188 92.1562 73.0938 92.1562C72.5312 92.1562 71.9766 92.0833 71.4297 91.9375C70.8828 91.7865 70.3854 91.5599 69.9375 91.2578C69.4948 90.9557 69.1406 90.5703 68.875 90.1016C68.6094 89.6328 68.4766 89.0781 68.4766 88.4375H70.8281C70.8281 88.7917 70.8828 89.0911 70.9922 89.3359C71.1016 89.5807 71.2552 89.7786 71.4531 89.9297C71.6562 90.0807 71.8958 90.1901 72.1719 90.2578C72.4531 90.3255 72.7604 90.3594 73.0938 90.3594C73.5 90.3594 73.8333 90.3021 74.0938 90.1875C74.3594 90.0729 74.5547 89.9141 74.6797 89.7109C74.8099 89.5078 74.875 89.2786 74.875 89.0234ZM79.8828 80.625H81.8672L84.7891 88.9766L87.7109 80.625H89.6953L85.5859 92H83.9922L79.8828 80.625ZM78.8125 80.625H80.7891L81.1484 88.7656V92H78.8125V80.625ZM88.7891 80.625H90.7734V92H88.4297V88.7656L88.7891 80.625ZM92.8281 80.625H97.0703C97.9401 80.625 98.6875 80.7552 99.3125 81.0156C99.9427 81.276 100.427 81.6615 100.766 82.1719C101.104 82.6823 101.273 83.3099 101.273 84.0547C101.273 84.6641 101.169 85.1875 100.961 85.625C100.758 86.0573 100.469 86.4193 100.094 86.7109C99.724 86.9974 99.2891 87.2266 98.7891 87.3984L98.0469 87.7891H94.3594L94.3438 85.9609H97.0859C97.4974 85.9609 97.8385 85.888 98.1094 85.7422C98.3802 85.5964 98.5833 85.3932 98.7188 85.1328C98.8594 84.8724 98.9297 84.5703 98.9297 84.2266C98.9297 83.862 98.862 83.5469 98.7266 83.2812C98.5911 83.0156 98.3854 82.8125 98.1094 82.6719C97.8333 82.5312 97.487 82.4609 97.0703 82.4609H95.1719V92H92.8281V80.625ZM99.1875 92L96.5938 86.9297L99.0703 86.9141L101.695 91.8906V92H99.1875Z" fill="#222121"/>
<path d="M35.5127 103.276C35.5127 103.065 35.4769 102.876 35.4053 102.71C35.3337 102.541 35.2148 102.391 35.0488 102.261C34.8861 102.127 34.6712 102.004 34.4043 101.89C34.1374 101.776 33.8086 101.665 33.418 101.558C33.0599 101.46 32.736 101.354 32.4463 101.24C32.1598 101.123 31.9141 100.99 31.709 100.84C31.5072 100.69 31.3525 100.513 31.2451 100.308C31.1377 100.099 31.084 99.8535 31.084 99.5703C31.084 99.2969 31.1426 99.0511 31.2598 98.833C31.377 98.6149 31.5413 98.4294 31.7529 98.2764C31.9678 98.1201 32.2184 98.0013 32.5049 97.9199C32.7946 97.8353 33.1104 97.793 33.4521 97.793C33.9307 97.793 34.349 97.8841 34.707 98.0664C35.0651 98.2454 35.3451 98.4945 35.5469 98.8135C35.7487 99.1292 35.8496 99.4922 35.8496 99.9023H35.4541C35.4541 99.5671 35.3711 99.2676 35.2051 99.0039C35.0423 98.7402 34.8112 98.5335 34.5117 98.3838C34.2155 98.2308 33.8623 98.1543 33.4521 98.1543C33.029 98.1543 32.6693 98.2194 32.373 98.3496C32.0801 98.4798 31.8571 98.6523 31.7041 98.8672C31.5544 99.0788 31.4795 99.3099 31.4795 99.5605C31.4795 99.7396 31.512 99.9072 31.5771 100.063C31.6455 100.22 31.7562 100.363 31.9092 100.493C32.0654 100.623 32.2754 100.747 32.5391 100.864C32.806 100.978 33.138 101.089 33.5352 101.196C33.8997 101.291 34.2269 101.398 34.5166 101.519C34.8096 101.636 35.0602 101.774 35.2686 101.934C35.4769 102.093 35.6364 102.282 35.7471 102.5C35.8577 102.718 35.9131 102.974 35.9131 103.267C35.9131 103.556 35.8512 103.815 35.7275 104.043C35.6038 104.268 35.4313 104.46 35.21 104.619C34.9919 104.775 34.7347 104.894 34.4385 104.976C34.1455 105.057 33.8298 105.098 33.4912 105.098C33.182 105.098 32.8711 105.06 32.5586 104.985C32.2493 104.91 31.9661 104.79 31.709 104.624C31.4518 104.458 31.2451 104.24 31.0889 103.97C30.9326 103.7 30.8545 103.371 30.8545 102.983H31.25C31.25 103.315 31.3184 103.595 31.4551 103.823C31.5918 104.048 31.7708 104.227 31.9922 104.36C32.2135 104.494 32.4544 104.59 32.7148 104.648C32.9785 104.707 33.2373 104.736 33.4912 104.736C33.8883 104.736 34.2383 104.676 34.541 104.556C34.847 104.432 35.0846 104.261 35.2539 104.043C35.4264 103.822 35.5127 103.566 35.5127 103.276ZM37.583 99.7168V105H37.1924V99.7168H37.583ZM37.0703 98.1152C37.0703 98.0273 37.0996 97.9525 37.1582 97.8906C37.2201 97.8255 37.2982 97.793 37.3926 97.793C37.4837 97.793 37.5602 97.8255 37.6221 97.8906C37.6839 97.9525 37.7148 98.0273 37.7148 98.1152C37.7148 98.2031 37.6839 98.278 37.6221 98.3398C37.5602 98.3984 37.4837 98.4277 37.3926 98.4277C37.2982 98.4277 37.2201 98.3984 37.1582 98.3398C37.0996 98.278 37.0703 98.2031 37.0703 98.1152ZM42.4902 103.687C42.4902 103.53 42.4479 103.376 42.3633 103.223C42.2819 103.07 42.1305 102.926 41.9092 102.793C41.6911 102.66 41.3737 102.547 40.957 102.456C40.6608 102.391 40.3988 102.319 40.1709 102.241C39.9463 102.163 39.7575 102.069 39.6045 101.958C39.4515 101.844 39.3359 101.709 39.2578 101.553C39.1829 101.396 39.1455 101.209 39.1455 100.991C39.1455 100.802 39.1862 100.625 39.2676 100.459C39.349 100.293 39.4678 100.148 39.624 100.024C39.7835 99.8975 39.974 99.7982 40.1953 99.7266C40.4167 99.6549 40.6673 99.6191 40.9473 99.6191C41.3477 99.6191 41.6895 99.6859 41.9727 99.8193C42.2591 99.9495 42.4788 100.13 42.6318 100.361C42.7848 100.589 42.8613 100.854 42.8613 101.157H42.4707C42.4707 100.952 42.4121 100.76 42.2949 100.581C42.1777 100.402 42.0052 100.257 41.7773 100.146C41.5527 100.033 41.276 99.9756 40.9473 99.9756C40.6152 99.9756 40.3451 100.026 40.1367 100.127C39.9284 100.228 39.7754 100.356 39.6777 100.513C39.5833 100.666 39.5361 100.822 39.5361 100.981C39.5361 101.108 39.554 101.227 39.5898 101.338C39.6289 101.445 39.7021 101.545 39.8096 101.636C39.917 101.727 40.0716 101.815 40.2734 101.899C40.4753 101.981 40.7373 102.057 41.0596 102.129C41.4827 102.223 41.8278 102.339 42.0947 102.476C42.3617 102.609 42.5586 102.773 42.6855 102.969C42.8125 103.161 42.876 103.397 42.876 103.677C42.876 103.885 42.832 104.077 42.7441 104.253C42.6562 104.425 42.5293 104.575 42.3633 104.702C42.2005 104.829 42.002 104.927 41.7676 104.995C41.5332 105.063 41.2728 105.098 40.9863 105.098C40.5534 105.098 40.1855 105.029 39.8828 104.893C39.5833 104.753 39.3555 104.569 39.1992 104.341C39.0462 104.113 38.9697 103.867 38.9697 103.604H39.3604C39.3831 103.893 39.4775 104.121 39.6436 104.287C39.8128 104.453 40.0179 104.57 40.2588 104.639C40.5029 104.707 40.7454 104.741 40.9863 104.741C41.3151 104.741 41.5902 104.691 41.8115 104.59C42.0361 104.486 42.2054 104.354 42.3193 104.194C42.4333 104.032 42.4902 103.862 42.4902 103.687ZM46.1523 99.7168V100.068H43.623V99.7168H46.1523ZM44.5996 98.3203H44.9902V103.726C44.9902 104.009 45.0244 104.224 45.0928 104.37C45.1644 104.513 45.2572 104.611 45.3711 104.663C45.4883 104.712 45.6136 104.736 45.7471 104.736C45.8415 104.736 45.9277 104.731 46.0059 104.722C46.0872 104.712 46.1686 104.701 46.25 104.688L46.2842 105.029C46.2126 105.052 46.1198 105.068 46.0059 105.078C45.8919 105.091 45.791 105.098 45.7031 105.098C45.4818 105.098 45.2881 105.057 45.1221 104.976C44.9561 104.894 44.8275 104.754 44.7363 104.556C44.6452 104.354 44.5996 104.077 44.5996 103.726V98.3203ZM49.4189 105.098C49.0869 105.098 48.7793 105.034 48.4961 104.907C48.2129 104.777 47.9655 104.596 47.7539 104.365C47.5423 104.131 47.3763 103.854 47.2559 103.535C47.1387 103.216 47.0801 102.866 47.0801 102.485V102.271C47.0801 101.877 47.1387 101.519 47.2559 101.196C47.3763 100.871 47.5391 100.591 47.7441 100.356C47.9492 100.119 48.1852 99.9365 48.4521 99.8096C48.7223 99.6826 49.0104 99.6191 49.3164 99.6191C49.6257 99.6191 49.9056 99.6761 50.1562 99.79C50.4069 99.904 50.6217 100.063 50.8008 100.269C50.9798 100.474 51.1165 100.718 51.2109 101.001C51.3053 101.284 51.3525 101.597 51.3525 101.938V102.266H47.3242V101.909H50.9668V101.846C50.9635 101.514 50.8952 101.206 50.7617 100.923C50.6315 100.64 50.4443 100.412 50.2002 100.239C49.9561 100.063 49.6615 99.9756 49.3164 99.9756C49.0397 99.9756 48.7874 100.034 48.5596 100.151C48.335 100.269 48.1413 100.431 47.9785 100.64C47.8158 100.845 47.6904 101.087 47.6025 101.367C47.5146 101.644 47.4707 101.945 47.4707 102.271V102.485C47.4707 102.798 47.5195 103.091 47.6172 103.364C47.7148 103.638 47.8516 103.879 48.0273 104.087C48.2031 104.292 48.4098 104.453 48.6475 104.57C48.8851 104.688 49.1455 104.746 49.4287 104.746C49.7347 104.746 50.0146 104.692 50.2686 104.585C50.5225 104.478 50.7536 104.289 50.9619 104.019L51.2158 104.209C51.0986 104.378 50.957 104.53 50.791 104.663C50.625 104.797 50.4281 104.902 50.2002 104.98C49.9756 105.059 49.7152 105.098 49.4189 105.098ZM52.9053 100.835V105H52.5146V99.7168H52.8955L52.9053 100.835ZM52.8418 101.953L52.6465 101.729C52.6725 101.449 52.7376 101.182 52.8418 100.928C52.9492 100.674 53.0908 100.449 53.2666 100.254C53.4456 100.059 53.6556 99.904 53.8965 99.79C54.1406 99.6761 54.4124 99.6191 54.7119 99.6191C54.9756 99.6191 55.2116 99.6549 55.4199 99.7266C55.6315 99.7949 55.8105 99.904 55.957 100.054C56.1035 100.2 56.2158 100.392 56.2939 100.63C56.3721 100.868 56.4111 101.152 56.4111 101.484V105H56.0205V101.494C56.0205 101.097 55.9619 100.789 55.8447 100.571C55.7275 100.353 55.5648 100.2 55.3564 100.112C55.1481 100.021 54.9089 99.9756 54.6387 99.9756C54.3197 99.9756 54.0479 100.046 53.8232 100.186C53.5986 100.322 53.4147 100.496 53.2715 100.708C53.1315 100.916 53.0273 101.133 52.959 101.357C52.8906 101.582 52.8516 101.781 52.8418 101.953ZM56.4062 101.519L56.1426 101.426C56.1686 101.188 56.2354 100.962 56.3428 100.747C56.4535 100.529 56.5983 100.337 56.7773 100.171C56.9564 100.002 57.1663 99.8682 57.4072 99.7705C57.6514 99.6696 57.9215 99.6191 58.2178 99.6191C58.488 99.6191 58.7288 99.6566 58.9404 99.7314C59.1553 99.8031 59.3343 99.9186 59.4775 100.078C59.624 100.234 59.7363 100.436 59.8145 100.684C59.8926 100.928 59.9316 101.224 59.9316 101.572V105H59.541V101.567C59.541 101.151 59.4824 100.827 59.3652 100.596C59.248 100.365 59.0853 100.203 58.877 100.112C58.6686 100.018 58.4277 99.9723 58.1543 99.9756C57.8646 99.9788 57.6123 100.033 57.3975 100.137C57.1826 100.241 57.0036 100.373 56.8604 100.532C56.7171 100.692 56.6081 100.859 56.5332 101.035C56.4583 101.208 56.416 101.369 56.4062 101.519ZM64.7607 104.028V101.299C64.7607 101.022 64.7021 100.785 64.585 100.586C64.4678 100.387 64.2969 100.236 64.0723 100.132C63.8477 100.024 63.5726 99.9707 63.2471 99.9707C62.9443 99.9707 62.6725 100.024 62.4316 100.132C62.194 100.236 62.0068 100.379 61.8701 100.562C61.7334 100.744 61.665 100.947 61.665 101.172L61.2744 101.167C61.2744 100.965 61.3216 100.771 61.416 100.586C61.5137 100.4 61.6504 100.236 61.8262 100.093C62.0052 99.9463 62.2152 99.8307 62.4561 99.7461C62.7002 99.6615 62.9671 99.6191 63.2568 99.6191C63.6279 99.6191 63.9551 99.6826 64.2383 99.8096C64.5247 99.9333 64.7477 100.12 64.9072 100.371C65.0667 100.622 65.1465 100.934 65.1465 101.309V103.916C65.1465 104.105 65.1595 104.295 65.1855 104.487C65.2116 104.679 65.2474 104.834 65.293 104.951V105H64.8682C64.8324 104.876 64.8047 104.725 64.7852 104.546C64.7689 104.367 64.7607 104.194 64.7607 104.028ZM64.8877 102.002L64.8975 102.339H63.6084C63.2829 102.339 62.9915 102.37 62.7344 102.432C62.4772 102.493 62.2591 102.581 62.0801 102.695C61.901 102.809 61.7643 102.944 61.6699 103.101C61.5755 103.257 61.5283 103.433 61.5283 103.628C61.5283 103.83 61.582 104.015 61.6895 104.185C61.7969 104.354 61.9482 104.489 62.1436 104.59C62.3389 104.688 62.5651 104.736 62.8223 104.736C63.1738 104.736 63.4847 104.676 63.7549 104.556C64.0283 104.432 64.2578 104.266 64.4434 104.058C64.6289 103.846 64.764 103.602 64.8486 103.325L65.0195 103.608C64.9642 103.781 64.8779 103.955 64.7607 104.131C64.6436 104.307 64.4922 104.468 64.3066 104.614C64.1211 104.757 63.903 104.875 63.6523 104.966C63.4017 105.054 63.1169 105.098 62.7979 105.098C62.4626 105.098 62.1696 105.036 61.9189 104.912C61.6715 104.785 61.4795 104.613 61.3428 104.395C61.2061 104.173 61.1377 103.921 61.1377 103.638C61.1377 103.394 61.193 103.171 61.3037 102.969C61.4144 102.767 61.5739 102.594 61.7822 102.451C61.9938 102.305 62.2493 102.194 62.5488 102.119C62.8516 102.041 63.1917 102.002 63.5693 102.002H64.8877ZM72.71 103.975V97.5H73.0957V105H72.7246L72.71 103.975ZM68.9697 102.407V102.305C68.9697 101.891 69.0153 101.52 69.1064 101.191C69.1976 100.859 69.3294 100.578 69.502 100.347C69.6745 100.112 69.8844 99.9333 70.1318 99.8096C70.3825 99.6826 70.6657 99.6191 70.9814 99.6191C71.2777 99.6191 71.5413 99.6663 71.7725 99.7607C72.0036 99.8519 72.2038 99.9837 72.373 100.156C72.5423 100.326 72.6807 100.526 72.7881 100.757C72.8988 100.985 72.9801 101.237 73.0322 101.514V103.335C72.9932 103.579 72.9199 103.809 72.8125 104.023C72.7083 104.235 72.57 104.422 72.3975 104.585C72.2282 104.744 72.0247 104.87 71.7871 104.961C71.5495 105.052 71.2777 105.098 70.9717 105.098C70.6592 105.098 70.3792 105.033 70.1318 104.902C69.8844 104.772 69.6745 104.588 69.502 104.351C69.3294 104.113 69.1976 103.83 69.1064 103.501C69.0153 103.172 68.9697 102.808 68.9697 102.407ZM69.3652 102.305V102.407C69.3652 102.743 69.3978 103.052 69.4629 103.335C69.5312 103.618 69.6322 103.864 69.7656 104.072C69.9023 104.281 70.0732 104.443 70.2783 104.561C70.4867 104.678 70.7308 104.736 71.0107 104.736C71.3688 104.736 71.6715 104.671 71.9189 104.541C72.1663 104.411 72.3633 104.238 72.5098 104.023C72.6595 103.809 72.7637 103.571 72.8223 103.311V101.587C72.7865 101.421 72.7295 101.245 72.6514 101.06C72.5765 100.871 72.4707 100.695 72.334 100.532C72.2005 100.369 72.0264 100.238 71.8115 100.137C71.5967 100.033 71.333 99.9805 71.0205 99.9805C70.7373 99.9805 70.4915 100.039 70.2832 100.156C70.0781 100.273 69.9072 100.436 69.7705 100.645C69.6338 100.853 69.5312 101.099 69.4629 101.382C69.3978 101.665 69.3652 101.973 69.3652 102.305ZM76.6748 105.098C76.3428 105.098 76.0352 105.034 75.752 104.907C75.4688 104.777 75.2214 104.596 75.0098 104.365C74.7982 104.131 74.6322 103.854 74.5117 103.535C74.3945 103.216 74.3359 102.866 74.3359 102.485V102.271C74.3359 101.877 74.3945 101.519 74.5117 101.196C74.6322 100.871 74.7949 100.591 75 100.356C75.2051 100.119 75.4411 99.9365 75.708 99.8096C75.9782 99.6826 76.2663 99.6191 76.5723 99.6191C76.8815 99.6191 77.1615 99.6761 77.4121 99.79C77.6628 99.904 77.8776 100.063 78.0566 100.269C78.2357 100.474 78.3724 100.718 78.4668 101.001C78.5612 101.284 78.6084 101.597 78.6084 101.938V102.266H74.5801V101.909H78.2227V101.846C78.2194 101.514 78.151 101.206 78.0176 100.923C77.8874 100.64 77.7002 100.412 77.4561 100.239C77.2119 100.063 76.9173 99.9756 76.5723 99.9756C76.2956 99.9756 76.0433 100.034 75.8154 100.151C75.5908 100.269 75.3971 100.431 75.2344 100.64C75.0716 100.845 74.9463 101.087 74.8584 101.367C74.7705 101.644 74.7266 101.945 74.7266 102.271V102.485C74.7266 102.798 74.7754 103.091 74.873 103.364C74.9707 103.638 75.1074 103.879 75.2832 104.087C75.459 104.292 75.6657 104.453 75.9033 104.57C76.141 104.688 76.4014 104.746 76.6846 104.746C76.9906 104.746 77.2705 104.692 77.5244 104.585C77.7783 104.478 78.0094 104.289 78.2178 104.019L78.4717 104.209C78.3545 104.378 78.2129 104.53 78.0469 104.663C77.8809 104.797 77.6839 104.902 77.4561 104.98C77.2314 105.059 76.971 105.098 76.6748 105.098ZM82.4854 97.8906H82.9004L85.7129 104.434L88.5254 97.8906H88.9404L85.8643 105H85.5566L82.4854 97.8906ZM82.3633 97.8906H82.7344L82.7588 101.694V105H82.3633V97.8906ZM88.7012 97.8906H89.0723V105H88.6768V101.694L88.7012 97.8906ZM91.2842 99.7168V105H90.8936V99.7168H91.2842ZM90.7715 98.1152C90.7715 98.0273 90.8008 97.9525 90.8594 97.8906C90.9212 97.8255 90.9993 97.793 91.0938 97.793C91.1849 97.793 91.2614 97.8255 91.3232 97.8906C91.3851 97.9525 91.416 98.0273 91.416 98.1152C91.416 98.2031 91.3851 98.278 91.3232 98.3398C91.2614 98.3984 91.1849 98.4277 91.0938 98.4277C90.9993 98.4277 90.9212 98.3984 90.8594 98.3398C90.8008 98.278 90.7715 98.2031 90.7715 98.1152ZM94.8438 99.7168V100.068H92.3145V99.7168H94.8438ZM93.291 98.3203H93.6816V103.726C93.6816 104.009 93.7158 104.224 93.7842 104.37C93.8558 104.513 93.9486 104.611 94.0625 104.663C94.1797 104.712 94.305 104.736 94.4385 104.736C94.5329 104.736 94.6191 104.731 94.6973 104.722C94.7786 104.712 94.86 104.701 94.9414 104.688L94.9756 105.029C94.904 105.052 94.8112 105.068 94.6973 105.078C94.5833 105.091 94.4824 105.098 94.3945 105.098C94.1732 105.098 93.9795 105.057 93.8135 104.976C93.6475 104.894 93.5189 104.754 93.4277 104.556C93.3366 104.354 93.291 104.077 93.291 103.726V98.3203ZM96.6064 99.7168V105H96.2158V99.7168H96.6064ZM96.0938 98.1152C96.0938 98.0273 96.123 97.9525 96.1816 97.8906C96.2435 97.8255 96.3216 97.793 96.416 97.793C96.5072 97.793 96.5837 97.8255 96.6455 97.8906C96.7074 97.9525 96.7383 98.0273 96.7383 98.1152C96.7383 98.2031 96.7074 98.278 96.6455 98.3398C96.5837 98.3984 96.5072 98.4277 96.416 98.4277C96.3216 98.4277 96.2435 98.3984 96.1816 98.3398C96.123 98.278 96.0938 98.2031 96.0938 98.1152ZM101.802 99.7168H102.178V104.917C102.178 105.369 102.095 105.76 101.929 106.089C101.763 106.421 101.527 106.675 101.221 106.851C100.918 107.03 100.555 107.119 100.132 107.119C99.891 107.119 99.6598 107.083 99.4385 107.012C99.2204 106.94 99.0186 106.836 98.833 106.699C98.6507 106.566 98.4928 106.408 98.3594 106.226L98.5986 105.981C98.807 106.239 99.0332 106.434 99.2773 106.567C99.5247 106.701 99.8031 106.768 100.112 106.768C100.477 106.768 100.783 106.693 101.03 106.543C101.278 106.393 101.465 106.18 101.592 105.903C101.719 105.63 101.782 105.304 101.782 104.927V100.879L101.802 99.7168ZM98.0469 102.407V102.305C98.0469 101.891 98.0924 101.52 98.1836 101.191C98.2747 100.859 98.4066 100.578 98.5791 100.347C98.7516 100.112 98.9616 99.9333 99.209 99.8096C99.4596 99.6826 99.7428 99.6191 100.059 99.6191C100.355 99.6191 100.617 99.6663 100.845 99.7607C101.076 99.8519 101.276 99.9837 101.445 100.156C101.618 100.326 101.758 100.526 101.865 100.757C101.976 100.985 102.059 101.237 102.114 101.514V103.335C102.072 103.579 101.999 103.809 101.895 104.023C101.79 104.235 101.652 104.422 101.479 104.585C101.307 104.744 101.102 104.87 100.864 104.961C100.627 105.052 100.355 105.098 100.049 105.098C99.7363 105.098 99.4564 105.033 99.209 104.902C98.9616 104.772 98.7516 104.588 98.5791 104.351C98.4066 104.113 98.2747 103.83 98.1836 103.501C98.0924 103.172 98.0469 102.808 98.0469 102.407ZM98.4424 102.305V102.407C98.4424 102.743 98.4749 103.052 98.54 103.335C98.6084 103.618 98.7093 103.864 98.8428 104.072C98.9795 104.281 99.152 104.443 99.3604 104.561C99.5687 104.678 99.8112 104.736 100.088 104.736C100.446 104.736 100.747 104.671 100.991 104.541C101.235 104.411 101.431 104.238 101.577 104.023C101.724 103.809 101.826 103.571 101.885 103.311V101.587C101.849 101.421 101.794 101.245 101.719 101.06C101.644 100.871 101.538 100.695 101.401 100.532C101.268 100.369 101.095 100.238 100.884 100.137C100.672 100.033 100.41 99.9805 100.098 99.9805C99.8177 99.9805 99.5719 100.039 99.3604 100.156C99.152 100.273 98.9795 100.436 98.8428 100.645C98.7093 100.853 98.6084 101.099 98.54 101.382C98.4749 101.665 98.4424 101.973 98.4424 102.305ZM107.075 104.028V101.299C107.075 101.022 107.017 100.785 106.899 100.586C106.782 100.387 106.611 100.236 106.387 100.132C106.162 100.024 105.887 99.9707 105.562 99.9707C105.259 99.9707 104.987 100.024 104.746 100.132C104.508 100.236 104.321 100.379 104.185 100.562C104.048 100.744 103.979 100.947 103.979 101.172L103.589 101.167C103.589 100.965 103.636 100.771 103.73 100.586C103.828 100.4 103.965 100.236 104.141 100.093C104.32 99.9463 104.53 99.8307 104.771 99.7461C105.015 99.6615 105.282 99.6191 105.571 99.6191C105.942 99.6191 106.27 99.6826 106.553 99.8096C106.839 99.9333 107.062 100.12 107.222 100.371C107.381 100.622 107.461 100.934 107.461 101.309V103.916C107.461 104.105 107.474 104.295 107.5 104.487C107.526 104.679 107.562 104.834 107.607 104.951V105H107.183C107.147 104.876 107.119 104.725 107.1 104.546C107.083 104.367 107.075 104.194 107.075 104.028ZM107.202 102.002L107.212 102.339H105.923C105.597 102.339 105.306 102.37 105.049 102.432C104.792 102.493 104.574 102.581 104.395 102.695C104.215 102.809 104.079 102.944 103.984 103.101C103.89 103.257 103.843 103.433 103.843 103.628C103.843 103.83 103.896 104.015 104.004 104.185C104.111 104.354 104.263 104.489 104.458 104.59C104.653 104.688 104.88 104.736 105.137 104.736C105.488 104.736 105.799 104.676 106.069 104.556C106.343 104.432 106.572 104.266 106.758 104.058C106.943 103.846 107.078 103.602 107.163 103.325L107.334 103.608C107.279 103.781 107.192 103.955 107.075 104.131C106.958 104.307 106.807 104.468 106.621 104.614C106.436 104.757 106.217 104.875 105.967 104.966C105.716 105.054 105.431 105.098 105.112 105.098C104.777 105.098 104.484 105.036 104.233 104.912C103.986 104.785 103.794 104.613 103.657 104.395C103.521 104.173 103.452 103.921 103.452 103.638C103.452 103.394 103.507 103.171 103.618 102.969C103.729 102.767 103.888 102.594 104.097 102.451C104.308 102.305 104.564 102.194 104.863 102.119C105.166 102.041 105.506 102.002 105.884 102.002H107.202ZM110.967 104.741C111.23 104.741 111.479 104.692 111.714 104.595C111.951 104.497 112.148 104.349 112.305 104.15C112.464 103.949 112.554 103.693 112.573 103.384H112.954C112.938 103.735 112.837 104.04 112.651 104.297C112.466 104.551 112.227 104.748 111.934 104.888C111.641 105.028 111.318 105.098 110.967 105.098C110.615 105.098 110.301 105.033 110.024 104.902C109.751 104.772 109.521 104.588 109.336 104.351C109.15 104.113 109.009 103.835 108.911 103.516C108.817 103.193 108.77 102.842 108.77 102.461V102.256C108.77 101.875 108.817 101.525 108.911 101.206C109.009 100.884 109.15 100.604 109.336 100.366C109.521 100.129 109.749 99.9447 110.02 99.8145C110.293 99.6842 110.605 99.6191 110.957 99.6191C111.312 99.6191 111.637 99.6924 111.934 99.8389C112.23 99.9821 112.469 100.192 112.651 100.469C112.837 100.742 112.938 101.077 112.954 101.475H112.573C112.557 101.149 112.474 100.876 112.324 100.654C112.174 100.433 111.979 100.265 111.738 100.151C111.497 100.034 111.237 99.9756 110.957 99.9756C110.645 99.9756 110.374 100.036 110.146 100.156C109.919 100.277 109.731 100.443 109.585 100.654C109.438 100.863 109.331 101.105 109.263 101.382C109.194 101.655 109.16 101.947 109.16 102.256V102.461C109.16 102.773 109.194 103.068 109.263 103.345C109.331 103.618 109.438 103.859 109.585 104.067C109.731 104.276 109.919 104.44 110.146 104.561C110.378 104.681 110.651 104.741 110.967 104.741ZM114.673 99.7168V105H114.282V99.7168H114.673ZM114.16 98.1152C114.16 98.0273 114.189 97.9525 114.248 97.8906C114.31 97.8255 114.388 97.793 114.482 97.793C114.574 97.793 114.65 97.8255 114.712 97.8906C114.774 97.9525 114.805 98.0273 114.805 98.1152C114.805 98.2031 114.774 98.278 114.712 98.3398C114.65 98.3984 114.574 98.4277 114.482 98.4277C114.388 98.4277 114.31 98.3984 114.248 98.3398C114.189 98.278 114.16 98.2031 114.16 98.1152ZM115.986 102.451V102.266C115.986 101.878 116.042 101.523 116.152 101.201C116.266 100.879 116.426 100.601 116.631 100.366C116.836 100.129 117.08 99.9447 117.363 99.8145C117.65 99.6842 117.967 99.6191 118.315 99.6191C118.664 99.6191 118.981 99.6842 119.268 99.8145C119.554 99.9447 119.8 100.129 120.005 100.366C120.213 100.601 120.373 100.879 120.483 101.201C120.594 101.523 120.649 101.878 120.649 102.266V102.451C120.649 102.839 120.594 103.193 120.483 103.516C120.373 103.838 120.215 104.118 120.01 104.355C119.805 104.59 119.559 104.772 119.272 104.902C118.989 105.033 118.674 105.098 118.325 105.098C117.974 105.098 117.655 105.033 117.368 104.902C117.085 104.772 116.839 104.59 116.631 104.355C116.426 104.118 116.266 103.838 116.152 103.516C116.042 103.193 115.986 102.839 115.986 102.451ZM116.377 102.266V102.451C116.377 102.757 116.419 103.049 116.504 103.325C116.592 103.599 116.719 103.843 116.885 104.058C117.051 104.269 117.254 104.437 117.495 104.561C117.736 104.681 118.013 104.741 118.325 104.741C118.631 104.741 118.905 104.681 119.146 104.561C119.386 104.437 119.588 104.269 119.751 104.058C119.917 103.843 120.042 103.599 120.127 103.325C120.215 103.049 120.259 102.757 120.259 102.451V102.266C120.259 101.966 120.215 101.68 120.127 101.406C120.042 101.133 119.917 100.889 119.751 100.674C119.585 100.459 119.382 100.29 119.141 100.166C118.9 100.039 118.625 99.9756 118.315 99.9756C118.006 99.9756 117.731 100.039 117.49 100.166C117.253 100.29 117.049 100.459 116.88 100.674C116.714 100.889 116.589 101.133 116.504 101.406C116.419 101.68 116.377 101.966 116.377 102.266ZM118.066 98.833L118.994 97.5098H119.468L118.447 98.833H118.066ZM122.29 100.845V105H121.904V99.7168H122.285L122.29 100.845ZM122.217 101.953L122.026 101.729C122.056 101.449 122.124 101.182 122.231 100.928C122.342 100.674 122.487 100.449 122.666 100.254C122.848 100.059 123.06 99.904 123.301 99.79C123.545 99.6761 123.813 99.6191 124.106 99.6191C124.37 99.6191 124.606 99.6566 124.814 99.7314C125.023 99.8031 125.199 99.917 125.342 100.073C125.488 100.229 125.599 100.431 125.674 100.679C125.749 100.923 125.786 101.221 125.786 101.572V105H125.4V101.572C125.4 101.156 125.343 100.833 125.229 100.605C125.116 100.374 124.956 100.212 124.751 100.117C124.549 100.023 124.313 99.9756 124.043 99.9756C123.73 99.9756 123.46 100.046 123.232 100.186C123.008 100.322 122.822 100.496 122.676 100.708C122.529 100.916 122.417 101.133 122.339 101.357C122.264 101.582 122.223 101.781 122.217 101.953ZM133.306 103.975V97.5H133.691V105H133.32L133.306 103.975ZM129.565 102.407V102.305C129.565 101.891 129.611 101.52 129.702 101.191C129.793 100.859 129.925 100.578 130.098 100.347C130.27 100.112 130.48 99.9333 130.728 99.8096C130.978 99.6826 131.261 99.6191 131.577 99.6191C131.873 99.6191 132.137 99.6663 132.368 99.7607C132.599 99.8519 132.799 99.9837 132.969 100.156C133.138 100.326 133.276 100.526 133.384 100.757C133.494 100.985 133.576 101.237 133.628 101.514V103.335C133.589 103.579 133.516 103.809 133.408 104.023C133.304 104.235 133.166 104.422 132.993 104.585C132.824 104.744 132.62 104.87 132.383 104.961C132.145 105.052 131.873 105.098 131.567 105.098C131.255 105.098 130.975 105.033 130.728 104.902C130.48 104.772 130.27 104.588 130.098 104.351C129.925 104.113 129.793 103.83 129.702 103.501C129.611 103.172 129.565 102.808 129.565 102.407ZM129.961 102.305V102.407C129.961 102.743 129.993 103.052 130.059 103.335C130.127 103.618 130.228 103.864 130.361 104.072C130.498 104.281 130.669 104.443 130.874 104.561C131.082 104.678 131.326 104.736 131.606 104.736C131.965 104.736 132.267 104.671 132.515 104.541C132.762 104.411 132.959 104.238 133.105 104.023C133.255 103.809 133.359 103.571 133.418 103.311V101.587C133.382 101.421 133.325 101.245 133.247 101.06C133.172 100.871 133.066 100.695 132.93 100.532C132.796 100.369 132.622 100.238 132.407 100.137C132.192 100.033 131.929 99.9805 131.616 99.9805C131.333 99.9805 131.087 100.039 130.879 100.156C130.674 100.273 130.503 100.436 130.366 100.645C130.229 100.853 130.127 101.099 130.059 101.382C129.993 101.665 129.961 101.973 129.961 102.305ZM137.271 105.098C136.938 105.098 136.631 105.034 136.348 104.907C136.064 104.777 135.817 104.596 135.605 104.365C135.394 104.131 135.228 103.854 135.107 103.535C134.99 103.216 134.932 102.866 134.932 102.485V102.271C134.932 101.877 134.99 101.519 135.107 101.196C135.228 100.871 135.391 100.591 135.596 100.356C135.801 100.119 136.037 99.9365 136.304 99.8096C136.574 99.6826 136.862 99.6191 137.168 99.6191C137.477 99.6191 137.757 99.6761 138.008 99.79C138.258 99.904 138.473 100.063 138.652 100.269C138.831 100.474 138.968 100.718 139.062 101.001C139.157 101.284 139.204 101.597 139.204 101.938V102.266H135.176V101.909H138.818V101.846C138.815 101.514 138.747 101.206 138.613 100.923C138.483 100.64 138.296 100.412 138.052 100.239C137.808 100.063 137.513 99.9756 137.168 99.9756C136.891 99.9756 136.639 100.034 136.411 100.151C136.187 100.269 135.993 100.431 135.83 100.64C135.667 100.845 135.542 101.087 135.454 101.367C135.366 101.644 135.322 101.945 135.322 102.271V102.485C135.322 102.798 135.371 103.091 135.469 103.364C135.566 103.638 135.703 103.879 135.879 104.087C136.055 104.292 136.261 104.453 136.499 104.57C136.737 104.688 136.997 104.746 137.28 104.746C137.586 104.746 137.866 104.692 138.12 104.585C138.374 104.478 138.605 104.289 138.813 104.019L139.067 104.209C138.95 104.378 138.809 104.53 138.643 104.663C138.477 104.797 138.28 104.902 138.052 104.98C137.827 105.059 137.567 105.098 137.271 105.098ZM68.5352 109.891H70.8154C71.2842 109.891 71.696 109.97 72.0508 110.13C72.4056 110.289 72.6823 110.522 72.8809 110.828C73.0827 111.134 73.1836 111.51 73.1836 111.956C73.1836 112.298 73.1104 112.607 72.9639 112.884C72.8174 113.16 72.6188 113.39 72.3682 113.572C72.1175 113.751 71.8343 113.868 71.5186 113.924L71.3477 113.987H68.7256L68.7158 113.626H71.0156C71.4095 113.626 71.7367 113.546 71.9971 113.387C72.2607 113.227 72.4577 113.021 72.5879 112.767C72.7214 112.509 72.7881 112.239 72.7881 111.956C72.7881 111.601 72.7083 111.299 72.5488 111.048C72.3926 110.794 72.1663 110.599 71.8701 110.462C71.5771 110.322 71.2256 110.252 70.8154 110.252H68.9307V117H68.5352V109.891ZM73.0615 117L71.1572 113.846L71.5967 113.841L73.4814 116.932V117H73.0615ZM75.3467 111.717V117H74.9561V111.717H75.3467ZM74.834 110.115C74.834 110.027 74.8633 109.952 74.9219 109.891C74.9837 109.826 75.0618 109.793 75.1562 109.793C75.2474 109.793 75.3239 109.826 75.3857 109.891C75.4476 109.952 75.4785 110.027 75.4785 110.115C75.4785 110.203 75.4476 110.278 75.3857 110.34C75.3239 110.398 75.2474 110.428 75.1562 110.428C75.0618 110.428 74.9837 110.398 74.9219 110.34C74.8633 110.278 74.834 110.203 74.834 110.115ZM78.9893 117.098C78.6572 117.098 78.3496 117.034 78.0664 116.907C77.7832 116.777 77.5358 116.596 77.3242 116.365C77.1126 116.131 76.9466 115.854 76.8262 115.535C76.709 115.216 76.6504 114.866 76.6504 114.485V114.271C76.6504 113.877 76.709 113.519 76.8262 113.196C76.9466 112.871 77.1094 112.591 77.3145 112.356C77.5195 112.119 77.7555 111.937 78.0225 111.81C78.2926 111.683 78.5807 111.619 78.8867 111.619C79.196 111.619 79.4759 111.676 79.7266 111.79C79.9772 111.904 80.1921 112.063 80.3711 112.269C80.5501 112.474 80.6868 112.718 80.7812 113.001C80.8757 113.284 80.9229 113.597 80.9229 113.938V114.266H76.8945V113.909H80.5371V113.846C80.5339 113.514 80.4655 113.206 80.332 112.923C80.2018 112.64 80.0146 112.412 79.7705 112.239C79.5264 112.063 79.2318 111.976 78.8867 111.976C78.61 111.976 78.3577 112.034 78.1299 112.151C77.9053 112.269 77.7116 112.431 77.5488 112.64C77.3861 112.845 77.2607 113.087 77.1729 113.367C77.085 113.644 77.041 113.945 77.041 114.271V114.485C77.041 114.798 77.0898 115.091 77.1875 115.364C77.2852 115.638 77.4219 115.879 77.5977 116.087C77.7734 116.292 77.9801 116.453 78.2178 116.57C78.4554 116.688 78.7158 116.746 78.999 116.746C79.305 116.746 79.585 116.692 79.8389 116.585C80.0928 116.478 80.3239 116.289 80.5322 116.019L80.7861 116.209C80.6689 116.378 80.5273 116.53 80.3613 116.663C80.1953 116.797 79.9984 116.902 79.7705 116.98C79.5459 117.059 79.2855 117.098 78.9893 117.098ZM85.3516 115.687C85.3516 115.53 85.3092 115.376 85.2246 115.223C85.1432 115.07 84.9919 114.926 84.7705 114.793C84.5524 114.66 84.235 114.547 83.8184 114.456C83.5221 114.391 83.2601 114.319 83.0322 114.241C82.8076 114.163 82.6188 114.069 82.4658 113.958C82.3128 113.844 82.1973 113.709 82.1191 113.553C82.0443 113.396 82.0068 113.209 82.0068 112.991C82.0068 112.802 82.0475 112.625 82.1289 112.459C82.2103 112.293 82.3291 112.148 82.4854 112.024C82.6449 111.897 82.8353 111.798 83.0566 111.727C83.278 111.655 83.5286 111.619 83.8086 111.619C84.209 111.619 84.5508 111.686 84.834 111.819C85.1204 111.95 85.3402 112.13 85.4932 112.361C85.6462 112.589 85.7227 112.854 85.7227 113.157H85.332C85.332 112.952 85.2734 112.76 85.1562 112.581C85.0391 112.402 84.8665 112.257 84.6387 112.146C84.4141 112.033 84.1374 111.976 83.8086 111.976C83.4766 111.976 83.2064 112.026 82.998 112.127C82.7897 112.228 82.6367 112.356 82.5391 112.513C82.4447 112.666 82.3975 112.822 82.3975 112.981C82.3975 113.108 82.4154 113.227 82.4512 113.338C82.4902 113.445 82.5635 113.545 82.6709 113.636C82.7783 113.727 82.9329 113.815 83.1348 113.899C83.3366 113.981 83.5986 114.057 83.9209 114.129C84.3441 114.223 84.6891 114.339 84.9561 114.476C85.223 114.609 85.4199 114.773 85.5469 114.969C85.6738 115.161 85.7373 115.397 85.7373 115.677C85.7373 115.885 85.6934 116.077 85.6055 116.253C85.5176 116.425 85.3906 116.575 85.2246 116.702C85.0618 116.829 84.8633 116.927 84.6289 116.995C84.3945 117.063 84.1341 117.098 83.8477 117.098C83.4147 117.098 83.0469 117.029 82.7441 116.893C82.4447 116.753 82.2168 116.569 82.0605 116.341C81.9076 116.113 81.8311 115.867 81.8311 115.604H82.2217C82.2445 115.893 82.3389 116.121 82.5049 116.287C82.6742 116.453 82.8792 116.57 83.1201 116.639C83.3643 116.707 83.6068 116.741 83.8477 116.741C84.1764 116.741 84.4515 116.691 84.6729 116.59C84.8975 116.486 85.0667 116.354 85.1807 116.194C85.2946 116.032 85.3516 115.862 85.3516 115.687ZM90.6494 111.717H91.0254V116.917C91.0254 117.369 90.9424 117.76 90.7764 118.089C90.6104 118.421 90.3743 118.675 90.0684 118.851C89.7656 119.03 89.4027 119.119 88.9795 119.119C88.7386 119.119 88.5075 119.083 88.2861 119.012C88.068 118.94 87.8662 118.836 87.6807 118.699C87.4984 118.566 87.3405 118.408 87.207 118.226L87.4463 117.981C87.6546 118.239 87.8809 118.434 88.125 118.567C88.3724 118.701 88.6507 118.768 88.96 118.768C89.3245 118.768 89.6305 118.693 89.8779 118.543C90.1253 118.393 90.3125 118.18 90.4395 117.903C90.5664 117.63 90.6299 117.304 90.6299 116.927V112.879L90.6494 111.717ZM86.8945 114.407V114.305C86.8945 113.891 86.9401 113.52 87.0312 113.191C87.1224 112.859 87.2542 112.578 87.4268 112.347C87.5993 112.112 87.8092 111.933 88.0566 111.81C88.3073 111.683 88.5905 111.619 88.9062 111.619C89.2025 111.619 89.4645 111.666 89.6924 111.761C89.9235 111.852 90.1237 111.984 90.293 112.156C90.4655 112.326 90.6055 112.526 90.7129 112.757C90.8236 112.985 90.9066 113.237 90.9619 113.514V115.335C90.9196 115.579 90.8464 115.809 90.7422 116.023C90.638 116.235 90.4997 116.422 90.3271 116.585C90.1546 116.744 89.9495 116.87 89.7119 116.961C89.4743 117.052 89.2025 117.098 88.8965 117.098C88.584 117.098 88.304 117.033 88.0566 116.902C87.8092 116.772 87.5993 116.588 87.4268 116.351C87.2542 116.113 87.1224 115.83 87.0312 115.501C86.9401 115.172 86.8945 114.808 86.8945 114.407ZM87.29 114.305V114.407C87.29 114.743 87.3226 115.052 87.3877 115.335C87.4561 115.618 87.557 115.864 87.6904 116.072C87.8271 116.281 87.9997 116.443 88.208 116.561C88.4163 116.678 88.6589 116.736 88.9355 116.736C89.2936 116.736 89.5947 116.671 89.8389 116.541C90.083 116.411 90.2783 116.238 90.4248 116.023C90.5713 115.809 90.6738 115.571 90.7324 115.311V113.587C90.6966 113.421 90.6413 113.245 90.5664 113.06C90.4915 112.871 90.3857 112.695 90.249 112.532C90.1156 112.369 89.943 112.238 89.7314 112.137C89.5199 112.033 89.2578 111.98 88.9453 111.98C88.6654 111.98 88.4196 112.039 88.208 112.156C87.9997 112.273 87.8271 112.436 87.6904 112.645C87.557 112.853 87.4561 113.099 87.3877 113.382C87.3226 113.665 87.29 113.973 87.29 114.305ZM92.2754 114.451V114.266C92.2754 113.878 92.3307 113.523 92.4414 113.201C92.5553 112.879 92.7148 112.601 92.9199 112.366C93.125 112.129 93.3691 111.945 93.6523 111.814C93.9388 111.684 94.2562 111.619 94.6045 111.619C94.9528 111.619 95.2702 111.684 95.5566 111.814C95.8431 111.945 96.0889 112.129 96.2939 112.366C96.5023 112.601 96.6618 112.879 96.7725 113.201C96.8831 113.523 96.9385 113.878 96.9385 114.266V114.451C96.9385 114.839 96.8831 115.193 96.7725 115.516C96.6618 115.838 96.5039 116.118 96.2988 116.355C96.0938 116.59 95.848 116.772 95.5615 116.902C95.2783 117.033 94.9626 117.098 94.6143 117.098C94.2627 117.098 93.9437 117.033 93.6572 116.902C93.374 116.772 93.1283 116.59 92.9199 116.355C92.7148 116.118 92.5553 115.838 92.4414 115.516C92.3307 115.193 92.2754 114.839 92.2754 114.451ZM92.666 114.266V114.451C92.666 114.757 92.7083 115.049 92.793 115.325C92.8809 115.599 93.0078 115.843 93.1738 116.058C93.3398 116.269 93.5433 116.437 93.7842 116.561C94.0251 116.681 94.3018 116.741 94.6143 116.741C94.9202 116.741 95.1937 116.681 95.4346 116.561C95.6755 116.437 95.8773 116.269 96.04 116.058C96.2061 115.843 96.3314 115.599 96.416 115.325C96.5039 115.049 96.5479 114.757 96.5479 114.451V114.266C96.5479 113.966 96.5039 113.68 96.416 113.406C96.3314 113.133 96.2061 112.889 96.04 112.674C95.874 112.459 95.6706 112.29 95.4297 112.166C95.1888 112.039 94.9137 111.976 94.6045 111.976C94.2952 111.976 94.0202 112.039 93.7793 112.166C93.5417 112.29 93.3382 112.459 93.1689 112.674C93.0029 112.889 92.8776 113.133 92.793 113.406C92.7083 113.68 92.666 113.966 92.666 114.266ZM101.416 115.687C101.416 115.53 101.374 115.376 101.289 115.223C101.208 115.07 101.056 114.926 100.835 114.793C100.617 114.66 100.299 114.547 99.8828 114.456C99.5866 114.391 99.3245 114.319 99.0967 114.241C98.8721 114.163 98.6833 114.069 98.5303 113.958C98.3773 113.844 98.2617 113.709 98.1836 113.553C98.1087 113.396 98.0713 113.209 98.0713 112.991C98.0713 112.802 98.112 112.625 98.1934 112.459C98.2747 112.293 98.3936 112.148 98.5498 112.024C98.7093 111.897 98.8997 111.798 99.1211 111.727C99.3424 111.655 99.5931 111.619 99.873 111.619C100.273 111.619 100.615 111.686 100.898 111.819C101.185 111.95 101.405 112.13 101.558 112.361C101.711 112.589 101.787 112.854 101.787 113.157H101.396C101.396 112.952 101.338 112.76 101.221 112.581C101.104 112.402 100.931 112.257 100.703 112.146C100.479 112.033 100.202 111.976 99.873 111.976C99.541 111.976 99.2708 112.026 99.0625 112.127C98.8542 112.228 98.7012 112.356 98.6035 112.513C98.5091 112.666 98.4619 112.822 98.4619 112.981C98.4619 113.108 98.4798 113.227 98.5156 113.338C98.5547 113.445 98.6279 113.545 98.7354 113.636C98.8428 113.727 98.9974 113.815 99.1992 113.899C99.401 113.981 99.6631 114.057 99.9854 114.129C100.409 114.223 100.754 114.339 101.021 114.476C101.287 114.609 101.484 114.773 101.611 114.969C101.738 115.161 101.802 115.397 101.802 115.677C101.802 115.885 101.758 116.077 101.67 116.253C101.582 116.425 101.455 116.575 101.289 116.702C101.126 116.829 100.928 116.927 100.693 116.995C100.459 117.063 100.199 117.098 99.9121 117.098C99.4792 117.098 99.1113 117.029 98.8086 116.893C98.5091 116.753 98.2812 116.569 98.125 116.341C97.972 116.113 97.8955 115.867 97.8955 115.604H98.2861C98.3089 115.893 98.4033 116.121 98.5693 116.287C98.7386 116.453 98.9437 116.57 99.1846 116.639C99.4287 116.707 99.6712 116.741 99.9121 116.741C100.241 116.741 100.516 116.691 100.737 116.59C100.962 116.486 101.131 116.354 101.245 116.194C101.359 116.032 101.416 115.862 101.416 115.687Z" fill="#222121"/>
<path fill-rule="evenodd" clip-rule="evenodd" d="M85 73C89.071 73 93.1021 72.1982 96.8632 70.6403C100.624 69.0824 104.042 66.7989 106.92 63.9203C109.799 61.0417 112.082 57.6243 113.64 53.8632C115.198 50.1021 116 46.071 116 42C116 37.929 115.198 33.8979 113.64 30.1368C112.082 26.3757 109.799 22.9583 106.92 20.0797C104.042 17.2011 100.624 14.9176 96.8632 13.3597C93.1021 11.8018 89.071 11 85 11C76.7783 11 68.8933 14.2661 63.0797 20.0797C57.2661 25.8933 54 33.7783 54 42C54 50.2217 57.2661 58.1067 63.0797 63.9203C68.8933 69.7339 76.7783 73 85 73ZM84.2009 54.5378L101.423 33.8711L96.1324 29.4622L81.3213 47.2321L73.6574 39.5648L68.787 44.4352L79.1203 54.7686L81.7863 57.4346L84.2009 54.5378Z" fill="#2A6D4C"/>
</svg>
